<?xml version="1.0" encoding="UTF-8" standalone="no"?>
<!DOCTYPE svg PUBLIC "-//W3C//DTD SVG 1.1//EN" "http://www.w3.org/Graphics/SVG/1.1/DTD/svg11.dtd">
<svg xmlns="http://www.w3.org/2000/svg" version="1.1" viewBox="0 0 500 500">
<g stroke-width="2.00" fill="none" stroke-linecap="butt">
<path stroke="#d5a072" vector-effect="non-scaling-stroke" d="
  M 170.49 194.42
  L 159.99 202.53"
/>
<path stroke="#d5a072" vector-effect="non-scaling-stroke" d="
  M 163.54 194.74
  Q 156.34 194.07 149.44 195.72
  Q 142.14 197.47 135.01 199.90
  C 132.35 200.81 130.38 202.38 132.46 205.25"
/>
<path stroke="#d5a072" vector-effect="non-scaling-stroke" d="
  M 138.02 253.57
  Q 127.74 252.80 121.23 255.74
  Q 118.93 256.78 121.00 258.04"
/>
<path stroke="#d5a072" vector-effect="non-scaling-stroke" d="
  M 116.16 259.70
  C 116.56 256.05 114.63 258.42 113.59 258.77
  Q 104.62 261.78 98.04 268.44"
/>
<path stroke="#d5a072" vector-effect="non-scaling-stroke" d="
  M 127.83 204.62
  Q 128.01 203.09 126.63 203.18
  A 1.05 1.01 20.8 0 0 126.04 203.43
  C 123.74 205.46 121.15 205.16 118.95 206.05
  Q 105.92 211.30 94.49 219.36"
/>
<path stroke="#d5a072" vector-effect="non-scaling-stroke" d="
  M 300.46 204.00
  Q 295.24 215.72 288.84 226.83
  Q 287.55 229.08 287.50 232.99
  A 0.52 0.51 -88.9 0 0 287.99 233.51
  Q 288.23 233.52 288.35 233.45"
/>
<path stroke="#bc8d55" stroke-opacity="0.871" vector-effect="non-scaling-stroke" d="
  M 276.96 263.75
  L 276.96 263.38
  Q 276.97 261.19 275.31 262.62
  Q 272.30 265.20 268.50 266.54"
/>
<path stroke="#bc8d55" stroke-opacity="0.871" vector-effect="non-scaling-stroke" d="
  M 250.71 256.50
  Q 250.88 256.20 250.97 255.89
  Q 251.54 254.02 249.82 254.96
  Q 249.26 255.26 248.69 255.55
  C 246.96 256.41 243.86 256.04 241.75 256.54"
/>
<path stroke="#d5a072" vector-effect="non-scaling-stroke" d="
  M 235.97 257.63
  Q 233.66 258.94 231.80 262.31
  Q 228.17 268.88 221.00 274.76"
/>
<path stroke="#bc8d55" stroke-opacity="0.871" vector-effect="non-scaling-stroke" d="
  M 217.96 260.00
  L 218.25 258.49
  Q 218.70 256.14 216.93 257.75
  Q 214.72 259.74 212.81 262.05
  Q 210.86 264.40 204.76 265.97"
/>
<path stroke="#bc8d55" stroke-opacity="0.871" vector-effect="non-scaling-stroke" d="
  M 225.78 246.05
  C 224.69 248.34 221.80 255.46 222.79 258.00"
/>
<path stroke="#bc8d55" stroke-opacity="0.871" vector-effect="non-scaling-stroke" d="
  M 221.46 263.50
  Q 220.01 265.19 220.54 267.50"
/>
<path stroke="#bc8d55" stroke-opacity="0.871" vector-effect="non-scaling-stroke" d="
  M 263.25 245.46
  Q 261.39 243.50 259.32 245.63
  Q 255.40 249.68 255.25 255.23"
/>
<path stroke="#d5a072" vector-effect="non-scaling-stroke" d="
  M 374.71 204.75
  Q 373.82 205.88 373.77 207.30
  A 0.99 0.99 0.0 0 1 373.41 208.02
  Q 372.43 208.86 372.60 210.11
  A 0.98 0.96 -34.3 0 1 372.47 210.75
  C 370.84 213.53 358.14 233.21 362.31 235.18"
/>
<path stroke="#bc8d55" stroke-opacity="0.871" vector-effect="non-scaling-stroke" d="
  M 352.46 260.25
  L 352.50 259.12
  Q 352.59 256.46 350.77 258.40
  Q 346.90 262.51 342.72 266.20
  Q 341.79 267.01 335.85 269.11"
/>
<path stroke="#d5a072" vector-effect="non-scaling-stroke" d="
  M 344.97 242.92
  Q 338.54 245.67 336.67 252.18"
/>
<path stroke="#bc8d55" stroke-opacity="0.871" vector-effect="non-scaling-stroke" d="
  M 250.00 225.96
  Q 247.15 224.12 244.57 224.10
  Q 223.90 223.90 203.22 224.28
  A 1.00 0.99 2.3 0 0 202.25 225.17
  L 201.76 229.57
  A 1.01 1.01 0.0 0 1 201.53 230.12
  Q 200.42 231.39 200.86 232.96
  A 1.00 0.98 58.9 0 1 200.63 233.92
  Q 199.36 235.24 199.82 237.14
  A 0.99 0.97 51.8 0 1 199.75 237.79
  Q 198.20 241.14 198.59 244.93
  A 0.99 0.97 59.9 0 1 198.42 245.60
  Q 197.13 247.46 197.54 249.72
  A 1.01 1.01 0.0 0 1 197.28 250.59
  Q 195.66 252.30 196.97 254.26"
/>
<path stroke="#bc8d55" stroke-opacity="0.871" vector-effect="non-scaling-stroke" d="
  M 191.95 257.92
  L 192.04 257.30
  Q 192.54 254.03 190.31 256.48
  Q 184.13 263.27 178.43 270.46
  C 177.78 271.28 177.82 272.31 178.50 273.04"
/>
<path stroke="#d5a072" vector-effect="non-scaling-stroke" d="
  M 178.64 280.17
  Q 176.51 283.56 174.43 286.91
  Q 172.06 290.73 166.93 291.59"
/>
<path stroke="#bc8d55" stroke-opacity="0.871" vector-effect="non-scaling-stroke" d="
  M 166.50 255.71
  Q 166.29 254.42 165.21 254.50"
/>
<path stroke="#d5a072" vector-effect="non-scaling-stroke" d="
  M 165.21 254.50
  C 159.68 260.99 154.69 266.29 147.00 268.54"
/>
<path stroke="#d5a072" vector-effect="non-scaling-stroke" d="
  M 156.71 241.25
  Q 153.21 244.17 147.44 250.69
  Q 146.05 252.26 147.25 253.29"
/>
<path stroke="#d5a072" vector-effect="non-scaling-stroke" d="
  M 178.08 244.32
  Q 170.85 241.15 168.49 248.51
  Q 167.98 250.10 169.71 250.50"
/>
<path stroke="#bc8d55" stroke-opacity="0.871" vector-effect="non-scaling-stroke" d="
  M 199.10 225.76
  Q 195.26 224.88 191.75 226.46"
/>
<path stroke="#c39796" stroke-opacity="0.871" vector-effect="non-scaling-stroke" d="
  M 166.04 255.75
  Q 165.00 255.47 165.21 254.50"
/>
<path stroke="#bc8d55" stroke-opacity="0.871" vector-effect="non-scaling-stroke" d="
  M 335.71 233.25
  Q 334.58 232.15 334.08 233.31
  C 331.69 238.99 328.09 244.23 328.50 249.50"
/>
<path stroke="#bc8d55" stroke-opacity="0.871" vector-effect="non-scaling-stroke" d="
  M 328.50 249.50
  Q 325.59 253.98 326.71 259.25"
/>
<path stroke="#bc8d55" stroke-opacity="0.871" vector-effect="non-scaling-stroke" d="
  M 322.29 261.50
  Q 322.71 260.09 322.84 258.90
  Q 323.27 254.71 321.00 258.25
  Q 317.84 263.20 312.99 266.97"
/>
<path stroke="#bc8d55" stroke-opacity="0.871" vector-effect="non-scaling-stroke" d="
  M 442.04 244.00
  L 440.79 248.50"
/>
<path stroke="#d5a072" vector-effect="non-scaling-stroke" d="
  M 487.88 251.63
  C 482.76 254.26 479.85 257.44 473.37 258.19
  A 1.00 1.00 0.0 0 0 472.80 258.46
  L 466.46 264.50"
/>
<path stroke="#bc8d55" stroke-opacity="0.871" vector-effect="non-scaling-stroke" d="
  M 461.25 259.96
  Q 461.02 258.98 460.17 259.01
  A 0.81 0.78 20.7 0 0 459.63 259.24
  Q 456.78 262.07 452.75 262.29"
/>
<path stroke="#bc8d55" stroke-opacity="0.871" vector-effect="non-scaling-stroke" d="
  M 446.50 250.50
  Q 445.62 250.16 444.87 250.34
  C 442.47 250.92 437.60 263.36 436.81 265.86
  A 1.05 1.03 83.6 0 1 436.36 266.43
  L 434.00 267.79"
/>
<path stroke="#bc8d55" stroke-opacity="0.871" vector-effect="non-scaling-stroke" d="
  M 433.83 260.61
  L 433.97 259.96
  Q 434.50 257.41 432.63 259.23
  Q 427.90 263.81 421.22 265.34"
/>
<path stroke="#bc8d55" stroke-opacity="0.871" vector-effect="non-scaling-stroke" d="
  M 418.43 255.71
  L 418.48 255.08
  Q 418.64 253.24 417.01 254.12
  Q 412.53 256.52 407.25 256.29"
/>
<path stroke="#d5a072" vector-effect="non-scaling-stroke" d="
  M 402.73 252.86
  C 397.60 261.53 395.42 266.94 387.00 274.79"
/>
<path stroke="#bc8d55" stroke-opacity="0.871" vector-effect="non-scaling-stroke" d="
  M 391.51 246.03
  Q 387.31 255.74 386.44 266.25"
/>
<path stroke="#bc8d55" stroke-opacity="0.871" vector-effect="non-scaling-stroke" d="
  M 422.54 253.25
  Q 421.68 256.57 422.04 260.00"
/>
<path stroke="#bc8d55" stroke-opacity="0.871" vector-effect="non-scaling-stroke" d="
  M 368.50 209.50
  Q 367.55 210.53 367.53 211.81
  Q 367.52 212.68 367.77 211.87
  L 368.50 209.50"
/>
<path stroke="#bc8d55" stroke-opacity="0.871" vector-effect="non-scaling-stroke" d="
  M 368.50 209.50
  Q 369.65 207.94 369.79 206.07
  Q 369.84 205.49 369.65 206.04
  L 368.50 209.50"
/>
<path stroke="#bc8d55" stroke-opacity="0.871" vector-effect="non-scaling-stroke" d="
  M 173.49 278.22
  Q 170.19 281.79 168.89 286.39
  Q 168.28 288.54 170.11 287.27
  Q 170.74 286.84 170.95 285.96"
/>
<path stroke="#bc8d55" stroke-opacity="0.871" vector-effect="non-scaling-stroke" d="
  M 321.89 246.82
  Q 321.93 243.90 319.29 245.81
  Q 312.25 250.91 312.54 259.75"
/>
<path stroke="#bc8d55" stroke-opacity="0.871" vector-effect="non-scaling-stroke" d="
  M 424.39 243.37
  C 427.24 240.68 422.58 243.32 423.97 243.51
  A 0.53 0.51 -62.6 0 0 424.39 243.37"
/>
</g>
<g fill="#ce9839" fill-opacity="0.996">
<path d="
  M 170.49 194.42
  L 159.99 202.53
  C 155.80 198.84 161.90 197.35 164.00 195.48
  A 0.80 0.78 68.6 0 0 164.27 194.84
  Q 164.23 194.21 163.54 194.74
  Q 156.34 194.07 149.44 195.72
  Q 142.14 197.47 135.01 199.90
  C 132.35 200.81 130.38 202.38 132.46 205.25
  L 122.55 250.12
  A 0.98 0.97 -14.4 0 1 122.24 250.64
  Q 120.30 252.42 123.47 251.82
  Q 129.23 250.73 135.10 250.50
  C 137.32 250.41 137.81 251.64 138.02 253.57
  Q 127.74 252.80 121.23 255.74
  Q 118.93 256.78 121.00 258.04
  L 113.32 295.97
  A 1.03 1.02 -59.2 0 0 113.53 296.81
  Q 117.56 301.70 112.53 305.90
  A 0.99 0.99 0.0 0 1 111.10 305.74
  L 109.17 303.19
  A 1.00 0.99 26.3 0 1 108.96 302.58
  Q 108.99 297.58 109.88 292.68
  Q 112.84 276.31 116.16 259.70
  C 116.56 256.05 114.63 258.42 113.59 258.77
  Q 104.62 261.78 98.04 268.44
  Q 96.37 267.40 96.70 265.76
  A 1.03 1.02 75.7 0 1 97.04 265.18
  Q 106.01 257.78 117.00 253.99
  A 1.01 0.98 87.1 0 0 117.65 253.25
  L 127.83 204.62
  Q 128.01 203.09 126.63 203.18
  A 1.05 1.01 20.8 0 0 126.04 203.43
  C 123.74 205.46 121.15 205.16 118.95 206.05
  Q 105.92 211.30 94.49 219.36
  Q 92.61 218.51 93.60 216.32
  A 1.03 1.01 87.1 0 1 93.99 215.88
  Q 110.45 205.63 128.76 199.26
  A 1.03 1.00 89.1 0 0 129.39 198.59
  C 129.83 197.11 129.93 193.08 131.87 193.22
  A 1.01 0.99 83.3 0 1 132.77 193.94
  L 133.42 196.22
  A 1.01 1.01 0.0 0 0 134.67 196.91
  Q 143.43 194.36 152.25 192.26
  Q 158.79 190.71 165.49 190.58
  Q 169.24 190.51 170.49 194.42
  Z"
/>
<path d="
  M 300.46 204.00
  Q 295.24 215.72 288.84 226.83
  Q 287.55 229.08 287.50 232.99
  A 0.52 0.51 -88.9 0 0 287.99 233.51
  Q 288.23 233.52 288.35 233.45
  Q 281.03 264.18 276.01 291.75
  Q 275.77 293.07 276.67 294.31
  A 1.02 1.00 40.9 0 1 276.75 295.33
  L 275.53 297.86
  A 1.00 1.00 0.0 0 1 273.85 298.05
  L 271.90 295.61
  A 1.01 0.95 29.1 0 1 271.68 294.92
  C 272.38 284.54 275.09 274.00 276.96 263.75
  L 276.96 263.38
  Q 276.97 261.19 275.31 262.62
  Q 272.30 265.20 268.50 266.54
  Q 266.01 264.93 264.92 262.57
  Q 263.54 259.56 262.55 255.54
  Q 262.10 253.69 261.56 255.52
  Q 261.44 255.93 261.76 256.40
  A 1.01 0.99 -43.1 0 1 261.71 257.58
  L 257.01 263.49
  Q 255.08 265.91 253.43 263.83
  L 251.14 260.95
  A 1.03 1.02 -59.5 0 1 250.94 260.16
  Q 251.26 258.27 250.71 256.50
  Q 250.88 256.20 250.97 255.89
  Q 251.54 254.02 249.82 254.96
  Q 249.26 255.26 248.69 255.55
  C 246.96 256.41 243.86 256.04 241.75 256.54
  L 237.34 253.00
  Q 235.97 251.91 236.53 253.56
  Q 236.61 253.79 236.78 254.00
  A 1.00 0.99 -55.5 0 1 236.96 254.99
  L 235.97 257.63
  Q 233.66 258.94 231.80 262.31
  Q 228.17 268.88 221.00 274.76
  C 215.30 270.72 217.73 265.99 217.96 260.00
  L 218.25 258.49
  Q 218.70 256.14 216.93 257.75
  Q 214.72 259.74 212.81 262.05
  Q 210.86 264.40 204.76 265.97
  Q 201.48 262.58 201.74 258.24
  C 201.88 255.96 202.44 247.87 204.44 247.29
  A 0.99 0.99 0.0 0 1 205.59 247.75
  C 207.14 250.49 206.31 252.20 205.85 254.92
  Q 205.34 257.99 205.32 259.98
  Q 205.28 263.65 208.25 261.50
  C 213.94 257.39 216.95 252.83 221.28 247.54
  Q 222.40 246.18 222.61 244.30
  A 1.00 0.96 77.8 0 1 223.07 243.56
  Q 225.31 242.17 225.78 246.05
  C 224.69 248.34 221.80 255.46 222.79 258.00
  L 221.46 263.50
  Q 220.01 265.19 220.54 267.50
  L 220.81 269.52
  A 0.80 0.79 85.2 0 0 221.62 270.21
  Q 221.80 270.21 222.01 270.17
  Q 222.34 270.11 222.62 269.82
  Q 231.98 260.35 234.98 246.25
  Q 235.37 244.43 237.02 245.23
  A 0.98 0.98 0.0 0 1 237.49 245.70
  C 239.15 249.26 240.11 253.37 245.07 253.14
  C 250.10 252.91 254.21 247.49 256.97 244.17
  C 260.79 239.56 266.35 241.08 267.88 246.93
  A 0.82 0.80 -31.7 0 1 267.69 247.68
  L 267.50 247.88
  A 0.42 0.42 0.0 0 1 266.97 247.94
  L 263.25 245.46
  Q 261.39 243.50 259.32 245.63
  Q 255.40 249.68 255.25 255.23
  L 254.35 257.77
  A 0.33 0.33 0.0 0 0 254.71 258.20
  C 255.77 258.04 262.13 249.31 263.07 247.96
  Q 264.18 246.39 264.83 248.20
  C 266.51 252.84 266.20 257.52 268.00 262.25
  A 1.00 0.99 -2.8 0 0 268.69 262.87
  C 272.17 263.75 276.91 255.28 278.33 252.76
  Q 280.32 249.22 281.58 243.84
  C 284.45 231.53 287.24 218.91 291.37 206.96
  Q 293.22 201.63 296.84 197.27
  A 1.01 1.00 43.4 0 1 298.35 197.23
  Q 301.06 200.15 300.46 204.00
  Z"
/>
<path d="
  M 374.71 204.75
  Q 373.82 205.88 373.77 207.30
  A 0.99 0.99 0.0 0 1 373.41 208.02
  Q 372.43 208.86 372.60 210.11
  A 0.98 0.96 -34.3 0 1 372.47 210.75
  C 370.84 213.53 358.14 233.21 362.31 235.18
  Q 354.78 267.86 350.50 291.25
  Q 350.22 292.81 351.15 294.72
  A 1.01 1.01 0.0 0 1 351.11 295.68
  L 349.86 297.75
  A 1.00 1.00 0.0 0 1 348.38 298.02
  Q 345.70 295.89 346.28 292.25
  Q 348.85 276.15 352.46 260.25
  L 352.50 259.12
  Q 352.59 256.46 350.77 258.40
  Q 346.90 262.51 342.72 266.20
  Q 341.79 267.01 335.85 269.11
  Q 331.10 264.98 330.98 261.74
  C 330.75 255.04 333.85 238.40 342.45 236.20
  A 0.99 0.99 0.0 0 1 343.37 236.42
  Q 346.48 239.25 344.97 242.92
  Q 338.54 245.67 336.67 252.18
  Q 333.81 257.04 334.78 263.85
  A 1.02 1.01 8.3 0 0 335.36 264.62
  C 340.87 267.12 350.94 253.74 353.63 249.92
  Q 355.21 247.67 355.90 244.66
  C 356.14 243.60 367.71 188.40 373.92 198.55
  Q 375.43 201.02 374.71 204.75
  Z
  M 368.50 209.50
  Q 367.55 210.53 367.53 211.81
  Q 367.52 212.68 367.77 211.87
  L 368.50 209.50
  Q 369.65 207.94 369.79 206.07
  Q 369.84 205.49 369.65 206.04
  L 368.50 209.50
  Z"
/>
<path d="
  M 250.00 225.96
  Q 247.15 224.12 244.57 224.10
  Q 223.90 223.90 203.22 224.28
  A 1.00 0.99 2.3 0 0 202.25 225.17
  L 201.76 229.57
  A 1.01 1.01 0.0 0 1 201.53 230.12
  Q 200.42 231.39 200.86 232.96
  A 1.00 0.98 58.9 0 1 200.63 233.92
  Q 199.36 235.24 199.82 237.14
  A 0.99 0.97 51.8 0 1 199.75 237.79
  Q 198.20 241.14 198.59 244.93
  A 0.99 0.97 59.9 0 1 198.42 245.60
  Q 197.13 247.46 197.54 249.72
  A 1.01 1.01 0.0 0 1 197.28 250.59
  Q 195.66 252.30 196.97 254.26
  Q 189.71 290.43 187.73 302.25
  C 187.34 304.63 190.06 307.32 186.99 309.38
  A 1.00 0.99 -43.2 0 1 185.84 309.35
  Q 182.86 307.14 183.44 303.50
  Q 186.69 283.13 191.95 257.92
  L 192.04 257.30
  Q 192.54 254.03 190.31 256.48
  Q 184.13 263.27 178.43 270.46
  C 177.78 271.28 177.82 272.31 178.50 273.04
  L 178.64 280.17
  Q 176.51 283.56 174.43 286.91
  Q 172.06 290.73 166.93 291.59
  Q 164.54 285.49 168.22 280.17
  C 170.11 277.45 171.96 274.45 173.72 271.99
  Q 175.02 270.18 173.82 268.14
  L 166.50 255.71
  Q 166.29 254.42 165.21 254.50
  C 159.68 260.99 154.69 266.29 147.00 268.54
  C 136.75 262.01 144.77 240.63 153.22 235.90
  A 1.00 1.00 0.0 0 1 154.39 236.05
  Q 156.54 238.06 156.71 241.25
  Q 153.21 244.17 147.44 250.69
  Q 146.05 252.26 147.25 253.29
  Q 145.30 258.94 145.51 261.01
  C 146.76 273.60 162.50 253.18 164.23 250.72
  Q 164.56 250.24 166.70 246.01
  C 168.89 241.67 178.84 236.15 180.50 243.97
  A 1.02 1.02 0.0 0 1 180.34 244.76
  Q 179.44 246.04 178.08 244.32
  Q 170.85 241.15 168.49 248.51
  Q 167.98 250.10 169.71 250.50
  Q 168.73 253.90 170.49 257.02
  Q 173.23 261.89 176.07 266.52
  A 1.00 1.00 0.0 0 0 177.69 266.64
  Q 185.15 257.67 192.84 248.98
  Q 194.33 247.29 194.87 245.15
  Q 197.22 235.78 199.10 225.76
  Q 195.26 224.88 191.75 226.46
  L 176.29 226.73
  A 1.02 1.01 -21.2 0 1 175.51 226.39
  L 173.68 224.28
  A 1.00 1.00 0.0 0 1 173.65 223.00
  Q 174.38 222.10 176.19 222.09
  Q 187.84 221.98 199.51 221.70
  A 1.01 0.99 -83.9 0 0 200.45 220.93
  Q 202.18 213.87 204.15 206.47
  Q 204.65 204.59 206.44 205.29
  Q 208.48 206.10 207.57 209.76
  L 204.96 220.25
  A 1.00 1.00 0.0 0 0 205.96 221.49
  Q 225.48 220.92 244.25 221.26
  Q 246.69 221.30 250.71 221.98
  A 1.02 1.00 82.6 0 1 251.46 222.57
  L 252.52 224.98
  A 1.01 1.00 -14.5 0 1 251.69 226.38
  Q 250.89 226.45 250.00 225.96
  Z
  M 173.49 278.22
  Q 170.19 281.79 168.89 286.39
  Q 168.28 288.54 170.11 287.27
  Q 170.74 286.84 170.95 285.96
  Q 174.91 282.68 174.57 277.94
  Q 174.39 275.31 173.58 277.82
  Q 173.52 278.01 173.49 278.22
  Z"
/>
<path d="
  M 335.71 233.25
  Q 334.58 232.15 334.08 233.31
  C 331.69 238.99 328.09 244.23 328.50 249.50
  Q 325.59 253.98 326.71 259.25
  C 326.61 260.06 325.45 268.62 325.05 268.42
  A 0.13 0.12 16.2 0 0 324.86 268.51
  Q 324.42 275.51 322.89 282.34
  C 322.35 284.75 322.83 287.48 321.71 290.08
  A 0.99 0.98 -48.5 0 0 321.76 290.97
  C 323.04 293.21 325.22 297.20 321.42 297.68
  A 1.04 1.01 60.9 0 1 320.65 297.45
  Q 317.62 294.90 318.27 290.01
  Q 321.27 267.37 322.29 261.50
  Q 322.71 260.09 322.84 258.90
  Q 323.27 254.71 321.00 258.25
  Q 317.84 263.20 312.99 266.97
  C 304.78 260.82 311.07 248.45 317.03 243.72
  Q 319.17 242.03 320.80 242.14
  Q 322.52 242.25 324.20 243.83
  Q 325.48 245.03 325.86 243.32
  Q 327.82 234.45 330.34 224.97
  C 331.40 220.99 336.23 204.70 340.21 205.16
  A 0.99 0.96 -12.8 0 1 340.93 205.60
  Q 342.90 208.58 342.60 210.52
  Q 341.21 219.52 335.71 233.25
  Z
  M 312.54 259.75
  Q 312.33 260.56 312.49 261.33
  A 1.00 0.99 -23.5 0 0 314.05 261.94
  Q 315.29 261.04 316.33 259.57
  Q 320.38 253.81 322.69 249.96
  A 1.02 0.99 51.0 0 0 322.77 249.09
  L 321.89 246.82
  Q 321.93 243.90 319.29 245.81
  Q 312.25 250.91 312.54 259.75
  Z"
/>
<path d="
  M 209.17 243.26
  C 207.03 246.03 201.22 240.86 206.86 239.08
  A 0.99 0.98 68.5 0 1 208.06 239.61
  L 209.28 242.22
  A 1.02 1.00 -39.3 0 1 209.17 243.26
  Z"
/>
<path d="
  M 421.20 240.84
  Q 422.04 239.23 423.78 238.99
  A 0.99 0.99 0.0 0 1 424.85 239.64
  L 425.89 242.44
  A 1.02 1.00 -33.5 0 1 425.67 243.49
  Q 424.73 244.43 423.37 244.16
  A 1.02 1.02 0.0 0 1 422.59 243.42
  Q 422.39 242.59 421.63 242.19
  A 1.00 1.00 0.0 0 1 421.20 240.84
  Z
  M 424.39 243.37
  C 427.24 240.68 422.58 243.32 423.97 243.51
  A 0.53 0.51 -62.6 0 0 424.39 243.37
  Z"
/>
<path d="
  M 442.04 244.00
  L 440.79 248.50
  Q 440.48 248.77 440.38 249.08
  Q 439.89 250.68 441.06 249.49
  C 448.72 241.72 451.04 254.32 453.17 258.96
  A 1.01 1.00 -31.4 0 0 454.70 259.33
  C 458.47 256.36 460.50 252.16 462.98 248.20
  A 0.99 0.96 -82.6 0 1 463.51 247.78
  Q 465.73 247.03 466.87 245.03
  A 1.03 1.02 -85.3 0 1 467.38 244.59
  C 473.29 242.25 474.35 250.59 474.50 254.34
  A 1.00 0.99 77.6 0 0 475.87 255.22
  C 479.57 253.73 481.53 252.22 484.15 249.39
  Q 486.42 246.93 487.88 251.63
  C 482.76 254.26 479.85 257.44 473.37 258.19
  A 1.00 1.00 0.0 0 0 472.80 258.46
  L 466.46 264.50
  Q 463.12 263.12 461.25 259.96
  Q 461.02 258.98 460.17 259.01
  A 0.81 0.78 20.7 0 0 459.63 259.24
  Q 456.78 262.07 452.75 262.29
  Q 448.30 257.36 446.50 250.50
  Q 445.62 250.16 444.87 250.34
  C 442.47 250.92 437.60 263.36 436.81 265.86
  A 1.05 1.03 83.6 0 1 436.36 266.43
  L 434.00 267.79
  C 432.20 266.56 433.89 262.48 433.83 260.61
  L 433.97 259.96
  Q 434.50 257.41 432.63 259.23
  Q 427.90 263.81 421.22 265.34
  Q 417.61 261.81 418.43 255.71
  L 418.48 255.08
  Q 418.64 253.24 417.01 254.12
  Q 412.53 256.52 407.25 256.29
  L 402.73 252.86
  C 397.60 261.53 395.42 266.94 387.00 274.79
  Q 382.22 271.85 383.05 265.99
  Q 384.55 255.53 388.00 245.42
  C 389.00 242.49 390.85 242.20 391.51 246.03
  Q 387.31 255.74 386.44 266.25
  L 386.53 269.24
  A 1.00 1.00 0.0 0 0 387.71 270.19
  Q 388.16 270.11 388.51 269.74
  Q 397.63 260.34 400.72 246.24
  Q 401.17 244.21 402.94 245.32
  A 1.04 1.00 -86.8 0 1 403.35 245.80
  C 408.23 258.33 413.70 252.12 421.06 247.35
  A 1.01 1.00 -29.7 0 1 422.50 247.74
  C 422.83 248.40 423.51 250.00 423.51 250.92
  Q 423.52 253.19 423.02 252.24
  Q 422.51 251.25 422.53 252.36
  L 422.54 253.25
  Q 421.68 256.57 422.04 260.00
  C 421.36 268.89 436.37 249.54 436.86 248.74
  C 438.06 246.78 438.42 244.49 439.34 242.27
  A 1.02 1.00 -79.7 0 1 440.22 241.65
  Q 442.03 241.57 442.04 244.00
  Z
  M 470.2907 253.4854
  A 3.11 1.02 78.3 0 0 470.6588 250.2332
  A 3.11 1.02 78.3 0 0 469.0293 247.3946
  A 3.11 1.02 78.3 0 0 468.6612 250.6468
  A 3.11 1.02 78.3 0 0 470.2907 253.4854
  Z
  M 465.52 260.03
  Q 468.10 260.08 469.19 257.97
  A 1.01 1.00 -52.3 0 0 469.05 256.85
  L 466.51 253.95
  A 1.00 1.00 0.0 0 0 464.88 254.13
  Q 463.43 256.78 464.62 259.44
  A 1.01 1.00 -11.5 0 0 465.52 260.03
  Z"
/>
</g>
<g fill="#000000">
<path d="
  M 35.89 210.95
  Q 35.66 211.93 35.70 212.94
  C 35.83 215.91 34.49 218.57 32.50 220.67
  C 30.40 222.90 30.11 224.20 29.06 226.77
  C 24.94 236.75 11.08 232.57 8.50 223.89
  Q 8.18 222.79 8.09 218.53
  C 7.92 210.52 2.04 207.67 5.54 199.10
  C 6.61 196.48 9.40 194.06 10.30 190.47
  A 1.01 1.01 0.0 0 0 10.17 189.67
  C 8.94 187.80 7.30 185.89 6.81 183.85
  C 5.22 177.17 14.48 166.33 21.19 170.45
  C 26.66 173.81 21.05 182.79 17.67 185.68
  Q 17.14 186.13 17.04 185.55
  A 0.54 0.50 62.4 0 1 17.15 185.15
  Q 21.28 179.87 21.75 176.29
  C 23.16 165.59 6.18 174.01 8.54 183.77
  C 9.44 187.50 14.47 189.23 17.81 189.40
  C 22.11 189.62 24.19 185.98 28.14 185.11
  C 42.71 181.90 48.57 207.46 36.64 210.20
  A 1.00 1.00 0.0 0 0 35.89 210.95
  Z
  M 25.31 190.51
  A 1.02 1.01 -37.1 0 0 25.18 191.41
  Q 26.74 196.03 28.36 201.20
  C 30.11 206.80 33.35 208.87 39.22 206.64
  A 1.01 0.99 -1.5 0 0 39.81 206.03
  Q 43.08 196.74 37.47 190.20
  C 33.76 185.88 28.80 185.55 25.31 190.51
  Z
  M 13.0731 215.4315
  A 11.57 9.69 104.5 0 0 25.3514 206.6562
  A 11.57 9.69 104.5 0 0 18.8669 193.0285
  A 11.57 9.69 104.5 0 0 6.5886 201.8038
  A 11.57 9.69 104.5 0 0 13.0731 215.4315
  Z
  M 28.87 207.91
  A 1.00 1.00 0.0 0 0 27.46 208.06
  C 24.51 211.76 26.63 221.42 32.62 216.63
  A 1.03 0.99 -17.3 0 0 33.00 215.94
  L 33.35 212.14
  A 1.01 1.01 0.0 0 0 32.99 211.27
  L 28.87 207.91
  Z
  M 10.06 217.70
  C 6.21 232.53 29.74 235.42 26.79 221.11
  Q 26.11 217.85 23.93 215.08
  A 0.99 0.99 0.0 0 0 22.63 214.84
  Q 17.37 218.00 11.19 216.96
  A 1.00 1.00 0.0 0 0 10.06 217.70
  Z"
/>
<path d="
  M 68.30 309.67
  A 0.99 0.98 -12.9 0 0 69.21 310.23
  C 71.65 310.20 83.55 309.96 85.02 311.31
  C 87.75 313.80 78.74 313.79 78.15 313.83
  A 1.02 1.02 0.0 0 0 77.34 314.34
  C 73.27 321.69 61.08 321.85 52.56 323.03
  C 44.65 324.13 43.11 321.98 38.16 316.79
  Q 36.55 315.10 34.22 314.89
  Q 31.54 314.64 30.89 316.80
  C 30.78 317.16 30.48 317.55 30.21 316.99
  A 0.64 0.63 -42.6 0 1 30.24 316.40
  C 33.44 310.79 38.00 315.20 40.98 318.31
  C 46.61 324.16 61.55 320.35 68.51 318.56
  Q 71.84 317.70 74.11 315.49
  Q 75.85 313.78 73.41 313.77
  Q 60.13 313.75 46.88 313.27
  C 46.11 313.24 44.80 312.94 45.39 311.92
  A 1.03 1.02 -78.6 0 1 46.12 311.43
  Q 54.69 310.22 63.38 310.27
  A 1.01 1.00 89.7 0 0 64.39 309.24
  L 63.59 277.07
  Q 63.50 273.22 61.48 272.79
  C 59.35 272.34 58.29 273.29 58.10 275.43
  C 56.81 290.10 49.73 300.43 34.74 303.03
  C 31.58 303.57 27.88 302.98 25.08 301.26
  C 8.58 291.13 29.98 266.92 38.22 259.13
  A 0.99 0.99 0.0 0 0 38.44 257.99
  C 35.96 252.54 33.35 246.76 33.09 240.85
  C 32.53 228.19 37.53 217.84 42.91 206.78
  C 45.24 201.97 46.79 204.62 50.35 204.84
  Q 55.46 205.15 61.73 204.88
  A 0.99 0.98 -79.0 0 0 62.60 204.29
  Q 68.62 190.60 78.01 178.04
  C 81.28 173.66 92.09 166.36 97.26 172.46
  C 103.41 179.71 91.40 192.74 86.37 197.36
  Q 81.94 201.42 75.76 200.45
  A 1.01 1.00 -83.7 0 1 74.92 199.39
  L 75.29 193.75
  Q 75.35 192.95 75.69 193.31
  L 75.81 193.44
  A 0.49 0.23 -83.1 0 1 75.91 193.75
  L 75.95 198.45
  A 1.00 1.00 0.0 0 0 76.78 199.42
  C 85.82 201.01 104.50 174.55 92.73 172.30
  C 81.65 170.18 69.22 195.52 65.78 203.17
  Q 64.64 205.71 67.42 205.56
  Q 74.44 205.16 80.78 204.96
  C 82.52 204.91 83.75 204.03 85.16 203.17
  Q 86.66 202.24 86.69 204.00
  C 86.86 214.13 88.71 224.01 90.25 233.99
  C 92.80 250.40 83.32 264.91 68.78 271.77
  Q 66.44 272.87 66.42 275.45
  Q 66.28 291.02 67.37 307.48
  C 67.42 308.18 68.05 309.14 68.30 309.67
  Z
  M 82.20 208.22
  L 66.50 208.31
  Q 63.77 208.32 62.40 210.66
  Q 59.34 215.87 55.31 220.34
  A 1.01 1.00 -59.3 0 0 55.72 221.96
  Q 60.27 223.54 62.96 227.47
  A 1.01 1.00 56.0 0 0 64.34 227.74
  Q 69.10 224.59 74.20 225.64
  C 83.34 227.51 88.10 236.56 86.88 245.67
  C 86.85 245.92 87.27 247.65 87.81 246.53
  C 88.70 244.67 87.88 236.87 87.44 234.53
  Q 85.06 221.97 83.20 209.08
  A 1.01 1.01 0.0 0 0 82.20 208.22
  Z
  M 45.01 209.19
  C 37.25 223.06 32.33 240.15 39.90 255.22
  A 1.00 1.00 0.0 0 0 41.50 255.47
  L 43.63 253.35
  A 1.04 1.02 64.5 0 0 43.92 252.50
  C 42.15 239.66 43.12 232.12 51.55 222.06
  Q 56.19 216.53 60.12 210.49
  Q 61.10 208.98 59.30 208.94
  L 45.90 208.67
  A 1.00 0.99 -75.1 0 0 45.01 209.19
  Z
  M 61.99 227.78
  Q 58.92 223.38 53.81 222.65
  A 1.00 1.00 0.0 0 0 52.92 222.97
  Q 43.00 234.16 45.31 248.98
  Q 45.60 250.84 46.98 249.56
  Q 53.72 243.29 58.99 235.72
  Q 61.85 231.61 62.17 228.45
  A 1.07 1.01 31.6 0 0 61.99 227.78
  Z
  M 84.88 242.99
  C 85.11 232.31 73.99 220.30 63.87 229.63
  A 1.04 1.02 73.6 0 0 63.57 230.19
  C 62.11 238.10 54.37 246.06 48.90 250.99
  C 43.44 255.91 52.56 259.81 55.07 262.67
  Q 57.35 265.29 58.31 268.78
  A 1.00 0.99 -6.4 0 0 59.23 269.51
  C 74.47 270.18 84.56 257.60 84.88 242.99
  Z
  M 50.06 260.94
  Q 47.41 259.50 45.52 256.21
  A 1.00 0.99 53.0 0 0 43.96 255.99
  L 42.23 257.70
  A 0.99 0.98 -38.8 0 0 42.09 258.95
  Q 46.75 266.15 54.77 269.18
  Q 56.57 269.86 56.09 268.00
  Q 54.98 263.60 50.06 260.94
  Z
  M 48.42 269.34
  Q 43.72 266.37 40.38 261.70
  A 1.00 1.00 0.0 0 0 38.84 261.60
  Q 31.96 268.95 27.89 274.89
  C 23.01 282.01 16.89 294.44 26.32 299.99
  C 34.49 304.78 46.20 298.98 51.02 292.00
  Q 56.61 283.91 56.41 273.48
  A 1.02 1.01 -78.7 0 0 55.82 272.59
  C 53.28 271.42 50.59 270.71 48.42 269.34
  Z"
/>
<path d="
  M 64.80 181.82
  Q 65.43 180.66 65.59 179.23
  A 1.00 0.99 -14.1 0 1 66.03 178.51
  C 67.54 177.50 69.00 177.95 68.13 179.76
  Q 63.89 188.62 59.79 197.52
  Q 58.87 199.54 57.97 197.50
  Q 54.42 189.44 50.89 181.36
  C 50.36 180.16 47.28 177.36 51.87 178.18
  A 1.02 1.00 -5.9 0 1 52.62 178.78
  L 58.56 192.98
  Q 59.32 194.78 60.05 192.96
  L 62.71 186.25
  A 1.03 1.00 40.6 0 0 62.63 185.34
  L 59.08 179.80
  Q 58.11 178.30 59.90 178.26
  L 60.99 178.25
  A 1.00 0.99 78.9 0 1 61.95 178.90
  L 62.98 181.69
  Q 63.75 183.75 64.80 181.82
  Z"
/>
</g>
<g fill="#dba8ab">
<path d="
  M 163.54 194.74
  Q 148.27 197.67 133.66 202.90
  A 1.02 0.99 -89.7 0 0 133.05 203.52
  L 132.46 205.25
  C 130.38 202.38 132.35 200.81 135.01 199.90
  Q 142.14 197.47 149.44 195.72
  Q 156.34 194.07 163.54 194.74
  Z"
/>
<path d="
  M 170.49 194.42
  Q 171.07 196.49 168.37 198.90
  Q 164.14 202.69 159.99 202.53
  L 170.49 194.42
  Z"
/>
<path d="
  M 127.83 204.62
  Q 110.97 211.48 96.02 220.54
  Q 95.07 221.11 94.49 219.36
  Q 105.92 211.30 118.95 206.05
  C 121.15 205.16 123.74 205.46 126.04 203.43
  A 1.05 1.01 20.8 0 1 126.63 203.18
  Q 128.01 203.09 127.83 204.62
  Z"
/>
<path d="
  M 300.46 204.00
  Q 300.15 209.05 297.84 213.58
  Q 292.85 223.41 288.35 233.45
  Q 288.23 233.52 287.99 233.51
  A 0.52 0.51 -88.9 0 1 287.50 232.99
  Q 287.55 229.08 288.84 226.83
  Q 295.24 215.72 300.46 204.00
  Z"
/>
<path d="
  M 374.71 204.75
  Q 374.60 208.36 373.54 210.52
  Q 367.58 222.71 362.31 235.18
  C 358.14 233.21 370.84 213.53 372.47 210.75
  A 0.98 0.96 -34.3 0 0 372.60 210.11
  Q 372.43 208.86 373.41 208.02
  A 0.99 0.99 0.0 0 0 373.77 207.30
  Q 373.82 205.88 374.71 204.75
  Z"
/>
<path d="
  M 156.71 241.25
  Q 153.95 248.78 147.25 253.29
  Q 146.05 252.26 147.44 250.69
  Q 153.21 244.17 156.71 241.25
  Z"
/>
<path d="
  M 344.97 242.92
  Q 342.25 248.65 336.67 252.18
  Q 338.54 245.67 344.97 242.92
  Z"
/>
<path d="
  M 178.08 244.32
  Q 171.78 245.14 169.71 250.50
  Q 167.98 250.10 168.49 248.51
  Q 170.85 241.15 178.08 244.32
  Z"
/>
<path d="
  M 487.88 251.63
  Q 483.53 259.76 474.24 260.06
  A 1.01 1.00 12.6 0 0 473.38 260.60
  Q 471.21 264.85 466.46 264.50
  L 472.80 258.46
  A 1.00 1.00 0.0 0 1 473.37 258.19
  C 479.85 257.44 482.76 254.26 487.88 251.63
  Z"
/>
<path d="
  M 138.02 253.57
  C 139.54 254.26 137.64 254.99 137.00 255.02
  Q 128.78 255.41 121.00 258.04
  Q 118.93 256.78 121.23 255.74
  Q 127.74 252.80 138.02 253.57
  Z"
/>
<path d="
  M 402.73 252.86
  Q 400.36 266.46 390.80 274.26
  Q 389.40 275.40 387.00 274.79
  C 395.42 266.94 397.60 261.53 402.73 252.86
  Z"
/>
<path d="
  M 165.21 254.50
  Q 165.00 255.47 166.04 255.75
  Q 162.02 262.31 154.81 267.81
  Q 150.83 270.85 147.00 268.54
  C 154.69 266.29 159.68 260.99 165.21 254.50
  Z"
/>
<path d="
  M 235.97 257.63
  C 234.38 262.47 227.63 276.28 221.00 274.76
  Q 228.17 268.88 231.80 262.31
  Q 233.66 258.94 235.97 257.63
  Z"
/>
<path d="
  M 116.16 259.70
  Q 107.33 263.19 99.92 269.11
  C 99.01 269.84 98.30 269.49 98.04 268.44
  Q 104.62 261.78 113.59 258.77
  C 114.63 258.42 116.56 256.05 116.16 259.70
  Z"
/>
<path d="
  M 178.64 280.17
  C 178.42 284.58 172.48 297.45 166.93 291.59
  Q 172.06 290.73 174.43 286.91
  Q 176.51 283.56 178.64 280.17
  Z"
/>
</g>
<g fill="#a37f7a" fill-opacity="0.741">
<path d="
  M 368.50 209.50
  L 369.65 206.04
  Q 369.84 205.49 369.79 206.07
  Q 369.65 207.94 368.50 209.50
  Z"
/>
<path d="
  M 368.50 209.50
  L 367.77 211.87
  Q 367.52 212.68 367.53 211.81
  Q 367.55 210.53 368.50 209.50
  Z"
/>
<path d="
  M 250.00 225.96
  Q 227.04 225.35 204.31 226.21
  A 1.01 1.01 0.0 0 0 203.37 226.98
  L 196.97 254.26
  Q 195.66 252.30 197.28 250.59
  A 1.01 1.01 0.0 0 0 197.54 249.72
  Q 197.13 247.46 198.42 245.60
  A 0.99 0.97 59.9 0 0 198.59 244.93
  Q 198.20 241.14 199.75 237.79
  A 0.99 0.97 51.8 0 0 199.82 237.14
  Q 199.36 235.24 200.63 233.92
  A 1.00 0.98 58.9 0 0 200.86 232.96
  Q 200.42 231.39 201.53 230.12
  A 1.01 1.01 0.0 0 0 201.76 229.57
  L 202.25 225.17
  A 1.00 0.99 2.3 0 1 203.22 224.28
  Q 223.90 223.90 244.57 224.10
  Q 247.15 224.12 250.00 225.96
  Z"
/>
<path d="
  M 199.10 225.76
  L 191.75 226.46
  Q 195.26 224.88 199.10 225.76
  Z"
/>
<path d="
  M 335.71 233.25
  Q 332.51 242.11 329.31 247.56
  Q 328.53 248.90 328.50 249.50
  C 328.09 244.23 331.69 238.99 334.08 233.31
  Q 334.58 232.15 335.71 233.25
  Z"
/>
<path d="
  M 423.97 243.51
  C 422.58 243.32 427.24 240.68 424.39 243.37
  A 0.53 0.51 -62.6 0 1 423.97 243.51
  Z"
/>
<path d="
  M 442.04 244.00
  Q 443.09 246.60 440.79 248.50
  L 442.04 244.00
  Z"
/>
<path d="
  M 263.25 245.46
  C 259.15 247.19 257.61 251.76 255.25 255.23
  Q 255.40 249.68 259.32 245.63
  Q 261.39 243.50 263.25 245.46
  Z"
/>
<path d="
  M 321.89 246.82
  C 316.76 248.51 314.35 254.93 312.54 259.75
  Q 312.25 250.91 319.29 245.81
  Q 321.93 243.90 321.89 246.82
  Z"
/>
<path d="
  M 225.78 246.05
  Q 225.18 252.21 222.79 258.00
  C 221.80 255.46 224.69 248.34 225.78 246.05
  Z"
/>
<path d="
  M 391.51 246.03
  Q 390.65 252.79 388.51 258.50
  Q 387.55 261.07 387.46 263.41
  A 0.41 0.41 0.0 0 1 387.01 263.80
  C 386.77 263.78 386.70 265.83 386.44 266.25
  Q 387.31 255.74 391.51 246.03
  Z"
/>
<path d="
  M 328.50 249.50
  L 326.71 259.25
  Q 325.59 253.98 328.50 249.50
  Z"
/>
<path d="
  M 446.50 250.50
  Q 440.62 259.13 437.00 268.80
  A 1.01 1.00 -82.4 0 1 436.16 269.45
  Q 434.66 269.58 434.00 267.79
  L 436.36 266.43
  A 1.05 1.03 83.6 0 0 436.81 265.86
  C 437.60 263.36 442.47 250.92 444.87 250.34
  Q 445.62 250.16 446.50 250.50
  Z"
/>
<path d="
  M 418.43 255.71
  Q 412.86 259.42 407.25 256.29
  Q 412.53 256.52 417.01 254.12
  Q 418.64 253.24 418.48 255.08
  L 418.43 255.71
  Z"
/>
<path d="
  M 422.54 253.25
  L 422.04 260.00
  Q 421.68 256.57 422.54 253.25
  Z"
/>
<path d="
  M 191.95 257.92
  L 178.50 273.04
  C 177.82 272.31 177.78 271.28 178.43 270.46
  Q 184.13 263.27 190.31 256.48
  Q 192.54 254.03 192.04 257.30
  L 191.95 257.92
  Z"
/>
<path d="
  M 166.50 255.71
  L 166.04 255.75
  Q 165.00 255.47 165.21 254.50
  Q 166.29 254.42 166.50 255.71
  Z"
/>
<path d="
  M 250.71 256.50
  Q 246.21 258.87 241.75 256.54
  C 243.86 256.04 246.96 256.41 248.69 255.55
  Q 249.26 255.26 249.82 254.96
  Q 251.54 254.02 250.97 255.89
  Q 250.88 256.20 250.71 256.50
  Z"
/>
<path d="
  M 217.96 260.00
  L 217.63 260.00
  A 0.64 0.63 -73.0 0 0 217.10 260.29
  Q 212.60 267.08 204.76 265.97
  Q 210.86 264.40 212.81 262.05
  Q 214.72 259.74 216.93 257.75
  Q 218.70 256.14 218.25 258.49
  L 217.96 260.00
  Z"
/>
<path d="
  M 322.29 261.50
  Q 322.30 260.50 321.55 260.74
  A 0.82 0.81 -86.6 0 0 321.04 261.20
  Q 318.80 266.68 312.99 266.97
  Q 317.84 263.20 321.00 258.25
  Q 323.27 254.71 322.84 258.90
  Q 322.71 260.09 322.29 261.50
  Z"
/>
<path d="
  M 352.46 260.25
  Q 351.75 259.58 351.30 260.29
  Q 345.67 269.14 335.85 269.11
  Q 341.79 267.01 342.72 266.20
  Q 346.90 262.51 350.77 258.40
  Q 352.59 256.46 352.50 259.12
  L 352.46 260.25
  Z"
/>
<path d="
  M 433.83 260.61
  C 431.39 263.16 424.43 269.49 421.22 265.34
  Q 427.90 263.81 432.63 259.23
  Q 434.50 257.41 433.97 259.96
  L 433.83 260.61
  Z"
/>
<path d="
  M 461.25 259.96
  C 458.38 261.97 456.85 266.15 452.75 262.29
  Q 456.78 262.07 459.63 259.24
  A 0.81 0.78 20.7 0 1 460.17 259.01
  Q 461.02 258.98 461.25 259.96
  Z"
/>
<path d="
  M 276.96 263.75
  C 274.56 263.48 274.43 269.65 268.50 266.54
  Q 272.30 265.20 275.31 262.62
  Q 276.97 261.19 276.96 263.38
  L 276.96 263.75
  Z"
/>
<path d="
  M 221.46 263.50
  Q 221.60 265.63 220.54 267.50
  Q 220.01 265.19 221.46 263.50
  Z"
/>
<path d="
  M 173.49 278.22
  Q 173.03 282.29 170.95 285.96
  Q 170.74 286.84 170.11 287.27
  Q 168.28 288.54 168.89 286.39
  Q 170.19 281.79 173.49 278.22
  Z"
/>
</g>
</svg>
