<?xml version="1.0" encoding="UTF-8" standalone="no"?>
<!DOCTYPE svg PUBLIC "-//W3C//DTD SVG 1.1//EN" "http://www.w3.org/Graphics/SVG/1.1/DTD/svg11.dtd">
<svg xmlns="http://www.w3.org/2000/svg" version="1.1" viewBox="0 0 500 500">
<g stroke-width="2.00" fill="none" stroke-linecap="butt">
<path stroke="#ea5b55" stroke-opacity="0.996" vector-effect="non-scaling-stroke" d="
  M 300.04 101.80
  Q 299.73 103.51 299.40 102.61
  Q 299.07 101.71 298.50 102.49
  Q 297.03 104.51 294.57 106.33
  Q 288.93 110.51 284.00 112.79"
/>
<path stroke="#ea5b55" stroke-opacity="0.996" vector-effect="non-scaling-stroke" d="
  M 281.46 102.00
  Q 261.93 104.74 243.56 111.87
  A 1.02 0.98 -5.3 0 0 242.94 112.59
  L 229.04 177.00"
/>
<path stroke="#af271b" stroke-opacity="0.918" vector-effect="non-scaling-stroke" d="
  M 229.04 177.00
  L 227.79 183.25"
/>
<path stroke="#d41507" stroke-opacity="0.647" vector-effect="non-scaling-stroke" d="
  M 227.79 183.25
  L 227.46 184.75"
/>
<path stroke="#af271b" stroke-opacity="0.918" vector-effect="non-scaling-stroke" d="
  M 227.46 184.75
  L 227.04 186.50"
/>
<path stroke="#c52015" stroke-opacity="0.769" vector-effect="non-scaling-stroke" d="
  M 251.54 187.00
  Q 252.06 189.21 250.25 189.25
  Q 241.04 189.47 234.25 191.21"
/>
<path stroke="#dc4f4a" stroke-opacity="0.953" vector-effect="non-scaling-stroke" d="
  M 234.25 191.21
  Q 229.86 191.39 225.88 193.20
  A 0.99 0.99 0.0 0 0 225.31 193.89
  Q 219.76 218.40 215.38 243.08
  C 215.17 244.28 215.29 245.51 215.21 246.75"
/>
<path stroke="#d9433b" stroke-opacity="0.886" vector-effect="non-scaling-stroke" d="
  M 215.21 246.75
  L 214.12 252.79"
/>
<path stroke="#dc4f4a" stroke-opacity="0.953" vector-effect="non-scaling-stroke" d="
  M 218.04 256.25
  L 217.29 258.25"
/>
<path stroke="#ea5b55" stroke-opacity="0.996" vector-effect="non-scaling-stroke" d="
  M 217.29 258.25
  Q 215.30 262.24 211.90 264.98"
/>
<path stroke="#ea5b55" stroke-opacity="0.996" vector-effect="non-scaling-stroke" d="
  M 220.03 197.77
  Q 220.25 197.27 220.35 196.63
  A 1.00 0.99 -5.0 0 0 219.04 195.53
  Q 205.30 200.27 194.46 210.00"
/>
<path stroke="#d9433b" stroke-opacity="0.886" vector-effect="non-scaling-stroke" d="
  M 194.46 210.00
  L 192.75 210.54"
/>
<path stroke="#ea5b55" stroke-opacity="0.996" vector-effect="non-scaling-stroke" d="
  M 236.21 115.00
  Q 210.56 123.11 188.35 138.31"
/>
<path stroke="#c52015" stroke-opacity="0.769" vector-effect="non-scaling-stroke" d="
  M 245.04 103.25
  L 245.00 104.21"
/>
<path stroke="#987678" stroke-opacity="0.914" vector-effect="non-scaling-stroke" d="
  M 229.96 181.00
  L 229.04 177.00"
/>
<path stroke="#c69ca4" stroke-opacity="0.949" vector-effect="non-scaling-stroke" d="
  M 218.75 257.21
  L 217.29 258.25"
/>
<path stroke="#c0959c" stroke-opacity="0.882" vector-effect="non-scaling-stroke" d="
  M 193.96 211.75
  Q 196.35 210.73 194.46 210.00"
/>
<path stroke="#c52015" stroke-opacity="0.769" vector-effect="non-scaling-stroke" d="
  M 491.29 113.75
  L 490.71 115.75"
/>
<path stroke="#ea5b55" stroke-opacity="0.996" vector-effect="non-scaling-stroke" d="
  M 490.71 115.75
  L 490.29 117.25"
/>
<path stroke="#c52015" stroke-opacity="0.769" vector-effect="non-scaling-stroke" d="
  M 490.29 117.25
  L 489.96 118.75"
/>
<path stroke="#ea5b55" stroke-opacity="0.996" vector-effect="non-scaling-stroke" d="
  M 489.96 118.75
  L 489.71 119.50"
/>
<path stroke="#c52015" stroke-opacity="0.769" vector-effect="non-scaling-stroke" d="
  M 489.71 119.50
  L 489.21 121.25"
/>
<path stroke="#af271b" stroke-opacity="0.918" vector-effect="non-scaling-stroke" d="
  M 489.21 121.25
  L 488.46 123.75"
/>
<path stroke="#ea5b55" stroke-opacity="0.996" vector-effect="non-scaling-stroke" d="
  M 488.46 123.75
  Q 483.04 136.70 475.63 148.62
  Q 473.93 151.35 473.22 154.28
  Q 468.08 175.57 463.68 197.04"
/>
<path stroke="#af271b" stroke-opacity="0.918" vector-effect="non-scaling-stroke" d="
  M 463.68 197.04
  L 462.46 204.25"
/>
<path stroke="#ea5b55" stroke-opacity="0.996" vector-effect="non-scaling-stroke" d="
  M 462.46 204.25
  L 461.75 206.46"
/>
<path stroke="#af271b" stroke-opacity="0.918" vector-effect="non-scaling-stroke" d="
  M 461.75 206.46
  L 461.43 209.59"
/>
<path stroke="#ea5b55" stroke-opacity="0.996" vector-effect="non-scaling-stroke" d="
  M 461.43 209.59
  Q 457.06 223.62 455.54 238.50"
/>
<path stroke="#dc4f4a" stroke-opacity="0.953" vector-effect="non-scaling-stroke" d="
  M 455.54 238.50
  C 455.70 240.75 453.27 244.25 455.46 245.75"
/>
<path stroke="#dc4f4a" stroke-opacity="0.953" vector-effect="non-scaling-stroke" d="
  M 456.04 247.75
  Q 455.69 251.25 453.39 253.99"
/>
<path stroke="#c52015" stroke-opacity="0.769" vector-effect="non-scaling-stroke" d="
  M 423.25 203.04
  L 421.75 203.04"
/>
<path stroke="#d9433b" stroke-opacity="0.886" vector-effect="non-scaling-stroke" d="
  M 387.73 208.99
  L 381.00 216.21"
/>
<path stroke="#c52015" stroke-opacity="0.769" vector-effect="non-scaling-stroke" d="
  M 381.00 216.21
  L 378.00 218.21"
/>
<path stroke="#d9433b" stroke-opacity="0.886" vector-effect="non-scaling-stroke" d="
  M 356.00 206.04
  L 351.00 206.54"
/>
<path stroke="#af271b" stroke-opacity="0.918" vector-effect="non-scaling-stroke" d="
  M 353.23 182.71
  L 352.79 184.50"
/>
<path stroke="#dc4f4a" stroke-opacity="0.953" vector-effect="non-scaling-stroke" d="
  M 351.21 194.75
  Q 350.14 197.02 351.21 199.25"
/>
<path stroke="#af271b" stroke-opacity="0.918" vector-effect="non-scaling-stroke" d="
  M 381.54 176.25
  L 381.54 177.50"
/>
<path stroke="#d41507" stroke-opacity="0.647" vector-effect="non-scaling-stroke" d="
  M 381.54 177.50
  C 378.65 186.92 375.44 196.15 374.29 206.00"
/>
<path stroke="#dc4f4a" stroke-opacity="0.953" vector-effect="non-scaling-stroke" d="
  M 374.29 206.00
  Q 373.44 209.69 374.48 214.00"
/>
<path stroke="#af271b" stroke-opacity="0.918" vector-effect="non-scaling-stroke" d="
  M 443.29 177.75
  L 442.75 178.46"
/>
<path stroke="#d41507" stroke-opacity="0.647" vector-effect="non-scaling-stroke" d="
  M 437.13 176.35
  Q 428.54 176.53 426.71 185.50"
/>
<path stroke="#af271b" stroke-opacity="0.918" vector-effect="non-scaling-stroke" d="
  M 440.54 188.25
  Q 440.39 190.57 441.21 192.75"
/>
<path stroke="#a97e84" stroke-opacity="0.765" vector-effect="non-scaling-stroke" d="
  M 491.75 114.29
  Q 492.32 116.90 490.71 115.75"
/>
<path stroke="#c69ca4" stroke-opacity="0.949" vector-effect="non-scaling-stroke" d="
  M 456.00 240.54
  L 455.54 238.50"
/>
<path stroke="#987678" stroke-opacity="0.914" vector-effect="non-scaling-stroke" d="
  M 461.43 209.59
  Q 462.30 208.38 462.46 206.95
  A 0.40 0.40 0.0 0 0 462.10 206.50
  L 461.75 206.46"
/>
<path stroke="#987678" stroke-opacity="0.914" vector-effect="non-scaling-stroke" d="
  M 462.46 204.25
  C 462.53 205.53 462.97 204.73 463.02 204.31
  Q 463.47 200.97 464.29 197.69
  Q 464.73 195.94 463.68 197.04"
/>
<path stroke="#987678" stroke-opacity="0.914" vector-effect="non-scaling-stroke" d="
  M 488.46 123.75
  C 488.68 125.62 489.65 122.57 489.71 122.25"
/>
<path stroke="#a97e84" stroke-opacity="0.765" vector-effect="non-scaling-stroke" d="
  M 489.71 122.25
  Q 490.71 120.89 489.71 119.50"
/>
<path stroke="#a97e84" stroke-opacity="0.765" vector-effect="non-scaling-stroke" d="
  M 489.96 118.75
  Q 489.90 119.10 489.92 119.35
  Q 490.06 120.90 490.55 119.42
  L 491.06 117.92
  A 0.52 0.51 8.8 0 0 490.56 117.25
  L 490.29 117.25"
/>
<path stroke="#dc4f4a" stroke-opacity="0.953" vector-effect="non-scaling-stroke" d="
  M 354.92 121.92
  Q 351.56 126.94 351.54 132.50"
/>
<path stroke="#c52015" stroke-opacity="0.769" vector-effect="non-scaling-stroke" d="
  M 351.54 132.50
  Q 350.59 136.47 349.24 140.33
  C 348.75 141.74 349.30 142.34 350.75 142.21"
/>
<path stroke="#c52015" stroke-opacity="0.769" vector-effect="non-scaling-stroke" d="
  M 420.54 145.75
  Q 420.31 146.75 419.67 147.56
  A 0.21 0.21 0.0 0 0 419.70 147.85
  Q 419.95 148.06 420.21 147.75"
/>
<path stroke="#dc4f4a" stroke-opacity="0.953" vector-effect="non-scaling-stroke" d="
  M 420.21 147.75
  L 421.21 148.25"
/>
<path stroke="#af271b" stroke-opacity="0.918" vector-effect="non-scaling-stroke" d="
  M 418.50 147.71
  L 413.25 146.79"
/>
<path stroke="#c52015" stroke-opacity="0.769" vector-effect="non-scaling-stroke" d="
  M 379.46 147.00
  Q 370.64 145.95 361.75 146.29"
/>
<path stroke="#dc4f4a" stroke-opacity="0.953" vector-effect="non-scaling-stroke" d="
  M 361.75 146.29
  C 357.69 146.18 347.25 145.40 347.29 147.50"
/>
<path stroke="#c52015" stroke-opacity="0.769" vector-effect="non-scaling-stroke" d="
  M 347.29 147.50
  L 347.04 150.00"
/>
<path stroke="#d9433b" stroke-opacity="0.886" vector-effect="non-scaling-stroke" d="
  M 347.04 150.00
  Q 345.48 153.75 345.36 157.74"
/>
<path stroke="#af271b" stroke-opacity="0.918" vector-effect="non-scaling-stroke" d="
  M 345.36 157.74
  L 344.71 160.75"
/>
<path stroke="#d9433b" stroke-opacity="0.886" vector-effect="non-scaling-stroke" d="
  M 344.71 160.75
  L 344.54 161.50"
/>
<path stroke="#dc4f4a" stroke-opacity="0.953" vector-effect="non-scaling-stroke" d="
  M 334.71 205.50
  L 334.50 206.71"
/>
<path stroke="#af271b" stroke-opacity="0.918" vector-effect="non-scaling-stroke" d="
  M 334.50 206.71
  L 334.21 208.00"
/>
<path stroke="#dc4f4a" stroke-opacity="0.953" vector-effect="non-scaling-stroke" d="
  M 334.21 208.00
  L 333.29 211.75"
/>
<path stroke="#c52015" stroke-opacity="0.769" vector-effect="non-scaling-stroke" d="
  M 333.29 211.75
  L 333.21 213.50"
/>
<path stroke="#dc4f4a" stroke-opacity="0.953" vector-effect="non-scaling-stroke" d="
  M 333.21 213.50
  Q 331.56 218.74 329.82 227.77
  C 328.07 236.87 325.90 246.28 325.18 255.52
  C 325.04 257.30 323.48 261.72 325.25 262.71"
/>
<path stroke="#d9433b" stroke-opacity="0.886" vector-effect="non-scaling-stroke" d="
  M 325.79 264.25
  L 325.79 265.50"
/>
<path stroke="#d41507" stroke-opacity="0.647" vector-effect="non-scaling-stroke" d="
  M 325.79 265.50
  Q 325.22 268.84 322.25 270.29"
/>
<path stroke="#d9433b" stroke-opacity="0.886" vector-effect="non-scaling-stroke" d="
  M 332.46 195.00
  L 333.05 191.64
  Q 333.54 188.88 331.67 190.97
  Q 330.54 192.23 329.51 193.63
  Q 327.84 195.91 326.41 197.35
  Q 318.08 205.78 311.13 215.41
  A 1.03 1.01 60.6 0 0 310.95 216.08
  Q 311.57 223.25 311.36 225.15
  Q 310.00 237.55 300.00 244.71"
/>
<path stroke="#c52015" stroke-opacity="0.769" vector-effect="non-scaling-stroke" d="
  M 300.00 244.71
  L 299.25 245.04"
/>
<path stroke="#dc4f4a" stroke-opacity="0.953" vector-effect="non-scaling-stroke" d="
  M 294.01 191.99
  Q 294.03 191.65 293.94 191.25
  Q 293.51 189.18 292.19 190.82
  Q 286.76 197.54 280.67 203.18
  C 275.44 208.02 272.40 210.95 265.75 210.79"
/>
<path stroke="#dc4f4a" stroke-opacity="0.953" vector-effect="non-scaling-stroke" d="
  M 278.79 167.00
  C 277.11 175.71 270.25 180.96 263.95 186.43
  A 1.00 1.00 0.0 0 0 263.61 187.11
  C 263.23 191.84 261.51 197.19 263.21 201.75"
/>
<path stroke="#d41507" stroke-opacity="0.647" vector-effect="non-scaling-stroke" d="
  M 314.29 173.50
  L 312.75 174.79"
/>
<path stroke="#af271b" stroke-opacity="0.918" vector-effect="non-scaling-stroke" d="
  M 312.75 174.79
  L 309.50 174.29"
/>
<path stroke="#d9433b" stroke-opacity="0.886" vector-effect="non-scaling-stroke" d="
  M 309.50 174.29
  Q 306.83 173.60 305.25 174.25
  Q 294.23 178.81 298.46 190.25"
/>
<path stroke="#c52015" stroke-opacity="0.769" vector-effect="non-scaling-stroke" d="
  M 331.50 147.54
  L 321.25 147.54"
/>
<path stroke="#ea5b55" stroke-opacity="0.996" vector-effect="non-scaling-stroke" d="
  M 321.25 147.54
  L 308.25 147.79"
/>
<path stroke="#dc4f4a" stroke-opacity="0.953" vector-effect="non-scaling-stroke" d="
  M 308.25 147.79
  L 307.00 148.04"
/>
<path stroke="#a97e84" stroke-opacity="0.765" vector-effect="non-scaling-stroke" d="
  M 321.25 147.54
  Q 326.23 148.40 331.25 147.79"
/>
<path stroke="#c69ca4" stroke-opacity="0.949" vector-effect="non-scaling-stroke" d="
  M 309.00 148.96
  C 312.32 148.22 307.83 149.12 308.25 147.79"
/>
<path stroke="#ea5b55" stroke-opacity="0.996" vector-effect="non-scaling-stroke" d="
  M 294.95 254.46
  Q 294.33 256.26 294.79 258.03"
/>
<path stroke="#c52015" stroke-opacity="0.769" vector-effect="non-scaling-stroke" d="
  M 294.79 258.03
  L 290.54 271.24"
/>
<path stroke="#ea5b55" stroke-opacity="0.996" vector-effect="non-scaling-stroke" d="
  M 290.54 271.24
  Q 284.82 282.98 277.82 294.07
  Q 277.74 294.19 277.70 294.33
  Q 272.48 312.99 268.96 332.25"
/>
<path stroke="#dc4f4a" stroke-opacity="0.953" vector-effect="non-scaling-stroke" d="
  M 268.96 332.25
  L 268.00 336.71"
/>
<path stroke="#c52015" stroke-opacity="0.769" vector-effect="non-scaling-stroke" d="
  M 268.00 336.71
  Q 266.71 340.88 266.44 345.73"
/>
<path stroke="#dc4f4a" stroke-opacity="0.953" vector-effect="non-scaling-stroke" d="
  M 266.44 345.73
  Q 265.15 346.52 265.50 348.21"
/>
<path stroke="#af271b" stroke-opacity="0.918" vector-effect="non-scaling-stroke" d="
  M 265.50 348.21
  L 265.21 349.75"
/>
<path stroke="#dc4f4a" stroke-opacity="0.953" vector-effect="non-scaling-stroke" d="
  M 265.21 349.75
  C 263.63 355.81 262.13 361.96 261.24 368.17
  C 260.42 373.89 258.80 379.51 257.47 388.75
  Q 257.29 389.95 258.75 389.96"
/>
<path stroke="#dc4f4a" stroke-opacity="0.953" vector-effect="non-scaling-stroke" d="
  M 259.16 391.48
  L 258.29 394.75"
/>
<path stroke="#d41507" stroke-opacity="0.647" vector-effect="non-scaling-stroke" d="
  M 258.29 394.75
  Q 257.48 396.70 255.50 397.29"
/>
<path stroke="#c52015" stroke-opacity="0.769" vector-effect="non-scaling-stroke" d="
  M 262.50 340.71
  L 262.77 338.91
  Q 263.17 336.22 261.38 338.26
  Q 257.91 342.22 254.28 346.02
  C 249.99 350.52 244.86 354.74 238.75 354.54"
/>
<path stroke="#d9433b" stroke-opacity="0.886" vector-effect="non-scaling-stroke" d="
  M 238.75 354.54
  L 236.75 354.29"
/>
<path stroke="#c52015" stroke-opacity="0.769" vector-effect="non-scaling-stroke" d="
  M 250.79 311.00
  C 249.61 319.24 242.39 325.40 236.70 330.03
  A 0.98 0.93 -13.1 0 0 236.37 330.53
  C 235.16 334.83 233.47 340.96 235.21 345.75"
/>
<path stroke="#c69ca4" stroke-opacity="0.949" vector-effect="non-scaling-stroke" d="
  M 270.21 333.75
  L 268.96 332.25"
/>
<path stroke="#a97e84" stroke-opacity="0.765" vector-effect="non-scaling-stroke" d="
  M 290.54 271.24
  Q 294.76 265.31 294.79 258.03"
/>
<path stroke="#dc4f4a" stroke-opacity="0.953" vector-effect="non-scaling-stroke" d="
  M 246.71 267.02
  Q 245.32 269.43 245.23 272.06
  C 245.16 273.88 244.45 274.96 244.33 276.71"
/>
<path stroke="#af271b" stroke-opacity="0.918" vector-effect="non-scaling-stroke" d="
  M 244.33 276.71
  L 242.21 282.75"
/>
<path stroke="#dc4f4a" stroke-opacity="0.953" vector-effect="non-scaling-stroke" d="
  M 242.21 282.75
  L 241.21 285.25"
/>
<path stroke="#c52015" stroke-opacity="0.769" vector-effect="non-scaling-stroke" d="
  M 241.21 285.25
  C 238.78 292.11 236.93 299.30 234.05 305.70
  Q 230.64 313.27 227.04 320.75"
/>
<path stroke="#d41507" stroke-opacity="0.647" vector-effect="non-scaling-stroke" d="
  M 227.04 320.75
  L 225.92 324.62"
/>
<path stroke="#c52015" stroke-opacity="0.769" vector-effect="non-scaling-stroke" d="
  M 225.92 324.62
  L 223.54 336.25"
/>
<path stroke="#c52015" stroke-opacity="0.769" vector-effect="non-scaling-stroke" d="
  M 223.21 338.25
  L 220.96 351.50"
/>
<path stroke="#ea5b55" stroke-opacity="0.996" vector-effect="non-scaling-stroke" d="
  M 220.96 351.50
  Q 216.76 370.11 215.78 389.18"
/>
<path stroke="#dc4f4a" stroke-opacity="0.953" vector-effect="non-scaling-stroke" d="
  M 218.29 392.50
  L 217.79 393.75"
/>
<path stroke="#d41507" stroke-opacity="0.647" vector-effect="non-scaling-stroke" d="
  M 217.79 393.75
  Q 217.13 395.56 215.50 396.54"
/>
<path stroke="#af271b" stroke-opacity="0.918" vector-effect="non-scaling-stroke" d="
  M 215.50 396.54
  L 214.00 396.79"
/>
<path stroke="#d41507" stroke-opacity="0.647" vector-effect="non-scaling-stroke" d="
  M 218.04 342.25
  L 218.49 338.50
  Q 218.90 335.13 217.03 337.97
  Q 214.28 342.15 211.57 346.23
  Q 208.44 350.94 202.63 351.46"
/>
<path stroke="#a97e84" stroke-opacity="0.765" vector-effect="non-scaling-stroke" d="
  M 222.71 347.75
  L 221.62 351.78
  Q 221.44 352.44 221.13 351.83
  L 220.96 351.50"
/>
<path stroke="#d41507" stroke-opacity="0.647" vector-effect="non-scaling-stroke" d="
  M 394.04 318.50
  L 391.35 327.73
  Q 390.30 331.34 392.73 328.47
  L 395.00 325.79"
/>
<path stroke="#dc4f4a" stroke-opacity="0.953" vector-effect="non-scaling-stroke" d="
  M 440.54 326.75
  L 440.79 334.50"
/>
<path stroke="#d9433b" stroke-opacity="0.886" vector-effect="non-scaling-stroke" d="
  M 460.96 328.12
  Q 454.99 337.04 444.71 340.00"
/>
<path stroke="#c52015" stroke-opacity="0.769" vector-effect="non-scaling-stroke" d="
  M 444.71 340.00
  L 440.50 340.04"
/>
<path stroke="#c52015" stroke-opacity="0.769" vector-effect="non-scaling-stroke" d="
  M 400.44 329.16
  Q 400.28 327.89 398.93 328.19
  C 396.00 328.85 391.90 337.65 391.06 340.33"
/>
<path stroke="#c52015" stroke-opacity="0.769" vector-effect="non-scaling-stroke" d="
  M 384.25 354.79
  L 383.00 354.79"
/>
<path stroke="#af271b" stroke-opacity="0.918" vector-effect="non-scaling-stroke" d="
  M 368.50 350.04
  L 364.00 350.54"
/>
<path stroke="#c52015" stroke-opacity="0.769" vector-effect="non-scaling-stroke" d="
  M 359.58 335.43
  L 359.68 334.60
  Q 359.96 332.43 358.13 333.64
  Q 351.52 338.06 343.25 336.79"
/>
<path stroke="#c52015" stroke-opacity="0.769" vector-effect="non-scaling-stroke" d="
  M 334.21 336.00
  C 330.64 345.49 323.29 358.52 313.75 362.96"
/>
<path stroke="#af271b" stroke-opacity="0.918" vector-effect="non-scaling-stroke" d="
  M 319.52 320.55
  L 314.54 337.25"
/>
<path stroke="#d41507" stroke-opacity="0.647" vector-effect="non-scaling-stroke" d="
  M 314.54 337.25
  Q 311.55 346.88 311.97 357.04"
/>
<path stroke="#dc4f4a" stroke-opacity="0.953" vector-effect="non-scaling-stroke" d="
  M 364.29 338.00
  Q 362.77 341.17 364.46 344.25"
/>
<path stroke="#dc4f4a" stroke-opacity="0.953" vector-effect="non-scaling-stroke" d="
  M 486.04 116.00
  Q 487.24 111.59 485.79 115.25"
/>
<path stroke="#c52015" stroke-opacity="0.769" vector-effect="non-scaling-stroke" d="
  M 298.21 236.75
  Q 295.34 243.00 299.59 239.29"
/>
<path stroke="#c52015" stroke-opacity="0.769" vector-effect="non-scaling-stroke" d="
  M 306.35 227.22
  Q 306.91 226.07 307.07 224.72
  Q 307.54 220.89 305.27 224.01
  Q 301.54 229.13 299.04 235.00"
/>
<path stroke="#af271b" stroke-opacity="0.918" vector-effect="non-scaling-stroke" d="
  M 234.21 290.75
  C 233.78 291.72 232.32 294.99 233.35 294.71
  A 0.27 0.25 -0.6 0 0 233.54 294.53
  L 234.50 291.29"
/>
<path stroke="#d41507" stroke-opacity="0.647" vector-effect="non-scaling-stroke" d="
  M 234.50 291.29
  L 240.95 271.67
  A 0.27 0.27 0.0 0 0 240.82 271.35
  Q 240.50 271.19 240.30 271.77
  Q 236.03 284.67 234.21 290.75"
/>
<path stroke="#d41507" stroke-opacity="0.647" vector-effect="non-scaling-stroke" d="
  M 212.26 322.66
  Q 205.53 327.42 203.73 335.72"
/>
<path stroke="#c52015" stroke-opacity="0.769" vector-effect="non-scaling-stroke" d="
  M 203.73 335.72
  Q 201.70 339.46 202.46 344.00"
/>
<path stroke="#c52015" stroke-opacity="0.769" vector-effect="non-scaling-stroke" d="
  M 216.96 322.00
  Q 214.28 319.58 212.26 322.66"
/>
<path stroke="#af271b" stroke-opacity="0.918" vector-effect="non-scaling-stroke" d="
  M 426.21 333.50
  Q 424.78 336.45 426.21 339.50"
/>
<path stroke="#c52015" stroke-opacity="0.769" vector-effect="non-scaling-stroke" d="
  M 429.21 332.00
  L 428.78 331.18
  Q 427.91 329.51 427.01 331.16
  Q 426.43 332.24 426.21 333.50"
/>
</g>
<g fill="#ff1200">
<path d="
  M 300.04 101.80
  Q 299.73 103.51 299.40 102.61
  Q 299.07 101.71 298.50 102.49
  Q 297.03 104.51 294.57 106.33
  Q 288.93 110.51 284.00 112.79
  Q 280.12 110.95 283.86 108.65
  Q 287.45 106.45 292.83 102.86
  Q 294.93 101.46 292.45 101.04
  Q 288.06 100.30 281.46 102.00
  Q 261.93 104.74 243.56 111.87
  A 1.02 0.98 -5.3 0 0 242.94 112.59
  L 229.04 177.00
  L 227.79 183.25
  L 227.46 184.75
  L 227.04 186.50
  Q 226.03 188.26 228.49 187.70
  Q 239.58 185.21 249.20 185.08
  Q 250.88 185.05 251.54 187.00
  Q 252.06 189.21 250.25 189.25
  Q 241.04 189.47 234.25 191.21
  Q 229.86 191.39 225.88 193.20
  A 0.99 0.99 0.0 0 0 225.31 193.89
  Q 219.76 218.40 215.38 243.08
  C 215.17 244.28 215.29 245.51 215.21 246.75
  L 214.12 252.79
  Q 216.61 253.96 218.04 256.25
  L 217.29 258.25
  Q 215.30 262.24 211.90 264.98
  C 210.10 264.06 209.00 262.82 209.17 260.62
  C 210.73 239.62 216.07 218.59 220.03 197.77
  Q 220.25 197.27 220.35 196.63
  A 1.00 0.99 -5.0 0 0 219.04 195.53
  Q 205.30 200.27 194.46 210.00
  L 192.75 210.54
  C 189.08 209.25 191.22 206.97 193.03 205.55
  Q 205.84 195.57 221.32 190.26
  A 1.03 1.01 -3.8 0 0 221.98 189.52
  Q 229.96 152.91 237.85 116.28
  Q 238.52 113.15 236.21 115.00
  Q 210.56 123.11 188.35 138.31
  C 183.68 137.44 186.10 134.65 188.29 133.28
  C 204.38 123.25 221.24 115.83 238.90 109.10
  A 0.99 0.98 85.8 0 0 239.52 108.37
  L 240.88 101.71
  A 1.02 1.01 82.5 0 1 241.40 101.02
  Q 244.54 99.39 245.04 103.25
  L 245.00 104.21
  L 244.59 105.36
  Q 243.90 107.29 245.85 106.64
  Q 262.19 101.22 279.07 97.93
  C 283.94 96.98 289.62 96.36 294.01 96.77
  Q 298.33 97.17 300.04 101.80
  Z"
/>
<path d="
  M 491.29 113.75
  L 490.71 115.75
  L 490.29 117.25
  L 489.96 118.75
  L 489.71 119.50
  L 489.21 121.25
  L 488.46 123.75
  Q 483.04 136.70 475.63 148.62
  Q 473.93 151.35 473.22 154.28
  Q 468.08 175.57 463.68 197.04
  L 462.46 204.25
  L 461.75 206.46
  L 461.43 209.59
  Q 457.06 223.62 455.54 238.50
  C 455.70 240.75 453.27 244.25 455.46 245.75
  L 456.04 247.75
  Q 455.69 251.25 453.39 253.99
  Q 451.21 253.35 450.02 252.03
  A 1.00 0.97 -67.1 0 1 449.76 251.36
  C 449.76 249.24 449.63 247.02 449.97 244.94
  Q 453.05 226.02 457.16 207.29
  Q 457.69 204.90 458.01 202.54
  Q 458.12 201.68 458.24 200.82
  Q 458.64 197.89 456.82 200.22
  Q 455.12 202.39 453.65 203.90
  Q 450.41 207.26 445.59 208.29
  A 1.02 0.96 52.9 0 1 444.88 208.17
  Q 439.00 204.75 437.55 198.04
  Q 436.84 194.76 436.36 191.42
  Q 436.09 189.49 434.93 191.05
  Q 431.10 196.18 426.70 200.96
  Q 425.29 202.49 423.25 203.04
  L 421.75 203.04
  Q 418.57 201.35 418.81 198.44
  Q 419.07 195.29 419.38 192.15
  Q 419.55 190.35 417.94 191.16
  Q 413.39 193.42 408.37 193.35
  Q 405.87 193.31 403.66 191.77
  Q 401.31 190.12 399.21 188.11
  A 1.01 1.01 0.0 0 0 397.56 188.52
  Q 393.99 199.41 387.73 208.99
  L 381.00 216.21
  L 378.00 218.21
  L 375.28 219.36
  A 0.96 0.95 -45.4 0 1 374.54 219.37
  C 369.15 217.32 369.09 212.10 369.76 206.84
  Q 370.50 201.01 371.45 195.21
  Q 371.91 192.41 370.06 194.56
  Q 366.52 198.66 362.43 202.16
  Q 359.54 204.64 356.00 206.04
  L 351.00 206.54
  C 344.16 203.11 346.41 190.63 348.29 183.94
  C 349.00 181.43 350.88 177.47 353.23 182.71
  L 352.79 184.50
  L 351.21 194.75
  Q 350.14 197.02 351.21 199.25
  Q 350.84 202.80 353.41 202.33
  Q 355.69 201.91 357.49 200.45
  Q 367.15 192.61 373.60 182.75
  C 374.31 181.66 375.74 181.13 376.09 179.91
  Q 376.76 177.55 377.68 175.28
  A 1.05 0.96 -8.7 0 1 378.05 174.82
  Q 380.57 173.16 381.54 176.25
  L 381.54 177.50
  C 378.65 186.92 375.44 196.15 374.29 206.00
  Q 373.44 209.69 374.48 214.00
  Q 377.42 214.18 379.71 211.46
  Q 389.91 199.32 394.26 184.80
  C 394.92 182.58 395.22 179.44 396.77 176.75
  A 1.00 1.00 0.0 0 1 398.47 176.69
  C 401.50 181.27 401.69 187.60 408.00 188.90
  C 413.13 189.96 420.30 185.52 423.25 181.49
  C 427.63 175.50 431.20 169.09 438.94 172.79
  Q 442.21 174.35 443.29 177.75
  L 442.75 178.46
  L 441.61 179.18
  A 1.01 1.00 -40.7 0 1 440.44 179.10
  L 437.13 176.35
  Q 428.54 176.53 426.71 185.50
  Q 424.10 190.21 423.24 195.50
  Q 422.69 198.88 424.97 196.33
  Q 430.49 190.16 435.27 183.39
  C 439.69 177.13 440.48 185.49 440.54 188.25
  Q 440.39 190.57 441.21 192.75
  Q 441.84 197.94 444.39 203.04
  A 1.02 1.02 0.0 0 0 445.34 203.59
  C 451.51 203.27 458.16 190.63 460.70 185.79
  Q 462.67 182.03 463.86 176.86
  Q 467.44 161.23 471.40 145.68
  C 473.78 136.30 480.26 107.81 488.40 106.94
  A 1.01 0.99 -29.2 0 1 489.10 107.13
  Q 492.36 109.54 491.29 113.75
  Z
  M 485.79 115.25
  Q 481.76 123.51 479.26 132.38
  A 0.21 0.20 22.6 0 0 479.36 132.61
  Q 479.62 132.78 479.82 132.31
  Q 484.13 122.06 486.04 116.00
  Q 487.24 111.59 485.79 115.25
  Z"
/>
<path d="
  M 354.92 121.92
  Q 351.56 126.94 351.54 132.50
  Q 350.59 136.47 349.24 140.33
  C 348.75 141.74 349.30 142.34 350.75 142.21
  Q 389.56 141.66 400.75 141.74
  C 406.62 141.78 420.18 141.25 420.54 145.75
  Q 420.31 146.75 419.67 147.56
  A 0.21 0.21 0.0 0 0 419.70 147.85
  Q 419.95 148.06 420.21 147.75
  L 421.21 148.25
  Q 419.70 148.85 418.50 147.71
  L 413.25 146.79
  L 379.46 147.00
  Q 370.64 145.95 361.75 146.29
  C 357.69 146.18 347.25 145.40 347.29 147.50
  L 347.04 150.00
  Q 345.48 153.75 345.36 157.74
  L 344.71 160.75
  L 344.54 161.50
  L 334.71 205.50
  L 334.50 206.71
  L 334.21 208.00
  L 333.29 211.75
  L 333.21 213.50
  Q 331.56 218.74 329.82 227.77
  C 328.07 236.87 325.90 246.28 325.18 255.52
  C 325.04 257.30 323.48 261.72 325.25 262.71
  L 325.79 264.25
  L 325.79 265.50
  Q 325.22 268.84 322.25 270.29
  Q 319.33 269.24 319.36 266.99
  Q 319.47 260.31 322.05 246.46
  Q 326.86 220.65 332.46 195.00
  L 333.05 191.64
  Q 333.54 188.88 331.67 190.97
  Q 330.54 192.23 329.51 193.63
  Q 327.84 195.91 326.41 197.35
  Q 318.08 205.78 311.13 215.41
  A 1.03 1.01 60.6 0 0 310.95 216.08
  Q 311.57 223.25 311.36 225.15
  Q 310.00 237.55 300.00 244.71
  L 299.25 245.04
  Q 293.93 246.17 293.10 242.04
  C 291.68 235.01 301.77 221.38 306.04 215.16
  A 1.02 1.01 52.3 0 0 306.15 214.26
  C 303.45 206.64 297.88 199.50 294.01 191.99
  Q 294.03 191.65 293.94 191.25
  Q 293.51 189.18 292.19 190.82
  Q 286.76 197.54 280.67 203.18
  C 275.44 208.02 272.40 210.95 265.75 210.79
  C 252.70 205.75 259.72 186.41 263.48 176.96
  C 265.13 172.81 274.19 157.36 278.79 167.00
  C 277.11 175.71 270.25 180.96 263.95 186.43
  A 1.00 1.00 0.0 0 0 263.61 187.11
  C 263.23 191.84 261.51 197.19 263.21 201.75
  Q 263.58 206.41 267.50 206.50
  Q 270.43 206.57 272.72 204.74
  Q 284.35 195.46 292.56 183.05
  C 293.84 181.11 294.55 178.32 295.92 176.36
  C 299.00 171.97 311.26 165.47 314.29 173.50
  L 312.75 174.79
  L 309.50 174.29
  Q 306.83 173.60 305.25 174.25
  Q 294.23 178.81 298.46 190.25
  Q 303.01 200.14 309.00 209.22
  A 1.00 1.00 0.0 0 0 310.61 209.30
  Q 322.24 195.08 334.36 181.49
  Q 335.72 179.97 336.15 178.01
  Q 339.29 163.94 342.89 148.33
  A 1.00 1.00 0.0 0 0 341.88 147.10
  L 331.50 147.54
  L 321.25 147.54
  L 308.25 147.79
  L 307.00 148.04
  C 304.76 146.92 302.69 143.34 306.76 143.28
  Q 325.12 143.01 343.49 142.52
  A 1.01 1.01 0.0 0 0 344.44 141.76
  Q 347.16 130.82 350.01 120.01
  Q 350.58 117.85 352.48 117.99
  A 0.99 0.97 72.1 0 1 353.17 118.35
  Q 354.46 119.90 354.92 121.92
  Z
  M 268.8264 176.0099
  A 3.65 0.42 125.0 0 0 271.2640 173.2609
  A 3.65 0.42 125.0 0 0 273.0136 170.0301
  A 3.65 0.42 125.0 0 0 270.5760 172.7791
  A 3.65 0.42 125.0 0 0 268.8264 176.0099
  Z
  M 299.04 235.00
  L 298.21 236.75
  Q 295.34 243.00 299.59 239.29
  Q 305.50 234.88 306.35 227.22
  Q 306.91 226.07 307.07 224.72
  Q 307.54 220.89 305.27 224.01
  Q 301.54 229.13 299.04 235.00
  Z"
/>
<path d="
  M 350.30 171.15
  Q 353.31 165.72 356.57 170.00
  A 1.01 1.00 -49.5 0 1 356.65 171.10
  Q 354.68 174.66 350.70 172.52
  A 1.01 1.00 -61.4 0 1 350.30 171.15
  Z"
/>
<path d="
  M 294.95 254.46
  Q 294.33 256.26 294.79 258.03
  L 290.54 271.24
  Q 284.82 282.98 277.82 294.07
  Q 277.74 294.19 277.70 294.33
  Q 272.48 312.99 268.96 332.25
  L 268.00 336.71
  Q 266.71 340.88 266.44 345.73
  Q 265.15 346.52 265.50 348.21
  L 265.21 349.75
  C 263.63 355.81 262.13 361.96 261.24 368.17
  C 260.42 373.89 258.80 379.51 257.47 388.75
  Q 257.29 389.95 258.75 389.96
  L 259.16 391.48
  L 258.29 394.75
  Q 257.48 396.70 255.50 397.29
  C 251.84 396.92 252.80 390.87 253.24 388.44
  Q 257.51 364.60 262.50 340.71
  L 262.77 338.91
  Q 263.17 336.22 261.38 338.26
  Q 257.91 342.22 254.28 346.02
  C 249.99 350.52 244.86 354.74 238.75 354.54
  L 236.75 354.29
  C 222.40 347.44 234.82 317.31 243.18 309.73
  Q 247.95 305.42 250.79 311.00
  C 249.61 319.24 242.39 325.40 236.70 330.03
  A 0.98 0.93 -13.1 0 0 236.37 330.53
  C 235.16 334.83 233.47 340.96 235.21 345.75
  C 235.61 351.44 241.35 351.36 244.74 348.73
  C 251.50 343.50 265.13 330.36 267.09 321.29
  Q 272.33 297.09 279.10 273.28
  C 279.89 270.52 288.73 240.84 294.95 254.46
  Z
  M 282.5542 276.8125
  A 9.72 0.62 110.7 0 0 286.5700 267.9392
  A 9.72 0.62 110.7 0 0 289.4258 258.6275
  A 9.72 0.62 110.7 0 0 285.4100 267.5008
  A 9.72 0.62 110.7 0 0 282.5542 276.8125
  Z
  M 240.5611 320.3288
  A 3.78 0.43 125.2 0 0 243.0914 317.4879
  A 3.78 0.43 125.2 0 0 244.9189 314.1512
  A 3.78 0.43 125.2 0 0 242.3886 316.9921
  A 3.78 0.43 125.2 0 0 240.5611 320.3288
  Z"
/>
<path d="
  M 246.71 267.02
  Q 245.32 269.43 245.23 272.06
  C 245.16 273.88 244.45 274.96 244.33 276.71
  L 242.21 282.75
  L 241.21 285.25
  C 238.78 292.11 236.93 299.30 234.05 305.70
  Q 230.64 313.27 227.04 320.75
  L 225.92 324.62
  L 223.54 336.25
  L 223.21 338.25
  L 220.96 351.50
  Q 216.76 370.11 215.78 389.18
  Q 218.51 390.21 218.29 392.50
  L 217.79 393.75
  Q 217.13 395.56 215.50 396.54
  L 214.00 396.79
  C 210.15 394.78 211.30 389.75 211.68 386.27
  Q 214.14 364.16 218.04 342.25
  L 218.49 338.50
  Q 218.90 335.13 217.03 337.97
  Q 214.28 342.15 211.57 346.23
  Q 208.44 350.94 202.63 351.46
  Q 198.19 348.54 197.81 343.85
  C 197.12 335.51 205.94 314.61 217.00 316.94
  Q 219.89 317.55 220.96 319.99
  Q 221.97 322.29 222.48 319.84
  C 226.10 302.50 230.45 282.89 238.33 267.01
  C 240.38 262.87 244.81 258.21 246.71 267.02
  Z
  M 234.21 290.75
  C 233.78 291.72 232.32 294.99 233.35 294.71
  A 0.27 0.25 -0.6 0 0 233.54 294.53
  L 234.50 291.29
  L 240.95 271.67
  A 0.27 0.27 0.0 0 0 240.82 271.35
  Q 240.50 271.19 240.30 271.77
  Q 236.03 284.67 234.21 290.75
  Z
  M 212.26 322.66
  Q 205.53 327.42 203.73 335.72
  Q 201.70 339.46 202.46 344.00
  Q 202.23 346.52 203.99 346.78
  A 1.02 0.99 29.8 0 0 204.74 346.59
  C 209.93 342.69 215.05 333.32 218.05 328.23
  A 1.04 1.02 54.7 0 0 218.17 327.50
  L 216.96 322.00
  Q 214.28 319.58 212.26 322.66
  Z"
/>
<path d="
  M 363.87 316.70
  A 1.00 1.00 0.0 0 1 363.31 315.51
  Q 364.27 312.17 368.54 311.86
  A 1.00 0.99 -1.6 0 1 369.61 312.87
  Q 369.55 319.19 363.87 316.70
  Z"
/>
<path d="
  M 394.04 318.50
  L 391.35 327.73
  Q 390.30 331.34 392.73 328.47
  L 395.00 325.79
  C 403.15 316.61 408.28 336.87 409.82 340.13
  Q 411.35 343.37 414.10 341.06
  C 419.88 336.18 422.14 326.12 428.83 323.57
  A 1.01 1.00 -85.7 0 0 429.36 323.11
  C 433.29 315.71 440.04 320.68 440.54 326.75
  L 440.79 334.50
  C 440.09 335.21 440.70 335.82 441.47 335.87
  C 447.52 336.31 452.92 331.72 456.68 327.44
  C 458.40 325.49 459.94 325.54 460.96 328.12
  Q 454.99 337.04 444.71 340.00
  L 440.50 340.04
  C 439.68 340.00 439.02 340.33 438.66 341.14
  C 436.43 346.12 429.53 350.34 424.88 345.50
  Q 423.03 343.58 421.83 341.25
  A 1.00 1.00 0.0 0 0 420.21 341.02
  Q 419.06 342.24 417.87 343.41
  C 411.45 349.75 406.92 344.74 404.47 338.53
  Q 402.71 334.07 400.44 329.16
  Q 400.28 327.89 398.93 328.19
  C 396.00 328.85 391.90 337.65 391.06 340.33
  L 384.25 354.79
  L 383.00 354.79
  C 380.24 353.83 380.94 352.06 381.36 349.81
  Q 382.24 345.18 383.15 340.53
  Q 383.68 337.84 381.79 339.82
  Q 380.56 341.10 378.74 342.97
  Q 374.09 347.75 368.50 350.04
  L 364.00 350.54
  C 358.19 347.35 359.54 341.06 359.58 335.43
  L 359.68 334.60
  Q 359.96 332.43 358.13 333.64
  Q 351.52 338.06 343.25 336.79
  Q 339.86 334.97 337.08 332.33
  A 1.01 1.00 32.1 0 0 335.45 332.70
  L 334.21 336.00
  C 330.64 345.49 323.29 358.52 313.75 362.96
  C 312.85 364.87 308.56 360.73 308.28 360.18
  C 304.30 352.32 312.00 328.86 314.98 320.54
  C 316.02 317.66 318.35 317.14 319.52 320.55
  L 314.54 337.25
  Q 311.55 346.88 311.97 357.04
  Q 312.89 359.99 315.31 357.51
  Q 329.03 343.42 333.44 322.47
  Q 333.88 320.39 336.14 321.16
  A 1.05 1.02 -5.9 0 1 336.67 321.58
  Q 337.49 322.90 339.28 326.96
  C 343.84 337.25 354.28 332.90 359.77 326.55
  A 1.01 1.00 17.2 0 1 360.43 326.21
  Q 362.07 326.04 362.70 324.49
  A 1.00 1.00 0.0 0 1 364.19 324.05
  Q 367.17 326.08 365.76 329.00
  Q 364.89 330.80 364.29 338.00
  Q 362.77 341.17 364.46 344.25
  Q 364.79 348.08 368.31 345.78
  C 376.76 340.27 386.88 329.91 389.14 319.26
  C 389.77 316.28 392.38 313.67 394.04 318.50
  Z
  M 433.69 324.74
  Q 432.72 325.96 432.77 327.16
  Q 432.78 327.43 433.38 330.03
  Q 433.74 331.60 434.71 332.80
  Q 436.46 334.98 436.49 332.19
  Q 436.54 328.50 435.42 325.05
  Q 434.85 323.26 433.69 324.74
  Z
  M 426.21 333.50
  Q 424.78 336.45 426.21 339.50
  C 426.94 345.64 433.27 343.24 434.72 339.14
  A 0.98 0.98 0.0 0 0 434.39 338.02
  Q 431.10 335.50 429.21 332.00
  L 428.78 331.18
  Q 427.91 329.51 427.01 331.16
  Q 426.43 332.24 426.21 333.50
  Z"
/>
</g>
<g fill="#000000">
<path d="
  M 0.00 168.69
  L 0.00 163.69
  Q 2.02 153.44 9.99 143.98
  C 13.75 139.51 11.54 135.96 8.26 131.63
  C -0.99 119.39 8.56 104.20 20.44 98.47
  C 27.99 94.83 37.77 95.89 38.11 106.33
  C 38.40 115.02 32.19 123.83 25.75 129.08
  A 0.66 0.65 -53.1 0 1 25.10 129.18
  Q 24.55 128.96 25.05 128.31
  C 28.93 123.38 41.01 105.70 31.63 100.70
  C 24.72 97.02 14.60 105.12 11.10 110.65
  Q 5.79 119.02 9.75 128.73
  Q 9.84 128.96 10.03 129.12
  C 15.88 134.02 25.90 138.16 33.57 134.98
  Q 34.43 134.62 39.54 131.05
  Q 46.71 126.05 55.16 127.10
  C 73.22 129.35 79.64 151.66 75.91 166.17
  Q 73.45 175.75 63.49 177.66
  A 1.00 1.00 0.0 0 0 62.69 178.77
  C 63.87 187.89 60.47 193.85 54.31 200.22
  Q 52.24 202.36 51.36 205.20
  Q 46.30 221.49 32.28 221.70
  C 20.45 221.88 10.48 214.62 8.00 202.78
  Q 7.64 201.04 7.66 195.19
  C 7.71 184.58 1.80 178.34 0.00 168.69
  Z
  M 63.41 134.69
  C 57.74 129.74 49.87 130.00 44.30 134.82
  C 39.64 138.84 43.32 145.26 44.97 149.67
  C 48.49 159.11 48.42 172.30 62.24 171.97
  C 68.55 171.82 71.59 168.12 72.70 162.06
  C 74.49 152.17 71.10 141.39 63.41 134.69
  Z
  M 41.84 156.45
  C 39.89 146.47 29.34 140.49 20.06 143.47
  C 8.61 147.15 0.67 161.53 4.32 173.01
  C 6.81 180.83 12.75 189.20 21.93 188.39
  C 38.60 186.94 44.68 171.07 41.84 156.45
  Z
  M 57.10 179.37
  L 47.98 172.22
  A 1.01 1.01 0.0 0 0 46.53 172.44
  Q 40.31 181.51 45.74 189.75
  C 49.49 195.46 56.31 193.24 57.62 187.04
  Q 58.30 183.86 57.46 179.94
  A 1.02 1.00 -77.6 0 0 57.10 179.37
  Z
  M 11.09 193.23
  Q 9.63 195.26 9.96 197.73
  C 11.44 208.63 21.10 220.86 33.32 217.86
  C 49.58 213.88 46.72 196.23 38.40 186.37
  A 1.01 1.00 53.0 0 0 37.08 186.18
  Q 28.16 192.11 17.46 191.21
  C 14.73 190.98 12.62 191.10 11.09 193.23
  Z"
/>
<path d="
  M 140.43 384.39
  L 140.17 384.07
  A 1.00 0.98 70.2 0 0 139.40 383.70
  L 83.81 382.89
  A 3.14 2.12 68.0 0 1 81.65 381.43
  C 80.92 380.28 82.14 379.17 83.29 379.02
  Q 100.85 376.64 118.42 376.61
  A 1.00 1.00 0.0 0 0 119.40 375.79
  Q 119.85 373.40 119.76 371.00
  Q 118.56 341.14 118.21 311.25
  C 118.14 305.32 114.90 298.61 107.75 303.84
  A 1.02 1.01 74.6 0 0 107.34 304.57
  Q 106.87 310.62 106.01 316.75
  C 102.76 339.89 86.45 356.74 63.78 361.79
  Q 50.27 364.79 39.78 357.82
  C 21.28 345.53 31.41 321.25 40.67 307.13
  Q 51.73 290.27 66.31 276.10
  Q 68.46 274.01 67.29 271.24
  C 64.03 263.52 59.91 254.49 58.40 246.92
  C 53.73 223.58 62.75 198.48 73.44 178.36
  C 75.51 174.46 77.30 165.87 82.50 164.88
  C 85.08 164.38 88.50 166.35 90.93 166.60
  Q 102.98 167.89 115.04 166.64
  A 1.00 1.00 0.0 0 0 115.84 166.07
  Q 125.47 145.35 137.80 125.81
  C 146.07 112.70 157.19 99.56 173.70 97.64
  C 177.33 97.22 181.88 98.60 184.51 101.38
  C 198.42 116.14 173.27 143.18 162.70 152.21
  Q 156.16 157.80 148.01 158.51
  C 137.86 159.41 141.14 149.05 142.05 143.32
  Q 142.25 142.08 142.72 142.75
  A 0.78 0.78 0.0 0 1 142.86 143.33
  Q 142.30 147.41 142.45 151.52
  C 142.72 158.89 151.38 156.05 155.10 153.61
  C 165.74 146.64 176.46 132.28 181.79 121.78
  C 186.57 112.37 182.65 97.44 168.78 102.64
  C 159.39 106.16 152.35 112.89 146.70 121.16
  Q 133.49 140.52 122.42 163.43
  C 120.27 167.88 123.68 168.23 126.86 168.08
  Q 140.81 167.43 154.76 166.82
  Q 156.20 166.75 160.74 163.68
  A 1.01 0.98 30.9 0 1 161.43 163.52
  Q 164.12 163.87 164.17 166.57
  C 164.52 186.96 168.45 205.88 171.32 225.57
  C 175.86 256.66 158.78 284.08 131.68 298.35
  C 126.24 301.21 123.77 302.80 123.74 309.01
  Q 123.57 337.78 125.09 366.51
  Q 125.30 370.53 126.68 374.35
  Q 127.46 376.52 129.75 376.52
  Q 144.73 376.53 159.66 377.74
  A 0.96 0.95 66.5 0 1 160.21 377.96
  C 167.21 383.62 150.33 383.67 146.81 383.71
  A 1.00 0.99 14.2 0 0 145.96 384.21
  C 142.14 390.77 138.63 394.15 131.26 396.03
  Q 116.22 399.84 93.33 402.56
  Q 83.53 403.72 76.52 399.00
  C 69.54 394.30 66.99 384.35 56.52 385.78
  Q 52.69 386.31 52.96 390.51
  A 0.42 0.41 69.5 0 1 52.81 390.85
  C 52.34 391.24 51.95 390.68 51.96 390.24
  C 52.10 385.35 55.57 383.39 60.12 383.81
  C 67.41 384.49 72.29 392.85 76.06 395.74
  C 85.69 403.12 116.42 396.14 128.06 393.09
  Q 135.63 391.11 140.42 385.41
  A 0.81 0.80 -44.7 0 0 140.43 384.39
  Z
  M 156.53 174.40
  Q 154.00 173.59 151.31 173.55
  Q 137.38 173.30 123.43 173.95
  C 119.60 174.13 117.54 175.73 115.44 179.11
  Q 108.98 189.49 100.82 198.60
  A 1.01 1.00 -59.4 0 0 101.23 200.21
  Q 108.67 202.92 114.22 208.53
  Q 116.12 210.46 117.12 212.97
  A 1.00 1.00 0.0 0 0 118.74 213.33
  C 127.08 205.36 140.32 206.47 149.54 212.46
  C 163.48 221.51 167.52 237.70 163.77 253.26
  Q 163.43 254.70 164.32 254.49
  A 0.82 0.82 0.0 0 0 164.91 253.90
  Q 168.29 239.94 165.12 223.19
  Q 160.59 199.21 157.22 175.21
  A 1.00 1.00 0.0 0 0 156.53 174.40
  Z
  M 110.83 175.15
  Q 99.26 174.30 87.68 174.52
  C 84.12 174.59 80.95 175.23 79.33 178.32
  C 65.13 205.38 55.98 238.91 71.52 268.21
  A 1.00 1.00 0.0 0 0 73.01 268.54
  Q 76.52 265.85 78.87 262.08
  A 0.99 0.96 56.0 0 0 79.00 261.36
  Q 76.05 246.51 77.83 234.06
  C 80.45 215.63 89.56 206.00 102.38 190.78
  Q 105.51 187.06 107.54 183.77
  Q 109.73 180.22 111.64 176.62
  A 1.00 1.00 0.0 0 0 110.83 175.15
  Z
  M 109.81 206.94
  Q 104.00 202.56 98.19 202.22
  A 1.00 0.99 23.9 0 0 97.41 202.52
  C 81.92 218.49 80.05 235.40 81.79 256.90
  Q 81.96 258.95 83.47 257.56
  Q 98.61 243.58 110.51 225.74
  C 115.01 218.99 117.67 212.85 109.81 206.94
  Z
  M 141.01 210.95
  Q 129.33 206.29 118.30 216.22
  A 1.02 1.02 0.0 0 0 117.98 216.86
  C 116.31 232.53 97.68 251.30 86.07 261.06
  Q 84.06 262.75 85.28 265.94
  C 88.33 273.93 95.63 275.74 100.88 281.52
  Q 106.01 287.16 107.91 294.57
  A 0.99 0.98 -4.8 0 0 108.80 295.32
  C 134.66 297.17 154.99 278.25 159.69 253.30
  C 162.82 236.69 158.12 217.78 141.01 210.95
  Z
  M 88.06 288.35
  Q 94.28 293.24 102.29 294.86
  A 1.00 1.00 0.0 0 0 103.45 293.60
  C 100.94 284.73 95.65 281.56 88.53 276.34
  C 85.27 273.95 83.40 271.24 81.53 267.87
  A 0.99 0.99 0.0 0 0 79.95 267.66
  L 75.03 272.66
  A 0.99 0.98 51.2 0 0 74.90 273.89
  C 78.38 279.38 83.22 284.54 88.06 288.35
  Z
  M 34.21 341.83
  C 36.45 357.00 52.03 362.61 65.77 358.75
  C 91.67 351.47 104.01 329.49 103.82 303.74
  Q 103.81 301.24 101.36 300.70
  C 88.29 297.86 78.85 289.65 71.16 278.65
  A 1.01 1.01 0.0 0 0 69.56 278.59
  Q 64.41 284.92 58.62 291.37
  C 48.39 302.79 31.80 325.56 34.21 341.83
  Z"
/>
<path d="
  M 110.43 144.12
  L 116.62 129.42
  A 0.98 0.98 0.0 0 0 116.55 128.50
  L 108.12 115.27
  Q 107.13 113.73 108.96 113.74
  L 113.54 113.75
  A 1.02 1.01 -10.4 0 1 114.47 114.39
  L 117.73 122.90
  Q 118.62 125.22 119.59 122.93
  L 123.22 114.33
  A 1.01 0.99 -83.6 0 1 123.95 113.73
  C 131.09 112.38 126.76 117.40 125.77 119.50
  Q 118.49 134.99 111.35 150.56
  C 110.44 152.55 109.01 153.25 107.07 152.14
  A 1.04 0.99 4.6 0 1 106.65 151.67
  L 91.70 117.38
  A 1.01 1.00 -1.3 0 0 91.12 116.83
  Q 89.24 116.16 89.96 114.16
  A 1.00 0.98 9.4 0 1 90.90 113.50
  L 94.98 113.49
  A 1.00 1.00 0.0 0 1 95.90 114.10
  L 108.59 144.12
  Q 109.51 146.31 110.43 144.12
  Z"
/>
</g>
<g fill="#d4a4ab" fill-opacity="0.992">
<path d="
  M 300.04 101.80
  Q 301.33 104.50 298.82 106.58
  Q 293.32 111.15 286.83 114.17
  A 1.01 1.01 0.0 0 1 286.13 114.23
  Q 284.83 113.85 284.00 112.79
  Q 288.93 110.51 294.57 106.33
  Q 297.03 104.51 298.50 102.49
  Q 299.07 101.71 299.40 102.61
  Q 299.73 103.51 300.04 101.80
  Z"
/>
<path d="
  M 281.46 102.00
  Q 281.99 102.16 282.19 102.51
  A 0.64 0.64 0.0 0 1 281.77 103.45
  Q 263.91 107.22 246.72 113.44
  Q 244.52 114.23 244.07 116.52
  Q 237.58 149.26 229.96 181.00
  L 229.04 177.00
  L 242.94 112.59
  A 1.02 0.98 -5.3 0 1 243.56 111.87
  Q 261.93 104.74 281.46 102.00
  Z"
/>
<path d="
  M 491.75 114.29
  C 492.84 114.28 491.27 120.73 491.01 121.52
  C 487.45 132.46 482.87 140.25 477.87 149.48
  Q 475.84 153.23 474.75 157.52
  Q 464.80 196.44 461.76 213.50
  Q 458.57 231.42 456.00 240.54
  L 455.54 238.50
  Q 457.06 223.62 461.43 209.59
  Q 462.30 208.38 462.46 206.95
  A 0.40 0.40 0.0 0 0 462.10 206.50
  L 461.75 206.46
  L 462.46 204.25
  C 462.53 205.53 462.97 204.73 463.02 204.31
  Q 463.47 200.97 464.29 197.69
  Q 464.73 195.94 463.68 197.04
  Q 468.08 175.57 473.22 154.28
  Q 473.93 151.35 475.63 148.62
  Q 483.04 136.70 488.46 123.75
  C 488.68 125.62 489.65 122.57 489.71 122.25
  Q 490.71 120.89 489.71 119.50
  L 489.96 118.75
  Q 489.90 119.10 489.92 119.35
  Q 490.06 120.90 490.55 119.42
  L 491.06 117.92
  A 0.52 0.51 8.8 0 0 490.56 117.25
  L 490.29 117.25
  L 490.71 115.75
  Q 492.32 116.90 491.75 114.29
  Z"
/>
<path d="
  M 236.21 115.00
  Q 237.20 116.65 235.33 117.37
  Q 211.42 126.60 190.58 139.59
  Q 188.62 140.81 188.35 138.31
  Q 210.56 123.11 236.21 115.00
  Z"
/>
<path d="
  M 321.25 147.54
  Q 326.23 148.40 331.25 147.79
  Q 333.35 148.19 335.51 148.21
  Q 336.61 148.22 335.06 148.29
  Q 322.04 148.91 309.00 148.96
  C 312.32 148.22 307.83 149.12 308.25 147.79
  L 321.25 147.54
  Z"
/>
<path d="
  M 220.03 197.77
  Q 206.69 202.88 195.79 211.85
  A 1.00 0.96 25.4 0 1 195.14 212.07
  Q 194.44 212.06 193.96 211.75
  Q 196.35 210.73 194.46 210.00
  Q 205.30 200.27 219.04 195.53
  A 1.00 0.99 -5.0 0 1 220.35 196.63
  Q 220.25 197.27 220.03 197.77
  Z"
/>
<path d="
  M 294.95 254.46
  C 297.90 266.01 286.02 284.66 280.79 294.14
  Q 278.93 297.52 278.03 301.20
  Q 274.05 317.46 270.21 333.75
  L 268.96 332.25
  Q 272.48 312.99 277.70 294.33
  Q 277.74 294.19 277.82 294.07
  Q 284.82 282.98 290.54 271.24
  Q 294.76 265.31 294.79 258.03
  Q 294.33 256.26 294.95 254.46
  Z"
/>
<path d="
  M 218.75 257.21
  C 220.09 258.10 216.21 269.69 211.90 264.98
  Q 215.30 262.24 217.29 258.25
  L 218.75 257.21
  Z"
/>
<path d="
  M 222.71 347.75
  Q 220.22 366.45 217.35 385.10
  C 217.08 386.88 217.37 387.77 215.78 389.18
  Q 216.76 370.11 220.96 351.50
  L 221.13 351.83
  Q 221.44 352.44 221.62 351.78
  L 222.71 347.75
  Z"
/>
</g>
<g fill="#59393c" fill-opacity="0.537">
<path d="
  M 245.04 103.25
  Q 246.04 103.41 246.37 104.21
  A 1.02 1.00 52.2 0 1 246.26 105.16
  Q 245.51 106.23 245.00 104.21
  L 245.04 103.25
  Z"
/>
<path d="
  M 491.29 113.75
  L 491.75 114.29
  Q 492.32 116.90 490.71 115.75
  L 491.29 113.75
  Z"
/>
<path d="
  M 490.29 117.25
  L 490.56 117.25
  A 0.52 0.51 8.8 0 1 491.06 117.92
  L 490.55 119.42
  Q 490.06 120.90 489.92 119.35
  Q 489.90 119.10 489.96 118.75
  L 490.29 117.25
  Z"
/>
<path d="
  M 489.71 119.50
  Q 490.71 120.89 489.71 122.25
  L 489.21 121.25
  L 489.71 119.50
  Z"
/>
<path d="
  M 351.71 134.25
  Q 350.98 136.09 351.20 138.16
  L 350.75 142.21
  C 349.30 142.34 348.75 141.74 349.24 140.33
  Q 350.59 136.47 351.54 132.50
  Q 352.82 132.67 351.71 134.25
  Z"
/>
<path d="
  M 420.54 145.75
  L 421.04 146.25
  Q 421.29 147.26 420.21 147.75
  Q 419.95 148.06 419.70 147.85
  A 0.21 0.21 0.0 0 1 419.67 147.56
  Q 420.31 146.75 420.54 145.75
  Z"
/>
<path d="
  M 361.75 146.29
  Q 370.64 145.95 379.46 147.00
  L 379.45 147.22
  A 0.23 0.22 -88.6 0 1 379.23 147.44
  L 371.75 147.46
  L 372.36 147.37
  Q 374.34 147.08 372.34 146.95
  L 361.75 146.29
  Z"
/>
<path d="
  M 352.00 147.71
  Q 349.26 147.21 348.46 149.75
  Q 347.55 150.54 347.04 150.00
  L 347.29 147.50
  Q 349.66 146.98 352.00 147.71
  Z"
/>
<path d="
  M 321.25 147.54
  L 331.50 147.54
  L 331.25 147.79
  Q 326.23 148.40 321.25 147.54
  Z"
/>
<path d="
  M 251.54 187.00
  Q 252.91 188.05 252.85 189.53
  A 1.00 1.00 0.0 0 1 251.91 190.48
  Q 243.90 190.98 236.00 192.46
  Q 235.72 191.10 234.25 191.21
  Q 241.04 189.47 250.25 189.25
  Q 252.06 189.21 251.54 187.00
  Z"
/>
<path d="
  M 421.75 203.04
  L 423.25 203.04
  Q 423.09 203.63 423.65 203.88
  A 0.68 0.65 42.0 0 0 424.23 203.86
  C 428.55 201.43 431.69 196.56 434.87 192.89
  A 0.54 0.52 27.1 0 1 435.40 192.73
  L 435.69 192.81
  A 0.29 0.11 -57.5 0 1 435.62 193.15
  C 433.66 195.99 425.89 207.83 421.75 203.04
  Z"
/>
<path d="
  M 333.21 213.50
  L 333.29 211.75
  C 335.10 211.71 333.48 215.37 333.21 213.50
  Z"
/>
<path d="
  M 381.00 216.21
  Q 380.83 218.37 378.50 218.29
  L 378.00 218.21
  L 381.00 216.21
  Z"
/>
<path d="
  M 306.35 227.22
  Q 301.26 232.40 299.59 239.29
  Q 295.34 243.00 298.21 236.75
  C 299.16 238.19 300.48 235.26 299.04 235.00
  Q 301.54 229.13 305.27 224.01
  Q 307.54 220.89 307.07 224.72
  Q 306.91 226.07 306.35 227.22
  Z"
/>
<path d="
  M 300.00 244.71
  Q 301.79 245.72 299.29 245.50
  L 299.25 245.04
  L 300.00 244.71
  Z"
/>
<path d="
  M 294.79 258.03
  Q 294.76 265.31 290.54 271.24
  L 294.79 258.03
  Z"
/>
<path d="
  M 241.21 285.25
  Q 241.05 286.89 242.21 288.00
  Q 236.19 307.67 226.66 325.90
  Q 226.55 326.11 226.55 326.35
  Q 226.50 331.74 224.75 336.75
  Q 224.47 335.11 223.54 336.25
  L 225.92 324.62
  Q 227.39 323.36 227.88 321.38
  A 0.52 0.51 6.5 0 0 227.37 320.75
  L 227.04 320.75
  Q 230.64 313.27 234.05 305.70
  C 236.93 299.30 238.78 292.11 241.21 285.25
  Z"
/>
<path d="
  M 250.79 311.00
  C 254.31 316.84 244.64 326.55 240.00 330.20
  C 236.13 333.24 235.26 341.19 235.21 345.75
  C 233.47 340.96 235.16 334.83 236.37 330.53
  A 0.98 0.93 -13.1 0 1 236.70 330.03
  C 242.39 325.40 249.61 319.24 250.79 311.00
  Z"
/>
<path d="
  M 216.96 322.00
  C 208.80 325.50 206.45 332.40 203.50 340.04
  Q 202.62 341.38 203.00 342.96
  L 202.46 344.00
  Q 201.70 339.46 203.73 335.72
  Q 207.50 328.80 212.26 322.66
  Q 214.28 319.58 216.96 322.00
  Z"
/>
<path d="
  M 434.44 326.64
  C 432.23 331.65 434.34 323.91 434.49 326.34
  Q 434.50 326.50 434.44 326.64
  Z"
/>
<path d="
  M 400.44 329.16
  Q 391.70 340.80 386.81 354.37
  C 385.96 356.74 384.40 356.96 383.00 354.79
  L 384.25 354.79
  Q 384.14 355.70 384.84 355.73
  A 0.53 0.52 -75.6 0 0 385.32 355.44
  Q 388.83 348.12 391.06 340.33
  C 391.90 337.65 396.00 328.85 398.93 328.19
  Q 400.28 327.89 400.44 329.16
  Z"
/>
<path d="
  M 429.21 332.00
  L 428.34 332.13
  Q 426.74 332.18 426.67 334.11
  A 0.19 0.18 77.7 0 1 426.57 334.28
  Q 426.04 334.57 426.21 333.50
  Q 426.43 332.24 427.01 331.16
  Q 427.91 329.51 428.78 331.18
  L 429.21 332.00
  Z"
/>
<path d="
  M 359.58 335.43
  Q 353.90 339.23 347.23 338.14
  A 0.64 0.63 88.6 0 1 346.71 337.64
  C 346.61 337.15 344.02 337.28 343.25 336.79
  Q 351.52 338.06 358.13 333.64
  Q 359.96 332.43 359.68 334.60
  L 359.58 335.43
  Z"
/>
<path d="
  M 313.75 362.96
  C 323.29 358.52 330.64 345.49 334.21 336.00
  Q 336.09 336.17 335.76 334.04
  A 1.06 1.01 57.8 0 1 335.90 333.36
  Q 336.65 332.17 336.57 335.49
  Q 336.57 335.68 336.50 335.85
  C 333.45 343.30 323.64 364.22 315.14 364.56
  Q 313.34 364.64 314.22 363.40
  A 0.26 0.26 0.0 0 0 314.03 362.99
  L 313.75 362.96
  Z"
/>
<path d="
  M 262.50 340.71
  Q 256.47 347.35 249.67 352.93
  C 246.90 355.20 242.05 357.77 238.75 355.29
  Q 241.13 354.87 238.75 354.54
  C 244.86 354.74 249.99 350.52 254.28 346.02
  Q 257.91 342.22 261.38 338.26
  Q 263.17 336.22 262.77 338.91
  L 262.50 340.71
  Z"
/>
<path d="
  M 266.44 345.73
  Q 266.71 340.88 268.00 336.71
  Q 268.78 335.54 268.77 337.00
  Q 268.76 339.69 266.44 345.73
  Z"
/>
<path d="
  M 224.75 336.75
  L 222.71 347.75
  L 221.62 351.78
  Q 221.44 352.44 221.13 351.83
  L 220.96 351.50
  L 223.21 338.25
  Q 223.18 338.80 223.63 338.77
  A 0.34 0.33 9.3 0 0 223.90 338.58
  L 224.75 336.75
  Z"
/>
<path d="
  M 440.50 340.04
  L 444.71 340.00
  Q 442.46 341.38 439.75 341.46
  Q 440.64 340.96 440.50 340.04
  Z"
/>
<path d="
  M 215.46 343.75
  C 213.43 347.12 209.76 352.88 204.75 352.46
  L 210.36 348.82
  Q 210.69 348.60 211.25 348.51
  Q 211.57 348.46 211.52 348.05
  A 0.77 0.75 -31.0 0 1 211.67 347.47
  L 214.64 343.46
  A 0.41 0.41 0.0 0 1 215.33 343.51
  L 215.46 343.75
  Z"
/>
</g>
<g fill="#a78288" fill-opacity="0.769">
<path d="
  M 348.46 149.75
  L 344.21 168.75
  L 343.71 168.25
  L 345.04 161.57
  A 0.21 0.21 0.0 0 0 344.83 161.32
  Q 344.69 161.33 344.54 161.50
  L 344.71 160.75
  C 345.49 161.32 347.58 153.85 345.36 157.74
  Q 345.48 153.75 347.04 150.00
  Q 347.55 150.54 348.46 149.75
  Z"
/>
<path d="
  M 309.50 174.29
  Q 310.73 175.08 309.00 175.46
  Q 297.94 178.50 298.46 190.25
  Q 294.23 178.81 305.25 174.25
  Q 306.83 173.60 309.50 174.29
  Z"
/>
<path d="
  M 315.00 173.96
  Q 315.73 177.31 312.50 175.79
  Q 314.26 175.71 315.00 173.96
  Z"
/>
<path d="
  M 378.50 218.29
  Q 380.83 218.37 381.00 216.21
  L 387.73 208.99
  Q 394.73 200.91 398.01 190.74
  Q 398.10 190.47 398.13 190.16
  Q 398.52 187.03 398.50 190.87
  Q 398.50 191.25 398.36 191.62
  C 394.91 201.02 387.66 216.26 377.36 220.46
  A 1.01 0.96 -44.4 0 1 376.63 220.47
  C 374.55 219.68 378.05 219.95 378.50 218.29
  Z"
/>
<path d="
  M 332.46 195.00
  C 330.22 194.64 330.27 196.36 329.36 197.41
  Q 320.87 207.28 312.72 217.49
  A 0.97 0.96 -26.3 0 0 312.50 218.13
  C 312.56 221.20 313.07 224.47 312.82 227.23
  Q 311.90 237.53 304.15 244.63
  Q 301.83 246.75 298.89 246.56
  Q 298.13 246.50 298.76 246.08
  Q 299.07 245.87 299.29 245.50
  Q 301.79 245.72 300.00 244.71
  Q 310.00 237.55 311.36 225.15
  Q 311.57 223.25 310.95 216.08
  A 1.03 1.01 60.6 0 1 311.13 215.41
  Q 318.08 205.78 326.41 197.35
  Q 327.84 195.91 329.51 193.63
  Q 330.54 192.23 331.67 190.97
  Q 333.54 188.88 333.05 191.64
  L 332.46 195.00
  Z"
/>
<path d="
  M 351.00 206.54
  L 356.00 206.04
  C 355.44 207.24 353.47 206.32 353.81 207.25
  A 0.51 0.51 0.0 0 0 354.47 207.55
  Q 358.40 206.05 359.81 205.07
  Q 365.21 201.34 369.64 196.52
  Q 371.20 194.82 370.18 196.89
  Q 370.09 197.06 369.96 197.21
  C 366.34 201.57 357.70 210.95 351.00 206.54
  Z"
/>
<path d="
  M 194.46 210.00
  Q 196.35 210.73 193.96 211.75
  L 192.75 210.54
  L 194.46 210.00
  Z"
/>
<path d="
  M 215.21 246.75
  Q 215.21 248.81 216.21 250.50
  Q 216.21 252.72 214.12 252.79
  L 215.21 246.75
  Z"
/>
<path d="
  M 325.79 264.25
  Q 327.93 268.18 324.49 271.25
  Q 323.61 272.03 323.21 271.00
  Q 326.09 268.99 325.79 265.50
  L 325.79 264.25
  Z"
/>
<path d="
  M 460.96 328.12
  C 461.96 329.42 462.08 330.82 460.95 332.22
  C 457.27 336.79 450.16 342.11 443.97 341.67
  Q 442.52 341.57 441.08 341.56
  A 1.01 1.01 0.0 0 0 440.14 342.20
  Q 438.44 346.71 434.55 348.03
  Q 429.87 349.63 434.23 347.28
  Q 437.78 345.37 439.75 341.46
  Q 442.46 341.38 444.71 340.00
  Q 454.99 337.04 460.96 328.12
  Z"
/>
<path d="
  M 236.75 354.29
  L 238.75 354.54
  Q 241.13 354.87 238.75 355.29
  L 236.75 354.29
  Z"
/>
</g>
<g fill="#b6939c" fill-opacity="0.906">
<path d="
  M 486.04 116.00
  L 485.79 115.25
  Q 487.24 111.59 486.04 116.00
  Z"
/>
<path d="
  M 352.21 134.75
  L 351.71 134.25
  Q 352.82 132.67 351.54 132.50
  Q 351.56 126.94 354.92 121.92
  Q 354.26 128.62 352.21 134.75
  Z"
/>
<path d="
  M 361.75 146.29
  L 372.34 146.95
  Q 374.34 147.08 372.36 147.37
  L 371.75 147.46
  L 352.00 147.71
  Q 349.66 146.98 347.29 147.50
  C 347.25 145.40 357.69 146.18 361.75 146.29
  Z"
/>
<path d="
  M 421.04 146.25
  Q 422.05 147.05 421.21 148.25
  L 420.21 147.75
  Q 421.29 147.26 421.04 146.25
  Z"
/>
<path d="
  M 308.25 147.79
  C 307.83 149.12 312.32 148.22 309.00 148.96
  Q 307.71 149.07 307.00 148.04
  L 308.25 147.79
  Z"
/>
<path d="
  M 278.79 167.00
  C 282.71 173.32 271.93 182.85 267.51 186.79
  C 264.08 189.85 263.36 197.45 263.21 201.75
  C 261.51 197.19 263.23 191.84 263.61 187.11
  A 1.00 1.00 0.0 0 1 263.95 186.43
  C 270.25 180.96 277.11 175.71 278.79 167.00
  Z"
/>
<path d="
  M 294.01 191.99
  Q 285.35 204.14 274.62 211.12
  Q 270.29 213.93 265.75 210.79
  C 272.40 210.95 275.44 208.02 280.67 203.18
  Q 286.76 197.54 292.19 190.82
  Q 293.51 189.18 293.94 191.25
  Q 294.03 191.65 294.01 191.99
  Z"
/>
<path d="
  M 234.25 191.21
  Q 235.72 191.10 236.00 192.46
  Q 231.55 193.15 227.60 195.21
  A 1.02 1.01 82.3 0 0 227.09 195.89
  Q 221.14 223.09 216.21 250.50
  Q 215.21 248.81 215.21 246.75
  C 215.29 245.51 215.17 244.28 215.38 243.08
  Q 219.76 218.40 225.31 193.89
  A 0.99 0.99 0.0 0 1 225.88 193.20
  Q 229.86 191.39 234.25 191.21
  Z"
/>
<path d="
  M 351.21 194.75
  L 351.21 199.25
  Q 350.14 197.02 351.21 194.75
  Z"
/>
<path d="
  M 336.50 202.50
  Q 336.50 203.12 336.38 203.72
  Q 330.36 233.13 325.25 262.71
  C 323.48 261.72 325.04 257.30 325.18 255.52
  C 325.90 246.28 328.07 236.87 329.82 227.77
  Q 331.56 218.74 333.21 213.50
  C 333.48 215.37 335.10 211.71 333.29 211.75
  L 334.21 208.00
  Q 334.09 208.62 334.25 208.93
  Q 334.60 209.57 334.74 208.85
  L 335.15 206.72
  Q 335.28 206.07 334.74 206.45
  Q 334.61 206.55 334.50 206.71
  L 334.71 205.50
  C 335.60 206.60 335.88 203.50 336.50 202.50
  Z"
/>
<path d="
  M 374.29 206.00
  L 374.54 207.50
  L 374.48 214.00
  Q 373.44 209.69 374.29 206.00
  Z"
/>
<path d="
  M 455.54 238.50
  L 456.00 240.54
  L 455.46 245.75
  C 453.27 244.25 455.70 240.75 455.54 238.50
  Z"
/>
<path d="
  M 456.04 247.75
  Q 457.39 252.07 453.39 253.99
  Q 455.69 251.25 456.04 247.75
  Z"
/>
<path d="
  M 218.04 256.25
  L 218.75 257.21
  L 217.29 258.25
  L 218.04 256.25
  Z"
/>
<path d="
  M 246.71 267.02
  Q 246.52 277.92 242.21 288.00
  Q 241.05 286.89 241.21 285.25
  L 242.21 282.75
  Q 242.21 282.89 242.24 283.01
  Q 242.58 284.24 243.02 283.04
  Q 244.15 279.99 244.33 276.71
  C 244.45 274.96 245.16 273.88 245.23 272.06
  Q 245.32 269.43 246.71 267.02
  Z"
/>
<path d="
  M 440.54 326.75
  Q 442.09 330.57 440.79 334.50
  L 440.54 326.75
  Z"
/>
<path d="
  M 268.96 332.25
  L 270.21 333.75
  C 265.33 355.33 262.68 371.89 258.75 389.96
  Q 257.29 389.95 257.47 388.75
  C 258.80 379.51 260.42 373.89 261.24 368.17
  C 262.13 361.96 263.63 355.81 265.21 349.75
  Q 265.17 352.24 266.39 348.55
  A 0.56 0.56 0.0 0 0 265.83 347.82
  Q 265.73 347.83 265.50 348.21
  Q 265.15 346.52 266.44 345.73
  Q 268.76 339.69 268.77 337.00
  Q 268.78 335.54 268.00 336.71
  L 268.96 332.25
  Z"
/>
<path d="
  M 364.29 338.00
  L 364.46 344.25
  Q 362.77 341.17 364.29 338.00
  Z"
/>
<path d="
  M 259.16 391.48
  Q 261.25 394.87 258.21 397.96
  Q 257.28 398.90 256.21 398.25
  Q 258.49 397.22 258.29 394.75
  L 259.16 391.48
  Z"
/>
<path d="
  M 218.29 392.50
  Q 218.50 392.93 218.93 393.04
  A 0.63 0.63 0.0 0 1 219.41 393.71
  Q 219.16 396.73 216.25 398.04
  L 216.00 397.54
  L 218.62 394.03
  A 0.33 0.33 0.0 0 0 218.52 393.55
  Q 218.18 393.35 217.79 393.75
  L 218.29 392.50
  Z"
/>
</g>
<g fill="#3e211d" fill-opacity="0.290">
<path d="
  M 314.29 173.50
  L 315.00 173.96
  Q 314.26 175.71 312.50 175.79
  L 312.25 175.54
  L 312.75 174.79
  L 314.29 173.50
  Z"
/>
<path d="
  M 437.13 176.35
  L 431.61 179.89
  Q 428.32 182.28 426.96 186.25
  L 426.71 185.50
  Q 428.54 176.53 437.13 176.35
  Z"
/>
<path d="
  M 381.54 177.50
  Q 381.73 180.94 379.94 185.19
  Q 377.79 190.26 376.50 199.25
  Q 375.05 202.35 374.82 205.78
  A 0.21 0.21 0.0 0 0 375.00 206.00
  L 375.25 206.04
  L 374.54 207.50
  L 374.29 206.00
  C 375.44 196.15 378.65 186.92 381.54 177.50
  Z"
/>
<path d="
  M 227.46 184.75
  L 227.79 183.25
  C 229.44 182.54 228.59 186.30 227.46 184.75
  Z"
/>
<path d="
  M 325.79 265.50
  Q 326.09 268.99 323.21 271.00
  L 322.25 270.29
  Q 325.22 268.84 325.79 265.50
  Z"
/>
<path d="
  M 234.50 291.29
  L 234.21 290.75
  Q 236.03 284.67 240.30 271.77
  Q 240.50 271.19 240.82 271.35
  A 0.27 0.27 0.0 0 1 240.95 271.67
  L 234.50 291.29
  Z"
/>
<path d="
  M 394.04 318.50
  L 394.97 319.30
  C 394.79 319.85 392.51 324.08 394.21 323.75
  Q 393.50 325.35 395.00 325.79
  L 392.73 328.47
  Q 390.30 331.34 391.35 327.73
  L 394.04 318.50
  Z"
/>
<path d="
  M 227.04 320.75
  L 227.37 320.75
  A 0.52 0.51 6.5 0 1 227.88 321.38
  Q 227.39 323.36 225.92 324.62
  L 227.04 320.75
  Z"
/>
<path d="
  M 212.26 322.66
  Q 207.50 328.80 203.73 335.72
  Q 205.53 327.42 212.26 322.66
  Z"
/>
<path d="
  M 218.04 342.25
  Q 218.04 341.90 217.84 341.70
  A 0.41 0.41 0.0 0 0 217.24 341.72
  L 215.46 343.75
  L 215.33 343.51
  A 0.41 0.41 0.0 0 0 214.64 343.46
  L 211.67 347.47
  A 0.77 0.75 -31.0 0 0 211.52 348.05
  Q 211.57 348.46 211.25 348.51
  Q 210.69 348.60 210.36 348.82
  L 204.75 352.46
  Q 203.90 351.54 202.63 351.46
  Q 208.44 350.94 211.57 346.23
  Q 214.28 342.15 217.03 337.97
  Q 218.90 335.13 218.49 338.50
  L 218.04 342.25
  Z"
/>
<path d="
  M 314.54 337.25
  Q 315.48 336.95 315.25 337.75
  Q 312.75 346.45 312.75 354.04
  L 311.97 357.04
  Q 311.55 346.88 314.54 337.25
  Z"
/>
<path d="
  M 216.00 397.54
  Q 214.89 397.39 215.50 396.54
  Q 217.13 395.56 217.79 393.75
  Q 218.18 393.35 218.52 393.55
  A 0.33 0.33 0.0 0 1 218.62 394.03
  L 216.00 397.54
  Z"
/>
<path d="
  M 258.29 394.75
  Q 258.49 397.22 256.21 398.25
  L 255.50 397.29
  Q 257.48 396.70 258.29 394.75
  Z"
/>
</g>
<g fill="#50403b" fill-opacity="0.835">
<path d="
  M 489.21 121.25
  L 489.71 122.25
  C 489.65 122.57 488.68 125.62 488.46 123.75
  L 489.21 121.25
  Z"
/>
<path d="
  M 351.71 134.25
  L 352.21 134.75
  Q 352.15 136.28 351.20 138.16
  Q 350.98 136.09 351.71 134.25
  Z"
/>
<path d="
  M 413.25 146.79
  L 418.50 147.71
  L 412.94 147.49
  Q 409.01 147.33 412.92 146.83
  L 413.25 146.79
  Z"
/>
<path d="
  M 344.71 160.75
  L 345.36 157.74
  C 347.58 153.85 345.49 161.32 344.71 160.75
  Z"
/>
<path d="
  M 343.71 168.25
  L 344.21 168.75
  C 343.83 170.42 340.23 187.07 339.75 186.98
  A 0.29 0.22 -86.7 0 1 339.56 186.70
  C 339.56 184.76 340.45 182.93 340.74 181.37
  Q 342.00 174.75 343.71 168.25
  Z"
/>
<path d="
  M 356.08 173.65
  L 356.92 172.25
  Q 358.00 170.48 357.68 172.53
  Q 357.52 173.51 356.68 174.18
  Q 354.88 175.62 356.08 173.65
  Z"
/>
<path d="
  M 309.50 174.29
  L 312.75 174.79
  L 312.25 175.54
  L 309.00 175.46
  Q 310.73 175.08 309.50 174.29
  Z"
/>
<path d="
  M 381.54 176.25
  Q 382.85 177.80 382.50 179.00
  Q 379.55 189.14 376.50 199.25
  Q 377.79 190.26 379.94 185.19
  Q 381.73 180.94 381.54 177.50
  L 381.54 176.25
  Z"
/>
<path d="
  M 229.04 177.00
  L 229.96 181.00
  C 229.62 182.66 229.56 187.10 227.04 186.50
  L 227.46 184.75
  C 228.59 186.30 229.44 182.54 227.79 183.25
  L 229.04 177.00
  Z"
/>
<path d="
  M 443.29 177.75
  Q 445.27 179.29 443.28 180.44
  A 1.00 0.97 40.5 0 1 442.40 180.50
  Q 440.82 179.86 442.96 179.58
  A 0.80 0.80 0.0 0 0 443.47 179.30
  Q 444.13 178.53 442.75 178.46
  L 443.29 177.75
  Z"
/>
<path d="
  M 431.61 179.89
  Q 427.22 185.61 425.46 192.53
  C 425.33 193.02 424.89 193.25 425.11 192.28
  Q 425.81 189.19 426.96 186.25
  Q 428.32 182.28 431.61 179.89
  Z"
/>
<path d="
  M 353.23 182.71
  Q 354.35 185.46 353.51 188.15
  Q 352.25 192.23 352.88 188.00
  Q 353.09 186.54 353.56 185.14
  Q 353.94 184.02 352.79 184.50
  L 353.23 182.71
  Z"
/>
<path d="
  M 338.50 193.00
  L 339.06 189.11
  Q 339.39 186.76 339.47 189.13
  Q 339.54 191.14 338.50 193.00
  Z"
/>
<path d="
  M 440.54 188.25
  Q 441.75 190.21 441.21 192.75
  Q 440.39 190.57 440.54 188.25
  Z"
/>
<path d="
  M 416.84 192.81
  C 417.13 192.66 417.45 192.67 417.51 193.02
  A 0.32 0.31 72.7 0 1 417.33 193.37
  Q 414.34 194.78 411.00 194.48
  C 409.15 194.31 411.05 193.91 411.19 193.92
  Q 414.21 194.18 416.84 192.81
  Z"
/>
<path d="
  M 338.50 193.00
  Q 338.57 194.42 338.22 195.82
  Q 337.41 199.01 337.41 195.72
  Q 337.41 194.26 338.50 193.00
  Z"
/>
<path d="
  M 462.46 204.25
  L 463.68 197.04
  Q 464.73 195.94 464.29 197.69
  Q 463.47 200.97 463.02 204.31
  C 462.97 204.73 462.53 205.53 462.46 204.25
  Z"
/>
<path d="
  M 336.50 202.50
  L 337.01 199.11
  Q 337.45 196.18 337.43 199.14
  Q 337.41 200.90 336.50 202.50
  Z"
/>
<path d="
  M 376.50 199.25
  L 375.25 206.04
  L 375.00 206.00
  A 0.21 0.21 0.0 0 1 374.82 205.78
  Q 375.05 202.35 376.50 199.25
  Z"
/>
<path d="
  M 456.06 202.83
  C 456.19 202.69 456.46 201.81 456.69 202.45
  A 0.64 0.63 -38.2 0 1 456.62 203.00
  C 455.38 204.93 450.97 209.43 448.48 209.24
  Q 444.48 208.93 448.45 208.50
  C 450.51 208.28 454.68 204.39 456.06 202.83
  Z"
/>
<path d="
  M 334.21 208.00
  L 334.50 206.71
  Q 334.61 206.55 334.74 206.45
  Q 335.28 206.07 335.15 206.72
  L 334.74 208.85
  Q 334.60 209.57 334.25 208.93
  Q 334.09 208.62 334.21 208.00
  Z"
/>
<path d="
  M 461.75 206.46
  L 462.10 206.50
  A 0.40 0.40 0.0 0 1 462.46 206.95
  Q 462.30 208.38 461.43 209.59
  L 461.75 206.46
  Z"
/>
<path d="
  M 244.33 276.71
  Q 244.15 279.99 243.02 283.04
  Q 242.58 284.24 242.24 283.01
  Q 242.21 282.89 242.21 282.75
  L 244.33 276.71
  Z"
/>
<path d="
  M 234.21 290.75
  L 234.50 291.29
  L 233.54 294.53
  A 0.27 0.25 -0.6 0 1 233.35 294.71
  C 232.32 294.99 233.78 291.72 234.21 290.75
  Z"
/>
<path d="
  M 370.04 316.60
  Q 370.90 314.38 370.54 316.73
  Q 370.37 317.84 368.90 318.22
  Q 366.36 318.86 367.50 318.01
  A 1.06 0.99 -62.4 0 1 368.07 317.81
  Q 369.58 317.77 370.04 316.60
  Z"
/>
<path d="
  M 394.97 319.30
  L 394.21 323.75
  C 392.51 324.08 394.79 319.85 394.97 319.30
  Z"
/>
<path d="
  M 319.52 320.55
  Q 319.25 323.07 320.12 321.82
  Q 320.50 321.27 320.27 321.90
  Q 318.79 325.83 318.03 329.55
  C 316.34 337.80 313.89 345.65 312.75 354.04
  Q 312.75 346.45 315.25 337.75
  Q 315.48 336.95 314.54 337.25
  L 319.52 320.55
  Z"
/>
<rect x="-0.31" y="-4.12" transform="translate(365.92,332.84) rotate(14.1)" width="0.62" height="8.24" rx="0.27"/>
<path d="
  M 428.34 332.13
  Q 426.28 335.74 426.21 339.50
  Q 424.78 336.45 426.21 333.50
  Q 426.04 334.57 426.57 334.28
  A 0.19 0.18 77.7 0 0 426.67 334.11
  Q 426.74 332.18 428.34 332.13
  Z"
/>
<path d="
  M 203.50 340.04
  Q 203.90 341.69 203.00 342.96
  Q 202.62 341.38 203.50 340.04
  Z"
/>
<path d="
  M 415.89 347.16
  Q 415.09 347.70 414.16 347.57
  Q 412.17 347.29 414.11 346.77
  Q 418.10 345.70 420.61 342.36
  Q 421.54 341.12 421.34 342.26
  C 421.03 344.06 417.25 346.24 415.89 347.16
  Z"
/>
<path d="
  M 379.50 344.50
  Q 379.68 343.59 380.26 342.92
  Q 381.37 341.63 380.81 343.24
  Q 380.51 344.11 379.50 344.50
  Z"
/>
<path d="
  M 379.50 344.50
  Q 375.40 349.36 369.45 351.55
  Q 367.50 352.27 368.36 351.52
  Q 368.83 351.11 371.40 350.09
  Q 371.51 350.05 371.60 349.99
  L 379.50 344.50
  Z"
/>
<path d="
  M 265.21 349.75
  L 265.50 348.21
  Q 265.73 347.83 265.83 347.82
  A 0.56 0.56 0.0 0 1 266.39 348.55
  Q 265.17 352.24 265.21 349.75
  Z"
/>
<path d="
  M 368.50 350.04
  Q 367.61 350.62 366.59 350.73
  A 0.99 0.96 20.5 0 0 366.02 350.98
  Q 364.92 351.97 364.00 350.54
  L 368.50 350.04
  Z"
/>
<path d="
  M 215.50 396.54
  Q 214.89 397.39 216.00 397.54
  L 216.25 398.04
  Q 214.72 398.31 214.00 396.79
  L 215.50 396.54
  Z"
/>
</g>
</svg>
