<?xml version="1.0" encoding="UTF-8" standalone="no"?>
<!DOCTYPE svg PUBLIC "-//W3C//DTD SVG 1.1//EN" "http://www.w3.org/Graphics/SVG/1.1/DTD/svg11.dtd">
<svg xmlns="http://www.w3.org/2000/svg" version="1.1" viewBox="0 0 500 500">
<g stroke-width="2.00" fill="none" stroke-linecap="butt">
<path stroke="#d6a26f" vector-effect="non-scaling-stroke" d="
  M 299.79 100.75
  Q 293.52 109.04 283.75 112.79"
/>
<path stroke="#d6a26f" vector-effect="non-scaling-stroke" d="
  M 292.85 101.34
  Q 267.10 102.10 243.48 111.85
  A 1.04 1.01 85.7 0 0 242.88 112.57
  Q 235.32 147.44 227.69 182.30
  Q 227.59 182.77 227.67 183.80
  C 227.75 184.92 225.54 188.35 228.52 187.66"
/>
<path stroke="#d6a26f" vector-effect="non-scaling-stroke" d="
  M 252.35 188.33
  Q 239.10 189.33 226.06 192.73
  A 1.01 1.00 -1.5 0 0 225.34 193.48
  Q 218.88 222.60 214.02 252.01
  A 1.01 1.01 0.0 0 0 214.32 252.91
  Q 214.95 253.49 215.75 253.71"
/>
<path stroke="#d6a26f" vector-effect="non-scaling-stroke" d="
  M 217.54 255.25
  Q 216.77 261.50 211.64 264.96"
/>
<path stroke="#d6a26f" vector-effect="non-scaling-stroke" d="
  M 220.12 197.66
  Q 221.19 194.34 218.50 195.44
  Q 204.47 201.22 192.68 210.82"
/>
<path stroke="#b4874b" stroke-opacity="0.831" vector-effect="non-scaling-stroke" d="
  M 237.75 116.56
  Q 238.11 115.14 237.21 114.40"
/>
<path stroke="#d6a26f" vector-effect="non-scaling-stroke" d="
  M 237.21 114.40
  Q 210.95 123.07 188.04 138.44"
/>
<path stroke="#b4874b" stroke-opacity="0.831" vector-effect="non-scaling-stroke" d="
  M 245.96 105.75
  Q 244.98 105.46 244.83 106.02
  A 0.32 0.32 0.0 0 0 245.20 106.42
  L 247.25 106.04"
/>
<path stroke="#c09495" stroke-opacity="0.831" vector-effect="non-scaling-stroke" d="
  M 237.21 114.40
  Q 236.52 115.45 236.79 116.50"
/>
<path stroke="#d6a26f" vector-effect="non-scaling-stroke" d="
  M 491.89 110.55
  Q 487.13 130.77 475.93 148.05
  Q 474.23 150.67 473.57 153.38
  C 467.36 178.94 459.49 214.73 455.54 236.26
  Q 455.25 237.84 455.70 241.40
  A 0.34 0.33 -75.9 0 0 455.82 241.61
  Q 456.16 241.89 456.46 241.50"
/>
<path stroke="#d6a26f" vector-effect="non-scaling-stroke" d="
  M 456.75 248.71
  C 454.49 250.01 454.88 253.28 451.75 253.29"
/>
<path stroke="#b4874b" stroke-opacity="0.831" vector-effect="non-scaling-stroke" d="
  M 457.96 202.75
  L 458.36 200.02
  Q 458.69 197.81 457.43 199.66
  L 457.00 200.29"
/>
<path stroke="#d6a26f" vector-effect="non-scaling-stroke" d="
  M 457.00 200.29
  C 456.78 200.20 456.62 200.23 456.48 200.43
  Q 451.95 206.96 444.00 207.79"
/>
<path stroke="#d6a26f" vector-effect="non-scaling-stroke" d="
  M 436.56 193.11
  Q 436.95 192.19 436.73 191.10
  Q 436.28 188.81 434.94 190.72
  Q 429.60 198.32 422.04 203.65"
/>
<path stroke="#b4874b" stroke-opacity="0.831" vector-effect="non-scaling-stroke" d="
  M 418.96 193.25
  Q 420.36 190.40 418.52 190.89"
/>
<path stroke="#d6a26f" vector-effect="non-scaling-stroke" d="
  M 418.52 190.89
  Q 411.58 194.08 404.23 192.59"
/>
<path stroke="#d6a26f" vector-effect="non-scaling-stroke" d="
  M 398.06 187.35
  Q 392.90 201.67 382.69 213.94
  Q 378.68 218.77 372.72 218.68"
/>
<path stroke="#d6a26f" vector-effect="non-scaling-stroke" d="
  M 370.96 197.25
  L 371.21 195.75"
/>
<path stroke="#b4874b" stroke-opacity="0.831" vector-effect="non-scaling-stroke" d="
  M 371.21 195.75
  Q 371.77 193.86 371.79 193.26
  C 371.86 191.39 370.27 194.66 370.21 194.75"
/>
<path stroke="#d6a26f" vector-effect="non-scaling-stroke" d="
  M 370.21 194.75
  L 369.16 195.19
  Q 368.91 195.29 368.75 195.50
  Q 361.84 204.41 350.80 206.98"
/>
<path stroke="#d6a26f" vector-effect="non-scaling-stroke" d="
  M 353.04 182.25
  Q 350.75 190.47 350.28 199.00
  A 0.99 0.98 21.5 0 0 350.64 199.82
  L 351.50 200.54"
/>
<path stroke="#d6a26f" vector-effect="non-scaling-stroke" d="
  M 381.54 176.00
  Q 376.28 191.31 373.45 207.24
  Q 372.84 210.68 374.50 213.54"
/>
<path stroke="#d6a26f" vector-effect="non-scaling-stroke" d="
  M 437.15 177.13
  Q 433.58 174.29 430.55 178.05
  Q 424.22 185.93 423.29 196.50"
/>
<path stroke="#b4874b" stroke-opacity="0.831" vector-effect="non-scaling-stroke" d="
  M 423.29 196.50
  Q 423.18 196.79 423.18 196.99
  Q 423.17 198.07 423.89 197.27
  L 425.00 196.04"
/>
<path stroke="#d6a26f" vector-effect="non-scaling-stroke" d="
  M 440.94 184.51
  C 440.26 187.56 439.83 190.84 441.19 193.81
  Q 441.89 195.36 442.40 197.03"
/>
<path stroke="#c09495" stroke-opacity="0.831" vector-effect="non-scaling-stroke" d="
  M 424.71 195.50
  L 423.29 196.50"
/>
<path stroke="#c09495" stroke-opacity="0.831" vector-effect="non-scaling-stroke" d="
  M 371.21 195.75
  Q 370.35 195.74 370.21 194.75"
/>
<path stroke="#c09495" stroke-opacity="0.831" vector-effect="non-scaling-stroke" d="
  M 457.29 202.75
  L 457.00 200.29"
/>
<path stroke="#c09495" stroke-opacity="0.831" vector-effect="non-scaling-stroke" d="
  M 418.50 193.21
  L 418.52 190.89"
/>
<path stroke="#d6a26f" vector-effect="non-scaling-stroke" d="
  M 355.91 121.27
  L 354.03 122.00
  A 1.00 0.99 -4.0 0 0 353.42 122.70
  L 349.01 140.71
  A 0.99 0.99 0.0 0 0 349.16 141.52
  Q 349.79 142.41 350.91 142.25"
/>
<path stroke="#d6a26f" vector-effect="non-scaling-stroke" d="
  M 383.28 147.48
  Q 366.37 145.52 348.43 146.00
  A 1.01 0.99 -83.9 0 0 347.49 146.77
  Q 333.91 202.86 324.03 259.71
  Q 323.69 261.64 324.94 263.02
  C 326.55 264.79 323.72 268.89 321.96 270.50"
/>
<path stroke="#b4874b" stroke-opacity="0.831" vector-effect="non-scaling-stroke" d="
  M 332.21 195.25
  L 332.79 192.02
  Q 333.29 189.19 331.40 191.36
  L 328.21 195.00"
/>
<path stroke="#d6a26f" vector-effect="non-scaling-stroke" d="
  M 328.21 195.00
  Q 319.11 204.58 311.24 215.22
  A 0.99 0.98 -30.0 0 0 311.05 215.91
  Q 311.75 222.88 310.79 227.80
  Q 308.32 240.41 296.32 246.31"
/>
<path stroke="#d6a26f" vector-effect="non-scaling-stroke" d="
  M 293.96 192.25
  Q 293.68 188.34 291.57 191.05
  Q 284.73 199.82 277.57 205.83
  Q 271.36 211.04 264.50 210.54"
/>
<path stroke="#d6a26f" vector-effect="non-scaling-stroke" d="
  M 279.29 167.69
  Q 276.35 173.98 271.63 179.14
  Q 268.36 182.72 264.57 185.93
  A 1.02 0.99 -13.4 0 0 264.26 186.42
  Q 262.15 193.78 262.31 201.45
  A 1.00 0.99 8.6 0 0 263.00 202.38
  L 263.50 202.54"
/>
<path stroke="#d6a26f" vector-effect="non-scaling-stroke" d="
  M 314.54 172.36
  Q 312.95 174.83 311.74 174.54
  C 304.98 172.93 297.82 176.12 297.67 183.59
  Q 297.62 185.75 297.57 187.95
  A 0.65 0.64 -6.2 0 0 298.37 188.59
  L 298.71 188.50"
/>
<path stroke="#d6a26f" vector-effect="non-scaling-stroke" d="
  M 342.00 147.17
  Q 324.14 146.55 306.29 147.58"
/>
<path stroke="#c09495" stroke-opacity="0.831" vector-effect="non-scaling-stroke" d="
  M 329.29 197.50
  L 328.21 195.00"
/>
<path stroke="#d6a26f" vector-effect="non-scaling-stroke" d="
  M 356.54 170.25
  Q 355.69 173.14 352.02 173.63"
/>
<path stroke="#d6a26f" vector-effect="non-scaling-stroke" d="
  M 294.91 253.96
  Q 292.46 267.78 285.25 281.04
  C 281.83 287.32 277.92 292.71 276.49 298.65
  Q 273.60 310.68 270.75 322.73
  C 270.09 325.47 269.93 328.80 269.09 331.86
  Q 267.65 337.13 267.63 337.19
  Q 261.29 365.08 257.46 388.49
  Q 257.18 390.21 258.96 389.75"
/>
<path stroke="#d6a26f" vector-effect="non-scaling-stroke" d="
  M 259.25 391.96
  Q 258.09 395.48 255.13 397.44"
/>
<path stroke="#b4874b" stroke-opacity="0.831" vector-effect="non-scaling-stroke" d="
  M 262.53 340.95
  Q 263.18 339.92 262.84 338.79
  A 0.97 0.92 -46.6 0 1 262.84 338.22
  C 264.28 333.28 262.58 337.34 262.25 337.60
  Q 259.60 339.69 257.71 342.50"
/>
<path stroke="#d6a26f" vector-effect="non-scaling-stroke" d="
  M 257.71 342.50
  C 251.29 348.55 245.81 354.89 237.00 354.79"
/>
<path stroke="#d6a26f" vector-effect="non-scaling-stroke" d="
  M 250.79 310.75
  C 248.85 319.20 242.27 324.89 236.15 330.48
  A 1.00 0.99 -15.9 0 0 235.83 331.05
  L 234.99 335.92
  Q 234.96 336.08 234.88 336.23
  Q 233.02 339.62 235.68 342.25"
/>
<path stroke="#c09495" stroke-opacity="0.831" vector-effect="non-scaling-stroke" d="
  M 257.25 346.21
  Q 256.34 344.23 257.71 342.50"
/>
<path stroke="#d6a26f" vector-effect="non-scaling-stroke" d="
  M 246.72 265.54
  Q 246.08 267.35 245.03 271.99
  Q 242.54 283.04 234.61 303.51
  C 231.38 311.84 226.44 319.44 224.73 328.28
  Q 219.29 356.54 215.74 385.10
  A 1.03 0.98 31.8 0 0 215.93 385.82
  Q 216.58 386.72 217.46 386.50"
/>
<path stroke="#d6a26f" vector-effect="non-scaling-stroke" d="
  M 219.06 392.43
  L 215.23 398.11"
/>
<path stroke="#d6a26f" vector-effect="non-scaling-stroke" d="
  M 218.11 341.16
  L 218.37 338.90
  Q 218.71 335.93 216.93 338.34
  Q 214.10 342.17 211.19 345.96
  Q 207.47 350.83 201.99 351.45"
/>
<path stroke="#d6a26f" vector-effect="non-scaling-stroke" d="
  M 370.66 317.22
  Q 370.30 316.88 370.04 316.51
  A 1.00 0.99 -39.1 0 0 368.53 316.36
  Q 367.30 317.54 365.25 317.29"
/>
<path stroke="#b4874b" stroke-opacity="0.831" vector-effect="non-scaling-stroke" d="
  M 394.47 318.55
  Q 392.23 322.28 391.51 326.61
  Q 391.02 329.61 393.20 327.49
  Q 393.76 326.94 394.04 326.25"
/>
<path stroke="#d6a26f" vector-effect="non-scaling-stroke" d="
  M 440.79 326.25
  Q 439.36 331.08 441.16 335.66"
/>
<path stroke="#d6a26f" vector-effect="non-scaling-stroke" d="
  M 460.98 327.91
  C 456.54 335.04 448.24 340.69 439.55 340.05
  A 0.99 0.99 0.0 0 0 438.58 340.62
  Q 435.34 347.49 427.44 347.74"
/>
<path stroke="#d6a26f" vector-effect="non-scaling-stroke" d="
  M 422.46 342.75
  Q 422.24 341.74 421.67 340.96
  A 1.01 1.01 0.0 0 0 420.11 340.88
  Q 416.47 344.98 411.25 346.79"
/>
<path stroke="#d6a26f" vector-effect="non-scaling-stroke" d="
  M 400.37 329.43
  Q 400.58 327.98 398.49 328.32
  A 1.01 0.96 -71.8 0 0 397.91 328.63
  C 391.99 335.11 387.87 345.11 384.93 353.31
  A 1.06 1.03 -5.5 0 1 384.47 353.85
  L 382.75 354.79"
/>
<path stroke="#d6a26f" vector-effect="non-scaling-stroke" d="
  M 382.60 342.15
  L 382.93 340.88
  Q 383.69 337.98 381.59 340.11
  Q 377.86 343.90 372.55 347.55
  Q 368.12 350.60 363.50 350.54"
/>
<path stroke="#d6a26f" vector-effect="non-scaling-stroke" d="
  M 359.46 335.75
  Q 359.74 335.10 359.79 334.44
  Q 359.96 332.49 358.28 333.50
  Q 351.86 337.33 344.25 337.54"
/>
<path stroke="#d6a26f" vector-effect="non-scaling-stroke" d="
  M 337.18 332.74
  Q 337.08 332.53 336.98 332.36
  Q 335.88 330.60 335.18 332.55
  Q 330.15 346.64 321.19 357.19
  Q 318.61 360.24 314.19 362.69
  Q 313.76 362.93 314.19 363.15
  Q 314.74 363.43 313.65 364.41"
/>
<path stroke="#d6a26f" vector-effect="non-scaling-stroke" d="
  M 319.29 320.25
  C 316.94 326.63 308.32 351.88 312.48 357.95"
/>
<path stroke="#d6a26f" vector-effect="non-scaling-stroke" d="
  M 366.04 326.25
  C 364.68 331.99 362.01 339.75 364.60 345.34"
/>
<path stroke="#b4874b" stroke-opacity="0.831" vector-effect="non-scaling-stroke" d="
  M 269.4307 175.1581
  A 3.03 0.22 124.8 0 0 271.3407 172.7956
  A 3.03 0.22 124.8 0 0 272.8893 170.1819
  A 3.03 0.22 124.8 0 0 270.9793 172.5444
  A 3.03 0.22 124.8 0 0 269.4307 175.1581"
/>
<path stroke="#b4874b" stroke-opacity="0.831" vector-effect="non-scaling-stroke" d="
  M 306.65 225.94
  L 306.64 224.71
  Q 306.61 222.41 305.20 224.23
  Q 300.03 230.93 297.21 238.95
  Q 296.48 241.02 298.52 240.21
  Q 299.66 239.76 300.00 238.97"
/>
<path stroke="#b4874b" stroke-opacity="0.831" vector-effect="non-scaling-stroke" d="
  M 241.5592 318.9995
  A 2.91 0.23 124.8 0 0 243.4089 316.7413
  A 2.91 0.23 124.8 0 0 244.8808 314.2205
  A 2.91 0.23 124.8 0 0 243.0311 316.4787
  A 2.91 0.23 124.8 0 0 241.5592 318.9995"
/>
<path stroke="#b4874b" stroke-opacity="0.831" vector-effect="non-scaling-stroke" d="
  M 239.29 274.86
  Q 238.72 278.16 240.05 274.45
  Q 240.15 274.17 239.92 274.27
  L 239.67 274.38
  A 0.65 0.64 -7.0 0 0 239.29 274.86"
/>
<path stroke="#b4874b" stroke-opacity="0.831" vector-effect="non-scaling-stroke" d="
  M 237.8635 280.9091
  A 0.24 0.24 0.0 0 0 237.7078 280.6075
  L 237.7078 280.6075
  A 0.24 0.24 0.0 0 0 237.4062 280.7631
  L 234.1165 291.0709
  A 0.24 0.24 0.0 0 0 234.2722 291.3725
  L 234.2722 291.3725
  A 0.24 0.24 0.0 0 0 234.5738 291.2169
  L 237.8635 280.9091"
/>
<path stroke="#d6a26f" vector-effect="non-scaling-stroke" d="
  M 216.71 322.13
  Q 216.87 319.95 213.68 321.21
  C 205.94 324.28 202.12 336.12 202.07 344.01
  Q 202.07 345.29 203.26 346.03"
/>
<path stroke="#b4874b" stroke-opacity="0.831" vector-effect="non-scaling-stroke" d="
  M 435.46 325.50
  C 434.58 322.30 431.25 326.16 434.04 327.75"
/>
<path stroke="#d6a26f" vector-effect="non-scaling-stroke" d="
  M 429.00 331.96
  Q 429.02 331.39 428.88 330.98
  Q 428.27 329.27 427.15 330.71
  Q 424.24 334.45 426.46 339.00"
/>
</g>
<g fill="#cb9732">
<path d="
  M 299.79 100.75
  Q 293.52 109.04 283.75 112.79
  Q 281.19 111.66 282.54 109.29
  A 1.03 1.01 4.1 0 1 283.06 108.85
  Q 288.61 106.77 292.85 101.34
  Q 267.10 102.10 243.48 111.85
  A 1.04 1.01 85.7 0 0 242.88 112.57
  Q 235.32 147.44 227.69 182.30
  Q 227.59 182.77 227.67 183.80
  C 227.75 184.92 225.54 188.35 228.52 187.66
  Q 238.34 185.57 248.34 185.02
  C 250.81 184.89 251.59 186.27 252.35 188.33
  Q 239.10 189.33 226.06 192.73
  A 1.01 1.00 -1.5 0 0 225.34 193.48
  Q 218.88 222.60 214.02 252.01
  A 1.01 1.01 0.0 0 0 214.32 252.91
  Q 214.95 253.49 215.75 253.71
  L 217.54 255.25
  Q 216.77 261.50 211.64 264.96
  Q 208.75 263.28 208.98 260.50
  C 210.79 239.57 216.05 218.36 220.12 197.66
  Q 221.19 194.34 218.50 195.44
  Q 204.47 201.22 192.68 210.82
  Q 189.15 208.43 192.47 205.94
  Q 206.62 195.28 221.42 190.14
  A 1.02 1.02 0.0 0 0 222.07 189.40
  L 237.75 116.56
  Q 238.11 115.14 237.21 114.40
  Q 210.95 123.07 188.04 138.44
  C 183.82 137.16 186.13 134.64 188.31 133.27
  C 204.57 123.09 220.99 115.93 238.90 109.11
  A 1.02 1.00 -5.0 0 0 239.53 108.37
  L 240.82 101.74
  A 1.00 0.97 -11.0 0 1 241.27 101.09
  Q 244.05 99.33 245.14 102.62
  A 0.99 0.99 0.0 0 0 245.60 103.18
  Q 247.14 104.04 245.96 105.75
  Q 244.98 105.46 244.83 106.02
  A 0.32 0.32 0.0 0 0 245.20 106.42
  L 247.25 106.04
  C 261.54 101.73 276.28 97.42 291.24 96.52
  Q 296.84 96.18 299.79 100.75
  Z"
/>
<path d="
  M 491.89 110.55
  Q 487.13 130.77 475.93 148.05
  Q 474.23 150.67 473.57 153.38
  C 467.36 178.94 459.49 214.73 455.54 236.26
  Q 455.25 237.84 455.70 241.40
  A 0.34 0.33 -75.9 0 0 455.82 241.61
  Q 456.16 241.89 456.46 241.50
  Q 455.01 245.25 456.75 248.71
  C 454.49 250.01 454.88 253.28 451.75 253.29
  C 447.73 251.85 450.54 240.91 451.35 236.32
  Q 452.37 230.61 457.96 202.75
  L 458.36 200.02
  Q 458.69 197.81 457.43 199.66
  L 457.00 200.29
  C 456.78 200.20 456.62 200.23 456.48 200.43
  Q 451.95 206.96 444.00 207.79
  Q 437.29 202.11 436.56 193.11
  Q 436.95 192.19 436.73 191.10
  Q 436.28 188.81 434.94 190.72
  Q 429.60 198.32 422.04 203.65
  C 417.55 200.26 419.22 197.47 418.96 193.25
  Q 420.36 190.40 418.52 190.89
  Q 411.58 194.08 404.23 192.59
  L 398.06 187.35
  Q 392.90 201.67 382.69 213.94
  Q 378.68 218.77 372.72 218.68
  C 367.25 213.16 369.85 204.18 370.96 197.25
  L 371.21 195.75
  Q 371.77 193.86 371.79 193.26
  C 371.86 191.39 370.27 194.66 370.21 194.75
  L 369.16 195.19
  Q 368.91 195.29 368.75 195.50
  Q 361.84 204.41 350.80 206.98
  C 343.52 200.93 346.83 189.05 349.20 181.11
  A 0.98 0.97 86.8 0 1 349.76 180.48
  Q 352.30 179.40 353.04 182.25
  Q 350.75 190.47 350.28 199.00
  A 0.99 0.98 21.5 0 0 350.64 199.82
  L 351.50 200.54
  C 353.49 209.44 372.47 184.40 373.64 182.64
  C 374.19 181.82 374.73 181.51 375.50 180.97
  A 1.01 0.98 -9.6 0 0 375.89 180.44
  Q 376.53 178.32 377.31 176.26
  C 378.19 173.93 380.44 173.10 381.54 176.00
  Q 376.28 191.31 373.45 207.24
  Q 372.84 210.68 374.50 213.54
  Q 375.98 215.11 377.79 213.24
  Q 391.64 198.93 395.72 179.30
  Q 396.50 175.55 399.47 178.00
  Q 400.90 179.18 401.25 181.24
  Q 401.93 185.26 404.79 187.41
  C 410.70 191.86 417.50 186.92 421.81 182.91
  C 424.36 180.54 425.91 176.74 428.41 174.62
  Q 435.62 168.50 443.10 176.28
  Q 444.59 177.83 444.42 179.98
  C 444.20 182.87 438.01 177.62 437.15 177.13
  Q 433.58 174.29 430.55 178.05
  Q 424.22 185.93 423.29 196.50
  Q 423.18 196.79 423.18 196.99
  Q 423.17 198.07 423.89 197.27
  L 425.00 196.04
  Q 430.73 189.91 435.57 183.05
  Q 438.66 178.67 440.94 184.51
  C 440.26 187.56 439.83 190.84 441.19 193.81
  Q 441.89 195.36 442.40 197.03
  L 444.12 201.77
  Q 445.36 205.19 448.37 202.69
  C 455.01 197.19 461.78 186.09 463.68 177.70
  Q 468.11 158.10 474.40 133.93
  C 475.31 130.47 484.65 96.26 491.89 110.55
  Z
  M 479.4159 132.3291
  A 9.22 0.49 110.8 0 0 483.1481 123.8840
  A 9.22 0.49 110.8 0 0 485.9641 115.0909
  A 9.22 0.49 110.8 0 0 482.2319 123.5360
  A 9.22 0.49 110.8 0 0 479.4159 132.3291
  Z"
/>
<path d="
  M 355.91 121.27
  L 354.03 122.00
  A 1.00 0.99 -4.0 0 0 353.42 122.70
  L 349.01 140.71
  A 0.99 0.99 0.0 0 0 349.16 141.52
  Q 349.79 142.41 350.91 142.25
  Q 374.94 141.93 398.75 141.69
  C 402.19 141.65 408.19 142.32 414.94 142.31
  Q 420.03 142.31 421.90 147.49
  A 1.01 1.00 82.6 0 1 420.87 148.83
  C 419.16 148.69 417.54 148.01 415.86 147.94
  Q 399.54 147.28 383.28 147.48
  Q 366.37 145.52 348.43 146.00
  A 1.01 0.99 -83.9 0 0 347.49 146.77
  Q 333.91 202.86 324.03 259.71
  Q 323.69 261.64 324.94 263.02
  C 326.55 264.79 323.72 268.89 321.96 270.50
  Q 320.48 269.44 319.52 267.78
  A 0.99 0.99 0.0 0 1 319.39 267.22
  Q 319.85 259.76 321.17 252.43
  Q 326.36 223.78 332.21 195.25
  L 332.79 192.02
  Q 333.29 189.19 331.40 191.36
  L 328.21 195.00
  Q 319.11 204.58 311.24 215.22
  A 0.99 0.98 -30.0 0 0 311.05 215.91
  Q 311.75 222.88 310.79 227.80
  Q 308.32 240.41 296.32 246.31
  L 293.23 242.80
  A 0.99 0.97 24.6 0 1 292.98 242.15
  C 292.91 233.78 300.47 222.63 305.09 216.68
  Q 306.97 214.26 305.37 211.56
  L 293.96 192.25
  Q 293.68 188.34 291.57 191.05
  Q 284.73 199.82 277.57 205.83
  Q 271.36 211.04 264.50 210.54
  C 251.97 201.77 261.14 179.13 267.56 169.56
  C 269.83 166.18 276.79 159.96 279.29 167.69
  Q 276.35 173.98 271.63 179.14
  Q 268.36 182.72 264.57 185.93
  A 1.02 0.99 -13.4 0 0 264.26 186.42
  Q 262.15 193.78 262.31 201.45
  A 1.00 0.99 8.6 0 0 263.00 202.38
  L 263.50 202.54
  C 267.18 217.33 289.69 187.21 291.94 184.07
  C 293.56 181.79 293.99 179.27 295.50 176.97
  Q 302.52 166.26 314.54 172.36
  Q 312.95 174.83 311.74 174.54
  C 304.98 172.93 297.82 176.12 297.67 183.59
  Q 297.62 185.75 297.57 187.95
  A 0.65 0.64 -6.2 0 0 298.37 188.59
  L 298.71 188.50
  Q 299.46 193.09 301.85 197.13
  Q 305.34 203.04 309.00 209.05
  A 1.00 1.00 0.0 0 0 310.62 209.17
  Q 322.28 195.19 334.29 181.56
  Q 335.69 179.97 336.17 177.90
  Q 339.52 163.23 342.76 148.50
  Q 343.05 147.18 342.00 147.17
  Q 324.14 146.55 306.29 147.58
  C 302.61 145.59 304.81 143.31 307.72 143.27
  Q 325.57 143.00 343.48 142.48
  A 1.00 1.00 0.0 0 0 344.42 141.73
  Q 347.29 130.78 350.03 119.81
  Q 350.91 116.31 353.64 118.75
  A 0.98 0.97 -73.9 0 1 353.97 119.36
  Q 354.13 120.51 355.91 121.27
  Z
  M 269.4307 175.1581
  A 3.03 0.22 124.8 0 0 271.3407 172.7956
  A 3.03 0.22 124.8 0 0 272.8893 170.1819
  A 3.03 0.22 124.8 0 0 270.9793 172.5444
  A 3.03 0.22 124.8 0 0 269.4307 175.1581
  Z
  M 300.00 238.97
  Q 306.05 233.82 306.65 225.94
  L 306.64 224.71
  Q 306.61 222.41 305.20 224.23
  Q 300.03 230.93 297.21 238.95
  Q 296.48 241.02 298.52 240.21
  Q 299.66 239.76 300.00 238.97
  Z"
/>
<path d="
  M 356.54 170.25
  Q 355.69 173.14 352.02 173.63
  Q 348.50 169.88 353.34 168.34
  C 355.10 167.78 356.18 168.52 356.54 170.25
  Z"
/>
<path d="
  M 294.91 253.96
  Q 292.46 267.78 285.25 281.04
  C 281.83 287.32 277.92 292.71 276.49 298.65
  Q 273.60 310.68 270.75 322.73
  C 270.09 325.47 269.93 328.80 269.09 331.86
  Q 267.65 337.13 267.63 337.19
  Q 261.29 365.08 257.46 388.49
  Q 257.18 390.21 258.96 389.75
  L 259.25 391.96
  Q 258.09 395.48 255.13 397.44
  C 251.86 396.05 252.75 391.34 253.21 388.68
  Q 257.36 364.77 262.53 340.95
  Q 263.18 339.92 262.84 338.79
  A 0.97 0.92 -46.6 0 1 262.84 338.22
  C 264.28 333.28 262.58 337.34 262.25 337.60
  Q 259.60 339.69 257.71 342.50
  C 251.29 348.55 245.81 354.89 237.00 354.79
  C 226.90 348.92 230.04 334.84 233.38 325.92
  C 234.71 322.38 244.77 299.70 250.79 310.75
  C 248.85 319.20 242.27 324.89 236.15 330.48
  A 1.00 0.99 -15.9 0 0 235.83 331.05
  L 234.99 335.92
  Q 234.96 336.08 234.88 336.23
  Q 233.02 339.62 235.68 342.25
  C 234.04 350.12 238.86 352.19 244.68 348.55
  C 252.07 343.92 259.13 334.85 264.50 327.45
  Q 266.05 325.32 266.67 322.64
  Q 270.87 304.50 275.20 286.38
  C 277.46 276.93 282.83 256.42 290.16 251.09
  A 1.00 1.00 0.0 0 1 290.83 250.90
  Q 293.63 251.14 294.91 253.96
  Z
  M 289.6967 258.9712
  A 0.36 0.36 0.0 0 0 289.4855 258.5080
  L 289.4481 258.4939
  A 0.36 0.36 0.0 0 0 288.9848 258.7051
  L 283.1433 274.3288
  A 0.36 0.36 0.0 0 0 283.3545 274.7920
  L 283.3919 274.8061
  A 0.36 0.36 0.0 0 0 283.8552 274.5949
  L 289.6967 258.9712
  Z
  M 241.5592 318.9995
  A 2.91 0.23 124.8 0 0 243.4089 316.7413
  A 2.91 0.23 124.8 0 0 244.8808 314.2205
  A 2.91 0.23 124.8 0 0 243.0311 316.4787
  A 2.91 0.23 124.8 0 0 241.5592 318.9995
  Z"
/>
<path d="
  M 246.72 265.54
  Q 246.08 267.35 245.03 271.99
  Q 242.54 283.04 234.61 303.51
  C 231.38 311.84 226.44 319.44 224.73 328.28
  Q 219.29 356.54 215.74 385.10
  A 1.03 0.98 31.8 0 0 215.93 385.82
  Q 216.58 386.72 217.46 386.50
  L 216.85 388.64
  A 1.00 0.99 35.2 0 0 217.00 389.49
  L 219.06 392.43
  L 215.23 398.11
  Q 210.53 395.32 211.15 389.75
  Q 213.85 365.48 218.11 341.16
  L 218.37 338.90
  Q 218.71 335.93 216.93 338.34
  Q 214.10 342.17 211.19 345.96
  Q 207.47 350.83 201.99 351.45
  C 191.70 343.53 203.27 317.92 215.01 316.74
  Q 218.93 316.35 220.95 320.04
  Q 222.00 321.95 222.44 319.82
  Q 226.75 298.87 233.50 278.61
  C 234.50 275.63 241.66 253.54 246.72 265.54
  Z
  M 239.29 274.86
  Q 238.72 278.16 240.05 274.45
  Q 240.15 274.17 239.92 274.27
  L 239.67 274.38
  A 0.65 0.64 -7.0 0 0 239.29 274.86
  Z
  M 234.5738 291.2169
  A 0.24 0.24 0.0 0 1 234.2722 291.3725
  L 234.2722 291.3725
  A 0.24 0.24 0.0 0 1 234.1165 291.0709
  L 237.4062 280.7631
  A 0.24 0.24 0.0 0 1 237.7078 280.6075
  L 237.7078 280.6075
  A 0.24 0.24 0.0 0 1 237.8635 280.9091
  L 234.5738 291.2169
  Z
  M 203.26 346.03
  Q 203.13 346.87 204.03 346.81
  C 207.08 346.61 216.31 331.18 218.13 328.14
  A 1.01 0.99 52.8 0 0 218.23 327.35
  L 216.71 322.13
  Q 216.87 319.95 213.68 321.21
  C 205.94 324.28 202.12 336.12 202.07 344.01
  Q 202.07 345.29 203.26 346.03
  Z"
/>
<path d="
  M 370.66 317.22
  Q 370.30 316.88 370.04 316.51
  A 1.00 0.99 -39.1 0 0 368.53 316.36
  Q 367.30 317.54 365.25 317.29
  Q 360.61 316.07 366.59 311.66
  A 1.02 1.01 -42.2 0 1 367.86 311.72
  Q 370.41 314.04 370.66 317.22
  Z"
/>
<path d="
  M 394.47 318.55
  Q 392.23 322.28 391.51 326.61
  Q 391.02 329.61 393.20 327.49
  Q 393.76 326.94 394.04 326.25
  C 402.70 317.13 408.09 333.78 409.46 339.24
  C 412.02 349.42 423.30 328.34 424.11 326.65
  Q 424.93 324.92 428.79 323.61
  A 0.99 0.96 -86.1 0 0 429.37 323.09
  C 432.93 315.57 439.46 320.75 440.79 326.25
  Q 439.36 331.08 441.16 335.66
  C 446.74 337.01 453.53 331.23 456.87 327.11
  Q 459.04 324.45 460.98 327.91
  C 456.54 335.04 448.24 340.69 439.55 340.05
  A 0.99 0.99 0.0 0 0 438.58 340.62
  Q 435.34 347.49 427.44 347.74
  Q 424.46 345.64 422.46 342.75
  Q 422.24 341.74 421.67 340.96
  A 1.01 1.01 0.0 0 0 420.11 340.88
  Q 416.47 344.98 411.25 346.79
  C 403.12 341.93 405.06 335.77 400.37 329.43
  Q 400.58 327.98 398.49 328.32
  A 1.01 0.96 -71.8 0 0 397.91 328.63
  C 391.99 335.11 387.87 345.11 384.93 353.31
  A 1.06 1.03 -5.5 0 1 384.47 353.85
  L 382.75 354.79
  Q 380.60 353.98 381.00 351.75
  Q 382.19 345.15 382.60 342.15
  L 382.93 340.88
  Q 383.69 337.98 381.59 340.11
  Q 377.86 343.90 372.55 347.55
  Q 368.12 350.60 363.50 350.54
  C 358.81 346.95 359.17 342.06 359.46 335.75
  Q 359.74 335.10 359.79 334.44
  Q 359.96 332.49 358.28 333.50
  Q 351.86 337.33 344.25 337.54
  Q 340.26 335.48 337.18 332.74
  Q 337.08 332.53 336.98 332.36
  Q 335.88 330.60 335.18 332.55
  Q 330.15 346.64 321.19 357.19
  Q 318.61 360.24 314.19 362.69
  Q 313.76 362.93 314.19 363.15
  Q 314.74 363.43 313.65 364.41
  Q 305.98 361.04 307.25 351.98
  Q 309.70 334.61 315.48 319.32
  A 1.00 0.98 -9.0 0 1 315.82 318.86
  Q 318.41 316.97 319.29 320.25
  C 316.94 326.63 308.32 351.88 312.48 357.95
  Q 317.13 356.67 320.79 351.31
  Q 330.11 337.71 333.09 324.30
  C 333.50 322.45 334.39 319.46 336.82 321.70
  Q 338.65 323.38 339.27 325.78
  C 342.30 337.41 354.05 333.22 359.77 326.54
  A 1.01 0.99 18.4 0 1 360.49 326.19
  Q 361.93 326.13 362.51 324.88
  A 0.98 0.98 0.0 0 1 363.26 324.31
  Q 365.46 323.95 366.04 326.25
  C 364.68 331.99 362.01 339.75 364.60 345.34
  Q 367.20 346.92 369.98 344.72
  C 379.26 337.38 386.70 329.46 389.49 318.21
  C 389.89 316.59 390.77 315.56 392.51 316.07
  A 1.08 1.01 -7.1 0 1 393.06 316.47
  L 394.47 318.55
  Z
  M 434.04 327.75
  Q 433.16 330.38 434.49 332.28
  Q 436.06 334.53 436.30 331.79
  Q 436.59 328.58 435.46 325.50
  C 434.58 322.30 431.25 326.16 434.04 327.75
  Z
  M 426.46 339.00
  C 427.16 345.60 432.70 343.46 434.72 339.47
  A 1.01 1.01 0.0 0 0 434.46 338.24
  Q 431.19 335.54 429.00 331.96
  Q 429.02 331.39 428.88 330.98
  Q 428.27 329.27 427.15 330.71
  Q 424.24 334.45 426.46 339.00
  Z"
/>
</g>
<g fill="#000000">
<path d="
  M 0.00 168.69
  L 0.00 163.69
  Q 2.01 153.46 9.99 143.98
  C 13.55 139.75 11.71 136.06 8.55 132.02
  C -1.38 119.34 8.93 103.17 21.63 98.04
  C 34.61 92.79 41.40 102.29 36.55 114.38
  Q 33.09 123.01 25.95 128.93
  C 25.53 129.27 24.93 129.58 24.93 128.68
  A 1.00 0.97 -25.5 0 1 25.17 128.04
  C 29.63 122.71 36.70 111.62 34.60 104.49
  Q 33.22 99.81 28.04 99.87
  C 21.33 99.95 14.67 105.13 11.15 110.65
  Q 5.79 119.05 9.76 128.75
  Q 9.85 128.98 10.05 129.14
  C 17.18 134.99 28.22 139.05 36.69 133.20
  C 41.94 129.58 45.87 126.89 52.25 126.86
  C 64.74 126.79 73.74 137.45 76.06 149.00
  C 78.37 160.46 77.24 175.06 63.50 177.66
  A 0.99 0.99 0.0 0 0 62.70 178.76
  C 63.85 187.86 60.49 193.82 54.35 200.18
  Q 52.27 202.33 51.38 205.17
  Q 46.09 222.00 31.48 221.70
  C 15.89 221.38 7.54 210.57 7.68 195.50
  Q 7.77 185.23 1.98 176.51
  Q 1.23 175.38 0.00 168.69
  Z
  M 63.32 134.60
  C 57.70 129.71 49.78 130.08 44.30 134.82
  C 39.01 139.39 45.31 149.68 46.60 155.45
  C 48.48 163.81 51.85 172.05 61.99 171.99
  C 68.31 171.95 71.51 168.33 72.66 162.24
  C 74.54 152.23 71.12 141.38 63.32 134.60
  Z
  M 41.82 156.45
  C 39.86 146.47 29.37 140.48 20.06 143.47
  C 8.62 147.15 0.67 161.52 4.32 173.01
  C 6.81 180.83 12.75 189.20 21.93 188.39
  C 38.59 186.94 44.69 171.08 41.82 156.45
  Z
  M 56.92 179.24
  L 48.00 172.22
  A 1.01 1.00 36.2 0 0 46.56 172.44
  Q 40.23 181.57 45.84 189.91
  C 47.61 192.53 50.59 193.75 53.49 192.56
  C 58.18 190.64 58.77 183.91 57.25 179.69
  A 1.04 1.01 9.5 0 0 56.92 179.24
  Z
  M 10.93 193.45
  Q 9.76 195.07 9.94 197.06
  C 10.95 208.15 20.91 220.90 33.32 217.86
  C 49.50 213.89 46.81 196.15 38.38 186.36
  A 1.00 1.00 0.0 0 0 37.07 186.17
  Q 28.13 192.09 17.54 191.21
  C 14.53 190.97 12.63 191.09 10.93 193.45
  Z"
/>
<path d="
  M 140.43 384.39
  L 140.17 384.07
  A 1.00 0.98 70.2 0 0 139.40 383.70
  L 83.81 382.89
  A 3.15 2.11 68.0 0 1 81.65 381.42
  C 80.92 380.28 82.14 379.18 83.28 379.03
  Q 100.55 376.67 118.00 376.62
  A 1.02 1.00 13.7 0 0 118.87 376.10
  Q 119.87 374.29 119.75 371.25
  Q 118.58 341.26 118.21 311.25
  C 118.13 305.37 114.70 298.35 107.66 303.93
  A 0.99 0.99 0.0 0 0 107.29 304.66
  Q 106.88 311.50 105.78 318.26
  C 102.14 340.65 85.69 356.98 63.80 361.82
  Q 50.27 364.80 39.78 357.82
  C 21.28 345.51 31.40 321.26 40.67 307.13
  Q 51.73 290.27 66.31 276.10
  Q 68.46 274.01 67.29 271.24
  C 64.03 263.52 59.91 254.49 58.40 246.92
  C 53.73 223.58 62.75 198.48 73.44 178.36
  C 75.51 174.46 77.30 165.87 82.50 164.88
  C 85.08 164.38 88.50 166.35 90.93 166.60
  Q 102.97 167.89 115.02 166.64
  A 1.02 1.00 9.3 0 0 115.83 166.07
  Q 125.49 145.35 137.98 125.93
  C 146.81 112.21 157.68 98.33 174.76 97.89
  Q 184.74 97.64 187.72 107.00
  C 192.50 121.98 171.54 146.59 160.08 154.24
  C 155.78 157.12 142.68 162.30 140.95 154.27
  C 140.33 151.42 141.52 146.66 142.05 143.33
  Q 142.25 142.08 142.72 142.75
  A 0.77 0.75 32.2 0 1 142.86 143.32
  C 142.27 147.60 140.70 156.78 147.76 156.25
  C 160.15 155.32 180.35 128.64 183.18 117.44
  C 184.57 111.94 183.37 104.24 177.27 102.11
  C 166.26 98.28 152.01 113.47 146.63 121.34
  Q 132.34 142.25 122.26 163.76
  C 120.32 167.91 123.94 168.22 126.81 168.08
  Q 140.77 167.44 154.76 166.82
  Q 156.20 166.75 160.74 163.68
  A 0.98 0.98 0.0 0 1 161.42 163.52
  Q 164.11 163.86 164.14 166.57
  C 164.39 186.97 168.77 206.62 171.46 226.75
  C 175.17 254.65 160.90 280.60 137.12 295.33
  C 130.82 299.23 123.79 300.21 123.74 309.01
  Q 123.57 337.78 125.09 366.51
  Q 125.30 370.53 126.68 374.35
  Q 127.46 376.52 129.75 376.52
  Q 144.73 376.53 159.66 377.74
  A 0.96 0.95 66.5 0 1 160.21 377.96
  C 167.54 383.88 148.23 383.72 146.67 383.78
  A 1.01 0.99 11.6 0 0 145.80 384.34
  C 142.60 390.95 138.17 394.18 130.73 396.07
  Q 114.63 400.17 93.32 402.54
  C 84.14 403.56 78.30 401.77 72.45 395.03
  C 68.04 389.94 63.94 384.83 56.48 385.90
  C 54.03 386.25 52.74 388.04 52.96 390.43
  A 0.52 0.52 0.0 0 1 52.72 390.92
  C 52.29 391.18 51.95 390.63 51.96 390.24
  C 52.10 385.35 55.57 383.39 60.12 383.81
  C 67.41 384.49 72.29 392.85 76.06 395.74
  C 85.69 403.12 116.42 396.14 128.06 393.09
  Q 135.63 391.11 140.42 385.41
  A 0.81 0.80 -44.7 0 0 140.43 384.39
  Z
  M 156.45 174.34
  Q 153.14 173.53 149.75 173.50
  Q 136.65 173.38 123.56 173.93
  C 119.43 174.10 117.42 175.88 115.17 179.50
  Q 108.79 189.78 100.75 198.63
  A 0.99 0.99 0.0 0 0 101.16 200.24
  Q 108.34 202.73 113.78 207.96
  Q 116.01 210.10 117.13 212.97
  A 1.00 1.00 0.0 0 0 118.75 213.34
  Q 122.07 210.19 126.30 208.76
  C 135.35 205.72 146.75 209.18 153.61 215.43
  C 165.09 225.90 166.37 238.65 163.71 253.74
  Q 163.50 254.88 164.33 254.56
  A 1.03 1.00 -4.9 0 0 164.94 253.86
  C 168.43 239.17 166.32 230.37 163.08 212.11
  Q 159.82 193.67 157.20 175.17
  A 0.99 0.99 0.0 0 0 156.45 174.34
  Z
  M 110.83 175.15
  Q 99.26 174.30 87.68 174.52
  C 84.13 174.59 80.94 175.24 79.32 178.32
  C 71.14 193.91 64.12 214.00 63.33 232.50
  Q 62.51 251.56 71.52 268.22
  A 0.99 0.99 0.0 0 0 73.00 268.54
  Q 76.51 265.86 78.87 262.09
  A 1.01 1.00 -35.1 0 0 79.00 261.36
  C 75.91 245.72 76.43 229.23 83.83 215.10
  C 89.77 203.76 100.65 194.96 107.54 183.77
  Q 109.73 180.22 111.64 176.62
  A 1.00 1.00 0.0 0 0 110.83 175.15
  Z
  M 109.81 206.94
  Q 104.00 202.56 98.19 202.22
  A 1.00 0.97 -65.6 0 0 97.42 202.52
  C 81.92 218.49 80.05 235.41 81.79 256.90
  Q 81.96 258.95 83.47 257.56
  Q 98.62 243.58 110.51 225.74
  C 115.01 218.99 117.67 212.85 109.81 206.94
  Z
  M 141.03 210.96
  Q 129.34 206.28 118.30 216.22
  A 1.02 1.02 0.0 0 0 117.98 216.86
  C 116.38 231.84 99.16 249.83 87.33 259.99
  C 80.12 266.18 91.94 274.54 96.51 277.77
  C 102.23 281.82 106.31 287.92 107.94 294.60
  A 0.99 0.99 0.0 0 0 108.85 295.36
  C 134.46 296.90 154.48 278.89 159.51 254.11
  C 162.92 237.31 158.50 217.95 141.03 210.96
  Z
  M 88.06 288.35
  Q 94.28 293.24 102.29 294.86
  A 1.00 1.00 0.0 0 0 103.45 293.60
  C 100.94 284.73 95.65 281.56 88.53 276.34
  C 85.27 273.95 83.40 271.24 81.53 267.87
  A 0.99 0.99 0.0 0 0 79.95 267.66
  L 75.03 272.66
  A 0.99 0.98 51.2 0 0 74.90 273.89
  C 78.38 279.38 83.22 284.54 88.06 288.35
  Z
  M 45.38 357.10
  C 52.14 360.50 58.52 360.79 65.77 358.75
  C 91.88 351.40 103.69 329.69 103.82 303.85
  Q 103.84 301.24 101.29 300.68
  C 88.40 297.89 78.69 289.62 71.18 278.65
  A 1.00 0.99 47.3 0 0 69.58 278.58
  Q 63.80 285.67 57.32 293.06
  C 45.14 306.97 18.84 343.74 45.38 357.10
  Z"
/>
<path d="
  M 119.38 123.31
  L 123.26 114.28
  A 0.99 0.98 6.5 0 1 124.01 113.69
  C 131.09 112.46 126.74 117.42 125.76 119.51
  Q 118.24 135.54 110.84 151.64
  A 0.99 0.96 -2.3 0 1 110.38 152.12
  C 107.22 153.67 106.69 151.71 105.70 149.46
  Q 98.66 133.44 91.74 117.39
  A 1.02 0.99 -1.0 0 0 91.15 116.84
  Q 89.23 116.17 89.96 114.16
  A 1.00 1.00 0.0 0 1 90.90 113.50
  L 94.78 113.50
  A 1.00 1.00 0.0 0 1 95.69 114.08
  Q 102.60 128.98 108.49 144.29
  Q 109.38 146.61 110.35 144.32
  L 116.62 129.43
  A 0.99 0.98 -50.3 0 0 116.54 128.50
  L 108.12 115.27
  Q 107.14 113.73 108.97 113.74
  L 113.52 113.75
  A 1.02 0.99 -9.7 0 1 114.45 114.39
  L 117.90 123.28
  Q 118.61 125.10 119.38 123.31
  Z"
/>
</g>
<g fill="#e0acac">
<path d="
  M 299.79 100.75
  Q 301.27 101.79 300.70 103.79
  Q 300.14 105.76 298.51 107.02
  Q 293.07 111.22 287.45 114.03
  C 285.77 114.87 284.61 114.27 283.75 112.79
  Q 293.52 109.04 299.79 100.75
  Z"
/>
<path d="
  M 292.85 101.34
  C 290.34 102.51 288.92 102.46 286.55 102.89
  Q 265.28 106.71 245.41 113.92
  A 1.00 0.98 85.8 0 0 244.78 114.66
  Q 237.40 149.77 229.35 184.72
  Q 229.06 185.97 228.52 187.66
  C 225.54 188.35 227.75 184.92 227.67 183.80
  Q 227.59 182.77 227.69 182.30
  Q 235.32 147.44 242.88 112.57
  A 1.04 1.01 85.7 0 1 243.48 111.85
  Q 267.10 102.10 292.85 101.34
  Z"
/>
<path d="
  M 491.89 110.55
  Q 493.14 116.83 490.47 123.75
  Q 484.84 138.33 477.62 149.94
  Q 475.93 152.66 475.22 155.51
  Q 464.63 198.25 456.46 241.50
  Q 456.16 241.89 455.82 241.61
  A 0.34 0.33 -75.9 0 1 455.70 241.40
  Q 455.25 237.84 455.54 236.26
  C 459.49 214.73 467.36 178.94 473.57 153.38
  Q 474.23 150.67 475.93 148.05
  Q 487.13 130.77 491.89 110.55
  Z"
/>
<path d="
  M 237.21 114.40
  Q 236.52 115.45 236.79 116.50
  L 235.73 117.30
  Q 235.62 117.39 235.49 117.44
  Q 212.83 126.12 190.21 139.97
  Q 188.69 140.90 188.04 138.44
  Q 210.95 123.07 237.21 114.40
  Z"
/>
<path d="
  M 355.91 121.27
  L 350.91 142.25
  Q 349.79 142.41 349.16 141.52
  A 0.99 0.99 0.0 0 1 349.01 140.71
  L 353.42 122.70
  A 1.00 0.99 -4.0 0 1 354.03 122.00
  L 355.91 121.27
  Z"
/>
<path d="
  M 383.28 147.48
  L 350.04 148.49
  A 1.00 0.99 -83.9 0 0 349.10 149.25
  Q 335.09 206.65 325.74 261.74
  Q 325.36 263.99 326.96 265.67
  A 0.99 0.98 -64.1 0 1 327.23 266.46
  C 327.01 268.56 324.27 274.26 321.96 270.50
  C 323.72 268.89 326.55 264.79 324.94 263.02
  Q 323.69 261.64 324.03 259.71
  Q 333.91 202.86 347.49 146.77
  A 1.01 0.99 -83.9 0 1 348.43 146.00
  Q 366.37 145.52 383.28 147.48
  Z"
/>
<path d="
  M 342.00 147.17
  L 341.40 148.03
  A 1.00 0.99 15.9 0 1 340.62 148.46
  Q 326.03 148.97 311.47 149.50
  C 309.11 149.59 307.63 149.99 306.29 147.58
  Q 324.14 146.55 342.00 147.17
  Z"
/>
<path d="
  M 279.29 167.69
  Q 280.70 172.27 277.22 176.51
  Q 272.08 182.77 267.86 186.62
  C 264.20 189.97 263.49 197.90 263.50 202.54
  L 263.00 202.38
  A 1.00 0.99 8.6 0 1 262.31 201.45
  Q 262.15 193.78 264.26 186.42
  A 1.02 0.99 -13.4 0 1 264.57 185.93
  Q 268.36 182.72 271.63 179.14
  Q 276.35 173.98 279.29 167.69
  Z"
/>
<path d="
  M 356.54 170.25
  C 360.35 174.83 353.52 176.44 352.02 173.63
  Q 355.69 173.14 356.54 170.25
  Z"
/>
<path d="
  M 314.54 172.36
  Q 316.54 175.00 314.58 176.35
  A 1.00 0.98 31.6 0 1 313.87 176.51
  C 312.19 176.28 310.73 175.47 309.04 175.84
  Q 299.30 178.02 298.71 188.50
  L 298.37 188.59
  A 0.65 0.64 -6.2 0 1 297.57 187.95
  Q 297.62 185.75 297.67 183.59
  C 297.82 176.12 304.98 172.93 311.74 174.54
  Q 312.95 174.83 314.54 172.36
  Z"
/>
<path d="
  M 381.54 176.00
  Q 383.30 177.55 382.69 179.44
  Q 376.75 197.62 374.50 213.54
  Q 372.84 210.68 373.45 207.24
  Q 376.28 191.31 381.54 176.00
  Z"
/>
<path d="
  M 437.15 177.13
  C 429.79 180.02 426.41 188.68 424.71 195.50
  L 423.29 196.50
  Q 424.22 185.93 430.55 178.05
  Q 433.58 174.29 437.15 177.13
  Z"
/>
<path d="
  M 353.04 182.25
  L 354.19 184.12
  A 1.07 1.02 -57.0 0 1 354.32 184.82
  L 351.50 200.54
  L 350.64 199.82
  A 0.99 0.98 21.5 0 1 350.28 199.00
  Q 350.75 190.47 353.04 182.25
  Z"
/>
<path d="
  M 440.94 184.51
  L 442.40 197.03
  Q 441.89 195.36 441.19 193.81
  C 439.83 190.84 440.26 187.56 440.94 184.51
  Z"
/>
<path d="
  M 252.35 188.33
  Q 254.28 189.29 252.33 190.59
  Q 251.63 191.05 250.54 191.09
  Q 239.41 191.52 227.93 194.84
  A 0.99 0.98 88.2 0 0 227.23 195.60
  L 215.75 253.71
  Q 214.95 253.49 214.32 252.91
  A 1.01 1.01 0.0 0 1 214.02 252.01
  Q 218.88 222.60 225.34 193.48
  A 1.01 1.00 -1.5 0 1 226.06 192.73
  Q 239.10 189.33 252.35 188.33
  Z"
/>
<path d="
  M 398.06 187.35
  L 398.83 188.97
  A 1.03 1.01 -52.4 0 1 398.91 189.62
  C 396.62 200.23 387.66 216.39 377.36 220.71
  A 1.01 0.99 47.1 0 1 376.51 220.67
  L 372.72 218.68
  Q 378.68 218.77 382.69 213.94
  Q 392.90 201.67 398.06 187.35
  Z"
/>
<path d="
  M 436.56 193.11
  L 428.37 202.73
  Q 426.89 204.47 424.83 204.67
  Q 422.83 204.87 422.04 203.65
  Q 429.60 198.32 434.94 190.72
  Q 436.28 188.81 436.73 191.10
  Q 436.95 192.19 436.56 193.11
  Z"
/>
<path d="
  M 293.96 192.25
  Q 285.66 204.23 275.00 211.00
  Q 269.88 214.25 264.50 210.54
  Q 271.36 211.04 277.57 205.83
  Q 284.73 199.82 291.57 191.05
  Q 293.68 188.34 293.96 192.25
  Z"
/>
<path d="
  M 418.52 190.89
  L 418.50 193.21
  Q 411.05 197.11 404.23 192.59
  Q 411.58 194.08 418.52 190.89
  Z"
/>
<path d="
  M 370.21 194.75
  Q 370.35 195.74 371.21 195.75
  L 370.96 197.25
  L 370.66 197.24
  A 1.03 1.02 -71.3 0 0 369.84 197.65
  C 366.07 202.72 356.66 211.34 350.80 206.98
  Q 361.84 204.41 368.75 195.50
  Q 368.91 195.29 369.16 195.19
  L 370.21 194.75
  Z"
/>
<path d="
  M 328.21 195.00
  L 329.29 197.50
  L 312.89 217.55
  A 0.99 0.99 0.0 0 0 312.68 218.37
  Q 314.78 229.70 308.39 240.15
  Q 303.76 247.73 296.32 246.31
  Q 308.32 240.41 310.79 227.80
  Q 311.75 222.88 311.05 215.91
  A 0.99 0.98 -30.0 0 1 311.24 215.22
  Q 319.11 204.58 328.21 195.00
  Z"
/>
<path d="
  M 220.12 197.66
  Q 206.92 203.21 195.68 212.03
  A 0.98 0.98 0.0 0 1 194.77 212.20
  Q 193.14 211.69 192.68 210.82
  Q 204.47 201.22 218.50 195.44
  Q 221.19 194.34 220.12 197.66
  Z"
/>
<path d="
  M 457.00 200.29
  L 457.29 202.75
  C 454.83 206.68 448.48 212.34 444.00 207.79
  Q 451.95 206.96 456.48 200.43
  C 456.62 200.23 456.78 200.20 457.00 200.29
  Z"
/>
<path d="
  M 456.75 248.71
  C 457.24 251.22 454.46 258.04 451.75 253.29
  C 454.88 253.28 454.49 250.01 456.75 248.71
  Z"
/>
<path d="
  M 294.91 253.96
  Q 296.74 260.76 293.75 268.01
  Q 287.71 282.63 280.77 294.44
  Q 279.02 297.43 278.25 300.56
  Q 267.37 344.89 258.96 389.75
  Q 257.18 390.21 257.46 388.49
  Q 261.29 365.08 267.63 337.19
  Q 267.65 337.13 269.09 331.86
  C 269.93 328.80 270.09 325.47 270.75 322.73
  Q 273.60 310.68 276.49 298.65
  C 277.92 292.71 281.83 287.32 285.25 281.04
  Q 292.46 267.78 294.91 253.96
  Z"
/>
<path d="
  M 217.54 255.25
  L 219.29 257.31
  A 1.02 1.01 33.0 0 1 219.49 258.23
  C 218.75 260.84 215.16 269.97 211.64 264.96
  Q 216.77 261.50 217.54 255.25
  Z"
/>
<path d="
  M 246.72 265.54
  Q 247.92 269.36 246.48 274.49
  Q 239.45 299.72 229.57 320.57
  Q 227.73 324.45 226.94 328.27
  Q 220.98 357.18 217.46 386.50
  Q 216.58 386.72 215.93 385.82
  A 1.03 0.98 31.8 0 1 215.74 385.10
  Q 219.29 356.54 224.73 328.28
  C 226.44 319.44 231.38 311.84 234.61 303.51
  Q 242.54 283.04 245.03 271.99
  Q 246.08 267.35 246.72 265.54
  Z"
/>
<path d="
  M 250.79 310.75
  C 255.01 316.68 244.59 326.41 239.74 330.72
  C 236.77 333.37 236.11 338.52 235.68 342.25
  Q 233.02 339.62 234.88 336.23
  Q 234.96 336.08 234.99 335.92
  L 235.83 331.05
  A 1.00 0.99 -15.9 0 1 236.15 330.48
  C 242.27 324.89 248.85 319.20 250.79 310.75
  Z"
/>
<path d="
  M 370.66 317.22
  C 369.63 319.29 366.22 319.68 365.25 317.29
  Q 367.30 317.54 368.53 316.36
  A 1.00 0.99 -39.1 0 1 370.04 316.51
  Q 370.30 316.88 370.66 317.22
  Z"
/>
<path d="
  M 319.29 320.25
  Q 321.46 321.14 320.69 323.44
  Q 314.87 340.79 312.48 357.95
  C 308.32 351.88 316.94 326.63 319.29 320.25
  Z"
/>
<path d="
  M 216.71 322.13
  Q 203.84 330.51 203.26 346.03
  Q 202.07 345.29 202.07 344.01
  C 202.12 336.12 205.94 324.28 213.68 321.21
  Q 216.87 319.95 216.71 322.13
  Z"
/>
<path d="
  M 366.04 326.25
  Q 366.37 327.21 367.08 327.89
  A 1.01 1.00 29.0 0 1 367.36 328.84
  Q 365.44 336.88 364.60 345.34
  C 362.01 339.75 364.68 331.99 366.04 326.25
  Z"
/>
<path d="
  M 440.79 326.25
  Q 442.72 330.60 441.16 335.66
  Q 439.36 331.08 440.79 326.25
  Z"
/>
<path d="
  M 460.98 327.91
  C 466.27 333.27 447.53 343.50 441.96 341.85
  A 1.01 1.00 24.0 0 0 440.82 342.28
  Q 435.20 351.50 427.44 347.74
  Q 435.34 347.49 438.58 340.62
  A 0.99 0.99 0.0 0 1 439.55 340.05
  C 448.24 340.69 456.54 335.04 460.98 327.91
  Z"
/>
<path d="
  M 400.37 329.43
  Q 392.05 340.91 387.22 354.21
  C 386.32 356.67 384.24 357.52 382.75 354.79
  L 384.47 353.85
  A 1.06 1.03 -5.5 0 0 384.93 353.31
  C 387.87 345.11 391.99 335.11 397.91 328.63
  A 1.01 0.96 -71.8 0 1 398.49 328.32
  Q 400.58 327.98 400.37 329.43
  Z"
/>
<path d="
  M 429.00 331.96
  Q 426.75 335.13 426.46 339.00
  Q 424.24 334.45 427.15 330.71
  Q 428.27 329.27 428.88 330.98
  Q 429.02 331.39 429.00 331.96
  Z"
/>
<path d="
  M 337.18 332.74
  Q 332.73 349.58 320.86 361.61
  Q 318.04 364.47 313.65 364.41
  Q 314.74 363.43 314.19 363.15
  Q 313.76 362.93 314.19 362.69
  Q 318.61 360.24 321.19 357.19
  Q 330.15 346.64 335.18 332.55
  Q 335.88 330.60 336.98 332.36
  Q 337.08 332.53 337.18 332.74
  Z"
/>
<path d="
  M 359.46 335.75
  Q 352.34 340.87 344.25 337.54
  Q 351.86 337.33 358.28 333.50
  Q 359.96 332.49 359.79 334.44
  Q 359.74 335.10 359.46 335.75
  Z"
/>
<path d="
  M 218.11 341.16
  Q 214.37 345.86 210.45 350.37
  Q 206.46 354.97 201.99 351.45
  Q 207.47 350.83 211.19 345.96
  Q 214.10 342.17 216.93 338.34
  Q 218.71 335.93 218.37 338.90
  L 218.11 341.16
  Z"
/>
<path d="
  M 382.60 342.15
  Q 378.80 346.43 374.36 349.64
  C 371.17 351.94 366.64 353.58 363.50 350.54
  Q 368.12 350.60 372.55 347.55
  Q 377.86 343.90 381.59 340.11
  Q 383.69 337.98 382.93 340.88
  L 382.60 342.15
  Z"
/>
<path d="
  M 422.46 342.75
  C 419.29 345.03 416.26 349.92 411.25 346.79
  Q 416.47 344.98 420.11 340.88
  A 1.01 1.01 0.0 0 1 421.67 340.96
  Q 422.24 341.74 422.46 342.75
  Z"
/>
<path d="
  M 257.71 342.50
  Q 256.34 344.23 257.25 346.21
  C 252.55 351.30 244.83 359.46 237.00 354.79
  C 245.81 354.89 251.29 348.55 257.71 342.50
  Z"
/>
<path d="
  M 259.25 391.96
  Q 260.41 392.43 260.95 393.77
  A 0.99 0.95 -41.5 0 1 260.88 394.65
  Q 257.03 401.14 255.13 397.44
  Q 258.09 395.48 259.25 391.96
  Z"
/>
<path d="
  M 219.06 392.43
  Q 220.41 397.47 215.23 398.11
  L 219.06 392.43
  Z"
/>
</g>
<g fill="#906f71" fill-opacity="0.659">
<path d="
  M 245.96 105.75
  L 247.25 106.04
  L 245.20 106.42
  A 0.32 0.32 0.0 0 1 244.83 106.02
  Q 244.98 105.46 245.96 105.75
  Z"
/>
<path d="
  M 237.21 114.40
  Q 238.11 115.14 237.75 116.56
  L 236.79 116.50
  Q 236.52 115.45 237.21 114.40
  Z"
/>
<ellipse cx="0.00" cy="0.00" transform="translate(271.16,172.67) rotate(124.8)" rx="3.03" ry="0.22"/>
<path d="
  M 332.21 195.25
  Q 330.24 195.56 329.29 197.50
  L 328.21 195.00
  L 331.40 191.36
  Q 333.29 189.19 332.79 192.02
  L 332.21 195.25
  Z"
/>
<path d="
  M 418.96 193.25
  L 418.50 193.21
  L 418.52 190.89
  Q 420.36 190.40 418.96 193.25
  Z"
/>
<path d="
  M 371.21 195.75
  Q 370.35 195.74 370.21 194.75
  C 370.27 194.66 371.86 191.39 371.79 193.26
  Q 371.77 193.86 371.21 195.75
  Z"
/>
<path d="
  M 424.71 195.50
  L 425.00 196.04
  L 423.89 197.27
  Q 423.17 198.07 423.18 196.99
  Q 423.18 196.79 423.29 196.50
  L 424.71 195.50
  Z"
/>
<path d="
  M 457.96 202.75
  L 457.29 202.75
  L 457.00 200.29
  L 457.43 199.66
  Q 458.69 197.81 458.36 200.02
  L 457.96 202.75
  Z"
/>
<path d="
  M 306.65 225.94
  Q 302.44 232.04 300.00 238.97
  Q 299.66 239.76 298.52 240.21
  Q 296.48 241.02 297.21 238.95
  Q 300.03 230.93 305.20 224.23
  Q 306.61 222.41 306.64 224.71
  L 306.65 225.94
  Z"
/>
<path d="
  M 239.67 274.38
  L 239.92 274.27
  Q 240.15 274.17 240.05 274.45
  Q 238.72 278.16 239.29 274.86
  A 0.65 0.64 -7.0 0 1 239.67 274.38
  Z"
/>
<rect x="-0.24" y="-5.65" transform="translate(235.99,285.99) rotate(17.7)" width="0.48" height="11.30" rx="0.24"/>
<ellipse cx="0.00" cy="0.00" transform="translate(243.22,316.61) rotate(124.8)" rx="2.91" ry="0.23"/>
<path d="
  M 394.47 318.55
  C 396.28 319.84 394.19 324.13 394.04 326.25
  Q 393.76 326.94 393.20 327.49
  Q 391.02 329.61 391.51 326.61
  Q 392.23 322.28 394.47 318.55
  Z"
/>
<path d="
  M 435.46 325.50
  Q 434.42 326.37 434.04 327.75
  C 431.25 326.16 434.58 322.30 435.46 325.50
  Z"
/>
<path d="
  M 262.53 340.95
  L 257.25 346.21
  Q 256.34 344.23 257.71 342.50
  Q 259.60 339.69 262.25 337.60
  C 262.58 337.34 264.28 333.28 262.84 338.22
  A 0.97 0.92 -46.6 0 0 262.84 338.79
  Q 263.18 339.92 262.53 340.95
  Z"
/>
</g>
</svg>
