<?xml version="1.0" encoding="UTF-8" standalone="no"?>
<!DOCTYPE svg PUBLIC "-//W3C//DTD SVG 1.1//EN" "http://www.w3.org/Graphics/SVG/1.1/DTD/svg11.dtd">
<svg xmlns="http://www.w3.org/2000/svg" version="1.1" viewBox="0 0 500 500">
<g stroke-width="2.00" fill="none" stroke-linecap="butt">
<path stroke="#9e0f05" stroke-opacity="0.847" vector-effect="non-scaling-stroke" d="
  M 253.75 108.54
  L 251.75 109.21"
/>
<path stroke="#9e0f05" stroke-opacity="0.847" vector-effect="non-scaling-stroke" d="
  M 351.21 193.75
  Q 350.17 196.88 351.21 200.00"
/>
<path stroke="#9e0f05" stroke-opacity="0.847" vector-effect="non-scaling-stroke" d="
  M 311.54 219.50
  L 311.54 224.50"
/>
<path stroke="#9e0f05" stroke-opacity="0.847" vector-effect="non-scaling-stroke" d="
  M 440.54 329.00
  L 440.54 334.50"
/>
<path stroke="#9e0f05" stroke-opacity="0.847" vector-effect="non-scaling-stroke" d="
  M 364.21 337.25
  Q 363.18 340.50 364.21 343.75"
/>
<path stroke="#9e0f05" stroke-opacity="0.847" vector-effect="non-scaling-stroke" d="
  M 479.04 132.75
  Q 477.91 137.09 479.50 132.79"
/>
</g>
<g fill="#fe1201">
<path d="
  M 253.75 108.54
  L 251.75 109.21
  L 243.54 111.92
  A 1.02 1.00 -4.2 0 0 242.87 112.68
  Q 235.61 149.80 227.05 186.66
  A 1.00 1.00 0.0 0 0 228.26 187.86
  Q 238.18 185.48 248.24 185.11
  C 250.56 185.02 252.20 186.20 251.23 188.60
  A 1.01 1.01 0.0 0 1 250.33 189.22
  Q 237.92 189.58 226.00 193.02
  A 0.99 0.98 -2.9 0 0 225.30 193.79
  L 213.98 252.62
  A 1.00 1.00 0.0 0 0 215.09 253.80
  Q 216.39 253.64 217.14 254.65
  C 218.73 256.82 215.63 261.80 214.20 263.43
  C 212.06 265.85 209.43 264.29 209.29 261.50
  Q 209.09 257.16 209.40 255.23
  Q 214.11 225.73 220.61 196.46
  Q 221.02 194.59 219.25 195.32
  Q 205.44 200.96 193.79 210.33
  A 0.99 0.97 31.8 0 1 192.95 210.52
  C 189.13 209.67 190.99 207.13 192.77 205.74
  Q 205.79 195.58 221.41 190.13
  A 1.00 0.99 86.9 0 0 222.06 189.40
  Q 229.65 154.21 237.30 119.07
  Q 237.76 116.95 237.89 115.52
  A 1.00 1.00 0.0 0 0 236.55 114.49
  Q 212.02 123.38 189.93 137.21
  C 187.83 138.52 184.63 138.37 186.15 134.81
  A 0.98 0.93 86.5 0 1 186.53 134.36
  C 203.22 123.69 220.21 116.06 238.89 109.14
  A 1.01 0.99 -4.1 0 0 239.52 108.43
  C 239.80 107.19 240.90 96.05 244.73 101.85
  A 1.01 1.00 -56.0 0 1 244.87 102.59
  L 244.31 105.57
  A 1.00 1.00 0.0 0 0 245.61 106.71
  Q 263.82 100.57 282.78 97.48
  C 287.52 96.70 293.24 95.69 297.66 98.07
  Q 300.54 99.61 298.81 102.38
  C 296.04 106.79 289.30 110.40 284.70 112.58
  A 1.02 1.02 0.0 0 1 283.96 112.63
  Q 281.20 111.73 282.59 109.18
  A 0.99 0.97 0.7 0 1 283.03 108.76
  Q 288.65 106.07 293.39 102.07
  Q 295.19 100.56 292.84 100.66
  Q 286.01 100.96 279.26 102.05
  Q 269.46 103.63 253.75 108.54
  Z"
/>
<path d="
  M 351.21 193.75
  Q 350.17 196.88 351.21 200.00
  Q 351.13 201.57 352.32 202.31
  A 1.00 0.96 -37.0 0 0 353.14 202.41
  C 362.44 199.54 369.00 188.31 375.16 181.08
  C 376.91 179.03 376.63 175.07 379.24 174.18
  A 0.99 0.98 54.2 0 1 380.18 174.34
  Q 382.12 175.85 381.01 179.01
  Q 376.84 190.85 374.39 203.17
  Q 373.33 208.50 374.30 213.72
  A 1.01 1.01 0.0 0 0 375.83 214.38
  Q 379.15 212.24 381.61 209.13
  Q 392.46 195.44 395.82 178.27
  A 1.06 1.01 -15.9 0 1 396.15 177.71
  Q 398.27 175.88 399.54 178.46
  C 401.23 181.89 401.82 185.53 405.22 187.78
  C 412.17 192.36 418.46 185.34 423.34 181.70
  Q 423.55 181.55 423.66 181.30
  C 426.97 173.79 437.07 166.39 443.08 176.76
  A 1.02 1.00 -46.7 0 1 443.10 177.72
  C 441.76 180.31 439.98 179.13 438.46 177.50
  C 434.52 173.30 429.90 178.27 427.84 182.12
  Q 424.16 188.98 423.15 195.73
  Q 422.65 199.01 424.88 196.55
  Q 430.31 190.53 434.90 183.85
  C 437.66 179.83 440.22 180.85 440.27 185.63
  Q 440.37 194.27 443.81 201.82
  Q 445.29 205.07 448.10 202.88
  C 455.10 197.44 461.85 185.85 463.76 177.24
  Q 471.03 144.46 476.01 128.26
  C 477.78 122.47 481.65 110.28 487.05 107.04
  Q 489.43 105.60 490.68 108.58
  C 494.40 117.49 481.73 138.58 476.60 147.58
  C 473.74 152.58 472.91 158.02 471.56 163.68
  Q 461.91 203.78 454.33 244.34
  A 1.00 0.98 -60.8 0 0 454.56 245.18
  L 455.58 246.35
  A 1.03 1.00 -62.5 0 1 455.81 247.12
  Q 455.46 250.39 453.56 253.04
  A 1.01 1.00 20.8 0 1 452.64 253.45
  Q 450.11 253.18 449.22 250.42
  Q 449.15 250.19 449.19 249.96
  Q 453.48 223.19 459.44 196.74
  Q 459.51 196.41 459.25 196.50
  L 459.06 196.56
  A 0.18 0.08 -13.3 0 0 458.97 196.63
  C 454.09 205.65 441.85 215.30 437.95 198.20
  Q 437.18 194.83 436.47 191.43
  Q 436.01 189.24 434.68 191.05
  Q 430.37 196.94 426.14 201.11
  C 421.67 205.53 418.81 201.56 418.95 197.08
  Q 419.04 194.47 419.60 191.94
  Q 420.09 189.75 418.13 190.85
  Q 414.87 192.70 410.98 193.19
  Q 406.39 193.78 402.66 191.11
  Q 401.55 190.32 399.28 187.92
  A 1.00 1.00 0.0 0 0 397.61 188.29
  Q 393.33 201.06 385.11 211.64
  C 382.34 215.21 373.81 223.31 370.39 215.49
  Q 369.32 213.05 369.48 210.24
  Q 369.97 201.80 372.04 193.72
  Q 372.82 190.65 370.91 193.17
  Q 366.00 199.65 359.25 204.05
  C 341.81 215.40 346.94 188.30 349.06 181.47
  A 1.02 0.98 -7.9 0 1 349.50 180.91
  C 352.82 178.92 353.30 182.35 352.67 184.61
  Q 351.41 189.09 351.21 193.75
  Z
  M 479.04 132.75
  Q 477.91 137.09 479.50 132.79
  Q 482.92 125.90 486.55 114.56
  Q 486.67 114.19 486.67 113.96
  Q 486.63 112.87 486.17 113.86
  Q 481.86 123.03 479.04 132.75
  Z"
/>
<path d="
  M 311.54 219.50
  L 311.54 224.50
  C 311.00 230.90 304.87 246.08 296.30 245.16
  C 285.30 243.98 303.55 218.75 306.33 215.15
  A 1.01 0.99 -40.2 0 0 306.43 214.08
  Q 302.06 205.62 296.54 196.96
  Q 295.41 195.20 293.95 191.01
  Q 293.35 189.28 292.22 190.73
  Q 284.01 201.26 275.44 207.94
  Q 273.66 209.32 270.77 210.18
  C 260.80 213.15 257.59 203.04 258.38 195.51
  C 259.18 187.77 265.08 165.87 274.39 164.09
  C 278.21 163.36 279.23 167.12 278.03 170.07
  C 275.34 176.67 269.38 181.89 264.64 186.24
  A 1.04 1.02 77.1 0 0 264.34 186.73
  C 262.81 192.75 260.98 199.50 264.45 205.19
  A 1.01 0.96 -1.4 0 0 264.87 205.57
  Q 269.00 207.54 272.69 204.65
  Q 283.69 196.04 292.04 183.77
  C 293.71 181.34 294.49 178.41 295.79 176.51
  Q 300.43 169.74 309.23 170.16
  Q 313.27 170.35 314.44 173.64
  A 1.00 1.00 0.0 0 1 313.34 174.96
  Q 311.31 174.65 309.27 174.42
  C 301.50 173.58 296.93 179.75 297.50 187.26
  Q 297.70 189.85 301.00 195.59
  Q 304.92 202.43 308.84 209.28
  A 1.00 1.00 0.0 0 0 310.48 209.42
  Q 322.13 195.23 334.35 181.50
  Q 335.71 179.97 336.16 177.99
  Q 339.50 163.16 342.98 147.86
  A 1.00 1.00 0.0 0 0 341.91 146.64
  Q 333.39 147.45 324.48 147.30
  C 318.78 147.20 312.49 147.89 306.26 147.61
  A 1.00 0.99 71.0 0 1 305.55 147.26
  C 302.45 143.69 306.33 143.29 308.64 143.26
  Q 326.07 142.99 343.49 142.50
  A 1.02 1.01 6.2 0 0 344.43 141.75
  Q 347.26 130.74 350.11 119.79
  Q 350.96 116.53 354.19 118.84
  A 1.01 1.01 0.0 0 1 354.58 119.91
  L 349.06 141.10
  A 1.01 1.00 6.5 0 0 350.06 142.35
  Q 376.06 141.69 401.50 141.69
  C 403.85 141.69 423.23 140.97 420.09 146.73
  A 1.01 1.00 -78.8 0 1 419.33 147.24
  Q 417.34 147.49 415.59 146.53
  Q 415.37 146.41 415.13 146.40
  Q 381.93 145.92 348.73 146.61
  A 1.00 1.00 0.0 0 0 347.78 147.38
  Q 336.81 192.06 328.35 237.27
  Q 324.96 255.35 324.23 260.75
  Q 324.02 262.28 325.52 263.57
  A 1.00 0.99 -60.2 0 1 325.81 264.65
  L 324.09 269.70
  A 1.01 1.01 0.0 0 1 322.94 270.36
  C 317.60 269.27 319.67 262.78 320.27 259.10
  Q 325.87 224.98 333.30 191.20
  Q 334.01 187.99 331.91 190.52
  Q 322.98 201.23 313.81 212.07
  Q 310.73 215.71 311.54 219.50
  Z
  M 268.3688 176.5717
  A 4.53 0.54 125.2 0 0 271.4213 173.1813
  A 4.53 0.54 125.2 0 0 273.5912 169.1683
  A 4.53 0.54 125.2 0 0 270.5387 172.5587
  A 4.53 0.54 125.2 0 0 268.3688 176.5717
  Z
  M 305.41 223.34
  Q 300.51 230.81 297.23 238.72
  Q 297.03 239.21 297.00 239.61
  Q 296.82 241.98 298.64 240.45
  Q 306.40 233.92 307.25 223.97
  Q 307.58 220.03 305.41 223.34
  Z"
/>
<ellipse cx="0.00" cy="0.00" transform="translate(353.46,170.85) rotate(-25.3)" rx="3.18" ry="2.37"/>
<path d="
  M 250.51 310.57
  C 250.66 317.86 241.61 325.89 236.61 330.19
  A 1.02 0.99 77.7 0 0 236.30 330.69
  C 234.76 336.25 233.51 341.68 235.03 346.27
  C 239.90 360.98 261.53 331.75 264.61 327.19
  Q 266.21 324.83 266.88 321.83
  C 271.07 303.25 275.49 283.69 281.27 266.30
  Q 283.21 260.46 286.85 254.51
  C 288.46 251.88 292.61 248.51 294.20 253.29
  Q 295.00 255.70 294.40 258.16
  C 291.56 269.84 286.37 279.83 280.63 290.08
  Q 278.51 293.87 277.48 297.62
  C 269.27 327.63 262.73 360.38 257.71 388.31
  A 1.00 0.98 -60.8 0 0 257.94 389.15
  C 260.16 391.66 258.38 395.13 256.32 397.01
  A 0.97 0.97 0.0 0 1 255.61 397.27
  C 251.81 397.13 252.83 390.93 253.24 388.53
  Q 257.60 363.28 263.21 338.26
  Q 263.95 334.98 261.81 337.58
  Q 257.03 343.39 251.49 348.51
  Q 245.96 353.62 242.16 354.60
  C 235.13 356.41 230.53 350.23 230.26 343.11
  C 229.85 332.67 235.38 316.53 243.47 309.53
  Q 247.43 306.10 250.32 309.99
  A 0.99 0.98 27.2 0 1 250.51 310.57
  Z
  M 290.1271 258.3646
  A 0.52 0.52 0.0 0 0 289.8280 257.6928
  L 289.8093 257.6857
  A 0.52 0.52 0.0 0 0 289.1375 257.9848
  L 281.5329 277.7954
  A 0.52 0.52 0.0 0 0 281.8320 278.4672
  L 281.8507 278.4743
  A 0.52 0.52 0.0 0 0 282.5225 278.1752
  L 290.1271 258.3646
  Z
  M 240.1999 320.8214
  A 4.65 0.50 125.8 0 0 243.3255 317.3425
  A 4.65 0.50 125.8 0 0 245.6401 313.2786
  A 4.65 0.50 125.8 0 0 242.5145 316.7575
  A 4.65 0.50 125.8 0 0 240.1999 320.8214
  Z"
/>
<path d="
  M 215.51 388.50
  L 215.33 388.79
  A 0.33 0.33 0.0 0 0 215.50 389.27
  C 223.30 392.11 211.35 402.38 211.41 391.87
  Q 211.44 385.95 212.40 378.93
  Q 215.71 354.60 219.43 334.96
  Q 219.62 333.98 218.89 334.66
  Q 218.78 334.75 218.68 334.93
  Q 215.13 341.02 211.41 346.00
  Q 209.68 348.33 207.28 349.96
  C 200.30 354.71 197.27 346.14 197.97 340.50
  C 199.00 332.38 206.30 315.31 216.79 316.85
  Q 220.05 317.33 220.97 320.05
  Q 221.93 322.89 222.52 319.95
  C 223.42 315.36 236.41 254.00 245.19 263.06
  C 250.28 268.31 232.24 309.83 228.74 316.95
  Q 225.84 322.84 224.51 330.50
  Q 218.70 363.95 216.42 380.93
  Q 216.05 383.66 216.29 387.98
  A 0.27 0.27 0.0 0 1 216.02 388.26
  L 215.75 388.25
  A 0.40 0.09 -59.2 0 0 215.51 388.50
  Z
  M 240.8750 272.1630
  A 0.39 0.39 0.0 0 0 240.6237 271.6720
  L 240.5857 271.6597
  A 0.39 0.39 0.0 0 0 240.0947 271.9110
  L 232.0050 296.9570
  A 0.39 0.39 0.0 0 0 232.2563 297.4480
  L 232.2943 297.4603
  A 0.39 0.39 0.0 0 0 232.7853 297.2090
  L 240.8750 272.1630
  Z
  M 215.93 320.94
  C 207.24 321.58 200.26 338.93 202.76 346.13
  A 1.00 1.00 0.0 0 0 203.77 346.80
  C 207.19 346.59 215.92 331.94 218.27 327.91
  A 1.03 1.00 53.5 0 0 218.37 327.16
  L 216.97 321.69
  A 1.00 0.99 -8.9 0 0 215.93 320.94
  Z"
/>
<ellipse cx="0.00" cy="0.00" transform="translate(366.48,314.83) rotate(-26.8)" rx="3.19" ry="2.40"/>
<path d="
  M 440.54 329.00
  L 440.54 334.50
  Q 440.02 335.09 440.34 335.65
  A 0.62 0.62 0.0 0 0 440.83 335.97
  C 447.22 336.63 453.61 331.43 457.51 326.45
  A 0.99 0.99 0.0 0 1 458.27 326.07
  Q 460.64 325.99 460.74 328.62
  A 1.00 0.98 65.1 0 1 460.49 329.33
  C 454.25 336.27 449.29 340.95 439.72 340.28
  A 1.00 1.00 0.0 0 0 438.73 340.89
  C 437.13 344.65 433.73 347.55 429.51 347.29
  Q 424.20 346.96 421.92 340.91
  Q 421.23 339.09 420.15 340.71
  Q 417.17 345.17 411.82 346.43
  A 1.02 1.01 -39.4 0 1 411.20 346.37
  C 404.35 343.44 403.25 335.14 400.75 329.03
  Q 399.76 326.63 398.08 328.60
  C 392.05 335.68 388.22 345.02 384.88 353.65
  A 1.05 1.03 -0.9 0 1 384.32 354.22
  Q 382.12 355.11 380.95 352.95
  A 1.01 0.98 37.6 0 1 380.85 352.26
  L 383.43 340.09
  Q 384.12 336.79 382.02 339.42
  Q 378.27 344.10 372.72 347.71
  C 367.98 350.81 360.96 352.83 359.86 344.73
  Q 359.11 339.17 360.07 333.79
  Q 360.48 331.46 358.74 333.06
  Q 356.88 334.77 354.48 335.78
  Q 343.56 340.40 336.82 331.71
  Q 335.86 330.46 335.42 331.98
  Q 331.07 347.18 320.21 358.70
  C 318.31 360.72 313.92 363.78 310.93 362.54
  C 301.86 358.79 312.57 327.21 315.05 320.41
  C 315.92 318.00 317.23 317.46 319.57 319.29
  A 1.00 0.99 29.7 0 1 319.89 320.44
  Q 313.96 335.54 311.55 351.55
  Q 310.98 355.34 311.50 356.50
  Q 313.14 360.14 315.82 357.18
  Q 329.80 341.72 333.48 322.48
  Q 333.85 320.57 335.98 321.06
  A 1.02 1.00 -12.4 0 1 336.55 321.42
  C 338.14 323.48 338.55 326.10 339.55 327.84
  C 346.00 339.12 355.40 330.14 362.13 325.14
  C 364.86 323.11 366.45 325.26 365.76 327.97
  Q 364.59 332.54 364.21 337.25
  Q 363.18 340.50 364.21 343.75
  Q 364.02 345.42 365.30 346.33
  A 1.02 1.01 -35.7 0 0 366.17 346.47
  C 373.46 344.22 381.45 334.37 385.57 328.23
  C 387.88 324.78 388.70 320.91 389.91 316.93
  A 1.01 1.00 -4.3 0 1 390.44 316.32
  C 393.42 314.92 394.02 317.62 393.41 319.77
  Q 392.29 323.69 391.17 327.61
  Q 390.03 331.60 392.57 328.31
  Q 394.42 325.93 396.06 324.82
  C 404.47 319.16 407.60 336.31 410.08 340.69
  Q 411.48 343.16 413.71 341.40
  C 419.69 336.69 422.16 325.96 428.79 323.67
  A 0.99 0.94 7.6 0 0 429.27 323.32
  C 430.06 322.26 430.53 321.11 431.65 320.39
  C 437.54 316.65 440.78 324.29 440.54 329.00
  Z
  M 433.92 324.05
  Q 432.17 326.22 432.71 328.40
  Q 433.42 331.26 434.82 333.02
  Q 437.00 335.76 436.59 332.28
  L 435.69 324.56
  Q 435.41 322.18 433.92 324.05
  Z
  M 428.17 343.38
  Q 432.99 343.40 434.90 339.26
  A 1.00 1.00 0.0 0 0 434.56 338.02
  Q 430.67 335.34 428.78 331.02
  Q 427.92 329.03 426.97 330.98
  Q 424.25 336.58 427.28 342.81
  A 1.01 1.01 0.0 0 0 428.17 343.38
  Z"
/>
</g>
<g fill="#fefefe">
<path d="
  M 0.00 168.69
  L 0.00 163.94
  Q 1.31 155.62 5.07 150.57
  C 9.04 145.24 14.36 140.07 10.29 134.29
  C 7.78 130.74 5.03 127.56 4.59 122.77
  C 3.48 110.43 16.99 95.33 29.75 96.51
  C 38.59 97.32 39.51 107.70 36.61 114.59
  Q 32.95 123.30 25.56 129.18
  A 0.34 0.32 -62.6 0 1 25.36 129.25
  C 24.84 129.26 24.94 128.61 25.14 128.35
  C 29.11 123.05 34.14 115.58 34.88 108.91
  C 36.98 89.91 4.74 104.00 8.43 124.57
  C 9.99 133.27 25.42 137.94 32.45 135.46
  C 36.43 134.06 40.46 130.00 44.44 128.52
  C 66.91 120.17 79.35 144.92 76.42 163.19
  C 74.99 172.15 71.72 175.13 63.44 177.94
  A 1.00 0.99 76.1 0 0 62.78 179.04
  C 63.90 186.53 61.15 192.68 56.04 198.10
  Q 51.82 202.57 50.01 208.53
  C 46.75 219.29 36.42 223.74 25.75 221.01
  C 12.37 217.57 7.46 207.83 7.63 194.84
  C 7.73 187.16 5.68 183.43 1.56 175.20
  Q 0.84 173.77 0.00 168.69
  Z
  M 64.98 136.02
  C 59.47 129.96 50.47 129.44 44.31 134.86
  C 41.87 137.00 41.56 140.24 42.71 143.41
  Q 45.49 151.11 47.73 158.98
  C 50.32 168.05 55.46 174.23 66.01 171.22
  C 68.42 170.53 71.22 167.98 71.84 165.78
  Q 76.62 148.81 64.98 136.02
  Z
  M 41.23 154.46
  C 38.91 145.87 28.88 141.18 21.17 143.17
  Q 14.44 144.92 8.85 151.90
  Q -0.93 164.12 6.97 178.96
  C 9.88 184.43 14.81 188.54 20.96 188.44
  C 39.10 188.14 45.24 169.30 41.23 154.46
  Z
  M 56.18 178.54
  Q 52.18 175.32 48.10 172.38
  A 1.00 1.00 0.0 0 0 46.74 172.55
  C 37.85 183.35 49.53 201.03 56.72 189.70
  C 58.08 187.55 59.00 180.81 56.18 178.54
  Z
  M 12.46 191.60
  Q 9.82 194.30 10.15 197.48
  C 11.29 208.57 20.79 220.65 33.09 217.87
  C 49.71 214.12 46.67 196.29 38.39 186.33
  A 1.00 1.00 0.0 0 0 37.06 186.14
  Q 31.32 190.02 24.49 191.04
  C 21.03 191.56 16.80 191.10 13.12 191.30
  A 0.99 0.98 20.4 0 0 12.46 191.60
  Z"
/>
<path d="
  M 118.81 376.22
  A 1.01 1.00 -3.4 0 0 119.72 375.20
  L 118.07 310.07
  Q 118.00 307.09 117.08 305.41
  Q 113.73 299.23 107.69 303.93
  A 1.02 1.00 -17.3 0 0 107.30 304.66
  C 106.08 324.24 101.51 340.11 85.16 352.12
  Q 75.20 359.43 63.10 361.88
  C 50.63 364.41 36.59 360.01 31.29 347.91
  C 21.39 325.32 51.12 290.74 66.35 276.11
  Q 68.49 274.05 67.33 271.33
  C 63.56 262.50 59.08 252.67 57.86 243.51
  C 54.76 220.34 63.28 198.18 73.60 177.98
  C 75.50 174.26 77.63 165.68 82.52 164.86
  C 85.13 164.42 88.42 166.36 90.93 166.62
  Q 102.89 167.84 114.85 166.68
  A 1.00 0.99 -79.1 0 0 115.65 166.13
  C 124.39 148.67 133.17 131.09 145.23 115.63
  C 152.25 106.65 160.71 99.63 171.84 97.96
  C 185.53 95.90 190.95 107.17 187.42 119.20
  C 184.02 130.74 172.18 144.19 163.16 151.94
  Q 156.73 157.48 148.25 158.40
  C 137.99 159.53 140.98 149.90 142.12 143.43
  Q 142.26 142.62 142.73 142.88
  A 0.42 0.40 -72.7 0 1 142.94 143.30
  C 142.29 147.59 140.39 157.56 148.80 156.05
  C 155.36 154.87 161.52 149.12 165.80 144.30
  C 171.96 137.37 192.01 114.54 180.02 103.82
  C 171.91 96.58 157.20 108.44 151.76 114.79
  C 139.92 128.60 131.12 145.82 122.53 163.27
  C 120.26 167.87 123.49 168.26 126.89 168.09
  Q 140.41 167.40 153.94 166.91
  Q 156.57 166.82 160.49 163.73
  A 0.98 0.97 28.1 0 1 161.20 163.52
  Q 164.00 163.77 164.05 166.69
  C 164.35 182.79 167.24 198.06 169.61 213.89
  Q 171.87 228.94 172.04 232.67
  C 173.21 258.04 159.33 281.13 138.06 294.46
  Q 133.15 297.53 128.17 300.43
  C 125.39 302.05 123.79 304.45 123.75 307.50
  Q 123.38 333.54 125.21 365.15
  C 125.44 369.17 125.60 372.30 127.39 375.95
  A 1.01 1.00 76.6 0 0 128.29 376.51
  Q 143.12 376.52 157.88 377.81
  Q 164.33 378.38 159.93 382.57
  A 1.04 1.02 -68.5 0 1 159.32 382.84
  L 146.58 383.83
  A 1.03 1.03 0.0 0 0 145.76 384.38
  C 140.51 394.78 133.01 395.87 120.90 398.33
  Q 109.26 400.69 93.06 402.54
  Q 82.99 403.69 76.02 398.61
  C 72.32 395.91 68.99 389.80 64.45 387.32
  C 61.14 385.51 53.04 383.99 52.97 389.96
  A 0.99 0.99 0.0 0 1 52.68 390.66
  C 51.65 391.69 51.95 388.83 52.17 388.35
  Q 54.92 382.17 62.06 384.24
  C 70.98 386.82 72.88 396.68 83.00 398.48
  Q 88.69 399.49 96.52 398.72
  Q 107.96 397.59 125.06 393.82
  Q 134.16 391.82 139.89 386.30
  C 141.23 385.01 140.83 383.46 138.87 383.48
  Q 112.48 383.72 86.10 382.75
  C 84.08 382.68 81.90 383.08 81.46 380.44
  A 1.00 1.00 0.0 0 1 82.28 379.28
  C 94.51 377.24 106.91 377.29 118.81 376.22
  Z
  M 156.37 174.37
  C 147.03 172.11 133.43 173.49 123.68 173.85
  C 119.73 174.00 117.58 175.71 115.41 179.18
  Q 108.68 189.94 100.77 198.68
  A 1.00 1.00 0.0 0 0 101.20 200.30
  C 105.88 201.85 110.56 204.68 113.83 208.01
  Q 115.92 210.14 117.17 212.94
  A 1.00 0.99 57.4 0 0 118.74 213.29
  Q 121.25 211.07 124.21 209.64
  C 131.98 205.89 141.93 207.78 149.05 212.20
  C 163.01 220.86 167.59 236.85 163.86 252.64
  C 163.59 253.77 164.07 256.50 165.02 252.60
  C 167.23 243.60 167.41 236.29 165.65 226.53
  Q 161.06 201.08 157.12 175.19
  A 1.00 1.00 0.0 0 0 156.37 174.37
  Z
  M 110.80 175.15
  Q 99.66 174.34 88.41 174.51
  C 83.25 174.59 80.99 175.14 78.75 179.70
  C 64.82 208.19 56.09 238.77 71.43 268.22
  A 1.01 1.00 57.7 0 0 72.92 268.56
  Q 76.43 265.96 78.84 262.32
  A 1.07 1.03 -33.8 0 0 79.00 261.59
  C 76.17 245.20 76.30 229.75 83.99 214.91
  C 91.29 200.84 104.31 191.15 111.62 176.60
  A 1.00 1.00 0.0 0 0 110.80 175.15
  Z
  M 109.81 206.94
  Q 103.92 202.58 98.21 202.22
  A 1.03 1.02 23.3 0 0 97.43 202.53
  C 86.13 214.19 81.00 228.19 81.14 244.28
  Q 81.20 250.60 81.84 256.92
  Q 82.05 258.93 83.52 257.55
  Q 95.35 246.44 105.47 232.97
  Q 111.99 224.31 113.82 219.75
  Q 116.87 212.16 109.81 206.94
  Z
  M 148.57 215.43
  C 139.15 207.69 126.72 207.23 118.23 216.58
  A 0.96 0.92 71.6 0 0 117.98 217.11
  Q 117.03 223.95 115.41 226.66
  C 108.82 237.70 100.61 248.12 90.92 256.57
  Q 86.99 260.00 86.23 261.23
  C 81.80 268.38 93.31 275.56 99.22 279.78
  C 103.57 282.88 105.68 289.33 108.22 294.76
  A 0.97 0.97 0.0 0 0 109.04 295.33
  C 131.38 297.08 150.94 281.91 157.51 261.34
  C 162.53 245.64 162.52 226.89 148.57 215.43
  Z
  M 74.85 273.90
  C 81.22 283.91 90.63 292.22 102.25 294.99
  A 1.00 1.00 0.0 0 0 103.46 293.81
  C 102.05 287.20 97.92 283.00 92.04 279.10
  Q 85.53 274.80 81.37 267.99
  A 1.00 1.00 0.0 0 0 79.81 267.81
  L 74.99 272.66
  A 1.00 0.99 -38.9 0 0 74.85 273.90
  Z
  M 34.02 337.05
  C 33.19 350.41 44.88 361.70 58.50 360.03
  C 88.23 356.37 103.98 332.41 103.81 303.91
  Q 103.79 301.24 101.19 300.64
  Q 86.55 297.26 76.74 285.53
  Q 73.93 282.18 71.02 278.81
  A 1.00 1.00 0.0 0 0 69.51 278.81
  Q 61.73 287.77 54.12 296.86
  C 45.54 307.11 34.87 323.42 34.02 337.05
  Z"
/>
<path d="
  M 108.57 144.13
  Q 109.48 146.31 110.41 144.13
  L 116.65 129.44
  A 1.03 1.01 -50.4 0 0 116.57 128.51
  L 108.15 115.29
  Q 107.17 113.75 108.99 113.75
  L 113.56 113.75
  A 1.00 0.99 -10.2 0 1 114.49 114.39
  L 117.70 122.90
  Q 118.57 125.22 119.55 122.94
  L 123.39 114.05
  A 1.01 1.00 -78.5 0 1 124.29 113.45
  C 131.08 113.30 126.51 117.89 125.44 120.19
  Q 118.36 135.35 111.35 150.56
  C 110.43 152.55 109.02 153.26 107.07 152.14
  A 1.03 1.03 0.0 0 1 106.66 151.67
  L 91.70 117.36
  A 1.02 1.02 0.0 0 0 91.18 116.84
  Q 89.34 116.04 89.86 114.19
  A 1.00 1.00 0.0 0 1 90.85 113.46
  L 95.06 113.57
  A 0.99 0.99 0.0 0 1 95.96 114.18
  L 108.57 144.13
  Z"
/>
</g>
<g fill="#130b0b" fill-opacity="0.694">
<path d="
  M 285.66 113.69
  C 289.22 111.68 292.47 109.57 295.92 107.40
  Q 297.28 106.54 299.05 104.03
  Q 301.51 100.54 299.95 104.51
  Q 299.51 105.62 298.59 106.37
  Q 293.72 110.35 286.06 114.18
  A 0.28 0.26 52.5 0 1 285.76 114.13
  L 285.56 113.94
  A 0.20 0.13 -34.9 0 1 285.66 113.69
  Z"
/>
<path d="
  M 251.75 109.21
  L 253.75 108.54
  C 253.72 109.92 257.70 108.47 258.71 108.49
  Q 258.95 108.50 259.17 108.39
  Q 261.22 107.36 263.40 106.89
  Q 268.85 105.72 263.58 107.52
  Q 256.06 110.09 252.31 111.06
  Q 244.04 113.18 251.93 110.28
  C 252.61 110.03 252.95 109.24 251.75 109.21
  Z"
/>
<path d="
  M 191.30 138.02
  C 198.78 132.92 208.94 127.24 217.50 123.54
  A 0.41 0.40 -29.7 0 1 217.99 123.67
  C 218.61 124.51 206.21 130.43 204.78 131.05
  Q 200.64 132.86 190.97 138.88
  A 0.26 0.26 0.0 0 1 190.58 138.72
  C 190.48 138.34 191.10 138.16 191.30 138.02
  Z"
/>
<path d="
  M 479.04 132.75
  L 479.50 132.79
  Q 477.91 137.09 479.04 132.75
  Z"
/>
<path d="
  M 276.50 176.00
  L 278.40 172.33
  Q 279.88 169.47 278.88 172.54
  Q 278.22 174.56 276.50 176.00
  Z"
/>
<path d="
  M 276.50 176.00
  L 276.46 176.56
  A 0.97 0.95 70.0 0 1 276.17 177.20
  Q 269.05 184.38 276.50 176.00
  Z"
/>
<path d="
  M 427.50 186.63
  C 427.67 187.44 425.28 188.86 427.03 186.53
  Q 427.38 186.07 427.50 186.63
  Z"
/>
<path d="
  M 252.25 189.31
  L 252.50 188.91
  Q 253.13 187.89 252.88 189.06
  Q 252.69 190.00 251.63 190.23
  A 0.27 0.26 67.5 0 1 251.35 190.11
  Q 251.13 189.75 251.66 189.69
  A 0.82 0.80 11.5 0 0 252.25 189.31
  Z"
/>
<path d="
  M 351.21 193.75
  L 351.21 200.00
  Q 350.17 196.88 351.21 193.75
  Z"
/>
<path d="
  M 278.16 208.07
  Q 277.65 208.81 276.88 209.15
  Q 275.03 209.96 276.61 208.70
  L 278.75 207.02
  Q 279.30 206.58 279.08 207.25
  Q 278.98 207.53 278.57 207.71
  A 0.96 0.94 3.1 0 0 278.16 208.07
  Z"
/>
<ellipse cx="0.00" cy="0.00" transform="translate(273.82,210.56) rotate(-28.8)" rx="2.03" ry="0.31"/>
<path d="
  M 311.54 219.50
  Q 312.52 222.01 311.54 224.50
  L 311.54 219.50
  Z"
/>
<ellipse cx="0.00" cy="0.00" transform="translate(308.62,237.51) rotate(119.5)" rx="1.58" ry="0.23"/>
<ellipse cx="0.00" cy="0.00" transform="translate(304.84,242.86) rotate(134.7)" rx="1.96" ry="0.35"/>
<path d="
  M 215.19 264.43
  C 216.42 262.44 217.53 259.21 218.49 258.16
  Q 219.18 257.39 218.84 258.37
  Q 217.67 261.67 215.87 264.60
  Q 215.31 265.50 214.42 265.57
  Q 212.86 265.69 214.30 265.07
  Q 214.97 264.78 215.19 264.43
  Z"
/>
<rect x="-0.32" y="-4.59" transform="translate(290.66,273.43) rotate(23.9)" width="0.64" height="9.18" rx="0.26"/>
<path d="
  M 440.54 329.00
  Q 442.29 331.77 440.54 334.50
  L 440.54 329.00
  Z"
/>
<path d="
  M 364.21 337.25
  L 364.21 343.75
  Q 363.18 340.50 364.21 337.25
  Z"
/>
</g>
</svg>
