<?xml version="1.0" encoding="UTF-8" standalone="no"?>
<!DOCTYPE svg PUBLIC "-//W3C//DTD SVG 1.1//EN" "http://www.w3.org/Graphics/SVG/1.1/DTD/svg11.dtd">
<svg xmlns="http://www.w3.org/2000/svg" version="1.1" viewBox="0 0 400 400">
<g stroke-width="2.00" fill="none" stroke-linecap="butt">
<path stroke="#7d234f" vector-effect="non-scaling-stroke" d="
  M 131.01 121.48
  A 0.39 0.39 0.0 0 0 130.99 122.03
  L 139.13 131.21
  A 0.39 0.39 0.0 0 0 139.61 131.29
  L 160.77 119.50
  A 0.39 0.39 0.0 0 0 160.89 118.92
  L 150.10 104.68
  A 0.39 0.39 0.0 0 0 149.52 104.63
  L 131.01 121.48"
/>
<path stroke="#1b4b4e" vector-effect="non-scaling-stroke" d="
  M 317.63 164.52
  Q 317.18 172.37 320.43 179.89"
/>
<path stroke="#2b5f66" vector-effect="non-scaling-stroke" d="
  M 320.43 179.89
  Q 323.87 188.47 331.01 193.97
  C 354.58 212.12 390.61 193.94 386.96 163.50"
/>
<path stroke="#1b4b4e" vector-effect="non-scaling-stroke" d="
  M 386.96 163.50
  L 386.71 161.25"
/>
<path stroke="#2b5f66" vector-effect="non-scaling-stroke" d="
  M 386.71 161.25
  Q 385.78 153.82 381.50 147.71"
/>
<path stroke="#1b4b4e" vector-effect="non-scaling-stroke" d="
  M 381.50 147.71
  Q 377.58 141.38 371.31 137.55"
/>
<path stroke="#2b5f66" vector-effect="non-scaling-stroke" d="
  M 371.31 137.55
  C 348.04 123.00 320.67 137.89 317.63 164.52"
/>
<path stroke="#2595a2" vector-effect="non-scaling-stroke" d="
  M 371.31 137.55
  Q 361.58 138.88 357.04 141.02
  C 342.65 147.81 334.92 151.96 321.87 153.82
  C 320.52 154.01 319.88 154.87 320.79 156.08
  A 1.00 1.00 0.0 0 0 321.66 156.47
  L 340.87 155.17
  A 1.03 1.00 -69.6 0 0 341.52 154.86
  Q 347.87 148.25 357.31 151.39
  A 1.03 1.02 -45.4 0 0 357.95 151.38
  Q 368.29 147.82 381.50 147.71"
/>
<path stroke="#2595a2" vector-effect="non-scaling-stroke" d="
  M 386.71 161.25
  Q 385.57 161.86 384.66 158.14
  A 0.99 0.99 0.0 0 0 383.83 157.39
  Q 375.27 156.18 366.68 157.15
  A 1.00 1.00 0.0 0 0 365.93 158.65
  Q 367.75 161.72 367.49 165.39
  A 1.00 1.00 0.0 0 0 368.65 166.45
  L 386.96 163.50"
/>
<path stroke="#2595a2" vector-effect="non-scaling-stroke" d="
  M 320.43 179.89
  Q 327.77 178.99 335.01 178.02
  C 336.32 177.84 337.99 178.23 339.49 177.75
  A 0.80 0.79 -26.7 0 0 339.90 176.52
  Q 339.61 176.12 339.06 175.95
  Q 329.90 173.07 320.39 171.69
  Q 319.34 171.54 318.89 171.14
  Q 318.34 170.66 318.40 170.00
  A 1.01 1.00 -87.2 0 1 319.41 169.08
  L 335.89 169.32
  A 1.00 1.00 0.0 0 0 336.90 168.18
  L 336.48 165.32
  A 1.01 1.01 0.0 0 0 335.35 164.47
  Q 326.62 165.65 317.63 164.52"
/>
<path stroke="#576831" vector-effect="non-scaling-stroke" d="
  M 317.48 134.71
  C 288.43 124.78 254.62 143.49 265.03 177.83
  C 271.80 200.18 298.80 206.13 318.36 198.92
  A 1.00 1.00 0.0 0 0 318.98 197.74
  L 314.80 180.97
  A 1.00 1.00 0.0 0 0 313.49 180.28
  C 303.19 184.01 286.51 183.20 285.39 168.88
  C 283.96 150.58 300.71 150.04 313.60 153.24
  A 1.01 1.00 12.7 0 0 314.83 152.47
  L 318.14 135.85
  A 1.00 1.00 0.0 0 0 317.48 134.71"
/>
<path stroke="#7d234f" vector-effect="non-scaling-stroke" d="
  M 132.50 132.96
  Q 116.42 136.12 110.14 149.92
  Q 100.69 170.71 113.79 190.47"
/>
<path stroke="#65234f" vector-effect="non-scaling-stroke" d="
  M 113.79 190.47
  Q 121.10 198.88 132.00 201.21"
/>
<path stroke="#7d234f" vector-effect="non-scaling-stroke" d="
  M 132.00 201.21
  C 149.59 205.25 166.87 198.84 172.21 180.78
  A 1.00 1.00 0.0 0 0 171.25 179.50
  L 152.53 179.50
  A 1.02 1.01 16.5 0 0 151.68 179.96
  L 150.71 181.50"
/>
<path stroke="#65234f" vector-effect="non-scaling-stroke" d="
  M 150.71 181.50
  Q 147.34 185.02 142.52 185.55"
/>
<path stroke="#7d234f" vector-effect="non-scaling-stroke" d="
  M 142.52 185.55
  Q 128.45 185.30 128.12 171.30"
/>
<path stroke="#65234f" vector-effect="non-scaling-stroke" d="
  M 128.12 171.30
  L 136.17 170.80"
/>
<path stroke="#7d234f" vector-effect="non-scaling-stroke" d="
  M 136.17 170.80
  L 141.00 170.96"
/>
<path stroke="#65234f" vector-effect="non-scaling-stroke" d="
  M 141.00 170.96
  L 144.75 170.96"
/>
<path stroke="#7d234f" vector-effect="non-scaling-stroke" d="
  M 144.75 170.96
  L 172.12 171.10
  A 1.00 0.99 -1.1 0 0 173.13 170.06
  Q 172.95 166.12 172.61 162.21
  C 171.33 147.21 161.91 134.51 146.00 132.54"
/>
<path stroke="#65234f" vector-effect="non-scaling-stroke" d="
  M 146.00 132.54
  L 142.00 132.29"
/>
<path stroke="#7d234f" vector-effect="non-scaling-stroke" d="
  M 142.00 132.29
  L 138.00 132.29"
/>
<path stroke="#65234f" vector-effect="non-scaling-stroke" d="
  M 138.00 132.29
  Q 135.15 131.98 132.50 132.96"
/>
<path stroke="#c1318b" vector-effect="non-scaling-stroke" d="
  M 138.00 132.29
  Q 137.81 133.33 136.54 133.16
  Q 137.96 132.90 138.10 133.74
  A 0.51 0.51 0.0 0 1 137.91 134.24
  C 128.26 141.51 110.96 155.03 125.53 167.78
  A 0.81 0.80 -43.1 0 0 126.54 167.81
  L 126.81 167.61
  A 1.01 1.00 -35.2 0 0 127.05 166.26
  C 118.66 153.53 133.82 140.93 142.09 133.06
  A 0.40 0.40 0.0 0 0 142.15 132.55
  L 142.00 132.29"
/>
<path stroke="#c1318b" vector-effect="non-scaling-stroke" d="
  M 146.00 132.54
  Q 146.23 133.92 145.15 134.92
  A 1.00 0.99 -40.0 0 0 145.03 136.24
  Q 145.91 137.43 145.02 138.44
  Q 144.49 139.05 143.11 139.46
  Q 142.23 139.73 141.34 139.97
  A 1.00 1.00 0.0 0 0 140.83 141.57
  Q 142.83 143.98 140.23 145.93
  A 0.80 0.80 0.0 0 0 140.18 147.17
  L 140.50 147.46"
/>
<path stroke="#65234f" vector-effect="non-scaling-stroke" d="
  M 140.50 147.46
  Q 131.98 148.27 128.87 156.09
  Q 128.56 156.85 129.00 157.46"
/>
<path stroke="#c1318b" vector-effect="non-scaling-stroke" d="
  M 129.00 157.46
  Q 128.81 157.48 128.64 157.55
  A 0.82 0.81 78.7 0 0 128.16 158.28
  Q 128.16 166.98 136.17 170.80"
/>
<path stroke="#c1318b" vector-effect="non-scaling-stroke" d="
  M 128.12 171.30
  Q 124.76 171.95 121.73 169.50
  Q 111.01 160.82 114.25 146.98
  Q 115.15 143.12 118.99 141.33
  A 1.00 1.00 0.0 0 1 119.78 141.31
  L 122.50 142.40
  A 1.00 1.00 0.0 0 0 123.86 141.64
  C 124.46 138.10 126.14 135.87 129.64 134.96
  C 129.69 134.95 135.34 133.10 132.50 132.96"
/>
<path stroke="#c1318b" vector-effect="non-scaling-stroke" d="
  M 144.75 170.96
  Q 144.42 170.66 144.47 170.19
  A 0.82 0.81 16.0 0 0 144.02 169.39
  Q 137.96 166.40 137.98 159.43
  A 1.00 1.00 0.0 0 0 136.91 158.43
  L 133.93 158.64
  A 1.00 1.00 0.0 0 0 133.00 159.70
  Q 133.50 167.74 141.37 170.18
  A 0.32 0.32 0.0 0 1 141.58 170.60
  Q 141.44 170.98 141.00 170.96"
/>
<path stroke="#7d234f" vector-effect="non-scaling-stroke" d="
  M 129.00 157.46
  L 151.34 157.47
  A 1.00 0.99 -5.7 0 0 152.32 156.28
  Q 151.95 154.43 150.69 152.81
  Q 146.76 147.79 140.50 147.46"
/>
<path stroke="#c1318b" vector-effect="non-scaling-stroke" d="
  M 142.52 185.55
  Q 140.79 187.93 136.77 191.52
  Q 132.66 195.19 127.79 195.29
  C 121.78 195.41 116.61 191.28 121.19 184.87
  A 1.01 1.00 -75.2 0 1 121.89 184.46
  L 123.47 184.28
  A 1.01 1.00 89.8 0 1 124.57 185.38
  Q 123.92 191.92 130.64 189.62
  A 1.00 0.97 -82.3 0 0 131.16 189.21
  Q 133.33 185.77 131.32 183.23
  Q 129.85 181.38 126.56 181.02
  Q 122.34 180.55 119.56 182.04
  Q 115.60 184.16 113.79 190.47"
/>
<path stroke="#c1318b" vector-effect="non-scaling-stroke" d="
  M 132.00 201.21
  L 131.90 200.85
  A 0.51 0.51 0.0 0 1 132.50 200.21
  L 136.17 201.00
  A 1.01 0.99 -56.7 0 0 136.96 200.83
  C 143.81 196.00 148.29 189.48 150.71 181.50"
/>
<path stroke="#6b1e1e" vector-effect="non-scaling-stroke" d="
  M 25.71 154.25
  L 17.96 190.25"
/>
<path stroke="#812626" vector-effect="non-scaling-stroke" d="
  M 17.96 190.25
  L 17.71 192.25"
/>
<path stroke="#6b1e1e" vector-effect="non-scaling-stroke" d="
  M 17.71 192.25
  L 15.99 199.03
  A 0.99 0.99 0.0 0 0 16.96 200.27
  L 36.76 200.26
  A 1.00 1.00 0.0 0 0 37.74 199.45
  L 43.44 170.42"
/>
<path stroke="#812626" vector-effect="non-scaling-stroke" d="
  M 43.44 170.42
  C 43.63 167.64 44.26 166.30 44.98 169.40
  Q 46.51 176.01 48.54 182.50"
/>
<path stroke="#6b1e1e" vector-effect="non-scaling-stroke" d="
  M 48.54 182.50
  L 53.36 199.50
  A 1.01 1.00 81.9 0 0 54.32 200.23
  L 67.32 200.30
  A 1.01 1.00 -81.9 0 0 68.28 199.57
  L 73.08 182.86"
/>
<path stroke="#812626" vector-effect="non-scaling-stroke" d="
  M 73.08 182.86
  Q 74.90 175.66 77.89 168.73"
/>
<path stroke="#6b1e1e" vector-effect="non-scaling-stroke" d="
  M 77.89 168.73
  L 84.17 199.45
  A 1.01 1.00 83.9 0 0 85.15 200.25
  L 104.67 200.26
  A 1.01 1.00 -5.6 0 0 105.66 199.06
  L 98.54 163.75"
/>
<path stroke="#812626" vector-effect="non-scaling-stroke" d="
  M 98.54 163.75
  L 92.65 135.05
  A 1.00 1.00 0.0 0 0 91.67 134.25
  L 70.43 134.25
  A 1.02 1.01 -82.0 0 0 69.46 134.99
  L 61.49 163.96
  Q 61.42 164.21 61.48 164.47
  Q 61.58 164.87 61.47 165.25
  Q 61.08 166.67 60.69 165.25
  L 52.34 134.98
  A 1.01 1.01 0.0 0 0 51.37 134.25
  L 30.66 134.25
  A 1.01 1.00 -83.9 0 0 29.68 135.05
  L 25.71 154.25"
/>
<path stroke="#ca2f32" vector-effect="non-scaling-stroke" d="
  M 98.54 163.75
  L 98.51 167.77
  A 0.99 0.99 0.0 0 0 98.80 168.47
  Q 99.27 168.96 99.37 169.55
  A 1.01 1.00 -4.6 0 1 98.37 170.72
  Q 89.40 170.63 80.41 170.63
  C 78.93 170.63 78.63 169.88 77.89 168.73"
/>
<path stroke="#ca2f32" vector-effect="non-scaling-stroke" d="
  M 73.08 182.86
  Q 70.07 182.84 69.78 185.29
  Q 69.63 186.51 69.60 187.85
  A 0.99 0.99 0.0 0 1 68.60 188.82
  L 65.23 188.80
  A 1.00 1.00 0.0 0 0 64.23 189.84
  L 64.32 192.67
  A 1.00 1.00 0.0 0 1 63.38 193.71
  L 58.08 194.02
  A 1.00 1.00 0.0 0 1 57.12 192.60
  Q 57.82 191.12 57.54 189.57
  A 1.01 1.00 -5.1 0 0 56.55 188.75
  L 53.40 188.75
  A 1.00 1.00 0.0 0 1 52.40 187.81
  L 52.19 184.23
  A 1.00 0.99 -76.4 0 0 51.71 183.43
  Q 50.22 182.54 48.54 182.50"
/>
<path stroke="#ca2f32" vector-effect="non-scaling-stroke" d="
  M 43.44 170.42
  L 24.10 170.46
  A 1.00 1.00 0.0 0 1 23.16 169.09
  Q 24.60 165.52 25.07 161.83
  C 25.33 159.79 26.39 157.08 25.71 154.25"
/>
<path stroke="#ca2f32" vector-effect="non-scaling-stroke" d="
  M 17.71 192.25
  Q 18.18 194.93 18.71 193.27
  A 1.01 1.00 -80.6 0 1 19.68 192.57
  L 32.16 192.84
  A 1.00 1.00 0.0 0 0 33.16 192.04
  L 36.08 177.68
  A 1.00 1.00 0.0 0 0 35.14 176.48
  L 26.96 176.18
  A 1.00 0.99 -79.4 0 0 25.98 176.86
  L 24.78 180.41
  A 1.01 1.00 10.5 0 0 25.69 181.73
  L 28.75 181.87
  A 1.00 1.00 0.0 0 1 29.69 183.07
  L 29.01 186.30
  A 1.00 1.00 0.0 0 1 28.07 187.09
  L 19.75 187.36
  A 1.01 0.99 86.7 0 0 18.79 188.45
  Q 18.88 189.56 17.96 190.25"
/>
<path stroke="#864f19" vector-effect="non-scaling-stroke" d="
  M 187.29 167.00
  L 187.29 167.25"
/>
<path stroke="#8a5e18" vector-effect="non-scaling-stroke" d="
  M 187.29 167.25
  L 168.80 198.74
  Q 167.91 200.24 169.66 200.24
  L 190.67 200.27
  A 1.00 1.00 0.0 0 0 191.56 199.73
  L 195.00 193.04"
/>
<path stroke="#864f19" vector-effect="non-scaling-stroke" d="
  M 195.00 193.04
  L 199.50 184.65
  Q 200.38 183.01 201.26 184.65
  L 205.21 192.00"
/>
<path stroke="#8a5e18" vector-effect="non-scaling-stroke" d="
  M 205.21 192.00
  L 209.27 199.67
  A 1.01 0.99 -13.7 0 0 210.16 200.20
  L 221.20 200.17"
/>
<path stroke="#864f19" vector-effect="non-scaling-stroke" d="
  M 221.20 200.17
  L 230.97 200.34
  Q 232.74 200.37 231.86 198.84
  L 213.86 167.74
  A 1.00 1.00 0.0 0 1 213.86 166.74
  L 232.16 135.14
  A 0.65 0.64 -70.8 0 0 231.70 134.18
  Q 231.09 134.10 230.84 134.65"
/>
<path stroke="#8a5e18" vector-effect="non-scaling-stroke" d="
  M 230.84 134.65
  Q 219.78 133.51 208.94 134.88"
/>
<path stroke="#864f19" vector-effect="non-scaling-stroke" d="
  M 208.94 134.88
  L 201.29 149.99
  Q 200.42 151.71 199.51 150.00
  L 195.04 141.50"
/>
<path stroke="#8a5e18" vector-effect="non-scaling-stroke" d="
  M 195.04 141.50
  L 191.59 134.78
  A 1.01 1.01 0.0 0 0 190.69 134.23
  L 169.62 134.38
  Q 167.87 134.40 168.77 135.90
  L 187.29 167.00"
/>
<path stroke="#ef981f" vector-effect="non-scaling-stroke" d="
  M 195.04 141.50
  Q 194.68 141.35 194.34 141.39
  A 0.80 0.79 -4.0 0 0 193.64 142.19
  L 193.71 151.09
  Q 193.72 152.95 192.16 151.94
  C 191.63 151.59 183.10 144.59 183.87 146.91
  Q 185.14 150.79 187.60 155.63
  A 0.80 0.79 -34.1 0 1 187.41 156.59
  C 187.05 156.91 186.17 156.90 185.57 156.71
  Q 184.94 156.51 184.28 156.52
  A 1.01 1.00 -11.4 0 0 183.36 157.90
  Q 184.69 161.15 187.22 165.02
  Q 187.77 165.86 187.29 167.00"
/>
<path stroke="#ef981f" vector-effect="non-scaling-stroke" d="
  M 221.20 200.17
  Q 222.71 198.44 224.72 198.87
  C 227.63 199.50 232.52 199.47 227.87 194.82
  C 226.20 193.14 225.10 188.11 222.48 185.09
  C 220.99 183.37 220.12 180.67 218.76 178.71
  A 1.00 0.99 -8.9 0 0 218.22 178.32
  L 214.85 177.30
  Q 213.05 176.76 213.61 178.56
  Q 215.13 183.42 217.57 187.87
  Q 218.00 188.67 217.40 188.90
  A 0.41 0.40 53.3 0 1 217.01 188.84
  L 208.63 182.46
  Q 207.07 181.27 207.02 183.23
  L 206.80 190.96
  A 0.32 0.32 0.0 0 1 206.32 191.23
  Q 205.83 190.97 205.21 192.00"
/>
<path stroke="#ef981f" vector-effect="non-scaling-stroke" d="
  M 195.00 193.04
  C 192.44 193.83 194.77 191.88 194.21 191.14
  A 0.97 0.22 49.0 0 1 193.87 190.51
  L 193.78 183.26
  Q 193.76 181.32 192.19 182.47
  C 191.20 183.19 183.41 190.23 182.83 188.17
  A 0.83 0.82 -31.9 0 1 183.01 187.42
  L 184.71 185.54
  Q 184.83 185.40 184.90 185.22
  L 187.32 178.75
  A 1.00 0.99 -82.9 0 0 186.28 177.41
  L 184.24 177.63
  Q 182.22 177.85 183.27 176.11
  L 187.53 169.11
  A 1.01 1.00 52.2 0 0 187.63 168.28
  L 187.29 167.25"
/>
<path stroke="#ef981f" vector-effect="non-scaling-stroke" d="
  M 230.84 134.65
  Q 226.20 143.95 224.23 146.99
  Q 221.49 151.20 219.01 155.63
  A 0.99 0.98 -80.1 0 1 218.32 156.12
  L 214.65 156.83
  Q 212.81 157.18 213.53 155.46
  L 216.69 147.95
  Q 217.78 145.36 215.49 146.99
  L 208.85 151.71
  A 1.00 0.99 -21.7 0 1 207.28 151.04
  Q 206.60 146.22 206.74 141.37
  A 1.03 1.02 73.1 0 1 207.15 140.59
  Q 209.92 138.57 208.94 134.88"
/>
<path stroke="#65234f" vector-effect="non-scaling-stroke" d="
  M 257.46 186.50
  L 257.56 135.43
  A 1.00 1.00 0.0 0 0 256.57 134.43
  L 244.50 134.29"
/>
<path stroke="#4c1a45" vector-effect="non-scaling-stroke" d="
  M 244.50 134.29
  L 237.47 134.42
  A 1.00 1.00 0.0 0 0 236.49 135.42
  L 236.52 199.27
  A 1.00 1.00 0.0 0 0 237.52 200.27
  L 256.64 200.26
  A 1.01 1.00 89.7 0 0 257.64 199.24
  L 257.46 186.50"
/>
<path stroke="#902782" vector-effect="non-scaling-stroke" d="
  M 244.50 134.29
  L 244.12 134.44
  A 1.00 1.00 0.0 0 0 243.51 135.48
  L 249.01 186.06
  A 1.00 0.99 85.2 0 0 250.06 186.95
  L 257.46 186.50"
/>
<path stroke="#908a89" vector-effect="non-scaling-stroke" d="
  M 186.94 248.18
  A 14.92 14.92 0.0 0 0 172.02 233.26
  A 14.92 14.92 0.0 0 0 157.10 248.18
  A 14.92 14.92 0.0 0 0 172.02 263.10
  A 14.92 14.92 0.0 0 0 186.94 248.18"
/>
<path stroke="#908a89" vector-effect="non-scaling-stroke" d="
  M 307.29 252.97
  A 0.31 0.31 0.0 0 1 306.71 252.97
  L 299.18 233.91
  A 0.31 0.31 0.0 0 0 298.89 233.71
  L 294.84 233.76
  A 0.31 0.31 0.0 0 0 294.56 234.19
  L 306.61 264.07
  A 0.31 0.31 0.0 0 0 307.18 264.07
  L 319.62 234.18
  A 0.31 0.31 0.0 0 0 319.34 233.75
  L 315.26 233.75
  A 0.31 0.31 0.0 0 0 314.97 233.94
  L 307.29 252.97"
/>
<path stroke="#908a89" vector-effect="non-scaling-stroke" d="
  M 12.52 256.42
  Q 12.43 258.96 12.63 261.58
  A 1.00 1.00 0.0 0 0 13.63 262.50
  L 24.40 262.50
  A 1.00 1.00 0.0 0 0 25.40 261.49
  L 25.37 259.49
  A 1.00 1.00 0.0 0 0 24.37 258.50
  L 17.99 258.50
  A 1.00 0.99 0.3 0 1 16.99 257.50
  L 17.03 234.76
  A 1.01 1.01 0.0 0 0 16.03 233.75
  L 13.49 233.75
  A 1.00 1.00 0.0 0 0 12.49 234.75
  Q 12.52 242.86 12.64 250.96
  Q 12.66 252.02 12.52 256.42"
/>
<path stroke="#908a89" vector-effect="non-scaling-stroke" d="
  M 33.9589 234.1178
  A 0.36 0.36 0.0 0 0 33.6001 233.7565
  L 29.9002 233.7436
  A 0.36 0.36 0.0 0 0 29.5389 234.1024
  L 29.4411 262.1222
  A 0.36 0.36 0.0 0 0 29.7999 262.4835
  L 33.4998 262.4964
  A 0.36 0.36 0.0 0 0 33.8611 262.1376
  L 33.9589 234.1178"
/>
<path stroke="#908a89" vector-effect="non-scaling-stroke" d="
  M 50.41 252.96
  A 0.31 0.31 0.0 0 1 49.83 252.96
  L 42.27 233.94
  A 0.31 0.31 0.0 0 0 41.98 233.75
  L 37.91 233.74
  A 0.31 0.31 0.0 0 0 37.62 234.17
  L 49.73 264.02
  A 0.31 0.31 0.0 0 0 50.30 264.02
  L 62.73 234.18
  A 0.31 0.31 0.0 0 0 62.44 233.75
  L 58.36 233.76
  A 0.31 0.31 0.0 0 0 58.07 233.95
  L 50.41 252.96"
/>
<path stroke="#908a89" vector-effect="non-scaling-stroke" d="
  M 70.80 249.04
  A 0.34 0.34 0.0 0 1 71.14 248.70
  L 81.52 248.86
  A 0.34 0.34 0.0 0 0 81.87 248.53
  L 82.05 245.11
  A 0.34 0.34 0.0 0 0 81.71 244.75
  L 71.09 244.75
  A 0.34 0.34 0.0 0 1 70.75 244.41
  L 70.75 238.09
  A 0.34 0.34 0.0 0 1 71.09 237.75
  L 82.07 237.75
  A 0.34 0.34 0.0 0 0 82.41 237.41
  L 82.36 234.09
  A 0.34 0.34 0.0 0 0 82.02 233.75
  L 66.84 233.75
  A 0.34 0.34 0.0 0 0 66.50 234.09
  L 66.50 262.16
  A 0.34 0.34 0.0 0 0 66.84 262.50
  L 81.85 262.50
  A 0.34 0.34 0.0 0 0 82.19 262.18
  L 82.40 258.84
  A 0.34 0.34 0.0 0 0 82.06 258.48
  L 71.07 258.51
  A 0.34 0.34 0.0 0 1 70.73 258.17
  L 70.80 249.04"
/>
<path stroke="#908a89" vector-effect="non-scaling-stroke" d="
  M 104.05 234.01
  A 0.26 0.26 0.0 0 0 103.79 233.75
  L 99.97 233.75
  A 0.26 0.26 0.0 0 0 99.71 234.01
  L 99.71 262.23
  A 0.26 0.26 0.0 0 0 99.97 262.49
  L 103.79 262.49
  A 0.26 0.26 0.0 0 0 104.05 262.23
  L 104.05 234.01"
/>
<path stroke="#908a89" vector-effect="non-scaling-stroke" d="
  M 118.98 238.09
  A 0.34 0.34 0.0 0 1 119.32 237.75
  L 125.05 237.75
  A 0.34 0.34 0.0 0 0 125.39 237.39
  L 125.22 234.07
  A 0.34 0.34 0.0 0 0 124.88 233.75
  L 108.09 233.75
  A 0.34 0.34 0.0 0 0 107.75 234.09
  L 107.75 237.41
  A 0.34 0.34 0.0 0 0 108.09 237.75
  L 114.16 237.75
  A 0.34 0.34 0.0 0 1 114.50 238.09
  L 114.50 262.16
  A 0.34 0.34 0.0 0 0 114.84 262.50
  L 118.67 262.50
  A 0.34 0.34 0.0 0 0 119.01 262.16
  L 118.98 238.09"
/>
<path stroke="#908a89" vector-effect="non-scaling-stroke" d="
  M 144.16 237.75
  A 0.34 0.34 0.0 0 1 144.50 238.09
  L 144.50 262.37
  A 0.34 0.34 0.0 0 0 144.87 262.71
  L 148.49 262.42
  A 0.34 0.34 0.0 0 0 148.80 262.08
  L 148.72 238.09
  A 0.34 0.34 0.0 0 1 149.06 237.75
  L 155.11 237.75
  A 0.34 0.34 0.0 0 0 155.45 237.40
  L 155.32 234.08
  A 0.34 0.34 0.0 0 0 154.98 233.75
  L 138.09 233.75
  A 0.34 0.34 0.0 0 0 137.75 234.09
  L 137.75 237.41
  A 0.34 0.34 0.0 0 0 138.09 237.75
  L 144.16 237.75"
/>
<path stroke="#908a89" vector-effect="non-scaling-stroke" d="
  M 217.28 247.58
  A 1.00 1.00 0.0 0 1 217.17 246.04
  C 221.00 242.37 217.25 235.88 213.26 234.22
  Q 211.16 233.34 205.15 233.74
  A 1.00 0.99 88.2 0 0 204.22 234.74
  L 204.22 261.48
  A 1.01 1.00 0.9 0 0 205.20 262.48
  Q 211.68 262.64 213.17 262.45
  C 221.29 261.42 224.29 252.51 217.28 247.58"
/>
<path stroke="#908a89" vector-effect="non-scaling-stroke" d="
  M 231.00 238.09
  A 0.34 0.34 0.0 0 1 231.34 237.75
  L 242.16 237.75
  A 0.34 0.34 0.0 0 0 242.50 237.41
  L 242.50 234.09
  A 0.34 0.34 0.0 0 0 242.16 233.75
  L 226.84 233.75
  A 0.34 0.34 0.0 0 0 226.50 234.09
  L 226.50 262.16
  A 0.34 0.34 0.0 0 0 226.84 262.50
  L 242.16 262.50
  A 0.34 0.34 0.0 0 0 242.50 262.16
  L 242.50 258.82
  A 0.34 0.34 0.0 0 0 242.16 258.48
  L 231.34 258.51
  A 0.34 0.34 0.0 0 1 231.00 258.17
  L 231.00 249.04
  A 0.34 0.34 0.0 0 1 231.34 248.70
  L 241.87 248.84
  A 0.34 0.34 0.0 0 0 242.21 248.50
  L 242.26 245.09
  A 0.34 0.34 0.0 0 0 241.92 244.75
  L 231.34 244.75
  A 0.34 0.34 0.0 0 1 231.00 244.41
  L 231.00 238.09"
/>
<path stroke="#908a89" vector-effect="non-scaling-stroke" d="
  M 252.84 258.51
  A 0.34 0.34 0.0 0 1 252.50 258.17
  L 252.50 234.09
  A 0.34 0.34 0.0 0 0 252.16 233.75
  L 248.51 233.75
  A 0.34 0.34 0.0 0 0 248.17 234.09
  L 248.19 262.16
  A 0.34 0.34 0.0 0 0 248.53 262.50
  L 260.41 262.50
  A 0.34 0.34 0.0 0 0 260.75 262.16
  L 260.75 258.81
  A 0.34 0.34 0.0 0 0 260.41 258.47
  L 252.84 258.51"
/>
<path stroke="#908a89" vector-effect="non-scaling-stroke" d="
  M 269.4008 234.0119
  A 0.27 0.27 0.0 0 0 269.1298 233.7428
  L 264.9699 233.7573
  A 0.27 0.27 0.0 0 0 264.7008 234.0283
  L 264.7992 262.2281
  A 0.27 0.27 0.0 0 0 265.0702 262.4972
  L 269.2301 262.4827
  A 0.27 0.27 0.0 0 0 269.4992 262.2117
  L 269.4008 234.0119"
/>
<path stroke="#908a89" vector-effect="non-scaling-stroke" d="
  M 280.50 249.04
  A 0.34 0.34 0.0 0 1 280.85 248.70
  L 291.15 248.88
  A 0.34 0.34 0.0 0 0 291.50 248.54
  L 291.50 245.09
  A 0.34 0.34 0.0 0 0 291.16 244.75
  L 280.84 244.75
  A 0.34 0.34 0.0 0 1 280.50 244.41
  L 280.50 238.09
  A 0.34 0.34 0.0 0 1 280.84 237.75
  L 291.66 237.75
  A 0.34 0.34 0.0 0 0 292.00 237.41
  L 292.01 234.09
  A 0.34 0.34 0.0 0 0 291.67 233.75
  L 276.56 233.75
  A 0.34 0.34 0.0 0 0 276.22 234.09
  L 276.25 262.16
  A 0.34 0.34 0.0 0 0 276.59 262.50
  L 291.66 262.50
  A 0.34 0.34 0.0 0 0 292.00 262.16
  L 292.00 258.84
  A 0.34 0.34 0.0 0 0 291.66 258.50
  L 280.84 258.50
  A 0.34 0.34 0.0 0 1 280.50 258.16
  L 280.50 249.04"
/>
<path stroke="#908a89" vector-effect="non-scaling-stroke" d="
  M 328.09 244.75
  A 0.34 0.34 0.0 0 1 327.75 244.41
  L 327.75 238.09
  A 0.34 0.34 0.0 0 1 328.09 237.75
  L 338.91 237.75
  A 0.34 0.34 0.0 0 0 339.25 237.41
  L 339.25 234.09
  A 0.34 0.34 0.0 0 0 338.91 233.75
  L 323.59 233.75
  A 0.34 0.34 0.0 0 0 323.25 234.09
  L 323.25 262.16
  A 0.34 0.34 0.0 0 0 323.59 262.50
  L 338.91 262.50
  A 0.34 0.34 0.0 0 0 339.25 262.16
  L 339.25 258.84
  A 0.34 0.34 0.0 0 0 338.91 258.50
  L 328.09 258.50
  A 0.34 0.34 0.0 0 1 327.75 258.16
  L 327.75 249.05
  A 0.34 0.34 0.0 0 1 328.10 248.71
  L 338.49 249.08
  A 0.34 0.34 0.0 0 0 338.84 248.75
  L 338.92 245.10
  A 0.34 0.34 0.0 0 0 338.58 244.75
  L 328.09 244.75"
/>
<path stroke="#908a89" vector-effect="non-scaling-stroke" d="
  M 361.00 234.01
  A 0.27 0.27 0.0 0 0 360.73 233.74
  L 356.77 233.74
  A 0.27 0.27 0.0 0 0 356.50 234.01
  L 356.50 262.29
  A 0.27 0.27 0.0 0 0 356.77 262.56
  L 360.73 262.56
  A 0.27 0.27 0.0 0 0 361.00 262.29
  L 361.00 234.01"
/>
<path stroke="#908a89" vector-effect="non-scaling-stroke" d="
  M 375.75 238.09
  A 0.34 0.34 0.0 0 1 376.09 237.75
  L 381.91 237.75
  A 0.34 0.34 0.0 0 0 382.25 237.41
  L 382.25 234.09
  A 0.34 0.34 0.0 0 0 381.91 233.75
  L 365.09 233.75
  A 0.34 0.34 0.0 0 0 364.75 234.09
  L 364.74 237.41
  A 0.34 0.34 0.0 0 0 365.08 237.75
  L 371.16 237.75
  A 0.34 0.34 0.0 0 1 371.50 238.09
  L 371.50 262.16
  A 0.34 0.34 0.0 0 0 371.84 262.50
  L 375.41 262.50
  A 0.34 0.34 0.0 0 0 375.75 262.16
  L 375.75 238.09"
/>
<path stroke="#908a89" vector-effect="non-scaling-stroke" d="
  M 126.29 269.88
  A 1.17 1.17 0.0 0 0 125.12 268.71
  A 1.17 1.17 0.0 0 0 123.95 269.88
  A 1.17 1.17 0.0 0 0 125.12 271.05
  A 1.17 1.17 0.0 0 0 126.29 269.88"
/>
<path stroke="#908a89" vector-effect="non-scaling-stroke" d="
  M 145.26 269.88
  A 1.24 1.24 0.0 0 0 144.02 268.64
  A 1.24 1.24 0.0 0 0 142.78 269.88
  A 1.24 1.24 0.0 0 0 144.02 271.12
  A 1.24 1.24 0.0 0 0 145.26 269.88"
/>
<path stroke="#908a89" vector-effect="non-scaling-stroke" d="
  M 208.28 269.65
  A 1.00 1.00 0.0 0 0 209.02 270.98
  Q 211.06 271.39 210.34 269.24
  A 0.79 0.78 85.1 0 0 209.71 268.70
  Q 208.70 268.54 208.28 269.65"
/>
<path stroke="#908a89" vector-effect="non-scaling-stroke" d="
  M 154.32 274.57
  Q 155.50 274.75 155.95 273.83
  Q 156.50 272.73 155.28 272.91
  Q 152.96 273.26 153.10 271.31
  Q 153.25 269.23 151.75 270.67
  Q 151.21 271.19 151.05 272.00
  A 1.03 1.01 82.9 0 1 150.51 272.71
  Q 147.68 274.11 150.40 274.58
  A 1.00 1.00 0.0 0 1 151.23 275.55
  C 151.28 278.21 149.89 285.50 155.27 283.94
  C 158.11 283.12 154.02 282.31 153.90 282.26
  A 1.01 1.01 0.0 0 1 153.28 281.36
  L 153.17 275.58
  A 1.00 1.00 0.0 0 1 154.32 274.57"
/>
<path stroke="#908a89" vector-effect="non-scaling-stroke" d="
  M 114.09 279.51
  Q 112.90 276.71 111.94 273.82
  C 111.72 273.17 111.01 272.63 110.37 272.84
  A 0.80 0.80 0.0 0 0 109.87 273.89
  L 113.75 283.93
  Q 114.68 286.36 115.62 283.93
  C 115.84 283.36 121.79 270.63 117.99 273.12
  A 0.97 0.94 84.0 0 0 117.59 273.63
  L 115.58 279.46
  Q 114.90 281.43 114.09 279.51"
/>
<path stroke="#908a89" vector-effect="non-scaling-stroke" d="
  M 126.2583 273.6418
  A 0.84 0.84 0.0 0 0 125.4198 272.8003
  L 125.0998 272.7997
  A 0.84 0.84 0.0 0 0 124.2583 273.6383
  L 124.2417 283.1982
  A 0.84 0.84 0.0 0 0 125.0802 284.0397
  L 125.4002 284.0403
  A 0.84 0.84 0.0 0 0 126.2417 283.2017
  L 126.2583 273.6418"
/>
<path stroke="#908a89" vector-effect="non-scaling-stroke" d="
  M 133.59 275.16
  C 134.80 273.67 138.80 275.35 137.11 273.21
  A 1.06 1.03 -12.3 0 0 136.51 272.84
  Q 133.58 272.27 131.73 274.48
  Q 129.74 276.84 132.82 278.40
  L 135.64 279.83
  A 1.02 1.00 4.6 0 1 136.15 280.42
  C 136.99 283.09 133.30 282.49 132.07 282.30
  Q 130.71 282.09 131.43 283.27
  Q 131.77 283.82 132.52 283.97
  Q 134.21 284.30 134.48 284.26
  Q 139.09 283.49 137.65 279.18
  A 0.98 0.96 7.1 0 0 137.22 278.64
  L 133.85 276.65
  A 1.00 0.99 -55.0 0 1 133.59 275.16"
/>
<path stroke="#908a89" vector-effect="non-scaling-stroke" d="
  M 145.1689 273.7614
  A 0.97 0.97 0.0 0 0 144.1904 272.7999
  L 144.1104 272.8006
  A 0.97 0.97 0.0 0 0 143.1489 273.7790
  L 143.2311 283.1986
  A 0.97 0.97 0.0 0 0 144.2096 284.1601
  L 144.2896 284.1594
  A 0.97 0.97 0.0 0 0 145.2511 283.1810
  L 145.1689 273.7614"
/>
<path stroke="#908a89" vector-effect="non-scaling-stroke" d="
  M 173.53 274.30
  A 1.00 0.99 -88.5 0 1 174.46 275.29
  L 174.51 283.09
  A 1.04 1.01 -67.8 0 0 174.78 283.76
  C 177.51 286.69 176.69 278.18 176.66 277.65
  C 176.40 273.42 173.55 271.16 169.77 273.93
  A 1.00 1.00 0.0 0 1 168.53 273.89
  Q 166.26 271.97 163.61 273.54
  A 1.00 0.99 45.3 0 1 162.59 273.53
  L 162.26 273.34
  Q 160.75 272.43 160.75 274.19
  L 160.75 283.15
  A 1.02 0.99 22.8 0 0 161.06 283.87
  C 164.49 287.21 160.09 269.89 167.15 275.23
  A 1.02 1.01 -74.9 0 1 167.54 275.92
  C 167.68 277.20 167.23 284.44 168.80 284.19
  A 0.80 0.80 0.0 0 0 169.47 283.40
  C 169.49 280.12 168.33 273.92 173.53 274.30"
/>
<path stroke="#908a89" vector-effect="non-scaling-stroke" d="
  M 184.18 278.82
  L 189.74 278.72
  A 1.00 1.00 0.0 0 0 190.72 277.73
  Q 190.74 274.22 187.88 273.11
  C 180.23 270.16 177.46 285.92 188.58 283.96
  C 189.20 283.85 191.48 283.01 189.48 282.32
  A 1.07 1.05 45.5 0 0 188.86 282.31
  Q 184.70 283.55 183.28 280.22
  A 1.00 1.00 0.0 0 1 184.18 278.82"
/>
<path stroke="#908a89" vector-effect="non-scaling-stroke" d="
  M 198.23 280.96
  A 1.00 1.00 0.0 0 1 199.88 281.02
  Q 200.73 282.38 201.93 283.56
  Q 202.84 284.46 203.47 283.88
  A 0.64 0.64 0.0 0 0 203.55 283.03
  L 200.71 279.16
  A 1.00 0.99 38.5 0 1 200.59 278.18
  Q 201.48 276.11 203.00 274.40
  C 204.59 272.61 202.57 272.27 201.54 273.62
  Q 200.51 274.97 199.90 275.78
  A 0.99 0.99 0.0 0 1 198.19 275.59
  Q 197.59 274.25 196.49 273.45
  Q 192.87 270.82 195.35 274.54
  L 197.55 277.82
  A 1.02 1.01 -43.9 0 1 197.52 278.97
  C 196.97 279.72 193.35 283.83 195.07 284.23
  A 1.00 1.00 0.0 0 0 196.10 283.85
  L 198.23 280.96"
/>
<path stroke="#908a89" vector-effect="non-scaling-stroke" d="
  M 210.4914 273.5885
  A 0.85 0.85 0.0 0 0 209.6400 272.7400
  L 209.5800 272.7401
  A 0.85 0.85 0.0 0 0 208.7314 273.5915
  L 208.7486 283.3915
  A 0.85 0.85 0.0 0 0 209.6000 284.2400
  L 209.6600 284.2399
  A 0.85 0.85 0.0 0 0 210.5086 283.3885
  L 210.4914 273.5885"
/>
<path stroke="#908a89" vector-effect="non-scaling-stroke" d="
  M 215.99 282.20
  Q 219.62 285.02 223.02 283.78
  Q 224.17 283.36 223.62 282.78
  A 0.79 0.78 -22.8 0 0 223.00 282.53
  Q 215.38 282.94 217.81 275.81
  A 1.04 0.96 -10.6 0 1 218.17 275.33
  Q 219.93 274.03 222.02 274.41
  C 222.85 274.56 224.48 274.47 223.29 273.16
  A 1.01 0.98 69.9 0 0 222.60 272.83
  Q 213.90 272.38 215.62 281.59
  A 1.04 1.01 14.6 0 0 215.99 282.20"
/>
<path stroke="#908a89" vector-effect="non-scaling-stroke" d="
  M 232.7497 284.2161
  A 5.74 5.39 92.1 0 0 238.3464 278.6775
  A 5.74 5.39 92.1 0 0 233.1703 272.7439
  A 5.74 5.39 92.1 0 0 227.5736 278.2825
  A 5.74 5.39 92.1 0 0 232.7497 284.2161"
/>
<path stroke="#908a89" vector-effect="non-scaling-stroke" d="
  M 256.47 274.40
  Q 257.92 274.75 257.08 272.95
  A 0.99 0.99 0.0 0 0 256.07 272.38
  C 244.52 273.67 247.92 286.50 256.61 283.83
  C 256.99 283.71 258.46 282.52 256.78 282.63
  C 247.82 283.24 249.73 272.80 256.47 274.40"
/>
<path stroke="#908a89" vector-effect="non-scaling-stroke" d="
  M 265.8779 284.1830
  A 5.76 5.33 96.5 0 0 271.8257 279.0634
  A 5.76 5.33 96.5 0 0 267.1821 272.7370
  A 5.76 5.33 96.5 0 0 261.2343 277.8566
  A 5.76 5.33 96.5 0 0 265.8779 284.1830"
/>
<path stroke="#908a89" vector-effect="non-scaling-stroke" d="
  M 284.98 273.89
  Q 283.60 272.77 281.90 272.85
  Q 281.78 272.85 279.90 273.58
  Q 278.91 273.97 278.06 273.25
  Q 276.75 272.13 276.75 273.86
  L 276.75 283.04
  A 1.00 0.99 -81.2 0 0 277.44 283.99
  C 279.86 284.78 279.00 277.78 278.99 276.51
  A 0.97 0.95 -28.2 0 1 279.18 275.91
  Q 281.38 272.96 283.53 275.61
  A 1.03 1.01 26.6 0 1 283.75 276.24
  L 283.75 282.96
  A 1.00 1.00 0.0 0 0 284.74 283.96
  L 285.03 283.96
  A 0.80 0.79 0.7 0 0 285.84 283.18
  L 285.93 276.31
  A 1.01 1.00 -21.2 0 1 286.25 275.60
  C 291.89 270.32 290.73 281.55 290.78 283.38
  A 0.64 0.63 -0.5 0 0 291.42 284.00
  L 291.74 284.00
  A 0.99 0.99 0.0 0 0 292.73 283.00
  Q 292.72 280.82 292.76 278.62
  C 292.83 274.52 290.76 270.53 286.21 273.92
  A 1.00 0.99 -43.4 0 1 284.98 273.89"
/>
<path stroke="#908a89" vector-effect="non-scaling-stroke" d="
  M 244.80 282.70
  A 1.36 1.36 0.0 0 0 243.44 281.34
  A 1.36 1.36 0.0 0 0 242.08 282.70
  A 1.36 1.36 0.0 0 0 243.44 284.06
  A 1.36 1.36 0.0 0 0 244.80 282.70"
/>
<path stroke="#c1318b" vector-effect="non-scaling-stroke" d="
  M 148.49 122.30
  L 149.15 121.50
  A 0.95 0.92 -24.8 0 0 149.37 120.93
  Q 149.66 116.19 146.70 112.70
  Q 145.52 111.30 145.29 113.12
  C 145.02 115.34 142.53 118.44 141.25 120.32
  A 1.02 1.01 -31.2 0 0 141.08 121.00
  Q 141.40 123.73 138.85 123.55
  A 1.02 1.01 -78.1 0 0 137.83 124.22
  L 136.96 126.75
  A 1.01 1.00 -51.7 0 0 137.06 127.62
  Q 138.52 129.87 141.13 129.62
  A 1.04 1.03 -75.2 0 0 141.86 129.19
  Q 144.60 125.20 145.17 120.34
  A 0.65 0.64 -0.6 0 1 145.72 119.78
  L 145.97 119.75
  A 0.41 0.41 0.0 0 1 146.44 120.10
  C 146.57 121.05 145.72 126.62 145.74 126.63
  A 0.43 0.42 43.2 0 0 146.17 126.62
  L 148.59 125.07
  A 0.80 0.80 0.0 0 0 148.74 123.85
  L 148.53 123.62
  A 1.00 1.00 0.0 0 1 148.49 122.30"
/>
<path stroke="#2b5f66" vector-effect="non-scaling-stroke" d="
  M 352.8441 181.7398
  A 15.12 14.53 87.9 0 0 366.8102 166.0976
  A 15.12 14.53 87.9 0 0 351.7359 151.5202
  A 15.12 14.53 87.9 0 0 337.7698 167.1624
  A 15.12 14.53 87.9 0 0 352.8441 181.7398"
/>
<path stroke="#2595a2" vector-effect="non-scaling-stroke" d="
  M 360.64 180.73
  L 360.27 180.86
  Q 358.21 181.60 360.34 182.09
  L 379.28 186.46
  A 0.99 0.98 20.0 0 0 380.39 185.95
  L 383.35 180.23
  A 1.02 1.02 0.0 0 0 383.33 179.28
  Q 382.85 178.43 381.66 179.12
  A 1.03 0.97 -55.7 0 1 381.07 179.25
  L 364.22 177.78
  A 1.00 0.99 -64.8 0 0 363.43 178.07
  L 361.01 180.50
  Q 360.85 180.66 360.64 180.73"
/>
<path stroke="#2595a2" vector-effect="non-scaling-stroke" d="
  M 374.71 190.10
  Q 366.85 188.21 359.47 186.66
  Q 351.26 184.94 344.43 186.15
  Q 338.68 187.16 330.04 189.99
  Q 328.10 190.63 329.79 191.77
  L 336.59 196.39
  A 1.02 1.01 -37.7 0 0 337.49 196.50
  C 340.00 195.61 342.78 195.98 344.82 195.67
  Q 358.30 193.65 371.77 191.44
  A 1.04 1.03 -36.3 0 1 372.38 191.53
  Q 373.77 192.23 374.92 191.57
  Q 376.66 190.57 374.71 190.10"
/>
<path stroke="#7eac48" vector-effect="non-scaling-stroke" d="
  M 307.23 140.18
  C 310.41 139.80 307.74 147.01 307.29 148.61
  A 0.99 0.97 32.4 0 0 307.51 149.54
  C 310.05 152.41 312.55 143.07 312.65 141.68
  Q 313.11 135.14 305.80 135.42
  A 1.07 1.03 23.7 0 0 305.23 135.63
  C 301.97 138.13 302.10 143.64 302.25 147.35
  A 1.02 1.01 20.8 0 0 302.56 148.03
  C 305.82 151.16 305.98 142.35 306.39 140.90
  A 1.00 1.00 0.0 0 1 307.23 140.18"
/>
<path stroke="#7eac48" vector-effect="non-scaling-stroke" d="
  M 296.44 139.01
  C 292.71 137.88 295.19 147.43 295.65 148.59
  A 1.00 1.00 0.0 0 0 296.46 149.21
  C 300.94 149.73 298.17 142.05 297.06 139.56
  A 1.02 0.98 85.6 0 0 296.44 139.01"
/>
<path stroke="#7eac48" vector-effect="non-scaling-stroke" d="
  M 277.39 143.43
  A 0.99 0.99 0.0 0 0 277.21 144.32
  Q 278.97 150.69 285.60 154.17
  C 286.70 154.74 287.96 154.67 288.20 153.25
  A 1.03 1.00 -62.6 0 0 287.95 152.42
  L 282.68 146.59
  A 1.02 1.00 33.2 0 1 282.47 145.62
  C 284.05 140.58 288.27 148.61 289.60 150.91
  A 1.03 1.02 82.2 0 0 290.20 151.37
  Q 291.73 151.80 292.81 150.75
  A 1.01 0.99 56.2 0 0 293.02 149.63
  C 290.14 143.06 285.01 133.89 277.39 143.43"
/>
<path stroke="#7eac48" vector-effect="non-scaling-stroke" d="
  M 274.56 154.04
  C 273.51 157.67 286.27 163.23 283.54 157.04
  A 1.02 1.02 0.0 0 0 283.02 156.52
  L 275.93 153.40
  A 1.01 1.01 0.0 0 0 274.56 154.04"
/>
<path stroke="#7eac48" vector-effect="non-scaling-stroke" d="
  M 267.19 164.69
  C 264.40 171.15 269.29 172.84 274.46 172.68
  C 276.22 172.62 283.79 172.05 281.71 168.90
  A 1.01 0.99 -16.7 0 0 280.85 168.45
  L 273.08 168.63
  A 1.02 0.99 59.1 0 1 272.52 168.48
  Q 270.40 167.13 272.23 165.90
  C 274.33 164.49 282.30 167.71 282.43 164.39
  A 1.00 0.99 11.9 0 0 281.79 163.42
  C 278.29 162.04 269.23 159.96 267.19 164.69"
/>
<path stroke="#7eac48" vector-effect="non-scaling-stroke" d="
  M 274.39 179.40
  C 274.36 182.07 281.70 179.04 283.81 178.05
  A 1.02 1.01 -10.3 0 0 284.39 177.22
  C 284.85 171.13 276.07 177.42 274.71 178.68
  A 0.97 0.97 0.0 0 0 274.39 179.40"
/>
<path stroke="#7eac48" vector-effect="non-scaling-stroke" d="
  M 279.69 185.19
  C 274.47 191.52 281.36 198.94 287.18 192.71
  C 288.65 191.14 292.05 186.78 291.71 184.56
  C 290.99 180.00 286.24 188.04 285.81 188.65
  C 283.87 191.45 280.60 189.63 283.27 186.74
  Q 285.28 184.56 287.39 182.43
  A 1.01 1.00 66.5 0 0 287.67 181.71
  C 287.58 176.44 280.94 183.66 279.69 185.19"
/>
<path stroke="#7eac48" vector-effect="non-scaling-stroke" d="
  M 307.86 186.11
  L 309.47 192.39
  A 1.03 0.99 49.7 0 1 309.43 193.01
  C 308.31 195.86 306.57 193.54 306.39 191.90
  Q 306.10 189.24 305.60 186.56
  A 1.01 0.98 -77.2 0 0 305.23 185.95
  C 302.16 183.57 302.59 190.72 302.84 192.22
  C 303.76 197.81 307.04 201.20 312.93 196.99
  A 1.03 1.01 -17.9 0 0 313.35 196.19
  Q 313.44 190.25 310.48 185.23
  A 1.01 0.99 69.9 0 0 309.46 184.75
  L 308.67 184.87
  A 1.00 1.00 0.0 0 0 307.86 186.11"
/>
<path stroke="#7eac48" vector-effect="non-scaling-stroke" d="
  M 298.75 185.62
  C 294.45 182.90 294.28 192.33 294.27 194.23
  A 1.01 1.00 83.8 0 0 295.49 195.22
  C 297.87 194.69 298.90 188.65 299.21 186.61
  A 1.01 1.00 20.4 0 0 298.75 185.62"
/>
<path stroke="#c1318b" vector-effect="non-scaling-stroke" d="
  M 126.18 174.59
  C 119.13 171.73 114.05 173.42 111.02 181.17
  Q 110.98 181.27 110.96 181.39
  Q 110.66 183.46 111.98 182.99
  A 0.99 0.96 1.9 0 0 112.55 182.47
  C 114.57 178.10 119.12 177.47 123.43 177.27
  C 125.02 177.20 130.93 180.51 126.60 174.90
  A 1.04 1.03 81.2 0 0 126.18 174.59"
/>
<path stroke="#ca2f32" vector-effect="non-scaling-stroke" d="
  M 67.93 171.59
  C 66.15 179.51 55.91 180.34 54.40 171.89
  A 1.02 1.01 85.4 0 0 53.43 171.06
  L 49.56 170.97
  A 1.01 1.00 -6.4 0 0 48.56 172.21
  C 52.22 187.08 70.96 187.19 73.63 172.04
  A 1.01 1.00 -84.6 0 0 72.66 170.86
  L 68.92 170.81
  A 1.00 1.00 0.0 0 0 67.93 171.59"
/>
<path stroke="#ef981f" vector-effect="non-scaling-stroke" d="
  M 206.09 174.42
  C 198.36 173.94 192.72 165.41 197.47 158.55
  C 198.36 157.26 197.45 156.53 196.21 157.25
  C 189.41 161.24 188.41 169.52 193.92 174.93
  Q 199.08 179.99 206.74 175.65
  Q 208.43 174.69 206.50 174.46
  Q 206.29 174.44 206.09 174.42"
/>
<path stroke="#ca2f32" vector-effect="non-scaling-stroke" d="
  M 92.86 187.18
  A 0.61 0.61 0.0 0 1 92.27 186.67
  L 91.64 182.84
  A 0.61 0.61 0.0 0 1 92.16 182.14
  L 95.93 181.62
  A 0.61 0.61 0.0 0 0 96.43 180.86
  L 95.27 176.73
  A 0.61 0.61 0.0 0 0 94.69 176.29
  L 85.69 176.23
  A 0.61 0.61 0.0 0 0 85.09 176.96
  L 88.01 192.27
  A 0.61 0.61 0.0 0 0 88.62 192.77
  L 102.84 192.67
  A 0.61 0.61 0.0 0 0 103.44 192.01
  L 103.07 187.95
  A 0.61 0.61 0.0 0 0 102.48 187.40
  L 92.86 187.18"
/>
<path stroke="#908a89" vector-effect="non-scaling-stroke" d="
  M 182.65 248.13
  A 10.61 10.61 0.0 0 0 172.04 237.52
  A 10.61 10.61 0.0 0 0 161.43 248.13
  A 10.61 10.61 0.0 0 0 172.04 258.74
  A 10.61 10.61 0.0 0 0 182.65 248.13"
/>
<path stroke="#908a89" vector-effect="non-scaling-stroke" d="
  M 211.52 237.96
  Q 208.74 236.27 208.74 239.46
  L 208.75 245.21
  A 1.00 0.99 -1.4 0 0 209.80 246.20
  Q 211.68 246.11 212.92 245.05
  C 215.74 242.66 214.33 239.66 211.52 237.96"
/>
<path stroke="#908a89" vector-effect="non-scaling-stroke" d="
  M 213.34 250.19
  Q 211.59 249.62 209.69 249.74
  A 0.99 0.99 0.0 0 0 208.75 250.73
  L 208.75 257.37
  A 1.00 1.00 0.0 0 0 209.75 258.37
  Q 211.24 258.37 212.65 258.18
  C 217.69 257.48 218.32 251.81 213.34 250.19"
/>
<path stroke="#908a89" vector-effect="non-scaling-stroke" d="
  M 187.57 274.67
  Q 184.67 273.46 183.57 275.83
  A 1.00 1.00 0.0 0 0 184.47 277.25
  L 187.73 277.25
  A 1.00 0.99 -0.3 0 0 188.73 276.25
  Q 188.73 275.15 187.57 274.67"
/>
<path stroke="#908a89" vector-effect="non-scaling-stroke" d="
  M 232.8661 282.5084
  A 4.08 3.28 91.6 0 0 236.2587 278.5216
  A 4.08 3.28 91.6 0 0 233.0939 274.3516
  A 4.08 3.28 91.6 0 0 229.7013 278.3384
  A 4.08 3.28 91.6 0 0 232.8661 282.5084"
/>
<path stroke="#908a89" vector-effect="non-scaling-stroke" d="
  M 266.5000 282.5300
  A 4.09 3.28 90.0 0 0 269.7800 278.4400
  A 4.09 3.28 90.0 0 0 266.5000 274.3500
  A 4.09 3.28 90.0 0 0 263.2200 278.4400
  A 4.09 3.28 90.0 0 0 266.5000 282.5300"
/>
</g>
<g fill="#211512">
<path d="
  M 0.00 0.00
  L 400.00 0.00
  L 400.00 400.00
  L 0.00 400.00
  L 0.00 0.00
  Z
  M 131.01 121.48
  A 0.39 0.39 0.0 0 0 130.99 122.03
  L 139.13 131.21
  A 0.39 0.39 0.0 0 0 139.61 131.29
  L 160.77 119.50
  A 0.39 0.39 0.0 0 0 160.89 118.92
  L 150.10 104.68
  A 0.39 0.39 0.0 0 0 149.52 104.63
  L 131.01 121.48
  Z
  M 317.63 164.52
  Q 317.18 172.37 320.43 179.89
  Q 323.87 188.47 331.01 193.97
  C 354.58 212.12 390.61 193.94 386.96 163.50
  L 386.71 161.25
  Q 385.78 153.82 381.50 147.71
  Q 377.58 141.38 371.31 137.55
  C 348.04 123.00 320.67 137.89 317.63 164.52
  Z
  M 317.48 134.71
  C 288.43 124.78 254.62 143.49 265.03 177.83
  C 271.80 200.18 298.80 206.13 318.36 198.92
  A 1.00 1.00 0.0 0 0 318.98 197.74
  L 314.80 180.97
  A 1.00 1.00 0.0 0 0 313.49 180.28
  C 303.19 184.01 286.51 183.20 285.39 168.88
  C 283.96 150.58 300.71 150.04 313.60 153.24
  A 1.01 1.00 12.7 0 0 314.83 152.47
  L 318.14 135.85
  A 1.00 1.00 0.0 0 0 317.48 134.71
  Z
  M 132.50 132.96
  Q 116.42 136.12 110.14 149.92
  Q 100.69 170.71 113.79 190.47
  Q 121.10 198.88 132.00 201.21
  C 149.59 205.25 166.87 198.84 172.21 180.78
  A 1.00 1.00 0.0 0 0 171.25 179.50
  L 152.53 179.50
  A 1.02 1.01 16.5 0 0 151.68 179.96
  L 150.71 181.50
  Q 147.34 185.02 142.52 185.55
  Q 128.45 185.30 128.12 171.30
  L 136.17 170.80
  L 141.00 170.96
  L 144.75 170.96
  L 172.12 171.10
  A 1.00 0.99 -1.1 0 0 173.13 170.06
  Q 172.95 166.12 172.61 162.21
  C 171.33 147.21 161.91 134.51 146.00 132.54
  L 142.00 132.29
  L 138.00 132.29
  Q 135.15 131.98 132.50 132.96
  Z
  M 25.71 154.25
  L 17.96 190.25
  L 17.71 192.25
  L 15.99 199.03
  A 0.99 0.99 0.0 0 0 16.96 200.27
  L 36.76 200.26
  A 1.00 1.00 0.0 0 0 37.74 199.45
  L 43.44 170.42
  C 43.63 167.64 44.26 166.30 44.98 169.40
  Q 46.51 176.01 48.54 182.50
  L 53.36 199.50
  A 1.01 1.00 81.9 0 0 54.32 200.23
  L 67.32 200.30
  A 1.01 1.00 -81.9 0 0 68.28 199.57
  L 73.08 182.86
  Q 74.90 175.66 77.89 168.73
  L 84.17 199.45
  A 1.01 1.00 83.9 0 0 85.15 200.25
  L 104.67 200.26
  A 1.01 1.00 -5.6 0 0 105.66 199.06
  L 98.54 163.75
  L 92.65 135.05
  A 1.00 1.00 0.0 0 0 91.67 134.25
  L 70.43 134.25
  A 1.02 1.01 -82.0 0 0 69.46 134.99
  L 61.49 163.96
  Q 61.42 164.21 61.48 164.47
  Q 61.58 164.87 61.47 165.25
  Q 61.08 166.67 60.69 165.25
  L 52.34 134.98
  A 1.01 1.01 0.0 0 0 51.37 134.25
  L 30.66 134.25
  A 1.01 1.00 -83.9 0 0 29.68 135.05
  L 25.71 154.25
  Z
  M 187.29 167.00
  L 187.29 167.25
  L 168.80 198.74
  Q 167.91 200.24 169.66 200.24
  L 190.67 200.27
  A 1.00 1.00 0.0 0 0 191.56 199.73
  L 195.00 193.04
  L 199.50 184.65
  Q 200.38 183.01 201.26 184.65
  L 205.21 192.00
  L 209.27 199.67
  A 1.01 0.99 -13.7 0 0 210.16 200.20
  L 221.20 200.17
  L 230.97 200.34
  Q 232.74 200.37 231.86 198.84
  L 213.86 167.74
  A 1.00 1.00 0.0 0 1 213.86 166.74
  L 232.16 135.14
  A 0.65 0.64 -70.8 0 0 231.70 134.18
  Q 231.09 134.10 230.84 134.65
  Q 219.78 133.51 208.94 134.88
  L 201.29 149.99
  Q 200.42 151.71 199.51 150.00
  L 195.04 141.50
  L 191.59 134.78
  A 1.01 1.01 0.0 0 0 190.69 134.23
  L 169.62 134.38
  Q 167.87 134.40 168.77 135.90
  L 187.29 167.00
  Z
  M 257.46 186.50
  L 257.56 135.43
  A 1.00 1.00 0.0 0 0 256.57 134.43
  L 244.50 134.29
  L 237.47 134.42
  A 1.00 1.00 0.0 0 0 236.49 135.42
  L 236.52 199.27
  A 1.00 1.00 0.0 0 0 237.52 200.27
  L 256.64 200.26
  A 1.01 1.00 89.7 0 0 257.64 199.24
  L 257.46 186.50
  Z
  M 186.94 248.18
  A 14.92 14.92 0.0 0 0 172.02 233.26
  A 14.92 14.92 0.0 0 0 157.10 248.18
  A 14.92 14.92 0.0 0 0 172.02 263.10
  A 14.92 14.92 0.0 0 0 186.94 248.18
  Z
  M 307.29 252.97
  A 0.31 0.31 0.0 0 1 306.71 252.97
  L 299.18 233.91
  A 0.31 0.31 0.0 0 0 298.89 233.71
  L 294.84 233.76
  A 0.31 0.31 0.0 0 0 294.56 234.19
  L 306.61 264.07
  A 0.31 0.31 0.0 0 0 307.18 264.07
  L 319.62 234.18
  A 0.31 0.31 0.0 0 0 319.34 233.75
  L 315.26 233.75
  A 0.31 0.31 0.0 0 0 314.97 233.94
  L 307.29 252.97
  Z
  M 12.52 256.42
  Q 12.43 258.96 12.63 261.58
  A 1.00 1.00 0.0 0 0 13.63 262.50
  L 24.40 262.50
  A 1.00 1.00 0.0 0 0 25.40 261.49
  L 25.37 259.49
  A 1.00 1.00 0.0 0 0 24.37 258.50
  L 17.99 258.50
  A 1.00 0.99 0.3 0 1 16.99 257.50
  L 17.03 234.76
  A 1.01 1.01 0.0 0 0 16.03 233.75
  L 13.49 233.75
  A 1.00 1.00 0.0 0 0 12.49 234.75
  Q 12.52 242.86 12.64 250.96
  Q 12.66 252.02 12.52 256.42
  Z
  M 33.9589 234.1178
  A 0.36 0.36 0.0 0 0 33.6001 233.7565
  L 29.9002 233.7436
  A 0.36 0.36 0.0 0 0 29.5389 234.1024
  L 29.4411 262.1222
  A 0.36 0.36 0.0 0 0 29.7999 262.4835
  L 33.4998 262.4964
  A 0.36 0.36 0.0 0 0 33.8611 262.1376
  L 33.9589 234.1178
  Z
  M 50.41 252.96
  A 0.31 0.31 0.0 0 1 49.83 252.96
  L 42.27 233.94
  A 0.31 0.31 0.0 0 0 41.98 233.75
  L 37.91 233.74
  A 0.31 0.31 0.0 0 0 37.62 234.17
  L 49.73 264.02
  A 0.31 0.31 0.0 0 0 50.30 264.02
  L 62.73 234.18
  A 0.31 0.31 0.0 0 0 62.44 233.75
  L 58.36 233.76
  A 0.31 0.31 0.0 0 0 58.07 233.95
  L 50.41 252.96
  Z
  M 70.80 249.04
  A 0.34 0.34 0.0 0 1 71.14 248.70
  L 81.52 248.86
  A 0.34 0.34 0.0 0 0 81.87 248.53
  L 82.05 245.11
  A 0.34 0.34 0.0 0 0 81.71 244.75
  L 71.09 244.75
  A 0.34 0.34 0.0 0 1 70.75 244.41
  L 70.75 238.09
  A 0.34 0.34 0.0 0 1 71.09 237.75
  L 82.07 237.75
  A 0.34 0.34 0.0 0 0 82.41 237.41
  L 82.36 234.09
  A 0.34 0.34 0.0 0 0 82.02 233.75
  L 66.84 233.75
  A 0.34 0.34 0.0 0 0 66.50 234.09
  L 66.50 262.16
  A 0.34 0.34 0.0 0 0 66.84 262.50
  L 81.85 262.50
  A 0.34 0.34 0.0 0 0 82.19 262.18
  L 82.40 258.84
  A 0.34 0.34 0.0 0 0 82.06 258.48
  L 71.07 258.51
  A 0.34 0.34 0.0 0 1 70.73 258.17
  L 70.80 249.04
  Z
  M 104.05 234.01
  A 0.26 0.26 0.0 0 0 103.79 233.75
  L 99.97 233.75
  A 0.26 0.26 0.0 0 0 99.71 234.01
  L 99.71 262.23
  A 0.26 0.26 0.0 0 0 99.97 262.49
  L 103.79 262.49
  A 0.26 0.26 0.0 0 0 104.05 262.23
  L 104.05 234.01
  Z
  M 118.98 238.09
  A 0.34 0.34 0.0 0 1 119.32 237.75
  L 125.05 237.75
  A 0.34 0.34 0.0 0 0 125.39 237.39
  L 125.22 234.07
  A 0.34 0.34 0.0 0 0 124.88 233.75
  L 108.09 233.75
  A 0.34 0.34 0.0 0 0 107.75 234.09
  L 107.75 237.41
  A 0.34 0.34 0.0 0 0 108.09 237.75
  L 114.16 237.75
  A 0.34 0.34 0.0 0 1 114.50 238.09
  L 114.50 262.16
  A 0.34 0.34 0.0 0 0 114.84 262.50
  L 118.67 262.50
  A 0.34 0.34 0.0 0 0 119.01 262.16
  L 118.98 238.09
  Z
  M 144.16 237.75
  A 0.34 0.34 0.0 0 1 144.50 238.09
  L 144.50 262.37
  A 0.34 0.34 0.0 0 0 144.87 262.71
  L 148.49 262.42
  A 0.34 0.34 0.0 0 0 148.80 262.08
  L 148.72 238.09
  A 0.34 0.34 0.0 0 1 149.06 237.75
  L 155.11 237.75
  A 0.34 0.34 0.0 0 0 155.45 237.40
  L 155.32 234.08
  A 0.34 0.34 0.0 0 0 154.98 233.75
  L 138.09 233.75
  A 0.34 0.34 0.0 0 0 137.75 234.09
  L 137.75 237.41
  A 0.34 0.34 0.0 0 0 138.09 237.75
  L 144.16 237.75
  Z
  M 217.28 247.58
  A 1.00 1.00 0.0 0 1 217.17 246.04
  C 221.00 242.37 217.25 235.88 213.26 234.22
  Q 211.16 233.34 205.15 233.74
  A 1.00 0.99 88.2 0 0 204.22 234.74
  L 204.22 261.48
  A 1.01 1.00 0.9 0 0 205.20 262.48
  Q 211.68 262.64 213.17 262.45
  C 221.29 261.42 224.29 252.51 217.28 247.58
  Z
  M 231.00 238.09
  A 0.34 0.34 0.0 0 1 231.34 237.75
  L 242.16 237.75
  A 0.34 0.34 0.0 0 0 242.50 237.41
  L 242.50 234.09
  A 0.34 0.34 0.0 0 0 242.16 233.75
  L 226.84 233.75
  A 0.34 0.34 0.0 0 0 226.50 234.09
  L 226.50 262.16
  A 0.34 0.34 0.0 0 0 226.84 262.50
  L 242.16 262.50
  A 0.34 0.34 0.0 0 0 242.50 262.16
  L 242.50 258.82
  A 0.34 0.34 0.0 0 0 242.16 258.48
  L 231.34 258.51
  A 0.34 0.34 0.0 0 1 231.00 258.17
  L 231.00 249.04
  A 0.34 0.34 0.0 0 1 231.34 248.70
  L 241.87 248.84
  A 0.34 0.34 0.0 0 0 242.21 248.50
  L 242.26 245.09
  A 0.34 0.34 0.0 0 0 241.92 244.75
  L 231.34 244.75
  A 0.34 0.34 0.0 0 1 231.00 244.41
  L 231.00 238.09
  Z
  M 252.84 258.51
  A 0.34 0.34 0.0 0 1 252.50 258.17
  L 252.50 234.09
  A 0.34 0.34 0.0 0 0 252.16 233.75
  L 248.51 233.75
  A 0.34 0.34 0.0 0 0 248.17 234.09
  L 248.19 262.16
  A 0.34 0.34 0.0 0 0 248.53 262.50
  L 260.41 262.50
  A 0.34 0.34 0.0 0 0 260.75 262.16
  L 260.75 258.81
  A 0.34 0.34 0.0 0 0 260.41 258.47
  L 252.84 258.51
  Z
  M 269.4008 234.0119
  A 0.27 0.27 0.0 0 0 269.1298 233.7428
  L 264.9699 233.7573
  A 0.27 0.27 0.0 0 0 264.7008 234.0283
  L 264.7992 262.2281
  A 0.27 0.27 0.0 0 0 265.0702 262.4972
  L 269.2301 262.4827
  A 0.27 0.27 0.0 0 0 269.4992 262.2117
  L 269.4008 234.0119
  Z
  M 280.50 249.04
  A 0.34 0.34 0.0 0 1 280.85 248.70
  L 291.15 248.88
  A 0.34 0.34 0.0 0 0 291.50 248.54
  L 291.50 245.09
  A 0.34 0.34 0.0 0 0 291.16 244.75
  L 280.84 244.75
  A 0.34 0.34 0.0 0 1 280.50 244.41
  L 280.50 238.09
  A 0.34 0.34 0.0 0 1 280.84 237.75
  L 291.66 237.75
  A 0.34 0.34 0.0 0 0 292.00 237.41
  L 292.01 234.09
  A 0.34 0.34 0.0 0 0 291.67 233.75
  L 276.56 233.75
  A 0.34 0.34 0.0 0 0 276.22 234.09
  L 276.25 262.16
  A 0.34 0.34 0.0 0 0 276.59 262.50
  L 291.66 262.50
  A 0.34 0.34 0.0 0 0 292.00 262.16
  L 292.00 258.84
  A 0.34 0.34 0.0 0 0 291.66 258.50
  L 280.84 258.50
  A 0.34 0.34 0.0 0 1 280.50 258.16
  L 280.50 249.04
  Z
  M 328.09 244.75
  A 0.34 0.34 0.0 0 1 327.75 244.41
  L 327.75 238.09
  A 0.34 0.34 0.0 0 1 328.09 237.75
  L 338.91 237.75
  A 0.34 0.34 0.0 0 0 339.25 237.41
  L 339.25 234.09
  A 0.34 0.34 0.0 0 0 338.91 233.75
  L 323.59 233.75
  A 0.34 0.34 0.0 0 0 323.25 234.09
  L 323.25 262.16
  A 0.34 0.34 0.0 0 0 323.59 262.50
  L 338.91 262.50
  A 0.34 0.34 0.0 0 0 339.25 262.16
  L 339.25 258.84
  A 0.34 0.34 0.0 0 0 338.91 258.50
  L 328.09 258.50
  A 0.34 0.34 0.0 0 1 327.75 258.16
  L 327.75 249.05
  A 0.34 0.34 0.0 0 1 328.10 248.71
  L 338.49 249.08
  A 0.34 0.34 0.0 0 0 338.84 248.75
  L 338.92 245.10
  A 0.34 0.34 0.0 0 0 338.58 244.75
  L 328.09 244.75
  Z
  M 361.00 234.01
  A 0.27 0.27 0.0 0 0 360.73 233.74
  L 356.77 233.74
  A 0.27 0.27 0.0 0 0 356.50 234.01
  L 356.50 262.29
  A 0.27 0.27 0.0 0 0 356.77 262.56
  L 360.73 262.56
  A 0.27 0.27 0.0 0 0 361.00 262.29
  L 361.00 234.01
  Z
  M 375.75 238.09
  A 0.34 0.34 0.0 0 1 376.09 237.75
  L 381.91 237.75
  A 0.34 0.34 0.0 0 0 382.25 237.41
  L 382.25 234.09
  A 0.34 0.34 0.0 0 0 381.91 233.75
  L 365.09 233.75
  A 0.34 0.34 0.0 0 0 364.75 234.09
  L 364.74 237.41
  A 0.34 0.34 0.0 0 0 365.08 237.75
  L 371.16 237.75
  A 0.34 0.34 0.0 0 1 371.50 238.09
  L 371.50 262.16
  A 0.34 0.34 0.0 0 0 371.84 262.50
  L 375.41 262.50
  A 0.34 0.34 0.0 0 0 375.75 262.16
  L 375.75 238.09
  Z
  M 126.29 269.88
  A 1.17 1.17 0.0 0 0 125.12 268.71
  A 1.17 1.17 0.0 0 0 123.95 269.88
  A 1.17 1.17 0.0 0 0 125.12 271.05
  A 1.17 1.17 0.0 0 0 126.29 269.88
  Z
  M 145.26 269.88
  A 1.24 1.24 0.0 0 0 144.02 268.64
  A 1.24 1.24 0.0 0 0 142.78 269.88
  A 1.24 1.24 0.0 0 0 144.02 271.12
  A 1.24 1.24 0.0 0 0 145.26 269.88
  Z
  M 208.28 269.65
  A 1.00 1.00 0.0 0 0 209.02 270.98
  Q 211.06 271.39 210.34 269.24
  A 0.79 0.78 85.1 0 0 209.71 268.70
  Q 208.70 268.54 208.28 269.65
  Z
  M 154.32 274.57
  Q 155.50 274.75 155.95 273.83
  Q 156.50 272.73 155.28 272.91
  Q 152.96 273.26 153.10 271.31
  Q 153.25 269.23 151.75 270.67
  Q 151.21 271.19 151.05 272.00
  A 1.03 1.01 82.9 0 1 150.51 272.71
  Q 147.68 274.11 150.40 274.58
  A 1.00 1.00 0.0 0 1 151.23 275.55
  C 151.28 278.21 149.89 285.50 155.27 283.94
  C 158.11 283.12 154.02 282.31 153.90 282.26
  A 1.01 1.01 0.0 0 1 153.28 281.36
  L 153.17 275.58
  A 1.00 1.00 0.0 0 1 154.32 274.57
  Z
  M 114.09 279.51
  Q 112.90 276.71 111.94 273.82
  C 111.72 273.17 111.01 272.63 110.37 272.84
  A 0.80 0.80 0.0 0 0 109.87 273.89
  L 113.75 283.93
  Q 114.68 286.36 115.62 283.93
  C 115.84 283.36 121.79 270.63 117.99 273.12
  A 0.97 0.94 84.0 0 0 117.59 273.63
  L 115.58 279.46
  Q 114.90 281.43 114.09 279.51
  Z
  M 126.2583 273.6418
  A 0.84 0.84 0.0 0 0 125.4198 272.8003
  L 125.0998 272.7997
  A 0.84 0.84 0.0 0 0 124.2583 273.6383
  L 124.2417 283.1982
  A 0.84 0.84 0.0 0 0 125.0802 284.0397
  L 125.4002 284.0403
  A 0.84 0.84 0.0 0 0 126.2417 283.2017
  L 126.2583 273.6418
  Z
  M 133.59 275.16
  C 134.80 273.67 138.80 275.35 137.11 273.21
  A 1.06 1.03 -12.3 0 0 136.51 272.84
  Q 133.58 272.27 131.73 274.48
  Q 129.74 276.84 132.82 278.40
  L 135.64 279.83
  A 1.02 1.00 4.6 0 1 136.15 280.42
  C 136.99 283.09 133.30 282.49 132.07 282.30
  Q 130.71 282.09 131.43 283.27
  Q 131.77 283.82 132.52 283.97
  Q 134.21 284.30 134.48 284.26
  Q 139.09 283.49 137.65 279.18
  A 0.98 0.96 7.1 0 0 137.22 278.64
  L 133.85 276.65
  A 1.00 0.99 -55.0 0 1 133.59 275.16
  Z
  M 145.1689 273.7614
  A 0.97 0.97 0.0 0 0 144.1904 272.7999
  L 144.1104 272.8006
  A 0.97 0.97 0.0 0 0 143.1489 273.7790
  L 143.2311 283.1986
  A 0.97 0.97 0.0 0 0 144.2096 284.1601
  L 144.2896 284.1594
  A 0.97 0.97 0.0 0 0 145.2511 283.1810
  L 145.1689 273.7614
  Z
  M 173.53 274.30
  A 1.00 0.99 -88.5 0 1 174.46 275.29
  L 174.51 283.09
  A 1.04 1.01 -67.8 0 0 174.78 283.76
  C 177.51 286.69 176.69 278.18 176.66 277.65
  C 176.40 273.42 173.55 271.16 169.77 273.93
  A 1.00 1.00 0.0 0 1 168.53 273.89
  Q 166.26 271.97 163.61 273.54
  A 1.00 0.99 45.3 0 1 162.59 273.53
  L 162.26 273.34
  Q 160.75 272.43 160.75 274.19
  L 160.75 283.15
  A 1.02 0.99 22.8 0 0 161.06 283.87
  C 164.49 287.21 160.09 269.89 167.15 275.23
  A 1.02 1.01 -74.9 0 1 167.54 275.92
  C 167.68 277.20 167.23 284.44 168.80 284.19
  A 0.80 0.80 0.0 0 0 169.47 283.40
  C 169.49 280.12 168.33 273.92 173.53 274.30
  Z
  M 184.18 278.82
  L 189.74 278.72
  A 1.00 1.00 0.0 0 0 190.72 277.73
  Q 190.74 274.22 187.88 273.11
  C 180.23 270.16 177.46 285.92 188.58 283.96
  C 189.20 283.85 191.48 283.01 189.48 282.32
  A 1.07 1.05 45.5 0 0 188.86 282.31
  Q 184.70 283.55 183.28 280.22
  A 1.00 1.00 0.0 0 1 184.18 278.82
  Z
  M 198.23 280.96
  A 1.00 1.00 0.0 0 1 199.88 281.02
  Q 200.73 282.38 201.93 283.56
  Q 202.84 284.46 203.47 283.88
  A 0.64 0.64 0.0 0 0 203.55 283.03
  L 200.71 279.16
  A 1.00 0.99 38.5 0 1 200.59 278.18
  Q 201.48 276.11 203.00 274.40
  C 204.59 272.61 202.57 272.27 201.54 273.62
  Q 200.51 274.97 199.90 275.78
  A 0.99 0.99 0.0 0 1 198.19 275.59
  Q 197.59 274.25 196.49 273.45
  Q 192.87 270.82 195.35 274.54
  L 197.55 277.82
  A 1.02 1.01 -43.9 0 1 197.52 278.97
  C 196.97 279.72 193.35 283.83 195.07 284.23
  A 1.00 1.00 0.0 0 0 196.10 283.85
  L 198.23 280.96
  Z
  M 210.4914 273.5885
  A 0.85 0.85 0.0 0 0 209.6400 272.7400
  L 209.5800 272.7401
  A 0.85 0.85 0.0 0 0 208.7314 273.5915
  L 208.7486 283.3915
  A 0.85 0.85 0.0 0 0 209.6000 284.2400
  L 209.6600 284.2399
  A 0.85 0.85 0.0 0 0 210.5086 283.3885
  L 210.4914 273.5885
  Z
  M 215.99 282.20
  Q 219.62 285.02 223.02 283.78
  Q 224.17 283.36 223.62 282.78
  A 0.79 0.78 -22.8 0 0 223.00 282.53
  Q 215.38 282.94 217.81 275.81
  A 1.04 0.96 -10.6 0 1 218.17 275.33
  Q 219.93 274.03 222.02 274.41
  C 222.85 274.56 224.48 274.47 223.29 273.16
  A 1.01 0.98 69.9 0 0 222.60 272.83
  Q 213.90 272.38 215.62 281.59
  A 1.04 1.01 14.6 0 0 215.99 282.20
  Z
  M 232.7497 284.2161
  A 5.74 5.39 92.1 0 0 238.3464 278.6775
  A 5.74 5.39 92.1 0 0 233.1703 272.7439
  A 5.74 5.39 92.1 0 0 227.5736 278.2825
  A 5.74 5.39 92.1 0 0 232.7497 284.2161
  Z
  M 256.47 274.40
  Q 257.92 274.75 257.08 272.95
  A 0.99 0.99 0.0 0 0 256.07 272.38
  C 244.52 273.67 247.92 286.50 256.61 283.83
  C 256.99 283.71 258.46 282.52 256.78 282.63
  C 247.82 283.24 249.73 272.80 256.47 274.40
  Z
  M 265.8779 284.1830
  A 5.76 5.33 96.5 0 0 271.8257 279.0634
  A 5.76 5.33 96.5 0 0 267.1821 272.7370
  A 5.76 5.33 96.5 0 0 261.2343 277.8566
  A 5.76 5.33 96.5 0 0 265.8779 284.1830
  Z
  M 284.98 273.89
  Q 283.60 272.77 281.90 272.85
  Q 281.78 272.85 279.90 273.58
  Q 278.91 273.97 278.06 273.25
  Q 276.75 272.13 276.75 273.86
  L 276.75 283.04
  A 1.00 0.99 -81.2 0 0 277.44 283.99
  C 279.86 284.78 279.00 277.78 278.99 276.51
  A 0.97 0.95 -28.2 0 1 279.18 275.91
  Q 281.38 272.96 283.53 275.61
  A 1.03 1.01 26.6 0 1 283.75 276.24
  L 283.75 282.96
  A 1.00 1.00 0.0 0 0 284.74 283.96
  L 285.03 283.96
  A 0.80 0.79 0.7 0 0 285.84 283.18
  L 285.93 276.31
  A 1.01 1.00 -21.2 0 1 286.25 275.60
  C 291.89 270.32 290.73 281.55 290.78 283.38
  A 0.64 0.63 -0.5 0 0 291.42 284.00
  L 291.74 284.00
  A 0.99 0.99 0.0 0 0 292.73 283.00
  Q 292.72 280.82 292.76 278.62
  C 292.83 274.52 290.76 270.53 286.21 273.92
  A 1.00 0.99 -43.4 0 1 284.98 273.89
  Z
  M 244.80 282.70
  A 1.36 1.36 0.0 0 0 243.44 281.34
  A 1.36 1.36 0.0 0 0 242.08 282.70
  A 1.36 1.36 0.0 0 0 243.44 284.06
  A 1.36 1.36 0.0 0 0 244.80 282.70
  Z"
/>
<path d="
  M 140.50 147.46
  Q 146.76 147.79 150.69 152.81
  Q 151.95 154.43 152.32 156.28
  A 1.00 0.99 -5.7 0 1 151.34 157.47
  L 129.00 157.46
  Q 128.56 156.85 128.87 156.09
  Q 131.98 148.27 140.50 147.46
  Z"
/>
<ellipse cx="0.00" cy="0.00" transform="translate(352.29,166.63) rotate(87.9)" rx="15.12" ry="14.53"/>
<circle cx="172.04" cy="248.13" r="10.61"/>
<path d="
  M 211.52 237.96
  C 214.33 239.66 215.74 242.66 212.92 245.05
  Q 211.68 246.11 209.80 246.20
  A 1.00 0.99 -1.4 0 1 208.75 245.21
  L 208.74 239.46
  Q 208.74 236.27 211.52 237.96
  Z"
/>
<path d="
  M 213.34 250.19
  C 218.32 251.81 217.69 257.48 212.65 258.18
  Q 211.24 258.37 209.75 258.37
  A 1.00 1.00 0.0 0 1 208.75 257.37
  L 208.75 250.73
  A 0.99 0.99 0.0 0 1 209.69 249.74
  Q 211.59 249.62 213.34 250.19
  Z"
/>
<path d="
  M 187.57 274.67
  Q 188.73 275.15 188.73 276.25
  A 1.00 0.99 -0.3 0 1 187.73 277.25
  L 184.47 277.25
  A 1.00 1.00 0.0 0 1 183.57 275.83
  Q 184.67 273.46 187.57 274.67
  Z"
/>
<ellipse cx="0.00" cy="0.00" transform="translate(232.98,278.43) rotate(91.6)" rx="4.08" ry="3.28"/>
<ellipse cx="0.00" cy="0.00" transform="translate(266.50,278.44) rotate(90.0)" rx="4.09" ry="3.28"/>
</g>
<g fill="#ffffff">
<path d="
  M 186.94 248.18
  A 14.92 14.92 0.0 0 1 172.02 263.10
  A 14.92 14.92 0.0 0 1 157.10 248.18
  A 14.92 14.92 0.0 0 1 172.02 233.26
  A 14.92 14.92 0.0 0 1 186.94 248.18
  Z
  M 182.65 248.13
  A 10.61 10.61 0.0 0 0 172.04 237.52
  A 10.61 10.61 0.0 0 0 161.43 248.13
  A 10.61 10.61 0.0 0 0 172.04 258.74
  A 10.61 10.61 0.0 0 0 182.65 248.13
  Z"
/>
<path d="
  M 307.29 252.97
  L 314.97 233.94
  A 0.31 0.31 0.0 0 1 315.26 233.75
  L 319.34 233.75
  A 0.31 0.31 0.0 0 1 319.62 234.18
  L 307.18 264.07
  A 0.31 0.31 0.0 0 1 306.61 264.07
  L 294.56 234.19
  A 0.31 0.31 0.0 0 1 294.84 233.76
  L 298.89 233.71
  A 0.31 0.31 0.0 0 1 299.18 233.91
  L 306.71 252.97
  A 0.31 0.31 0.0 0 0 307.29 252.97
  Z"
/>
<path d="
  M 12.64 250.96
  Q 12.52 242.86 12.49 234.75
  A 1.00 1.00 0.0 0 1 13.49 233.75
  L 16.03 233.75
  A 1.01 1.01 0.0 0 1 17.03 234.76
  L 16.99 257.50
  A 1.00 0.99 0.3 0 0 17.99 258.50
  L 24.37 258.50
  A 1.00 1.00 0.0 0 1 25.37 259.49
  L 25.40 261.49
  A 1.00 1.00 0.0 0 1 24.40 262.50
  L 13.63 262.50
  A 1.00 1.00 0.0 0 1 12.63 261.58
  Q 12.43 258.96 12.52 256.42
  Q 12.66 252.02 12.64 250.96
  Z"
/>
<rect x="-2.21" y="-14.37" transform="translate(31.70,248.12) rotate(0.2)" width="4.42" height="28.74" rx="0.36"/>
<path d="
  M 50.41 252.96
  L 58.07 233.95
  A 0.31 0.31 0.0 0 1 58.36 233.76
  L 62.44 233.75
  A 0.31 0.31 0.0 0 1 62.73 234.18
  L 50.30 264.02
  A 0.31 0.31 0.0 0 1 49.73 264.02
  L 37.62 234.17
  A 0.31 0.31 0.0 0 1 37.91 233.74
  L 41.98 233.75
  A 0.31 0.31 0.0 0 1 42.27 233.94
  L 49.83 252.96
  A 0.31 0.31 0.0 0 0 50.41 252.96
  Z"
/>
<path d="
  M 70.80 249.04
  L 70.73 258.17
  A 0.34 0.34 0.0 0 0 71.07 258.51
  L 82.06 258.48
  A 0.34 0.34 0.0 0 1 82.40 258.84
  L 82.19 262.18
  A 0.34 0.34 0.0 0 1 81.85 262.50
  L 66.84 262.50
  A 0.34 0.34 0.0 0 1 66.50 262.16
  L 66.50 234.09
  A 0.34 0.34 0.0 0 1 66.84 233.75
  L 82.02 233.75
  A 0.34 0.34 0.0 0 1 82.36 234.09
  L 82.41 237.41
  A 0.34 0.34 0.0 0 1 82.07 237.75
  L 71.09 237.75
  A 0.34 0.34 0.0 0 0 70.75 238.09
  L 70.75 244.41
  A 0.34 0.34 0.0 0 0 71.09 244.75
  L 81.71 244.75
  A 0.34 0.34 0.0 0 1 82.05 245.11
  L 81.87 248.53
  A 0.34 0.34 0.0 0 1 81.52 248.86
  L 71.14 248.70
  A 0.34 0.34 0.0 0 0 70.80 249.04
  Z"
/>
<rect x="99.71" y="233.75" width="4.34" height="28.74" rx="0.26"/>
<path d="
  M 118.98 238.09
  L 119.01 262.16
  A 0.34 0.34 0.0 0 1 118.67 262.50
  L 114.84 262.50
  A 0.34 0.34 0.0 0 1 114.50 262.16
  L 114.50 238.09
  A 0.34 0.34 0.0 0 0 114.16 237.75
  L 108.09 237.75
  A 0.34 0.34 0.0 0 1 107.75 237.41
  L 107.75 234.09
  A 0.34 0.34 0.0 0 1 108.09 233.75
  L 124.88 233.75
  A 0.34 0.34 0.0 0 1 125.22 234.07
  L 125.39 237.39
  A 0.34 0.34 0.0 0 1 125.05 237.75
  L 119.32 237.75
  A 0.34 0.34 0.0 0 0 118.98 238.09
  Z"
/>
<path d="
  M 144.16 237.75
  L 138.09 237.75
  A 0.34 0.34 0.0 0 1 137.75 237.41
  L 137.75 234.09
  A 0.34 0.34 0.0 0 1 138.09 233.75
  L 154.98 233.75
  A 0.34 0.34 0.0 0 1 155.32 234.08
  L 155.45 237.40
  A 0.34 0.34 0.0 0 1 155.11 237.75
  L 149.06 237.75
  A 0.34 0.34 0.0 0 0 148.72 238.09
  L 148.80 262.08
  A 0.34 0.34 0.0 0 1 148.49 262.42
  L 144.87 262.71
  A 0.34 0.34 0.0 0 1 144.50 262.37
  L 144.50 238.09
  A 0.34 0.34 0.0 0 0 144.16 237.75
  Z"
/>
<path d="
  M 217.28 247.58
  C 224.29 252.51 221.29 261.42 213.17 262.45
  Q 211.68 262.64 205.20 262.48
  A 1.01 1.00 0.9 0 1 204.22 261.48
  L 204.22 234.74
  A 1.00 0.99 88.2 0 1 205.15 233.74
  Q 211.16 233.34 213.26 234.22
  C 217.25 235.88 221.00 242.37 217.17 246.04
  A 1.00 1.00 0.0 0 0 217.28 247.58
  Z
  M 211.52 237.96
  Q 208.74 236.27 208.74 239.46
  L 208.75 245.21
  A 1.00 0.99 -1.4 0 0 209.80 246.20
  Q 211.68 246.11 212.92 245.05
  C 215.74 242.66 214.33 239.66 211.52 237.96
  Z
  M 213.34 250.19
  Q 211.59 249.62 209.69 249.74
  A 0.99 0.99 0.0 0 0 208.75 250.73
  L 208.75 257.37
  A 1.00 1.00 0.0 0 0 209.75 258.37
  Q 211.24 258.37 212.65 258.18
  C 217.69 257.48 218.32 251.81 213.34 250.19
  Z"
/>
<path d="
  M 231.00 238.09
  L 231.00 244.41
  A 0.34 0.34 0.0 0 0 231.34 244.75
  L 241.92 244.75
  A 0.34 0.34 0.0 0 1 242.26 245.09
  L 242.21 248.50
  A 0.34 0.34 0.0 0 1 241.87 248.84
  L 231.34 248.70
  A 0.34 0.34 0.0 0 0 231.00 249.04
  L 231.00 258.17
  A 0.34 0.34 0.0 0 0 231.34 258.51
  L 242.16 258.48
  A 0.34 0.34 0.0 0 1 242.50 258.82
  L 242.50 262.16
  A 0.34 0.34 0.0 0 1 242.16 262.50
  L 226.84 262.50
  A 0.34 0.34 0.0 0 1 226.50 262.16
  L 226.50 234.09
  A 0.34 0.34 0.0 0 1 226.84 233.75
  L 242.16 233.75
  A 0.34 0.34 0.0 0 1 242.50 234.09
  L 242.50 237.41
  A 0.34 0.34 0.0 0 1 242.16 237.75
  L 231.34 237.75
  A 0.34 0.34 0.0 0 0 231.00 238.09
  Z"
/>
<path d="
  M 252.84 258.51
  L 260.41 258.47
  A 0.34 0.34 0.0 0 1 260.75 258.81
  L 260.75 262.16
  A 0.34 0.34 0.0 0 1 260.41 262.50
  L 248.53 262.50
  A 0.34 0.34 0.0 0 1 248.19 262.16
  L 248.17 234.09
  A 0.34 0.34 0.0 0 1 248.51 233.75
  L 252.16 233.75
  A 0.34 0.34 0.0 0 1 252.50 234.09
  L 252.50 258.17
  A 0.34 0.34 0.0 0 0 252.84 258.51
  Z"
/>
<rect x="-2.35" y="-14.37" transform="translate(267.10,248.12) rotate(-0.2)" width="4.70" height="28.74" rx="0.27"/>
<path d="
  M 280.50 249.04
  L 280.50 258.16
  A 0.34 0.34 0.0 0 0 280.84 258.50
  L 291.66 258.50
  A 0.34 0.34 0.0 0 1 292.00 258.84
  L 292.00 262.16
  A 0.34 0.34 0.0 0 1 291.66 262.50
  L 276.59 262.50
  A 0.34 0.34 0.0 0 1 276.25 262.16
  L 276.22 234.09
  A 0.34 0.34 0.0 0 1 276.56 233.75
  L 291.67 233.75
  A 0.34 0.34 0.0 0 1 292.01 234.09
  L 292.00 237.41
  A 0.34 0.34 0.0 0 1 291.66 237.75
  L 280.84 237.75
  A 0.34 0.34 0.0 0 0 280.50 238.09
  L 280.50 244.41
  A 0.34 0.34 0.0 0 0 280.84 244.75
  L 291.16 244.75
  A 0.34 0.34 0.0 0 1 291.50 245.09
  L 291.50 248.54
  A 0.34 0.34 0.0 0 1 291.15 248.88
  L 280.85 248.70
  A 0.34 0.34 0.0 0 0 280.50 249.04
  Z"
/>
<path d="
  M 328.09 244.75
  L 338.58 244.75
  A 0.34 0.34 0.0 0 1 338.92 245.10
  L 338.84 248.75
  A 0.34 0.34 0.0 0 1 338.49 249.08
  L 328.10 248.71
  A 0.34 0.34 0.0 0 0 327.75 249.05
  L 327.75 258.16
  A 0.34 0.34 0.0 0 0 328.09 258.50
  L 338.91 258.50
  A 0.34 0.34 0.0 0 1 339.25 258.84
  L 339.25 262.16
  A 0.34 0.34 0.0 0 1 338.91 262.50
  L 323.59 262.50
  A 0.34 0.34 0.0 0 1 323.25 262.16
  L 323.25 234.09
  A 0.34 0.34 0.0 0 1 323.59 233.75
  L 338.91 233.75
  A 0.34 0.34 0.0 0 1 339.25 234.09
  L 339.25 237.41
  A 0.34 0.34 0.0 0 1 338.91 237.75
  L 328.09 237.75
  A 0.34 0.34 0.0 0 0 327.75 238.09
  L 327.75 244.41
  A 0.34 0.34 0.0 0 0 328.09 244.75
  Z"
/>
<rect x="356.50" y="233.74" width="4.50" height="28.82" rx="0.27"/>
<path d="
  M 375.75 238.09
  L 375.75 262.16
  A 0.34 0.34 0.0 0 1 375.41 262.50
  L 371.84 262.50
  A 0.34 0.34 0.0 0 1 371.50 262.16
  L 371.50 238.09
  A 0.34 0.34 0.0 0 0 371.16 237.75
  L 365.08 237.75
  A 0.34 0.34 0.0 0 1 364.74 237.41
  L 364.75 234.09
  A 0.34 0.34 0.0 0 1 365.09 233.75
  L 381.91 233.75
  A 0.34 0.34 0.0 0 1 382.25 234.09
  L 382.25 237.41
  A 0.34 0.34 0.0 0 1 381.91 237.75
  L 376.09 237.75
  A 0.34 0.34 0.0 0 0 375.75 238.09
  Z"
/>
<circle cx="125.12" cy="269.88" r="1.17"/>
<circle cx="144.02" cy="269.88" r="1.24"/>
<path d="
  M 208.28 269.65
  Q 208.70 268.54 209.71 268.70
  A 0.79 0.78 85.1 0 1 210.34 269.24
  Q 211.06 271.39 209.02 270.98
  A 1.00 1.00 0.0 0 1 208.28 269.65
  Z"
/>
<path d="
  M 153.17 275.58
  L 153.28 281.36
  A 1.01 1.01 0.0 0 0 153.90 282.26
  C 154.02 282.31 158.11 283.12 155.27 283.94
  C 149.89 285.50 151.28 278.21 151.23 275.55
  A 1.00 1.00 0.0 0 0 150.40 274.58
  Q 147.68 274.11 150.51 272.71
  A 1.03 1.01 82.9 0 0 151.05 272.00
  Q 151.21 271.19 151.75 270.67
  Q 153.25 269.23 153.10 271.31
  Q 152.96 273.26 155.28 272.91
  Q 156.50 272.73 155.95 273.83
  Q 155.50 274.75 154.32 274.57
  A 1.00 1.00 0.0 0 0 153.17 275.58
  Z"
/>
<path d="
  M 115.58 279.46
  L 117.59 273.63
  A 0.97 0.94 84.0 0 1 117.99 273.12
  C 121.79 270.63 115.84 283.36 115.62 283.93
  Q 114.68 286.36 113.75 283.93
  L 109.87 273.89
  A 0.80 0.80 0.0 0 1 110.37 272.84
  C 111.01 272.63 111.72 273.17 111.94 273.82
  Q 112.90 276.71 114.09 279.51
  Q 114.90 281.43 115.58 279.46
  Z"
/>
<rect x="-1.00" y="-5.62" transform="translate(125.25,278.42) rotate(0.1)" width="2.00" height="11.24" rx="0.84"/>
<path d="
  M 133.85 276.65
  L 137.22 278.64
  A 0.98 0.96 7.1 0 1 137.65 279.18
  Q 139.09 283.49 134.48 284.26
  Q 134.21 284.30 132.52 283.97
  Q 131.77 283.82 131.43 283.27
  Q 130.71 282.09 132.07 282.30
  C 133.30 282.49 136.99 283.09 136.15 280.42
  A 1.02 1.00 4.6 0 0 135.64 279.83
  L 132.82 278.40
  Q 129.74 276.84 131.73 274.48
  Q 133.58 272.27 136.51 272.84
  A 1.06 1.03 -12.3 0 1 137.11 273.21
  C 138.80 275.35 134.80 273.67 133.59 275.16
  A 1.00 0.99 -55.0 0 0 133.85 276.65
  Z"
/>
<rect x="-1.01" y="-5.68" transform="translate(144.20,278.48) rotate(-0.5)" width="2.02" height="11.36" rx="0.97"/>
<path d="
  M 173.53 274.30
  C 168.33 273.92 169.49 280.12 169.47 283.40
  A 0.80 0.80 0.0 0 1 168.80 284.19
  C 167.23 284.44 167.68 277.20 167.54 275.92
  A 1.02 1.01 -74.9 0 0 167.15 275.23
  C 160.09 269.89 164.49 287.21 161.06 283.87
  A 1.02 0.99 22.8 0 1 160.75 283.15
  L 160.75 274.19
  Q 160.75 272.43 162.26 273.34
  L 162.59 273.53
  A 1.00 0.99 45.3 0 0 163.61 273.54
  Q 166.26 271.97 168.53 273.89
  A 1.00 1.00 0.0 0 0 169.77 273.93
  C 173.55 271.16 176.40 273.42 176.66 277.65
  C 176.69 278.18 177.51 286.69 174.78 283.76
  A 1.04 1.01 -67.8 0 1 174.51 283.09
  L 174.46 275.29
  A 1.00 0.99 -88.5 0 0 173.53 274.30
  Z"
/>
<path d="
  M 183.28 280.22
  Q 184.70 283.55 188.86 282.31
  A 1.07 1.05 45.5 0 1 189.48 282.32
  C 191.48 283.01 189.20 283.85 188.58 283.96
  C 177.46 285.92 180.23 270.16 187.88 273.11
  Q 190.74 274.22 190.72 277.73
  A 1.00 1.00 0.0 0 1 189.74 278.72
  L 184.18 278.82
  A 1.00 1.00 0.0 0 0 183.28 280.22
  Z
  M 187.57 274.67
  Q 184.67 273.46 183.57 275.83
  A 1.00 1.00 0.0 0 0 184.47 277.25
  L 187.73 277.25
  A 1.00 0.99 -0.3 0 0 188.73 276.25
  Q 188.73 275.15 187.57 274.67
  Z"
/>
<path d="
  M 198.23 280.96
  L 196.10 283.85
  A 1.00 1.00 0.0 0 1 195.07 284.23
  C 193.35 283.83 196.97 279.72 197.52 278.97
  A 1.02 1.01 -43.9 0 0 197.55 277.82
  L 195.35 274.54
  Q 192.87 270.82 196.49 273.45
  Q 197.59 274.25 198.19 275.59
  A 0.99 0.99 0.0 0 0 199.90 275.78
  Q 200.51 274.97 201.54 273.62
  C 202.57 272.27 204.59 272.61 203.00 274.40
  Q 201.48 276.11 200.59 278.18
  A 1.00 0.99 38.5 0 0 200.71 279.16
  L 203.55 283.03
  A 0.64 0.64 0.0 0 1 203.47 283.88
  Q 202.84 284.46 201.93 283.56
  Q 200.73 282.38 199.88 281.02
  A 1.00 1.00 0.0 0 0 198.23 280.96
  Z"
/>
<rect x="-0.88" y="-5.75" transform="translate(209.62,278.49) rotate(-0.1)" width="1.76" height="11.50" rx="0.85"/>
<path d="
  M 215.99 282.20
  A 1.04 1.01 14.6 0 1 215.62 281.59
  Q 213.90 272.38 222.60 272.83
  A 1.01 0.98 69.9 0 1 223.29 273.16
  C 224.48 274.47 222.85 274.56 222.02 274.41
  Q 219.93 274.03 218.17 275.33
  A 1.04 0.96 -10.6 0 0 217.81 275.81
  Q 215.38 282.94 223.00 282.53
  A 0.79 0.78 -22.8 0 1 223.62 282.78
  Q 224.17 283.36 223.02 283.78
  Q 219.62 285.02 215.99 282.20
  Z"
/>
<path d="
  M 232.7497 284.2161
  A 5.74 5.39 92.1 0 1 227.5736 278.2825
  A 5.74 5.39 92.1 0 1 233.1703 272.7439
  A 5.74 5.39 92.1 0 1 238.3464 278.6775
  A 5.74 5.39 92.1 0 1 232.7497 284.2161
  Z
  M 232.8661 282.5084
  A 4.08 3.28 91.6 0 0 236.2587 278.5216
  A 4.08 3.28 91.6 0 0 233.0939 274.3516
  A 4.08 3.28 91.6 0 0 229.7013 278.3384
  A 4.08 3.28 91.6 0 0 232.8661 282.5084
  Z"
/>
<path d="
  M 256.47 274.40
  C 249.73 272.80 247.82 283.24 256.78 282.63
  C 258.46 282.52 256.99 283.71 256.61 283.83
  C 247.92 286.50 244.52 273.67 256.07 272.38
  A 0.99 0.99 0.0 0 1 257.08 272.95
  Q 257.92 274.75 256.47 274.40
  Z"
/>
<path d="
  M 265.8779 284.1830
  A 5.76 5.33 96.5 0 1 261.2343 277.8566
  A 5.76 5.33 96.5 0 1 267.1821 272.7370
  A 5.76 5.33 96.5 0 1 271.8257 279.0634
  A 5.76 5.33 96.5 0 1 265.8779 284.1830
  Z
  M 266.5000 282.5300
  A 4.09 3.28 90.0 0 0 269.7800 278.4400
  A 4.09 3.28 90.0 0 0 266.5000 274.3500
  A 4.09 3.28 90.0 0 0 263.2200 278.4400
  A 4.09 3.28 90.0 0 0 266.5000 282.5300
  Z"
/>
<path d="
  M 286.21 273.92
  C 290.76 270.53 292.83 274.52 292.76 278.62
  Q 292.72 280.82 292.73 283.00
  A 0.99 0.99 0.0 0 1 291.74 284.00
  L 291.42 284.00
  A 0.64 0.63 -0.5 0 1 290.78 283.38
  C 290.73 281.55 291.89 270.32 286.25 275.60
  A 1.01 1.00 -21.2 0 0 285.93 276.31
  L 285.84 283.18
  A 0.80 0.79 0.7 0 1 285.03 283.96
  L 284.74 283.96
  A 1.00 1.00 0.0 0 1 283.75 282.96
  L 283.75 276.24
  A 1.03 1.01 26.6 0 0 283.53 275.61
  Q 281.38 272.96 279.18 275.91
  A 0.97 0.95 -28.2 0 0 278.99 276.51
  C 279.00 277.78 279.86 284.78 277.44 283.99
  A 1.00 0.99 -81.2 0 1 276.75 283.04
  L 276.75 273.86
  Q 276.75 272.13 278.06 273.25
  Q 278.91 273.97 279.90 273.58
  Q 281.78 272.85 281.90 272.85
  Q 283.60 272.77 284.98 273.89
  A 1.00 0.99 -43.4 0 0 286.21 273.92
  Z"
/>
<circle cx="243.44" cy="282.70" r="1.36"/>
</g>
<g fill="#e03739">
<path d="
  M 98.54 163.75
  L 98.51 167.77
  A 0.99 0.99 0.0 0 0 98.80 168.47
  Q 99.27 168.96 99.37 169.55
  A 1.01 1.00 -4.6 0 1 98.37 170.72
  Q 89.40 170.63 80.41 170.63
  C 78.93 170.63 78.63 169.88 77.89 168.73
  Q 74.90 175.66 73.08 182.86
  Q 70.07 182.84 69.78 185.29
  Q 69.63 186.51 69.60 187.85
  A 0.99 0.99 0.0 0 1 68.60 188.82
  L 65.23 188.80
  A 1.00 1.00 0.0 0 0 64.23 189.84
  L 64.32 192.67
  A 1.00 1.00 0.0 0 1 63.38 193.71
  L 58.08 194.02
  A 1.00 1.00 0.0 0 1 57.12 192.60
  Q 57.82 191.12 57.54 189.57
  A 1.01 1.00 -5.1 0 0 56.55 188.75
  L 53.40 188.75
  A 1.00 1.00 0.0 0 1 52.40 187.81
  L 52.19 184.23
  A 1.00 0.99 -76.4 0 0 51.71 183.43
  Q 50.22 182.54 48.54 182.50
  Q 46.51 176.01 44.98 169.40
  C 44.26 166.30 43.63 167.64 43.44 170.42
  L 24.10 170.46
  A 1.00 1.00 0.0 0 1 23.16 169.09
  Q 24.60 165.52 25.07 161.83
  C 25.33 159.79 26.39 157.08 25.71 154.25
  L 29.68 135.05
  A 1.01 1.00 -83.9 0 1 30.66 134.25
  L 51.37 134.25
  A 1.01 1.01 0.0 0 1 52.34 134.98
  L 60.69 165.25
  Q 61.08 166.67 61.47 165.25
  Q 61.58 164.87 61.48 164.47
  Q 61.42 164.21 61.49 163.96
  L 69.46 134.99
  A 1.02 1.01 -82.0 0 1 70.43 134.25
  L 91.67 134.25
  A 1.00 1.00 0.0 0 1 92.65 135.05
  L 98.54 163.75
  Z
  M 67.93 171.59
  C 66.15 179.51 55.91 180.34 54.40 171.89
  A 1.02 1.01 85.4 0 0 53.43 171.06
  L 49.56 170.97
  A 1.01 1.00 -6.4 0 0 48.56 172.21
  C 52.22 187.08 70.96 187.19 73.63 172.04
  A 1.01 1.00 -84.6 0 0 72.66 170.86
  L 68.92 170.81
  A 1.00 1.00 0.0 0 0 67.93 171.59
  Z"
/>
<path d="
  M 17.71 192.25
  L 17.96 190.25
  Q 18.88 189.56 18.79 188.45
  A 1.01 0.99 86.7 0 1 19.75 187.36
  L 28.07 187.09
  A 1.00 1.00 0.0 0 0 29.01 186.30
  L 29.69 183.07
  A 1.00 1.00 0.0 0 0 28.75 181.87
  L 25.69 181.73
  A 1.01 1.00 10.5 0 1 24.78 180.41
  L 25.98 176.86
  A 1.00 0.99 -79.4 0 1 26.96 176.18
  L 35.14 176.48
  A 1.00 1.00 0.0 0 1 36.08 177.68
  L 33.16 192.04
  A 1.00 1.00 0.0 0 1 32.16 192.84
  L 19.68 192.57
  A 1.01 1.00 -80.6 0 0 18.71 193.27
  Q 18.18 194.93 17.71 192.25
  Z"
/>
<path d="
  M 92.86 187.18
  L 102.48 187.40
  A 0.61 0.61 0.0 0 1 103.07 187.95
  L 103.44 192.01
  A 0.61 0.61 0.0 0 1 102.84 192.67
  L 88.62 192.77
  A 0.61 0.61 0.0 0 1 88.01 192.27
  L 85.09 176.96
  A 0.61 0.61 0.0 0 1 85.69 176.23
  L 94.69 176.29
  A 0.61 0.61 0.0 0 1 95.27 176.73
  L 96.43 180.86
  A 0.61 0.61 0.0 0 1 95.93 181.62
  L 92.16 182.14
  A 0.61 0.61 0.0 0 0 91.64 182.84
  L 92.27 186.67
  A 0.61 0.61 0.0 0 0 92.86 187.18
  Z"
/>
</g>
<g fill="#f2a71e">
<path d="
  M 195.04 141.50
  Q 194.68 141.35 194.34 141.39
  A 0.80 0.79 -4.0 0 0 193.64 142.19
  L 193.71 151.09
  Q 193.72 152.95 192.16 151.94
  C 191.63 151.59 183.10 144.59 183.87 146.91
  Q 185.14 150.79 187.60 155.63
  A 0.80 0.79 -34.1 0 1 187.41 156.59
  C 187.05 156.91 186.17 156.90 185.57 156.71
  Q 184.94 156.51 184.28 156.52
  A 1.01 1.00 -11.4 0 0 183.36 157.90
  Q 184.69 161.15 187.22 165.02
  Q 187.77 165.86 187.29 167.00
  L 168.77 135.90
  Q 167.87 134.40 169.62 134.38
  L 190.69 134.23
  A 1.01 1.01 0.0 0 1 191.59 134.78
  L 195.04 141.50
  Z"
/>
<path d="
  M 230.84 134.65
  Q 226.20 143.95 224.23 146.99
  Q 221.49 151.20 219.01 155.63
  A 0.99 0.98 -80.1 0 1 218.32 156.12
  L 214.65 156.83
  Q 212.81 157.18 213.53 155.46
  L 216.69 147.95
  Q 217.78 145.36 215.49 146.99
  L 208.85 151.71
  A 1.00 0.99 -21.7 0 1 207.28 151.04
  Q 206.60 146.22 206.74 141.37
  A 1.03 1.02 73.1 0 1 207.15 140.59
  Q 209.92 138.57 208.94 134.88
  Q 219.78 133.51 230.84 134.65
  Z"
/>
<path d="
  M 206.09 174.42
  Q 206.29 174.44 206.50 174.46
  Q 208.43 174.69 206.74 175.65
  Q 199.08 179.99 193.92 174.93
  C 188.41 169.52 189.41 161.24 196.21 157.25
  C 197.45 156.53 198.36 157.26 197.47 158.55
  C 192.72 165.41 198.36 173.94 206.09 174.42
  Z"
/>
<path d="
  M 187.29 167.25
  L 187.63 168.28
  A 1.01 1.00 52.2 0 1 187.53 169.11
  L 183.27 176.11
  Q 182.22 177.85 184.24 177.63
  L 186.28 177.41
  A 1.00 0.99 -82.9 0 1 187.32 178.75
  L 184.90 185.22
  Q 184.83 185.40 184.71 185.54
  L 183.01 187.42
  A 0.83 0.82 -31.9 0 0 182.83 188.17
  C 183.41 190.23 191.20 183.19 192.19 182.47
  Q 193.76 181.32 193.78 183.26
  L 193.87 190.51
  A 0.97 0.22 49.0 0 0 194.21 191.14
  C 194.77 191.88 192.44 193.83 195.00 193.04
  L 191.56 199.73
  A 1.00 1.00 0.0 0 1 190.67 200.27
  L 169.66 200.24
  Q 167.91 200.24 168.80 198.74
  L 187.29 167.25
  Z"
/>
<path d="
  M 221.20 200.17
  L 210.16 200.20
  A 1.01 0.99 -13.7 0 1 209.27 199.67
  L 205.21 192.00
  Q 205.83 190.97 206.32 191.23
  A 0.32 0.32 0.0 0 0 206.80 190.96
  L 207.02 183.23
  Q 207.07 181.27 208.63 182.46
  L 217.01 188.84
  A 0.41 0.40 53.3 0 0 217.40 188.90
  Q 218.00 188.67 217.57 187.87
  Q 215.13 183.42 213.61 178.56
  Q 213.05 176.76 214.85 177.30
  L 218.22 178.32
  A 1.00 0.99 -8.9 0 1 218.76 178.71
  C 220.12 180.67 220.99 183.37 222.48 185.09
  C 225.10 188.11 226.20 193.14 227.87 194.82
  C 232.52 199.47 227.63 199.50 224.72 198.87
  Q 222.71 198.44 221.20 200.17
  Z"
/>
</g>
<path fill="#34a9b9" d="
  M 371.31 137.55
  Q 361.58 138.88 357.04 141.02
  C 342.65 147.81 334.92 151.96 321.87 153.82
  C 320.52 154.01 319.88 154.87 320.79 156.08
  A 1.00 1.00 0.0 0 0 321.66 156.47
  L 340.87 155.17
  A 1.03 1.00 -69.6 0 0 341.52 154.86
  Q 347.87 148.25 357.31 151.39
  A 1.03 1.02 -45.4 0 0 357.95 151.38
  Q 368.29 147.82 381.50 147.71
  Q 385.78 153.82 386.71 161.25
  Q 385.57 161.86 384.66 158.14
  A 0.99 0.99 0.0 0 0 383.83 157.39
  Q 375.27 156.18 366.68 157.15
  A 1.00 1.00 0.0 0 0 365.93 158.65
  Q 367.75 161.72 367.49 165.39
  A 1.00 1.00 0.0 0 0 368.65 166.45
  L 386.96 163.50
  C 390.61 193.94 354.58 212.12 331.01 193.97
  Q 323.87 188.47 320.43 179.89
  Q 327.77 178.99 335.01 178.02
  C 336.32 177.84 337.99 178.23 339.49 177.75
  A 0.80 0.79 -26.7 0 0 339.90 176.52
  Q 339.61 176.12 339.06 175.95
  Q 329.90 173.07 320.39 171.69
  Q 319.34 171.54 318.89 171.14
  Q 318.34 170.66 318.40 170.00
  A 1.01 1.00 -87.2 0 1 319.41 169.08
  L 335.89 169.32
  A 1.00 1.00 0.0 0 0 336.90 168.18
  L 336.48 165.32
  A 1.01 1.01 0.0 0 0 335.35 164.47
  Q 326.62 165.65 317.63 164.52
  C 320.67 137.89 348.04 123.00 371.31 137.55
  Z
  M 352.8441 181.7398
  A 15.12 14.53 87.9 0 0 366.8102 166.0976
  A 15.12 14.53 87.9 0 0 351.7359 151.5202
  A 15.12 14.53 87.9 0 0 337.7698 167.1624
  A 15.12 14.53 87.9 0 0 352.8441 181.7398
  Z
  M 360.64 180.73
  L 360.27 180.86
  Q 358.21 181.60 360.34 182.09
  L 379.28 186.46
  A 0.99 0.98 20.0 0 0 380.39 185.95
  L 383.35 180.23
  A 1.02 1.02 0.0 0 0 383.33 179.28
  Q 382.85 178.43 381.66 179.12
  A 1.03 0.97 -55.7 0 1 381.07 179.25
  L 364.22 177.78
  A 1.00 0.99 -64.8 0 0 363.43 178.07
  L 361.01 180.50
  Q 360.85 180.66 360.64 180.73
  Z
  M 374.71 190.10
  Q 366.85 188.21 359.47 186.66
  Q 351.26 184.94 344.43 186.15
  Q 338.68 187.16 330.04 189.99
  Q 328.10 190.63 329.79 191.77
  L 336.59 196.39
  A 1.02 1.01 -37.7 0 0 337.49 196.50
  C 340.00 195.61 342.78 195.98 344.82 195.67
  Q 358.30 193.65 371.77 191.44
  A 1.04 1.03 -36.3 0 1 372.38 191.53
  Q 373.77 192.23 374.92 191.57
  Q 376.66 190.57 374.71 190.10
  Z"
/>
<path fill="#8cbb4f" d="
  M 265.03 177.83
  C 254.62 143.49 288.43 124.78 317.48 134.71
  A 1.00 1.00 0.0 0 1 318.14 135.85
  L 314.83 152.47
  A 1.01 1.00 12.7 0 1 313.60 153.24
  C 300.71 150.04 283.96 150.58 285.39 168.88
  C 286.51 183.20 303.19 184.01 313.49 180.28
  A 1.00 1.00 0.0 0 1 314.80 180.97
  L 318.98 197.74
  A 1.00 1.00 0.0 0 1 318.36 198.92
  C 298.80 206.13 271.80 200.18 265.03 177.83
  Z
  M 307.23 140.18
  C 310.41 139.80 307.74 147.01 307.29 148.61
  A 0.99 0.97 32.4 0 0 307.51 149.54
  C 310.05 152.41 312.55 143.07 312.65 141.68
  Q 313.11 135.14 305.80 135.42
  A 1.07 1.03 23.7 0 0 305.23 135.63
  C 301.97 138.13 302.10 143.64 302.25 147.35
  A 1.02 1.01 20.8 0 0 302.56 148.03
  C 305.82 151.16 305.98 142.35 306.39 140.90
  A 1.00 1.00 0.0 0 1 307.23 140.18
  Z
  M 296.44 139.01
  C 292.71 137.88 295.19 147.43 295.65 148.59
  A 1.00 1.00 0.0 0 0 296.46 149.21
  C 300.94 149.73 298.17 142.05 297.06 139.56
  A 1.02 0.98 85.6 0 0 296.44 139.01
  Z
  M 277.39 143.43
  A 0.99 0.99 0.0 0 0 277.21 144.32
  Q 278.97 150.69 285.60 154.17
  C 286.70 154.74 287.96 154.67 288.20 153.25
  A 1.03 1.00 -62.6 0 0 287.95 152.42
  L 282.68 146.59
  A 1.02 1.00 33.2 0 1 282.47 145.62
  C 284.05 140.58 288.27 148.61 289.60 150.91
  A 1.03 1.02 82.2 0 0 290.20 151.37
  Q 291.73 151.80 292.81 150.75
  A 1.01 0.99 56.2 0 0 293.02 149.63
  C 290.14 143.06 285.01 133.89 277.39 143.43
  Z
  M 274.56 154.04
  C 273.51 157.67 286.27 163.23 283.54 157.04
  A 1.02 1.02 0.0 0 0 283.02 156.52
  L 275.93 153.40
  A 1.01 1.01 0.0 0 0 274.56 154.04
  Z
  M 267.19 164.69
  C 264.40 171.15 269.29 172.84 274.46 172.68
  C 276.22 172.62 283.79 172.05 281.71 168.90
  A 1.01 0.99 -16.7 0 0 280.85 168.45
  L 273.08 168.63
  A 1.02 0.99 59.1 0 1 272.52 168.48
  Q 270.40 167.13 272.23 165.90
  C 274.33 164.49 282.30 167.71 282.43 164.39
  A 1.00 0.99 11.9 0 0 281.79 163.42
  C 278.29 162.04 269.23 159.96 267.19 164.69
  Z
  M 274.39 179.40
  C 274.36 182.07 281.70 179.04 283.81 178.05
  A 1.02 1.01 -10.3 0 0 284.39 177.22
  C 284.85 171.13 276.07 177.42 274.71 178.68
  A 0.97 0.97 0.0 0 0 274.39 179.40
  Z
  M 279.69 185.19
  C 274.47 191.52 281.36 198.94 287.18 192.71
  C 288.65 191.14 292.05 186.78 291.71 184.56
  C 290.99 180.00 286.24 188.04 285.81 188.65
  C 283.87 191.45 280.60 189.63 283.27 186.74
  Q 285.28 184.56 287.39 182.43
  A 1.01 1.00 66.5 0 0 287.67 181.71
  C 287.58 176.44 280.94 183.66 279.69 185.19
  Z
  M 307.86 186.11
  L 309.47 192.39
  A 1.03 0.99 49.7 0 1 309.43 193.01
  C 308.31 195.86 306.57 193.54 306.39 191.90
  Q 306.10 189.24 305.60 186.56
  A 1.01 0.98 -77.2 0 0 305.23 185.95
  C 302.16 183.57 302.59 190.72 302.84 192.22
  C 303.76 197.81 307.04 201.20 312.93 196.99
  A 1.03 1.01 -17.9 0 0 313.35 196.19
  Q 313.44 190.25 310.48 185.23
  A 1.01 0.99 69.9 0 0 309.46 184.75
  L 308.67 184.87
  A 1.00 1.00 0.0 0 0 307.86 186.11
  Z
  M 298.75 185.62
  C 294.45 182.90 294.28 192.33 294.27 194.23
  A 1.01 1.00 83.8 0 0 295.49 195.22
  C 297.87 194.69 298.90 188.65 299.21 186.61
  A 1.01 1.00 20.4 0 0 298.75 185.62
  Z"
/>
<g fill="#d9318b">
<path d="
  M 131.01 121.48
  L 149.52 104.63
  A 0.39 0.39 0.0 0 1 150.10 104.68
  L 160.89 118.92
  A 0.39 0.39 0.0 0 1 160.77 119.50
  L 139.61 131.29
  A 0.39 0.39 0.0 0 1 139.13 131.21
  L 130.99 122.03
  A 0.39 0.39 0.0 0 1 131.01 121.48
  Z
  M 148.49 122.30
  L 149.15 121.50
  A 0.95 0.92 -24.8 0 0 149.37 120.93
  Q 149.66 116.19 146.70 112.70
  Q 145.52 111.30 145.29 113.12
  C 145.02 115.34 142.53 118.44 141.25 120.32
  A 1.02 1.01 -31.2 0 0 141.08 121.00
  Q 141.40 123.73 138.85 123.55
  A 1.02 1.01 -78.1 0 0 137.83 124.22
  L 136.96 126.75
  A 1.01 1.00 -51.7 0 0 137.06 127.62
  Q 138.52 129.87 141.13 129.62
  A 1.04 1.03 -75.2 0 0 141.86 129.19
  Q 144.60 125.20 145.17 120.34
  A 0.65 0.64 -0.6 0 1 145.72 119.78
  L 145.97 119.75
  A 0.41 0.41 0.0 0 1 146.44 120.10
  C 146.57 121.05 145.72 126.62 145.74 126.63
  A 0.43 0.42 43.2 0 0 146.17 126.62
  L 148.59 125.07
  A 0.80 0.80 0.0 0 0 148.74 123.85
  L 148.53 123.62
  A 1.00 1.00 0.0 0 1 148.49 122.30
  Z"
/>
<path d="
  M 138.00 132.29
  L 142.00 132.29
  L 142.15 132.55
  A 0.40 0.40 0.0 0 1 142.09 133.06
  C 133.82 140.93 118.66 153.53 127.05 166.26
  A 1.01 1.00 -35.2 0 1 126.81 167.61
  L 126.54 167.81
  A 0.81 0.80 -43.1 0 1 125.53 167.78
  C 110.96 155.03 128.26 141.51 137.91 134.24
  A 0.51 0.51 0.0 0 0 138.10 133.74
  Q 137.96 132.90 136.54 133.16
  Q 137.81 133.33 138.00 132.29
  Z"
/>
<path d="
  M 146.00 132.54
  C 161.91 134.51 171.33 147.21 172.61 162.21
  Q 172.95 166.12 173.13 170.06
  A 1.00 0.99 -1.1 0 1 172.12 171.10
  L 144.75 170.96
  Q 144.42 170.66 144.47 170.19
  A 0.82 0.81 16.0 0 0 144.02 169.39
  Q 137.96 166.40 137.98 159.43
  A 1.00 1.00 0.0 0 0 136.91 158.43
  L 133.93 158.64
  A 1.00 1.00 0.0 0 0 133.00 159.70
  Q 133.50 167.74 141.37 170.18
  A 0.32 0.32 0.0 0 1 141.58 170.60
  Q 141.44 170.98 141.00 170.96
  L 136.17 170.80
  Q 128.16 166.98 128.16 158.28
  A 0.82 0.81 78.7 0 1 128.64 157.55
  Q 128.81 157.48 129.00 157.46
  L 151.34 157.47
  A 1.00 0.99 -5.7 0 0 152.32 156.28
  Q 151.95 154.43 150.69 152.81
  Q 146.76 147.79 140.50 147.46
  L 140.18 147.17
  A 0.80 0.80 0.0 0 1 140.23 145.93
  Q 142.83 143.98 140.83 141.57
  A 1.00 1.00 0.0 0 1 141.34 139.97
  Q 142.23 139.73 143.11 139.46
  Q 144.49 139.05 145.02 138.44
  Q 145.91 137.43 145.03 136.24
  A 1.00 0.99 -40.0 0 1 145.15 134.92
  Q 146.23 133.92 146.00 132.54
  Z"
/>
<path d="
  M 132.50 132.96
  C 135.34 133.10 129.69 134.95 129.64 134.96
  C 126.14 135.87 124.46 138.10 123.86 141.64
  A 1.00 1.00 0.0 0 1 122.50 142.40
  L 119.78 141.31
  A 1.00 1.00 0.0 0 0 118.99 141.33
  Q 115.15 143.12 114.25 146.98
  Q 111.01 160.82 121.73 169.50
  Q 124.76 171.95 128.12 171.30
  Q 128.45 185.30 142.52 185.55
  Q 140.79 187.93 136.77 191.52
  Q 132.66 195.19 127.79 195.29
  C 121.78 195.41 116.61 191.28 121.19 184.87
  A 1.01 1.00 -75.2 0 1 121.89 184.46
  L 123.47 184.28
  A 1.01 1.00 89.8 0 1 124.57 185.38
  Q 123.92 191.92 130.64 189.62
  A 1.00 0.97 -82.3 0 0 131.16 189.21
  Q 133.33 185.77 131.32 183.23
  Q 129.85 181.38 126.56 181.02
  Q 122.34 180.55 119.56 182.04
  Q 115.60 184.16 113.79 190.47
  Q 100.69 170.71 110.14 149.92
  Q 116.42 136.12 132.50 132.96
  Z
  M 126.18 174.59
  C 119.13 171.73 114.05 173.42 111.02 181.17
  Q 110.98 181.27 110.96 181.39
  Q 110.66 183.46 111.98 182.99
  A 0.99 0.96 1.9 0 0 112.55 182.47
  C 114.57 178.10 119.12 177.47 123.43 177.27
  C 125.02 177.20 130.93 180.51 126.60 174.90
  A 1.04 1.03 81.2 0 0 126.18 174.59
  Z"
/>
<path d="
  M 132.00 201.21
  L 131.90 200.85
  A 0.51 0.51 0.0 0 1 132.50 200.21
  L 136.17 201.00
  A 1.01 0.99 -56.7 0 0 136.96 200.83
  C 143.81 196.00 148.29 189.48 150.71 181.50
  L 151.68 179.96
  A 1.02 1.01 16.5 0 1 152.53 179.50
  L 171.25 179.50
  A 1.00 1.00 0.0 0 1 172.21 180.78
  C 166.87 198.84 149.59 205.25 132.00 201.21
  Z"
/>
</g>
<g fill="#a9308b">
<path d="
  M 148.53 123.62
  L 148.74 123.85
  A 0.80 0.80 0.0 0 1 148.59 125.07
  L 146.17 126.62
  A 0.43 0.42 43.2 0 1 145.74 126.63
  C 145.72 126.62 146.57 121.05 146.44 120.10
  A 0.41 0.41 0.0 0 0 145.97 119.75
  L 145.72 119.78
  A 0.65 0.64 -0.6 0 0 145.17 120.34
  Q 144.60 125.20 141.86 129.19
  A 1.04 1.03 -75.2 0 1 141.13 129.62
  Q 138.52 129.87 137.06 127.62
  A 1.01 1.00 -51.7 0 1 136.96 126.75
  L 137.83 124.22
  A 1.02 1.01 -78.1 0 1 138.85 123.55
  Q 141.40 123.73 141.08 121.00
  A 1.02 1.01 -31.2 0 1 141.25 120.32
  C 142.53 118.44 145.02 115.34 145.29 113.12
  Q 145.52 111.30 146.70 112.70
  Q 149.66 116.19 149.37 120.93
  A 0.95 0.92 -24.8 0 1 149.15 121.50
  L 148.49 122.30
  A 1.00 1.00 0.0 0 0 148.53 123.62
  Z"
/>
<path d="
  M 138.00 132.29
  Q 137.81 133.33 136.54 133.16
  Q 137.96 132.90 138.10 133.74
  A 0.51 0.51 0.0 0 1 137.91 134.24
  C 128.26 141.51 110.96 155.03 125.53 167.78
  A 0.81 0.80 -43.1 0 0 126.54 167.81
  L 126.81 167.61
  A 1.01 1.00 -35.2 0 0 127.05 166.26
  C 118.66 153.53 133.82 140.93 142.09 133.06
  A 0.40 0.40 0.0 0 0 142.15 132.55
  L 142.00 132.29
  L 146.00 132.54
  Q 146.23 133.92 145.15 134.92
  A 1.00 0.99 -40.0 0 0 145.03 136.24
  Q 145.91 137.43 145.02 138.44
  Q 144.49 139.05 143.11 139.46
  Q 142.23 139.73 141.34 139.97
  A 1.00 1.00 0.0 0 0 140.83 141.57
  Q 142.83 143.98 140.23 145.93
  A 0.80 0.80 0.0 0 0 140.18 147.17
  L 140.50 147.46
  Q 131.98 148.27 128.87 156.09
  Q 128.56 156.85 129.00 157.46
  Q 128.81 157.48 128.64 157.55
  A 0.82 0.81 78.7 0 0 128.16 158.28
  Q 128.16 166.98 136.17 170.80
  L 128.12 171.30
  Q 124.76 171.95 121.73 169.50
  Q 111.01 160.82 114.25 146.98
  Q 115.15 143.12 118.99 141.33
  A 1.00 1.00 0.0 0 1 119.78 141.31
  L 122.50 142.40
  A 1.00 1.00 0.0 0 0 123.86 141.64
  C 124.46 138.10 126.14 135.87 129.64 134.96
  C 129.69 134.95 135.34 133.10 132.50 132.96
  Q 135.15 131.98 138.00 132.29
  Z"
/>
<path d="
  M 244.50 134.29
  L 256.57 134.43
  A 1.00 1.00 0.0 0 1 257.56 135.43
  L 257.46 186.50
  L 250.06 186.95
  A 1.00 0.99 85.2 0 1 249.01 186.06
  L 243.51 135.48
  A 1.00 1.00 0.0 0 1 244.12 134.44
  L 244.50 134.29
  Z"
/>
<path d="
  M 144.75 170.96
  L 141.00 170.96
  Q 141.44 170.98 141.58 170.60
  A 0.32 0.32 0.0 0 0 141.37 170.18
  Q 133.50 167.74 133.00 159.70
  A 1.00 1.00 0.0 0 1 133.93 158.64
  L 136.91 158.43
  A 1.00 1.00 0.0 0 1 137.98 159.43
  Q 137.96 166.40 144.02 169.39
  A 0.82 0.81 16.0 0 1 144.47 170.19
  Q 144.42 170.66 144.75 170.96
  Z"
/>
<path d="
  M 126.18 174.59
  A 1.04 1.03 81.2 0 1 126.60 174.90
  C 130.93 180.51 125.02 177.20 123.43 177.27
  C 119.12 177.47 114.57 178.10 112.55 182.47
  A 0.99 0.96 1.9 0 1 111.98 182.99
  Q 110.66 183.46 110.96 181.39
  Q 110.98 181.27 111.02 181.17
  C 114.05 173.42 119.13 171.73 126.18 174.59
  Z"
/>
<path d="
  M 142.52 185.55
  Q 147.34 185.02 150.71 181.50
  C 148.29 189.48 143.81 196.00 136.96 200.83
  A 1.01 0.99 -56.7 0 1 136.17 201.00
  L 132.50 200.21
  A 0.51 0.51 0.0 0 0 131.90 200.85
  L 132.00 201.21
  Q 121.10 198.88 113.79 190.47
  Q 115.60 184.16 119.56 182.04
  Q 122.34 180.55 126.56 181.02
  Q 129.85 181.38 131.32 183.23
  Q 133.33 185.77 131.16 189.21
  A 1.00 0.97 -82.3 0 1 130.64 189.62
  Q 123.92 191.92 124.57 185.38
  A 1.01 1.00 89.8 0 0 123.47 184.28
  L 121.89 184.46
  A 1.01 1.00 -75.2 0 0 121.19 184.87
  C 116.61 191.28 121.78 195.41 127.79 195.29
  Q 132.66 195.19 136.77 191.52
  Q 140.79 187.93 142.52 185.55
  Z"
/>
</g>
<g fill="#15818a">
<path d="
  M 371.31 137.55
  Q 377.58 141.38 381.50 147.71
  Q 368.29 147.82 357.95 151.38
  A 1.03 1.02 -45.4 0 1 357.31 151.39
  Q 347.87 148.25 341.52 154.86
  A 1.03 1.00 -69.6 0 1 340.87 155.17
  L 321.66 156.47
  A 1.00 1.00 0.0 0 1 320.79 156.08
  C 319.88 154.87 320.52 154.01 321.87 153.82
  C 334.92 151.96 342.65 147.81 357.04 141.02
  Q 361.58 138.88 371.31 137.55
  Z"
/>
<path d="
  M 386.71 161.25
  L 386.96 163.50
  L 368.65 166.45
  A 1.00 1.00 0.0 0 1 367.49 165.39
  Q 367.75 161.72 365.93 158.65
  A 1.00 1.00 0.0 0 1 366.68 157.15
  Q 375.27 156.18 383.83 157.39
  A 0.99 0.99 0.0 0 1 384.66 158.14
  Q 385.57 161.86 386.71 161.25
  Z"
/>
<path d="
  M 320.43 179.89
  Q 317.18 172.37 317.63 164.52
  Q 326.62 165.65 335.35 164.47
  A 1.01 1.01 0.0 0 1 336.48 165.32
  L 336.90 168.18
  A 1.00 1.00 0.0 0 1 335.89 169.32
  L 319.41 169.08
  A 1.01 1.00 -87.2 0 0 318.40 170.00
  Q 318.34 170.66 318.89 171.14
  Q 319.34 171.54 320.39 171.69
  Q 329.90 173.07 339.06 175.95
  Q 339.61 176.12 339.90 176.52
  A 0.80 0.79 -26.7 0 1 339.49 177.75
  C 337.99 178.23 336.32 177.84 335.01 178.02
  Q 327.77 178.99 320.43 179.89
  Z"
/>
<path d="
  M 361.01 180.50
  L 363.43 178.07
  A 1.00 0.99 -64.8 0 1 364.22 177.78
  L 381.07 179.25
  A 1.03 0.97 -55.7 0 0 381.66 179.12
  Q 382.85 178.43 383.33 179.28
  A 1.02 1.02 0.0 0 1 383.35 180.23
  L 380.39 185.95
  A 0.99 0.98 20.0 0 1 379.28 186.46
  L 360.34 182.09
  Q 358.21 181.60 360.27 180.86
  L 360.64 180.73
  Q 360.85 180.66 361.01 180.50
  Z"
/>
<path d="
  M 374.71 190.10
  Q 376.66 190.57 374.92 191.57
  Q 373.77 192.23 372.38 191.53
  A 1.04 1.03 -36.3 0 0 371.77 191.44
  Q 358.30 193.65 344.82 195.67
  C 342.78 195.98 340.00 195.61 337.49 196.50
  A 1.02 1.01 -37.7 0 1 336.59 196.39
  L 329.79 191.77
  Q 328.10 190.63 330.04 189.99
  Q 338.68 187.16 344.43 186.15
  Q 351.26 184.94 359.47 186.66
  Q 366.85 188.21 374.71 190.10
  Z"
/>
</g>
<path fill="#eb8820" d="
  M 221.20 200.17
  Q 222.71 198.44 224.72 198.87
  C 227.63 199.50 232.52 199.47 227.87 194.82
  C 226.20 193.14 225.10 188.11 222.48 185.09
  C 220.99 183.37 220.12 180.67 218.76 178.71
  A 1.00 0.99 -8.9 0 0 218.22 178.32
  L 214.85 177.30
  Q 213.05 176.76 213.61 178.56
  Q 215.13 183.42 217.57 187.87
  Q 218.00 188.67 217.40 188.90
  A 0.41 0.40 53.3 0 1 217.01 188.84
  L 208.63 182.46
  Q 207.07 181.27 207.02 183.23
  L 206.80 190.96
  A 0.32 0.32 0.0 0 1 206.32 191.23
  Q 205.83 190.97 205.21 192.00
  L 201.26 184.65
  Q 200.38 183.01 199.50 184.65
  L 195.00 193.04
  C 192.44 193.83 194.77 191.88 194.21 191.14
  A 0.97 0.22 49.0 0 1 193.87 190.51
  L 193.78 183.26
  Q 193.76 181.32 192.19 182.47
  C 191.20 183.19 183.41 190.23 182.83 188.17
  A 0.83 0.82 -31.9 0 1 183.01 187.42
  L 184.71 185.54
  Q 184.83 185.40 184.90 185.22
  L 187.32 178.75
  A 1.00 0.99 -82.9 0 0 186.28 177.41
  L 184.24 177.63
  Q 182.22 177.85 183.27 176.11
  L 187.53 169.11
  A 1.01 1.00 52.2 0 0 187.63 168.28
  L 187.29 167.25
  L 187.29 167.00
  Q 187.77 165.86 187.22 165.02
  Q 184.69 161.15 183.36 157.90
  A 1.01 1.00 -11.4 0 1 184.28 156.52
  Q 184.94 156.51 185.57 156.71
  C 186.17 156.90 187.05 156.91 187.41 156.59
  A 0.80 0.79 -34.1 0 0 187.60 155.63
  Q 185.14 150.79 183.87 146.91
  C 183.10 144.59 191.63 151.59 192.16 151.94
  Q 193.72 152.95 193.71 151.09
  L 193.64 142.19
  A 0.80 0.79 -4.0 0 1 194.34 141.39
  Q 194.68 141.35 195.04 141.50
  L 199.51 150.00
  Q 200.42 151.71 201.29 149.99
  L 208.94 134.88
  Q 209.92 138.57 207.15 140.59
  A 1.03 1.02 73.1 0 0 206.74 141.37
  Q 206.60 146.22 207.28 151.04
  A 1.00 0.99 -21.7 0 0 208.85 151.71
  L 215.49 146.99
  Q 217.78 145.36 216.69 147.95
  L 213.53 155.46
  Q 212.81 157.18 214.65 156.83
  L 218.32 156.12
  A 0.99 0.98 -80.1 0 0 219.01 155.63
  Q 221.49 151.20 224.23 146.99
  Q 226.20 143.95 230.84 134.65
  Q 231.09 134.10 231.70 134.18
  A 0.65 0.64 -70.8 0 1 232.16 135.14
  L 213.86 166.74
  A 1.00 1.00 0.0 0 0 213.86 167.74
  L 231.86 198.84
  Q 232.74 200.37 230.97 200.34
  L 221.20 200.17
  Z
  M 206.09 174.42
  C 198.36 173.94 192.72 165.41 197.47 158.55
  C 198.36 157.26 197.45 156.53 196.21 157.25
  C 189.41 161.24 188.41 169.52 193.92 174.93
  Q 199.08 179.99 206.74 175.65
  Q 208.43 174.69 206.50 174.46
  Q 206.29 174.44 206.09 174.42
  Z"
/>
<g fill="#b4262a">
<path d="
  M 25.71 154.25
  C 26.39 157.08 25.33 159.79 25.07 161.83
  Q 24.60 165.52 23.16 169.09
  A 1.00 1.00 0.0 0 0 24.10 170.46
  L 43.44 170.42
  L 37.74 199.45
  A 1.00 1.00 0.0 0 1 36.76 200.26
  L 16.96 200.27
  A 0.99 0.99 0.0 0 1 15.99 199.03
  L 17.71 192.25
  Q 18.18 194.93 18.71 193.27
  A 1.01 1.00 -80.6 0 1 19.68 192.57
  L 32.16 192.84
  A 1.00 1.00 0.0 0 0 33.16 192.04
  L 36.08 177.68
  A 1.00 1.00 0.0 0 0 35.14 176.48
  L 26.96 176.18
  A 1.00 0.99 -79.4 0 0 25.98 176.86
  L 24.78 180.41
  A 1.01 1.00 10.5 0 0 25.69 181.73
  L 28.75 181.87
  A 1.00 1.00 0.0 0 1 29.69 183.07
  L 29.01 186.30
  A 1.00 1.00 0.0 0 1 28.07 187.09
  L 19.75 187.36
  A 1.01 0.99 86.7 0 0 18.79 188.45
  Q 18.88 189.56 17.96 190.25
  L 25.71 154.25
  Z"
/>
<path d="
  M 98.54 163.75
  L 105.66 199.06
  A 1.01 1.00 -5.6 0 1 104.67 200.26
  L 85.15 200.25
  A 1.01 1.00 83.9 0 1 84.17 199.45
  L 77.89 168.73
  C 78.63 169.88 78.93 170.63 80.41 170.63
  Q 89.40 170.63 98.37 170.72
  A 1.01 1.00 -4.6 0 0 99.37 169.55
  Q 99.27 168.96 98.80 168.47
  A 0.99 0.99 0.0 0 1 98.51 167.77
  L 98.54 163.75
  Z
  M 92.86 187.18
  A 0.61 0.61 0.0 0 1 92.27 186.67
  L 91.64 182.84
  A 0.61 0.61 0.0 0 1 92.16 182.14
  L 95.93 181.62
  A 0.61 0.61 0.0 0 0 96.43 180.86
  L 95.27 176.73
  A 0.61 0.61 0.0 0 0 94.69 176.29
  L 85.69 176.23
  A 0.61 0.61 0.0 0 0 85.09 176.96
  L 88.01 192.27
  A 0.61 0.61 0.0 0 0 88.62 192.77
  L 102.84 192.67
  A 0.61 0.61 0.0 0 0 103.44 192.01
  L 103.07 187.95
  A 0.61 0.61 0.0 0 0 102.48 187.40
  L 92.86 187.18
  Z"
/>
<path d="
  M 54.40 171.89
  C 55.91 180.34 66.15 179.51 67.93 171.59
  A 1.00 1.00 0.0 0 1 68.92 170.81
  L 72.66 170.86
  A 1.01 1.00 -84.6 0 1 73.63 172.04
  C 70.96 187.19 52.22 187.08 48.56 172.21
  A 1.01 1.00 -6.4 0 1 49.56 170.97
  L 53.43 171.06
  A 1.02 1.01 85.4 0 1 54.40 171.89
  Z"
/>
<path d="
  M 48.54 182.50
  Q 50.22 182.54 51.71 183.43
  A 1.00 0.99 -76.4 0 1 52.19 184.23
  L 52.40 187.81
  A 1.00 1.00 0.0 0 0 53.40 188.75
  L 56.55 188.75
  A 1.01 1.00 -5.1 0 1 57.54 189.57
  Q 57.82 191.12 57.12 192.60
  A 1.00 1.00 0.0 0 0 58.08 194.02
  L 63.38 193.71
  A 1.00 1.00 0.0 0 0 64.32 192.67
  L 64.23 189.84
  A 1.00 1.00 0.0 0 1 65.23 188.80
  L 68.60 188.82
  A 0.99 0.99 0.0 0 0 69.60 187.85
  Q 69.63 186.51 69.78 185.29
  Q 70.07 182.84 73.08 182.86
  L 68.28 199.57
  A 1.01 1.00 -81.9 0 1 67.32 200.30
  L 54.32 200.23
  A 1.01 1.00 81.9 0 1 53.36 199.50
  L 48.54 182.50
  Z"
/>
</g>
<path fill="#771e78" d="
  M 244.50 134.29
  L 244.12 134.44
  A 1.00 1.00 0.0 0 0 243.51 135.48
  L 249.01 186.06
  A 1.00 0.99 85.2 0 0 250.06 186.95
  L 257.46 186.50
  L 257.64 199.24
  A 1.01 1.00 89.7 0 1 256.64 200.26
  L 237.52 200.27
  A 1.00 1.00 0.0 0 1 236.52 199.27
  L 236.49 135.42
  A 1.00 1.00 0.0 0 1 237.47 134.42
  L 244.50 134.29
  Z"
/>
<g fill="#6f9c41">
<path d="
  M 306.39 140.90
  C 305.98 142.35 305.82 151.16 302.56 148.03
  A 1.02 1.01 20.8 0 1 302.25 147.35
  C 302.10 143.64 301.97 138.13 305.23 135.63
  A 1.07 1.03 23.7 0 1 305.80 135.42
  Q 313.11 135.14 312.65 141.68
  C 312.55 143.07 310.05 152.41 307.51 149.54
  A 0.99 0.97 32.4 0 1 307.29 148.61
  C 307.74 147.01 310.41 139.80 307.23 140.18
  A 1.00 1.00 0.0 0 0 306.39 140.90
  Z"
/>
<path d="
  M 295.65 148.59
  C 295.19 147.43 292.71 137.88 296.44 139.01
  A 1.02 0.98 85.6 0 1 297.06 139.56
  C 298.17 142.05 300.94 149.73 296.46 149.21
  A 1.00 1.00 0.0 0 1 295.65 148.59
  Z"
/>
<path d="
  M 277.39 143.43
  C 285.01 133.89 290.14 143.06 293.02 149.63
  A 1.01 0.99 56.2 0 1 292.81 150.75
  Q 291.73 151.80 290.20 151.37
  A 1.03 1.02 82.2 0 1 289.60 150.91
  C 288.27 148.61 284.05 140.58 282.47 145.62
  A 1.02 1.00 33.2 0 0 282.68 146.59
  L 287.95 152.42
  A 1.03 1.00 -62.6 0 1 288.20 153.25
  C 287.96 154.67 286.70 154.74 285.60 154.17
  Q 278.97 150.69 277.21 144.32
  A 0.99 0.99 0.0 0 1 277.39 143.43
  Z"
/>
<path d="
  M 274.56 154.04
  A 1.01 1.01 0.0 0 1 275.93 153.40
  L 283.02 156.52
  A 1.02 1.02 0.0 0 1 283.54 157.04
  C 286.27 163.23 273.51 157.67 274.56 154.04
  Z"
/>
<path d="
  M 267.19 164.69
  C 269.23 159.96 278.29 162.04 281.79 163.42
  A 1.00 0.99 11.9 0 1 282.43 164.39
  C 282.30 167.71 274.33 164.49 272.23 165.90
  Q 270.40 167.13 272.52 168.48
  A 1.02 0.99 59.1 0 0 273.08 168.63
  L 280.85 168.45
  A 1.01 0.99 -16.7 0 1 281.71 168.90
  C 283.79 172.05 276.22 172.62 274.46 172.68
  C 269.29 172.84 264.40 171.15 267.19 164.69
  Z"
/>
<path d="
  M 274.71 178.68
  C 276.07 177.42 284.85 171.13 284.39 177.22
  A 1.02 1.01 -10.3 0 1 283.81 178.05
  C 281.70 179.04 274.36 182.07 274.39 179.40
  A 0.97 0.97 0.0 0 1 274.71 178.68
  Z"
/>
<path d="
  M 279.69 185.19
  C 280.94 183.66 287.58 176.44 287.67 181.71
  A 1.01 1.00 66.5 0 1 287.39 182.43
  Q 285.28 184.56 283.27 186.74
  C 280.60 189.63 283.87 191.45 285.81 188.65
  C 286.24 188.04 290.99 180.00 291.71 184.56
  C 292.05 186.78 288.65 191.14 287.18 192.71
  C 281.36 198.94 274.47 191.52 279.69 185.19
  Z"
/>
<path d="
  M 308.67 184.87
  L 309.46 184.75
  A 1.01 0.99 69.9 0 1 310.48 185.23
  Q 313.44 190.25 313.35 196.19
  A 1.03 1.01 -17.9 0 1 312.93 196.99
  C 307.04 201.20 303.76 197.81 302.84 192.22
  C 302.59 190.72 302.16 183.57 305.23 185.95
  A 1.01 0.98 -77.2 0 1 305.60 186.56
  Q 306.10 189.24 306.39 191.90
  C 306.57 193.54 308.31 195.86 309.43 193.01
  A 1.03 0.99 49.7 0 0 309.47 192.39
  L 307.86 186.11
  A 1.00 1.00 0.0 0 1 308.67 184.87
  Z"
/>
<path d="
  M 294.27 194.23
  C 294.28 192.33 294.45 182.90 298.75 185.62
  A 1.01 1.00 20.4 0 1 299.21 186.61
  C 298.90 188.65 297.87 194.69 295.49 195.22
  A 1.01 1.00 83.8 0 1 294.27 194.23
  Z"
/>
</g>
</svg>
