<?xml version="1.0" encoding="UTF-8" standalone="no"?>
<!DOCTYPE svg PUBLIC "-//W3C//DTD SVG 1.1//EN" "http://www.w3.org/Graphics/SVG/1.1/DTD/svg11.dtd">
<svg xmlns="http://www.w3.org/2000/svg" version="1.1" viewBox="0 0 500 500">
<g stroke-width="2.00" fill="none" stroke-linecap="butt">
<path stroke="#165caf" vector-effect="non-scaling-stroke" d="
  M 117.81 0.00
  Q 117.59 0.16 117.36 0.23
  A 0.52 0.52 0.0 0 0 117.09 0.99
  Q 118.03 2.49 119.66 3.14
  A 1.01 1.01 0.0 0 1 120.25 3.81
  L 121.46 8.23
  A 0.99 0.99 0.0 0 0 122.67 8.93
  Q 125.45 8.23 127.05 10.76
  A 0.99 0.96 84.7 0 0 127.52 11.16
  Q 130.21 12.24 131.40 14.85
  A 0.98 0.97 87.6 0 0 131.95 15.36
  C 139.50 18.32 144.30 22.87 150.28 26.52
  C 152.39 27.80 153.76 29.56 155.79 30.97
  Q 170.02 40.90 183.84 51.38
  C 186.53 53.43 189.91 54.22 192.70 56.37
  Q 207.03 67.40 222.50 76.74
  A 0.99 0.99 0.0 0 1 222.92 77.25
  C 225.68 84.85 229.92 76.93 233.79 76.10
  C 238.37 75.11 237.10 80.62 232.47 79.79
  A 1.01 1.00 9.2 0 0 231.30 80.63
  Q 230.58 85.61 234.78 83.41
  A 0.80 0.79 -47.2 0 1 235.45 83.38
  Q 236.20 83.68 236.29 84.75"
/>
<path stroke="#1a50aa" vector-effect="non-scaling-stroke" d="
  M 236.29 84.75
  L 232.87 88.26
  A 1.02 0.99 67.5 0 0 232.59 88.96
  Q 232.52 115.38 232.45 141.82
  C 232.42 151.90 228.33 159.10 224.52 168.49
  Q 223.16 171.83 221.51 173.54
  Q 209.87 185.58 207.21 202.13
  A 1.02 0.99 75.4 0 1 206.86 202.75
  Q 205.49 203.86 205.50 205.25
  Q 205.52 210.09 205.49 214.77
  Q 205.47 216.55 203.96 215.62
  Q 203.15 215.12 202.24 214.82
  Q 200.70 214.33 199.94 213.82
  Q 184.93 203.92 171.16 192.33
  Q 168.85 190.38 166.98 187.88
  A 1.03 1.02 -13.4 0 0 166.35 187.50
  Q 162.46 186.80 159.78 183.84
  A 0.97 0.94 73.8 0 0 159.24 183.53
  Q 154.90 182.64 153.02 178.65
  A 0.99 0.95 0.5 0 0 152.54 178.18
  Q 140.80 172.61 131.10 163.96
  Q 129.24 162.31 126.84 161.31
  Q 120.01 158.47 115.09 154.41
  Q 101.62 143.28 93.56 137.74
  Q 78.33 127.27 63.46 116.29
  C 57.62 111.98 51.25 108.86 46.06 104.81
  Q 40.85 100.74 35.64 96.65
  C 32.84 94.44 29.63 92.76 26.59 90.68
  C 23.17 88.33 18.33 86.89 15.82 84.94
  Q 8.19 79.02 0.00 73.94"
/>
<path stroke="#1464b2" vector-effect="non-scaling-stroke" d="
  M 252.06 0.00
  Q 251.11 0.53 252.35 1.38
  Q 269.10 13.02 272.45 15.16
  A 0.98 0.93 7.5 0 1 272.85 15.65
  L 274.68 20.53
  A 0.98 0.95 -46.0 0 1 274.68 21.24
  L 274.08 22.79
  A 1.01 1.00 -58.0 0 0 274.33 23.88
  Q 275.72 25.19 275.07 26.98
  A 1.01 1.00 18.1 0 0 275.74 28.29
  Q 278.14 28.96 279.55 27.12
  Q 280.71 25.60 281.30 27.41
  L 281.89 29.25
  Q 281.94 29.38 282.02 29.50
  Q 285.01 33.92 290.11 35.28
  C 292.42 35.89 293.35 37.84 295.19 38.97
  Q 303.36 43.96 311.15 49.55
  A 1.00 0.99 -50.9 0 0 312.47 49.41
  Q 314.47 47.21 316.45 49.18
  A 0.97 0.96 -17.6 0 0 316.98 49.45
  Q 321.06 50.17 325.68 54.33
  Q 329.24 57.53 341.93 64.96
  C 345.40 66.99 346.63 70.05 351.77 68.73
  A 1.05 1.03 54.0 0 1 352.56 68.86
  Q 354.27 69.95 353.51 71.75
  A 0.99 0.98 -62.2 0 0 353.89 72.98
  C 356.89 74.88 358.78 80.16 363.10 77.31
  A 1.00 1.00 0.0 0 1 364.52 77.64
  Q 366.09 80.38 369.04 81.31
  A 1.00 0.99 -68.7 0 1 369.64 82.69
  Q 367.40 87.50 368.99 86.93
  Q 370.33 86.44 370.05 87.84
  Q 369.52 90.43 371.11 91.86
  A 1.00 1.00 0.0 0 0 372.65 91.60
  Q 375.53 86.44 378.40 91.72
  A 1.02 0.99 -0.7 0 0 378.83 92.13
  Q 387.01 96.23 394.09 102.00
  A 1.02 1.02 0.0 0 0 394.75 102.22
  Q 397.53 102.17 397.65 104.87
  A 0.99 0.99 0.0 0 0 398.21 105.73
  C 400.37 106.77 402.63 106.88 403.42 109.50
  A 0.98 0.98 0.0 0 1 403.03 110.61
  Q 401.75 111.49 401.06 110.45
  Q 400.18 109.12 399.64 110.61
  Q 398.40 114.00 400.55 116.66
  C 401.82 118.24 403.95 117.97 404.93 116.30
  A 1.01 1.00 -57.4 0 1 406.36 115.98
  L 412.37 120.10
  A 1.00 0.99 29.2 0 1 412.72 121.32
  Q 410.55 126.34 415.20 123.88
  A 1.01 1.00 -37.2 0 1 416.36 124.03
  L 418.03 125.61
  A 1.00 1.00 0.0 0 0 419.56 125.42
  Q 421.47 122.42 418.65 121.55
  Q 418.48 121.50 418.33 121.39
  Q 416.18 119.75 418.09 118.97
  A 0.99 0.99 0.0 0 1 419.03 119.08
  Q 421.02 120.43 423.15 119.72
  Q 424.82 119.16 424.45 120.88
  L 424.02 122.87
  A 1.00 1.00 0.0 0 0 424.63 124.01
  Q 426.01 124.56 426.08 126.09
  Q 426.09 126.36 425.97 126.59
  Q 425.50 127.51 425.85 128.36
  A 1.00 1.00 0.0 0 0 426.71 128.97
  Q 430.48 129.22 432.68 132.24
  A 1.00 0.99 35.5 0 1 432.83 133.11
  Q 432.77 133.32 432.73 133.51
  Q 432.02 137.26 434.48 134.34
  Q 435.91 132.64 438.04 132.88
  Q 439.43 133.03 441.51 134.97
  C 443.71 137.02 446.50 138.26 448.62 139.90
  C 452.38 142.81 456.74 145.33 460.26 147.95
  Q 473.09 157.52 486.83 165.72
  Q 488.94 166.98 492.03 169.61
  C 493.34 170.72 499.99 175.98 500.00 171.81"
/>
<path stroke="#165caf" vector-effect="non-scaling-stroke" d="
  M 500.00 342.81
  L 499.60 346.80
  A 1.00 1.00 0.0 0 1 498.04 347.53
  L 472.33 329.74
  Q 472.11 329.59 471.85 329.57
  L 470.15 329.42
  A 0.99 0.99 0.0 0 1 469.24 328.57
  Q 469.07 327.30 468.27 326.75
  Q 408.97 286.02 350.33 244.35
  C 329.68 229.67 308.71 215.43 288.10 200.67
  A 1.04 1.03 -34.5 0 0 287.27 200.52
  L 285.32 200.99"
/>
<path stroke="#1953ab" vector-effect="non-scaling-stroke" d="
  M 285.32 200.99
  Q 280.25 186.23 277.55 182.23
  C 270.74 172.13 263.29 162.53 260.24 150.52
  Q 258.97 145.51 259.00 137.35
  Q 259.06 123.68 259.21 110.01
  C 259.28 104.13 258.66 96.84 258.87 90.23
  C 258.98 86.54 257.85 85.18 254.18 85.09
  Q 245.24 84.88 236.29 84.75"
/>
<path stroke="#1a50aa" vector-effect="non-scaling-stroke" d="
  M 285.32 200.99
  Q 286.06 255.11 285.74 309.24
  A 1.04 1.01 20.1 0 0 286.12 310.03
  Q 288.12 311.62 292.05 312.46
  Q 327.20 320.03 363.55 336.91
  Q 370.36 340.07 376.19 343.91
  A 1.00 0.99 29.0 0 1 376.55 345.15
  C 374.75 349.23 372.25 349.30 368.39 347.67
  Q 329.97 331.47 288.33 327.57
  A 1.01 0.99 -71.0 0 0 287.39 328.04
  Q 285.54 331.02 287.73 333.50
  A 1.00 1.00 0.0 0 0 289.06 333.66
  Q 291.15 332.17 293.74 334.25
  Q 296.60 336.53 312.94 347.96
  C 313.81 348.57 313.91 349.18 314.48 350.01
  A 0.99 0.95 -5.7 0 0 314.94 350.37
  Q 324.77 354.26 331.42 362.47
  A 1.08 1.06 77.6 0 0 331.94 362.81
  L 335.00 363.63
  Q 335.26 363.69 335.51 363.63
  Q 341.42 362.14 347.29 363.76
  A 0.96 0.95 82.0 0 1 347.87 364.20
  Q 356.49 378.18 368.28 389.94"
/>
<path stroke="#8ea3d3" vector-effect="non-scaling-stroke" d="
  M 368.28 389.94
  L 369.27 396.77
  A 0.40 0.39 -20.3 0 1 369.08 397.17
  C 368.80 397.35 365.51 391.35 365.45 391.27
  Q 356.09 378.05 346.27 365.14
  A 1.00 0.99 71.1 0 0 345.48 364.75
  L 337.06 364.75
  A 1.00 0.99 0.3 0 0 336.06 365.73
  L 335.46 407.75
  A 1.00 1.00 0.0 0 0 336.50 408.76
  L 344.49 408.46
  A 1.00 0.99 -3.1 0 0 345.45 407.40
  Q 344.62 394.17 345.04 380.92
  Q 345.14 378.09 346.84 380.35
  L 368.00 408.42
  A 1.02 1.02 0.0 0 0 368.77 408.82
  L 376.35 409.06
  A 1.00 1.00 0.0 0 0 377.38 408.06
  L 377.46 366.50"
/>
<path stroke="#1a50aa" vector-effect="non-scaling-stroke" d="
  M 377.46 366.50
  L 378.83 367.49
  A 1.00 0.99 18.0 0 1 379.25 368.30
  L 379.25 406.73
  A 1.02 0.98 -28.5 0 1 379.07 407.30
  C 377.49 409.54 376.94 410.56 379.57 412.19
  C 389.40 418.28 398.14 425.47 407.70 431.86
  C 417.06 438.12 424.50 444.91 436.68 452.47
  C 440.63 454.92 440.86 458.53 445.95 459.24
  A 1.00 0.97 81.1 0 1 446.72 459.82
  L 447.40 461.33
  A 1.04 1.04 0.0 0 0 447.90 461.83
  Q 451.48 463.44 451.86 467.44
  Q 452.03 469.28 453.48 468.12
  Q 455.83 466.25 457.85 467.87
  Q 458.64 468.50 459.54 471.03
  Q 460.36 473.32 462.25 474.77
  Q 466.47 478.01 463.72 473.46
  L 463.14 472.51
  A 0.52 0.51 50.0 0 1 463.19 471.91
  C 464.13 470.83 476.05 480.05 478.97 482.31
  C 485.27 487.19 491.87 489.96 498.28 495.81
  A 1.02 1.01 -63.0 0 1 498.59 496.77
  Q 497.98 499.53 494.94 500.00"
/>
<path stroke="#1d43a5" vector-effect="non-scaling-stroke" d="
  M 235.94 500.00
  Q 236.32 499.62 236.23 499.10
  A 0.82 0.80 6.4 0 0 235.75 498.51
  Q 231.38 496.69 228.37 493.12
  Q 227.36 491.93 226.56 491.51
  Q 225.75 491.08 224.89 490.86
  Q 222.93 490.38 223.73 492.23
  Q 224.39 493.75 222.96 494.01
  C 220.86 494.38 220.72 494.71 221.36 496.68
  A 1.00 0.99 76.4 0 1 220.57 497.98
  L 217.01 498.55
  Q 214.99 498.87 215.07 496.90
  C 215.09 496.19 213.41 492.66 214.92 493.01
  A 0.79 0.79 0.0 0 1 215.45 493.42
  Q 217.13 496.71 217.86 493.57
  C 218.27 491.80 218.96 490.73 220.45 489.75
  A 1.00 0.99 47.3 0 0 220.51 488.13
  C 213.33 482.56 206.42 476.75 198.24 472.35
  Q 189.69 467.76 182.04 461.73
  C 174.85 456.07 166.83 452.20 160.02 445.97
  C 157.08 443.29 153.85 441.39 151.22 439.07
  Q 148.49 436.66 145.39 434.64
  A 0.98 0.96 52.7 0 0 144.56 434.52
  C 141.37 435.46 143.64 437.58 145.15 438.59
  Q 147.98 440.46 147.99 444.19
  A 0.31 0.30 78.0 0 1 147.80 444.49
  L 147.54 444.61
  A 0.42 0.41 -30.2 0 1 147.06 444.49
  L 144.26 441.09
  A 1.00 1.00 0.0 0 0 142.69 441.11
  L 141.63 442.50
  A 1.00 1.00 0.0 0 1 140.26 442.70
  L 137.64 440.86
  A 1.06 1.01 8.2 0 1 137.28 440.40
  L 135.82 436.55
  A 0.91 0.89 -51.0 0 1 135.77 436.01
  Q 136.47 432.40 135.38 428.93
  A 0.99 0.96 5.6 0 0 134.89 428.35
  C 133.76 427.75 134.18 431.10 133.10 432.12
  A 1.00 1.00 0.0 0 1 131.63 432.02
  L 130.64 430.77
  A 0.99 0.97 -52.9 0 1 130.51 429.76
  Q 131.20 428.15 131.47 426.44
  A 0.99 0.98 -64.1 0 0 131.17 425.55
  L 127.94 422.51
  Q 127.80 422.38 127.63 422.31
  C 126.48 421.85 123.18 418.38 122.42 419.88
  A 0.64 0.64 0.0 0 0 122.58 420.66
  C 124.66 422.42 124.07 425.86 123.80 428.80
  A 1.00 0.99 -84.6 0 0 124.70 429.89
  L 127.27 430.11
  A 1.00 1.00 0.0 0 1 128.17 431.24
  Q 127.59 435.60 124.73 432.67
  A 0.98 0.96 -18.1 0 0 124.14 432.38
  L 118.48 431.68
  Q 115.94 431.36 118.02 429.87
  L 121.40 427.45
  A 1.00 1.00 0.0 0 0 121.56 425.97
  L 117.92 421.92
  A 1.00 0.99 39.3 0 1 117.80 420.76
  C 119.01 418.65 118.93 417.28 117.77 414.96
  Q 116.45 412.31 116.59 409.23"
/>
<path stroke="#8ea3d3" vector-effect="non-scaling-stroke" d="
  M 116.59 409.23
  C 141.90 401.65 138.56 366.19 112.31 364.00
  Q 98.67 362.86 90.29 375.25"
/>
<path stroke="#1d43a5" vector-effect="non-scaling-stroke" d="
  M 90.29 375.25
  C 85.16 372.91 84.19 384.25 84.38 386.80
  C 84.66 390.45 81.63 389.78 79.56 388.57
  Q 71.27 383.72 62.50 377.37
  A 1.05 1.05 0.0 0 0 61.77 377.19
  Q 56.77 377.91 59.03 373.88"
/>
<path stroke="#8ea3d3" vector-effect="non-scaling-stroke" d="
  M 59.03 373.88
  Q 69.31 367.98 78.67 375.01
  Q 80.15 376.11 80.27 374.27
  L 80.75 367.01
  A 1.01 1.00 -80.4 0 0 80.02 365.98
  L 74.71 364.50"
/>
<path stroke="#1d43a5" vector-effect="non-scaling-stroke" d="
  M 74.71 364.50
  Q 74.77 364.37 74.82 364.24
  A 1.00 0.99 -72.4 0 0 74.14 362.91
  Q 73.02 362.63 71.93 362.28
  C 69.09 361.36 61.90 361.91 59.12 363.06
  C 55.73 364.47 53.54 366.11 50.53 367.18
  C 48.48 367.91 46.57 367.21 44.58 366.58
  A 1.01 1.01 0.0 0 1 43.94 365.94
  Q 43.25 363.88 41.40 362.97
  A 1.00 1.00 0.0 0 0 39.96 363.91
  L 39.99 364.68
  Q 40.00 364.74 39.99 364.79
  Q 39.91 366.05 39.01 365.63
  A 0.64 0.64 0.0 0 1 38.65 364.97
  C 39.77 356.20 29.11 365.82 29.24 360.55
  A 1.00 0.99 68.5 0 1 29.53 359.87
  Q 30.30 359.08 30.61 358.02
  A 0.96 0.95 -47.2 0 0 30.59 357.39
  L 29.34 354.04
  A 1.03 0.99 -89.0 0 0 28.81 353.47
  L 22.99 350.86
  A 1.01 1.00 -57.8 0 0 21.81 351.13
  L 20.36 352.86
  A 1.01 1.00 -50.3 0 1 18.96 353.00
  L 18.41 352.55
  Q 16.92 351.35 18.76 350.81
  Q 20.96 350.18 18.30 348.39
  A 1.00 0.99 -81.1 0 1 17.91 347.85
  Q 17.35 346.07 15.80 345.14
  A 1.00 1.00 0.0 0 0 14.52 345.35
  Q 13.03 347.13 13.69 349.24
  Q 14.23 350.96 12.49 350.51
  L 8.15 349.38
  Q 5.44 348.68 7.98 347.51
  Q 9.28 346.91 10.78 347.01
  A 1.01 1.00 -87.0 0 0 11.85 346.04
  L 11.86 345.60
  A 1.02 1.01 -82.1 0 0 11.10 344.59
  Q 8.65 343.99 9.49 341.83
  A 1.02 1.00 37.2 0 0 9.35 340.86
  Q 5.65 336.03 0.00 333.94"
/>
<path stroke="#8ea3d3" vector-effect="non-scaling-stroke" d="
  M 206.90 311.35
  Q 197.59 313.34 188.29 315.45
  Q 150.85 323.90 116.17 340.37
  C 110.42 343.10 114.91 345.00 118.49 343.59
  C 165.59 324.95 214.44 321.45 265.56 323.70
  C 302.18 325.31 338.23 332.65 371.95 347.27
  A 1.08 1.05 48.6 0 0 372.60 347.32
  C 375.37 346.60 374.54 344.44 372.70 343.51
  Q 331.19 322.48 284.85 312.79
  A 0.99 0.98 7.2 0 1 284.06 311.78
  C 284.50 300.37 284.03 285.36 284.02 277.42
  Q 283.97 251.24 284.31 225.07
  C 284.52 209.05 283.87 195.33 275.16 181.32
  C 265.86 166.39 257.22 155.95 257.22 138.50
  Q 257.23 112.96 257.26 87.93
  A 1.01 1.00 89.4 0 0 256.24 86.92
  L 235.71 87.33
  A 1.00 0.99 -0.9 0 0 234.73 88.33
  Q 234.81 114.10 234.68 139.00
  C 234.62 151.47 231.52 158.96 224.30 169.89
  C 215.17 183.72 208.02 195.64 207.98 213.00
  Q 207.89 261.69 207.69 310.38
  A 0.99 0.99 0.0 0 1 206.90 311.35"
/>
<path stroke="#8ea3d3" vector-effect="non-scaling-stroke" d="
  M 191.71 379.34
  C 194.09 387.95 204.33 388.22 209.43 394.08
  C 215.22 400.73 202.48 406.79 196.68 398.00
  A 1.01 1.00 -41.3 0 0 195.08 397.90
  L 191.09 402.55
  A 1.01 1.01 0.0 0 0 191.02 403.76
  C 201.52 419.40 231.67 403.50 215.86 387.91
  C 210.87 382.99 203.92 383.07 200.14 376.36
  A 1.02 1.02 0.0 0 1 200.14 375.38
  Q 203.03 370.11 209.01 371.22
  Q 210.65 371.53 212.26 374.05
  A 1.00 1.00 0.0 0 0 213.80 374.23
  L 217.87 370.30
  A 1.00 1.00 0.0 0 0 217.95 368.95
  C 209.54 358.67 187.58 364.41 191.71 379.34"
/>
<path stroke="#8ea3d3" vector-effect="non-scaling-stroke" d="
  M 150.69 380.27
  Q 150.55 376.86 152.51 379.65
  Q 162.91 394.49 174.28 408.63
  A 1.01 1.00 -19.3 0 0 175.06 409.00
  L 182.58 409.00
  A 1.00 1.00 0.0 0 0 183.58 407.97
  Q 182.85 386.82 183.56 365.68
  A 0.99 0.99 0.0 0 0 182.52 364.65
  L 175.65 364.93
  A 1.00 1.00 0.0 0 0 174.69 365.94
  L 174.77 392.82
  Q 174.79 396.03 172.95 393.39
  Q 162.92 378.96 152.02 365.17
  A 1.00 0.98 70.2 0 0 151.25 364.80
  L 143.02 364.65
  A 1.00 1.00 0.0 0 0 142.00 365.65
  L 142.00 408.01
  A 1.00 1.00 0.0 0 0 143.00 409.01
  L 149.99 408.97
  A 1.00 0.99 90.0 0 0 150.98 407.97
  C 151.01 399.37 151.86 389.25 150.73 380.68
  Q 150.70 380.47 150.69 380.27"
/>
<path stroke="#8ea3d3" vector-effect="non-scaling-stroke" d="
  M 228.93 364.71
  Q 227.79 364.26 227.76 365.49
  Q 227.65 370.13 227.77 389.54
  Q 227.82 397.63 229.03 400.68
  C 232.53 409.47 245.19 411.05 253.05 409.29
  Q 264.85 406.65 265.11 393.97
  Q 265.39 379.89 265.18 365.73
  A 1.00 0.99 -0.3 0 0 264.18 364.75
  L 257.44 364.75
  A 1.00 1.00 0.0 0 0 256.44 365.77
  Q 256.65 377.53 256.32 388.44
  Q 256.15 394.12 255.24 396.34
  C 253.04 401.70 245.95 403.30 241.30 400.40
  C 237.23 397.87 236.86 390.73 236.92 386.25
  Q 237.06 375.97 236.94 365.69
  A 1.00 1.00 0.0 0 0 235.93 364.70
  L 229.31 364.78
  Q 229.11 364.78 228.93 364.71"
/>
<path stroke="#8ea3d3" vector-effect="non-scaling-stroke" d="
  M 290.98 399.07
  L 280.86 365.50
  A 1.01 0.99 81.2 0 0 279.91 364.79
  L 271.77 364.73
  A 1.00 1.00 0.0 0 0 270.83 366.08
  L 286.29 408.35
  A 1.00 0.99 79.7 0 0 287.24 409.01
  L 294.65 408.88
  A 1.00 0.98 9.3 0 0 295.57 408.23
  L 311.21 366.10
  A 1.00 1.00 0.0 0 0 310.27 364.75
  L 302.28 364.75
  A 1.00 1.00 0.0 0 0 301.33 365.43
  C 297.42 377.03 292.49 389.17 291.71 399.06
  A 0.21 0.21 0.0 0 1 291.51 399.25
  L 291.24 399.26
  A 0.27 0.26 79.9 0 1 290.98 399.07"
/>
<path stroke="#8ea3d3" vector-effect="non-scaling-stroke" d="
  M 326.0720 365.0218
  A 0.27 0.27 0.0 0 0 325.8016 364.7523
  L 316.9616 364.7677
  A 0.27 0.27 0.0 0 0 316.6921 365.0382
  L 316.7680 408.5182
  A 0.27 0.27 0.0 0 0 317.0384 408.7877
  L 325.8784 408.7723
  A 0.27 0.27 0.0 0 0 326.1479 408.5018
  L 326.0720 365.0218"
/>
<path stroke="#8bacd6" vector-effect="non-scaling-stroke" d="
  M 377.46 366.50
  Q 378.07 364.36 376.02 364.39
  Q 372.81 364.45 369.66 364.53
  A 1.00 1.00 0.0 0 0 368.68 365.51
  L 368.28 389.94"
/>
<path stroke="#8bacd6" vector-effect="non-scaling-stroke" d="
  M 458.14 367.16
  A 10.62 10.62 0.0 0 0 447.52 356.54
  A 10.62 10.62 0.0 0 0 436.90 367.16
  A 10.62 10.62 0.0 0 0 447.52 377.78
  A 10.62 10.62 0.0 0 0 458.14 367.16"
/>
<path stroke="#1b4ba8" vector-effect="non-scaling-stroke" d="
  M 409.09 362.19
  C 401.99 362.16 394.18 365.62 389.85 371.97
  Q 388.53 373.90 388.47 373.98
  C 375.60 390.64 391.00 411.86 409.87 411.65
  C 421.48 411.51 433.31 400.79 434.21 389.38
  C 435.35 374.94 423.65 362.26 409.09 362.19"
/>
<path stroke="#8f9fd1" vector-effect="non-scaling-stroke" d="
  M 74.71 364.50
  Q 70.14 363.71 65.56 363.84
  C 47.68 364.35 37.61 382.93 45.74 398.19
  C 52.11 410.14 67.68 412.78 79.47 406.72
  A 1.00 0.99 77.1 0 0 80.01 405.85
  L 80.10 399.13
  Q 80.13 397.12 78.51 398.31
  Q 73.74 401.80 68.05 401.95
  C 51.81 402.39 47.33 382.89 59.03 373.88"
/>
<path stroke="#8f9fd1" vector-effect="non-scaling-stroke" d="
  M 90.29 375.25
  C 79.88 394.28 96.19 412.89 116.59 409.23"
/>
<path stroke="#8f9fd1" vector-effect="non-scaling-stroke" d="
  M 456.11 367.18
  A 8.58 8.58 0.0 0 0 447.53 358.60
  A 8.58 8.58 0.0 0 0 438.95 367.18
  A 8.58 8.58 0.0 0 0 447.53 375.76
  A 8.58 8.58 0.0 0 0 456.11 367.18"
/>
<path stroke="#8f9fd1" vector-effect="non-scaling-stroke" d="
  M 443.39 372.32
  C 444.67 373.32 445.92 373.17 445.97 371.53
  Q 446.00 370.50 446.02 369.43
  Q 446.05 366.88 447.76 368.77
  Q 448.60 369.70 448.86 371.10
  Q 449.36 373.75 450.52 373.08
  L 451.62 372.44
  A 1.00 0.99 -30.0 0 0 451.99 371.07
  L 450.59 368.69
  A 1.00 1.00 0.0 0 1 450.89 367.35
  C 458.41 362.32 446.32 361.10 443.81 361.57
  A 0.99 0.98 -5.5 0 0 443.00 362.55
  L 443.01 371.54
  A 1.00 0.99 19.3 0 0 443.39 372.32"
/>
<path stroke="#8f9fd1" vector-effect="non-scaling-stroke" d="
  M 447.44 362.91
  Q 445.07 363.70 446.52 365.89
  A 1.01 1.00 -21.4 0 0 447.53 366.33
  Q 451.43 365.65 448.41 363.09
  A 1.02 1.00 -34.0 0 0 447.44 362.91"
/>
<path stroke="#8f9fd1" vector-effect="non-scaling-stroke" d="
  M 432.3458 388.1254
  A 23.40 23.06 3.1 0 0 410.2271 363.8337
  A 23.40 23.06 3.1 0 0 385.6142 385.5946
  A 23.40 23.06 3.1 0 0 407.7329 409.8863
  A 23.40 23.06 3.1 0 0 432.3458 388.1254"
/>
<path stroke="#8ea3d3" vector-effect="non-scaling-stroke" d="
  M 110.5243 401.6100
  A 14.73 13.72 90.1 0 0 124.2700 386.9039
  A 14.73 13.72 90.1 0 0 110.5757 372.1500
  A 14.73 13.72 90.1 0 0 96.8300 386.8561
  A 14.73 13.72 90.1 0 0 110.5243 401.6100"
/>
<path stroke="#8f9fd1" vector-effect="non-scaling-stroke" d="
  M 408.6972 401.5873
  A 14.73 13.75 91.1 0 0 422.7275 387.1240
  A 14.73 13.75 91.1 0 0 409.2628 372.1327
  A 14.73 13.75 91.1 0 0 395.2325 386.5960
  A 14.73 13.75 91.1 0 0 408.6972 401.5873"
/>
<path stroke="#1b4ba8" vector-effect="non-scaling-stroke" d="
  M 420.7031 385.0488
  A 10.71 10.71 0.0 0 0 409.9558 374.3763
  L 407.7758 374.3839
  A 10.71 10.71 0.0 0 0 397.1033 385.1312
  L 397.1169 389.0312
  A 10.71 10.71 0.0 0 0 407.8642 399.7037
  L 410.0442 399.6961
  A 10.71 10.71 0.0 0 0 420.7167 388.9488
  L 420.7031 385.0488"
/>
</g>
<g fill="#1758ad">
<path d="
  M 0.00 0.00
  L 117.81 0.00
  Q 117.59 0.16 117.36 0.23
  A 0.52 0.52 0.0 0 0 117.09 0.99
  Q 118.03 2.49 119.66 3.14
  A 1.01 1.01 0.0 0 1 120.25 3.81
  L 121.46 8.23
  A 0.99 0.99 0.0 0 0 122.67 8.93
  Q 125.45 8.23 127.05 10.76
  A 0.99 0.96 84.7 0 0 127.52 11.16
  Q 130.21 12.24 131.40 14.85
  A 0.98 0.97 87.6 0 0 131.95 15.36
  C 139.50 18.32 144.30 22.87 150.28 26.52
  C 152.39 27.80 153.76 29.56 155.79 30.97
  Q 170.02 40.90 183.84 51.38
  C 186.53 53.43 189.91 54.22 192.70 56.37
  Q 207.03 67.40 222.50 76.74
  A 0.99 0.99 0.0 0 1 222.92 77.25
  C 225.68 84.85 229.92 76.93 233.79 76.10
  C 238.37 75.11 237.10 80.62 232.47 79.79
  A 1.01 1.00 9.2 0 0 231.30 80.63
  Q 230.58 85.61 234.78 83.41
  A 0.80 0.79 -47.2 0 1 235.45 83.38
  Q 236.20 83.68 236.29 84.75
  L 232.87 88.26
  A 1.02 0.99 67.5 0 0 232.59 88.96
  Q 232.52 115.38 232.45 141.82
  C 232.42 151.90 228.33 159.10 224.52 168.49
  Q 223.16 171.83 221.51 173.54
  Q 209.87 185.58 207.21 202.13
  A 1.02 0.99 75.4 0 1 206.86 202.75
  Q 205.49 203.86 205.50 205.25
  Q 205.52 210.09 205.49 214.77
  Q 205.47 216.55 203.96 215.62
  Q 203.15 215.12 202.24 214.82
  Q 200.70 214.33 199.94 213.82
  Q 184.93 203.92 171.16 192.33
  Q 168.85 190.38 166.98 187.88
  A 1.03 1.02 -13.4 0 0 166.35 187.50
  Q 162.46 186.80 159.78 183.84
  A 0.97 0.94 73.8 0 0 159.24 183.53
  Q 154.90 182.64 153.02 178.65
  A 0.99 0.95 0.5 0 0 152.54 178.18
  Q 140.80 172.61 131.10 163.96
  Q 129.24 162.31 126.84 161.31
  Q 120.01 158.47 115.09 154.41
  Q 101.62 143.28 93.56 137.74
  Q 78.33 127.27 63.46 116.29
  C 57.62 111.98 51.25 108.86 46.06 104.81
  Q 40.85 100.74 35.64 96.65
  C 32.84 94.44 29.63 92.76 26.59 90.68
  C 23.17 88.33 18.33 86.89 15.82 84.94
  Q 8.19 79.02 0.00 73.94
  L 0.00 0.00
  Z"
/>
<path d="
  M 500.00 342.81
  L 500.00 500.00
  L 494.94 500.00
  Q 497.98 499.53 498.59 496.77
  A 1.02 1.01 -63.0 0 0 498.28 495.81
  C 491.87 489.96 485.27 487.19 478.97 482.31
  C 476.05 480.05 464.13 470.83 463.19 471.91
  A 0.52 0.51 50.0 0 0 463.14 472.51
  L 463.72 473.46
  Q 466.47 478.01 462.25 474.77
  Q 460.36 473.32 459.54 471.03
  Q 458.64 468.50 457.85 467.87
  Q 455.83 466.25 453.48 468.12
  Q 452.03 469.28 451.86 467.44
  Q 451.48 463.44 447.90 461.83
  A 1.04 1.04 0.0 0 1 447.40 461.33
  L 446.72 459.82
  A 1.00 0.97 81.1 0 0 445.95 459.24
  C 440.86 458.53 440.63 454.92 436.68 452.47
  C 424.50 444.91 417.06 438.12 407.70 431.86
  C 398.14 425.47 389.40 418.28 379.57 412.19
  C 376.94 410.56 377.49 409.54 379.07 407.30
  A 1.02 0.98 -28.5 0 0 379.25 406.73
  L 379.25 368.30
  A 1.00 0.99 18.0 0 0 378.83 367.49
  L 377.46 366.50
  Q 378.07 364.36 376.02 364.39
  Q 372.81 364.45 369.66 364.53
  A 1.00 1.00 0.0 0 0 368.68 365.51
  L 368.28 389.94
  Q 356.49 378.18 347.87 364.20
  A 0.96 0.95 82.0 0 0 347.29 363.76
  Q 341.42 362.14 335.51 363.63
  Q 335.26 363.69 335.00 363.63
  L 331.94 362.81
  A 1.08 1.06 77.6 0 1 331.42 362.47
  Q 324.77 354.26 314.94 350.37
  A 0.99 0.95 -5.7 0 1 314.48 350.01
  C 313.91 349.18 313.81 348.57 312.94 347.96
  Q 296.60 336.53 293.74 334.25
  Q 291.15 332.17 289.06 333.66
  A 1.00 1.00 0.0 0 1 287.73 333.50
  Q 285.54 331.02 287.39 328.04
  A 1.01 0.99 -71.0 0 1 288.33 327.57
  Q 329.97 331.47 368.39 347.67
  C 372.25 349.30 374.75 349.23 376.55 345.15
  A 1.00 0.99 29.0 0 0 376.19 343.91
  Q 370.36 340.07 363.55 336.91
  Q 327.20 320.03 292.05 312.46
  Q 288.12 311.62 286.12 310.03
  A 1.04 1.01 20.1 0 1 285.74 309.24
  Q 286.06 255.11 285.32 200.99
  L 287.27 200.52
  A 1.04 1.03 -34.5 0 1 288.10 200.67
  C 308.71 215.43 329.68 229.67 350.33 244.35
  Q 408.97 286.02 468.27 326.75
  Q 469.07 327.30 469.24 328.57
  A 0.99 0.99 0.0 0 0 470.15 329.42
  L 471.85 329.57
  Q 472.11 329.59 472.33 329.74
  L 498.04 347.53
  A 1.00 1.00 0.0 0 0 499.60 346.80
  L 500.00 342.81
  Z
  M 458.14 367.16
  A 10.62 10.62 0.0 0 0 447.52 356.54
  A 10.62 10.62 0.0 0 0 436.90 367.16
  A 10.62 10.62 0.0 0 0 447.52 377.78
  A 10.62 10.62 0.0 0 0 458.14 367.16
  Z
  M 409.09 362.19
  C 401.99 362.16 394.18 365.62 389.85 371.97
  Q 388.53 373.90 388.47 373.98
  C 375.60 390.64 391.00 411.86 409.87 411.65
  C 421.48 411.51 433.31 400.79 434.21 389.38
  C 435.35 374.94 423.65 362.26 409.09 362.19
  Z"
/>
<rect x="-11.80" y="-12.66" transform="translate(408.91,387.04) rotate(-0.2)" width="23.60" height="25.32" rx="10.71"/>
</g>
<g fill="#ffffff">
<path d="
  M 207.69 310.38
  Q 207.89 261.69 207.98 213.00
  C 208.02 195.64 215.17 183.72 224.30 169.89
  C 231.52 158.96 234.62 151.47 234.68 139.00
  Q 234.81 114.10 234.73 88.33
  A 1.00 0.99 -0.9 0 1 235.71 87.33
  L 256.24 86.92
  A 1.01 1.00 89.4 0 1 257.26 87.93
  Q 257.23 112.96 257.22 138.50
  C 257.22 155.95 265.86 166.39 275.16 181.32
  C 283.87 195.33 284.52 209.05 284.31 225.07
  Q 283.97 251.24 284.02 277.42
  C 284.03 285.36 284.50 300.37 284.06 311.78
  A 0.99 0.98 7.2 0 0 284.85 312.79
  Q 331.19 322.48 372.70 343.51
  C 374.54 344.44 375.37 346.60 372.60 347.32
  A 1.08 1.05 48.6 0 1 371.95 347.27
  C 338.23 332.65 302.18 325.31 265.56 323.70
  C 214.44 321.45 165.59 324.95 118.49 343.59
  C 114.91 345.00 110.42 343.10 116.17 340.37
  Q 150.85 323.90 188.29 315.45
  Q 197.59 313.34 206.90 311.35
  A 0.99 0.99 0.0 0 0 207.69 310.38
  Z"
/>
<path d="
  M 458.14 367.16
  A 10.62 10.62 0.0 0 1 447.52 377.78
  A 10.62 10.62 0.0 0 1 436.90 367.16
  A 10.62 10.62 0.0 0 1 447.52 356.54
  A 10.62 10.62 0.0 0 1 458.14 367.16
  Z
  M 456.11 367.18
  A 8.58 8.58 0.0 0 0 447.53 358.60
  A 8.58 8.58 0.0 0 0 438.95 367.18
  A 8.58 8.58 0.0 0 0 447.53 375.76
  A 8.58 8.58 0.0 0 0 456.11 367.18
  Z"
/>
<path d="
  M 443.39 372.32
  A 1.00 0.99 19.3 0 1 443.01 371.54
  L 443.00 362.55
  A 0.99 0.98 -5.5 0 1 443.81 361.57
  C 446.32 361.10 458.41 362.32 450.89 367.35
  A 1.00 1.00 0.0 0 0 450.59 368.69
  L 451.99 371.07
  A 1.00 0.99 -30.0 0 1 451.62 372.44
  L 450.52 373.08
  Q 449.36 373.75 448.86 371.10
  Q 448.60 369.70 447.76 368.77
  Q 446.05 366.88 446.02 369.43
  Q 446.00 370.50 445.97 371.53
  C 445.92 373.17 444.67 373.32 443.39 372.32
  Z
  M 447.44 362.91
  Q 445.07 363.70 446.52 365.89
  A 1.01 1.00 -21.4 0 0 447.53 366.33
  Q 451.43 365.65 448.41 363.09
  A 1.02 1.00 -34.0 0 0 447.44 362.91
  Z"
/>
<path d="
  M 74.71 364.50
  L 80.02 365.98
  A 1.01 1.00 -80.4 0 1 80.75 367.01
  L 80.27 374.27
  Q 80.15 376.11 78.67 375.01
  Q 69.31 367.98 59.03 373.88
  C 47.33 382.89 51.81 402.39 68.05 401.95
  Q 73.74 401.80 78.51 398.31
  Q 80.13 397.12 80.10 399.13
  L 80.01 405.85
  A 1.00 0.99 77.1 0 1 79.47 406.72
  C 67.68 412.78 52.11 410.14 45.74 398.19
  C 37.61 382.93 47.68 364.35 65.56 363.84
  Q 70.14 363.71 74.71 364.50
  Z"
/>
<path d="
  M 116.59 409.23
  C 96.19 412.89 79.88 394.28 90.29 375.25
  Q 98.67 362.86 112.31 364.00
  C 138.56 366.19 141.90 401.65 116.59 409.23
  Z
  M 110.5243 401.6100
  A 14.73 13.72 90.1 0 0 124.2700 386.9039
  A 14.73 13.72 90.1 0 0 110.5757 372.1500
  A 14.73 13.72 90.1 0 0 96.8300 386.8561
  A 14.73 13.72 90.1 0 0 110.5243 401.6100
  Z"
/>
<path d="
  M 209.43 394.08
  C 204.33 388.22 194.09 387.95 191.71 379.34
  C 187.58 364.41 209.54 358.67 217.95 368.95
  A 1.00 1.00 0.0 0 1 217.87 370.30
  L 213.80 374.23
  A 1.00 1.00 0.0 0 1 212.26 374.05
  Q 210.65 371.53 209.01 371.22
  Q 203.03 370.11 200.14 375.38
  A 1.02 1.02 0.0 0 0 200.14 376.36
  C 203.92 383.07 210.87 382.99 215.86 387.91
  C 231.67 403.50 201.52 419.40 191.02 403.76
  A 1.01 1.01 0.0 0 1 191.09 402.55
  L 195.08 397.90
  A 1.01 1.00 -41.3 0 1 196.68 398.00
  C 202.48 406.79 215.22 400.73 209.43 394.08
  Z"
/>
<path d="
  M 432.3458 388.1254
  A 23.40 23.06 3.1 0 1 407.7329 409.8863
  A 23.40 23.06 3.1 0 1 385.6142 385.5946
  A 23.40 23.06 3.1 0 1 410.2271 363.8337
  A 23.40 23.06 3.1 0 1 432.3458 388.1254
  Z
  M 408.6972 401.5873
  A 14.73 13.75 91.1 0 0 422.7275 387.1240
  A 14.73 13.75 91.1 0 0 409.2628 372.1327
  A 14.73 13.75 91.1 0 0 395.2325 386.5960
  A 14.73 13.75 91.1 0 0 408.6972 401.5873
  Z"
/>
<path d="
  M 150.69 380.27
  Q 150.70 380.47 150.73 380.68
  C 151.86 389.25 151.01 399.37 150.98 407.97
  A 1.00 0.99 -90.0 0 1 149.99 408.97
  L 143.00 409.01
  A 1.00 1.00 0.0 0 1 142.00 408.01
  L 142.00 365.65
  A 1.00 1.00 0.0 0 1 143.02 364.65
  L 151.25 364.80
  A 1.00 0.98 70.2 0 1 152.02 365.17
  Q 162.92 378.96 172.95 393.39
  Q 174.79 396.03 174.77 392.82
  L 174.69 365.94
  A 1.00 1.00 0.0 0 1 175.65 364.93
  L 182.52 364.65
  A 0.99 0.99 0.0 0 1 183.56 365.68
  Q 182.85 386.82 183.58 407.97
  A 1.00 1.00 0.0 0 1 182.58 409.00
  L 175.06 409.00
  A 1.01 1.00 -19.3 0 1 174.28 408.63
  Q 162.91 394.49 152.51 379.65
  Q 150.55 376.86 150.69 380.27
  Z"
/>
<path d="
  M 229.31 364.78
  L 235.93 364.70
  A 1.00 1.00 0.0 0 1 236.94 365.69
  Q 237.06 375.97 236.92 386.25
  C 236.86 390.73 237.23 397.87 241.30 400.40
  C 245.95 403.30 253.04 401.70 255.24 396.34
  Q 256.15 394.12 256.32 388.44
  Q 256.65 377.53 256.44 365.77
  A 1.00 1.00 0.0 0 1 257.44 364.75
  L 264.18 364.75
  A 1.00 0.99 -0.3 0 1 265.18 365.73
  Q 265.39 379.89 265.11 393.97
  Q 264.85 406.65 253.05 409.29
  C 245.19 411.05 232.53 409.47 229.03 400.68
  Q 227.82 397.63 227.77 389.54
  Q 227.65 370.13 227.76 365.49
  Q 227.79 364.26 228.93 364.71
  Q 229.11 364.78 229.31 364.78
  Z"
/>
<path d="
  M 377.46 366.50
  L 377.38 408.06
  A 1.00 1.00 0.0 0 1 376.35 409.06
  L 368.77 408.82
  A 1.02 1.02 0.0 0 1 368.00 408.42
  L 346.84 380.35
  Q 345.14 378.09 345.04 380.92
  Q 344.62 394.17 345.45 407.40
  A 1.00 0.99 -3.1 0 1 344.49 408.46
  L 336.50 408.76
  A 1.00 1.00 0.0 0 1 335.46 407.75
  L 336.06 365.73
  A 1.00 0.99 0.3 0 1 337.06 364.75
  L 345.48 364.75
  A 1.00 0.99 71.1 0 1 346.27 365.14
  Q 356.09 378.05 365.45 391.27
  C 365.51 391.35 368.80 397.35 369.08 397.17
  A 0.40 0.39 -20.3 0 0 369.27 396.77
  L 368.28 389.94
  L 368.68 365.51
  A 1.00 1.00 0.0 0 1 369.66 364.53
  Q 372.81 364.45 376.02 364.39
  Q 378.07 364.36 377.46 366.50
  Z"
/>
<path d="
  M 291.24 399.26
  L 291.51 399.25
  A 0.21 0.21 0.0 0 0 291.71 399.06
  C 292.49 389.17 297.42 377.03 301.33 365.43
  A 1.00 1.00 0.0 0 1 302.28 364.75
  L 310.27 364.75
  A 1.00 1.00 0.0 0 1 311.21 366.10
  L 295.57 408.23
  A 1.00 0.98 9.3 0 1 294.65 408.88
  L 287.24 409.01
  A 1.00 0.99 79.7 0 1 286.29 408.35
  L 270.83 366.08
  A 1.00 1.00 0.0 0 1 271.77 364.73
  L 279.91 364.79
  A 1.01 0.99 81.2 0 1 280.86 365.50
  L 290.98 399.07
  A 0.27 0.26 79.9 0 0 291.24 399.26
  Z"
/>
<rect x="-4.69" y="-22.01" transform="translate(321.42,386.77) rotate(-0.1)" width="9.38" height="44.02" rx="0.27"/>
</g>
<g fill="#1c47a6">
<path d="
  M 0.00 73.94
  Q 8.19 79.02 15.82 84.94
  C 18.33 86.89 23.17 88.33 26.59 90.68
  C 29.63 92.76 32.84 94.44 35.64 96.65
  Q 40.85 100.74 46.06 104.81
  C 51.25 108.86 57.62 111.98 63.46 116.29
  Q 78.33 127.27 93.56 137.74
  Q 101.62 143.28 115.09 154.41
  Q 120.01 158.47 126.84 161.31
  Q 129.24 162.31 131.10 163.96
  Q 140.80 172.61 152.54 178.18
  A 0.99 0.95 0.5 0 1 153.02 178.65
  Q 154.90 182.64 159.24 183.53
  A 0.97 0.94 73.8 0 1 159.78 183.84
  Q 162.46 186.80 166.35 187.50
  A 1.03 1.02 -13.4 0 1 166.98 187.88
  Q 168.85 190.38 171.16 192.33
  Q 184.93 203.92 199.94 213.82
  Q 200.70 214.33 202.24 214.82
  Q 203.15 215.12 203.96 215.62
  Q 205.47 216.55 205.49 214.77
  Q 205.52 210.09 205.50 205.25
  Q 205.49 203.86 206.86 202.75
  A 1.02 0.99 75.4 0 0 207.21 202.13
  Q 209.87 185.58 221.51 173.54
  Q 223.16 171.83 224.52 168.49
  C 228.33 159.10 232.42 151.90 232.45 141.82
  Q 232.52 115.38 232.59 88.96
  A 1.02 0.99 67.5 0 1 232.87 88.26
  L 236.29 84.75
  Q 245.24 84.88 254.18 85.09
  C 257.85 85.18 258.98 86.54 258.87 90.23
  C 258.66 96.84 259.28 104.13 259.21 110.01
  Q 259.06 123.68 259.00 137.35
  Q 258.97 145.51 260.24 150.52
  C 263.29 162.53 270.74 172.13 277.55 182.23
  Q 280.25 186.23 285.32 200.99
  Q 286.06 255.11 285.74 309.24
  A 1.04 1.01 20.1 0 0 286.12 310.03
  Q 288.12 311.62 292.05 312.46
  Q 327.20 320.03 363.55 336.91
  Q 370.36 340.07 376.19 343.91
  A 1.00 0.99 29.0 0 1 376.55 345.15
  C 374.75 349.23 372.25 349.30 368.39 347.67
  Q 329.97 331.47 288.33 327.57
  A 1.01 0.99 -71.0 0 0 287.39 328.04
  Q 285.54 331.02 287.73 333.50
  A 1.00 1.00 0.0 0 0 289.06 333.66
  Q 291.15 332.17 293.74 334.25
  Q 296.60 336.53 312.94 347.96
  C 313.81 348.57 313.91 349.18 314.48 350.01
  A 0.99 0.95 -5.7 0 0 314.94 350.37
  Q 324.77 354.26 331.42 362.47
  A 1.08 1.06 77.6 0 0 331.94 362.81
  L 335.00 363.63
  Q 335.26 363.69 335.51 363.63
  Q 341.42 362.14 347.29 363.76
  A 0.96 0.95 82.0 0 1 347.87 364.20
  Q 356.49 378.18 368.28 389.94
  L 369.27 396.77
  A 0.40 0.39 -20.3 0 1 369.08 397.17
  C 368.80 397.35 365.51 391.35 365.45 391.27
  Q 356.09 378.05 346.27 365.14
  A 1.00 0.99 71.1 0 0 345.48 364.75
  L 337.06 364.75
  A 1.00 0.99 0.3 0 0 336.06 365.73
  L 335.46 407.75
  A 1.00 1.00 0.0 0 0 336.50 408.76
  L 344.49 408.46
  A 1.00 0.99 -3.1 0 0 345.45 407.40
  Q 344.62 394.17 345.04 380.92
  Q 345.14 378.09 346.84 380.35
  L 368.00 408.42
  A 1.02 1.02 0.0 0 0 368.77 408.82
  L 376.35 409.06
  A 1.00 1.00 0.0 0 0 377.38 408.06
  L 377.46 366.50
  L 378.83 367.49
  A 1.00 0.99 18.0 0 1 379.25 368.30
  L 379.25 406.73
  A 1.02 0.98 -28.5 0 1 379.07 407.30
  C 377.49 409.54 376.94 410.56 379.57 412.19
  C 389.40 418.28 398.14 425.47 407.70 431.86
  C 417.06 438.12 424.50 444.91 436.68 452.47
  C 440.63 454.92 440.86 458.53 445.95 459.24
  A 1.00 0.97 81.1 0 1 446.72 459.82
  L 447.40 461.33
  A 1.04 1.04 0.0 0 0 447.90 461.83
  Q 451.48 463.44 451.86 467.44
  Q 452.03 469.28 453.48 468.12
  Q 455.83 466.25 457.85 467.87
  Q 458.64 468.50 459.54 471.03
  Q 460.36 473.32 462.25 474.77
  Q 466.47 478.01 463.72 473.46
  L 463.14 472.51
  A 0.52 0.51 50.0 0 1 463.19 471.91
  C 464.13 470.83 476.05 480.05 478.97 482.31
  C 485.27 487.19 491.87 489.96 498.28 495.81
  A 1.02 1.01 -63.0 0 1 498.59 496.77
  Q 497.98 499.53 494.94 500.00
  L 235.94 500.00
  Q 236.32 499.62 236.23 499.10
  A 0.82 0.80 6.4 0 0 235.75 498.51
  Q 231.38 496.69 228.37 493.12
  Q 227.36 491.93 226.56 491.51
  Q 225.75 491.08 224.89 490.86
  Q 222.93 490.38 223.73 492.23
  Q 224.39 493.75 222.96 494.01
  C 220.86 494.38 220.72 494.71 221.36 496.68
  A 1.00 0.99 76.4 0 1 220.57 497.98
  L 217.01 498.55
  Q 214.99 498.87 215.07 496.90
  C 215.09 496.19 213.41 492.66 214.92 493.01
  A 0.79 0.79 0.0 0 1 215.45 493.42
  Q 217.13 496.71 217.86 493.57
  C 218.27 491.80 218.96 490.73 220.45 489.75
  A 1.00 0.99 47.3 0 0 220.51 488.13
  C 213.33 482.56 206.42 476.75 198.24 472.35
  Q 189.69 467.76 182.04 461.73
  C 174.85 456.07 166.83 452.20 160.02 445.97
  C 157.08 443.29 153.85 441.39 151.22 439.07
  Q 148.49 436.66 145.39 434.64
  A 0.98 0.96 52.7 0 0 144.56 434.52
  C 141.37 435.46 143.64 437.58 145.15 438.59
  Q 147.98 440.46 147.99 444.19
  A 0.31 0.30 78.0 0 1 147.80 444.49
  L 147.54 444.61
  A 0.42 0.41 -30.2 0 1 147.06 444.49
  L 144.26 441.09
  A 1.00 1.00 0.0 0 0 142.69 441.11
  L 141.63 442.50
  A 1.00 1.00 0.0 0 1 140.26 442.70
  L 137.64 440.86
  A 1.06 1.01 8.2 0 1 137.28 440.40
  L 135.82 436.55
  A 0.91 0.89 -51.0 0 1 135.77 436.01
  Q 136.47 432.40 135.38 428.93
  A 0.99 0.96 5.6 0 0 134.89 428.35
  C 133.76 427.75 134.18 431.10 133.10 432.12
  A 1.00 1.00 0.0 0 1 131.63 432.02
  L 130.64 430.77
  A 0.99 0.97 -52.9 0 1 130.51 429.76
  Q 131.20 428.15 131.47 426.44
  A 0.99 0.98 -64.1 0 0 131.17 425.55
  L 127.94 422.51
  Q 127.80 422.38 127.63 422.31
  C 126.48 421.85 123.18 418.38 122.42 419.88
  A 0.64 0.64 0.0 0 0 122.58 420.66
  C 124.66 422.42 124.07 425.86 123.80 428.80
  A 1.00 0.99 -84.6 0 0 124.70 429.89
  L 127.27 430.11
  A 1.00 1.00 0.0 0 1 128.17 431.24
  Q 127.59 435.60 124.73 432.67
  A 0.98 0.96 -18.1 0 0 124.14 432.38
  L 118.48 431.68
  Q 115.94 431.36 118.02 429.87
  L 121.40 427.45
  A 1.00 1.00 0.0 0 0 121.56 425.97
  L 117.92 421.92
  A 1.00 0.99 39.3 0 1 117.80 420.76
  C 119.01 418.65 118.93 417.28 117.77 414.96
  Q 116.45 412.31 116.59 409.23
  C 141.90 401.65 138.56 366.19 112.31 364.00
  Q 98.67 362.86 90.29 375.25
  C 85.16 372.91 84.19 384.25 84.38 386.80
  C 84.66 390.45 81.63 389.78 79.56 388.57
  Q 71.27 383.72 62.50 377.37
  A 1.05 1.05 0.0 0 0 61.77 377.19
  Q 56.77 377.91 59.03 373.88
  Q 69.31 367.98 78.67 375.01
  Q 80.15 376.11 80.27 374.27
  L 80.75 367.01
  A 1.01 1.00 -80.4 0 0 80.02 365.98
  L 74.71 364.50
  Q 74.77 364.37 74.82 364.24
  A 1.00 0.99 -72.4 0 0 74.14 362.91
  Q 73.02 362.63 71.93 362.28
  C 69.09 361.36 61.90 361.91 59.12 363.06
  C 55.73 364.47 53.54 366.11 50.53 367.18
  C 48.48 367.91 46.57 367.21 44.58 366.58
  A 1.01 1.01 0.0 0 1 43.94 365.94
  Q 43.25 363.88 41.40 362.97
  A 1.00 1.00 0.0 0 0 39.96 363.91
  L 39.99 364.68
  Q 40.00 364.74 39.99 364.79
  Q 39.91 366.05 39.01 365.63
  A 0.64 0.64 0.0 0 1 38.65 364.97
  C 39.77 356.20 29.11 365.82 29.24 360.55
  A 1.00 0.99 68.5 0 1 29.53 359.87
  Q 30.30 359.08 30.61 358.02
  A 0.96 0.95 -47.2 0 0 30.59 357.39
  L 29.34 354.04
  A 1.03 0.99 -89.0 0 0 28.81 353.47
  L 22.99 350.86
  A 1.01 1.00 -57.8 0 0 21.81 351.13
  L 20.36 352.86
  A 1.01 1.00 -50.3 0 1 18.96 353.00
  L 18.41 352.55
  Q 16.92 351.35 18.76 350.81
  Q 20.96 350.18 18.30 348.39
  A 1.00 0.99 -81.1 0 1 17.91 347.85
  Q 17.35 346.07 15.80 345.14
  A 1.00 1.00 0.0 0 0 14.52 345.35
  Q 13.03 347.13 13.69 349.24
  Q 14.23 350.96 12.49 350.51
  L 8.15 349.38
  Q 5.44 348.68 7.98 347.51
  Q 9.28 346.91 10.78 347.01
  A 1.01 1.00 -87.0 0 0 11.85 346.04
  L 11.86 345.60
  A 1.02 1.01 -82.1 0 0 11.10 344.59
  Q 8.65 343.99 9.49 341.83
  A 1.02 1.00 37.2 0 0 9.35 340.86
  Q 5.65 336.03 0.00 333.94
  L 0.00 73.94
  Z
  M 206.90 311.35
  Q 197.59 313.34 188.29 315.45
  Q 150.85 323.90 116.17 340.37
  C 110.42 343.10 114.91 345.00 118.49 343.59
  C 165.59 324.95 214.44 321.45 265.56 323.70
  C 302.18 325.31 338.23 332.65 371.95 347.27
  A 1.08 1.05 48.6 0 0 372.60 347.32
  C 375.37 346.60 374.54 344.44 372.70 343.51
  Q 331.19 322.48 284.85 312.79
  A 0.99 0.98 7.2 0 1 284.06 311.78
  C 284.50 300.37 284.03 285.36 284.02 277.42
  Q 283.97 251.24 284.31 225.07
  C 284.52 209.05 283.87 195.33 275.16 181.32
  C 265.86 166.39 257.22 155.95 257.22 138.50
  Q 257.23 112.96 257.26 87.93
  A 1.01 1.00 89.4 0 0 256.24 86.92
  L 235.71 87.33
  A 1.00 0.99 -0.9 0 0 234.73 88.33
  Q 234.81 114.10 234.68 139.00
  C 234.62 151.47 231.52 158.96 224.30 169.89
  C 215.17 183.72 208.02 195.64 207.98 213.00
  Q 207.89 261.69 207.69 310.38
  A 0.99 0.99 0.0 0 1 206.90 311.35
  Z
  M 191.71 379.34
  C 194.09 387.95 204.33 388.22 209.43 394.08
  C 215.22 400.73 202.48 406.79 196.68 398.00
  A 1.01 1.00 -41.3 0 0 195.08 397.90
  L 191.09 402.55
  A 1.01 1.01 0.0 0 0 191.02 403.76
  C 201.52 419.40 231.67 403.50 215.86 387.91
  C 210.87 382.99 203.92 383.07 200.14 376.36
  A 1.02 1.02 0.0 0 1 200.14 375.38
  Q 203.03 370.11 209.01 371.22
  Q 210.65 371.53 212.26 374.05
  A 1.00 1.00 0.0 0 0 213.80 374.23
  L 217.87 370.30
  A 1.00 1.00 0.0 0 0 217.95 368.95
  C 209.54 358.67 187.58 364.41 191.71 379.34
  Z
  M 150.69 380.27
  Q 150.55 376.86 152.51 379.65
  Q 162.91 394.49 174.28 408.63
  A 1.01 1.00 -19.3 0 0 175.06 409.00
  L 182.58 409.00
  A 1.00 1.00 0.0 0 0 183.58 407.97
  Q 182.85 386.82 183.56 365.68
  A 0.99 0.99 0.0 0 0 182.52 364.65
  L 175.65 364.93
  A 1.00 1.00 0.0 0 0 174.69 365.94
  L 174.77 392.82
  Q 174.79 396.03 172.95 393.39
  Q 162.92 378.96 152.02 365.17
  A 1.00 0.98 70.2 0 0 151.25 364.80
  L 143.02 364.65
  A 1.00 1.00 0.0 0 0 142.00 365.65
  L 142.00 408.01
  A 1.00 1.00 0.0 0 0 143.00 409.01
  L 149.99 408.97
  A 1.00 0.99 90.0 0 0 150.98 407.97
  C 151.01 399.37 151.86 389.25 150.73 380.68
  Q 150.70 380.47 150.69 380.27
  Z
  M 228.93 364.71
  Q 227.79 364.26 227.76 365.49
  Q 227.65 370.13 227.77 389.54
  Q 227.82 397.63 229.03 400.68
  C 232.53 409.47 245.19 411.05 253.05 409.29
  Q 264.85 406.65 265.11 393.97
  Q 265.39 379.89 265.18 365.73
  A 1.00 0.99 -0.3 0 0 264.18 364.75
  L 257.44 364.75
  A 1.00 1.00 0.0 0 0 256.44 365.77
  Q 256.65 377.53 256.32 388.44
  Q 256.15 394.12 255.24 396.34
  C 253.04 401.70 245.95 403.30 241.30 400.40
  C 237.23 397.87 236.86 390.73 236.92 386.25
  Q 237.06 375.97 236.94 365.69
  A 1.00 1.00 0.0 0 0 235.93 364.70
  L 229.31 364.78
  Q 229.11 364.78 228.93 364.71
  Z
  M 290.98 399.07
  L 280.86 365.50
  A 1.01 0.99 81.2 0 0 279.91 364.79
  L 271.77 364.73
  A 1.00 1.00 0.0 0 0 270.83 366.08
  L 286.29 408.35
  A 1.00 0.99 79.7 0 0 287.24 409.01
  L 294.65 408.88
  A 1.00 0.98 9.3 0 0 295.57 408.23
  L 311.21 366.10
  A 1.00 1.00 0.0 0 0 310.27 364.75
  L 302.28 364.75
  A 1.00 1.00 0.0 0 0 301.33 365.43
  C 297.42 377.03 292.49 389.17 291.71 399.06
  A 0.21 0.21 0.0 0 1 291.51 399.25
  L 291.24 399.26
  A 0.27 0.26 79.9 0 1 290.98 399.07
  Z
  M 326.0720 365.0218
  A 0.27 0.27 0.0 0 0 325.8016 364.7523
  L 316.9616 364.7677
  A 0.27 0.27 0.0 0 0 316.6921 365.0382
  L 316.7680 408.5182
  A 0.27 0.27 0.0 0 0 317.0384 408.7877
  L 325.8784 408.7723
  A 0.27 0.27 0.0 0 0 326.1479 408.5018
  L 326.0720 365.0218
  Z"
/>
<ellipse cx="0.00" cy="0.00" transform="translate(110.55,386.88) rotate(90.1)" rx="14.73" ry="13.72"/>
</g>
<path fill="#1268b3" d="
  M 252.06 0.00
  L 500.00 0.00
  L 500.00 171.81
  C 499.99 175.98 493.34 170.72 492.03 169.61
  Q 488.94 166.98 486.83 165.72
  Q 473.09 157.52 460.26 147.95
  C 456.74 145.33 452.38 142.81 448.62 139.90
  C 446.50 138.26 443.71 137.02 441.51 134.97
  Q 439.43 133.03 438.04 132.88
  Q 435.91 132.64 434.48 134.34
  Q 432.02 137.26 432.73 133.51
  Q 432.77 133.32 432.83 133.11
  A 1.00 0.99 35.5 0 0 432.68 132.24
  Q 430.48 129.22 426.71 128.97
  A 1.00 1.00 0.0 0 1 425.85 128.36
  Q 425.50 127.51 425.97 126.59
  Q 426.09 126.36 426.08 126.09
  Q 426.01 124.56 424.63 124.01
  A 1.00 1.00 0.0 0 1 424.02 122.87
  L 424.45 120.88
  Q 424.82 119.16 423.15 119.72
  Q 421.02 120.43 419.03 119.08
  A 0.99 0.99 0.0 0 0 418.09 118.97
  Q 416.18 119.75 418.33 121.39
  Q 418.48 121.50 418.65 121.55
  Q 421.47 122.42 419.56 125.42
  A 1.00 1.00 0.0 0 1 418.03 125.61
  L 416.36 124.03
  A 1.01 1.00 -37.2 0 0 415.20 123.88
  Q 410.55 126.34 412.72 121.32
  A 1.00 0.99 29.2 0 0 412.37 120.10
  L 406.36 115.98
  A 1.01 1.00 -57.4 0 0 404.93 116.30
  C 403.95 117.97 401.82 118.24 400.55 116.66
  Q 398.40 114.00 399.64 110.61
  Q 400.18 109.12 401.06 110.45
  Q 401.75 111.49 403.03 110.61
  A 0.98 0.98 0.0 0 0 403.42 109.50
  C 402.63 106.88 400.37 106.77 398.21 105.73
  A 0.99 0.99 0.0 0 1 397.65 104.87
  Q 397.53 102.17 394.75 102.22
  A 1.02 1.02 0.0 0 1 394.09 102.00
  Q 387.01 96.23 378.83 92.13
  A 1.02 0.99 -0.7 0 1 378.40 91.72
  Q 375.53 86.44 372.65 91.60
  A 1.00 1.00 0.0 0 1 371.11 91.86
  Q 369.52 90.43 370.05 87.84
  Q 370.33 86.44 368.99 86.93
  Q 367.40 87.50 369.64 82.69
  A 1.00 0.99 -68.7 0 0 369.04 81.31
  Q 366.09 80.38 364.52 77.64
  A 1.00 1.00 0.0 0 0 363.10 77.31
  C 358.78 80.16 356.89 74.88 353.89 72.98
  A 0.99 0.98 -62.2 0 1 353.51 71.75
  Q 354.27 69.95 352.56 68.86
  A 1.05 1.03 54.0 0 0 351.77 68.73
  C 346.63 70.05 345.40 66.99 341.93 64.96
  Q 329.24 57.53 325.68 54.33
  Q 321.06 50.17 316.98 49.45
  A 0.97 0.96 -17.6 0 1 316.45 49.18
  Q 314.47 47.21 312.47 49.41
  A 1.00 0.99 -50.9 0 1 311.15 49.55
  Q 303.36 43.96 295.19 38.97
  C 293.35 37.84 292.42 35.89 290.11 35.28
  Q 285.01 33.92 282.02 29.50
  Q 281.94 29.38 281.89 29.25
  L 281.30 27.41
  Q 280.71 25.60 279.55 27.12
  Q 278.14 28.96 275.74 28.29
  A 1.01 1.00 18.1 0 1 275.07 26.98
  Q 275.72 25.19 274.33 23.88
  A 1.01 1.00 -58.0 0 1 274.08 22.79
  L 274.68 21.24
  A 0.98 0.95 -46.0 0 0 274.68 20.53
  L 272.85 15.65
  A 0.98 0.93 7.5 0 0 272.45 15.16
  Q 269.10 13.02 252.35 1.38
  Q 251.11 0.53 252.06 0.00
  Z"
/>
<path fill="#155fb0" d="
  M 117.81 0.00
  L 252.06 0.00
  Q 251.11 0.53 252.35 1.38
  Q 269.10 13.02 272.45 15.16
  A 0.98 0.93 7.5 0 1 272.85 15.65
  L 274.68 20.53
  A 0.98 0.95 -46.0 0 1 274.68 21.24
  L 274.08 22.79
  A 1.01 1.00 -58.0 0 0 274.33 23.88
  Q 275.72 25.19 275.07 26.98
  A 1.01 1.00 18.1 0 0 275.74 28.29
  Q 278.14 28.96 279.55 27.12
  Q 280.71 25.60 281.30 27.41
  L 281.89 29.25
  Q 281.94 29.38 282.02 29.50
  Q 285.01 33.92 290.11 35.28
  C 292.42 35.89 293.35 37.84 295.19 38.97
  Q 303.36 43.96 311.15 49.55
  A 1.00 0.99 -50.9 0 0 312.47 49.41
  Q 314.47 47.21 316.45 49.18
  A 0.97 0.96 -17.6 0 0 316.98 49.45
  Q 321.06 50.17 325.68 54.33
  Q 329.24 57.53 341.93 64.96
  C 345.40 66.99 346.63 70.05 351.77 68.73
  A 1.05 1.03 54.0 0 1 352.56 68.86
  Q 354.27 69.95 353.51 71.75
  A 0.99 0.98 -62.2 0 0 353.89 72.98
  C 356.89 74.88 358.78 80.16 363.10 77.31
  A 1.00 1.00 0.0 0 1 364.52 77.64
  Q 366.09 80.38 369.04 81.31
  A 1.00 0.99 -68.7 0 1 369.64 82.69
  Q 367.40 87.50 368.99 86.93
  Q 370.33 86.44 370.05 87.84
  Q 369.52 90.43 371.11 91.86
  A 1.00 1.00 0.0 0 0 372.65 91.60
  Q 375.53 86.44 378.40 91.72
  A 1.02 0.99 -0.7 0 0 378.83 92.13
  Q 387.01 96.23 394.09 102.00
  A 1.02 1.02 0.0 0 0 394.75 102.22
  Q 397.53 102.17 397.65 104.87
  A 0.99 0.99 0.0 0 0 398.21 105.73
  C 400.37 106.77 402.63 106.88 403.42 109.50
  A 0.98 0.98 0.0 0 1 403.03 110.61
  Q 401.75 111.49 401.06 110.45
  Q 400.18 109.12 399.64 110.61
  Q 398.40 114.00 400.55 116.66
  C 401.82 118.24 403.95 117.97 404.93 116.30
  A 1.01 1.00 -57.4 0 1 406.36 115.98
  L 412.37 120.10
  A 1.00 0.99 29.2 0 1 412.72 121.32
  Q 410.55 126.34 415.20 123.88
  A 1.01 1.00 -37.2 0 1 416.36 124.03
  L 418.03 125.61
  A 1.00 1.00 0.0 0 0 419.56 125.42
  Q 421.47 122.42 418.65 121.55
  Q 418.48 121.50 418.33 121.39
  Q 416.18 119.75 418.09 118.97
  A 0.99 0.99 0.0 0 1 419.03 119.08
  Q 421.02 120.43 423.15 119.72
  Q 424.82 119.16 424.45 120.88
  L 424.02 122.87
  A 1.00 1.00 0.0 0 0 424.63 124.01
  Q 426.01 124.56 426.08 126.09
  Q 426.09 126.36 425.97 126.59
  Q 425.50 127.51 425.85 128.36
  A 1.00 1.00 0.0 0 0 426.71 128.97
  Q 430.48 129.22 432.68 132.24
  A 1.00 0.99 35.5 0 1 432.83 133.11
  Q 432.77 133.32 432.73 133.51
  Q 432.02 137.26 434.48 134.34
  Q 435.91 132.64 438.04 132.88
  Q 439.43 133.03 441.51 134.97
  C 443.71 137.02 446.50 138.26 448.62 139.90
  C 452.38 142.81 456.74 145.33 460.26 147.95
  Q 473.09 157.52 486.83 165.72
  Q 488.94 166.98 492.03 169.61
  C 493.34 170.72 499.99 175.98 500.00 171.81
  L 500.00 342.81
  L 499.60 346.80
  A 1.00 1.00 0.0 0 1 498.04 347.53
  L 472.33 329.74
  Q 472.11 329.59 471.85 329.57
  L 470.15 329.42
  A 0.99 0.99 0.0 0 1 469.24 328.57
  Q 469.07 327.30 468.27 326.75
  Q 408.97 286.02 350.33 244.35
  C 329.68 229.67 308.71 215.43 288.10 200.67
  A 1.04 1.03 -34.5 0 0 287.27 200.52
  L 285.32 200.99
  Q 280.25 186.23 277.55 182.23
  C 270.74 172.13 263.29 162.53 260.24 150.52
  Q 258.97 145.51 259.00 137.35
  Q 259.06 123.68 259.21 110.01
  C 259.28 104.13 258.66 96.84 258.87 90.23
  C 258.98 86.54 257.85 85.18 254.18 85.09
  Q 245.24 84.88 236.29 84.75
  Q 236.20 83.68 235.45 83.38
  A 0.80 0.79 -47.2 0 0 234.78 83.41
  Q 230.58 85.61 231.30 80.63
  A 1.01 1.00 9.2 0 1 232.47 79.79
  C 237.10 80.62 238.37 75.11 233.79 76.10
  C 229.92 76.93 225.68 84.85 222.92 77.25
  A 0.99 0.99 0.0 0 0 222.50 76.74
  Q 207.03 67.40 192.70 56.37
  C 189.91 54.22 186.53 53.43 183.84 51.38
  Q 170.02 40.90 155.79 30.97
  C 153.76 29.56 152.39 27.80 150.28 26.52
  C 144.30 22.87 139.50 18.32 131.95 15.36
  A 0.98 0.97 87.6 0 1 131.40 14.85
  Q 130.21 12.24 127.52 11.16
  A 0.99 0.96 84.7 0 1 127.05 10.76
  Q 125.45 8.23 122.67 8.93
  A 0.99 0.99 0.0 0 1 121.46 8.23
  L 120.25 3.81
  A 1.01 1.01 0.0 0 0 119.66 3.14
  Q 118.03 2.49 117.09 0.99
  A 0.52 0.52 0.0 0 1 117.36 0.23
  Q 117.59 0.16 117.81 0.00
  Z"
/>
<g fill="#1e3ea3">
<path d="
  M 74.71 364.50
  Q 70.14 363.71 65.56 363.84
  C 47.68 364.35 37.61 382.93 45.74 398.19
  C 52.11 410.14 67.68 412.78 79.47 406.72
  A 1.00 0.99 77.1 0 0 80.01 405.85
  L 80.10 399.13
  Q 80.13 397.12 78.51 398.31
  Q 73.74 401.80 68.05 401.95
  C 51.81 402.39 47.33 382.89 59.03 373.88
  Q 56.77 377.91 61.77 377.19
  A 1.05 1.05 0.0 0 1 62.50 377.37
  Q 71.27 383.72 79.56 388.57
  C 81.63 389.78 84.66 390.45 84.38 386.80
  C 84.19 384.25 85.16 372.91 90.29 375.25
  C 79.88 394.28 96.19 412.89 116.59 409.23
  Q 116.45 412.31 117.77 414.96
  C 118.93 417.28 119.01 418.65 117.80 420.76
  A 1.00 0.99 39.3 0 0 117.92 421.92
  L 121.56 425.97
  A 1.00 1.00 0.0 0 1 121.40 427.45
  L 118.02 429.87
  Q 115.94 431.36 118.48 431.68
  L 124.14 432.38
  A 0.98 0.96 -18.1 0 1 124.73 432.67
  Q 127.59 435.60 128.17 431.24
  A 1.00 1.00 0.0 0 0 127.27 430.11
  L 124.70 429.89
  A 1.00 0.99 -84.6 0 1 123.80 428.80
  C 124.07 425.86 124.66 422.42 122.58 420.66
  A 0.64 0.64 0.0 0 1 122.42 419.88
  C 123.18 418.38 126.48 421.85 127.63 422.31
  Q 127.80 422.38 127.94 422.51
  L 131.17 425.55
  A 0.99 0.98 -64.1 0 1 131.47 426.44
  Q 131.20 428.15 130.51 429.76
  A 0.99 0.97 -52.9 0 0 130.64 430.77
  L 131.63 432.02
  A 1.00 1.00 0.0 0 0 133.10 432.12
  C 134.18 431.10 133.76 427.75 134.89 428.35
  A 0.99 0.96 5.6 0 1 135.38 428.93
  Q 136.47 432.40 135.77 436.01
  A 0.91 0.89 -51.0 0 0 135.82 436.55
  L 137.28 440.40
  A 1.06 1.01 8.2 0 0 137.64 440.86
  L 140.26 442.70
  A 1.00 1.00 0.0 0 0 141.63 442.50
  L 142.69 441.11
  A 1.00 1.00 0.0 0 1 144.26 441.09
  L 147.06 444.49
  A 0.42 0.41 -30.2 0 0 147.54 444.61
  L 147.80 444.49
  A 0.31 0.30 78.0 0 0 147.99 444.19
  Q 147.98 440.46 145.15 438.59
  C 143.64 437.58 141.37 435.46 144.56 434.52
  A 0.98 0.96 52.7 0 1 145.39 434.64
  Q 148.49 436.66 151.22 439.07
  C 153.85 441.39 157.08 443.29 160.02 445.97
  C 166.83 452.20 174.85 456.07 182.04 461.73
  Q 189.69 467.76 198.24 472.35
  C 206.42 476.75 213.33 482.56 220.51 488.13
  A 1.00 0.99 47.3 0 1 220.45 489.75
  C 218.96 490.73 218.27 491.80 217.86 493.57
  Q 217.13 496.71 215.45 493.42
  A 0.79 0.79 0.0 0 0 214.92 493.01
  C 213.41 492.66 215.09 496.19 215.07 496.90
  Q 214.99 498.87 217.01 498.55
  L 220.57 497.98
  A 1.00 0.99 76.4 0 0 221.36 496.68
  C 220.72 494.71 220.86 494.38 222.96 494.01
  Q 224.39 493.75 223.73 492.23
  Q 222.93 490.38 224.89 490.86
  Q 225.75 491.08 226.56 491.51
  Q 227.36 491.93 228.37 493.12
  Q 231.38 496.69 235.75 498.51
  A 0.82 0.80 6.4 0 1 236.23 499.10
  Q 236.32 499.62 235.94 500.00
  L 0.00 500.00
  L 0.00 333.94
  Q 5.65 336.03 9.35 340.86
  A 1.02 1.00 37.2 0 1 9.49 341.83
  Q 8.65 343.99 11.10 344.59
  A 1.02 1.01 -82.1 0 1 11.86 345.60
  L 11.85 346.04
  A 1.01 1.00 -87.0 0 1 10.78 347.01
  Q 9.28 346.91 7.98 347.51
  Q 5.44 348.68 8.15 349.38
  L 12.49 350.51
  Q 14.23 350.96 13.69 349.24
  Q 13.03 347.13 14.52 345.35
  A 1.00 1.00 0.0 0 1 15.80 345.14
  Q 17.35 346.07 17.91 347.85
  A 1.00 0.99 -81.1 0 0 18.30 348.39
  Q 20.96 350.18 18.76 350.81
  Q 16.92 351.35 18.41 352.55
  L 18.96 353.00
  A 1.01 1.00 -50.3 0 0 20.36 352.86
  L 21.81 351.13
  A 1.01 1.00 -57.8 0 1 22.99 350.86
  L 28.81 353.47
  A 1.03 0.99 -89.0 0 1 29.34 354.04
  L 30.59 357.39
  A 0.96 0.95 -47.2 0 1 30.61 358.02
  Q 30.30 359.08 29.53 359.87
  A 1.00 0.99 68.5 0 0 29.24 360.55
  C 29.11 365.82 39.77 356.20 38.65 364.97
  A 0.64 0.64 0.0 0 0 39.01 365.63
  Q 39.91 366.05 39.99 364.79
  Q 40.00 364.74 39.99 364.68
  L 39.96 363.91
  A 1.00 1.00 0.0 0 1 41.40 362.97
  Q 43.25 363.88 43.94 365.94
  A 1.01 1.01 0.0 0 0 44.58 366.58
  C 46.57 367.21 48.48 367.91 50.53 367.18
  C 53.54 366.11 55.73 364.47 59.12 363.06
  C 61.90 361.91 69.09 361.36 71.93 362.28
  Q 73.02 362.63 74.14 362.91
  A 1.00 0.99 -72.4 0 1 74.82 364.24
  Q 74.77 364.37 74.71 364.50
  Z"
/>
<path d="
  M 456.11 367.18
  A 8.58 8.58 0.0 0 1 447.53 375.76
  A 8.58 8.58 0.0 0 1 438.95 367.18
  A 8.58 8.58 0.0 0 1 447.53 358.60
  A 8.58 8.58 0.0 0 1 456.11 367.18
  Z
  M 443.39 372.32
  C 444.67 373.32 445.92 373.17 445.97 371.53
  Q 446.00 370.50 446.02 369.43
  Q 446.05 366.88 447.76 368.77
  Q 448.60 369.70 448.86 371.10
  Q 449.36 373.75 450.52 373.08
  L 451.62 372.44
  A 1.00 0.99 -30.0 0 0 451.99 371.07
  L 450.59 368.69
  A 1.00 1.00 0.0 0 1 450.89 367.35
  C 458.41 362.32 446.32 361.10 443.81 361.57
  A 0.99 0.98 -5.5 0 0 443.00 362.55
  L 443.01 371.54
  A 1.00 0.99 19.3 0 0 443.39 372.32
  Z"
/>
<path d="
  M 389.85 371.97
  C 394.18 365.62 401.99 362.16 409.09 362.19
  C 423.65 362.26 435.35 374.94 434.21 389.38
  C 433.31 400.79 421.48 411.51 409.87 411.65
  C 391.00 411.86 375.60 390.64 388.47 373.98
  Q 388.53 373.90 389.85 371.97
  Z
  M 432.3458 388.1254
  A 23.40 23.06 3.1 0 0 410.2271 363.8337
  A 23.40 23.06 3.1 0 0 385.6142 385.5946
  A 23.40 23.06 3.1 0 0 407.7329 409.8863
  A 23.40 23.06 3.1 0 0 432.3458 388.1254
  Z"
/>
<path d="
  M 448.41 363.09
  Q 451.43 365.65 447.53 366.33
  A 1.01 1.00 -21.4 0 1 446.52 365.89
  Q 445.07 363.70 447.44 362.91
  A 1.02 1.00 -34.0 0 1 448.41 363.09
  Z"
/>
<path d="
  M 408.6972 401.5873
  A 14.73 13.75 91.1 0 1 395.2325 386.5960
  A 14.73 13.75 91.1 0 1 409.2628 372.1327
  A 14.73 13.75 91.1 0 1 422.7275 387.1240
  A 14.73 13.75 91.1 0 1 408.6972 401.5873
  Z
  M 420.7031 385.0488
  A 10.71 10.71 0.0 0 0 409.9558 374.3763
  L 407.7758 374.3839
  A 10.71 10.71 0.0 0 0 397.1033 385.1312
  L 397.1169 389.0312
  A 10.71 10.71 0.0 0 0 407.8642 399.7037
  L 410.0442 399.6961
  A 10.71 10.71 0.0 0 0 420.7167 388.9488
  L 420.7031 385.0488
  Z"
/>
</g>
</svg>
