<?xml version="1.0" encoding="UTF-8" standalone="no"?>
<!DOCTYPE svg PUBLIC "-//W3C//DTD SVG 1.1//EN" "http://www.w3.org/Graphics/SVG/1.1/DTD/svg11.dtd">
<svg xmlns="http://www.w3.org/2000/svg" version="1.1" viewBox="0 0 500 500">
<g stroke-width="2.00" fill="none" stroke-linecap="butt">
<path stroke="#808080" vector-effect="non-scaling-stroke" d="
  M 239.00 157.94
  C 233.19 170.28 253.64 171.18 249.03 158.57
  Q 247.59 154.65 244.68 151.40
  A 1.00 1.00 0.0 0 0 243.21 151.38
  Q 240.97 153.75 239.00 157.94"
/>
<path stroke="#808080" vector-effect="non-scaling-stroke" d="
  M 228.26 166.40
  L 231.17 165.03
  A 1.01 1.00 -32.7 0 0 231.51 163.48
  L 229.95 161.62
  A 1.01 0.99 32.4 0 1 229.74 160.72
  L 231.15 155.41
  A 1.00 1.00 0.0 0 0 230.03 154.17
  L 224.48 155.01
  A 1.00 0.98 62.2 0 1 223.63 154.74
  L 221.89 153.04
  A 1.01 1.00 -52.1 0 0 220.33 153.24
  L 218.65 156.02
  A 1.00 0.99 -51.9 0 1 217.09 156.21
  L 215.68 154.81
  A 1.00 1.00 0.0 0 0 214.38 154.71
  Q 206.09 160.86 211.64 169.90
  A 0.99 0.99 0.0 0 1 211.59 171.02
  Q 203.64 181.73 203.23 195.02
  C 203.21 195.61 204.65 208.94 206.72 202.77
  A 0.99 0.90 -45.6 0 0 206.74 202.20
  C 203.30 189.12 209.06 175.74 218.88 166.98
  A 1.01 1.00 -41.0 0 0 218.98 165.59
  L 218.68 165.24
  A 1.00 0.99 -42.0 0 0 217.21 165.17
  L 214.59 167.77
  A 1.00 1.00 0.0 0 1 212.99 167.50
  Q 210.38 162.26 214.16 158.22
  A 1.00 1.00 0.0 0 1 215.63 158.24
  L 217.60 160.44
  A 1.00 0.99 37.6 0 0 219.23 160.23
  L 220.72 157.34
  A 1.01 1.00 -62.8 0 1 222.07 156.90
  Q 224.22 158.03 226.52 157.02
  Q 228.39 156.20 227.89 158.18
  L 227.08 161.44
  A 0.98 0.98 0.0 0 0 227.29 162.33
  L 227.61 162.70
  A 1.01 1.00 58.0 0 1 227.25 164.27
  L 224.10 165.64
  A 1.00 1.00 0.0 0 0 223.75 167.22
  L 225.73 169.48
  A 1.00 0.99 51.5 0 1 225.57 170.95
  Q 222.05 173.48 217.78 172.04
  A 0.99 0.98 -64.2 0 0 216.62 172.45
  L 216.28 172.97
  A 1.00 1.00 0.0 0 0 216.86 174.47
  Q 224.31 176.56 229.21 170.83
  A 0.99 0.99 0.0 0 0 229.23 169.55
  L 227.92 167.93
  A 1.00 0.99 57.7 0 1 228.26 166.40"
/>
<path stroke="#808080" vector-effect="non-scaling-stroke" d="
  M 259.78 168.00
  L 258.55 169.46
  A 0.99 0.99 0.0 0 0 258.53 170.73
  Q 263.42 176.78 271.04 174.32
  A 1.00 1.00 0.0 0 0 271.73 173.25
  Q 271.55 171.77 269.71 172.20
  Q 265.37 173.22 262.17 170.92
  A 1.00 1.00 0.0 0 1 261.97 169.49
  L 263.85 167.13
  A 1.00 1.00 0.0 0 0 263.48 165.60
  L 260.58 164.27
  A 1.01 1.01 0.0 0 1 260.05 163.03
  C 260.90 160.57 259.11 158.55 259.46 157.36
  A 0.80 0.80 0.0 0 1 260.59 156.88
  Q 263.08 158.14 265.49 156.89
  A 1.02 1.01 60.9 0 1 266.82 157.27
  L 268.59 160.27
  A 1.00 1.00 0.0 0 0 270.23 160.39
  L 271.95 158.24
  A 1.01 1.01 0.0 0 1 273.47 158.19
  Q 277.29 162.29 274.80 167.41
  A 1.00 1.00 0.0 0 1 273.22 167.71
  L 270.46 165.16
  A 1.01 1.00 44.4 0 0 269.08 165.17
  L 268.76 165.49
  A 1.00 0.99 -46.3 0 0 268.79 166.95
  Q 282.92 179.57 281.75 198.02
  C 281.34 204.35 276.01 209.13 270.51 214.77
  Q 268.57 216.75 266.64 222.66
  A 1.00 0.99 29.1 0 0 266.96 223.75
  Q 268.10 224.68 268.84 223.34
  Q 272.24 217.22 273.41 215.90
  C 277.36 211.47 283.33 205.67 284.00 199.74
  Q 285.74 184.12 276.16 170.99
  A 0.99 0.98 -47.6 0 1 276.12 169.89
  Q 281.57 160.85 273.15 154.69
  A 1.00 1.00 0.0 0 0 271.83 154.82
  L 270.62 156.11
  A 1.01 1.01 0.0 0 1 269.04 155.97
  L 267.23 153.12
  A 1.01 1.01 0.0 0 0 265.67 152.95
  L 263.94 154.68
  A 1.00 0.99 26.0 0 1 263.09 154.97
  L 257.65 154.19
  A 1.01 1.00 86.7 0 0 256.54 155.44
  L 257.92 160.62
  A 1.00 0.99 56.4 0 1 257.75 161.49
  L 256.14 163.60
  A 1.00 1.00 0.0 0 0 256.52 165.12
  L 259.43 166.45
  A 0.99 0.99 0.0 0 1 259.78 168.00"
/>
<path stroke="#808080" vector-effect="non-scaling-stroke" d="
  M 244.56 175.56
  L 248.04 179.38
  A 1.01 0.99 62.6 0 0 248.99 179.69
  C 250.41 179.38 255.63 177.67 255.92 176.06
  A 0.64 0.64 0.0 0 0 255.15 175.32
  L 249.66 176.64
  A 1.00 0.98 61.2 0 1 248.70 176.35
  L 244.60 171.95
  A 1.00 0.99 45.2 0 0 243.14 171.94
  L 238.99 176.38
  A 1.00 0.99 31.0 0 1 237.94 176.64
  C 236.82 176.26 232.50 174.82 231.73 175.85
  A 0.64 0.64 0.0 0 0 231.98 176.82
  L 238.29 179.71
  A 0.99 0.98 -56.2 0 0 239.43 179.48
  L 243.09 175.56
  A 1.00 0.99 -44.8 0 1 244.56 175.56"
/>
<path stroke="#808080" vector-effect="non-scaling-stroke" d="
  M 260.50 209.61
  Q 262.26 209.49 261.46 211.07
  Q 257.31 219.19 248.30 221.55
  A 0.99 0.99 0.0 0 0 247.58 222.70
  L 247.66 223.15
  A 1.01 1.00 77.5 0 0 248.89 223.94
  Q 261.54 220.70 265.13 208.08
  A 1.00 0.99 8.4 0 0 264.18 206.81
  Q 253.86 206.66 246.73 213.56
  Q 245.03 215.20 245.03 212.84
  L 245.04 208.80
  A 1.01 1.00 82.5 0 1 245.78 207.83
  C 256.66 204.98 257.38 198.80 258.14 188.70
  C 258.32 186.39 259.11 183.42 260.40 181.92
  Q 261.77 180.32 259.67 180.26
  Q 247.07 179.94 243.60 189.98
  C 242.21 193.99 242.77 199.57 242.75 204.14
  A 1.01 1.00 -85.8 0 1 241.61 205.13
  C 236.54 204.39 234.32 202.25 233.38 197.05
  Q 232.17 190.32 231.10 183.93
  A 1.00 0.99 -89.8 0 1 232.25 182.78
  Q 237.06 183.59 240.03 187.40
  A 1.00 0.99 -45.9 0 0 241.62 187.37
  L 242.01 186.84
  A 1.00 1.00 0.0 0 0 241.94 185.58
  Q 236.30 179.39 227.92 180.48
  A 1.00 1.00 0.0 0 0 227.23 182.04
  C 228.66 184.11 229.19 186.06 229.35 188.83
  C 229.84 197.28 231.64 206.55 241.88 207.74
  A 1.01 1.00 -86.8 0 1 242.77 208.74
  L 242.74 212.93
  Q 242.72 215.24 241.05 213.65
  Q 233.75 206.72 223.40 206.84
  A 1.00 1.00 0.0 0 0 222.46 208.14
  Q 227.40 223.66 243.94 224.57
  A 1.00 1.00 0.0 0 0 244.99 223.63
  Q 245.40 216.77 251.05 212.99
  Q 255.57 209.96 260.50 209.61"
/>
<path stroke="#808080" vector-effect="non-scaling-stroke" d="
  M 276.39 185.11
  Q 270.17 194.01 275.51 203.67
  A 1.01 1.00 49.7 0 0 277.17 203.81
  L 277.48 203.42
  A 1.01 1.01 0.0 0 0 277.56 202.28
  C 274.64 197.35 274.79 192.51 277.77 187.69
  Q 278.46 186.57 278.18 185.44
  Q 277.65 183.31 276.39 185.11"
/>
<path stroke="#808080" vector-effect="non-scaling-stroke" d="
  M 215.81 225.94
  C 206.76 221.46 205.66 213.14 211.19 205.26
  C 215.58 199.01 216.20 191.34 211.20 185.15
  A 1.00 1.00 0.0 0 0 209.57 185.26
  L 209.35 185.62
  A 0.99 0.99 0.0 0 0 209.40 186.74
  C 220.09 201.05 194.84 210.36 210.35 225.16
  Q 212.80 227.50 216.23 228.39
  A 0.80 0.80 0.0 0 0 217.21 227.46
  Q 217.04 226.54 215.81 225.94"
/>
<path stroke="#808080" vector-effect="non-scaling-stroke" d="
  M 240.58 236.47
  A 1.00 0.99 -27.8 0 0 239.59 236.17
  Q 228.61 238.99 223.78 230.91
  Q 223.08 229.74 221.31 223.87
  Q 218.88 215.81 212.58 209.97
  A 1.00 1.00 0.0 0 0 211.01 210.25
  L 210.84 210.58
  A 1.02 1.01 36.4 0 0 211.02 211.74
  Q 217.34 218.16 219.67 226.70
  C 222.43 236.83 228.79 240.41 239.23 238.92
  Q 242.38 238.48 240.58 236.47"
/>
<path stroke="#808080" vector-effect="non-scaling-stroke" d="
  M 247.40 232.42
  A 1.03 1.02 -49.3 0 0 248.40 232.34
  C 255.24 227.65 261.00 228.29 269.00 228.45
  C 278.36 228.65 283.13 219.67 282.17 211.37
  A 0.79 0.78 -78.0 0 0 281.79 210.77
  C 280.72 210.14 280.15 211.58 280.14 212.43
  C 280.08 219.72 275.54 226.62 267.69 226.24
  C 259.98 225.87 254.03 225.30 247.05 230.30
  Q 245.41 231.48 247.40 232.42"
/>
<path stroke="#808080" vector-effect="non-scaling-stroke" d="
  M 253.50 236.91
  C 246.38 237.38 241.47 229.73 235.20 227.26
  Q 230.63 225.46 225.51 225.81
  A 1.00 0.98 -81.9 0 0 224.64 226.47
  Q 224.02 228.19 226.02 228.26
  C 234.21 228.54 237.06 231.11 243.00 235.46
  C 250.83 241.18 259.33 240.70 265.68 232.91
  C 267.20 231.05 265.72 230.57 264.02 231.11
  A 1.03 1.01 9.1 0 0 263.53 231.46
  Q 259.67 236.51 253.50 236.91"
/>
<path stroke="#808080" vector-effect="non-scaling-stroke" d="
  M 289.93 297.59
  Q 294.25 302.28 298.47 307.79
  Q 300.33 310.22 303.45 309.97
  Q 305.37 309.82 304.14 308.34
  L 292.37 294.11
  A 1.01 0.99 45.5 0 1 292.37 292.83
  L 303.61 279.39
  Q 304.98 277.75 302.84 277.75
  L 300.50 277.75
  A 1.00 1.00 0.0 0 0 299.73 278.11
  L 290.21 289.64
  A 1.00 1.00 0.0 0 1 288.67 289.64
  L 279.10 278.10
  A 1.01 0.98 68.8 0 0 278.32 277.74
  L 275.93 277.76
  Q 273.85 277.79 275.17 279.40
  L 286.37 293.01
  A 1.01 1.00 -45.3 0 1 286.37 294.28
  L 275.05 308.08
  Q 273.76 309.65 275.79 309.71
  L 277.90 309.78
  A 1.00 0.98 20.3 0 0 278.71 309.42
  L 288.42 297.64
  A 1.00 1.00 0.0 0 1 289.93 297.59"
/>
<path stroke="#808080" vector-effect="non-scaling-stroke" d="
  M 85.45 278.23
  A 0.71 0.71 0.0 0 0 84.83 278.55
  L 73.01 296.65
  A 0.71 0.71 0.0 0 1 71.82 296.65
  L 60.07 278.54
  A 0.71 0.71 0.0 0 0 59.44 278.22
  L 56.93 278.33
  A 0.71 0.71 0.0 0 0 56.25 279.04
  L 56.25 309.06
  A 0.71 0.71 0.0 0 0 56.99 309.77
  L 59.65 309.67
  A 0.71 0.71 0.0 0 0 60.33 308.95
  L 60.02 287.46
  A 0.71 0.71 0.0 0 1 61.32 287.06
  L 71.87 302.94
  A 0.71 0.71 0.0 0 0 73.05 302.93
  L 83.42 287.18
  A 0.71 0.71 0.0 0 1 84.72 287.57
  L 84.81 308.99
  A 0.71 0.71 0.0 0 0 85.52 309.70
  L 88.04 309.69
  A 0.71 0.71 0.0 0 0 88.75 308.98
  L 88.75 279.03
  A 0.71 0.71 0.0 0 0 88.07 278.32
  L 85.45 278.23"
/>
<path stroke="#808080" vector-effect="non-scaling-stroke" d="
  M 416.48 310.06
  Q 424.75 312.46 432.42 306.63
  C 434.30 305.19 435.53 303.39 432.20 302.33
  A 1.00 0.98 -57.2 0 0 431.22 302.55
  C 415.45 317.21 400.44 293.20 417.37 288.12
  Q 424.38 286.02 430.53 291.27
  A 1.01 1.00 -32.7 0 0 431.46 291.47
  Q 433.05 291.01 433.40 289.60
  A 1.02 1.01 -63.1 0 0 433.08 288.60
  C 413.79 271.93 392.48 303.09 416.48 310.06"
/>
<path stroke="#808080" vector-effect="non-scaling-stroke" d="
  M 131.4198 297.7226
  A 14.79 12.95 -0.3 0 0 116.5622 284.8502
  A 14.79 12.95 -0.3 0 0 101.8402 297.8774
  A 14.79 12.95 -0.3 0 0 116.6978 310.7498
  A 14.79 12.95 -0.3 0 0 131.4198 297.7226"
/>
<path stroke="#808080" vector-effect="non-scaling-stroke" d="
  M 185.74 288.50
  A 0.51 0.51 0.0 0 1 186.25 289.01
  L 186.25 309.24
  A 0.51 0.51 0.0 0 0 186.76 309.75
  L 189.49 309.76
  A 0.51 0.51 0.0 0 0 190.00 309.25
  L 190.00 289.01
  A 0.51 0.51 0.0 0 1 190.51 288.50
  L 199.74 288.50
  A 0.51 0.51 0.0 0 0 200.25 287.99
  L 200.25 285.26
  A 0.51 0.51 0.0 0 0 199.74 284.75
  L 176.51 284.75
  A 0.51 0.51 0.0 0 0 176.00 285.26
  L 176.00 287.99
  A 0.51 0.51 0.0 0 0 176.51 288.50
  L 185.74 288.50"
/>
<path stroke="#808080" vector-effect="non-scaling-stroke" d="
  M 215.18 306.25
  A 0.68 0.68 0.0 0 1 214.50 305.57
  L 214.50 298.93
  A 0.68 0.68 0.0 0 1 215.18 298.25
  L 226.32 298.25
  A 0.68 0.68 0.0 0 0 227.00 297.57
  L 227.01 295.43
  A 0.68 0.68 0.0 0 0 226.33 294.75
  L 215.18 294.75
  A 0.68 0.68 0.0 0 1 214.50 294.07
  L 214.50 289.18
  A 0.68 0.68 0.0 0 1 215.18 288.50
  L 232.82 288.50
  A 0.68 0.68 0.0 0 0 233.50 287.82
  L 233.50 285.43
  A 0.68 0.68 0.0 0 0 232.82 284.75
  L 211.44 284.76
  A 0.68 0.68 0.0 0 0 210.76 285.44
  L 210.75 309.07
  A 0.68 0.68 0.0 0 0 211.43 309.75
  L 234.09 309.75
  A 0.68 0.68 0.0 0 0 234.77 309.04
  L 234.66 306.90
  A 0.68 0.68 0.0 0 0 233.98 306.25
  L 215.18 306.25"
/>
<path stroke="#808080" vector-effect="non-scaling-stroke" d="
  M 313.96 309.72
  L 315.86 309.76
  A 1.01 1.00 -75.3 0 0 316.76 309.23
  L 319.58 303.98
  A 1.01 1.00 -75.3 0 1 320.48 303.45
  L 332.47 303.61
  A 1.01 1.01 0.0 0 1 333.34 304.14
  L 336.04 309.23
  A 0.99 0.98 -14.1 0 0 336.93 309.76
  L 338.91 309.73
  A 1.00 1.00 0.0 0 0 339.79 308.27
  Q 333.92 296.99 328.03 285.73
  C 326.98 283.73 325.06 285.02 324.30 286.51
  Q 318.72 297.38 313.09 308.26
  A 1.00 1.00 0.0 0 0 313.96 309.72"
/>
<path stroke="#808080" vector-effect="non-scaling-stroke" d="
  M 369.25 300.53
  Q 369.25 302.59 367.86 301.07
  L 353.44 285.31
  Q 350.99 282.64 350.99 286.25
  L 351.00 308.75
  A 1.00 1.00 0.0 0 0 352.00 309.75
  L 354.00 309.75
  A 1.00 1.00 0.0 0 0 355.00 308.75
  L 355.00 295.01
  Q 354.99 292.45 356.73 294.33
  L 371.26 310.09
  Q 372.99 311.97 373.00 309.41
  L 373.00 285.85
  A 1.00 1.00 0.0 0 0 372.00 284.85
  L 370.25 284.85
  A 1.00 1.00 0.0 0 0 369.25 285.85
  L 369.25 300.53"
/>
<path stroke="#808080" vector-effect="non-scaling-stroke" d="
  M 392.50 285.39
  A 0.61 0.61 0.0 0 0 391.89 284.78
  L 388.87 284.78
  A 0.61 0.61 0.0 0 0 388.26 285.39
  L 388.26 309.15
  A 0.61 0.61 0.0 0 0 388.87 309.76
  L 391.89 309.76
  A 0.61 0.61 0.0 0 0 392.50 309.15
  L 392.50 285.39"
/>
<path stroke="#808080" vector-effect="non-scaling-stroke" d="
  M 148.79 295.29
  Q 148.82 292.70 150.54 294.64
  L 162.67 308.30
  Q 166.03 312.08 166.02 307.00
  L 165.99 286.45
  A 1.00 1.00 0.0 0 0 165.38 285.53
  Q 162.49 284.30 162.37 287.92
  Q 162.15 294.21 162.25 299.91
  Q 162.30 302.65 160.50 300.59
  Q 154.10 293.27 147.52 286.11
  C 146.20 284.67 144.81 285.10 144.78 287.13
  Q 144.67 297.88 144.82 308.67
  A 0.99 0.99 0.0 0 0 145.48 309.59
  Q 148.72 310.75 148.72 307.02
  Q 148.73 300.76 148.79 295.29"
/>
<path stroke="#808080" vector-effect="non-scaling-stroke" d="
  M 284.72 333.75
  Q 284.05 335.54 285.53 334.33
  Q 286.42 333.59 287.21 332.26
  Q 288.22 330.54 286.50 331.56
  Q 285.27 332.29 284.72 333.75"
/>
<path stroke="#808080" vector-effect="non-scaling-stroke" d="
  M 227.81 345.50
  A 0.30 0.30 0.0 0 1 228.05 345.62
  L 229.94 348.19
  A 0.30 0.30 0.0 0 0 230.23 348.31
  L 231.02 348.18
  A 0.30 0.30 0.0 0 0 231.24 347.75
  L 225.09 335.42
  A 0.30 0.30 0.0 0 0 224.55 335.42
  L 218.61 347.52
  A 0.30 0.30 0.0 0 0 218.86 347.95
  L 219.96 348.03
  A 0.30 0.30 0.0 0 0 220.24 347.88
  L 221.55 345.65
  A 0.30 0.30 0.0 0 1 221.81 345.50
  L 227.81 345.50"
/>
<path stroke="#808080" vector-effect="non-scaling-stroke" d="
  M 325.32 347.88
  Q 329.26 348.62 333.06 347.98
  Q 334.35 347.76 333.72 346.92
  A 0.80 0.78 -16.1 0 0 333.12 346.60
  L 327.02 346.27
  A 1.01 1.01 0.0 0 1 326.07 345.31
  C 325.95 342.21 326.50 335.98 325.25 335.77
  A 0.64 0.64 0.0 0 0 324.50 336.40
  L 324.50 346.90
  A 1.00 1.00 0.0 0 0 325.32 347.88"
/>
<path stroke="#808080" vector-effect="non-scaling-stroke" d="
  M 346.31 345.90
  L 347.91 348.07
  A 0.51 0.51 0.0 0 0 348.54 348.23
  L 348.82 348.10
  A 0.64 0.63 -26.2 0 0 349.12 347.24
  L 343.82 336.67
  Q 342.92 334.86 342.03 336.68
  L 336.84 347.30
  A 0.64 0.63 30.1 0 0 337.06 348.10
  C 338.04 348.78 339.12 346.54 339.54 345.93
  A 1.00 0.97 16.6 0 1 340.36 345.50
  L 345.50 345.50
  A 1.02 1.00 -18.0 0 1 346.31 345.90"
/>
<path stroke="#808080" vector-effect="non-scaling-stroke" d="
  M 248.99 343.99
  L 245.48 336.63
  A 1.00 1.00 0.0 0 0 244.58 336.06
  Q 243.29 336.05 244.01 337.47
  Q 246.63 342.55 248.96 347.42
  Q 249.87 349.30 250.77 347.41
  L 255.76 336.93
  A 0.41 0.40 18.4 0 0 255.47 336.36
  L 255.20 336.30
  A 0.99 0.99 0.0 0 0 254.10 336.86
  L 250.80 343.98
  Q 249.91 345.92 248.99 343.99"
/>
<path stroke="#808080" vector-effect="non-scaling-stroke" d="
  M 269.83 341.90
  Q 270.08 339.68 271.57 341.35
  L 276.76 347.13
  Q 278.50 349.08 278.50 346.47
  L 278.50 336.52
  A 0.41 0.41 0.0 0 0 278.05 336.11
  L 277.71 336.15
  A 1.00 0.99 -2.2 0 0 276.80 337.13
  L 276.75 342.33
  Q 276.72 344.98 274.99 342.98
  L 270.00 337.21
  Q 268.25 335.17 268.25 337.86
  L 268.25 347.47
  A 0.64 0.64 0.0 0 0 268.86 348.11
  C 269.69 348.15 269.83 347.40 269.77 346.68
  Q 269.57 344.23 269.83 341.90"
/>
<path stroke="#808080" vector-effect="non-scaling-stroke" d="
  M 262.2596 336.7413
  A 0.50 0.50 0.0 0 0 261.7605 336.2404
  L 261.2605 336.2396
  A 0.50 0.50 0.0 0 0 260.7596 336.7387
  L 260.7404 347.7387
  A 0.50 0.50 0.0 0 0 261.2395 348.2396
  L 261.7395 348.2404
  A 0.50 0.50 0.0 0 0 262.2404 347.7413
  L 262.2596 336.7413"
/>
<path stroke="#808080" vector-effect="non-scaling-stroke" d="
  M 285.9994 336.7915
  A 0.53 0.53 0.0 0 0 285.4703 336.2606
  L 284.7904 336.2594
  A 0.53 0.53 0.0 0 0 284.2594 336.7885
  L 284.2406 347.5885
  A 0.53 0.53 0.0 0 0 284.7697 348.1194
  L 285.4496 348.1206
  A 0.53 0.53 0.0 0 0 285.9806 347.5915
  L 285.9994 336.7915"
/>
<path stroke="#808080" vector-effect="non-scaling-stroke" d="
  M 139.79 347.89
  Q 143.88 348.75 147.75 347.73
  C 153.72 346.14 148.11 342.66 149.64 340.00
  A 1.04 1.00 56.6 0 0 149.76 339.35
  C 149.13 335.30 142.92 336.50 140.00 336.50
  A 1.01 1.00 -0.3 0 0 139.00 337.50
  L 139.00 346.91
  A 1.00 1.00 0.0 0 0 139.79 347.89"
/>
<path stroke="#808080" vector-effect="non-scaling-stroke" d="
  M 167.49 342.41
  A 6.23 5.79 0.0 0 0 161.26 336.62
  A 6.23 5.79 0.0 0 0 155.03 342.41
  A 6.23 5.79 0.0 0 0 161.26 348.20
  A 6.23 5.79 0.0 0 0 167.49 342.41"
/>
<path stroke="#808080" vector-effect="non-scaling-stroke" d="
  M 173.86 348.09
  C 180.12 348.96 187.63 346.41 183.13 338.35
  A 0.96 0.93 -2.4 0 0 182.65 337.92
  Q 178.41 336.11 173.88 336.67
  A 1.00 0.99 86.8 0 0 173.00 337.66
  L 173.00 347.10
  A 1.00 1.00 0.0 0 0 173.86 348.09"
/>
<path stroke="#808080" vector-effect="non-scaling-stroke" d="
  M 190.21 348.21
  L 198.43 348.27
  A 1.00 1.00 0.0 0 0 199.20 347.91
  C 200.95 345.84 193.37 346.18 192.02 346.23
  A 1.00 0.99 2.4 0 1 190.99 345.11
  L 191.18 343.59
  A 1.00 1.00 0.0 0 1 192.25 342.72
  C 197.78 343.12 196.25 340.85 192.09 340.96
  A 1.00 0.99 86.3 0 1 191.07 340.06
  L 191.03 339.61
  A 1.00 1.00 0.0 0 1 192.02 338.51
  C 193.17 338.51 199.20 339.03 199.02 337.38
  A 1.01 1.01 0.0 0 0 198.02 336.48
  L 190.54 336.54
  A 1.01 1.00 -89.1 0 0 189.55 337.51
  L 189.22 347.17
  A 1.01 1.00 -88.9 0 0 190.21 348.21"
/>
<path stroke="#808080" vector-effect="non-scaling-stroke" d="
  M 204.76 338.77
  C 197.80 347.31 213.54 352.02 214.70 344.19
  Q 215.20 340.84 210.66 342.08
  Q 208.87 342.57 210.45 343.54
  Q 211.23 344.01 212.33 343.69
  A 0.65 0.63 67.0 0 1 213.05 343.99
  C 214.40 346.26 207.29 347.29 205.49 344.72
  Q 203.32 341.61 206.43 339.44
  Q 210.01 336.93 212.76 339.84
  C 213.32 340.43 214.45 340.99 214.27 339.43
  A 0.96 0.96 0.0 0 0 213.93 338.79
  Q 208.55 334.11 204.76 338.77"
/>
<path stroke="#808080" vector-effect="non-scaling-stroke" d="
  M 293.61 344.89
  Q 291.21 342.99 292.76 341.02
  Q 296.46 336.31 301.15 340.35
  A 0.66 0.64 51.6 0 0 301.86 340.44
  Q 302.75 339.99 301.92 339.05
  C 298.24 334.91 292.95 336.31 291.15 341.06
  C 288.89 347.01 298.02 351.10 301.98 345.52
  Q 302.85 344.29 301.85 344.07
  A 0.82 0.81 27.7 0 0 301.10 344.30
  Q 297.53 347.99 293.61 344.89"
/>
<path stroke="#808080" vector-effect="non-scaling-stroke" d="
  M 319.4600 342.4091
  A 6.24 5.76 -0.1 0 0 313.2099 336.6600
  A 6.24 5.76 -0.1 0 0 306.9800 342.4309
  A 6.24 5.76 -0.1 0 0 313.2301 348.1800
  A 6.24 5.76 -0.1 0 0 319.4600 342.4091"
/>
<path stroke="#808080" vector-effect="non-scaling-stroke" d="
  M 240.53 164.46
  C 247.05 166.65 248.51 162.92 246.21 158.17
  Q 245.53 156.78 244.59 155.53
  A 1.01 1.00 43.7 0 0 242.97 155.56
  Q 240.56 159.04 239.86 163.36
  A 1.00 1.00 0.0 0 0 240.53 164.46"
/>
<path stroke="#808080" vector-effect="non-scaling-stroke" d="
  M 255.25 183.04
  Q 248.01 184.41 245.76 190.73
  C 244.48 194.33 245.02 199.81 244.99 204.02
  A 1.00 1.00 0.0 0 0 246.10 205.02
  C 250.88 204.51 253.23 202.22 254.19 197.36
  Q 255.50 190.76 256.43 184.16
  A 1.00 1.00 0.0 0 0 255.25 183.04"
/>
<path stroke="#808080" vector-effect="non-scaling-stroke" d="
  M 237.79 214.22
  Q 233.18 210.08 227.13 209.60
  Q 225.33 209.46 226.17 211.06
  Q 230.97 220.23 241.31 221.94
  Q 243.16 222.25 242.38 220.54
  Q 240.69 216.83 237.79 214.22"
/>
<path stroke="#808080" vector-effect="non-scaling-stroke" d="
  M 127.4900 297.8290
  A 10.86 9.37 0.1 0 0 116.6464 288.4400
  A 10.86 9.37 0.1 0 0 105.7700 297.7910
  A 10.86 9.37 0.1 0 0 116.6136 307.1800
  A 10.86 9.37 0.1 0 0 127.4900 297.8290"
/>
<path stroke="#808080" vector-effect="non-scaling-stroke" d="
  M 321.77 299.34
  A 0.44 0.44 0.0 0 0 322.16 299.99
  L 330.59 300.00
  A 0.44 0.44 0.0 0 0 330.98 299.36
  L 326.78 291.27
  A 0.44 0.44 0.0 0 0 326.00 291.27
  L 321.77 299.34"
/>
<path stroke="#808080" vector-effect="non-scaling-stroke" d="
  M 222.52 343.26
  A 0.36 0.36 0.0 0 0 222.85 343.77
  L 226.93 343.73
  A 0.36 0.36 0.0 0 0 227.25 343.21
  L 225.16 339.14
  A 0.36 0.36 0.0 0 0 224.52 339.14
  L 222.52 343.26"
/>
<path stroke="#808080" vector-effect="non-scaling-stroke" d="
  M 340.68 343.14
  A 0.42 0.42 0.0 0 0 341.06 343.75
  L 344.94 343.75
  A 0.42 0.42 0.0 0 0 345.32 343.14
  L 343.38 339.25
  A 0.42 0.42 0.0 0 0 342.62 339.25
  L 340.68 343.14"
/>
<path stroke="#808080" vector-effect="non-scaling-stroke" d="
  M 148.0191 339.2335
  A 0.74 0.74 0.0 0 0 147.2778 338.4948
  L 141.3178 338.5052
  A 0.74 0.74 0.0 0 0 140.5791 339.2465
  L 140.5809 340.2665
  A 0.74 0.74 0.0 0 0 141.3222 341.0052
  L 147.2822 340.9948
  A 0.74 0.74 0.0 0 0 148.0209 340.2535
  L 148.0191 339.2335"
/>
<path stroke="#808080" vector-effect="non-scaling-stroke" d="
  M 148.9609 344.4523
  A 1.69 1.69 0.0 0 0 147.2798 342.7534
  L 142.1599 342.7266
  A 1.69 1.69 0.0 0 0 140.4611 344.4077
  L 140.4591 344.7877
  A 1.69 1.69 0.0 0 0 142.1402 346.4866
  L 147.2601 346.5134
  A 1.69 1.69 0.0 0 0 148.9589 344.8323
  L 148.9609 344.4523"
/>
<path stroke="#808080" vector-effect="non-scaling-stroke" d="
  M 165.7393 342.3415
  A 4.50 3.96 -1.0 0 0 161.1709 338.4606
  A 4.50 3.96 -1.0 0 0 156.7407 342.4985
  A 4.50 3.96 -1.0 0 0 161.3091 346.3794
  A 4.50 3.96 -1.0 0 0 165.7393 342.3415"
/>
<path stroke="#808080" vector-effect="non-scaling-stroke" d="
  M 175.32 346.21
  C 186.24 348.12 183.52 336.21 175.23 338.51
  A 1.00 0.99 82.4 0 0 174.50 339.47
  L 174.50 345.22
  A 1.01 1.00 -84.9 0 0 175.32 346.21"
/>
<path stroke="#808080" vector-effect="non-scaling-stroke" d="
  M 317.7697 342.4455
  A 4.54 3.90 0.7 0 0 313.2776 338.4903
  A 4.54 3.90 0.7 0 0 308.6903 342.3345
  A 4.54 3.90 0.7 0 0 313.1824 346.2897
  A 4.54 3.90 0.7 0 0 317.7697 342.4455"
/>
</g>
<g fill="#ffffff">
<path d="
  M 0.00 0.00
  L 500.00 0.00
  L 500.00 500.00
  L 0.00 500.00
  L 0.00 0.00
  Z
  M 239.00 157.94
  C 233.19 170.28 253.64 171.18 249.03 158.57
  Q 247.59 154.65 244.68 151.40
  A 1.00 1.00 0.0 0 0 243.21 151.38
  Q 240.97 153.75 239.00 157.94
  Z
  M 228.26 166.40
  L 231.17 165.03
  A 1.01 1.00 -32.7 0 0 231.51 163.48
  L 229.95 161.62
  A 1.01 0.99 32.4 0 1 229.74 160.72
  L 231.15 155.41
  A 1.00 1.00 0.0 0 0 230.03 154.17
  L 224.48 155.01
  A 1.00 0.98 62.2 0 1 223.63 154.74
  L 221.89 153.04
  A 1.01 1.00 -52.1 0 0 220.33 153.24
  L 218.65 156.02
  A 1.00 0.99 -51.9 0 1 217.09 156.21
  L 215.68 154.81
  A 1.00 1.00 0.0 0 0 214.38 154.71
  Q 206.09 160.86 211.64 169.90
  A 0.99 0.99 0.0 0 1 211.59 171.02
  Q 203.64 181.73 203.23 195.02
  C 203.21 195.61 204.65 208.94 206.72 202.77
  A 0.99 0.90 -45.6 0 0 206.74 202.20
  C 203.30 189.12 209.06 175.74 218.88 166.98
  A 1.01 1.00 -41.0 0 0 218.98 165.59
  L 218.68 165.24
  A 1.00 0.99 -42.0 0 0 217.21 165.17
  L 214.59 167.77
  A 1.00 1.00 0.0 0 1 212.99 167.50
  Q 210.38 162.26 214.16 158.22
  A 1.00 1.00 0.0 0 1 215.63 158.24
  L 217.60 160.44
  A 1.00 0.99 37.6 0 0 219.23 160.23
  L 220.72 157.34
  A 1.01 1.00 -62.8 0 1 222.07 156.90
  Q 224.22 158.03 226.52 157.02
  Q 228.39 156.20 227.89 158.18
  L 227.08 161.44
  A 0.98 0.98 0.0 0 0 227.29 162.33
  L 227.61 162.70
  A 1.01 1.00 58.0 0 1 227.25 164.27
  L 224.10 165.64
  A 1.00 1.00 0.0 0 0 223.75 167.22
  L 225.73 169.48
  A 1.00 0.99 51.5 0 1 225.57 170.95
  Q 222.05 173.48 217.78 172.04
  A 0.99 0.98 -64.2 0 0 216.62 172.45
  L 216.28 172.97
  A 1.00 1.00 0.0 0 0 216.86 174.47
  Q 224.31 176.56 229.21 170.83
  A 0.99 0.99 0.0 0 0 229.23 169.55
  L 227.92 167.93
  A 1.00 0.99 57.7 0 1 228.26 166.40
  Z
  M 259.78 168.00
  L 258.55 169.46
  A 0.99 0.99 0.0 0 0 258.53 170.73
  Q 263.42 176.78 271.04 174.32
  A 1.00 1.00 0.0 0 0 271.73 173.25
  Q 271.55 171.77 269.71 172.20
  Q 265.37 173.22 262.17 170.92
  A 1.00 1.00 0.0 0 1 261.97 169.49
  L 263.85 167.13
  A 1.00 1.00 0.0 0 0 263.48 165.60
  L 260.58 164.27
  A 1.01 1.01 0.0 0 1 260.05 163.03
  C 260.90 160.57 259.11 158.55 259.46 157.36
  A 0.80 0.80 0.0 0 1 260.59 156.88
  Q 263.08 158.14 265.49 156.89
  A 1.02 1.01 60.9 0 1 266.82 157.27
  L 268.59 160.27
  A 1.00 1.00 0.0 0 0 270.23 160.39
  L 271.95 158.24
  A 1.01 1.01 0.0 0 1 273.47 158.19
  Q 277.29 162.29 274.80 167.41
  A 1.00 1.00 0.0 0 1 273.22 167.71
  L 270.46 165.16
  A 1.01 1.00 44.4 0 0 269.08 165.17
  L 268.76 165.49
  A 1.00 0.99 -46.3 0 0 268.79 166.95
  Q 282.92 179.57 281.75 198.02
  C 281.34 204.35 276.01 209.13 270.51 214.77
  Q 268.57 216.75 266.64 222.66
  A 1.00 0.99 29.1 0 0 266.96 223.75
  Q 268.10 224.68 268.84 223.34
  Q 272.24 217.22 273.41 215.90
  C 277.36 211.47 283.33 205.67 284.00 199.74
  Q 285.74 184.12 276.16 170.99
  A 0.99 0.98 -47.6 0 1 276.12 169.89
  Q 281.57 160.85 273.15 154.69
  A 1.00 1.00 0.0 0 0 271.83 154.82
  L 270.62 156.11
  A 1.01 1.01 0.0 0 1 269.04 155.97
  L 267.23 153.12
  A 1.01 1.01 0.0 0 0 265.67 152.95
  L 263.94 154.68
  A 1.00 0.99 26.0 0 1 263.09 154.97
  L 257.65 154.19
  A 1.01 1.00 86.7 0 0 256.54 155.44
  L 257.92 160.62
  A 1.00 0.99 56.4 0 1 257.75 161.49
  L 256.14 163.60
  A 1.00 1.00 0.0 0 0 256.52 165.12
  L 259.43 166.45
  A 0.99 0.99 0.0 0 1 259.78 168.00
  Z
  M 244.56 175.56
  L 248.04 179.38
  A 1.01 0.99 62.6 0 0 248.99 179.69
  C 250.41 179.38 255.63 177.67 255.92 176.06
  A 0.64 0.64 0.0 0 0 255.15 175.32
  L 249.66 176.64
  A 1.00 0.98 61.2 0 1 248.70 176.35
  L 244.60 171.95
  A 1.00 0.99 45.2 0 0 243.14 171.94
  L 238.99 176.38
  A 1.00 0.99 31.0 0 1 237.94 176.64
  C 236.82 176.26 232.50 174.82 231.73 175.85
  A 0.64 0.64 0.0 0 0 231.98 176.82
  L 238.29 179.71
  A 0.99 0.98 -56.2 0 0 239.43 179.48
  L 243.09 175.56
  A 1.00 0.99 -44.8 0 1 244.56 175.56
  Z
  M 260.50 209.61
  Q 262.26 209.49 261.46 211.07
  Q 257.31 219.19 248.30 221.55
  A 0.99 0.99 0.0 0 0 247.58 222.70
  L 247.66 223.15
  A 1.01 1.00 77.5 0 0 248.89 223.94
  Q 261.54 220.70 265.13 208.08
  A 1.00 0.99 8.4 0 0 264.18 206.81
  Q 253.86 206.66 246.73 213.56
  Q 245.03 215.20 245.03 212.84
  L 245.04 208.80
  A 1.01 1.00 82.5 0 1 245.78 207.83
  C 256.66 204.98 257.38 198.80 258.14 188.70
  C 258.32 186.39 259.11 183.42 260.40 181.92
  Q 261.77 180.32 259.67 180.26
  Q 247.07 179.94 243.60 189.98
  C 242.21 193.99 242.77 199.57 242.75 204.14
  A 1.01 1.00 -85.8 0 1 241.61 205.13
  C 236.54 204.39 234.32 202.25 233.38 197.05
  Q 232.17 190.32 231.10 183.93
  A 1.00 0.99 -89.8 0 1 232.25 182.78
  Q 237.06 183.59 240.03 187.40
  A 1.00 0.99 -45.9 0 0 241.62 187.37
  L 242.01 186.84
  A 1.00 1.00 0.0 0 0 241.94 185.58
  Q 236.30 179.39 227.92 180.48
  A 1.00 1.00 0.0 0 0 227.23 182.04
  C 228.66 184.11 229.19 186.06 229.35 188.83
  C 229.84 197.28 231.64 206.55 241.88 207.74
  A 1.01 1.00 -86.8 0 1 242.77 208.74
  L 242.74 212.93
  Q 242.72 215.24 241.05 213.65
  Q 233.75 206.72 223.40 206.84
  A 1.00 1.00 0.0 0 0 222.46 208.14
  Q 227.40 223.66 243.94 224.57
  A 1.00 1.00 0.0 0 0 244.99 223.63
  Q 245.40 216.77 251.05 212.99
  Q 255.57 209.96 260.50 209.61
  Z
  M 276.39 185.11
  Q 270.17 194.01 275.51 203.67
  A 1.01 1.00 49.7 0 0 277.17 203.81
  L 277.48 203.42
  A 1.01 1.01 0.0 0 0 277.56 202.28
  C 274.64 197.35 274.79 192.51 277.77 187.69
  Q 278.46 186.57 278.18 185.44
  Q 277.65 183.31 276.39 185.11
  Z
  M 215.81 225.94
  C 206.76 221.46 205.66 213.14 211.19 205.26
  C 215.58 199.01 216.20 191.34 211.20 185.15
  A 1.00 1.00 0.0 0 0 209.57 185.26
  L 209.35 185.62
  A 0.99 0.99 0.0 0 0 209.40 186.74
  C 220.09 201.05 194.84 210.36 210.35 225.16
  Q 212.80 227.50 216.23 228.39
  A 0.80 0.80 0.0 0 0 217.21 227.46
  Q 217.04 226.54 215.81 225.94
  Z
  M 240.58 236.47
  A 1.00 0.99 -27.8 0 0 239.59 236.17
  Q 228.61 238.99 223.78 230.91
  Q 223.08 229.74 221.31 223.87
  Q 218.88 215.81 212.58 209.97
  A 1.00 1.00 0.0 0 0 211.01 210.25
  L 210.84 210.58
  A 1.02 1.01 36.4 0 0 211.02 211.74
  Q 217.34 218.16 219.67 226.70
  C 222.43 236.83 228.79 240.41 239.23 238.92
  Q 242.38 238.48 240.58 236.47
  Z
  M 247.40 232.42
  A 1.03 1.02 -49.3 0 0 248.40 232.34
  C 255.24 227.65 261.00 228.29 269.00 228.45
  C 278.36 228.65 283.13 219.67 282.17 211.37
  A 0.79 0.78 -78.0 0 0 281.79 210.77
  C 280.72 210.14 280.15 211.58 280.14 212.43
  C 280.08 219.72 275.54 226.62 267.69 226.24
  C 259.98 225.87 254.03 225.30 247.05 230.30
  Q 245.41 231.48 247.40 232.42
  Z
  M 253.50 236.91
  C 246.38 237.38 241.47 229.73 235.20 227.26
  Q 230.63 225.46 225.51 225.81
  A 1.00 0.98 -81.9 0 0 224.64 226.47
  Q 224.02 228.19 226.02 228.26
  C 234.21 228.54 237.06 231.11 243.00 235.46
  C 250.83 241.18 259.33 240.70 265.68 232.91
  C 267.20 231.05 265.72 230.57 264.02 231.11
  A 1.03 1.01 9.1 0 0 263.53 231.46
  Q 259.67 236.51 253.50 236.91
  Z
  M 289.93 297.59
  Q 294.25 302.28 298.47 307.79
  Q 300.33 310.22 303.45 309.97
  Q 305.37 309.82 304.14 308.34
  L 292.37 294.11
  A 1.01 0.99 45.5 0 1 292.37 292.83
  L 303.61 279.39
  Q 304.98 277.75 302.84 277.75
  L 300.50 277.75
  A 1.00 1.00 0.0 0 0 299.73 278.11
  L 290.21 289.64
  A 1.00 1.00 0.0 0 1 288.67 289.64
  L 279.10 278.10
  A 1.01 0.98 68.8 0 0 278.32 277.74
  L 275.93 277.76
  Q 273.85 277.79 275.17 279.40
  L 286.37 293.01
  A 1.01 1.00 -45.3 0 1 286.37 294.28
  L 275.05 308.08
  Q 273.76 309.65 275.79 309.71
  L 277.90 309.78
  A 1.00 0.98 20.3 0 0 278.71 309.42
  L 288.42 297.64
  A 1.00 1.00 0.0 0 1 289.93 297.59
  Z
  M 85.45 278.23
  A 0.71 0.71 0.0 0 0 84.83 278.55
  L 73.01 296.65
  A 0.71 0.71 0.0 0 1 71.82 296.65
  L 60.07 278.54
  A 0.71 0.71 0.0 0 0 59.44 278.22
  L 56.93 278.33
  A 0.71 0.71 0.0 0 0 56.25 279.04
  L 56.25 309.06
  A 0.71 0.71 0.0 0 0 56.99 309.77
  L 59.65 309.67
  A 0.71 0.71 0.0 0 0 60.33 308.95
  L 60.02 287.46
  A 0.71 0.71 0.0 0 1 61.32 287.06
  L 71.87 302.94
  A 0.71 0.71 0.0 0 0 73.05 302.93
  L 83.42 287.18
  A 0.71 0.71 0.0 0 1 84.72 287.57
  L 84.81 308.99
  A 0.71 0.71 0.0 0 0 85.52 309.70
  L 88.04 309.69
  A 0.71 0.71 0.0 0 0 88.75 308.98
  L 88.75 279.03
  A 0.71 0.71 0.0 0 0 88.07 278.32
  L 85.45 278.23
  Z
  M 416.48 310.06
  Q 424.75 312.46 432.42 306.63
  C 434.30 305.19 435.53 303.39 432.20 302.33
  A 1.00 0.98 -57.2 0 0 431.22 302.55
  C 415.45 317.21 400.44 293.20 417.37 288.12
  Q 424.38 286.02 430.53 291.27
  A 1.01 1.00 -32.7 0 0 431.46 291.47
  Q 433.05 291.01 433.40 289.60
  A 1.02 1.01 -63.1 0 0 433.08 288.60
  C 413.79 271.93 392.48 303.09 416.48 310.06
  Z
  M 131.4198 297.7226
  A 14.79 12.95 -0.3 0 0 116.5622 284.8502
  A 14.79 12.95 -0.3 0 0 101.8402 297.8774
  A 14.79 12.95 -0.3 0 0 116.6978 310.7498
  A 14.79 12.95 -0.3 0 0 131.4198 297.7226
  Z
  M 185.74 288.50
  A 0.51 0.51 0.0 0 1 186.25 289.01
  L 186.25 309.24
  A 0.51 0.51 0.0 0 0 186.76 309.75
  L 189.49 309.76
  A 0.51 0.51 0.0 0 0 190.00 309.25
  L 190.00 289.01
  A 0.51 0.51 0.0 0 1 190.51 288.50
  L 199.74 288.50
  A 0.51 0.51 0.0 0 0 200.25 287.99
  L 200.25 285.26
  A 0.51 0.51 0.0 0 0 199.74 284.75
  L 176.51 284.75
  A 0.51 0.51 0.0 0 0 176.00 285.26
  L 176.00 287.99
  A 0.51 0.51 0.0 0 0 176.51 288.50
  L 185.74 288.50
  Z
  M 215.18 306.25
  A 0.68 0.68 0.0 0 1 214.50 305.57
  L 214.50 298.93
  A 0.68 0.68 0.0 0 1 215.18 298.25
  L 226.32 298.25
  A 0.68 0.68 0.0 0 0 227.00 297.57
  L 227.01 295.43
  A 0.68 0.68 0.0 0 0 226.33 294.75
  L 215.18 294.75
  A 0.68 0.68 0.0 0 1 214.50 294.07
  L 214.50 289.18
  A 0.68 0.68 0.0 0 1 215.18 288.50
  L 232.82 288.50
  A 0.68 0.68 0.0 0 0 233.50 287.82
  L 233.50 285.43
  A 0.68 0.68 0.0 0 0 232.82 284.75
  L 211.44 284.76
  A 0.68 0.68 0.0 0 0 210.76 285.44
  L 210.75 309.07
  A 0.68 0.68 0.0 0 0 211.43 309.75
  L 234.09 309.75
  A 0.68 0.68 0.0 0 0 234.77 309.04
  L 234.66 306.90
  A 0.68 0.68 0.0 0 0 233.98 306.25
  L 215.18 306.25
  Z
  M 313.96 309.72
  L 315.86 309.76
  A 1.01 1.00 -75.3 0 0 316.76 309.23
  L 319.58 303.98
  A 1.01 1.00 -75.3 0 1 320.48 303.45
  L 332.47 303.61
  A 1.01 1.01 0.0 0 1 333.34 304.14
  L 336.04 309.23
  A 0.99 0.98 -14.1 0 0 336.93 309.76
  L 338.91 309.73
  A 1.00 1.00 0.0 0 0 339.79 308.27
  Q 333.92 296.99 328.03 285.73
  C 326.98 283.73 325.06 285.02 324.30 286.51
  Q 318.72 297.38 313.09 308.26
  A 1.00 1.00 0.0 0 0 313.96 309.72
  Z
  M 369.25 300.53
  Q 369.25 302.59 367.86 301.07
  L 353.44 285.31
  Q 350.99 282.64 350.99 286.25
  L 351.00 308.75
  A 1.00 1.00 0.0 0 0 352.00 309.75
  L 354.00 309.75
  A 1.00 1.00 0.0 0 0 355.00 308.75
  L 355.00 295.01
  Q 354.99 292.45 356.73 294.33
  L 371.26 310.09
  Q 372.99 311.97 373.00 309.41
  L 373.00 285.85
  A 1.00 1.00 0.0 0 0 372.00 284.85
  L 370.25 284.85
  A 1.00 1.00 0.0 0 0 369.25 285.85
  L 369.25 300.53
  Z
  M 392.50 285.39
  A 0.61 0.61 0.0 0 0 391.89 284.78
  L 388.87 284.78
  A 0.61 0.61 0.0 0 0 388.26 285.39
  L 388.26 309.15
  A 0.61 0.61 0.0 0 0 388.87 309.76
  L 391.89 309.76
  A 0.61 0.61 0.0 0 0 392.50 309.15
  L 392.50 285.39
  Z
  M 148.79 295.29
  Q 148.82 292.70 150.54 294.64
  L 162.67 308.30
  Q 166.03 312.08 166.02 307.00
  L 165.99 286.45
  A 1.00 1.00 0.0 0 0 165.38 285.53
  Q 162.49 284.30 162.37 287.92
  Q 162.15 294.21 162.25 299.91
  Q 162.30 302.65 160.50 300.59
  Q 154.10 293.27 147.52 286.11
  C 146.20 284.67 144.81 285.10 144.78 287.13
  Q 144.67 297.88 144.82 308.67
  A 0.99 0.99 0.0 0 0 145.48 309.59
  Q 148.72 310.75 148.72 307.02
  Q 148.73 300.76 148.79 295.29
  Z
  M 284.72 333.75
  Q 284.05 335.54 285.53 334.33
  Q 286.42 333.59 287.21 332.26
  Q 288.22 330.54 286.50 331.56
  Q 285.27 332.29 284.72 333.75
  Z
  M 227.81 345.50
  A 0.30 0.30 0.0 0 1 228.05 345.62
  L 229.94 348.19
  A 0.30 0.30 0.0 0 0 230.23 348.31
  L 231.02 348.18
  A 0.30 0.30 0.0 0 0 231.24 347.75
  L 225.09 335.42
  A 0.30 0.30 0.0 0 0 224.55 335.42
  L 218.61 347.52
  A 0.30 0.30 0.0 0 0 218.86 347.95
  L 219.96 348.03
  A 0.30 0.30 0.0 0 0 220.24 347.88
  L 221.55 345.65
  A 0.30 0.30 0.0 0 1 221.81 345.50
  L 227.81 345.50
  Z
  M 325.32 347.88
  Q 329.26 348.62 333.06 347.98
  Q 334.35 347.76 333.72 346.92
  A 0.80 0.78 -16.1 0 0 333.12 346.60
  L 327.02 346.27
  A 1.01 1.01 0.0 0 1 326.07 345.31
  C 325.95 342.21 326.50 335.98 325.25 335.77
  A 0.64 0.64 0.0 0 0 324.50 336.40
  L 324.50 346.90
  A 1.00 1.00 0.0 0 0 325.32 347.88
  Z
  M 346.31 345.90
  L 347.91 348.07
  A 0.51 0.51 0.0 0 0 348.54 348.23
  L 348.82 348.10
  A 0.64 0.63 -26.2 0 0 349.12 347.24
  L 343.82 336.67
  Q 342.92 334.86 342.03 336.68
  L 336.84 347.30
  A 0.64 0.63 30.1 0 0 337.06 348.10
  C 338.04 348.78 339.12 346.54 339.54 345.93
  A 1.00 0.97 16.6 0 1 340.36 345.50
  L 345.50 345.50
  A 1.02 1.00 -18.0 0 1 346.31 345.90
  Z
  M 248.99 343.99
  L 245.48 336.63
  A 1.00 1.00 0.0 0 0 244.58 336.06
  Q 243.29 336.05 244.01 337.47
  Q 246.63 342.55 248.96 347.42
  Q 249.87 349.30 250.77 347.41
  L 255.76 336.93
  A 0.41 0.40 18.4 0 0 255.47 336.36
  L 255.20 336.30
  A 0.99 0.99 0.0 0 0 254.10 336.86
  L 250.80 343.98
  Q 249.91 345.92 248.99 343.99
  Z
  M 269.83 341.90
  Q 270.08 339.68 271.57 341.35
  L 276.76 347.13
  Q 278.50 349.08 278.50 346.47
  L 278.50 336.52
  A 0.41 0.41 0.0 0 0 278.05 336.11
  L 277.71 336.15
  A 1.00 0.99 -2.2 0 0 276.80 337.13
  L 276.75 342.33
  Q 276.72 344.98 274.99 342.98
  L 270.00 337.21
  Q 268.25 335.17 268.25 337.86
  L 268.25 347.47
  A 0.64 0.64 0.0 0 0 268.86 348.11
  C 269.69 348.15 269.83 347.40 269.77 346.68
  Q 269.57 344.23 269.83 341.90
  Z
  M 262.2596 336.7413
  A 0.50 0.50 0.0 0 0 261.7605 336.2404
  L 261.2605 336.2396
  A 0.50 0.50 0.0 0 0 260.7596 336.7387
  L 260.7404 347.7387
  A 0.50 0.50 0.0 0 0 261.2395 348.2396
  L 261.7395 348.2404
  A 0.50 0.50 0.0 0 0 262.2404 347.7413
  L 262.2596 336.7413
  Z
  M 285.9994 336.7915
  A 0.53 0.53 0.0 0 0 285.4703 336.2606
  L 284.7904 336.2594
  A 0.53 0.53 0.0 0 0 284.2594 336.7885
  L 284.2406 347.5885
  A 0.53 0.53 0.0 0 0 284.7697 348.1194
  L 285.4496 348.1206
  A 0.53 0.53 0.0 0 0 285.9806 347.5915
  L 285.9994 336.7915
  Z
  M 139.79 347.89
  Q 143.88 348.75 147.75 347.73
  C 153.72 346.14 148.11 342.66 149.64 340.00
  A 1.04 1.00 56.6 0 0 149.76 339.35
  C 149.13 335.30 142.92 336.50 140.00 336.50
  A 1.01 1.00 -0.3 0 0 139.00 337.50
  L 139.00 346.91
  A 1.00 1.00 0.0 0 0 139.79 347.89
  Z
  M 167.49 342.41
  A 6.23 5.79 0.0 0 0 161.26 336.62
  A 6.23 5.79 0.0 0 0 155.03 342.41
  A 6.23 5.79 0.0 0 0 161.26 348.20
  A 6.23 5.79 0.0 0 0 167.49 342.41
  Z
  M 173.86 348.09
  C 180.12 348.96 187.63 346.41 183.13 338.35
  A 0.96 0.93 -2.4 0 0 182.65 337.92
  Q 178.41 336.11 173.88 336.67
  A 1.00 0.99 86.8 0 0 173.00 337.66
  L 173.00 347.10
  A 1.00 1.00 0.0 0 0 173.86 348.09
  Z
  M 190.21 348.21
  L 198.43 348.27
  A 1.00 1.00 0.0 0 0 199.20 347.91
  C 200.95 345.84 193.37 346.18 192.02 346.23
  A 1.00 0.99 2.4 0 1 190.99 345.11
  L 191.18 343.59
  A 1.00 1.00 0.0 0 1 192.25 342.72
  C 197.78 343.12 196.25 340.85 192.09 340.96
  A 1.00 0.99 86.3 0 1 191.07 340.06
  L 191.03 339.61
  A 1.00 1.00 0.0 0 1 192.02 338.51
  C 193.17 338.51 199.20 339.03 199.02 337.38
  A 1.01 1.01 0.0 0 0 198.02 336.48
  L 190.54 336.54
  A 1.01 1.00 -89.1 0 0 189.55 337.51
  L 189.22 347.17
  A 1.01 1.00 -88.9 0 0 190.21 348.21
  Z
  M 204.76 338.77
  C 197.80 347.31 213.54 352.02 214.70 344.19
  Q 215.20 340.84 210.66 342.08
  Q 208.87 342.57 210.45 343.54
  Q 211.23 344.01 212.33 343.69
  A 0.65 0.63 67.0 0 1 213.05 343.99
  C 214.40 346.26 207.29 347.29 205.49 344.72
  Q 203.32 341.61 206.43 339.44
  Q 210.01 336.93 212.76 339.84
  C 213.32 340.43 214.45 340.99 214.27 339.43
  A 0.96 0.96 0.0 0 0 213.93 338.79
  Q 208.55 334.11 204.76 338.77
  Z
  M 293.61 344.89
  Q 291.21 342.99 292.76 341.02
  Q 296.46 336.31 301.15 340.35
  A 0.66 0.64 51.6 0 0 301.86 340.44
  Q 302.75 339.99 301.92 339.05
  C 298.24 334.91 292.95 336.31 291.15 341.06
  C 288.89 347.01 298.02 351.10 301.98 345.52
  Q 302.85 344.29 301.85 344.07
  A 0.82 0.81 27.7 0 0 301.10 344.30
  Q 297.53 347.99 293.61 344.89
  Z
  M 319.4600 342.4091
  A 6.24 5.76 -0.1 0 0 313.2099 336.6600
  A 6.24 5.76 -0.1 0 0 306.9800 342.4309
  A 6.24 5.76 -0.1 0 0 313.2301 348.1800
  A 6.24 5.76 -0.1 0 0 319.4600 342.4091
  Z"
/>
<path d="
  M 240.53 164.46
  A 1.00 1.00 0.0 0 1 239.86 163.36
  Q 240.56 159.04 242.97 155.56
  A 1.01 1.00 43.7 0 1 244.59 155.53
  Q 245.53 156.78 246.21 158.17
  C 248.51 162.92 247.05 166.65 240.53 164.46
  Z"
/>
<path d="
  M 255.25 183.04
  A 1.00 1.00 0.0 0 1 256.43 184.16
  Q 255.50 190.76 254.19 197.36
  C 253.23 202.22 250.88 204.51 246.10 205.02
  A 1.00 1.00 0.0 0 1 244.99 204.02
  C 245.02 199.81 244.48 194.33 245.76 190.73
  Q 248.01 184.41 255.25 183.04
  Z"
/>
<path d="
  M 237.79 214.22
  Q 240.69 216.83 242.38 220.54
  Q 243.16 222.25 241.31 221.94
  Q 230.97 220.23 226.17 211.06
  Q 225.33 209.46 227.13 209.60
  Q 233.18 210.08 237.79 214.22
  Z"
/>
<ellipse cx="0.00" cy="0.00" transform="translate(116.63,297.81) rotate(0.1)" rx="10.86" ry="9.37"/>
<path d="
  M 321.77 299.34
  L 326.00 291.27
  A 0.44 0.44 0.0 0 1 326.78 291.27
  L 330.98 299.36
  A 0.44 0.44 0.0 0 1 330.59 300.00
  L 322.16 299.99
  A 0.44 0.44 0.0 0 1 321.77 299.34
  Z"
/>
<path d="
  M 175.32 346.21
  A 1.01 1.00 -84.9 0 1 174.50 345.22
  L 174.50 339.47
  A 1.00 0.99 82.4 0 1 175.23 338.51
  C 183.52 336.21 186.24 348.12 175.32 346.21
  Z"
/>
<rect x="-3.72" y="-1.25" transform="translate(144.30,339.75) rotate(-0.1)" width="7.44" height="2.50" rx="0.74"/>
<ellipse cx="0.00" cy="0.00" transform="translate(161.24,342.42) rotate(-1.0)" rx="4.50" ry="3.96"/>
<ellipse cx="0.00" cy="0.00" transform="translate(313.23,342.39) rotate(0.7)" rx="4.54" ry="3.90"/>
<path d="
  M 222.52 343.26
  L 224.52 339.14
  A 0.36 0.36 0.0 0 1 225.16 339.14
  L 227.25 343.21
  A 0.36 0.36 0.0 0 1 226.93 343.73
  L 222.85 343.77
  A 0.36 0.36 0.0 0 1 222.52 343.26
  Z"
/>
<path d="
  M 340.68 343.14
  L 342.62 339.25
  A 0.42 0.42 0.0 0 1 343.38 339.25
  L 345.32 343.14
  A 0.42 0.42 0.0 0 1 344.94 343.75
  L 341.06 343.75
  A 0.42 0.42 0.0 0 1 340.68 343.14
  Z"
/>
<rect x="-4.25" y="-1.88" transform="translate(144.71,344.62) rotate(0.3)" width="8.50" height="3.76" rx="1.69"/>
</g>
<g fill="#000000">
<path d="
  M 249.03 158.57
  C 253.64 171.18 233.19 170.28 239.00 157.94
  Q 240.97 153.75 243.21 151.38
  A 1.00 1.00 0.0 0 1 244.68 151.40
  Q 247.59 154.65 249.03 158.57
  Z
  M 240.53 164.46
  C 247.05 166.65 248.51 162.92 246.21 158.17
  Q 245.53 156.78 244.59 155.53
  A 1.01 1.00 43.7 0 0 242.97 155.56
  Q 240.56 159.04 239.86 163.36
  A 1.00 1.00 0.0 0 0 240.53 164.46
  Z"
/>
<path d="
  M 227.92 167.93
  L 229.23 169.55
  A 0.99 0.99 0.0 0 1 229.21 170.83
  Q 224.31 176.56 216.86 174.47
  A 1.00 1.00 0.0 0 1 216.28 172.97
  L 216.62 172.45
  A 0.99 0.98 -64.2 0 1 217.78 172.04
  Q 222.05 173.48 225.57 170.95
  A 1.00 0.99 51.5 0 0 225.73 169.48
  L 223.75 167.22
  A 1.00 1.00 0.0 0 1 224.10 165.64
  L 227.25 164.27
  A 1.01 1.00 58.0 0 0 227.61 162.70
  L 227.29 162.33
  A 0.98 0.98 0.0 0 1 227.08 161.44
  L 227.89 158.18
  Q 228.39 156.20 226.52 157.02
  Q 224.22 158.03 222.07 156.90
  A 1.01 1.00 -62.8 0 0 220.72 157.34
  L 219.23 160.23
  A 1.00 0.99 37.6 0 1 217.60 160.44
  L 215.63 158.24
  A 1.00 1.00 0.0 0 0 214.16 158.22
  Q 210.38 162.26 212.99 167.50
  A 1.00 1.00 0.0 0 0 214.59 167.77
  L 217.21 165.17
  A 1.00 0.99 -42.0 0 1 218.68 165.24
  L 218.98 165.59
  A 1.01 1.00 -41.0 0 1 218.88 166.98
  C 209.06 175.74 203.30 189.12 206.74 202.20
  A 0.99 0.90 -45.6 0 1 206.72 202.77
  C 204.65 208.94 203.21 195.61 203.23 195.02
  Q 203.64 181.73 211.59 171.02
  A 0.99 0.99 0.0 0 0 211.64 169.90
  Q 206.09 160.86 214.38 154.71
  A 1.00 1.00 0.0 0 1 215.68 154.81
  L 217.09 156.21
  A 1.00 0.99 -51.9 0 0 218.65 156.02
  L 220.33 153.24
  A 1.01 1.00 -52.1 0 1 221.89 153.04
  L 223.63 154.74
  A 1.00 0.98 62.2 0 0 224.48 155.01
  L 230.03 154.17
  A 1.00 1.00 0.0 0 1 231.15 155.41
  L 229.74 160.72
  A 1.01 0.99 32.4 0 0 229.95 161.62
  L 231.51 163.48
  A 1.01 1.00 -32.7 0 1 231.17 165.03
  L 228.26 166.40
  A 1.00 0.99 57.7 0 0 227.92 167.93
  Z"
/>
<path d="
  M 259.43 166.45
  L 256.52 165.12
  A 1.00 1.00 0.0 0 1 256.14 163.60
  L 257.75 161.49
  A 1.00 0.99 56.4 0 0 257.92 160.62
  L 256.54 155.44
  A 1.01 1.00 86.7 0 1 257.65 154.19
  L 263.09 154.97
  A 1.00 0.99 26.0 0 0 263.94 154.68
  L 265.67 152.95
  A 1.01 1.01 0.0 0 1 267.23 153.12
  L 269.04 155.97
  A 1.01 1.01 0.0 0 0 270.62 156.11
  L 271.83 154.82
  A 1.00 1.00 0.0 0 1 273.15 154.69
  Q 281.57 160.85 276.12 169.89
  A 0.99 0.98 -47.6 0 0 276.16 170.99
  Q 285.74 184.12 284.00 199.74
  C 283.33 205.67 277.36 211.47 273.41 215.90
  Q 272.24 217.22 268.84 223.34
  Q 268.10 224.68 266.96 223.75
  A 1.00 0.99 29.1 0 1 266.64 222.66
  Q 268.57 216.75 270.51 214.77
  C 276.01 209.13 281.34 204.35 281.75 198.02
  Q 282.92 179.57 268.79 166.95
  A 1.00 0.99 -46.3 0 1 268.76 165.49
  L 269.08 165.17
  A 1.01 1.00 44.4 0 1 270.46 165.16
  L 273.22 167.71
  A 1.00 1.00 0.0 0 0 274.80 167.41
  Q 277.29 162.29 273.47 158.19
  A 1.01 1.01 0.0 0 0 271.95 158.24
  L 270.23 160.39
  A 1.00 1.00 0.0 0 1 268.59 160.27
  L 266.82 157.27
  A 1.02 1.01 60.9 0 0 265.49 156.89
  Q 263.08 158.14 260.59 156.88
  A 0.80 0.80 0.0 0 0 259.46 157.36
  C 259.11 158.55 260.90 160.57 260.05 163.03
  A 1.01 1.01 0.0 0 0 260.58 164.27
  L 263.48 165.60
  A 1.00 1.00 0.0 0 1 263.85 167.13
  L 261.97 169.49
  A 1.00 1.00 0.0 0 0 262.17 170.92
  Q 265.37 173.22 269.71 172.20
  Q 271.55 171.77 271.73 173.25
  A 1.00 1.00 0.0 0 1 271.04 174.32
  Q 263.42 176.78 258.53 170.73
  A 0.99 0.99 0.0 0 1 258.55 169.46
  L 259.78 168.00
  A 0.99 0.99 0.0 0 0 259.43 166.45
  Z"
/>
<path d="
  M 243.09 175.56
  L 239.43 179.48
  A 0.99 0.98 -56.2 0 1 238.29 179.71
  L 231.98 176.82
  A 0.64 0.64 0.0 0 1 231.73 175.85
  C 232.50 174.82 236.82 176.26 237.94 176.64
  A 1.00 0.99 31.0 0 0 238.99 176.38
  L 243.14 171.94
  A 1.00 0.99 45.2 0 1 244.60 171.95
  L 248.70 176.35
  A 1.00 0.98 61.2 0 0 249.66 176.64
  L 255.15 175.32
  A 0.64 0.64 0.0 0 1 255.92 176.06
  C 255.63 177.67 250.41 179.38 248.99 179.69
  A 1.01 0.99 62.6 0 1 248.04 179.38
  L 244.56 175.56
  A 1.00 0.99 -44.8 0 0 243.09 175.56
  Z"
/>
<path d="
  M 260.50 209.61
  Q 255.57 209.96 251.05 212.99
  Q 245.40 216.77 244.99 223.63
  A 1.00 1.00 0.0 0 1 243.94 224.57
  Q 227.40 223.66 222.46 208.14
  A 1.00 1.00 0.0 0 1 223.40 206.84
  Q 233.75 206.72 241.05 213.65
  Q 242.72 215.24 242.74 212.93
  L 242.77 208.74
  A 1.01 1.00 -86.8 0 0 241.88 207.74
  C 231.64 206.55 229.84 197.28 229.35 188.83
  C 229.19 186.06 228.66 184.11 227.23 182.04
  A 1.00 1.00 0.0 0 1 227.92 180.48
  Q 236.30 179.39 241.94 185.58
  A 1.00 1.00 0.0 0 1 242.01 186.84
  L 241.62 187.37
  A 1.00 0.99 -45.9 0 1 240.03 187.40
  Q 237.06 183.59 232.25 182.78
  A 1.00 0.99 -89.8 0 0 231.10 183.93
  Q 232.17 190.32 233.38 197.05
  C 234.32 202.25 236.54 204.39 241.61 205.13
  A 1.01 1.00 -85.8 0 0 242.75 204.14
  C 242.77 199.57 242.21 193.99 243.60 189.98
  Q 247.07 179.94 259.67 180.26
  Q 261.77 180.32 260.40 181.92
  C 259.11 183.42 258.32 186.39 258.14 188.70
  C 257.38 198.80 256.66 204.98 245.78 207.83
  A 1.01 1.00 82.5 0 0 245.04 208.80
  L 245.03 212.84
  Q 245.03 215.20 246.73 213.56
  Q 253.86 206.66 264.18 206.81
  A 1.00 0.99 8.4 0 1 265.13 208.08
  Q 261.54 220.70 248.89 223.94
  A 1.01 1.00 77.5 0 1 247.66 223.15
  L 247.58 222.70
  A 0.99 0.99 0.0 0 1 248.30 221.55
  Q 257.31 219.19 261.46 211.07
  Q 262.26 209.49 260.50 209.61
  Z
  M 255.25 183.04
  Q 248.01 184.41 245.76 190.73
  C 244.48 194.33 245.02 199.81 244.99 204.02
  A 1.00 1.00 0.0 0 0 246.10 205.02
  C 250.88 204.51 253.23 202.22 254.19 197.36
  Q 255.50 190.76 256.43 184.16
  A 1.00 1.00 0.0 0 0 255.25 183.04
  Z
  M 237.79 214.22
  Q 233.18 210.08 227.13 209.60
  Q 225.33 209.46 226.17 211.06
  Q 230.97 220.23 241.31 221.94
  Q 243.16 222.25 242.38 220.54
  Q 240.69 216.83 237.79 214.22
  Z"
/>
<path d="
  M 276.39 185.11
  Q 277.65 183.31 278.18 185.44
  Q 278.46 186.57 277.77 187.69
  C 274.79 192.51 274.64 197.35 277.56 202.28
  A 1.01 1.01 0.0 0 1 277.48 203.42
  L 277.17 203.81
  A 1.01 1.00 49.7 0 1 275.51 203.67
  Q 270.17 194.01 276.39 185.11
  Z"
/>
<path d="
  M 215.81 225.94
  Q 217.04 226.54 217.21 227.46
  A 0.80 0.80 0.0 0 1 216.23 228.39
  Q 212.80 227.50 210.35 225.16
  C 194.84 210.36 220.09 201.05 209.40 186.74
  A 0.99 0.99 0.0 0 1 209.35 185.62
  L 209.57 185.26
  A 1.00 1.00 0.0 0 1 211.20 185.15
  C 216.20 191.34 215.58 199.01 211.19 205.26
  C 205.66 213.14 206.76 221.46 215.81 225.94
  Z"
/>
<path d="
  M 240.58 236.47
  Q 242.38 238.48 239.23 238.92
  C 228.79 240.41 222.43 236.83 219.67 226.70
  Q 217.34 218.16 211.02 211.74
  A 1.02 1.01 36.4 0 1 210.84 210.58
  L 211.01 210.25
  A 1.00 1.00 0.0 0 1 212.58 209.97
  Q 218.88 215.81 221.31 223.87
  Q 223.08 229.74 223.78 230.91
  Q 228.61 238.99 239.59 236.17
  A 1.00 0.99 -27.8 0 1 240.58 236.47
  Z"
/>
<path d="
  M 247.40 232.42
  Q 245.41 231.48 247.05 230.30
  C 254.03 225.30 259.98 225.87 267.69 226.24
  C 275.54 226.62 280.08 219.72 280.14 212.43
  C 280.15 211.58 280.72 210.14 281.79 210.77
  A 0.79 0.78 -78.0 0 1 282.17 211.37
  C 283.13 219.67 278.36 228.65 269.00 228.45
  C 261.00 228.29 255.24 227.65 248.40 232.34
  A 1.03 1.02 -49.3 0 1 247.40 232.42
  Z"
/>
<path d="
  M 253.50 236.91
  Q 259.67 236.51 263.53 231.46
  A 1.03 1.01 9.1 0 1 264.02 231.11
  C 265.72 230.57 267.20 231.05 265.68 232.91
  C 259.33 240.70 250.83 241.18 243.00 235.46
  C 237.06 231.11 234.21 228.54 226.02 228.26
  Q 224.02 228.19 224.64 226.47
  A 1.00 0.98 -81.9 0 1 225.51 225.81
  Q 230.63 225.46 235.20 227.26
  C 241.47 229.73 246.38 237.38 253.50 236.91
  Z"
/>
<path d="
  M 289.93 297.59
  A 1.00 1.00 0.0 0 0 288.42 297.64
  L 278.71 309.42
  A 1.00 0.98 20.3 0 1 277.90 309.78
  L 275.79 309.71
  Q 273.76 309.65 275.05 308.08
  L 286.37 294.28
  A 1.01 1.00 -45.3 0 0 286.37 293.01
  L 275.17 279.40
  Q 273.85 277.79 275.93 277.76
  L 278.32 277.74
  A 1.01 0.98 68.8 0 1 279.10 278.10
  L 288.67 289.64
  A 1.00 1.00 0.0 0 0 290.21 289.64
  L 299.73 278.11
  A 1.00 1.00 0.0 0 1 300.50 277.75
  L 302.84 277.75
  Q 304.98 277.75 303.61 279.39
  L 292.37 292.83
  A 1.01 0.99 45.5 0 0 292.37 294.11
  L 304.14 308.34
  Q 305.37 309.82 303.45 309.97
  Q 300.33 310.22 298.47 307.79
  Q 294.25 302.28 289.93 297.59
  Z"
/>
<path d="
  M 85.45 278.23
  L 88.07 278.32
  A 0.71 0.71 0.0 0 1 88.75 279.03
  L 88.75 308.98
  A 0.71 0.71 0.0 0 1 88.04 309.69
  L 85.52 309.70
  A 0.71 0.71 0.0 0 1 84.81 308.99
  L 84.72 287.57
  A 0.71 0.71 0.0 0 0 83.42 287.18
  L 73.05 302.93
  A 0.71 0.71 0.0 0 1 71.87 302.94
  L 61.32 287.06
  A 0.71 0.71 0.0 0 0 60.02 287.46
  L 60.33 308.95
  A 0.71 0.71 0.0 0 1 59.65 309.67
  L 56.99 309.77
  A 0.71 0.71 0.0 0 1 56.25 309.06
  L 56.25 279.04
  A 0.71 0.71 0.0 0 1 56.93 278.33
  L 59.44 278.22
  A 0.71 0.71 0.0 0 1 60.07 278.54
  L 71.82 296.65
  A 0.71 0.71 0.0 0 0 73.01 296.65
  L 84.83 278.55
  A 0.71 0.71 0.0 0 1 85.45 278.23
  Z"
/>
<path d="
  M 416.48 310.06
  C 392.48 303.09 413.79 271.93 433.08 288.60
  A 1.02 1.01 -63.1 0 1 433.40 289.60
  Q 433.05 291.01 431.46 291.47
  A 1.01 1.00 -32.7 0 1 430.53 291.27
  Q 424.38 286.02 417.37 288.12
  C 400.44 293.20 415.45 317.21 431.22 302.55
  A 1.00 0.98 -57.2 0 1 432.20 302.33
  C 435.53 303.39 434.30 305.19 432.42 306.63
  Q 424.75 312.46 416.48 310.06
  Z"
/>
<path d="
  M 131.4198 297.7226
  A 14.79 12.95 -0.3 0 1 116.6978 310.7498
  A 14.79 12.95 -0.3 0 1 101.8402 297.8774
  A 14.79 12.95 -0.3 0 1 116.5622 284.8502
  A 14.79 12.95 -0.3 0 1 131.4198 297.7226
  Z
  M 127.4900 297.8290
  A 10.86 9.37 0.1 0 0 116.6464 288.4400
  A 10.86 9.37 0.1 0 0 105.7700 297.7910
  A 10.86 9.37 0.1 0 0 116.6136 307.1800
  A 10.86 9.37 0.1 0 0 127.4900 297.8290
  Z"
/>
<path d="
  M 185.74 288.50
  L 176.51 288.50
  A 0.51 0.51 0.0 0 1 176.00 287.99
  L 176.00 285.26
  A 0.51 0.51 0.0 0 1 176.51 284.75
  L 199.74 284.75
  A 0.51 0.51 0.0 0 1 200.25 285.26
  L 200.25 287.99
  A 0.51 0.51 0.0 0 1 199.74 288.50
  L 190.51 288.50
  A 0.51 0.51 0.0 0 0 190.00 289.01
  L 190.00 309.25
  A 0.51 0.51 0.0 0 1 189.49 309.76
  L 186.76 309.75
  A 0.51 0.51 0.0 0 1 186.25 309.24
  L 186.25 289.01
  A 0.51 0.51 0.0 0 0 185.74 288.50
  Z"
/>
<path d="
  M 215.18 306.25
  L 233.98 306.25
  A 0.68 0.68 0.0 0 1 234.66 306.90
  L 234.77 309.04
  A 0.68 0.68 0.0 0 1 234.09 309.75
  L 211.43 309.75
  A 0.68 0.68 0.0 0 1 210.75 309.07
  L 210.76 285.44
  A 0.68 0.68 0.0 0 1 211.44 284.76
  L 232.82 284.75
  A 0.68 0.68 0.0 0 1 233.50 285.43
  L 233.50 287.82
  A 0.68 0.68 0.0 0 1 232.82 288.50
  L 215.18 288.50
  A 0.68 0.68 0.0 0 0 214.50 289.18
  L 214.50 294.07
  A 0.68 0.68 0.0 0 0 215.18 294.75
  L 226.33 294.75
  A 0.68 0.68 0.0 0 1 227.01 295.43
  L 227.00 297.57
  A 0.68 0.68 0.0 0 1 226.32 298.25
  L 215.18 298.25
  A 0.68 0.68 0.0 0 0 214.50 298.93
  L 214.50 305.57
  A 0.68 0.68 0.0 0 0 215.18 306.25
  Z"
/>
<path d="
  M 313.96 309.72
  A 1.00 1.00 0.0 0 1 313.09 308.26
  Q 318.72 297.38 324.30 286.51
  C 325.06 285.02 326.98 283.73 328.03 285.73
  Q 333.92 296.99 339.79 308.27
  A 1.00 1.00 0.0 0 1 338.91 309.73
  L 336.93 309.76
  A 0.99 0.98 -14.1 0 1 336.04 309.23
  L 333.34 304.14
  A 1.01 1.01 0.0 0 0 332.47 303.61
  L 320.48 303.45
  A 1.01 1.00 -75.3 0 0 319.58 303.98
  L 316.76 309.23
  A 1.01 1.00 -75.3 0 1 315.86 309.76
  L 313.96 309.72
  Z
  M 321.77 299.34
  A 0.44 0.44 0.0 0 0 322.16 299.99
  L 330.59 300.00
  A 0.44 0.44 0.0 0 0 330.98 299.36
  L 326.78 291.27
  A 0.44 0.44 0.0 0 0 326.00 291.27
  L 321.77 299.34
  Z"
/>
<path d="
  M 369.25 300.53
  L 369.25 285.85
  A 1.00 1.00 0.0 0 1 370.25 284.85
  L 372.00 284.85
  A 1.00 1.00 0.0 0 1 373.00 285.85
  L 373.00 309.41
  Q 372.99 311.97 371.26 310.09
  L 356.73 294.33
  Q 354.99 292.45 355.00 295.01
  L 355.00 308.75
  A 1.00 1.00 0.0 0 1 354.00 309.75
  L 352.00 309.75
  A 1.00 1.00 0.0 0 1 351.00 308.75
  L 350.99 286.25
  Q 350.99 282.64 353.44 285.31
  L 367.86 301.07
  Q 369.25 302.59 369.25 300.53
  Z"
/>
<rect x="388.26" y="284.78" width="4.24" height="24.98" rx="0.61"/>
<path d="
  M 148.79 295.29
  Q 148.73 300.76 148.72 307.02
  Q 148.72 310.75 145.48 309.59
  A 0.99 0.99 0.0 0 1 144.82 308.67
  Q 144.67 297.88 144.78 287.13
  C 144.81 285.10 146.20 284.67 147.52 286.11
  Q 154.10 293.27 160.50 300.59
  Q 162.30 302.65 162.25 299.91
  Q 162.15 294.21 162.37 287.92
  Q 162.49 284.30 165.38 285.53
  A 1.00 1.00 0.0 0 1 165.99 286.45
  L 166.02 307.00
  Q 166.03 312.08 162.67 308.30
  L 150.54 294.64
  Q 148.82 292.70 148.79 295.29
  Z"
/>
<path d="
  M 284.72 333.75
  Q 285.27 332.29 286.50 331.56
  Q 288.22 330.54 287.21 332.26
  Q 286.42 333.59 285.53 334.33
  Q 284.05 335.54 284.72 333.75
  Z"
/>
<path d="
  M 227.81 345.50
  L 221.81 345.50
  A 0.30 0.30 0.0 0 0 221.55 345.65
  L 220.24 347.88
  A 0.30 0.30 0.0 0 1 219.96 348.03
  L 218.86 347.95
  A 0.30 0.30 0.0 0 1 218.61 347.52
  L 224.55 335.42
  A 0.30 0.30 0.0 0 1 225.09 335.42
  L 231.24 347.75
  A 0.30 0.30 0.0 0 1 231.02 348.18
  L 230.23 348.31
  A 0.30 0.30 0.0 0 1 229.94 348.19
  L 228.05 345.62
  A 0.30 0.30 0.0 0 0 227.81 345.50
  Z
  M 222.52 343.26
  A 0.36 0.36 0.0 0 0 222.85 343.77
  L 226.93 343.73
  A 0.36 0.36 0.0 0 0 227.25 343.21
  L 225.16 339.14
  A 0.36 0.36 0.0 0 0 224.52 339.14
  L 222.52 343.26
  Z"
/>
<path d="
  M 325.32 347.88
  A 1.00 1.00 0.0 0 1 324.50 346.90
  L 324.50 336.40
  A 0.64 0.64 0.0 0 1 325.25 335.77
  C 326.50 335.98 325.95 342.21 326.07 345.31
  A 1.01 1.01 0.0 0 0 327.02 346.27
  L 333.12 346.60
  A 0.80 0.78 -16.1 0 1 333.72 346.92
  Q 334.35 347.76 333.06 347.98
  Q 329.26 348.62 325.32 347.88
  Z"
/>
<path d="
  M 345.50 345.50
  L 340.36 345.50
  A 1.00 0.97 16.6 0 0 339.54 345.93
  C 339.12 346.54 338.04 348.78 337.06 348.10
  A 0.64 0.63 30.1 0 1 336.84 347.30
  L 342.03 336.68
  Q 342.92 334.86 343.82 336.67
  L 349.12 347.24
  A 0.64 0.63 -26.2 0 1 348.82 348.10
  L 348.54 348.23
  A 0.51 0.51 0.0 0 1 347.91 348.07
  L 346.31 345.90
  A 1.02 1.00 -18.0 0 0 345.50 345.50
  Z
  M 340.68 343.14
  A 0.42 0.42 0.0 0 0 341.06 343.75
  L 344.94 343.75
  A 0.42 0.42 0.0 0 0 345.32 343.14
  L 343.38 339.25
  A 0.42 0.42 0.0 0 0 342.62 339.25
  L 340.68 343.14
  Z"
/>
<path d="
  M 248.99 343.99
  Q 249.91 345.92 250.80 343.98
  L 254.10 336.86
  A 0.99 0.99 0.0 0 1 255.20 336.30
  L 255.47 336.36
  A 0.41 0.40 18.4 0 1 255.76 336.93
  L 250.77 347.41
  Q 249.87 349.30 248.96 347.42
  Q 246.63 342.55 244.01 337.47
  Q 243.29 336.05 244.58 336.06
  A 1.00 1.00 0.0 0 1 245.48 336.63
  L 248.99 343.99
  Z"
/>
<path d="
  M 269.83 341.90
  Q 269.57 344.23 269.77 346.68
  C 269.83 347.40 269.69 348.15 268.86 348.11
  A 0.64 0.64 0.0 0 1 268.25 347.47
  L 268.25 337.86
  Q 268.25 335.17 270.00 337.21
  L 274.99 342.98
  Q 276.72 344.98 276.75 342.33
  L 276.80 337.13
  A 1.00 0.99 -2.2 0 1 277.71 336.15
  L 278.05 336.11
  A 0.41 0.41 0.0 0 1 278.50 336.52
  L 278.50 346.47
  Q 278.50 349.08 276.76 347.13
  L 271.57 341.35
  Q 270.08 339.68 269.83 341.90
  Z"
/>
<rect x="-0.75" y="-6.00" transform="translate(261.50,342.24) rotate(0.1)" width="1.50" height="12.00" rx="0.50"/>
<rect x="-0.87" y="-5.93" transform="translate(285.12,342.19) rotate(0.1)" width="1.74" height="11.86" rx="0.53"/>
<path d="
  M 139.79 347.89
  A 1.00 1.00 0.0 0 1 139.00 346.91
  L 139.00 337.50
  A 1.01 1.00 -0.3 0 1 140.00 336.50
  C 142.92 336.50 149.13 335.30 149.76 339.35
  A 1.04 1.00 56.6 0 1 149.64 340.00
  C 148.11 342.66 153.72 346.14 147.75 347.73
  Q 143.88 348.75 139.79 347.89
  Z
  M 148.0191 339.2335
  A 0.74 0.74 0.0 0 0 147.2778 338.4948
  L 141.3178 338.5052
  A 0.74 0.74 0.0 0 0 140.5791 339.2465
  L 140.5809 340.2665
  A 0.74 0.74 0.0 0 0 141.3222 341.0052
  L 147.2822 340.9948
  A 0.74 0.74 0.0 0 0 148.0209 340.2535
  L 148.0191 339.2335
  Z
  M 148.9609 344.4523
  A 1.69 1.69 0.0 0 0 147.2798 342.7534
  L 142.1599 342.7266
  A 1.69 1.69 0.0 0 0 140.4611 344.4077
  L 140.4591 344.7877
  A 1.69 1.69 0.0 0 0 142.1402 346.4866
  L 147.2601 346.5134
  A 1.69 1.69 0.0 0 0 148.9589 344.8323
  L 148.9609 344.4523
  Z"
/>
<path d="
  M 167.49 342.41
  A 6.23 5.79 0.0 0 1 161.26 348.20
  A 6.23 5.79 0.0 0 1 155.03 342.41
  A 6.23 5.79 0.0 0 1 161.26 336.62
  A 6.23 5.79 0.0 0 1 167.49 342.41
  Z
  M 165.7393 342.3415
  A 4.50 3.96 -1.0 0 0 161.1709 338.4606
  A 4.50 3.96 -1.0 0 0 156.7407 342.4985
  A 4.50 3.96 -1.0 0 0 161.3091 346.3794
  A 4.50 3.96 -1.0 0 0 165.7393 342.3415
  Z"
/>
<path d="
  M 173.86 348.09
  A 1.00 1.00 0.0 0 1 173.00 347.10
  L 173.00 337.66
  A 1.00 0.99 86.8 0 1 173.88 336.67
  Q 178.41 336.11 182.65 337.92
  A 0.96 0.93 -2.4 0 1 183.13 338.35
  C 187.63 346.41 180.12 348.96 173.86 348.09
  Z
  M 175.32 346.21
  C 186.24 348.12 183.52 336.21 175.23 338.51
  A 1.00 0.99 82.4 0 0 174.50 339.47
  L 174.50 345.22
  A 1.01 1.00 -84.9 0 0 175.32 346.21
  Z"
/>
<path d="
  M 190.21 348.21
  A 1.01 1.00 -88.9 0 1 189.22 347.17
  L 189.55 337.51
  A 1.01 1.00 -89.1 0 1 190.54 336.54
  L 198.02 336.48
  A 1.01 1.01 0.0 0 1 199.02 337.38
  C 199.20 339.03 193.17 338.51 192.02 338.51
  A 1.00 1.00 0.0 0 0 191.03 339.61
  L 191.07 340.06
  A 1.00 0.99 86.3 0 0 192.09 340.96
  C 196.25 340.85 197.78 343.12 192.25 342.72
  A 1.00 1.00 0.0 0 0 191.18 343.59
  L 190.99 345.11
  A 1.00 0.99 2.4 0 0 192.02 346.23
  C 193.37 346.18 200.95 345.84 199.20 347.91
  A 1.00 1.00 0.0 0 1 198.43 348.27
  L 190.21 348.21
  Z"
/>
<path d="
  M 214.70 344.19
  C 213.54 352.02 197.80 347.31 204.76 338.77
  Q 208.55 334.11 213.93 338.79
  A 0.96 0.96 0.0 0 1 214.27 339.43
  C 214.45 340.99 213.32 340.43 212.76 339.84
  Q 210.01 336.93 206.43 339.44
  Q 203.32 341.61 205.49 344.72
  C 207.29 347.29 214.40 346.26 213.05 343.99
  A 0.65 0.63 67.0 0 0 212.33 343.69
  Q 211.23 344.01 210.45 343.54
  Q 208.87 342.57 210.66 342.08
  Q 215.20 340.84 214.70 344.19
  Z"
/>
<path d="
  M 293.61 344.89
  Q 297.53 347.99 301.10 344.30
  A 0.82 0.81 27.7 0 1 301.85 344.07
  Q 302.85 344.29 301.98 345.52
  C 298.02 351.10 288.89 347.01 291.15 341.06
  C 292.95 336.31 298.24 334.91 301.92 339.05
  Q 302.75 339.99 301.86 340.44
  A 0.66 0.64 51.6 0 1 301.15 340.35
  Q 296.46 336.31 292.76 341.02
  Q 291.21 342.99 293.61 344.89
  Z"
/>
<path d="
  M 319.4600 342.4091
  A 6.24 5.76 -0.1 0 1 313.2301 348.1800
  A 6.24 5.76 -0.1 0 1 306.9800 342.4309
  A 6.24 5.76 -0.1 0 1 313.2099 336.6600
  A 6.24 5.76 -0.1 0 1 319.4600 342.4091
  Z
  M 317.7697 342.4455
  A 4.54 3.90 0.7 0 0 313.2776 338.4903
  A 4.54 3.90 0.7 0 0 308.6903 342.3345
  A 4.54 3.90 0.7 0 0 313.1824 346.2897
  A 4.54 3.90 0.7 0 0 317.7697 342.4455
  Z"
/>
</g>
</svg>
