<?xml version="1.0" encoding="UTF-8" standalone="no"?>
<!DOCTYPE svg PUBLIC "-//W3C//DTD SVG 1.1//EN" "http://www.w3.org/Graphics/SVG/1.1/DTD/svg11.dtd">
<svg xmlns="http://www.w3.org/2000/svg" version="1.1" viewBox="0 0 400 400">
<g stroke-width="2.00" fill="none" stroke-linecap="butt">
<path stroke="#d3c5ae" vector-effect="non-scaling-stroke" d="
  M 126.28 151.64
  Q 125.35 151.13 124.32 150.79
  A 0.65 0.65 0.0 0 0 123.59 151.02
  C 121.84 153.50 134.13 154.29 130.24 148.62
  A 1.03 0.98 -3.8 0 0 129.81 148.26
  L 126.64 146.91
  Q 124.24 145.89 126.71 145.04
  Q 128.47 144.44 130.16 145.32
  A 0.63 0.63 0.0 0 0 130.91 145.20
  C 132.16 143.92 127.06 141.74 124.59 145.19
  A 1.06 1.03 -31.3 0 0 124.41 145.89
  Q 124.76 148.77 127.87 148.95
  A 0.99 0.98 -12.3 0 1 128.69 149.47
  Q 129.94 151.78 126.75 151.77
  Q 126.50 151.77 126.28 151.64"
/>
<path stroke="#d3c5ae" vector-effect="non-scaling-stroke" d="
  M 136.51 146.02
  L 135.67 151.96
  A 0.80 0.79 -73.4 0 0 136.11 152.79
  C 137.43 153.43 137.76 147.83 138.00 145.76
  A 1.00 0.99 -90.0 0 1 138.87 144.88
  L 141.05 144.61
  A 0.21 0.20 -11.6 0 0 141.23 144.35
  L 141.14 144.06
  A 1.00 0.99 -7.6 0 0 140.18 143.33
  L 134.63 143.35
  A 1.00 0.99 -77.3 0 0 133.73 143.93
  L 133.61 144.17
  A 0.52 0.51 12.4 0 0 134.08 144.90
  L 135.51 144.88
  A 1.00 1.00 0.0 0 1 136.51 146.02"
/>
<path stroke="#d3c5ae" vector-effect="non-scaling-stroke" d="
  M 144.75 150.63
  L 144.75 149.76
  A 1.00 1.00 0.0 0 1 145.74 148.76
  C 146.25 148.75 150.27 149.47 149.66 147.91
  A 0.64 0.63 79.1 0 0 149.07 147.50
  L 145.98 147.50
  A 1.01 1.01 0.0 0 1 144.99 146.68
  C 144.51 144.04 149.01 144.74 150.46 144.70
  A 0.40 0.40 0.0 0 0 150.85 144.23
  L 150.82 143.98
  A 0.80 0.79 84.0 0 0 149.99 143.30
  L 145.07 143.55
  A 1.00 1.00 0.0 0 0 144.13 144.40
  L 143.05 151.63
  A 0.99 0.98 11.5 0 0 143.79 152.74
  Q 147.09 153.58 149.33 152.85
  C 151.35 152.19 149.62 151.63 148.87 151.72
  Q 147.18 151.93 145.56 151.61
  A 1.00 1.00 0.0 0 1 144.75 150.63"
/>
<path stroke="#d3c5ae" vector-effect="non-scaling-stroke" d="
  M 159.88 148.71
  Q 163.46 146.52 160.33 143.79
  A 1.01 0.99 65.6 0 0 159.71 143.55
  L 155.41 143.38
  A 1.01 1.00 5.4 0 0 154.37 144.24
  L 153.28 152.04
  A 0.65 0.64 11.0 0 0 153.77 152.75
  C 156.14 153.31 153.53 147.48 157.39 149.85
  C 157.78 150.09 160.44 154.72 160.78 152.49
  A 1.06 1.01 -57.8 0 0 160.64 151.81
  L 159.56 150.09
  A 0.99 0.99 0.0 0 1 159.88 148.71"
/>
<path stroke="#d3c5ae" vector-effect="non-scaling-stroke" d="
  M 176.90 150.76
  C 172.40 154.20 168.84 148.65 174.09 144.41
  A 1.01 1.00 39.7 0 1 175.20 144.31
  L 177.55 145.60
  A 0.80 0.80 0.0 0 0 178.73 145.00
  Q 178.85 144.10 177.69 143.74
  C 168.64 140.97 166.68 154.44 175.51 153.03
  Q 177.08 152.77 177.85 151.31
  A 0.34 0.34 0.0 0 0 177.72 150.87
  L 177.47 150.73
  A 0.53 0.52 41.2 0 0 176.90 150.76"
/>
<path stroke="#d3c5ae" vector-effect="non-scaling-stroke" d="
  M 193.7587 151.9236
  A 5.18 4.55 134.2 0 0 200.6319 151.3821
  A 5.18 4.55 134.2 0 0 200.9813 144.4964
  A 5.18 4.55 134.2 0 0 194.1081 145.0379
  A 5.18 4.55 134.2 0 0 193.7587 151.9236"
/>
<path stroke="#d3c5ae" vector-effect="non-scaling-stroke" d="
  M 206.52 148.63
  Q 207.93 142.93 212.98 145.63
  A 0.64 0.64 0.0 0 0 213.62 145.60
  C 214.31 145.16 213.79 144.30 213.23 144.01
  C 206.88 140.78 200.97 150.53 209.00 153.30
  Q 210.61 153.85 212.94 151.96
  Q 213.58 151.44 213.26 150.87
  A 0.52 0.51 57.0 0 0 212.51 150.70
  Q 208.52 153.65 206.58 149.28
  A 1.04 1.00 41.1 0 1 206.52 148.63"
/>
<path stroke="#d3c5ae" vector-effect="non-scaling-stroke" d="
  M 224.6141 144.5969
  A 5.16 4.59 -44.6 0 0 217.7171 144.9518
  A 5.16 4.59 -44.6 0 0 217.2659 151.8431
  A 5.16 4.59 -44.6 0 0 224.1629 151.4882
  A 5.16 4.59 -44.6 0 0 224.6141 144.5969"
/>
<path stroke="#d3c5ae" vector-effect="non-scaling-stroke" d="
  M 230.17 150.60
  L 231.12 144.43
  A 1.01 1.01 0.0 0 0 230.90 143.63
  C 230.23 142.83 229.63 143.75 229.54 144.45
  Q 229.07 148.07 228.69 151.82
  A 1.01 0.99 -86.8 0 0 229.66 152.92
  L 234.48 153.04
  A 0.51 0.51 0.0 0 0 235.00 152.52
  L 235.00 152.15
  A 0.41 0.41 0.0 0 0 234.59 151.75
  L 231.16 151.75
  A 1.00 1.00 0.0 0 1 230.17 150.60"
/>
<path stroke="#d3c5ae" vector-effect="non-scaling-stroke" d="
  M 251.31 145.93
  Q 250.89 148.74 250.51 151.57
  C 250.42 152.17 250.65 153.43 251.49 152.81
  A 0.83 0.81 76.0 0 0 251.80 152.28
  L 252.77 145.60
  A 0.99 0.99 0.0 0 1 253.76 144.75
  L 255.64 144.75
  A 0.41 0.40 78.0 0 0 256.01 144.17
  L 255.86 143.84
  A 1.00 0.99 72.8 0 0 254.80 143.28
  C 253.84 143.42 247.77 142.78 248.57 144.38
  A 0.66 0.65 -11.7 0 0 249.12 144.73
  L 250.36 144.78
  A 1.01 1.01 0.0 0 1 251.31 145.93"
/>
<path stroke="#d3c5ae" vector-effect="non-scaling-stroke" d="
  M 260.2605 144.2066
  A 0.69 0.69 0.0 0 0 259.6692 143.4304
  L 259.5503 143.4143
  A 0.69 0.69 0.0 0 0 258.7740 144.0057
  L 257.6995 151.9534
  A 0.69 0.69 0.0 0 0 258.2908 152.7296
  L 258.4097 152.7457
  A 0.69 0.69 0.0 0 0 259.1860 152.1543
  L 260.2605 144.2066"
/>
<path stroke="#d3c5ae" vector-effect="non-scaling-stroke" d="
  M 264.60 150.41
  L 264.81 149.52
  A 1.01 1.00 6.2 0 1 265.78 148.75
  L 269.11 148.75
  A 0.64 0.62 15.0 0 0 269.65 148.45
  C 270.54 147.06 266.50 147.50 266.00 147.49
  A 1.01 1.00 4.1 0 1 265.02 146.36
  L 265.12 145.61
  A 1.01 0.99 3.5 0 1 266.12 144.74
  L 270.06 144.75
  A 0.79 0.78 -72.4 0 0 270.73 144.40
  C 271.86 142.70 265.37 143.55 265.00 143.53
  A 1.01 1.00 5.0 0 0 263.96 144.40
  L 263.00 151.87
  A 1.00 1.00 0.0 0 0 264.01 153.00
  L 269.28 152.91
  A 0.79 0.78 16.2 0 0 269.94 152.55
  Q 270.62 151.49 268.74 151.72
  Q 267.05 151.93 265.39 151.63
  A 1.01 1.01 0.0 0 1 264.60 150.41"
/>
<path stroke="#d3c5ae" vector-effect="non-scaling-stroke" d="
  M 101.96 145.99
  L 102.28 145.99
  A 0.42 0.41 80.9 0 1 102.69 146.29
  Q 104.53 153.17 107.19 146.84
  A 1.03 1.00 -89.6 0 1 107.72 146.30
  C 109.25 145.65 107.68 151.49 107.60 152.04
  A 0.80 0.79 -68.2 0 0 107.92 152.80
  C 109.24 153.75 109.81 144.91 109.91 144.07
  A 0.51 0.50 16.7 0 0 109.63 143.56
  Q 109.21 143.35 108.82 143.83
  Q 107.36 145.62 105.64 147.30
  A 1.01 1.00 51.9 0 1 104.09 147.11
  Q 103.38 145.98 102.88 144.74
  C 100.90 139.93 99.86 151.85 99.84 152.01
  A 0.64 0.64 0.0 0 0 100.32 152.72
  C 101.59 153.04 101.58 147.17 101.57 146.41
  A 0.41 0.41 0.0 0 1 101.96 145.99"
/>
<path stroke="#d3c5ae" vector-effect="non-scaling-stroke" d="
  M 114.80 150.80
  Q 118.73 149.48 120.26 152.78
  A 0.65 0.63 -5.4 0 0 120.70 153.13
  Q 121.30 153.26 121.07 152.29
  Q 120.10 148.23 118.63 144.31
  Q 117.91 142.38 116.84 144.15
  L 112.39 151.54
  Q 110.98 153.89 113.28 152.41
  Q 113.87 152.03 114.22 151.31
  A 1.05 1.05 0.0 0 1 114.80 150.80"
/>
<path stroke="#d3c5ae" vector-effect="non-scaling-stroke" d="
  M 183.04 146.30
  L 183.44 144.29
  A 0.63 0.62 -68.2 0 0 183.16 143.63
  C 181.54 142.58 181.07 150.60 180.82 151.68
  Q 180.49 153.17 181.91 152.59
  Q 183.04 152.13 182.57 150.04
  A 1.01 1.00 -6.0 0 1 183.56 148.82
  L 186.65 148.85
  A 1.00 1.00 0.0 0 1 187.61 150.08
  L 187.21 151.77
  A 0.79 0.79 0.0 0 0 187.41 152.50
  C 189.00 154.18 189.60 145.38 189.75 144.58
  A 1.01 1.00 -56.0 0 0 189.61 143.84
  C 188.89 142.76 188.11 143.95 188.05 144.76
  Q 187.99 145.63 187.97 146.52
  A 1.00 1.00 0.0 0 1 186.97 147.50
  L 184.02 147.50
  A 1.00 1.00 0.0 0 1 183.04 146.30"
/>
<path stroke="#d3c5ae" vector-effect="non-scaling-stroke" d="
  M 244.91 151.31
  L 245.35 152.60
  A 0.76 0.75 -86.5 0 0 245.75 153.06
  Q 246.66 153.51 246.26 152.05
  Q 245.17 148.15 243.95 144.26
  Q 243.28 142.08 242.14 144.05
  L 237.38 152.25
  A 0.52 0.49 51.9 0 0 237.34 152.68
  C 237.85 154.10 239.44 151.30 239.65 151.00
  A 1.02 1.00 -71.6 0 1 240.49 150.57
  L 243.98 150.63
  A 1.01 1.00 80.8 0 1 244.91 151.31"
/>
<path stroke="#d3c5ae" vector-effect="non-scaling-stroke" d="
  M 274.76 151.40
  C 274.16 144.41 280.01 154.41 280.70 152.61
  A 0.79 0.79 0.0 0 0 280.56 151.81
  L 279.29 150.29
  A 1.00 1.00 0.0 0 1 279.55 148.78
  Q 284.85 145.70 277.57 142.71
  A 1.09 1.05 -40.4 0 0 276.93 142.67
  C 272.84 143.78 274.13 148.17 273.27 152.02
  A 0.64 0.63 -74.5 0 0 273.69 152.77
  C 274.66 153.09 274.82 152.16 274.76 151.40"
/>
<path stroke="#a69986" vector-effect="non-scaling-stroke" d="
  M 72.29 171.25
  L 70.87 174.95
  A 0.33 0.31 37.6 0 0 70.92 175.27
  Q 71.24 175.68 71.74 174.96
  C 75.28 169.84 85.62 170.85 91.30 170.74"
/>
<path stroke="#e5d6be" vector-effect="non-scaling-stroke" d="
  M 91.30 170.74
  L 89.04 186.00"
/>
<path stroke="#d3c5ae" vector-effect="non-scaling-stroke" d="
  M 89.04 186.00
  Q 87.27 198.15 85.25 210.25
  Q 84.11 217.06 82.25 220.46"
/>
<path stroke="#a69986" vector-effect="non-scaling-stroke" d="
  M 82.25 220.46
  L 79.51 221.51
  A 0.34 0.13 -21.4 0 0 79.25 221.75
  L 79.32 221.93
  A 0.72 0.15 -0.7 0 0 80.00 222.06
  L 96.37 222.05
  A 0.33 0.32 -84.7 0 0 96.69 221.78
  C 96.83 220.95 94.55 221.12 94.12 219.65
  Q 93.01 215.86 93.57 212.31
  Q 96.66 192.52 99.84 172.00
  A 1.01 1.00 2.1 0 1 100.76 171.15
  C 104.58 170.90 111.76 170.35 114.79 172.23
  C 115.47 172.65 117.56 175.00 117.85 175.01
  A 0.41 0.41 0.0 0 0 118.27 174.58
  Q 118.11 170.06 117.98 165.51
  C 117.95 164.47 117.46 164.22 116.50 164.54"
/>
<path stroke="#e5d6be" vector-effect="non-scaling-stroke" d="
  M 116.50 164.54
  L 74.55 164.75
  A 0.99 0.99 0.0 0 0 73.58 165.53
  L 72.29 171.25"
/>
<path stroke="#8b7045" vector-effect="non-scaling-stroke" d="
  M 116.50 164.54
  L 116.74 170.01
  Q 116.82 171.83 115.24 170.92
  Q 114.82 170.67 114.37 170.43
  C 111.49 168.87 103.14 169.59 99.79 169.94
  A 1.00 1.00 0.0 0 0 98.91 170.78
  L 93.67 203.61"
/>
<path stroke="#b99c6d" vector-effect="non-scaling-stroke" d="
  M 93.67 203.61
  Q 91.44 203.05 92.07 200.68
  C 93.14 196.62 93.60 192.40 94.25 188.25
  C 94.79 184.82 93.19 186.45 92.89 187.58
  Q 92.51 188.95 92.18 190.34
  Q 90.82 195.94 90.21 190.21
  Q 90.04 188.62 90.36 186.95
  A 1.03 1.02 31.9 0 0 90.17 186.15
  Q 89.68 185.51 89.04 186.00"
/>
<path stroke="#8b7045" vector-effect="non-scaling-stroke" d="
  M 91.30 170.74
  Q 81.66 168.60 72.29 171.25"
/>
<path stroke="#7a5f35" vector-effect="non-scaling-stroke" d="
  M 82.25 220.46
  Q 87.26 221.07 92.21 220.68
  A 1.00 1.00 0.0 0 0 93.09 219.41
  Q 91.98 215.48 92.71 211.25
  Q 93.23 208.24 93.67 203.61"
/>
<path stroke="#e5d6be" vector-effect="non-scaling-stroke" d="
  M 135.25 165.04
  L 122.88 164.89
  Q 120.10 164.86 122.22 166.66
  L 123.04 167.35
  A 0.98 0.98 0.0 0 1 123.37 167.93
  Q 124.11 171.89 123.74 174.75
  Q 122.29 185.86 121.04 197.00"
/>
<path stroke="#a69986" vector-effect="non-scaling-stroke" d="
  M 121.04 197.00
  C 119.50 209.30 121.03 219.11 134.25 222.73
  C 145.37 225.78 158.43 220.82 162.81 210.11
  Q 163.97 207.27 166.03 192.30
  Q 167.37 182.55 168.81 172.82
  Q 169.58 167.61 173.66 165.59
  C 175.87 164.49 171.60 164.94 171.25 165.04"
/>
<path stroke="#e5d6be" vector-effect="non-scaling-stroke" d="
  M 171.25 165.04
  L 159.25 165.04"
/>
<path stroke="#bfb3a1" vector-effect="non-scaling-stroke" d="
  M 159.25 165.04
  Q 158.35 164.49 157.77 164.69
  Q 156.62 165.07 157.58 165.80
  Q 159.20 167.03 160.24 169.07"
/>
<path stroke="#e5d6be" vector-effect="non-scaling-stroke" d="
  M 160.24 169.07
  L 157.04 197.75"
/>
<path stroke="#d3c5ae" vector-effect="non-scaling-stroke" d="
  M 157.04 197.75
  Q 156.64 202.66 155.07 207.31
  C 151.95 216.55 141.71 219.02 133.42 215.40"
/>
<path stroke="#a69986" vector-effect="non-scaling-stroke" d="
  M 133.42 215.40
  Q 127.75 210.76 128.56 203.29
  Q 129.94 190.65 131.80 178.07
  Q 132.81 171.29 132.91 170.98
  Q 133.91 167.88 136.63 165.91
  Q 139.00 164.19 136.13 164.76
  Q 135.69 164.85 135.25 165.04"
/>
<path stroke="#7a5f35" vector-effect="non-scaling-stroke" d="
  M 133.42 215.40
  Q 129.94 213.84 128.29 210.25"
/>
<path stroke="#9f8767" vector-effect="non-scaling-stroke" d="
  M 128.29 210.25
  Q 126.76 205.84 127.31 201.81
  Q 129.05 189.17 130.54 176.50"
/>
<path stroke="#8b7045" vector-effect="non-scaling-stroke" d="
  M 130.54 176.50
  C 131.36 172.28 131.69 168.00 135.25 165.04"
/>
<path stroke="#cdb28e" vector-effect="non-scaling-stroke" d="
  M 128.29 210.25
  Q 127.99 210.87 127.31 210.85
  A 0.81 0.80 81.3 0 1 126.56 210.29
  C 126.22 209.17 126.19 205.49 125.61 205.52
  A 0.52 0.52 0.0 0 1 125.08 204.95
  L 126.84 189.36"
/>
<path stroke="#dec49f" vector-effect="non-scaling-stroke" d="
  M 130.54 176.50
  C 128.81 175.16 129.36 177.24 129.13 178.05
  Q 127.55 183.59 126.84 189.36"
/>
<path stroke="#b99c6d" vector-effect="non-scaling-stroke" d="
  M 126.84 189.36
  Q 125.47 189.04 125.44 189.49
  Q 124.93 198.37 122.99 207.06
  A 0.51 0.51 0.0 0 1 122.39 207.45
  C 121.75 207.33 122.18 201.78 122.04 200.75"
/>
<path stroke="#8b7045" vector-effect="non-scaling-stroke" d="
  M 122.04 200.75
  Q 122.03 198.72 121.04 197.00"
/>
<path stroke="#8b7045" vector-effect="non-scaling-stroke" d="
  M 171.25 165.04
  C 168.52 166.70 167.36 172.10 167.07 175.05
  Q 165.89 187.08 163.79 199.00"
/>
<path stroke="#dec49f" vector-effect="non-scaling-stroke" d="
  M 163.79 199.00
  Q 164.16 196.60 163.30 196.95
  A 0.53 0.51 -6.7 0 0 162.99 197.33
  L 161.36 206.00
  A 0.81 0.81 0.0 0 0 161.77 206.86
  Q 162.07 207.02 162.46 207.00"
/>
<path stroke="#8b7045" vector-effect="non-scaling-stroke" d="
  M 162.46 207.00
  Q 160.26 215.87 152.00 219.79"
/>
<path stroke="#b99c6d" vector-effect="non-scaling-stroke" d="
  M 152.00 219.79
  Q 150.94 219.42 151.32 218.67
  A 0.79 0.78 -83.7 0 1 151.82 218.26
  C 155.11 217.32 158.53 212.90 160.27 210.70
  A 0.99 0.99 0.0 0 0 160.20 209.38
  L 157.68 206.84
  A 1.00 0.99 -56.9 0 1 157.46 205.77
  C 157.78 204.95 160.13 195.99 157.04 197.75"
/>
<path stroke="#7a5f35" vector-effect="non-scaling-stroke" d="
  M 122.04 200.75
  Q 121.02 208.12 121.74 210.24
  C 125.99 222.87 141.42 225.00 152.00 219.79"
/>
<path stroke="#9f8767" vector-effect="non-scaling-stroke" d="
  M 162.46 207.00
  L 163.79 199.00"
/>
<path stroke="#a58a60" vector-effect="non-scaling-stroke" d="
  M 159.25 165.04
  Q 159.80 165.96 160.72 166.57
  A 1.02 1.02 0.0 0 1 161.13 167.14
  Q 161.57 168.76 160.24 169.07"
/>
<path stroke="#e5d6be" vector-effect="non-scaling-stroke" d="
  M 255.68 166.29
  L 251.54 198.00"
/>
<path stroke="#d3c5ae" vector-effect="non-scaling-stroke" d="
  M 251.54 198.00
  Q 251.10 209.93 247.00 221.07"
/>
<path stroke="#a69986" vector-effect="non-scaling-stroke" d="
  M 247.00 221.07
  C 246.27 221.24 244.95 221.34 244.46 221.68
  C 243.32 222.44 244.97 222.60 245.38 222.57
  Q 252.51 222.00 259.59 222.71
  A 0.83 0.81 -66.6 0 0 260.29 222.42
  C 261.19 221.33 258.06 221.12 257.73 220.00
  Q 256.80 216.86 257.40 211.82
  Q 258.99 198.28 260.91 184.23
  Q 261.21 182.05 262.65 183.70
  L 295.59 221.39
  Q 297.06 223.07 297.34 220.86
  Q 300.38 196.96 303.75 172.51
  C 304.01 170.55 305.38 167.29 307.37 166.31
  Q 312.28 163.89 305.44 165.29"
/>
<path stroke="#e5d6be" vector-effect="non-scaling-stroke" d="
  M 305.44 165.29
  Q 300.81 164.91 295.85 165.21
  C 295.44 165.23 289.01 163.56 294.64 166.91
  Q 296.29 167.89 295.99 170.50
  L 293.04 195.75"
/>
<path stroke="#d3c5ae" vector-effect="non-scaling-stroke" d="
  M 293.04 195.75
  L 292.02 203.15
  Q 291.71 205.34 290.27 203.66
  L 257.07 165.05
  A 1.02 1.02 0.0 0 0 256.24 164.70
  Q 254.72 164.82 255.68 166.29"
/>
<path stroke="#b99c6d" vector-effect="non-scaling-stroke" d="
  M 293.04 195.75
  L 293.43 195.54
  A 0.52 0.51 77.3 0 1 294.18 196.02
  C 294.09 198.57 293.92 204.51 295.56 205.50
  A 1.00 1.00 0.0 0 1 296.01 206.60
  Q 295.30 209.48 297.26 210.73"
/>
<path stroke="#7a5f35" vector-effect="non-scaling-stroke" d="
  M 297.26 210.73
  Q 297.32 214.36 296.55 218.36
  Q 296.17 220.37 294.82 218.83
  L 287.75 210.79"
/>
<path stroke="#b99c6d" vector-effect="non-scaling-stroke" d="
  M 287.75 210.79
  Q 288.81 210.80 288.91 209.96
  A 0.63 0.60 -62.9 0 0 288.76 209.46
  L 284.91 205.10
  A 0.35 0.02 48.7 0 1 284.71 204.84
  Q 284.72 204.73 284.76 204.66
  A 0.41 0.19 41.8 0 1 285.23 204.80
  Q 286.23 205.79 286.45 204.60
  A 0.64 0.64 0.0 0 1 287.27 204.11
  L 287.71 204.25"
/>
<path stroke="#cdb28e" vector-effect="non-scaling-stroke" d="
  M 287.71 204.25
  L 288.63 205.50
  A 0.65 0.65 0.0 0 0 289.05 205.75
  Q 289.73 205.86 289.27 205.22
  Q 282.98 196.46 275.71 188.50"
/>
<path stroke="#b99c6d" vector-effect="non-scaling-stroke" d="
  M 275.71 188.50
  Q 266.39 176.85 255.68 166.29"
/>
<path stroke="#8b7045" vector-effect="non-scaling-stroke" d="
  M 305.44 165.29
  Q 301.71 173.38 300.76 182.09"
/>
<path stroke="#dec49f" vector-effect="non-scaling-stroke" d="
  M 300.76 182.09
  Q 297.18 191.01 296.90 200.57
  C 296.87 201.82 295.56 204.10 298.25 203.54"
/>
<path stroke="#8b7045" vector-effect="non-scaling-stroke" d="
  M 298.25 203.54
  L 297.26 210.73"
/>
<path stroke="#7a5f35" vector-effect="non-scaling-stroke" d="
  M 247.00 221.07
  Q 251.22 221.46 255.84 220.96
  A 1.00 1.00 0.0 0 0 256.69 219.68
  Q 255.27 214.95 256.21 210.00"
/>
<path stroke="#9f8767" vector-effect="non-scaling-stroke" d="
  M 256.21 210.00
  Q 257.97 196.64 259.50 183.25
  Q 259.59 182.50 260.29 181.50"
/>
<path stroke="#8b7045" vector-effect="non-scaling-stroke" d="
  M 260.29 181.50
  Q 261.53 180.77 262.19 181.56
  Q 274.63 196.47 287.75 210.79"
/>
<path stroke="#9f8767" vector-effect="non-scaling-stroke" d="
  M 298.25 203.54
  Q 300.04 193.04 300.76 182.09"
/>
<path stroke="#dec49f" vector-effect="non-scaling-stroke" d="
  M 275.71 188.50
  Q 275.24 188.43 274.91 188.68
  A 0.65 0.64 50.8 0 0 274.82 189.60
  C 277.03 192.24 279.26 194.42 281.49 197.32
  Q 284.19 200.84 287.64 203.67
  A 0.31 0.29 26.2 0 1 287.75 203.97
  L 287.71 204.25"
/>
<path stroke="#dec49f" vector-effect="non-scaling-stroke" d="
  M 260.29 181.50
  Q 260.08 180.23 258.70 181.65
  A 1.01 1.00 75.1 0 0 258.44 182.10
  Q 256.80 188.51 256.53 194.72
  C 256.34 199.46 255.30 203.99 255.21 208.75"
/>
<path stroke="#b99c6d" vector-effect="non-scaling-stroke" d="
  M 255.21 208.75
  Q 254.81 206.40 253.57 206.99
  A 1.00 1.00 0.0 0 1 252.15 206.16
  Q 251.85 202.42 252.33 198.86
  C 252.38 198.46 252.29 197.21 251.54 198.00"
/>
<path stroke="#cdb28e" vector-effect="non-scaling-stroke" d="
  M 256.21 210.00
  Q 254.90 210.15 255.21 208.75"
/>
<path stroke="#d3c5ae" vector-effect="non-scaling-stroke" d="
  M 181.04 168.00
  L 181.50 173.46"
/>
<path stroke="#e5d6be" vector-effect="non-scaling-stroke" d="
  M 181.50 173.46
  L 178.04 200.75"
/>
<path stroke="#d3c5ae" vector-effect="non-scaling-stroke" d="
  M 178.04 200.75
  C 177.25 207.92 176.91 215.36 173.50 220.96"
/>
<path stroke="#bfb3a1" vector-effect="non-scaling-stroke" d="
  M 173.50 220.96
  L 170.84 221.82
  A 0.34 0.33 82.8 0 0 170.61 222.13
  Q 170.61 222.55 171.25 222.50
  Q 179.48 221.89 187.69 222.65
  Q 188.00 222.68 188.19 222.46
  A 0.41 0.41 0.0 0 0 188.07 221.83
  Q 184.27 219.85 184.81 215.29
  Q 186.80 198.88 190.51 172.38
  A 0.99 0.99 0.0 0 1 191.36 171.53
  C 198.06 170.62 204.29 170.81 209.34 175.83"
/>
<path stroke="#d3c5ae" vector-effect="non-scaling-stroke" d="
  M 209.34 175.83
  L 210.29 180.75"
/>
<path stroke="#f9ede0" vector-effect="non-scaling-stroke" d="
  M 210.29 180.75
  C 210.85 188.51 201.85 193.01 195.20 191.35
  Q 193.54 190.94 192.49 192.01"
/>
<path stroke="#bfb3a1" vector-effect="non-scaling-stroke" d="
  M 192.49 192.01
  Q 192.85 193.56 193.22 194.29
  Q 198.81 205.28 203.88 216.50
  C 206.95 223.28 211.41 223.86 218.56 222.78
  Q 219.96 222.57 219.33 221.70
  A 1.05 1.01 -8.8 0 0 218.80 221.33
  C 215.89 220.47 212.74 214.45 211.43 211.81
  Q 208.17 205.25 204.77 198.68
  A 1.02 1.00 63.9 0 1 205.23 197.31
  Q 206.22 196.85 207.25 196.48
  C 219.46 192.07 223.59 176.08 212.25 168.21"
/>
<path stroke="#d3c5ae" vector-effect="non-scaling-stroke" d="
  M 212.25 168.21
  C 204.52 163.07 188.58 164.53 180.25 165.04"
/>
<path stroke="#bfb3a1" vector-effect="non-scaling-stroke" d="
  M 180.25 165.04
  Q 179.56 164.62 178.94 164.67
  Q 177.44 164.79 178.56 165.79
  L 181.04 168.00"
/>
<path stroke="#93794f" vector-effect="non-scaling-stroke" d="
  M 180.25 165.04
  L 182.03 167.04
  A 0.52 0.50 -59.4 0 1 182.14 167.51
  Q 181.97 168.21 181.04 168.00"
/>
<path stroke="#93794f" vector-effect="non-scaling-stroke" d="
  M 212.25 168.21
  Q 211.21 168.13 211.37 168.85
  A 0.54 0.48 13.8 0 0 211.58 169.16
  Q 217.02 172.86 216.89 179.16"
/>
<path stroke="#b99c6d" vector-effect="non-scaling-stroke" d="
  M 216.89 179.16
  Q 215.05 183.96 213.46 188.70
  Q 212.75 190.83 209.84 192.22
  A 0.63 0.61 -12.9 0 0 209.48 192.78
  Q 209.47 193.28 210.00 193.54"
/>
<path stroke="#93794f" vector-effect="non-scaling-stroke" d="
  M 210.00 193.54
  L 203.68 196.47
  A 1.00 1.00 0.0 0 0 203.20 197.82
  Q 207.63 206.73 211.99 215.65
  Q 212.78 217.27 213.59 218.29
  Q 214.29 219.18 215.08 219.99
  Q 216.55 221.51 214.44 221.68
  Q 211.62 221.91 209.21 220.70
  C 205.08 218.63 200.41 207.05 198.45 202.79"
/>
<path stroke="#cdb28e" vector-effect="non-scaling-stroke" d="
  M 198.45 202.79
  Q 199.27 199.27 197.30 196.31
  A 1.00 1.00 0.0 0 1 197.56 194.94
  L 198.01 194.62
  A 0.99 0.98 -17.8 0 0 198.44 193.79
  C 198.39 191.39 206.19 194.30 206.30 190.88
  A 0.98 0.98 0.0 0 1 206.96 189.98
  C 210.69 188.64 214.01 184.07 210.29 180.75"
/>
<path stroke="#93794f" vector-effect="non-scaling-stroke" d="
  M 209.34 175.83
  Q 206.70 169.83 199.74 169.59
  Q 194.87 169.42 190.08 170.38
  A 1.02 1.01 -89.0 0 0 189.30 171.14
  L 188.25 175.79"
/>
<path stroke="#cdb28e" vector-effect="non-scaling-stroke" d="
  M 188.25 175.79
  Q 186.85 176.25 186.96 178.00"
/>
<path stroke="#b99c6d" vector-effect="non-scaling-stroke" d="
  M 186.96 178.00
  C 184.82 179.13 183.92 176.88 182.79 175.63
  A 1.03 1.02 -63.2 0 1 182.54 174.86
  Q 182.64 173.73 181.50 173.46"
/>
<path stroke="#93794f" vector-effect="non-scaling-stroke" d="
  M 173.50 220.96
  Q 178.54 221.55 183.57 220.97
  A 1.01 1.00 78.5 0 0 184.42 219.68
  Q 183.22 215.83 183.96 211.75"
/>
<path stroke="#a58a60" vector-effect="non-scaling-stroke" d="
  M 183.96 211.75
  L 184.71 205.25"
/>
<path stroke="#b9a181" vector-effect="non-scaling-stroke" d="
  M 184.71 205.25
  L 188.25 175.79"
/>
<path stroke="#dec49f" vector-effect="non-scaling-stroke" d="
  M 186.96 178.00
  L 183.31 204.82
  A 0.64 0.64 0.0 0 0 183.89 205.54
  Q 184.29 205.58 184.71 205.25"
/>
<path stroke="#b99c6d" vector-effect="non-scaling-stroke" d="
  M 183.96 211.75
  C 181.40 212.44 181.01 209.20 179.03 208.15
  A 0.98 0.98 0.0 0 1 178.53 207.50
  Q 177.88 204.67 178.94 201.95
  A 0.83 0.82 35.4 0 0 178.80 201.13
  Q 178.49 200.78 178.04 200.75"
/>
<path stroke="#b9a181" vector-effect="non-scaling-stroke" d="
  M 192.49 192.01
  C 194.04 192.31 197.41 200.81 198.45 202.79"
/>
<path stroke="#a58a60" vector-effect="non-scaling-stroke" d="
  M 210.00 193.54
  Q 218.36 188.87 216.89 179.16"
/>
<path stroke="#d3c5ae" vector-effect="non-scaling-stroke" d="
  M 228.04 204.25
  Q 228.00 213.71 223.33 221.20"
/>
<path stroke="#a69986" vector-effect="non-scaling-stroke" d="
  M 223.33 221.20
  Q 220.45 221.50 221.53 222.36
  A 0.82 0.79 -24.7 0 0 222.04 222.54
  L 238.07 222.54
  A 0.63 0.62 23.0 0 0 238.50 222.37
  L 238.69 222.20
  A 0.33 0.33 0.0 0 0 238.60 221.66
  L 236.50 220.71"
/>
<path stroke="#bfb3a1" vector-effect="non-scaling-stroke" d="
  M 236.50 220.71
  Q 235.28 216.94 235.47 215.00
  Q 236.70 202.66 240.88 173.93
  C 241.44 170.11 242.36 167.34 245.56 165.56
  C 247.71 164.36 243.94 164.92 243.47 164.84"
/>
<path stroke="#e5d6be" vector-effect="non-scaling-stroke" d="
  M 243.47 164.84
  L 230.23 164.87
  Q 227.96 164.87 229.74 166.29
  Q 231.16 167.43 231.72 169.14
  Q 232.17 170.50 231.83 173.39
  Q 230.03 188.83 228.04 204.25"
/>
<path stroke="#a58a60" vector-effect="non-scaling-stroke" d="
  M 243.47 164.84
  Q 238.39 171.91 238.29 180.75"
/>
<path stroke="#dec49f" vector-effect="non-scaling-stroke" d="
  M 238.29 180.75
  Q 238.10 180.22 237.63 180.39
  A 0.64 0.63 88.2 0 0 237.24 180.81
  C 234.82 188.89 234.38 199.28 233.29 208.50"
/>
<path stroke="#b99c6d" vector-effect="non-scaling-stroke" d="
  M 233.29 208.50
  Q 233.32 207.70 232.87 207.14
  Q 231.60 205.54 231.12 207.53
  L 230.21 211.33
  A 0.52 0.51 2.4 0 1 229.78 211.72
  L 229.49 211.76
  A 0.74 0.11 89.1 0 1 229.37 211.00
  L 229.32 205.24
  A 1.00 1.00 0.0 0 0 228.31 204.25
  L 228.04 204.25"
/>
<path stroke="#664d28" vector-effect="non-scaling-stroke" d="
  M 236.50 220.71
  L 235.44 220.87"
/>
<path stroke="#93794f" vector-effect="non-scaling-stroke" d="
  M 235.44 220.87
  Q 233.58 216.62 234.21 212.25"
/>
<path stroke="#b9a181" vector-effect="non-scaling-stroke" d="
  M 234.21 212.25
  L 238.29 180.75"
/>
<path stroke="#cdb28e" vector-effect="non-scaling-stroke" d="
  M 234.21 212.25
  Q 234.11 212.92 233.69 212.98
  A 0.33 0.32 -4.5 0 1 233.31 212.66
  L 233.29 208.50"
/>
<path stroke="#7a5f35" vector-effect="non-scaling-stroke" d="
  M 235.44 220.87
  L 223.33 221.20"
/>
<path stroke="#d3c5ae" vector-effect="non-scaling-stroke" d="
  M 319.45 176.34
  A 4.35 4.35 0.0 0 0 315.10 171.99
  A 4.35 4.35 0.0 0 0 310.75 176.34
  A 4.35 4.35 0.0 0 0 315.10 180.69
  A 4.35 4.35 0.0 0 0 319.45 176.34"
/>
<path stroke="#f78f91" vector-effect="non-scaling-stroke" d="
  M 319.56 203.00
  Q 315.07 212.35 308.75 220.21"
/>
<path stroke="#e08b8d" vector-effect="non-scaling-stroke" d="
  M 308.75 220.21
  C 292.72 236.92 271.30 235.88 250.06 235.35"
/>
<path stroke="#f78f91" vector-effect="non-scaling-stroke" d="
  M 250.06 235.35
  C 219.79 233.22 189.47 230.39 160.74 241.37"
/>
<path stroke="#e08b8d" vector-effect="non-scaling-stroke" d="
  M 160.74 241.37
  Q 159.18 241.80 157.66 242.32
  Q 145.12 246.65 158.16 244.25
  Q 181.87 239.89 206.08 242.33
  C 227.25 244.46 248.34 247.73 269.68 246.60
  C 281.12 246.00 294.15 243.25 302.99 236.19
  C 317.39 224.68 324.04 201.32 324.84 183.71
  A 0.69 0.63 29.0 0 0 324.69 183.27
  C 324.27 182.76 323.90 183.44 323.85 183.80
  Q 322.66 193.68 319.56 203.00"
/>
<path stroke="#d81a1f" vector-effect="non-scaling-stroke" d="
  M 160.74 241.37
  Q 186.86 239.81 198.74 240.27
  Q 210.07 240.72 237.26 244.22
  Q 242.82 244.94 250.28 244.99
  A 1.00 1.00 0.0 0 0 251.27 243.82
  L 250.20 237.76
  A 1.06 0.03 50.0 0 0 249.57 236.97
  Q 249.09 236.40 250.06 235.35"
/>
<path stroke="#d81a1f" vector-effect="non-scaling-stroke" d="
  M 308.75 220.21
  C 313.14 219.49 306.82 227.87 310.03 226.49
  Q 310.45 226.30 310.81 225.79
  Q 318.05 215.51 319.56 203.00"
/>
<path stroke="#e5d6be" vector-effect="non-scaling-stroke" d="
  M 321.12 221.44
  Q 316.07 232.25 307.75 240.71"
/>
<path stroke="#bfb3a1" vector-effect="non-scaling-stroke" d="
  M 307.75 240.71
  C 293.36 253.34 275.44 253.93 257.41 253.76"
/>
<path stroke="#e5d6be" vector-effect="non-scaling-stroke" d="
  M 257.41 253.76
  Q 235.63 252.49 213.75 249.79"
/>
<path stroke="#d3c5ae" vector-effect="non-scaling-stroke" d="
  M 213.75 249.79
  Q 181.50 245.34 149.06 251.81
  Q 139.13 253.79 130.47 258.10"
/>
<path stroke="#a69986" vector-effect="non-scaling-stroke" d="
  M 130.47 258.10
  Q 125.12 259.50 119.88 261.94
  Q 119.38 262.18 119.87 262.27
  Q 120.04 262.30 120.26 262.25
  C 146.04 256.07 172.42 255.59 199.11 259.07
  C 228.44 262.90 277.85 274.72 303.36 254.61
  C 316.60 244.18 323.96 224.14 326.02 207.74
  Q 326.59 203.17 326.46 201.03
  A 0.27 0.20 83.9 0 0 326.22 200.77
  Q 326.07 200.79 326.05 201.01
  Q 324.87 211.12 321.12 221.44"
/>
<path stroke="#7a5f35" vector-effect="non-scaling-stroke" d="
  M 130.47 258.10
  Q 171.58 253.18 212.50 259.21"
/>
<path stroke="#8b7045" vector-effect="non-scaling-stroke" d="
  M 212.50 259.21
  C 226.31 261.73 243.02 264.35 257.75 264.21"
/>
<path stroke="#664d28" vector-effect="non-scaling-stroke" d="
  M 257.75 264.21
  C 276.22 265.14 298.28 261.89 310.00 245.79"
/>
<path stroke="#8b7045" vector-effect="non-scaling-stroke" d="
  M 310.00 245.79
  Q 318.67 235.07 321.12 221.44"
/>
<path stroke="#a58a60" vector-effect="non-scaling-stroke" d="
  M 310.00 245.79
  C 308.71 246.05 308.35 245.30 309.11 244.41
  Q 309.60 243.85 310.03 243.28
  A 1.00 0.99 33.2 0 0 309.72 241.80
  L 307.75 240.71"
/>
<path stroke="#b99c6d" vector-effect="non-scaling-stroke" d="
  M 213.75 249.79
  L 213.98 253.15
  A 1.00 0.99 60.6 0 1 213.81 253.77
  Q 212.21 256.22 212.50 259.21"
/>
<path stroke="#a58a60" vector-effect="non-scaling-stroke" d="
  M 257.75 264.21
  Q 255.97 259.00 257.41 253.76"
/>
<path stroke="#d3c5ae" vector-effect="non-scaling-stroke" d="
  M 156.04 148.06
  Q 158.72 148.89 160.13 146.77
  A 0.99 0.99 0.0 0 0 159.81 145.36
  Q 156.11 143.20 155.35 146.91
  A 1.01 0.99 14.4 0 0 156.04 148.06"
/>
<path stroke="#d3c5ae" vector-effect="non-scaling-stroke" d="
  M 194.8217 151.0035
  A 3.78 3.25 132.8 0 0 199.7746 150.4382
  A 3.78 3.25 132.8 0 0 199.9583 145.4565
  A 3.78 3.25 132.8 0 0 195.0054 146.0218
  A 3.78 3.25 132.8 0 0 194.8217 151.0035"
/>
<path stroke="#d3c5ae" vector-effect="non-scaling-stroke" d="
  M 218.5731 151.0803
  A 3.76 3.27 130.0 0 0 223.4950 150.3019
  A 3.76 3.27 130.0 0 0 223.4069 145.3197
  A 3.76 3.27 130.0 0 0 218.4850 146.0981
  A 3.76 3.27 130.0 0 0 218.5731 151.0803"
/>
<path stroke="#d3c5ae" vector-effect="non-scaling-stroke" d="
  M 117.51 149.37
  A 1.00 1.00 0.0 0 0 118.54 148.13
  Q 117.43 143.72 115.84 147.98
  A 1.00 1.00 0.0 0 0 116.71 149.33
  L 117.51 149.37"
/>
<path stroke="#d3c5ae" vector-effect="non-scaling-stroke" d="
  M 240.93 148.49
  A 0.43 0.43 0.0 0 0 241.25 149.13
  L 243.64 149.38
  A 0.43 0.43 0.0 0 0 244.09 148.81
  L 243.17 146.04
  A 0.43 0.43 0.0 0 0 242.39 145.96
  L 240.93 148.49"
/>
<path stroke="#d3c5ae" vector-effect="non-scaling-stroke" d="
  M 280.09 145.32
  C 278.08 144.17 274.92 144.10 275.36 147.38
  A 1.01 1.01 0.0 0 0 276.16 148.23
  Q 278.57 148.69 280.32 146.88
  A 1.00 0.99 36.8 0 0 280.09 145.32"
/>
<path stroke="#d3c5ae" vector-effect="non-scaling-stroke" d="
  M 318.27 176.25
  A 3.18 3.18 0.0 0 0 315.09 173.07
  A 3.18 3.18 0.0 0 0 311.91 176.25
  A 3.18 3.18 0.0 0 0 315.09 179.43
  A 3.18 3.18 0.0 0 0 318.27 176.25"
/>
<path stroke="#d3c5ae" vector-effect="non-scaling-stroke" d="
  M 316.73 175.97
  Q 317.55 174.50 314.62 174.26
  A 0.99 0.99 0.0 0 0 313.59 174.95
  Q 312.38 178.79 314.84 177.47
  A 1.01 1.00 46.3 0 1 315.85 177.50
  Q 317.43 178.51 316.69 176.87
  A 0.99 0.99 0.0 0 1 316.73 175.97"
/>
<path stroke="#cdb28e" vector-effect="non-scaling-stroke" d="
  M 315.93 175.64
  C 316.28 173.84 313.48 176.18 315.09 176.28
  A 0.81 0.80 7.4 0 0 315.93 175.64"
/>
</g>
<g fill="#ffffff">
<path d="
  M 0.00 0.00
  L 400.00 0.00
  L 400.00 400.00
  L 0.00 400.00
  L 0.00 0.00
  Z
  M 126.28 151.64
  Q 125.35 151.13 124.32 150.79
  A 0.65 0.65 0.0 0 0 123.59 151.02
  C 121.84 153.50 134.13 154.29 130.24 148.62
  A 1.03 0.98 -3.8 0 0 129.81 148.26
  L 126.64 146.91
  Q 124.24 145.89 126.71 145.04
  Q 128.47 144.44 130.16 145.32
  A 0.63 0.63 0.0 0 0 130.91 145.20
  C 132.16 143.92 127.06 141.74 124.59 145.19
  A 1.06 1.03 -31.3 0 0 124.41 145.89
  Q 124.76 148.77 127.87 148.95
  A 0.99 0.98 -12.3 0 1 128.69 149.47
  Q 129.94 151.78 126.75 151.77
  Q 126.50 151.77 126.28 151.64
  Z
  M 136.51 146.02
  L 135.67 151.96
  A 0.80 0.79 -73.4 0 0 136.11 152.79
  C 137.43 153.43 137.76 147.83 138.00 145.76
  A 1.00 0.99 -90.0 0 1 138.87 144.88
  L 141.05 144.61
  A 0.21 0.20 -11.6 0 0 141.23 144.35
  L 141.14 144.06
  A 1.00 0.99 -7.6 0 0 140.18 143.33
  L 134.63 143.35
  A 1.00 0.99 -77.3 0 0 133.73 143.93
  L 133.61 144.17
  A 0.52 0.51 12.4 0 0 134.08 144.90
  L 135.51 144.88
  A 1.00 1.00 0.0 0 1 136.51 146.02
  Z
  M 144.75 150.63
  L 144.75 149.76
  A 1.00 1.00 0.0 0 1 145.74 148.76
  C 146.25 148.75 150.27 149.47 149.66 147.91
  A 0.64 0.63 79.1 0 0 149.07 147.50
  L 145.98 147.50
  A 1.01 1.01 0.0 0 1 144.99 146.68
  C 144.51 144.04 149.01 144.74 150.46 144.70
  A 0.40 0.40 0.0 0 0 150.85 144.23
  L 150.82 143.98
  A 0.80 0.79 84.0 0 0 149.99 143.30
  L 145.07 143.55
  A 1.00 1.00 0.0 0 0 144.13 144.40
  L 143.05 151.63
  A 0.99 0.98 11.5 0 0 143.79 152.74
  Q 147.09 153.58 149.33 152.85
  C 151.35 152.19 149.62 151.63 148.87 151.72
  Q 147.18 151.93 145.56 151.61
  A 1.00 1.00 0.0 0 1 144.75 150.63
  Z
  M 159.88 148.71
  Q 163.46 146.52 160.33 143.79
  A 1.01 0.99 65.6 0 0 159.71 143.55
  L 155.41 143.38
  A 1.01 1.00 5.4 0 0 154.37 144.24
  L 153.28 152.04
  A 0.65 0.64 11.0 0 0 153.77 152.75
  C 156.14 153.31 153.53 147.48 157.39 149.85
  C 157.78 150.09 160.44 154.72 160.78 152.49
  A 1.06 1.01 -57.8 0 0 160.64 151.81
  L 159.56 150.09
  A 0.99 0.99 0.0 0 1 159.88 148.71
  Z
  M 176.90 150.76
  C 172.40 154.20 168.84 148.65 174.09 144.41
  A 1.01 1.00 39.7 0 1 175.20 144.31
  L 177.55 145.60
  A 0.80 0.80 0.0 0 0 178.73 145.00
  Q 178.85 144.10 177.69 143.74
  C 168.64 140.97 166.68 154.44 175.51 153.03
  Q 177.08 152.77 177.85 151.31
  A 0.34 0.34 0.0 0 0 177.72 150.87
  L 177.47 150.73
  A 0.53 0.52 41.2 0 0 176.90 150.76
  Z
  M 193.7587 151.9236
  A 5.18 4.55 134.2 0 0 200.6319 151.3821
  A 5.18 4.55 134.2 0 0 200.9813 144.4964
  A 5.18 4.55 134.2 0 0 194.1081 145.0379
  A 5.18 4.55 134.2 0 0 193.7587 151.9236
  Z
  M 206.52 148.63
  Q 207.93 142.93 212.98 145.63
  A 0.64 0.64 0.0 0 0 213.62 145.60
  C 214.31 145.16 213.79 144.30 213.23 144.01
  C 206.88 140.78 200.97 150.53 209.00 153.30
  Q 210.61 153.85 212.94 151.96
  Q 213.58 151.44 213.26 150.87
  A 0.52 0.51 57.0 0 0 212.51 150.70
  Q 208.52 153.65 206.58 149.28
  A 1.04 1.00 41.1 0 1 206.52 148.63
  Z
  M 224.6141 144.5969
  A 5.16 4.59 -44.6 0 0 217.7171 144.9518
  A 5.16 4.59 -44.6 0 0 217.2659 151.8431
  A 5.16 4.59 -44.6 0 0 224.1629 151.4882
  A 5.16 4.59 -44.6 0 0 224.6141 144.5969
  Z
  M 230.17 150.60
  L 231.12 144.43
  A 1.01 1.01 0.0 0 0 230.90 143.63
  C 230.23 142.83 229.63 143.75 229.54 144.45
  Q 229.07 148.07 228.69 151.82
  A 1.01 0.99 -86.8 0 0 229.66 152.92
  L 234.48 153.04
  A 0.51 0.51 0.0 0 0 235.00 152.52
  L 235.00 152.15
  A 0.41 0.41 0.0 0 0 234.59 151.75
  L 231.16 151.75
  A 1.00 1.00 0.0 0 1 230.17 150.60
  Z
  M 251.31 145.93
  Q 250.89 148.74 250.51 151.57
  C 250.42 152.17 250.65 153.43 251.49 152.81
  A 0.83 0.81 76.0 0 0 251.80 152.28
  L 252.77 145.60
  A 0.99 0.99 0.0 0 1 253.76 144.75
  L 255.64 144.75
  A 0.41 0.40 78.0 0 0 256.01 144.17
  L 255.86 143.84
  A 1.00 0.99 72.8 0 0 254.80 143.28
  C 253.84 143.42 247.77 142.78 248.57 144.38
  A 0.66 0.65 -11.7 0 0 249.12 144.73
  L 250.36 144.78
  A 1.01 1.01 0.0 0 1 251.31 145.93
  Z
  M 260.2605 144.2066
  A 0.69 0.69 0.0 0 0 259.6692 143.4304
  L 259.5503 143.4143
  A 0.69 0.69 0.0 0 0 258.7740 144.0057
  L 257.6995 151.9534
  A 0.69 0.69 0.0 0 0 258.2908 152.7296
  L 258.4097 152.7457
  A 0.69 0.69 0.0 0 0 259.1860 152.1543
  L 260.2605 144.2066
  Z
  M 264.60 150.41
  L 264.81 149.52
  A 1.01 1.00 6.2 0 1 265.78 148.75
  L 269.11 148.75
  A 0.64 0.62 15.0 0 0 269.65 148.45
  C 270.54 147.06 266.50 147.50 266.00 147.49
  A 1.01 1.00 4.1 0 1 265.02 146.36
  L 265.12 145.61
  A 1.01 0.99 3.5 0 1 266.12 144.74
  L 270.06 144.75
  A 0.79 0.78 -72.4 0 0 270.73 144.40
  C 271.86 142.70 265.37 143.55 265.00 143.53
  A 1.01 1.00 5.0 0 0 263.96 144.40
  L 263.00 151.87
  A 1.00 1.00 0.0 0 0 264.01 153.00
  L 269.28 152.91
  A 0.79 0.78 16.2 0 0 269.94 152.55
  Q 270.62 151.49 268.74 151.72
  Q 267.05 151.93 265.39 151.63
  A 1.01 1.01 0.0 0 1 264.60 150.41
  Z
  M 101.96 145.99
  L 102.28 145.99
  A 0.42 0.41 80.9 0 1 102.69 146.29
  Q 104.53 153.17 107.19 146.84
  A 1.03 1.00 -89.6 0 1 107.72 146.30
  C 109.25 145.65 107.68 151.49 107.60 152.04
  A 0.80 0.79 -68.2 0 0 107.92 152.80
  C 109.24 153.75 109.81 144.91 109.91 144.07
  A 0.51 0.50 16.7 0 0 109.63 143.56
  Q 109.21 143.35 108.82 143.83
  Q 107.36 145.62 105.64 147.30
  A 1.01 1.00 51.9 0 1 104.09 147.11
  Q 103.38 145.98 102.88 144.74
  C 100.90 139.93 99.86 151.85 99.84 152.01
  A 0.64 0.64 0.0 0 0 100.32 152.72
  C 101.59 153.04 101.58 147.17 101.57 146.41
  A 0.41 0.41 0.0 0 1 101.96 145.99
  Z
  M 114.80 150.80
  Q 118.73 149.48 120.26 152.78
  A 0.65 0.63 -5.4 0 0 120.70 153.13
  Q 121.30 153.26 121.07 152.29
  Q 120.10 148.23 118.63 144.31
  Q 117.91 142.38 116.84 144.15
  L 112.39 151.54
  Q 110.98 153.89 113.28 152.41
  Q 113.87 152.03 114.22 151.31
  A 1.05 1.05 0.0 0 1 114.80 150.80
  Z
  M 183.04 146.30
  L 183.44 144.29
  A 0.63 0.62 -68.2 0 0 183.16 143.63
  C 181.54 142.58 181.07 150.60 180.82 151.68
  Q 180.49 153.17 181.91 152.59
  Q 183.04 152.13 182.57 150.04
  A 1.01 1.00 -6.0 0 1 183.56 148.82
  L 186.65 148.85
  A 1.00 1.00 0.0 0 1 187.61 150.08
  L 187.21 151.77
  A 0.79 0.79 0.0 0 0 187.41 152.50
  C 189.00 154.18 189.60 145.38 189.75 144.58
  A 1.01 1.00 -56.0 0 0 189.61 143.84
  C 188.89 142.76 188.11 143.95 188.05 144.76
  Q 187.99 145.63 187.97 146.52
  A 1.00 1.00 0.0 0 1 186.97 147.50
  L 184.02 147.50
  A 1.00 1.00 0.0 0 1 183.04 146.30
  Z
  M 244.91 151.31
  L 245.35 152.60
  A 0.76 0.75 -86.5 0 0 245.75 153.06
  Q 246.66 153.51 246.26 152.05
  Q 245.17 148.15 243.95 144.26
  Q 243.28 142.08 242.14 144.05
  L 237.38 152.25
  A 0.52 0.49 51.9 0 0 237.34 152.68
  C 237.85 154.10 239.44 151.30 239.65 151.00
  A 1.02 1.00 -71.6 0 1 240.49 150.57
  L 243.98 150.63
  A 1.01 1.00 80.8 0 1 244.91 151.31
  Z
  M 274.76 151.40
  C 274.16 144.41 280.01 154.41 280.70 152.61
  A 0.79 0.79 0.0 0 0 280.56 151.81
  L 279.29 150.29
  A 1.00 1.00 0.0 0 1 279.55 148.78
  Q 284.85 145.70 277.57 142.71
  A 1.09 1.05 -40.4 0 0 276.93 142.67
  C 272.84 143.78 274.13 148.17 273.27 152.02
  A 0.64 0.63 -74.5 0 0 273.69 152.77
  C 274.66 153.09 274.82 152.16 274.76 151.40
  Z
  M 72.29 171.25
  L 70.87 174.95
  A 0.33 0.31 37.6 0 0 70.92 175.27
  Q 71.24 175.68 71.74 174.96
  C 75.28 169.84 85.62 170.85 91.30 170.74
  L 89.04 186.00
  Q 87.27 198.15 85.25 210.25
  Q 84.11 217.06 82.25 220.46
  L 79.51 221.51
  A 0.34 0.13 -21.4 0 0 79.25 221.75
  L 79.32 221.93
  A 0.72 0.15 -0.7 0 0 80.00 222.06
  L 96.37 222.05
  A 0.33 0.32 -84.7 0 0 96.69 221.78
  C 96.83 220.95 94.55 221.12 94.12 219.65
  Q 93.01 215.86 93.57 212.31
  Q 96.66 192.52 99.84 172.00
  A 1.01 1.00 2.1 0 1 100.76 171.15
  C 104.58 170.90 111.76 170.35 114.79 172.23
  C 115.47 172.65 117.56 175.00 117.85 175.01
  A 0.41 0.41 0.0 0 0 118.27 174.58
  Q 118.11 170.06 117.98 165.51
  C 117.95 164.47 117.46 164.22 116.50 164.54
  L 74.55 164.75
  A 0.99 0.99 0.0 0 0 73.58 165.53
  L 72.29 171.25
  Z
  M 135.25 165.04
  L 122.88 164.89
  Q 120.10 164.86 122.22 166.66
  L 123.04 167.35
  A 0.98 0.98 0.0 0 1 123.37 167.93
  Q 124.11 171.89 123.74 174.75
  Q 122.29 185.86 121.04 197.00
  C 119.50 209.30 121.03 219.11 134.25 222.73
  C 145.37 225.78 158.43 220.82 162.81 210.11
  Q 163.97 207.27 166.03 192.30
  Q 167.37 182.55 168.81 172.82
  Q 169.58 167.61 173.66 165.59
  C 175.87 164.49 171.60 164.94 171.25 165.04
  L 159.25 165.04
  Q 158.35 164.49 157.77 164.69
  Q 156.62 165.07 157.58 165.80
  Q 159.20 167.03 160.24 169.07
  L 157.04 197.75
  Q 156.64 202.66 155.07 207.31
  C 151.95 216.55 141.71 219.02 133.42 215.40
  Q 127.75 210.76 128.56 203.29
  Q 129.94 190.65 131.80 178.07
  Q 132.81 171.29 132.91 170.98
  Q 133.91 167.88 136.63 165.91
  Q 139.00 164.19 136.13 164.76
  Q 135.69 164.85 135.25 165.04
  Z
  M 255.68 166.29
  L 251.54 198.00
  Q 251.10 209.93 247.00 221.07
  C 246.27 221.24 244.95 221.34 244.46 221.68
  C 243.32 222.44 244.97 222.60 245.38 222.57
  Q 252.51 222.00 259.59 222.71
  A 0.83 0.81 -66.6 0 0 260.29 222.42
  C 261.19 221.33 258.06 221.12 257.73 220.00
  Q 256.80 216.86 257.40 211.82
  Q 258.99 198.28 260.91 184.23
  Q 261.21 182.05 262.65 183.70
  L 295.59 221.39
  Q 297.06 223.07 297.34 220.86
  Q 300.38 196.96 303.75 172.51
  C 304.01 170.55 305.38 167.29 307.37 166.31
  Q 312.28 163.89 305.44 165.29
  Q 300.81 164.91 295.85 165.21
  C 295.44 165.23 289.01 163.56 294.64 166.91
  Q 296.29 167.89 295.99 170.50
  L 293.04 195.75
  L 292.02 203.15
  Q 291.71 205.34 290.27 203.66
  L 257.07 165.05
  A 1.02 1.02 0.0 0 0 256.24 164.70
  Q 254.72 164.82 255.68 166.29
  Z
  M 181.04 168.00
  L 181.50 173.46
  L 178.04 200.75
  C 177.25 207.92 176.91 215.36 173.50 220.96
  L 170.84 221.82
  A 0.34 0.33 82.8 0 0 170.61 222.13
  Q 170.61 222.55 171.25 222.50
  Q 179.48 221.89 187.69 222.65
  Q 188.00 222.68 188.19 222.46
  A 0.41 0.41 0.0 0 0 188.07 221.83
  Q 184.27 219.85 184.81 215.29
  Q 186.80 198.88 190.51 172.38
  A 0.99 0.99 0.0 0 1 191.36 171.53
  C 198.06 170.62 204.29 170.81 209.34 175.83
  L 210.29 180.75
  C 210.85 188.51 201.85 193.01 195.20 191.35
  Q 193.54 190.94 192.49 192.01
  Q 192.85 193.56 193.22 194.29
  Q 198.81 205.28 203.88 216.50
  C 206.95 223.28 211.41 223.86 218.56 222.78
  Q 219.96 222.57 219.33 221.70
  A 1.05 1.01 -8.8 0 0 218.80 221.33
  C 215.89 220.47 212.74 214.45 211.43 211.81
  Q 208.17 205.25 204.77 198.68
  A 1.02 1.00 63.9 0 1 205.23 197.31
  Q 206.22 196.85 207.25 196.48
  C 219.46 192.07 223.59 176.08 212.25 168.21
  C 204.52 163.07 188.58 164.53 180.25 165.04
  Q 179.56 164.62 178.94 164.67
  Q 177.44 164.79 178.56 165.79
  L 181.04 168.00
  Z
  M 228.04 204.25
  Q 228.00 213.71 223.33 221.20
  Q 220.45 221.50 221.53 222.36
  A 0.82 0.79 -24.7 0 0 222.04 222.54
  L 238.07 222.54
  A 0.63 0.62 23.0 0 0 238.50 222.37
  L 238.69 222.20
  A 0.33 0.33 0.0 0 0 238.60 221.66
  L 236.50 220.71
  Q 235.28 216.94 235.47 215.00
  Q 236.70 202.66 240.88 173.93
  C 241.44 170.11 242.36 167.34 245.56 165.56
  C 247.71 164.36 243.94 164.92 243.47 164.84
  L 230.23 164.87
  Q 227.96 164.87 229.74 166.29
  Q 231.16 167.43 231.72 169.14
  Q 232.17 170.50 231.83 173.39
  Q 230.03 188.83 228.04 204.25
  Z
  M 319.45 176.34
  A 4.35 4.35 0.0 0 0 315.10 171.99
  A 4.35 4.35 0.0 0 0 310.75 176.34
  A 4.35 4.35 0.0 0 0 315.10 180.69
  A 4.35 4.35 0.0 0 0 319.45 176.34
  Z
  M 319.56 203.00
  Q 315.07 212.35 308.75 220.21
  C 292.72 236.92 271.30 235.88 250.06 235.35
  C 219.79 233.22 189.47 230.39 160.74 241.37
  Q 159.18 241.80 157.66 242.32
  Q 145.12 246.65 158.16 244.25
  Q 181.87 239.89 206.08 242.33
  C 227.25 244.46 248.34 247.73 269.68 246.60
  C 281.12 246.00 294.15 243.25 302.99 236.19
  C 317.39 224.68 324.04 201.32 324.84 183.71
  A 0.69 0.63 29.0 0 0 324.69 183.27
  C 324.27 182.76 323.90 183.44 323.85 183.80
  Q 322.66 193.68 319.56 203.00
  Z
  M 321.12 221.44
  Q 316.07 232.25 307.75 240.71
  C 293.36 253.34 275.44 253.93 257.41 253.76
  Q 235.63 252.49 213.75 249.79
  Q 181.50 245.34 149.06 251.81
  Q 139.13 253.79 130.47 258.10
  Q 125.12 259.50 119.88 261.94
  Q 119.38 262.18 119.87 262.27
  Q 120.04 262.30 120.26 262.25
  C 146.04 256.07 172.42 255.59 199.11 259.07
  C 228.44 262.90 277.85 274.72 303.36 254.61
  C 316.60 244.18 323.96 224.14 326.02 207.74
  Q 326.59 203.17 326.46 201.03
  A 0.27 0.20 83.9 0 0 326.22 200.77
  Q 326.07 200.79 326.05 201.01
  Q 324.87 211.12 321.12 221.44
  Z"
/>
<ellipse cx="0.00" cy="0.00" transform="translate(197.39,148.23) rotate(132.8)" rx="3.78" ry="3.25"/>
<ellipse cx="0.00" cy="0.00" transform="translate(220.99,148.20) rotate(130.0)" rx="3.76" ry="3.27"/>
<path d="
  M 156.04 148.06
  A 1.01 0.99 14.4 0 1 155.35 146.91
  Q 156.11 143.20 159.81 145.36
  A 0.99 0.99 0.0 0 1 160.13 146.77
  Q 158.72 148.89 156.04 148.06
  Z"
/>
<path d="
  M 275.36 147.38
  C 274.92 144.10 278.08 144.17 280.09 145.32
  A 1.00 0.99 36.8 0 1 280.32 146.88
  Q 278.57 148.69 276.16 148.23
  A 1.01 1.01 0.0 0 1 275.36 147.38
  Z"
/>
<path d="
  M 117.51 149.37
  L 116.71 149.33
  A 1.00 1.00 0.0 0 1 115.84 147.98
  Q 117.43 143.72 118.54 148.13
  A 1.00 1.00 0.0 0 1 117.51 149.37
  Z"
/>
<path d="
  M 240.93 148.49
  L 242.39 145.96
  A 0.43 0.43 0.0 0 1 243.17 146.04
  L 244.09 148.81
  A 0.43 0.43 0.0 0 1 243.64 149.38
  L 241.25 149.13
  A 0.43 0.43 0.0 0 1 240.93 148.49
  Z"
/>
<path d="
  M 318.27 176.25
  A 3.18 3.18 0.0 0 1 315.09 179.43
  A 3.18 3.18 0.0 0 1 311.91 176.25
  A 3.18 3.18 0.0 0 1 315.09 173.07
  A 3.18 3.18 0.0 0 1 318.27 176.25
  Z
  M 316.73 175.97
  Q 317.55 174.50 314.62 174.26
  A 0.99 0.99 0.0 0 0 313.59 174.95
  Q 312.38 178.79 314.84 177.47
  A 1.01 1.00 46.3 0 1 315.85 177.50
  Q 317.43 178.51 316.69 176.87
  A 0.99 0.99 0.0 0 1 316.73 175.97
  Z"
/>
</g>
<g fill="#caad7d">
<path d="
  M 116.50 164.54
  L 116.74 170.01
  Q 116.82 171.83 115.24 170.92
  Q 114.82 170.67 114.37 170.43
  C 111.49 168.87 103.14 169.59 99.79 169.94
  A 1.00 1.00 0.0 0 0 98.91 170.78
  L 93.67 203.61
  Q 91.44 203.05 92.07 200.68
  C 93.14 196.62 93.60 192.40 94.25 188.25
  C 94.79 184.82 93.19 186.45 92.89 187.58
  Q 92.51 188.95 92.18 190.34
  Q 90.82 195.94 90.21 190.21
  Q 90.04 188.62 90.36 186.95
  A 1.03 1.02 31.9 0 0 90.17 186.15
  Q 89.68 185.51 89.04 186.00
  L 91.30 170.74
  Q 81.66 168.60 72.29 171.25
  L 73.58 165.53
  A 0.99 0.99 0.0 0 1 74.55 164.75
  L 116.50 164.54
  Z"
/>
<path d="
  M 135.25 165.04
  C 131.69 168.00 131.36 172.28 130.54 176.50
  C 128.81 175.16 129.36 177.24 129.13 178.05
  Q 127.55 183.59 126.84 189.36
  Q 125.47 189.04 125.44 189.49
  Q 124.93 198.37 122.99 207.06
  A 0.51 0.51 0.0 0 1 122.39 207.45
  C 121.75 207.33 122.18 201.78 122.04 200.75
  Q 122.03 198.72 121.04 197.00
  Q 122.29 185.86 123.74 174.75
  Q 124.11 171.89 123.37 167.93
  A 0.98 0.98 0.0 0 0 123.04 167.35
  L 122.22 166.66
  Q 120.10 164.86 122.88 164.89
  L 135.25 165.04
  Z"
/>
<path d="
  M 171.25 165.04
  C 168.52 166.70 167.36 172.10 167.07 175.05
  Q 165.89 187.08 163.79 199.00
  Q 164.16 196.60 163.30 196.95
  A 0.53 0.51 -6.7 0 0 162.99 197.33
  L 161.36 206.00
  A 0.81 0.81 0.0 0 0 161.77 206.86
  Q 162.07 207.02 162.46 207.00
  Q 160.26 215.87 152.00 219.79
  Q 150.94 219.42 151.32 218.67
  A 0.79 0.78 -83.7 0 1 151.82 218.26
  C 155.11 217.32 158.53 212.90 160.27 210.70
  A 0.99 0.99 0.0 0 0 160.20 209.38
  L 157.68 206.84
  A 1.00 0.99 -56.9 0 1 157.46 205.77
  C 157.78 204.95 160.13 195.99 157.04 197.75
  L 160.24 169.07
  Q 161.57 168.76 161.13 167.14
  A 1.02 1.02 0.0 0 0 160.72 166.57
  Q 159.80 165.96 159.25 165.04
  L 171.25 165.04
  Z"
/>
<path d="
  M 243.47 164.84
  Q 238.39 171.91 238.29 180.75
  Q 238.10 180.22 237.63 180.39
  A 0.64 0.63 88.2 0 0 237.24 180.81
  C 234.82 188.89 234.38 199.28 233.29 208.50
  Q 233.32 207.70 232.87 207.14
  Q 231.60 205.54 231.12 207.53
  L 230.21 211.33
  A 0.52 0.51 2.4 0 1 229.78 211.72
  L 229.49 211.76
  A 0.74 0.11 89.1 0 1 229.37 211.00
  L 229.32 205.24
  A 1.00 1.00 0.0 0 0 228.31 204.25
  L 228.04 204.25
  Q 230.03 188.83 231.83 173.39
  Q 232.17 170.50 231.72 169.14
  Q 231.16 167.43 229.74 166.29
  Q 227.96 164.87 230.23 164.87
  L 243.47 164.84
  Z"
/>
<path d="
  M 305.44 165.29
  Q 301.71 173.38 300.76 182.09
  Q 297.18 191.01 296.90 200.57
  C 296.87 201.82 295.56 204.10 298.25 203.54
  L 297.26 210.73
  Q 295.30 209.48 296.01 206.60
  A 1.00 1.00 0.0 0 0 295.56 205.50
  C 293.92 204.51 294.09 198.57 294.18 196.02
  A 0.52 0.51 77.3 0 0 293.43 195.54
  L 293.04 195.75
  L 295.99 170.50
  Q 296.29 167.89 294.64 166.91
  C 289.01 163.56 295.44 165.23 295.85 165.21
  Q 300.81 164.91 305.44 165.29
  Z"
/>
<path d="
  M 255.68 166.29
  Q 266.39 176.85 275.71 188.50
  Q 275.24 188.43 274.91 188.68
  A 0.65 0.64 50.8 0 0 274.82 189.60
  C 277.03 192.24 279.26 194.42 281.49 197.32
  Q 284.19 200.84 287.64 203.67
  A 0.31 0.29 26.2 0 1 287.75 203.97
  L 287.71 204.25
  L 287.27 204.11
  A 0.64 0.64 0.0 0 0 286.45 204.60
  Q 286.23 205.79 285.23 204.80
  A 0.41 0.19 41.8 0 0 284.76 204.66
  Q 284.72 204.73 284.71 204.84
  A 0.35 0.02 48.7 0 0 284.91 205.10
  L 288.76 209.46
  A 0.63 0.60 -62.9 0 1 288.91 209.96
  Q 288.81 210.80 287.75 210.79
  Q 274.63 196.47 262.19 181.56
  Q 261.53 180.77 260.29 181.50
  Q 260.08 180.23 258.70 181.65
  A 1.01 1.00 75.1 0 0 258.44 182.10
  Q 256.80 188.51 256.53 194.72
  C 256.34 199.46 255.30 203.99 255.21 208.75
  Q 254.81 206.40 253.57 206.99
  A 1.00 1.00 0.0 0 1 252.15 206.16
  Q 251.85 202.42 252.33 198.86
  C 252.38 198.46 252.29 197.21 251.54 198.00
  L 255.68 166.29
  Z"
/>
<path d="
  M 181.50 173.46
  Q 182.64 173.73 182.54 174.86
  A 1.03 1.02 -63.2 0 0 182.79 175.63
  C 183.92 176.88 184.82 179.13 186.96 178.00
  L 183.31 204.82
  A 0.64 0.64 0.0 0 0 183.89 205.54
  Q 184.29 205.58 184.71 205.25
  L 183.96 211.75
  C 181.40 212.44 181.01 209.20 179.03 208.15
  A 0.98 0.98 0.0 0 1 178.53 207.50
  Q 177.88 204.67 178.94 201.95
  A 0.83 0.82 35.4 0 0 178.80 201.13
  Q 178.49 200.78 178.04 200.75
  L 181.50 173.46
  Z"
/>
<path d="
  M 216.89 179.16
  Q 218.36 188.87 210.00 193.54
  Q 209.47 193.28 209.48 192.78
  A 0.63 0.61 -12.9 0 1 209.84 192.22
  Q 212.75 190.83 213.46 188.70
  Q 215.05 183.96 216.89 179.16
  Z"
/>
<path d="
  M 321.12 221.44
  Q 318.67 235.07 310.00 245.79
  C 308.71 246.05 308.35 245.30 309.11 244.41
  Q 309.60 243.85 310.03 243.28
  A 1.00 0.99 33.2 0 0 309.72 241.80
  L 307.75 240.71
  Q 316.07 232.25 321.12 221.44
  Z"
/>
<path d="
  M 213.75 249.79
  Q 235.63 252.49 257.41 253.76
  Q 255.97 259.00 257.75 264.21
  C 243.02 264.35 226.31 261.73 212.50 259.21
  Q 212.21 256.22 213.81 253.77
  A 1.00 0.99 60.6 0 0 213.98 253.15
  L 213.75 249.79
  Z"
/>
</g>
<path fill="#c1161a" d="
  M 160.74 241.37
  Q 186.86 239.81 198.74 240.27
  Q 210.07 240.72 237.26 244.22
  Q 242.82 244.94 250.28 244.99
  A 1.00 1.00 0.0 0 0 251.27 243.82
  L 250.20 237.76
  A 1.06 0.03 50.0 0 0 249.57 236.97
  Q 249.09 236.40 250.06 235.35
  C 271.30 235.88 292.72 236.92 308.75 220.21
  C 313.14 219.49 306.82 227.87 310.03 226.49
  Q 310.45 226.30 310.81 225.79
  Q 318.05 215.51 319.56 203.00
  Q 322.66 193.68 323.85 183.80
  C 323.90 183.44 324.27 182.76 324.69 183.27
  A 0.69 0.63 29.0 0 1 324.84 183.71
  C 324.04 201.32 317.39 224.68 302.99 236.19
  C 294.15 243.25 281.12 246.00 269.68 246.60
  C 248.34 247.73 227.25 244.46 206.08 242.33
  Q 181.87 239.89 158.16 244.25
  Q 145.12 246.65 157.66 242.32
  Q 159.18 241.80 160.74 241.37
  Z"
/>
<g fill="#7f6742">
<path d="
  M 159.25 165.04
  Q 159.80 165.96 160.72 166.57
  A 1.02 1.02 0.0 0 1 161.13 167.14
  Q 161.57 168.76 160.24 169.07
  Q 159.20 167.03 157.58 165.80
  Q 156.62 165.07 157.77 164.69
  Q 158.35 164.49 159.25 165.04
  Z"
/>
<path d="
  M 180.25 165.04
  L 182.03 167.04
  A 0.52 0.50 -59.4 0 1 182.14 167.51
  Q 181.97 168.21 181.04 168.00
  L 178.56 165.79
  Q 177.44 164.79 178.94 164.67
  Q 179.56 164.62 180.25 165.04
  Z"
/>
<path d="
  M 236.50 220.71
  L 235.44 220.87
  Q 233.58 216.62 234.21 212.25
  L 238.29 180.75
  Q 238.39 171.91 243.47 164.84
  C 243.94 164.92 247.71 164.36 245.56 165.56
  C 242.36 167.34 241.44 170.11 240.88 173.93
  Q 236.70 202.66 235.47 215.00
  Q 235.28 216.94 236.50 220.71
  Z"
/>
<path d="
  M 212.25 168.21
  C 223.59 176.08 219.46 192.07 207.25 196.48
  Q 206.22 196.85 205.23 197.31
  A 1.02 1.00 63.9 0 0 204.77 198.68
  Q 208.17 205.25 211.43 211.81
  C 212.74 214.45 215.89 220.47 218.80 221.33
  A 1.05 1.01 -8.8 0 1 219.33 221.70
  Q 219.96 222.57 218.56 222.78
  C 211.41 223.86 206.95 223.28 203.88 216.50
  Q 198.81 205.28 193.22 194.29
  Q 192.85 193.56 192.49 192.01
  C 194.04 192.31 197.41 200.81 198.45 202.79
  C 200.41 207.05 205.08 218.63 209.21 220.70
  Q 211.62 221.91 214.44 221.68
  Q 216.55 221.51 215.08 219.99
  Q 214.29 219.18 213.59 218.29
  Q 212.78 217.27 211.99 215.65
  Q 207.63 206.73 203.20 197.82
  A 1.00 1.00 0.0 0 1 203.68 196.47
  L 210.00 193.54
  Q 218.36 188.87 216.89 179.16
  Q 217.02 172.86 211.58 169.16
  A 0.54 0.48 13.8 0 1 211.37 168.85
  Q 211.21 168.13 212.25 168.21
  Z"
/>
<path d="
  M 209.34 175.83
  C 204.29 170.81 198.06 170.62 191.36 171.53
  A 0.99 0.99 0.0 0 0 190.51 172.38
  Q 186.80 198.88 184.81 215.29
  Q 184.27 219.85 188.07 221.83
  A 0.41 0.41 0.0 0 1 188.19 222.46
  Q 188.00 222.68 187.69 222.65
  Q 179.48 221.89 171.25 222.50
  Q 170.61 222.55 170.61 222.13
  A 0.34 0.33 82.8 0 1 170.84 221.82
  L 173.50 220.96
  Q 178.54 221.55 183.57 220.97
  A 1.01 1.00 78.5 0 0 184.42 219.68
  Q 183.22 215.83 183.96 211.75
  L 184.71 205.25
  L 188.25 175.79
  L 189.30 171.14
  A 1.02 1.01 -89.0 0 1 190.08 170.38
  Q 194.87 169.42 199.74 169.59
  Q 206.70 169.83 209.34 175.83
  Z"
/>
<path d="
  M 307.75 240.71
  L 309.72 241.80
  A 1.00 0.99 33.2 0 1 310.03 243.28
  Q 309.60 243.85 309.11 244.41
  C 308.35 245.30 308.71 246.05 310.00 245.79
  C 298.28 261.89 276.22 265.14 257.75 264.21
  Q 255.97 259.00 257.41 253.76
  C 275.44 253.93 293.36 253.34 307.75 240.71
  Z"
/>
</g>
<g fill="#a78a5c">
<path d="
  M 126.75 151.77
  Q 129.94 151.78 128.69 149.47
  A 0.99 0.98 -12.3 0 0 127.87 148.95
  Q 124.76 148.77 124.41 145.89
  A 1.06 1.03 -31.3 0 1 124.59 145.19
  C 127.06 141.74 132.16 143.92 130.91 145.20
  A 0.63 0.63 0.0 0 1 130.16 145.32
  Q 128.47 144.44 126.71 145.04
  Q 124.24 145.89 126.64 146.91
  L 129.81 148.26
  A 1.03 0.98 -3.8 0 1 130.24 148.62
  C 134.13 154.29 121.84 153.50 123.59 151.02
  A 0.65 0.65 0.0 0 1 124.32 150.79
  Q 125.35 151.13 126.28 151.64
  Q 126.50 151.77 126.75 151.77
  Z"
/>
<path d="
  M 135.51 144.88
  L 134.08 144.90
  A 0.52 0.51 12.4 0 1 133.61 144.17
  L 133.73 143.93
  A 1.00 0.99 -77.3 0 1 134.63 143.35
  L 140.18 143.33
  A 1.00 0.99 -7.6 0 1 141.14 144.06
  L 141.23 144.35
  A 0.21 0.20 -11.6 0 1 141.05 144.61
  L 138.87 144.88
  A 1.00 0.99 -90.0 0 0 138.00 145.76
  C 137.76 147.83 137.43 153.43 136.11 152.79
  A 0.80 0.79 -73.4 0 1 135.67 151.96
  L 136.51 146.02
  A 1.00 1.00 0.0 0 0 135.51 144.88
  Z"
/>
<path d="
  M 145.56 151.61
  Q 147.18 151.93 148.87 151.72
  C 149.62 151.63 151.35 152.19 149.33 152.85
  Q 147.09 153.58 143.79 152.74
  A 0.99 0.98 11.5 0 1 143.05 151.63
  L 144.13 144.40
  A 1.00 1.00 0.0 0 1 145.07 143.55
  L 149.99 143.30
  A 0.80 0.79 84.0 0 1 150.82 143.98
  L 150.85 144.23
  A 0.40 0.40 0.0 0 1 150.46 144.70
  C 149.01 144.74 144.51 144.04 144.99 146.68
  A 1.01 1.01 0.0 0 0 145.98 147.50
  L 149.07 147.50
  A 0.64 0.63 79.1 0 1 149.66 147.91
  C 150.27 149.47 146.25 148.75 145.74 148.76
  A 1.00 1.00 0.0 0 0 144.75 149.76
  L 144.75 150.63
  A 1.00 1.00 0.0 0 0 145.56 151.61
  Z"
/>
<path d="
  M 159.56 150.09
  L 160.64 151.81
  A 1.06 1.01 -57.8 0 1 160.78 152.49
  C 160.44 154.72 157.78 150.09 157.39 149.85
  C 153.53 147.48 156.14 153.31 153.77 152.75
  A 0.65 0.64 11.0 0 1 153.28 152.04
  L 154.37 144.24
  A 1.01 1.00 5.4 0 1 155.41 143.38
  L 159.71 143.55
  A 1.01 0.99 65.6 0 1 160.33 143.79
  Q 163.46 146.52 159.88 148.71
  A 0.99 0.99 0.0 0 0 159.56 150.09
  Z
  M 156.04 148.06
  Q 158.72 148.89 160.13 146.77
  A 0.99 0.99 0.0 0 0 159.81 145.36
  Q 156.11 143.20 155.35 146.91
  A 1.01 0.99 14.4 0 0 156.04 148.06
  Z"
/>
<path d="
  M 174.09 144.41
  C 168.84 148.65 172.40 154.20 176.90 150.76
  A 0.53 0.52 41.2 0 1 177.47 150.73
  L 177.72 150.87
  A 0.34 0.34 0.0 0 1 177.85 151.31
  Q 177.08 152.77 175.51 153.03
  C 166.68 154.44 168.64 140.97 177.69 143.74
  Q 178.85 144.10 178.73 145.00
  A 0.80 0.80 0.0 0 1 177.55 145.60
  L 175.20 144.31
  A 1.01 1.00 39.7 0 0 174.09 144.41
  Z"
/>
<path d="
  M 193.7587 151.9236
  A 5.18 4.55 134.2 0 1 194.1081 145.0379
  A 5.18 4.55 134.2 0 1 200.9813 144.4964
  A 5.18 4.55 134.2 0 1 200.6319 151.3821
  A 5.18 4.55 134.2 0 1 193.7587 151.9236
  Z
  M 194.8217 151.0035
  A 3.78 3.25 132.8 0 0 199.7746 150.4382
  A 3.78 3.25 132.8 0 0 199.9583 145.4565
  A 3.78 3.25 132.8 0 0 195.0054 146.0218
  A 3.78 3.25 132.8 0 0 194.8217 151.0035
  Z"
/>
<path d="
  M 206.58 149.28
  Q 208.52 153.65 212.51 150.70
  A 0.52 0.51 57.0 0 1 213.26 150.87
  Q 213.58 151.44 212.94 151.96
  Q 210.61 153.85 209.00 153.30
  C 200.97 150.53 206.88 140.78 213.23 144.01
  C 213.79 144.30 214.31 145.16 213.62 145.60
  A 0.64 0.64 0.0 0 1 212.98 145.63
  Q 207.93 142.93 206.52 148.63
  A 1.04 1.00 41.1 0 0 206.58 149.28
  Z"
/>
<path d="
  M 224.6141 144.5969
  A 5.16 4.59 -44.6 0 1 224.1629 151.4882
  A 5.16 4.59 -44.6 0 1 217.2659 151.8431
  A 5.16 4.59 -44.6 0 1 217.7171 144.9518
  A 5.16 4.59 -44.6 0 1 224.6141 144.5969
  Z
  M 218.5731 151.0803
  A 3.76 3.27 130.0 0 0 223.4950 150.3019
  A 3.76 3.27 130.0 0 0 223.4069 145.3197
  A 3.76 3.27 130.0 0 0 218.4850 146.0981
  A 3.76 3.27 130.0 0 0 218.5731 151.0803
  Z"
/>
<path d="
  M 231.16 151.75
  L 234.59 151.75
  A 0.41 0.41 0.0 0 1 235.00 152.15
  L 235.00 152.52
  A 0.51 0.51 0.0 0 1 234.48 153.04
  L 229.66 152.92
  A 1.01 0.99 -86.8 0 1 228.69 151.82
  Q 229.07 148.07 229.54 144.45
  C 229.63 143.75 230.23 142.83 230.90 143.63
  A 1.01 1.01 0.0 0 1 231.12 144.43
  L 230.17 150.60
  A 1.00 1.00 0.0 0 0 231.16 151.75
  Z"
/>
<path d="
  M 250.36 144.78
  L 249.12 144.73
  A 0.66 0.65 -11.7 0 1 248.57 144.38
  C 247.77 142.78 253.84 143.42 254.80 143.28
  A 1.00 0.99 72.8 0 1 255.86 143.84
  L 256.01 144.17
  A 0.41 0.40 78.0 0 1 255.64 144.75
  L 253.76 144.75
  A 0.99 0.99 0.0 0 0 252.77 145.60
  L 251.80 152.28
  A 0.83 0.81 76.0 0 1 251.49 152.81
  C 250.65 153.43 250.42 152.17 250.51 151.57
  Q 250.89 148.74 251.31 145.93
  A 1.01 1.01 0.0 0 0 250.36 144.78
  Z"
/>
<rect x="-0.75" y="-4.70" transform="translate(258.98,148.08) rotate(7.7)" width="1.50" height="9.40" rx="0.69"/>
<path d="
  M 265.39 151.63
  Q 267.05 151.93 268.74 151.72
  Q 270.62 151.49 269.94 152.55
  A 0.79 0.78 16.2 0 1 269.28 152.91
  L 264.01 153.00
  A 1.00 1.00 0.0 0 1 263.00 151.87
  L 263.96 144.40
  A 1.01 1.00 5.0 0 1 265.00 143.53
  C 265.37 143.55 271.86 142.70 270.73 144.40
  A 0.79 0.78 -72.4 0 1 270.06 144.75
  L 266.12 144.74
  A 1.01 0.99 3.5 0 0 265.12 145.61
  L 265.02 146.36
  A 1.01 1.00 4.1 0 0 266.00 147.49
  C 266.50 147.50 270.54 147.06 269.65 148.45
  A 0.64 0.62 15.0 0 1 269.11 148.75
  L 265.78 148.75
  A 1.01 1.00 6.2 0 0 264.81 149.52
  L 264.60 150.41
  A 1.01 1.01 0.0 0 0 265.39 151.63
  Z"
/>
<path d="
  M 101.57 146.41
  C 101.58 147.17 101.59 153.04 100.32 152.72
  A 0.64 0.64 0.0 0 1 99.84 152.01
  C 99.86 151.85 100.90 139.93 102.88 144.74
  Q 103.38 145.98 104.09 147.11
  A 1.01 1.00 51.9 0 0 105.64 147.30
  Q 107.36 145.62 108.82 143.83
  Q 109.21 143.35 109.63 143.56
  A 0.51 0.50 16.7 0 1 109.91 144.07
  C 109.81 144.91 109.24 153.75 107.92 152.80
  A 0.80 0.79 -68.2 0 1 107.60 152.04
  C 107.68 151.49 109.25 145.65 107.72 146.30
  A 1.03 1.00 -89.6 0 0 107.19 146.84
  Q 104.53 153.17 102.69 146.29
  A 0.42 0.41 80.9 0 0 102.28 145.99
  L 101.96 145.99
  A 0.41 0.41 0.0 0 0 101.57 146.41
  Z"
/>
<path d="
  M 114.80 150.80
  A 1.05 1.05 0.0 0 0 114.22 151.31
  Q 113.87 152.03 113.28 152.41
  Q 110.98 153.89 112.39 151.54
  L 116.84 144.15
  Q 117.91 142.38 118.63 144.31
  Q 120.10 148.23 121.07 152.29
  Q 121.30 153.26 120.70 153.13
  A 0.65 0.63 -5.4 0 1 120.26 152.78
  Q 118.73 149.48 114.80 150.80
  Z
  M 117.51 149.37
  A 1.00 1.00 0.0 0 0 118.54 148.13
  Q 117.43 143.72 115.84 147.98
  A 1.00 1.00 0.0 0 0 116.71 149.33
  L 117.51 149.37
  Z"
/>
<path d="
  M 184.02 147.50
  L 186.97 147.50
  A 1.00 1.00 0.0 0 0 187.97 146.52
  Q 187.99 145.63 188.05 144.76
  C 188.11 143.95 188.89 142.76 189.61 143.84
  A 1.01 1.00 -56.0 0 1 189.75 144.58
  C 189.60 145.38 189.00 154.18 187.41 152.50
  A 0.79 0.79 0.0 0 1 187.21 151.77
  L 187.61 150.08
  A 1.00 1.00 0.0 0 0 186.65 148.85
  L 183.56 148.82
  A 1.01 1.00 -6.0 0 0 182.57 150.04
  Q 183.04 152.13 181.91 152.59
  Q 180.49 153.17 180.82 151.68
  C 181.07 150.60 181.54 142.58 183.16 143.63
  A 0.63 0.62 -68.2 0 1 183.44 144.29
  L 183.04 146.30
  A 1.00 1.00 0.0 0 0 184.02 147.50
  Z"
/>
<path d="
  M 243.98 150.63
  L 240.49 150.57
  A 1.02 1.00 -71.6 0 0 239.65 151.00
  C 239.44 151.30 237.85 154.10 237.34 152.68
  A 0.52 0.49 51.9 0 1 237.38 152.25
  L 242.14 144.05
  Q 243.28 142.08 243.95 144.26
  Q 245.17 148.15 246.26 152.05
  Q 246.66 153.51 245.75 153.06
  A 0.76 0.75 -86.5 0 1 245.35 152.60
  L 244.91 151.31
  A 1.01 1.00 80.8 0 0 243.98 150.63
  Z
  M 240.93 148.49
  A 0.43 0.43 0.0 0 0 241.25 149.13
  L 243.64 149.38
  A 0.43 0.43 0.0 0 0 244.09 148.81
  L 243.17 146.04
  A 0.43 0.43 0.0 0 0 242.39 145.96
  L 240.93 148.49
  Z"
/>
<path d="
  M 280.70 152.61
  C 280.01 154.41 274.16 144.41 274.76 151.40
  C 274.82 152.16 274.66 153.09 273.69 152.77
  A 0.64 0.63 -74.5 0 1 273.27 152.02
  C 274.13 148.17 272.84 143.78 276.93 142.67
  A 1.09 1.05 -40.4 0 1 277.57 142.71
  Q 284.85 145.70 279.55 148.78
  A 1.00 1.00 0.0 0 0 279.29 150.29
  L 280.56 151.81
  A 0.79 0.79 0.0 0 1 280.70 152.61
  Z
  M 280.09 145.32
  C 278.08 144.17 274.92 144.10 275.36 147.38
  A 1.01 1.01 0.0 0 0 276.16 148.23
  Q 278.57 148.69 280.32 146.88
  A 1.00 0.99 36.8 0 0 280.09 145.32
  Z"
/>
<path d="
  M 293.04 195.75
  L 293.43 195.54
  A 0.52 0.51 77.3 0 1 294.18 196.02
  C 294.09 198.57 293.92 204.51 295.56 205.50
  A 1.00 1.00 0.0 0 1 296.01 206.60
  Q 295.30 209.48 297.26 210.73
  Q 297.32 214.36 296.55 218.36
  Q 296.17 220.37 294.82 218.83
  L 287.75 210.79
  Q 288.81 210.80 288.91 209.96
  A 0.63 0.60 -62.9 0 0 288.76 209.46
  L 284.91 205.10
  A 0.35 0.02 48.7 0 1 284.71 204.84
  Q 284.72 204.73 284.76 204.66
  A 0.41 0.19 41.8 0 1 285.23 204.80
  Q 286.23 205.79 286.45 204.60
  A 0.64 0.64 0.0 0 1 287.27 204.11
  L 287.71 204.25
  L 288.63 205.50
  A 0.65 0.65 0.0 0 0 289.05 205.75
  Q 289.73 205.86 289.27 205.22
  Q 282.98 196.46 275.71 188.50
  Q 266.39 176.85 255.68 166.29
  Q 254.72 164.82 256.24 164.70
  A 1.02 1.02 0.0 0 1 257.07 165.05
  L 290.27 203.66
  Q 291.71 205.34 292.02 203.15
  L 293.04 195.75
  Z"
/>
<path d="
  M 212.25 168.21
  Q 211.21 168.13 211.37 168.85
  A 0.54 0.48 13.8 0 0 211.58 169.16
  Q 217.02 172.86 216.89 179.16
  Q 215.05 183.96 213.46 188.70
  Q 212.75 190.83 209.84 192.22
  A 0.63 0.61 -12.9 0 0 209.48 192.78
  Q 209.47 193.28 210.00 193.54
  L 203.68 196.47
  A 1.00 1.00 0.0 0 0 203.20 197.82
  Q 207.63 206.73 211.99 215.65
  Q 212.78 217.27 213.59 218.29
  Q 214.29 219.18 215.08 219.99
  Q 216.55 221.51 214.44 221.68
  Q 211.62 221.91 209.21 220.70
  C 205.08 218.63 200.41 207.05 198.45 202.79
  Q 199.27 199.27 197.30 196.31
  A 1.00 1.00 0.0 0 1 197.56 194.94
  L 198.01 194.62
  A 0.99 0.98 -17.8 0 0 198.44 193.79
  C 198.39 191.39 206.19 194.30 206.30 190.88
  A 0.98 0.98 0.0 0 1 206.96 189.98
  C 210.69 188.64 214.01 184.07 210.29 180.75
  L 209.34 175.83
  Q 206.70 169.83 199.74 169.59
  Q 194.87 169.42 190.08 170.38
  A 1.02 1.01 -89.0 0 0 189.30 171.14
  L 188.25 175.79
  Q 186.85 176.25 186.96 178.00
  C 184.82 179.13 183.92 176.88 182.79 175.63
  A 1.03 1.02 -63.2 0 1 182.54 174.86
  Q 182.64 173.73 181.50 173.46
  L 181.04 168.00
  Q 181.97 168.21 182.14 167.51
  A 0.52 0.50 -59.4 0 0 182.03 167.04
  L 180.25 165.04
  C 188.58 164.53 204.52 163.07 212.25 168.21
  Z"
/>
<path d="
  M 319.45 176.34
  A 4.35 4.35 0.0 0 1 315.10 180.69
  A 4.35 4.35 0.0 0 1 310.75 176.34
  A 4.35 4.35 0.0 0 1 315.10 171.99
  A 4.35 4.35 0.0 0 1 319.45 176.34
  Z
  M 318.27 176.25
  A 3.18 3.18 0.0 0 0 315.09 173.07
  A 3.18 3.18 0.0 0 0 311.91 176.25
  A 3.18 3.18 0.0 0 0 315.09 179.43
  A 3.18 3.18 0.0 0 0 318.27 176.25
  Z"
/>
<path d="
  M 316.69 176.87
  Q 317.43 178.51 315.85 177.50
  A 1.01 1.00 46.3 0 0 314.84 177.47
  Q 312.38 178.79 313.59 174.95
  A 0.99 0.99 0.0 0 1 314.62 174.26
  Q 317.55 174.50 316.73 175.97
  A 0.99 0.99 0.0 0 0 316.69 176.87
  Z
  M 315.93 175.64
  C 316.28 173.84 313.48 176.18 315.09 176.28
  A 0.81 0.80 7.4 0 0 315.93 175.64
  Z"
/>
<path d="
  M 93.67 203.61
  Q 93.23 208.24 92.71 211.25
  Q 91.98 215.48 93.09 219.41
  A 1.00 1.00 0.0 0 1 92.21 220.68
  Q 87.26 221.07 82.25 220.46
  Q 84.11 217.06 85.25 210.25
  Q 87.27 198.15 89.04 186.00
  Q 89.68 185.51 90.17 186.15
  A 1.03 1.02 31.9 0 1 90.36 186.95
  Q 90.04 188.62 90.21 190.21
  Q 90.82 195.94 92.18 190.34
  Q 92.51 188.95 92.89 187.58
  C 93.19 186.45 94.79 184.82 94.25 188.25
  C 93.60 192.40 93.14 196.62 92.07 200.68
  Q 91.44 203.05 93.67 203.61
  Z"
/>
<path d="
  M 126.84 189.36
  L 125.08 204.95
  A 0.52 0.52 0.0 0 0 125.61 205.52
  C 126.19 205.49 126.22 209.17 126.56 210.29
  A 0.81 0.80 81.3 0 0 127.31 210.85
  Q 127.99 210.87 128.29 210.25
  Q 129.94 213.84 133.42 215.40
  C 141.71 219.02 151.95 216.55 155.07 207.31
  Q 156.64 202.66 157.04 197.75
  C 160.13 195.99 157.78 204.95 157.46 205.77
  A 1.00 0.99 -56.9 0 0 157.68 206.84
  L 160.20 209.38
  A 0.99 0.99 0.0 0 1 160.27 210.70
  C 158.53 212.90 155.11 217.32 151.82 218.26
  A 0.79 0.78 -83.7 0 0 151.32 218.67
  Q 150.94 219.42 152.00 219.79
  C 141.42 225.00 125.99 222.87 121.74 210.24
  Q 121.02 208.12 122.04 200.75
  C 122.18 201.78 121.75 207.33 122.39 207.45
  A 0.51 0.51 0.0 0 0 122.99 207.06
  Q 124.93 198.37 125.44 189.49
  Q 125.47 189.04 126.84 189.36
  Z"
/>
<path d="
  M 255.21 208.75
  Q 254.90 210.15 256.21 210.00
  Q 255.27 214.95 256.69 219.68
  A 1.00 1.00 0.0 0 1 255.84 220.96
  Q 251.22 221.46 247.00 221.07
  Q 251.10 209.93 251.54 198.00
  C 252.29 197.21 252.38 198.46 252.33 198.86
  Q 251.85 202.42 252.15 206.16
  A 1.00 1.00 0.0 0 0 253.57 206.99
  Q 254.81 206.40 255.21 208.75
  Z"
/>
<path d="
  M 178.04 200.75
  Q 178.49 200.78 178.80 201.13
  A 0.83 0.82 35.4 0 1 178.94 201.95
  Q 177.88 204.67 178.53 207.50
  A 0.98 0.98 0.0 0 0 179.03 208.15
  C 181.01 209.20 181.40 212.44 183.96 211.75
  Q 183.22 215.83 184.42 219.68
  A 1.01 1.00 78.5 0 1 183.57 220.97
  Q 178.54 221.55 173.50 220.96
  C 176.91 215.36 177.25 207.92 178.04 200.75
  Z"
/>
<path d="
  M 228.04 204.25
  L 228.31 204.25
  A 1.00 1.00 0.0 0 1 229.32 205.24
  L 229.37 211.00
  A 0.74 0.11 89.1 0 0 229.49 211.76
  L 229.78 211.72
  A 0.52 0.51 2.4 0 0 230.21 211.33
  L 231.12 207.53
  Q 231.60 205.54 232.87 207.14
  Q 233.32 207.70 233.29 208.50
  L 233.31 212.66
  A 0.33 0.32 -4.5 0 0 233.69 212.98
  Q 234.11 212.92 234.21 212.25
  Q 233.58 216.62 235.44 220.87
  L 223.33 221.20
  Q 228.00 213.71 228.04 204.25
  Z"
/>
<path d="
  M 213.75 249.79
  L 213.98 253.15
  A 1.00 0.99 60.6 0 1 213.81 253.77
  Q 212.21 256.22 212.50 259.21
  Q 171.58 253.18 130.47 258.10
  Q 139.13 253.79 149.06 251.81
  Q 181.50 245.34 213.75 249.79
  Z"
/>
</g>
<g fill="#4c330d">
<path d="
  M 116.50 164.54
  C 117.46 164.22 117.95 164.47 117.98 165.51
  Q 118.11 170.06 118.27 174.58
  A 0.41 0.41 0.0 0 1 117.85 175.01
  C 117.56 175.00 115.47 172.65 114.79 172.23
  C 111.76 170.35 104.58 170.90 100.76 171.15
  A 1.01 1.00 2.1 0 0 99.84 172.00
  Q 96.66 192.52 93.57 212.31
  Q 93.01 215.86 94.12 219.65
  C 94.55 221.12 96.83 220.95 96.69 221.78
  A 0.33 0.32 -84.7 0 1 96.37 222.05
  L 80.00 222.06
  A 0.72 0.15 -0.7 0 1 79.32 221.93
  L 79.25 221.75
  A 0.34 0.13 -21.4 0 1 79.51 221.51
  L 82.25 220.46
  Q 87.26 221.07 92.21 220.68
  A 1.00 1.00 0.0 0 0 93.09 219.41
  Q 91.98 215.48 92.71 211.25
  Q 93.23 208.24 93.67 203.61
  L 98.91 170.78
  A 1.00 1.00 0.0 0 1 99.79 169.94
  C 103.14 169.59 111.49 168.87 114.37 170.43
  Q 114.82 170.67 115.24 170.92
  Q 116.82 171.83 116.74 170.01
  L 116.50 164.54
  Z"
/>
<path d="
  M 133.42 215.40
  Q 129.94 213.84 128.29 210.25
  Q 126.76 205.84 127.31 201.81
  Q 129.05 189.17 130.54 176.50
  C 131.36 172.28 131.69 168.00 135.25 165.04
  Q 135.69 164.85 136.13 164.76
  Q 139.00 164.19 136.63 165.91
  Q 133.91 167.88 132.91 170.98
  Q 132.81 171.29 131.80 178.07
  Q 129.94 190.65 128.56 203.29
  Q 127.75 210.76 133.42 215.40
  Z"
/>
<path d="
  M 121.04 197.00
  Q 122.03 198.72 122.04 200.75
  Q 121.02 208.12 121.74 210.24
  C 125.99 222.87 141.42 225.00 152.00 219.79
  Q 160.26 215.87 162.46 207.00
  L 163.79 199.00
  Q 165.89 187.08 167.07 175.05
  C 167.36 172.10 168.52 166.70 171.25 165.04
  C 171.60 164.94 175.87 164.49 173.66 165.59
  Q 169.58 167.61 168.81 172.82
  Q 167.37 182.55 166.03 192.30
  Q 163.97 207.27 162.81 210.11
  C 158.43 220.82 145.37 225.78 134.25 222.73
  C 121.03 219.11 119.50 209.30 121.04 197.00
  Z"
/>
<path d="
  M 247.00 221.07
  Q 251.22 221.46 255.84 220.96
  A 1.00 1.00 0.0 0 0 256.69 219.68
  Q 255.27 214.95 256.21 210.00
  Q 257.97 196.64 259.50 183.25
  Q 259.59 182.50 260.29 181.50
  Q 261.53 180.77 262.19 181.56
  Q 274.63 196.47 287.75 210.79
  L 294.82 218.83
  Q 296.17 220.37 296.55 218.36
  Q 297.32 214.36 297.26 210.73
  L 298.25 203.54
  Q 300.04 193.04 300.76 182.09
  Q 301.71 173.38 305.44 165.29
  Q 312.28 163.89 307.37 166.31
  C 305.38 167.29 304.01 170.55 303.75 172.51
  Q 300.38 196.96 297.34 220.86
  Q 297.06 223.07 295.59 221.39
  L 262.65 183.70
  Q 261.21 182.05 260.91 184.23
  Q 258.99 198.28 257.40 211.82
  Q 256.80 216.86 257.73 220.00
  C 258.06 221.12 261.19 221.33 260.29 222.42
  A 0.83 0.81 -66.6 0 1 259.59 222.71
  Q 252.51 222.00 245.38 222.57
  C 244.97 222.60 243.32 222.44 244.46 221.68
  C 244.95 221.34 246.27 221.24 247.00 221.07
  Z"
/>
<path d="
  M 91.30 170.74
  C 85.62 170.85 75.28 169.84 71.74 174.96
  Q 71.24 175.68 70.92 175.27
  A 0.33 0.31 37.6 0 1 70.87 174.95
  L 72.29 171.25
  Q 81.66 168.60 91.30 170.74
  Z"
/>
<path d="
  M 130.47 258.10
  Q 171.58 253.18 212.50 259.21
  C 226.31 261.73 243.02 264.35 257.75 264.21
  C 276.22 265.14 298.28 261.89 310.00 245.79
  Q 318.67 235.07 321.12 221.44
  Q 324.87 211.12 326.05 201.01
  Q 326.07 200.79 326.22 200.77
  A 0.27 0.20 83.9 0 1 326.46 201.03
  Q 326.59 203.17 326.02 207.74
  C 323.96 224.14 316.60 244.18 303.36 254.61
  C 277.85 274.72 228.44 262.90 199.11 259.07
  C 172.42 255.59 146.04 256.07 120.26 262.25
  Q 120.04 262.30 119.87 262.27
  Q 119.38 262.18 119.88 261.94
  Q 125.12 259.50 130.47 258.10
  Z"
/>
<path d="
  M 235.44 220.87
  L 236.50 220.71
  L 238.60 221.66
  A 0.33 0.33 0.0 0 1 238.69 222.20
  L 238.50 222.37
  A 0.63 0.62 23.0 0 1 238.07 222.54
  L 222.04 222.54
  A 0.82 0.79 -24.7 0 1 221.53 222.36
  Q 220.45 221.50 223.33 221.20
  L 235.44 220.87
  Z"
/>
</g>
<g fill="#ef1e23">
<path d="
  M 319.56 203.00
  Q 318.05 215.51 310.81 225.79
  Q 310.45 226.30 310.03 226.49
  C 306.82 227.87 313.14 219.49 308.75 220.21
  Q 315.07 212.35 319.56 203.00
  Z"
/>
<path d="
  M 250.06 235.35
  Q 249.09 236.40 249.57 236.97
  A 1.06 0.03 50.0 0 1 250.20 237.76
  L 251.27 243.82
  A 1.00 1.00 0.0 0 1 250.28 244.99
  Q 242.82 244.94 237.26 244.22
  Q 210.07 240.72 198.74 240.27
  Q 186.86 239.81 160.74 241.37
  C 189.47 230.39 219.79 233.22 250.06 235.35
  Z"
/>
</g>
<g fill="#f2dac0">
<path d="
  M 315.09 176.28
  C 313.48 176.18 316.28 173.84 315.93 175.64
  A 0.81 0.80 7.4 0 1 315.09 176.28
  Z"
/>
<path d="
  M 188.25 175.79
  L 184.71 205.25
  Q 184.29 205.58 183.89 205.54
  A 0.64 0.64 0.0 0 1 183.31 204.82
  L 186.96 178.00
  Q 186.85 176.25 188.25 175.79
  Z"
/>
<path d="
  M 130.54 176.50
  Q 129.05 189.17 127.31 201.81
  Q 126.76 205.84 128.29 210.25
  Q 127.99 210.87 127.31 210.85
  A 0.81 0.80 81.3 0 1 126.56 210.29
  C 126.22 209.17 126.19 205.49 125.61 205.52
  A 0.52 0.52 0.0 0 1 125.08 204.95
  L 126.84 189.36
  Q 127.55 183.59 129.13 178.05
  C 129.36 177.24 128.81 175.16 130.54 176.50
  Z"
/>
<path d="
  M 238.29 180.75
  L 234.21 212.25
  Q 234.11 212.92 233.69 212.98
  A 0.33 0.32 -4.5 0 1 233.31 212.66
  L 233.29 208.50
  C 234.38 199.28 234.82 188.89 237.24 180.81
  A 0.64 0.63 88.2 0 1 237.63 180.39
  Q 238.10 180.22 238.29 180.75
  Z"
/>
<path d="
  M 210.29 180.75
  C 214.01 184.07 210.69 188.64 206.96 189.98
  A 0.98 0.98 0.0 0 0 206.30 190.88
  C 206.19 194.30 198.39 191.39 198.44 193.79
  A 0.99 0.98 -17.8 0 1 198.01 194.62
  L 197.56 194.94
  A 1.00 1.00 0.0 0 0 197.30 196.31
  Q 199.27 199.27 198.45 202.79
  C 197.41 200.81 194.04 192.31 192.49 192.01
  Q 193.54 190.94 195.20 191.35
  C 201.85 193.01 210.85 188.51 210.29 180.75
  Z"
/>
<path d="
  M 260.29 181.50
  Q 259.59 182.50 259.50 183.25
  Q 257.97 196.64 256.21 210.00
  Q 254.90 210.15 255.21 208.75
  C 255.30 203.99 256.34 199.46 256.53 194.72
  Q 256.80 188.51 258.44 182.10
  A 1.01 1.00 75.1 0 1 258.70 181.65
  Q 260.08 180.23 260.29 181.50
  Z"
/>
<path d="
  M 300.76 182.09
  Q 300.04 193.04 298.25 203.54
  C 295.56 204.10 296.87 201.82 296.90 200.57
  Q 297.18 191.01 300.76 182.09
  Z"
/>
<path d="
  M 275.71 188.50
  Q 282.98 196.46 289.27 205.22
  Q 289.73 205.86 289.05 205.75
  A 0.65 0.65 0.0 0 1 288.63 205.50
  L 287.71 204.25
  L 287.75 203.97
  A 0.31 0.29 26.2 0 0 287.64 203.67
  Q 284.19 200.84 281.49 197.32
  C 279.26 194.42 277.03 192.24 274.82 189.60
  A 0.65 0.64 50.8 0 1 274.91 188.68
  Q 275.24 188.43 275.71 188.50
  Z"
/>
<path d="
  M 163.79 199.00
  L 162.46 207.00
  Q 162.07 207.02 161.77 206.86
  A 0.81 0.81 0.0 0 1 161.36 206.00
  L 162.99 197.33
  A 0.53 0.51 -6.7 0 1 163.30 196.95
  Q 164.16 196.60 163.79 199.00
  Z"
/>
</g>
</svg>
