<?xml version="1.0" encoding="UTF-8" standalone="no"?>
<!DOCTYPE svg PUBLIC "-//W3C//DTD SVG 1.1//EN" "http://www.w3.org/Graphics/SVG/1.1/DTD/svg11.dtd">
<svg xmlns="http://www.w3.org/2000/svg" version="1.1" viewBox="0 0 500 500">
<g stroke-width="2.00" fill="none" stroke-linecap="butt">
<path stroke="#808080" vector-effect="non-scaling-stroke" d="
  M 247.57 166.44
  C 250.10 166.07 245.72 164.40 244.86 163.63
  A 0.99 0.99 0.0 0 0 243.45 163.70
  L 243.26 163.91
  Q 242.30 164.97 243.73 164.98
  Q 245.45 164.98 246.75 166.19
  A 1.00 1.00 0.0 0 0 247.57 166.44"
/>
<path stroke="#808080" vector-effect="non-scaling-stroke" d="
  M 266.73 182.15
  Q 265.71 177.59 262.30 174.38
  A 1.06 1.01 -20.9 0 0 261.65 174.11
  Q 257.65 173.96 258.07 176.05
  A 1.00 0.99 -12.8 0 0 259.30 176.82
  L 261.67 176.20
  A 1.00 0.99 -9.1 0 1 262.92 177.10
  L 263.49 186.35
  A 1.00 0.97 19.0 0 0 263.85 187.06
  Q 266.75 189.47 270.60 189.65
  A 0.99 0.97 -19.7 0 1 271.27 189.96
  L 281.13 200.31
  A 1.02 0.98 29.9 0 1 281.39 201.21
  Q 279.94 207.95 285.35 211.97
  A 1.00 1.00 0.0 0 1 285.52 213.41
  L 281.28 218.47
  A 1.01 0.99 29.3 0 1 280.18 218.77
  Q 278.01 217.99 275.70 217.96
  Q 271.93 217.91 275.19 219.83
  L 279.70 222.48
  A 0.99 0.99 0.0 0 0 280.81 222.41
  C 286.28 218.28 290.13 216.07 292.37 210.88
  A 0.99 0.99 0.0 0 0 292.10 209.72
  L 290.66 208.51
  A 1.01 1.00 43.6 0 1 290.62 207.01
  L 293.91 203.93
  A 1.01 1.01 0.0 0 1 294.88 203.70
  C 301.99 205.81 306.38 198.58 301.34 193.17
  Q 297.85 189.42 296.45 186.46
  A 0.41 0.41 0.0 0 0 295.76 186.38
  C 295.53 186.67 300.94 197.47 301.53 198.96
  A 0.98 0.97 -43.1 0 1 301.50 199.75
  C 299.59 203.80 295.81 202.56 293.40 200.04
  Q 288.99 195.41 284.60 190.77
  A 1.01 1.00 47.4 0 1 284.65 189.34
  Q 294.91 180.00 289.36 166.87
  A 1.02 1.02 0.0 0 0 288.83 166.34
  L 283.83 164.21
  A 1.00 0.99 -52.6 0 0 282.81 164.35
  Q 281.15 165.69 280.92 167.68
  A 0.99 0.98 -82.3 0 1 279.78 168.55
  L 276.21 167.99
  A 1.01 1.00 24.4 0 0 275.30 168.33
  Q 273.93 169.91 274.75 171.96
  A 1.00 0.98 57.0 0 1 274.53 173.04
  Q 274.08 173.49 273.55 173.79
  Q 270.11 175.78 273.89 174.54
  Q 275.37 174.05 276.30 172.54
  A 1.01 1.01 0.0 0 1 277.70 172.22
  L 278.35 172.65
  A 1.01 1.01 0.0 0 1 278.51 174.21
  L 276.26 176.40
  Q 275.17 177.46 276.69 177.50
  Q 277.01 177.51 277.33 177.43
  C 278.27 177.21 281.54 177.14 279.02 179.01
  Q 276.69 180.75 271.15 181.44
  A 1.04 1.02 -69.8 0 0 270.56 181.72
  Q 269.32 182.96 267.69 182.93
  A 1.01 1.00 -5.5 0 1 266.73 182.15"
/>
<path stroke="#808080" vector-effect="non-scaling-stroke" d="
  M 209.87 174.48
  Q 209.17 172.37 210.99 171.97
  A 1.01 1.00 65.2 0 1 212.01 172.35
  C 212.67 173.25 214.52 175.58 215.35 174.88
  Q 215.92 174.40 215.21 174.17
  C 211.16 172.89 217.39 165.36 208.99 168.93
  A 1.00 1.00 0.0 0 1 207.66 168.36
  L 206.29 164.71
  A 1.00 1.00 0.0 0 0 205.01 164.12
  L 198.13 166.64
  A 0.99 0.99 0.0 0 0 197.54 167.92
  C 198.41 170.27 197.32 172.50 197.21 174.33
  Q 196.60 183.77 203.85 189.24
  A 1.01 1.00 -49.9 0 1 203.97 190.73
  L 193.51 201.70
  A 1.06 1.06 0.0 0 1 192.91 202.00
  C 181.35 203.43 191.38 190.09 193.19 187.08
  C 193.24 187.00 193.38 186.26 192.95 186.69
  C 190.26 189.45 185.19 194.79 185.47 198.88
  Q 185.96 205.87 193.70 203.79
  A 1.01 1.01 0.0 0 1 194.68 204.06
  L 197.73 207.16
  A 1.00 1.00 0.0 0 1 197.75 208.55
  L 196.42 209.96
  A 0.98 0.98 0.0 0 0 196.25 211.08
  C 198.58 215.85 203.59 219.25 207.60 222.17
  A 1.02 1.00 -34.5 0 0 208.46 222.32
  Q 210.78 221.68 212.71 220.30
  Q 215.07 218.60 212.16 218.49
  L 207.77 218.31
  A 0.98 0.97 -20.2 0 1 207.07 217.99
  L 203.02 213.56
  A 1.00 1.00 0.0 0 1 203.17 212.08
  Q 208.34 208.28 206.90 202.03
  A 1.02 1.02 0.0 0 1 207.06 201.22
  C 211.78 194.62 215.75 190.56 224.11 188.14
  A 1.01 0.99 -6.7 0 0 224.83 187.24
  L 225.39 177.79
  A 1.00 1.00 0.0 0 1 226.25 176.86
  L 229.08 176.47
  Q 231.92 176.07 229.45 174.62
  Q 226.07 172.62 224.12 176.84
  Q 222.87 179.56 221.41 182.61
  A 0.99 0.99 0.0 0 1 220.01 183.05
  Q 215.63 180.49 210.61 180.03
  A 1.01 0.99 74.1 0 1 209.89 179.62
  Q 207.05 175.73 211.57 177.67
  A 1.00 0.96 -42.3 0 0 212.31 177.69
  C 214.34 176.94 211.34 175.48 210.42 175.09
  A 1.01 1.00 -87.4 0 1 209.87 174.48"
/>
<path stroke="#808080" vector-effect="non-scaling-stroke" d="
  M 244.48 172.91
  Q 245.98 173.97 246.05 172.13
  Q 246.14 169.61 244.88 167.88
  A 1.00 1.00 0.0 0 0 243.24 167.91
  Q 241.37 170.73 244.48 172.91"
/>
<path stroke="#808080" vector-effect="non-scaling-stroke" d="
  M 252.1209 172.3902
  A 1.62 0.75 101.0 0 0 253.1662 170.9431
  A 1.62 0.75 101.0 0 0 252.7391 169.2098
  A 1.62 0.75 101.0 0 0 251.6938 170.6569
  A 1.62 0.75 101.0 0 0 252.1209 172.3902"
/>
<path stroke="#808080" vector-effect="non-scaling-stroke" d="
  M 238.83 170.24
  C 236.20 171.47 242.88 173.40 239.97 170.44
  A 1.01 1.01 0.0 0 0 238.83 170.24"
/>
<path stroke="#808080" vector-effect="non-scaling-stroke" d="
  M 249.3235 172.2292
  A 1.15 1.03 74.7 0 0 250.0135 170.8482
  A 1.15 1.03 74.7 0 0 248.7165 170.0108
  A 1.15 1.03 74.7 0 0 248.0265 171.3918
  A 1.15 1.03 74.7 0 0 249.3235 172.2292"
/>
<path stroke="#808080" vector-effect="non-scaling-stroke" d="
  M 252.6396 175.7464
  A 0.79 0.79 0.0 0 0 251.8454 174.9605
  L 236.7657 175.0395
  A 0.79 0.79 0.0 0 0 235.9798 175.8336
  L 235.9804 175.9536
  A 0.79 0.79 0.0 0 0 236.7746 176.7395
  L 251.8543 176.6605
  A 0.79 0.79 0.0 0 0 252.6402 175.8664
  L 252.6396 175.7464"
/>
<path stroke="#808080" vector-effect="non-scaling-stroke" d="
  M 190.1840 182.5591
  A 3.05 0.98 45.6 0 0 188.7502 179.6943
  A 3.05 0.98 45.6 0 0 185.9160 178.2009
  A 3.05 0.98 45.6 0 0 187.3498 181.0657
  A 3.05 0.98 45.6 0 0 190.1840 182.5591"
/>
<path stroke="#808080" vector-effect="non-scaling-stroke" d="
  M 227.73 208.57
  C 229.04 219.12 237.20 225.40 247.83 223.59
  C 258.62 221.75 261.26 212.62 261.32 203.00
  Q 261.40 191.03 260.66 179.20
  A 0.99 0.99 0.0 0 0 259.67 178.26
  L 228.57 178.25
  A 1.00 0.99 1.2 0 0 227.57 179.20
  Q 227.38 183.23 227.54 187.24
  C 227.82 194.45 226.82 201.30 227.73 208.57"
/>
<path stroke="#808080" vector-effect="non-scaling-stroke" d="
  M 299.73 179.68
  Q 299.10 180.41 298.55 181.20
  Q 295.05 186.18 299.72 182.27
  L 302.13 180.25
  Q 304.20 178.51 301.50 178.48
  Q 300.58 178.47 300.10 179.17
  Q 299.80 179.60 299.73 179.68"
/>
<path stroke="#808080" vector-effect="non-scaling-stroke" d="
  M 265.63 191.73
  L 264.66 190.48
  A 0.64 0.63 -18.9 0 0 264.16 190.24
  C 262.20 190.22 263.67 195.91 263.83 196.25
  A 0.99 0.99 0.0 0 0 265.00 196.78
  L 271.42 194.94
  A 1.00 1.00 0.0 0 0 271.87 193.29
  Q 269.67 191.00 266.76 192.06
  A 1.02 1.01 61.1 0 1 265.63 191.73"
/>
<path stroke="#808080" vector-effect="non-scaling-stroke" d="
  M 221.40 192.07
  Q 218.40 190.98 216.72 193.52
  A 1.00 1.00 0.0 0 0 217.27 195.04
  L 223.42 196.82
  A 1.00 1.00 0.0 0 0 224.57 196.35
  Q 225.84 194.11 225.46 191.58
  A 1.00 1.00 0.0 0 0 223.92 190.89
  L 222.29 191.96
  A 1.00 0.99 -51.7 0 1 221.40 192.07"
/>
<path stroke="#808080" vector-effect="non-scaling-stroke" d="
  M 218.96 212.93
  L 213.97 208.93
  A 1.00 0.99 -55.9 0 1 213.73 207.66
  Q 216.02 203.62 214.36 199.16
  A 1.01 1.00 71.5 0 0 213.14 198.55
  C 208.96 199.78 210.38 202.91 209.71 205.67
  Q 209.07 208.28 208.14 210.49
  A 1.00 1.00 0.0 0 0 208.88 211.86
  Q 212.05 212.46 214.93 213.81
  C 216.33 214.46 217.34 215.77 219.09 216.25
  A 1.02 1.00 35.0 0 0 219.92 216.11
  L 223.82 213.44
  Q 228.59 210.18 223.00 211.65
  Q 221.49 212.05 220.15 212.97
  A 1.00 1.00 0.0 0 1 218.96 212.93"
/>
<path stroke="#808080" vector-effect="non-scaling-stroke" d="
  M 273.19 201.46
  A 4.65 2.01 -67.0 0 0 273.21 204.26
  L 274.78 207.74
  A 1.00 1.00 0.0 0 1 274.48 208.94
  L 269.32 212.95
  A 1.01 1.01 0.0 0 1 268.06 212.92
  Q 266.70 211.78 265.05 211.70
  Q 261.54 211.54 264.43 213.53
  Q 266.84 215.18 269.61 216.12
  A 0.99 0.99 0.0 0 0 270.62 215.90
  Q 274.39 212.35 279.70 212.08
  A 1.00 1.00 0.0 0 0 280.52 210.60
  Q 278.15 206.23 278.89 201.33
  A 0.99 0.99 0.0 0 0 278.42 200.33
  Q 274.07 197.69 273.19 201.46"
/>
<path stroke="#808080" vector-effect="non-scaling-stroke" d="
  M 238.57 225.15
  Q 230.86 222.82 226.95 215.67
  A 1.00 1.00 0.0 0 0 225.56 215.29
  L 210.61 224.25
  A 0.80 0.80 0.0 0 0 210.23 224.81
  Q 210.08 225.70 211.00 225.74
  Q 222.61 226.23 238.50 225.95
  A 0.57 0.54 20.0 0 0 238.87 225.79
  Q 239.26 225.36 238.57 225.15"
/>
<path stroke="#808080" vector-effect="non-scaling-stroke" d="
  M 261.56 215.72
  Q 258.00 221.40 252.75 224.20
  C 251.39 224.93 251.48 225.76 253.00 225.76
  Q 265.06 225.74 277.10 225.75
  C 278.44 225.75 278.45 224.70 277.48 224.08
  Q 270.50 219.68 262.90 215.38
  A 1.00 1.00 0.0 0 0 261.56 215.72"
/>
<path stroke="#808080" vector-effect="non-scaling-stroke" d="
  M 299.66 248.74
  L 302.39 248.45
  A 0.81 0.81 0.0 0 0 302.98 248.09
  C 304.41 245.85 297.49 249.80 298.98 244.21
  A 1.00 1.00 0.0 0 1 300.01 243.47
  L 303.11 243.67
  A 0.99 0.97 25.0 0 0 303.85 243.41
  C 306.21 241.24 298.66 242.51 298.39 242.54
  A 1.00 1.00 0.0 0 0 297.50 243.53
  L 297.50 251.50
  A 1.01 1.00 10.8 0 0 298.14 252.43
  C 298.72 252.66 305.48 254.31 304.77 252.48
  A 0.64 0.63 82.4 0 0 304.24 252.07
  C 302.89 251.94 301.13 252.24 300.04 251.69
  Q 298.90 251.11 298.77 249.83
  A 1.01 0.99 -6.1 0 1 299.66 248.74"
/>
<path stroke="#808080" vector-effect="non-scaling-stroke" d="
  M 217.29 244.09
  Q 213.60 240.98 210.01 242.96
  A 1.01 1.00 -14.7 0 0 209.49 243.84
  L 209.50 251.65
  A 0.97 0.97 0.0 0 0 209.83 252.38
  C 214.81 256.91 219.71 249.99 217.57 244.50
  Q 217.48 244.26 217.29 244.09"
/>
<path stroke="#808080" vector-effect="non-scaling-stroke" d="
  M 225.01 244.07
  A 1.00 0.99 -71.7 0 1 226.29 243.42
  Q 228.09 244.04 229.72 243.46
  Q 232.56 242.45 229.55 242.22
  Q 226.76 242.01 224.11 242.86
  A 1.00 0.99 81.1 0 0 223.41 243.83
  L 223.59 251.98
  A 1.01 1.00 -80.4 0 0 224.23 252.89
  Q 227.07 253.99 230.02 253.19
  A 1.01 1.01 0.0 0 0 230.68 252.61
  C 231.36 251.01 227.36 252.14 226.89 252.21
  A 0.97 0.94 54.2 0 1 226.28 252.10
  Q 224.15 250.97 225.41 249.01
  A 0.99 0.98 14.3 0 1 226.19 248.55
  L 228.88 248.39
  A 0.83 0.79 -71.1 0 0 229.46 248.09
  C 231.01 246.15 223.38 249.26 225.01 244.07"
/>
<path stroke="#808080" vector-effect="non-scaling-stroke" d="
  M 241.61 247.60
  A 0.26 0.26 0.0 0 0 241.30 247.82
  L 241.26 248.09
  A 0.79 0.78 -75.6 0 0 241.76 248.95
  C 245.24 250.27 243.54 252.24 241.08 252.05
  C 233.78 251.47 236.37 241.33 243.44 244.27
  Q 244.77 244.82 244.08 243.55
  Q 243.90 243.22 243.41 243.01
  Q 238.44 240.91 235.27 245.59
  A 1.04 1.03 59.5 0 0 235.10 246.25
  Q 235.72 252.10 241.54 254.01
  A 0.98 0.96 35.1 0 0 242.45 253.86
  Q 248.76 249.15 241.61 247.60"
/>
<path stroke="#808080" vector-effect="non-scaling-stroke" d="
  M 283.32 243.17
  L 283.55 251.79
  A 1.00 0.99 14.2 0 0 284.06 252.64
  C 289.49 255.64 293.82 249.58 293.04 244.48
  A 1.01 0.99 1.8 0 0 292.24 243.65
  L 284.51 242.16
  A 1.00 1.00 0.0 0 0 283.32 243.17"
/>
<path stroke="#808080" vector-effect="non-scaling-stroke" d="
  M 187.29 245.47
  C 187.96 242.17 183.72 241.92 181.78 242.95
  A 1.02 1.01 -14.5 0 0 181.25 243.84
  L 181.25 251.68
  A 1.01 1.00 -88.5 0 0 182.19 252.68
  L 186.87 253.00
  A 0.96 0.96 0.0 0 0 187.56 252.78
  Q 191.46 249.62 187.63 246.43
  A 1.01 1.01 0.0 0 1 187.29 245.47"
/>
<path stroke="#808080" vector-effect="non-scaling-stroke" d="
  M 204.60 247.85
  A 5.36 5.36 0.0 0 0 199.24 242.49
  A 5.36 5.36 0.0 0 0 193.88 247.85
  A 5.36 5.36 0.0 0 0 199.24 253.21
  A 5.36 5.36 0.0 0 0 204.60 247.85"
/>
<path stroke="#808080" vector-effect="non-scaling-stroke" d="
  M 265.12 245.81
  C 263.90 243.07 267.99 243.77 269.76 244.01
  A 0.62 0.61 29.5 0 0 270.24 243.88
  Q 270.76 243.47 270.17 243.18
  Q 265.33 240.84 263.32 245.20
  A 0.99 0.99 0.0 0 0 263.54 246.34
  Q 265.40 248.13 268.05 248.49
  A 0.95 0.94 70.7 0 1 268.60 248.76
  C 271.48 251.48 267.25 252.74 265.05 251.86
  C 264.52 251.65 263.82 251.83 264.04 252.51
  A 0.63 0.62 -88.0 0 0 264.40 252.90
  C 266.71 253.89 272.08 253.07 271.13 249.74
  C 270.62 247.97 267.27 246.98 265.66 246.33
  A 1.03 1.00 88.1 0 1 265.12 245.81"
/>
<path stroke="#808080" vector-effect="non-scaling-stroke" d="
  M 253.92 245.71
  Q 255.19 245.23 255.35 246.76
  Q 255.69 249.88 257.81 251.98
  Q 260.35 254.51 258.84 251.26
  L 255.80 244.72
  Q 254.38 241.67 252.88 244.94
  Q 251.31 248.34 250.03 251.73
  C 249.33 253.61 250.87 252.54 251.14 252.10
  Q 252.61 249.69 253.42 246.27
  A 0.81 0.80 -3.7 0 1 253.92 245.71"
/>
<path stroke="#808080" vector-effect="non-scaling-stroke" d="
  M 74.67 297.12
  Q 68.86 302.61 61.42 300.94
  C 59.74 300.57 58.54 301.18 58.99 303.05
  A 1.00 0.99 -89.6 0 0 59.70 303.78
  C 66.55 305.65 79.97 304.15 78.73 293.78
  C 78.15 288.87 71.59 284.47 67.19 282.20
  C 57.13 277.02 61.87 269.02 71.34 270.60
  C 72.87 270.86 74.84 270.65 74.29 268.58
  A 1.01 1.01 0.0 0 0 73.47 267.84
  Q 67.81 267.04 63.27 268.25
  C 56.60 270.03 55.70 277.33 58.47 282.84
  A 1.04 1.02 -0.6 0 0 58.95 283.30
  C 64.58 285.86 74.37 289.26 74.98 296.31
  A 1.00 1.00 0.0 0 1 74.67 297.12"
/>
<path stroke="#808080" vector-effect="non-scaling-stroke" d="
  M 408.93 283.05
  C 413.10 285.24 420.37 288.11 423.30 291.28
  C 427.76 296.10 421.33 301.57 416.51 301.32
  Q 413.43 301.15 410.28 301.01
  A 1.00 1.00 0.0 0 0 409.26 301.78
  C 408.34 305.65 418.21 304.27 421.73 303.71
  C 429.28 302.51 429.96 294.45 428.03 288.62
  A 1.04 1.03 -85.3 0 0 427.56 288.06
  L 412.77 279.93
  A 1.02 1.00 8.3 0 1 412.27 279.27
  C 410.41 270.83 416.95 270.11 423.02 270.75
  A 0.98 0.96 27.3 0 0 423.77 270.52
  Q 425.02 269.48 424.52 268.19
  A 1.00 1.00 0.0 0 0 423.67 267.56
  C 413.37 266.69 403.80 269.67 408.46 282.50
  A 1.01 0.98 -86.3 0 0 408.93 283.05"
/>
<path stroke="#808080" vector-effect="non-scaling-stroke" d="
  M 439.95 270.14
  Q 442.96 275.10 440.93 268.29
  A 1.01 1.00 -6.3 0 0 440.04 267.58
  Q 437.92 267.43 437.31 269.15
  Q 436.54 271.32 438.49 270.10
  L 438.84 269.88
  A 0.81 0.80 57.9 0 1 439.95 270.14"
/>
<path stroke="#808080" vector-effect="non-scaling-stroke" d="
  M 134.70 276.38
  A 1.00 0.99 68.2 0 1 135.55 276.75
  Q 146.93 290.68 156.43 302.32
  Q 158.33 304.65 160.74 303.27
  A 1.01 1.00 -15.0 0 0 161.25 302.40
  Q 161.25 286.67 161.26 270.93
  C 161.26 268.82 159.76 267.07 157.85 269.05
  A 0.97 0.95 67.8 0 0 157.57 269.73
  L 157.34 294.48
  Q 157.31 297.20 155.57 295.11
  Q 144.89 282.31 134.25 269.51
  Q 131.76 266.50 130.24 268.54
  Q 129.36 269.71 129.37 271.75
  L 129.55 302.26
  A 0.99 0.99 0.0 0 0 129.84 302.96
  Q 131.79 304.91 133.41 302.54
  A 1.05 1.01 -29.8 0 0 133.59 301.93
  C 133.31 294.43 133.49 286.88 133.16 279.41
  Q 133.03 276.52 134.70 276.38"
/>
<path stroke="#808080" vector-effect="non-scaling-stroke" d="
  M 234.02 286.12
  A 18.15 18.15 0.0 0 0 215.87 267.97
  A 18.15 18.15 0.0 0 0 197.72 286.12
  A 18.15 18.15 0.0 0 0 215.87 304.27
  A 18.15 18.15 0.0 0 0 234.02 286.12"
/>
<path stroke="#808080" vector-effect="non-scaling-stroke" d="
  M 317.75 286.08
  A 18.14 18.14 0.0 0 0 299.61 267.94
  A 18.14 18.14 0.0 0 0 281.47 286.08
  A 18.14 18.14 0.0 0 0 299.61 304.22
  A 18.14 18.14 0.0 0 0 317.75 286.08"
/>
<path stroke="#808080" vector-effect="non-scaling-stroke" d="
  M 328.18 276.51
  C 329.01 276.36 339.02 294.30 340.17 296.34
  Q 341.77 299.15 343.38 296.34
  C 344.34 294.66 353.97 276.74 355.07 277.88
  A 0.63 0.61 -68.1 0 1 355.25 278.32
  L 355.25 302.27
  A 1.02 0.99 22.1 0 0 355.57 303.00
  Q 357.45 304.76 359.03 302.76
  A 0.99 0.98 64.8 0 0 359.25 302.14
  L 359.25 269.68
  A 0.99 0.99 0.0 0 0 358.96 268.98
  C 356.86 266.86 355.11 268.42 353.93 270.51
  Q 348.68 279.82 343.33 289.09
  C 341.46 292.32 340.57 289.88 339.60 288.21
  Q 334.45 279.25 329.38 270.22
  C 328.27 268.23 326.75 267.41 324.71 268.73
  A 1.02 1.00 -16.9 0 0 324.25 269.57
  L 324.25 302.59
  A 1.00 0.99 -77.3 0 0 324.81 303.49
  Q 326.31 304.22 327.81 303.38
  A 1.00 0.99 75.1 0 0 328.32 302.49
  L 327.96 276.77
  A 0.27 0.26 -5.2 0 1 328.18 276.51"
/>
<path stroke="#808080" vector-effect="non-scaling-stroke" d="
  M 431.62 269.62
  L 431.46 269.39
  Q 429.80 266.98 430.55 269.81
  Q 430.73 270.49 431.12 271.50
  A 1.00 1.00 0.0 0 0 432.80 271.80
  L 434.91 269.40
  A 0.81 0.80 41.2 0 0 434.83 268.27
  C 434.40 267.89 434.11 268.13 433.88 268.60
  Q 433.61 269.15 433.25 269.64
  A 1.00 1.00 0.0 0 1 431.62 269.62"
/>
<path stroke="#808080" vector-effect="non-scaling-stroke" d="
  M 264.56 271.74
  A 0.44 0.44 0.0 0 1 265.00 272.18
  L 265.00 303.31
  A 0.44 0.44 0.0 0 0 265.44 303.75
  L 268.73 303.75
  A 0.44 0.44 0.0 0 0 269.17 303.31
  L 269.46 272.19
  A 0.44 0.44 0.0 0 1 269.90 271.75
  L 282.59 271.75
  A 0.44 0.44 0.0 0 0 282.98 271.11
  L 281.62 268.49
  A 0.44 0.44 0.0 0 0 281.23 268.25
  L 253.36 268.25
  A 0.44 0.44 0.0 0 0 252.97 268.48
  L 251.54 271.12
  A 0.44 0.44 0.0 0 0 251.92 271.77
  L 264.56 271.74"
/>
<path stroke="#808080" vector-effect="non-scaling-stroke" d="
  M 103.34 274.53
  A 1.01 1.00 58.2 0 1 104.87 274.89
  L 117.97 302.82
  A 1.01 0.99 88.9 0 0 118.47 303.31
  C 122.53 305.16 121.89 301.54 120.92 299.49
  Q 114.28 285.49 107.70 271.45
  C 105.52 266.79 101.81 267.74 99.84 271.94
  Q 93.27 285.88 86.79 299.89
  C 85.92 301.79 84.99 304.89 88.83 303.87
  A 1.02 1.00 5.0 0 0 89.48 303.34
  Q 96.28 289.44 102.63 275.35
  C 102.74 275.11 103.14 274.69 103.34 274.53"
/>
<path stroke="#808080" vector-effect="non-scaling-stroke" d="
  M 389.46 274.11
  L 388.29 270.39
  Q 388.21 270.15 388.03 269.97
  C 385.11 267.18 382.28 268.48 380.70 271.88
  Q 374.42 285.43 368.03 298.93
  C 367.13 300.82 365.09 305.26 370.26 303.28
  A 1.04 1.00 1.1 0 0 370.81 302.77
  L 383.72 275.02
  A 1.00 1.00 0.0 0 1 385.32 274.72
  C 389.92 279.12 385.70 284.45 384.54 288.49
  Q 383.41 292.43 386.85 291.20
  A 1.02 1.00 -86.9 0 0 387.43 290.67
  L 389.31 286.47
  Q 390.19 284.51 391.12 286.44
  Q 394.68 293.76 397.99 301.15
  C 398.93 303.26 400.71 305.35 402.75 302.62
  A 1.01 0.99 51.0 0 0 402.85 301.59
  L 392.73 280.24
  A 1.01 0.99 -44.7 0 1 392.74 279.38
  L 396.47 271.62
  A 1.01 1.01 0.0 0 0 396.45 270.71
  Q 395.38 268.74 393.54 269.53
  A 1.08 1.04 -87.7 0 0 393.04 270.01
  L 390.94 274.22
  Q 390.06 275.99 389.46 274.11"
/>
<path stroke="#808080" vector-effect="non-scaling-stroke" d="
  M 179.51 271.76
  Q 181.85 271.76 181.82 274.00
  L 181.42 302.15
  A 0.98 0.98 0.0 0 0 181.67 302.83
  Q 183.49 304.85 185.42 302.72
  A 1.02 0.99 -24.8 0 0 185.68 302.05
  L 185.78 273.03
  A 1.00 0.99 -2.9 0 1 186.68 272.04
  Q 191.46 271.55 196.24 271.73
  C 197.63 271.79 198.99 270.85 198.38 269.37
  A 0.99 0.99 0.0 0 0 197.46 268.75
  L 169.66 268.75
  A 1.00 0.99 7.0 0 0 168.69 269.50
  L 168.44 270.50
  A 1.01 1.00 -83.0 0 0 169.41 271.75
  L 179.51 271.76"
/>
<path stroke="#808080" vector-effect="non-scaling-stroke" d="
  M 197.29 327.85
  Q 197.28 324.45 201.20 325.87
  Q 202.08 326.19 201.87 325.27
  L 201.79 324.91
  A 0.99 0.99 0.0 0 0 200.44 324.21
  Q 196.40 325.86 197.14 321.71
  A 1.01 1.01 0.0 0 1 197.96 320.90
  C 198.19 320.86 204.70 321.02 202.68 319.49
  A 0.99 0.96 60.8 0 0 202.01 319.29
  L 198.00 319.58
  Q 195.93 319.72 196.03 321.99
  L 196.31 328.94
  A 0.99 0.99 0.0 0 0 197.17 329.89
  L 202.33 330.58
  A 0.80 0.80 0.0 0 0 203.21 329.57
  C 202.93 328.56 199.48 329.16 198.05 328.81
  A 0.99 0.99 0.0 0 1 197.29 327.85"
/>
<path stroke="#808080" vector-effect="non-scaling-stroke" d="
  M 225.00 319.75
  C 222.15 318.82 222.93 325.91 223.04 328.76
  A 0.99 0.97 18.4 0 0 223.43 329.52
  C 225.25 330.90 227.32 330.93 229.20 329.49
  C 234.43 325.52 230.37 317.25 225.00 319.75"
/>
<path stroke="#808080" vector-effect="non-scaling-stroke" d="
  M 225.00 319.75
  Q 223.48 324.45 224.64 329.45
  A 1.00 1.00 0.0 0 0 226.14 330.08
  Q 235.95 323.93 225.00 319.75"
/>
<path stroke="#808080" vector-effect="non-scaling-stroke" d="
  M 181.93 329.84
  Q 190.91 331.56 190.05 321.20
  A 1.00 0.99 1.1 0 0 189.18 320.30
  L 182.33 319.41
  A 1.01 1.00 -86.2 0 0 181.21 320.40
  L 181.12 328.85
  A 1.00 0.99 -84.5 0 0 181.93 329.84"
/>
<path stroke="#808080" vector-effect="non-scaling-stroke" d="
  M 214.42 328.94
  L 210.09 328.87
  A 0.64 0.63 -85.4 0 0 209.45 329.42
  C 209.04 332.14 219.66 330.33 216.16 325.52
  A 1.00 0.98 81.0 0 0 215.70 325.18
  C 214.48 324.71 210.23 323.68 211.00 321.89
  C 211.77 320.09 214.35 320.64 215.60 321.48
  A 0.33 0.33 0.0 0 0 216.10 321.31
  L 216.21 320.97
  A 0.64 0.64 0.0 0 0 215.82 320.18
  C 212.82 319.05 207.32 319.66 210.01 324.35
  A 1.02 1.02 0.0 0 0 210.62 324.82
  C 212.75 325.39 216.39 325.88 215.36 328.33
  A 1.01 0.99 11.7 0 1 214.42 328.94"
/>
<path stroke="#808080" vector-effect="non-scaling-stroke" d="
  M 239.18 330.18
  L 244.45 330.55
  Q 245.92 330.65 245.20 329.36
  Q 244.59 328.26 243.00 329.07
  Q 242.86 329.14 242.69 329.17
  Q 239.11 329.69 239.78 326.58
  A 1.00 1.00 0.0 0 1 240.63 325.80
  Q 241.66 325.66 242.76 325.76
  C 244.33 325.91 243.01 324.81 242.53 324.79
  Q 238.88 324.59 239.71 321.49
  A 1.00 1.00 0.0 0 1 240.60 320.76
  C 241.31 320.70 245.41 321.45 244.89 319.98
  A 0.81 0.80 78.9 0 0 244.11 319.45
  L 239.21 319.62
  A 1.00 1.00 0.0 0 0 238.25 320.62
  L 238.25 329.18
  A 1.01 1.00 2.2 0 0 239.18 330.18"
/>
<path stroke="#808080" vector-effect="non-scaling-stroke" d="
  M 271.69 329.56
  Q 276.38 332.15 277.82 327.15
  A 0.96 0.96 0.0 0 0 277.73 326.39
  Q 276.50 324.17 277.21 321.51
  A 1.01 1.00 22.8 0 0 276.74 320.38
  Q 273.28 318.43 271.06 320.60
  A 1.00 0.99 -28.6 0 0 270.78 321.53
  C 271.42 324.34 268.79 327.96 271.69 329.56"
/>
<path stroke="#808080" vector-effect="non-scaling-stroke" d="
  M 297.85 324.49
  Q 296.78 326.43 297.41 329.06
  A 1.01 1.01 0.0 0 0 298.24 329.82
  Q 306.77 331.07 303.85 324.08
  A 1.02 1.01 49.6 0 1 303.92 323.16
  C 305.58 320.52 300.20 317.84 297.56 321.33
  C 297.00 322.08 297.11 322.69 297.71 323.32
  A 1.00 0.99 -52.1 0 1 297.85 324.49"
/>
<path stroke="#808080" vector-effect="non-scaling-stroke" d="
  M 263.28 329.40
  L 263.24 320.85
  A 1.02 1.01 -85.6 0 0 262.40 319.86
  Q 259.02 319.32 261.61 322.09
  A 1.00 0.98 -69.8 0 1 261.88 322.69
  Q 262.05 324.87 261.98 328.50
  Q 261.97 329.24 262.38 329.74
  Q 263.29 330.83 263.28 329.40"
/>
<path stroke="#808080" vector-effect="non-scaling-stroke" d="
  M 283.91 329.56
  Q 286.69 330.44 289.52 329.77
  Q 293.13 328.91 291.09 325.92
  Q 289.85 324.10 290.78 322.21
  A 0.99 0.98 -56.1 0 0 290.55 321.03
  Q 287.62 318.38 284.37 320.67
  A 1.00 0.97 -23.2 0 0 283.96 321.66
  Q 284.56 325.03 283.29 328.23
  A 1.01 1.00 -70.1 0 0 283.91 329.56"
/>
<path stroke="#808080" vector-effect="non-scaling-stroke" d="
  M 161.5001 325.3196
  A 0.80 0.80 0.0 0 0 160.7015 324.5182
  L 139.8016 324.4818
  A 0.80 0.80 0.0 0 0 139.0002 325.2804
  L 138.9999 325.4404
  A 0.80 0.80 0.0 0 0 139.7985 326.2418
  L 160.6984 326.2782
  A 0.80 0.80 0.0 0 0 161.4998 325.4796
  L 161.5001 325.3196"
/>
<path stroke="#808080" vector-effect="non-scaling-stroke" d="
  M 346.8606 325.2290
  A 0.44 0.44 0.0 0 0 346.4222 324.7874
  L 324.9823 324.7126
  A 0.44 0.44 0.0 0 0 324.5408 325.1510
  L 324.5394 325.5510
  A 0.44 0.44 0.0 0 0 324.9778 325.9926
  L 346.4177 326.0674
  A 0.44 0.44 0.0 0 0 346.8592 325.6290
  L 346.8606 325.2290"
/>
<path stroke="#808080" vector-effect="non-scaling-stroke" d="
  M 238.33 205.56
  A 1.29 1.29 0.0 0 1 239.43 204.55
  L 242.11 204.23
  A 1.29 1.29 0.0 0 0 243.24 202.95
  L 243.25 181.29
  A 1.29 1.29 0.0 0 0 241.96 180.00
  L 230.43 180.00
  A 1.29 1.29 0.0 0 0 229.14 181.30
  L 229.36 210.70
  A 1.29 1.29 0.0 0 0 231.32 211.80
  L 237.35 208.16
  A 1.29 1.29 0.0 0 0 237.95 207.32
  L 238.33 205.56"
/>
<path stroke="#808080" vector-effect="non-scaling-stroke" d="
  M 249.94 205.32
  L 250.87 207.88
  A 1.03 0.98 6.7 0 0 251.31 208.41
  L 257.68 212.02
  A 1.01 1.01 0.0 0 0 259.18 211.15
  L 259.26 181.49
  A 1.00 1.00 0.0 0 0 258.40 180.49
  Q 252.22 179.66 245.95 180.08
  A 1.00 0.99 88.2 0 0 245.02 181.08
  L 244.99 203.32
  A 1.00 0.99 -80.0 0 0 245.64 204.26
  Q 247.19 204.83 248.90 204.66
  A 0.99 0.99 0.0 0 1 249.94 205.32"
/>
<path stroke="#808080" vector-effect="non-scaling-stroke" d="
  M 234.44 212.21
  Q 233.27 212.85 232.20 213.73
  Q 231.21 214.55 231.83 215.41
  A 1.00 1.00 0.0 0 0 233.35 215.53
  L 235.39 213.47
  Q 239.21 209.62 234.44 212.21"
/>
<path stroke="#808080" vector-effect="non-scaling-stroke" d="
  M 255.22 212.91
  Q 254.57 212.40 253.83 212.02
  Q 249.95 210.03 252.87 213.27
  L 254.84 215.45
  A 1.00 0.99 53.5 0 0 256.09 215.64
  C 258.47 214.24 256.09 213.61 255.22 212.91"
/>
<path stroke="#808080" vector-effect="non-scaling-stroke" d="
  M 236.57 218.51
  Q 237.22 217.62 237.76 216.67
  Q 241.31 210.47 236.19 215.46
  L 234.79 216.83
  A 1.01 1.00 50.0 0 0 234.68 218.13
  L 234.95 218.51
  A 1.00 1.00 0.0 0 0 236.57 218.51"
/>
<path stroke="#808080" vector-effect="non-scaling-stroke" d="
  M 253.31 216.69
  Q 252.31 215.72 251.54 215.00
  Q 247.94 211.65 249.94 216.14
  Q 250.71 217.85 252.39 219.01
  A 1.02 1.00 50.3 0 0 253.33 219.11
  Q 255.07 218.39 253.31 216.69"
/>
<path stroke="#808080" vector-effect="non-scaling-stroke" d="
  M 248.68 221.30
  C 251.23 221.80 248.12 215.98 247.75 215.49
  A 0.41 0.41 0.0 0 0 247.14 215.44
  C 246.70 215.86 247.81 219.58 248.19 220.86
  A 0.63 0.63 0.0 0 0 248.68 221.30"
/>
<path stroke="#808080" vector-effect="non-scaling-stroke" d="
  M 239.67 217.42
  Q 239.35 218.10 239.08 218.80
  C 238.69 219.81 238.24 222.88 240.62 221.00
  A 1.00 0.98 73.1 0 0 240.99 220.29
  L 241.19 217.83
  Q 241.54 213.44 239.67 217.42"
/>
<path stroke="#808080" vector-effect="non-scaling-stroke" d="
  M 244.21 215.81
  C 243.37 215.78 243.40 220.91 243.66 221.77
  A 0.63 0.63 0.0 0 0 244.34 222.22
  C 246.00 222.04 244.91 217.38 244.69 216.23
  A 0.52 0.51 85.6 0 0 244.21 215.81"
/>
<path stroke="#808080" vector-effect="non-scaling-stroke" d="
  M 239.42 192.81
  L 234.82 190.30
  Q 232.88 189.24 234.96 188.48
  C 235.51 188.28 239.40 187.56 238.27 186.45
  A 0.79 0.77 67.0 0 0 237.72 186.22
  Q 234.78 186.17 232.23 187.77
  A 1.01 0.99 60.2 0 0 231.88 189.09
  Q 233.58 192.28 236.98 193.55
  A 0.98 0.98 0.0 0 1 237.58 194.19
  Q 238.69 197.71 234.20 196.57
  A 0.65 0.65 0.0 0 0 233.42 197.05
  L 233.35 197.34
  A 0.80 0.79 13.3 0 0 233.95 198.30
  Q 237.67 199.17 240.05 196.27
  Q 241.82 194.12 239.42 192.81"
/>
<path stroke="#808080" vector-effect="non-scaling-stroke" d="
  M 250.48 188.52
  A 1.01 1.00 7.9 0 1 251.20 189.47
  L 251.28 197.12
  A 0.98 0.98 0.0 0 0 251.71 197.93
  C 254.53 199.85 250.54 188.55 255.88 188.30
  A 1.05 1.05 0.0 0 0 256.63 187.91
  C 257.85 186.32 255.31 186.78 254.64 186.76
  C 254.16 186.74 242.94 186.29 250.48 188.52"
/>
<path stroke="#808080" vector-effect="non-scaling-stroke" d="
  M 213.46 243.60
  Q 210.76 242.09 210.75 245.29
  L 210.75 249.95
  A 1.02 0.98 -64.0 0 0 210.94 250.54
  C 214.32 255.23 220.90 247.76 213.46 243.60"
/>
<path stroke="#808080" vector-effect="non-scaling-stroke" d="
  M 284.84 244.13
  L 284.69 251.28
  A 1.00 1.00 0.0 0 0 285.86 252.28
  Q 291.95 251.27 291.08 245.84
  A 1.01 1.01 0.0 0 0 290.49 245.08
  L 286.24 243.23
  A 1.00 1.00 0.0 0 0 284.84 244.13"
/>
<path stroke="#808080" vector-effect="non-scaling-stroke" d="
  M 185.07 246.14
  Q 185.22 246.04 185.42 245.96
  A 1.00 1.00 0.0 0 0 185.99 245.39
  Q 186.65 243.67 183.58 243.58
  A 1.00 0.99 -87.1 0 0 182.55 244.52
  L 182.14 251.45
  A 1.01 1.00 2.2 0 0 183.13 252.51
  Q 186.00 252.54 187.94 250.75
  A 1.01 1.00 64.5 0 0 188.25 249.86
  Q 187.84 247.22 185.44 247.31
  Q 183.10 247.41 185.07 246.14"
/>
<path stroke="#808080" vector-effect="non-scaling-stroke" d="
  M 203.25 247.79
  A 4.04 4.04 0.0 0 0 199.21 243.75
  A 4.04 4.04 0.0 0 0 195.17 247.79
  A 4.04 4.04 0.0 0 0 199.21 251.83
  A 4.04 4.04 0.0 0 0 203.25 247.79"
/>
<path stroke="#808080" vector-effect="non-scaling-stroke" d="
  M 215.8088 300.7399
  A 14.67 13.28 90.2 0 0 229.1399 286.1164
  A 14.67 13.28 90.2 0 0 215.9112 271.4001
  A 14.67 13.28 90.2 0 0 202.5801 286.0236
  A 14.67 13.28 90.2 0 0 215.8088 300.7399"
/>
<path stroke="#808080" vector-effect="non-scaling-stroke" d="
  M 299.6300 300.8000
  A 14.70 13.26 90.0 0 0 312.8900 286.1000
  A 14.70 13.26 90.0 0 0 299.6300 271.4000
  A 14.70 13.26 90.0 0 0 286.3700 286.1000
  A 14.70 13.26 90.0 0 0 299.6300 300.8000"
/>
<path stroke="#808080" vector-effect="non-scaling-stroke" d="
  M 184.8476 329.4496
  A 4.47 3.14 90.8 0 0 188.0497 325.0238
  A 4.47 3.14 90.8 0 0 184.9724 320.5104
  A 4.47 3.14 90.8 0 0 181.7703 324.9362
  A 4.47 3.14 90.8 0 0 184.8476 329.4496"
/>
<path stroke="#808080" vector-effect="non-scaling-stroke" d="
  M 275.9190 322.9491
  A 2.19 1.53 21.4 0 0 274.4383 320.7255
  A 2.19 1.53 21.4 0 0 271.8410 321.3509
  A 2.19 1.53 21.4 0 0 273.3217 323.5745
  A 2.19 1.53 21.4 0 0 275.9190 322.9491"
/>
<path stroke="#808080" vector-effect="non-scaling-stroke" d="
  M 276.5012 326.5055
  A 2.43 2.05 -11.5 0 0 273.7113 324.9812
  A 2.43 2.05 -11.5 0 0 271.7388 327.4745
  A 2.43 2.05 -11.5 0 0 274.5287 328.9988
  A 2.43 2.05 -11.5 0 0 276.5012 326.5055"
/>
<path stroke="#808080" vector-effect="non-scaling-stroke" d="
  M 299.80 323.50
  C 305.92 324.43 301.15 318.13 299.06 322.04
  A 1.00 1.00 0.0 0 0 299.80 323.50"
/>
<path stroke="#808080" vector-effect="non-scaling-stroke" d="
  M 303.3110 326.8807
  A 2.45 2.07 -4.9 0 0 300.6932 325.0276
  A 2.45 2.07 -4.9 0 0 298.4290 327.2993
  A 2.45 2.07 -4.9 0 0 301.0468 329.1524
  A 2.45 2.07 -4.9 0 0 303.3110 326.8807"
/>
<path stroke="#808080" vector-effect="non-scaling-stroke" d="
  M 289.4485 322.0721
  A 2.03 1.50 -2.2 0 0 287.3624 320.6511
  A 2.03 1.50 -2.2 0 0 285.3915 322.2279
  A 2.03 1.50 -2.2 0 0 287.4776 323.6489
  A 2.03 1.50 -2.2 0 0 289.4485 322.0721"
/>
<path stroke="#808080" vector-effect="non-scaling-stroke" d="
  M 289.9701 326.7242
  A 2.52 2.02 -7.2 0 0 287.2168 325.0359
  A 2.52 2.02 -7.2 0 0 284.9699 327.3558
  A 2.52 2.02 -7.2 0 0 287.7232 329.0441
  A 2.52 2.02 -7.2 0 0 289.9701 326.7242"
/>
</g>
<g fill="#ffffff">
<path d="
  M 0.00 0.00
  L 500.00 0.00
  L 500.00 500.00
  L 0.00 500.00
  L 0.00 0.00
  Z
  M 247.57 166.44
  C 250.10 166.07 245.72 164.40 244.86 163.63
  A 0.99 0.99 0.0 0 0 243.45 163.70
  L 243.26 163.91
  Q 242.30 164.97 243.73 164.98
  Q 245.45 164.98 246.75 166.19
  A 1.00 1.00 0.0 0 0 247.57 166.44
  Z
  M 266.73 182.15
  Q 265.71 177.59 262.30 174.38
  A 1.06 1.01 -20.9 0 0 261.65 174.11
  Q 257.65 173.96 258.07 176.05
  A 1.00 0.99 -12.8 0 0 259.30 176.82
  L 261.67 176.20
  A 1.00 0.99 -9.1 0 1 262.92 177.10
  L 263.49 186.35
  A 1.00 0.97 19.0 0 0 263.85 187.06
  Q 266.75 189.47 270.60 189.65
  A 0.99 0.97 -19.7 0 1 271.27 189.96
  L 281.13 200.31
  A 1.02 0.98 29.9 0 1 281.39 201.21
  Q 279.94 207.95 285.35 211.97
  A 1.00 1.00 0.0 0 1 285.52 213.41
  L 281.28 218.47
  A 1.01 0.99 29.3 0 1 280.18 218.77
  Q 278.01 217.99 275.70 217.96
  Q 271.93 217.91 275.19 219.83
  L 279.70 222.48
  A 0.99 0.99 0.0 0 0 280.81 222.41
  C 286.28 218.28 290.13 216.07 292.37 210.88
  A 0.99 0.99 0.0 0 0 292.10 209.72
  L 290.66 208.51
  A 1.01 1.00 43.6 0 1 290.62 207.01
  L 293.91 203.93
  A 1.01 1.01 0.0 0 1 294.88 203.70
  C 301.99 205.81 306.38 198.58 301.34 193.17
  Q 297.85 189.42 296.45 186.46
  A 0.41 0.41 0.0 0 0 295.76 186.38
  C 295.53 186.67 300.94 197.47 301.53 198.96
  A 0.98 0.97 -43.1 0 1 301.50 199.75
  C 299.59 203.80 295.81 202.56 293.40 200.04
  Q 288.99 195.41 284.60 190.77
  A 1.01 1.00 47.4 0 1 284.65 189.34
  Q 294.91 180.00 289.36 166.87
  A 1.02 1.02 0.0 0 0 288.83 166.34
  L 283.83 164.21
  A 1.00 0.99 -52.6 0 0 282.81 164.35
  Q 281.15 165.69 280.92 167.68
  A 0.99 0.98 -82.3 0 1 279.78 168.55
  L 276.21 167.99
  A 1.01 1.00 24.4 0 0 275.30 168.33
  Q 273.93 169.91 274.75 171.96
  A 1.00 0.98 57.0 0 1 274.53 173.04
  Q 274.08 173.49 273.55 173.79
  Q 270.11 175.78 273.89 174.54
  Q 275.37 174.05 276.30 172.54
  A 1.01 1.01 0.0 0 1 277.70 172.22
  L 278.35 172.65
  A 1.01 1.01 0.0 0 1 278.51 174.21
  L 276.26 176.40
  Q 275.17 177.46 276.69 177.50
  Q 277.01 177.51 277.33 177.43
  C 278.27 177.21 281.54 177.14 279.02 179.01
  Q 276.69 180.75 271.15 181.44
  A 1.04 1.02 -69.8 0 0 270.56 181.72
  Q 269.32 182.96 267.69 182.93
  A 1.01 1.00 -5.5 0 1 266.73 182.15
  Z
  M 209.87 174.48
  Q 209.17 172.37 210.99 171.97
  A 1.01 1.00 65.2 0 1 212.01 172.35
  C 212.67 173.25 214.52 175.58 215.35 174.88
  Q 215.92 174.40 215.21 174.17
  C 211.16 172.89 217.39 165.36 208.99 168.93
  A 1.00 1.00 0.0 0 1 207.66 168.36
  L 206.29 164.71
  A 1.00 1.00 0.0 0 0 205.01 164.12
  L 198.13 166.64
  A 0.99 0.99 0.0 0 0 197.54 167.92
  C 198.41 170.27 197.32 172.50 197.21 174.33
  Q 196.60 183.77 203.85 189.24
  A 1.01 1.00 -49.9 0 1 203.97 190.73
  L 193.51 201.70
  A 1.06 1.06 0.0 0 1 192.91 202.00
  C 181.35 203.43 191.38 190.09 193.19 187.08
  C 193.24 187.00 193.38 186.26 192.95 186.69
  C 190.26 189.45 185.19 194.79 185.47 198.88
  Q 185.96 205.87 193.70 203.79
  A 1.01 1.01 0.0 0 1 194.68 204.06
  L 197.73 207.16
  A 1.00 1.00 0.0 0 1 197.75 208.55
  L 196.42 209.96
  A 0.98 0.98 0.0 0 0 196.25 211.08
  C 198.58 215.85 203.59 219.25 207.60 222.17
  A 1.02 1.00 -34.5 0 0 208.46 222.32
  Q 210.78 221.68 212.71 220.30
  Q 215.07 218.60 212.16 218.49
  L 207.77 218.31
  A 0.98 0.97 -20.2 0 1 207.07 217.99
  L 203.02 213.56
  A 1.00 1.00 0.0 0 1 203.17 212.08
  Q 208.34 208.28 206.90 202.03
  A 1.02 1.02 0.0 0 1 207.06 201.22
  C 211.78 194.62 215.75 190.56 224.11 188.14
  A 1.01 0.99 -6.7 0 0 224.83 187.24
  L 225.39 177.79
  A 1.00 1.00 0.0 0 1 226.25 176.86
  L 229.08 176.47
  Q 231.92 176.07 229.45 174.62
  Q 226.07 172.62 224.12 176.84
  Q 222.87 179.56 221.41 182.61
  A 0.99 0.99 0.0 0 1 220.01 183.05
  Q 215.63 180.49 210.61 180.03
  A 1.01 0.99 74.1 0 1 209.89 179.62
  Q 207.05 175.73 211.57 177.67
  A 1.00 0.96 -42.3 0 0 212.31 177.69
  C 214.34 176.94 211.34 175.48 210.42 175.09
  A 1.01 1.00 -87.4 0 1 209.87 174.48
  Z
  M 244.48 172.91
  Q 245.98 173.97 246.05 172.13
  Q 246.14 169.61 244.88 167.88
  A 1.00 1.00 0.0 0 0 243.24 167.91
  Q 241.37 170.73 244.48 172.91
  Z
  M 252.1209 172.3902
  A 1.62 0.75 101.0 0 0 253.1662 170.9431
  A 1.62 0.75 101.0 0 0 252.7391 169.2098
  A 1.62 0.75 101.0 0 0 251.6938 170.6569
  A 1.62 0.75 101.0 0 0 252.1209 172.3902
  Z
  M 238.83 170.24
  C 236.20 171.47 242.88 173.40 239.97 170.44
  A 1.01 1.01 0.0 0 0 238.83 170.24
  Z
  M 249.3235 172.2292
  A 1.15 1.03 74.7 0 0 250.0135 170.8482
  A 1.15 1.03 74.7 0 0 248.7165 170.0108
  A 1.15 1.03 74.7 0 0 248.0265 171.3918
  A 1.15 1.03 74.7 0 0 249.3235 172.2292
  Z
  M 252.6396 175.7464
  A 0.79 0.79 0.0 0 0 251.8454 174.9605
  L 236.7657 175.0395
  A 0.79 0.79 0.0 0 0 235.9798 175.8336
  L 235.9804 175.9536
  A 0.79 0.79 0.0 0 0 236.7746 176.7395
  L 251.8543 176.6605
  A 0.79 0.79 0.0 0 0 252.6402 175.8664
  L 252.6396 175.7464
  Z
  M 190.1840 182.5591
  A 3.05 0.98 45.6 0 0 188.7502 179.6943
  A 3.05 0.98 45.6 0 0 185.9160 178.2009
  A 3.05 0.98 45.6 0 0 187.3498 181.0657
  A 3.05 0.98 45.6 0 0 190.1840 182.5591
  Z
  M 227.73 208.57
  C 229.04 219.12 237.20 225.40 247.83 223.59
  C 258.62 221.75 261.26 212.62 261.32 203.00
  Q 261.40 191.03 260.66 179.20
  A 0.99 0.99 0.0 0 0 259.67 178.26
  L 228.57 178.25
  A 1.00 0.99 1.2 0 0 227.57 179.20
  Q 227.38 183.23 227.54 187.24
  C 227.82 194.45 226.82 201.30 227.73 208.57
  Z
  M 299.73 179.68
  Q 299.10 180.41 298.55 181.20
  Q 295.05 186.18 299.72 182.27
  L 302.13 180.25
  Q 304.20 178.51 301.50 178.48
  Q 300.58 178.47 300.10 179.17
  Q 299.80 179.60 299.73 179.68
  Z
  M 265.63 191.73
  L 264.66 190.48
  A 0.64 0.63 -18.9 0 0 264.16 190.24
  C 262.20 190.22 263.67 195.91 263.83 196.25
  A 0.99 0.99 0.0 0 0 265.00 196.78
  L 271.42 194.94
  A 1.00 1.00 0.0 0 0 271.87 193.29
  Q 269.67 191.00 266.76 192.06
  A 1.02 1.01 61.1 0 1 265.63 191.73
  Z
  M 221.40 192.07
  Q 218.40 190.98 216.72 193.52
  A 1.00 1.00 0.0 0 0 217.27 195.04
  L 223.42 196.82
  A 1.00 1.00 0.0 0 0 224.57 196.35
  Q 225.84 194.11 225.46 191.58
  A 1.00 1.00 0.0 0 0 223.92 190.89
  L 222.29 191.96
  A 1.00 0.99 -51.7 0 1 221.40 192.07
  Z
  M 218.96 212.93
  L 213.97 208.93
  A 1.00 0.99 -55.9 0 1 213.73 207.66
  Q 216.02 203.62 214.36 199.16
  A 1.01 1.00 71.5 0 0 213.14 198.55
  C 208.96 199.78 210.38 202.91 209.71 205.67
  Q 209.07 208.28 208.14 210.49
  A 1.00 1.00 0.0 0 0 208.88 211.86
  Q 212.05 212.46 214.93 213.81
  C 216.33 214.46 217.34 215.77 219.09 216.25
  A 1.02 1.00 35.0 0 0 219.92 216.11
  L 223.82 213.44
  Q 228.59 210.18 223.00 211.65
  Q 221.49 212.05 220.15 212.97
  A 1.00 1.00 0.0 0 1 218.96 212.93
  Z
  M 273.19 201.46
  A 4.65 2.01 -67.0 0 0 273.21 204.26
  L 274.78 207.74
  A 1.00 1.00 0.0 0 1 274.48 208.94
  L 269.32 212.95
  A 1.01 1.01 0.0 0 1 268.06 212.92
  Q 266.70 211.78 265.05 211.70
  Q 261.54 211.54 264.43 213.53
  Q 266.84 215.18 269.61 216.12
  A 0.99 0.99 0.0 0 0 270.62 215.90
  Q 274.39 212.35 279.70 212.08
  A 1.00 1.00 0.0 0 0 280.52 210.60
  Q 278.15 206.23 278.89 201.33
  A 0.99 0.99 0.0 0 0 278.42 200.33
  Q 274.07 197.69 273.19 201.46
  Z
  M 238.57 225.15
  Q 230.86 222.82 226.95 215.67
  A 1.00 1.00 0.0 0 0 225.56 215.29
  L 210.61 224.25
  A 0.80 0.80 0.0 0 0 210.23 224.81
  Q 210.08 225.70 211.00 225.74
  Q 222.61 226.23 238.50 225.95
  A 0.57 0.54 20.0 0 0 238.87 225.79
  Q 239.26 225.36 238.57 225.15
  Z
  M 261.56 215.72
  Q 258.00 221.40 252.75 224.20
  C 251.39 224.93 251.48 225.76 253.00 225.76
  Q 265.06 225.74 277.10 225.75
  C 278.44 225.75 278.45 224.70 277.48 224.08
  Q 270.50 219.68 262.90 215.38
  A 1.00 1.00 0.0 0 0 261.56 215.72
  Z
  M 299.66 248.74
  L 302.39 248.45
  A 0.81 0.81 0.0 0 0 302.98 248.09
  C 304.41 245.85 297.49 249.80 298.98 244.21
  A 1.00 1.00 0.0 0 1 300.01 243.47
  L 303.11 243.67
  A 0.99 0.97 25.0 0 0 303.85 243.41
  C 306.21 241.24 298.66 242.51 298.39 242.54
  A 1.00 1.00 0.0 0 0 297.50 243.53
  L 297.50 251.50
  A 1.01 1.00 10.8 0 0 298.14 252.43
  C 298.72 252.66 305.48 254.31 304.77 252.48
  A 0.64 0.63 82.4 0 0 304.24 252.07
  C 302.89 251.94 301.13 252.24 300.04 251.69
  Q 298.90 251.11 298.77 249.83
  A 1.01 0.99 -6.1 0 1 299.66 248.74
  Z
  M 217.29 244.09
  Q 213.60 240.98 210.01 242.96
  A 1.01 1.00 -14.7 0 0 209.49 243.84
  L 209.50 251.65
  A 0.97 0.97 0.0 0 0 209.83 252.38
  C 214.81 256.91 219.71 249.99 217.57 244.50
  Q 217.48 244.26 217.29 244.09
  Z
  M 225.01 244.07
  A 1.00 0.99 -71.7 0 1 226.29 243.42
  Q 228.09 244.04 229.72 243.46
  Q 232.56 242.45 229.55 242.22
  Q 226.76 242.01 224.11 242.86
  A 1.00 0.99 81.1 0 0 223.41 243.83
  L 223.59 251.98
  A 1.01 1.00 -80.4 0 0 224.23 252.89
  Q 227.07 253.99 230.02 253.19
  A 1.01 1.01 0.0 0 0 230.68 252.61
  C 231.36 251.01 227.36 252.14 226.89 252.21
  A 0.97 0.94 54.2 0 1 226.28 252.10
  Q 224.15 250.97 225.41 249.01
  A 0.99 0.98 14.3 0 1 226.19 248.55
  L 228.88 248.39
  A 0.83 0.79 -71.1 0 0 229.46 248.09
  C 231.01 246.15 223.38 249.26 225.01 244.07
  Z
  M 241.61 247.60
  A 0.26 0.26 0.0 0 0 241.30 247.82
  L 241.26 248.09
  A 0.79 0.78 -75.6 0 0 241.76 248.95
  C 245.24 250.27 243.54 252.24 241.08 252.05
  C 233.78 251.47 236.37 241.33 243.44 244.27
  Q 244.77 244.82 244.08 243.55
  Q 243.90 243.22 243.41 243.01
  Q 238.44 240.91 235.27 245.59
  A 1.04 1.03 59.5 0 0 235.10 246.25
  Q 235.72 252.10 241.54 254.01
  A 0.98 0.96 35.1 0 0 242.45 253.86
  Q 248.76 249.15 241.61 247.60
  Z
  M 283.32 243.17
  L 283.55 251.79
  A 1.00 0.99 14.2 0 0 284.06 252.64
  C 289.49 255.64 293.82 249.58 293.04 244.48
  A 1.01 0.99 1.8 0 0 292.24 243.65
  L 284.51 242.16
  A 1.00 1.00 0.0 0 0 283.32 243.17
  Z
  M 187.29 245.47
  C 187.96 242.17 183.72 241.92 181.78 242.95
  A 1.02 1.01 -14.5 0 0 181.25 243.84
  L 181.25 251.68
  A 1.01 1.00 -88.5 0 0 182.19 252.68
  L 186.87 253.00
  A 0.96 0.96 0.0 0 0 187.56 252.78
  Q 191.46 249.62 187.63 246.43
  A 1.01 1.01 0.0 0 1 187.29 245.47
  Z
  M 204.60 247.85
  A 5.36 5.36 0.0 0 0 199.24 242.49
  A 5.36 5.36 0.0 0 0 193.88 247.85
  A 5.36 5.36 0.0 0 0 199.24 253.21
  A 5.36 5.36 0.0 0 0 204.60 247.85
  Z
  M 265.12 245.81
  C 263.90 243.07 267.99 243.77 269.76 244.01
  A 0.62 0.61 29.5 0 0 270.24 243.88
  Q 270.76 243.47 270.17 243.18
  Q 265.33 240.84 263.32 245.20
  A 0.99 0.99 0.0 0 0 263.54 246.34
  Q 265.40 248.13 268.05 248.49
  A 0.95 0.94 70.7 0 1 268.60 248.76
  C 271.48 251.48 267.25 252.74 265.05 251.86
  C 264.52 251.65 263.82 251.83 264.04 252.51
  A 0.63 0.62 -88.0 0 0 264.40 252.90
  C 266.71 253.89 272.08 253.07 271.13 249.74
  C 270.62 247.97 267.27 246.98 265.66 246.33
  A 1.03 1.00 88.1 0 1 265.12 245.81
  Z
  M 253.92 245.71
  Q 255.19 245.23 255.35 246.76
  Q 255.69 249.88 257.81 251.98
  Q 260.35 254.51 258.84 251.26
  L 255.80 244.72
  Q 254.38 241.67 252.88 244.94
  Q 251.31 248.34 250.03 251.73
  C 249.33 253.61 250.87 252.54 251.14 252.10
  Q 252.61 249.69 253.42 246.27
  A 0.81 0.80 -3.7 0 1 253.92 245.71
  Z
  M 74.67 297.12
  Q 68.86 302.61 61.42 300.94
  C 59.74 300.57 58.54 301.18 58.99 303.05
  A 1.00 0.99 -89.6 0 0 59.70 303.78
  C 66.55 305.65 79.97 304.15 78.73 293.78
  C 78.15 288.87 71.59 284.47 67.19 282.20
  C 57.13 277.02 61.87 269.02 71.34 270.60
  C 72.87 270.86 74.84 270.65 74.29 268.58
  A 1.01 1.01 0.0 0 0 73.47 267.84
  Q 67.81 267.04 63.27 268.25
  C 56.60 270.03 55.70 277.33 58.47 282.84
  A 1.04 1.02 -0.6 0 0 58.95 283.30
  C 64.58 285.86 74.37 289.26 74.98 296.31
  A 1.00 1.00 0.0 0 1 74.67 297.12
  Z
  M 408.93 283.05
  C 413.10 285.24 420.37 288.11 423.30 291.28
  C 427.76 296.10 421.33 301.57 416.51 301.32
  Q 413.43 301.15 410.28 301.01
  A 1.00 1.00 0.0 0 0 409.26 301.78
  C 408.34 305.65 418.21 304.27 421.73 303.71
  C 429.28 302.51 429.96 294.45 428.03 288.62
  A 1.04 1.03 -85.3 0 0 427.56 288.06
  L 412.77 279.93
  A 1.02 1.00 8.3 0 1 412.27 279.27
  C 410.41 270.83 416.95 270.11 423.02 270.75
  A 0.98 0.96 27.3 0 0 423.77 270.52
  Q 425.02 269.48 424.52 268.19
  A 1.00 1.00 0.0 0 0 423.67 267.56
  C 413.37 266.69 403.80 269.67 408.46 282.50
  A 1.01 0.98 -86.3 0 0 408.93 283.05
  Z
  M 439.95 270.14
  Q 442.96 275.10 440.93 268.29
  A 1.01 1.00 -6.3 0 0 440.04 267.58
  Q 437.92 267.43 437.31 269.15
  Q 436.54 271.32 438.49 270.10
  L 438.84 269.88
  A 0.81 0.80 57.9 0 1 439.95 270.14
  Z
  M 134.70 276.38
  A 1.00 0.99 68.2 0 1 135.55 276.75
  Q 146.93 290.68 156.43 302.32
  Q 158.33 304.65 160.74 303.27
  A 1.01 1.00 -15.0 0 0 161.25 302.40
  Q 161.25 286.67 161.26 270.93
  C 161.26 268.82 159.76 267.07 157.85 269.05
  A 0.97 0.95 67.8 0 0 157.57 269.73
  L 157.34 294.48
  Q 157.31 297.20 155.57 295.11
  Q 144.89 282.31 134.25 269.51
  Q 131.76 266.50 130.24 268.54
  Q 129.36 269.71 129.37 271.75
  L 129.55 302.26
  A 0.99 0.99 0.0 0 0 129.84 302.96
  Q 131.79 304.91 133.41 302.54
  A 1.05 1.01 -29.8 0 0 133.59 301.93
  C 133.31 294.43 133.49 286.88 133.16 279.41
  Q 133.03 276.52 134.70 276.38
  Z
  M 234.02 286.12
  A 18.15 18.15 0.0 0 0 215.87 267.97
  A 18.15 18.15 0.0 0 0 197.72 286.12
  A 18.15 18.15 0.0 0 0 215.87 304.27
  A 18.15 18.15 0.0 0 0 234.02 286.12
  Z
  M 317.75 286.08
  A 18.14 18.14 0.0 0 0 299.61 267.94
  A 18.14 18.14 0.0 0 0 281.47 286.08
  A 18.14 18.14 0.0 0 0 299.61 304.22
  A 18.14 18.14 0.0 0 0 317.75 286.08
  Z
  M 328.18 276.51
  C 329.01 276.36 339.02 294.30 340.17 296.34
  Q 341.77 299.15 343.38 296.34
  C 344.34 294.66 353.97 276.74 355.07 277.88
  A 0.63 0.61 -68.1 0 1 355.25 278.32
  L 355.25 302.27
  A 1.02 0.99 22.1 0 0 355.57 303.00
  Q 357.45 304.76 359.03 302.76
  A 0.99 0.98 64.8 0 0 359.25 302.14
  L 359.25 269.68
  A 0.99 0.99 0.0 0 0 358.96 268.98
  C 356.86 266.86 355.11 268.42 353.93 270.51
  Q 348.68 279.82 343.33 289.09
  C 341.46 292.32 340.57 289.88 339.60 288.21
  Q 334.45 279.25 329.38 270.22
  C 328.27 268.23 326.75 267.41 324.71 268.73
  A 1.02 1.00 -16.9 0 0 324.25 269.57
  L 324.25 302.59
  A 1.00 0.99 -77.3 0 0 324.81 303.49
  Q 326.31 304.22 327.81 303.38
  A 1.00 0.99 75.1 0 0 328.32 302.49
  L 327.96 276.77
  A 0.27 0.26 -5.2 0 1 328.18 276.51
  Z
  M 431.62 269.62
  L 431.46 269.39
  Q 429.80 266.98 430.55 269.81
  Q 430.73 270.49 431.12 271.50
  A 1.00 1.00 0.0 0 0 432.80 271.80
  L 434.91 269.40
  A 0.81 0.80 41.2 0 0 434.83 268.27
  C 434.40 267.89 434.11 268.13 433.88 268.60
  Q 433.61 269.15 433.25 269.64
  A 1.00 1.00 0.0 0 1 431.62 269.62
  Z
  M 264.56 271.74
  A 0.44 0.44 0.0 0 1 265.00 272.18
  L 265.00 303.31
  A 0.44 0.44 0.0 0 0 265.44 303.75
  L 268.73 303.75
  A 0.44 0.44 0.0 0 0 269.17 303.31
  L 269.46 272.19
  A 0.44 0.44 0.0 0 1 269.90 271.75
  L 282.59 271.75
  A 0.44 0.44 0.0 0 0 282.98 271.11
  L 281.62 268.49
  A 0.44 0.44 0.0 0 0 281.23 268.25
  L 253.36 268.25
  A 0.44 0.44 0.0 0 0 252.97 268.48
  L 251.54 271.12
  A 0.44 0.44 0.0 0 0 251.92 271.77
  L 264.56 271.74
  Z
  M 103.34 274.53
  A 1.01 1.00 58.2 0 1 104.87 274.89
  L 117.97 302.82
  A 1.01 0.99 88.9 0 0 118.47 303.31
  C 122.53 305.16 121.89 301.54 120.92 299.49
  Q 114.28 285.49 107.70 271.45
  C 105.52 266.79 101.81 267.74 99.84 271.94
  Q 93.27 285.88 86.79 299.89
  C 85.92 301.79 84.99 304.89 88.83 303.87
  A 1.02 1.00 5.0 0 0 89.48 303.34
  Q 96.28 289.44 102.63 275.35
  C 102.74 275.11 103.14 274.69 103.34 274.53
  Z
  M 389.46 274.11
  L 388.29 270.39
  Q 388.21 270.15 388.03 269.97
  C 385.11 267.18 382.28 268.48 380.70 271.88
  Q 374.42 285.43 368.03 298.93
  C 367.13 300.82 365.09 305.26 370.26 303.28
  A 1.04 1.00 1.1 0 0 370.81 302.77
  L 383.72 275.02
  A 1.00 1.00 0.0 0 1 385.32 274.72
  C 389.92 279.12 385.70 284.45 384.54 288.49
  Q 383.41 292.43 386.85 291.20
  A 1.02 1.00 -86.9 0 0 387.43 290.67
  L 389.31 286.47
  Q 390.19 284.51 391.12 286.44
  Q 394.68 293.76 397.99 301.15
  C 398.93 303.26 400.71 305.35 402.75 302.62
  A 1.01 0.99 51.0 0 0 402.85 301.59
  L 392.73 280.24
  A 1.01 0.99 -44.7 0 1 392.74 279.38
  L 396.47 271.62
  A 1.01 1.01 0.0 0 0 396.45 270.71
  Q 395.38 268.74 393.54 269.53
  A 1.08 1.04 -87.7 0 0 393.04 270.01
  L 390.94 274.22
  Q 390.06 275.99 389.46 274.11
  Z
  M 179.51 271.76
  Q 181.85 271.76 181.82 274.00
  L 181.42 302.15
  A 0.98 0.98 0.0 0 0 181.67 302.83
  Q 183.49 304.85 185.42 302.72
  A 1.02 0.99 -24.8 0 0 185.68 302.05
  L 185.78 273.03
  A 1.00 0.99 -2.9 0 1 186.68 272.04
  Q 191.46 271.55 196.24 271.73
  C 197.63 271.79 198.99 270.85 198.38 269.37
  A 0.99 0.99 0.0 0 0 197.46 268.75
  L 169.66 268.75
  A 1.00 0.99 7.0 0 0 168.69 269.50
  L 168.44 270.50
  A 1.01 1.00 -83.0 0 0 169.41 271.75
  L 179.51 271.76
  Z
  M 197.29 327.85
  Q 197.28 324.45 201.20 325.87
  Q 202.08 326.19 201.87 325.27
  L 201.79 324.91
  A 0.99 0.99 0.0 0 0 200.44 324.21
  Q 196.40 325.86 197.14 321.71
  A 1.01 1.01 0.0 0 1 197.96 320.90
  C 198.19 320.86 204.70 321.02 202.68 319.49
  A 0.99 0.96 60.8 0 0 202.01 319.29
  L 198.00 319.58
  Q 195.93 319.72 196.03 321.99
  L 196.31 328.94
  A 0.99 0.99 0.0 0 0 197.17 329.89
  L 202.33 330.58
  A 0.80 0.80 0.0 0 0 203.21 329.57
  C 202.93 328.56 199.48 329.16 198.05 328.81
  A 0.99 0.99 0.0 0 1 197.29 327.85
  Z
  M 225.00 319.75
  C 222.15 318.82 222.93 325.91 223.04 328.76
  A 0.99 0.97 18.4 0 0 223.43 329.52
  C 225.25 330.90 227.32 330.93 229.20 329.49
  C 234.43 325.52 230.37 317.25 225.00 319.75
  Z
  M 181.93 329.84
  Q 190.91 331.56 190.05 321.20
  A 1.00 0.99 1.1 0 0 189.18 320.30
  L 182.33 319.41
  A 1.01 1.00 -86.2 0 0 181.21 320.40
  L 181.12 328.85
  A 1.00 0.99 -84.5 0 0 181.93 329.84
  Z
  M 214.42 328.94
  L 210.09 328.87
  A 0.64 0.63 -85.4 0 0 209.45 329.42
  C 209.04 332.14 219.66 330.33 216.16 325.52
  A 1.00 0.98 81.0 0 0 215.70 325.18
  C 214.48 324.71 210.23 323.68 211.00 321.89
  C 211.77 320.09 214.35 320.64 215.60 321.48
  A 0.33 0.33 0.0 0 0 216.10 321.31
  L 216.21 320.97
  A 0.64 0.64 0.0 0 0 215.82 320.18
  C 212.82 319.05 207.32 319.66 210.01 324.35
  A 1.02 1.02 0.0 0 0 210.62 324.82
  C 212.75 325.39 216.39 325.88 215.36 328.33
  A 1.01 0.99 11.7 0 1 214.42 328.94
  Z
  M 239.18 330.18
  L 244.45 330.55
  Q 245.92 330.65 245.20 329.36
  Q 244.59 328.26 243.00 329.07
  Q 242.86 329.14 242.69 329.17
  Q 239.11 329.69 239.78 326.58
  A 1.00 1.00 0.0 0 1 240.63 325.80
  Q 241.66 325.66 242.76 325.76
  C 244.33 325.91 243.01 324.81 242.53 324.79
  Q 238.88 324.59 239.71 321.49
  A 1.00 1.00 0.0 0 1 240.60 320.76
  C 241.31 320.70 245.41 321.45 244.89 319.98
  A 0.81 0.80 78.9 0 0 244.11 319.45
  L 239.21 319.62
  A 1.00 1.00 0.0 0 0 238.25 320.62
  L 238.25 329.18
  A 1.01 1.00 2.2 0 0 239.18 330.18
  Z
  M 271.69 329.56
  Q 276.38 332.15 277.82 327.15
  A 0.96 0.96 0.0 0 0 277.73 326.39
  Q 276.50 324.17 277.21 321.51
  A 1.01 1.00 22.8 0 0 276.74 320.38
  Q 273.28 318.43 271.06 320.60
  A 1.00 0.99 -28.6 0 0 270.78 321.53
  C 271.42 324.34 268.79 327.96 271.69 329.56
  Z
  M 297.85 324.49
  Q 296.78 326.43 297.41 329.06
  A 1.01 1.01 0.0 0 0 298.24 329.82
  Q 306.77 331.07 303.85 324.08
  A 1.02 1.01 49.6 0 1 303.92 323.16
  C 305.58 320.52 300.20 317.84 297.56 321.33
  C 297.00 322.08 297.11 322.69 297.71 323.32
  A 1.00 0.99 -52.1 0 1 297.85 324.49
  Z
  M 263.28 329.40
  L 263.24 320.85
  A 1.02 1.01 -85.6 0 0 262.40 319.86
  Q 259.02 319.32 261.61 322.09
  A 1.00 0.98 -69.8 0 1 261.88 322.69
  Q 262.05 324.87 261.98 328.50
  Q 261.97 329.24 262.38 329.74
  Q 263.29 330.83 263.28 329.40
  Z
  M 283.91 329.56
  Q 286.69 330.44 289.52 329.77
  Q 293.13 328.91 291.09 325.92
  Q 289.85 324.10 290.78 322.21
  A 0.99 0.98 -56.1 0 0 290.55 321.03
  Q 287.62 318.38 284.37 320.67
  A 1.00 0.97 -23.2 0 0 283.96 321.66
  Q 284.56 325.03 283.29 328.23
  A 1.01 1.00 -70.1 0 0 283.91 329.56
  Z
  M 161.5001 325.3196
  A 0.80 0.80 0.0 0 0 160.7015 324.5182
  L 139.8016 324.4818
  A 0.80 0.80 0.0 0 0 139.0002 325.2804
  L 138.9999 325.4404
  A 0.80 0.80 0.0 0 0 139.7985 326.2418
  L 160.6984 326.2782
  A 0.80 0.80 0.0 0 0 161.4998 325.4796
  L 161.5001 325.3196
  Z
  M 346.8606 325.2290
  A 0.44 0.44 0.0 0 0 346.4222 324.7874
  L 324.9823 324.7126
  A 0.44 0.44 0.0 0 0 324.5408 325.1510
  L 324.5394 325.5510
  A 0.44 0.44 0.0 0 0 324.9778 325.9926
  L 346.4177 326.0674
  A 0.44 0.44 0.0 0 0 346.8592 325.6290
  L 346.8606 325.2290
  Z"
/>
<path d="
  M 238.33 205.56
  L 237.95 207.32
  A 1.29 1.29 0.0 0 1 237.35 208.16
  L 231.32 211.80
  A 1.29 1.29 0.0 0 1 229.36 210.70
  L 229.14 181.30
  A 1.29 1.29 0.0 0 1 230.43 180.00
  L 241.96 180.00
  A 1.29 1.29 0.0 0 1 243.25 181.29
  L 243.24 202.95
  A 1.29 1.29 0.0 0 1 242.11 204.23
  L 239.43 204.55
  A 1.29 1.29 0.0 0 0 238.33 205.56
  Z
  M 239.42 192.81
  L 234.82 190.30
  Q 232.88 189.24 234.96 188.48
  C 235.51 188.28 239.40 187.56 238.27 186.45
  A 0.79 0.77 67.0 0 0 237.72 186.22
  Q 234.78 186.17 232.23 187.77
  A 1.01 0.99 60.2 0 0 231.88 189.09
  Q 233.58 192.28 236.98 193.55
  A 0.98 0.98 0.0 0 1 237.58 194.19
  Q 238.69 197.71 234.20 196.57
  A 0.65 0.65 0.0 0 0 233.42 197.05
  L 233.35 197.34
  A 0.80 0.79 13.3 0 0 233.95 198.30
  Q 237.67 199.17 240.05 196.27
  Q 241.82 194.12 239.42 192.81
  Z"
/>
<path d="
  M 248.90 204.66
  Q 247.19 204.83 245.64 204.26
  A 1.00 0.99 -80.0 0 1 244.99 203.32
  L 245.02 181.08
  A 1.00 0.99 88.2 0 1 245.95 180.08
  Q 252.22 179.66 258.40 180.49
  A 1.00 1.00 0.0 0 1 259.26 181.49
  L 259.18 211.15
  A 1.01 1.01 0.0 0 1 257.68 212.02
  L 251.31 208.41
  A 1.03 0.98 6.7 0 1 250.87 207.88
  L 249.94 205.32
  A 0.99 0.99 0.0 0 0 248.90 204.66
  Z
  M 250.48 188.52
  A 1.01 1.00 7.9 0 1 251.20 189.47
  L 251.28 197.12
  A 0.98 0.98 0.0 0 0 251.71 197.93
  C 254.53 199.85 250.54 188.55 255.88 188.30
  A 1.05 1.05 0.0 0 0 256.63 187.91
  C 257.85 186.32 255.31 186.78 254.64 186.76
  C 254.16 186.74 242.94 186.29 250.48 188.52
  Z"
/>
<path d="
  M 235.39 213.47
  L 233.35 215.53
  A 1.00 1.00 0.0 0 1 231.83 215.41
  Q 231.21 214.55 232.20 213.73
  Q 233.27 212.85 234.44 212.21
  Q 239.21 209.62 235.39 213.47
  Z"
/>
<path d="
  M 255.22 212.91
  C 256.09 213.61 258.47 214.24 256.09 215.64
  A 1.00 0.99 53.5 0 1 254.84 215.45
  L 252.87 213.27
  Q 249.95 210.03 253.83 212.02
  Q 254.57 212.40 255.22 212.91
  Z"
/>
<path d="
  M 234.95 218.51
  L 234.68 218.13
  A 1.01 1.00 50.0 0 1 234.79 216.83
  L 236.19 215.46
  Q 241.31 210.47 237.76 216.67
  Q 237.22 217.62 236.57 218.51
  A 1.00 1.00 0.0 0 1 234.95 218.51
  Z"
/>
<path d="
  M 253.31 216.69
  Q 255.07 218.39 253.33 219.11
  A 1.02 1.00 50.3 0 1 252.39 219.01
  Q 250.71 217.85 249.94 216.14
  Q 247.94 211.65 251.54 215.00
  Q 252.31 215.72 253.31 216.69
  Z"
/>
<path d="
  M 247.75 215.49
  C 248.12 215.98 251.23 221.80 248.68 221.30
  A 0.63 0.63 0.0 0 1 248.19 220.86
  C 247.81 219.58 246.70 215.86 247.14 215.44
  A 0.41 0.41 0.0 0 1 247.75 215.49
  Z"
/>
<path d="
  M 239.67 217.42
  Q 241.54 213.44 241.19 217.83
  L 240.99 220.29
  A 1.00 0.98 73.1 0 1 240.62 221.00
  C 238.24 222.88 238.69 219.81 239.08 218.80
  Q 239.35 218.10 239.67 217.42
  Z"
/>
<path d="
  M 243.66 221.77
  C 243.40 220.91 243.37 215.78 244.21 215.81
  A 0.52 0.51 85.6 0 1 244.69 216.23
  C 244.91 217.38 246.00 222.04 244.34 222.22
  A 0.63 0.63 0.0 0 1 243.66 221.77
  Z"
/>
<path d="
  M 213.46 243.60
  C 220.90 247.76 214.32 255.23 210.94 250.54
  A 1.02 0.98 -64.0 0 1 210.75 249.95
  L 210.75 245.29
  Q 210.76 242.09 213.46 243.60
  Z"
/>
<path d="
  M 185.44 247.31
  Q 187.84 247.22 188.25 249.86
  A 1.01 1.00 64.5 0 1 187.94 250.75
  Q 186.00 252.54 183.13 252.51
  A 1.01 1.00 2.2 0 1 182.14 251.45
  L 182.55 244.52
  A 1.00 0.99 -87.1 0 1 183.58 243.58
  Q 186.65 243.67 185.99 245.39
  A 1.00 1.00 0.0 0 1 185.42 245.96
  Q 185.22 246.04 185.07 246.14
  Q 183.10 247.41 185.44 247.31
  Z"
/>
<path d="
  M 284.84 244.13
  A 1.00 1.00 0.0 0 1 286.24 243.23
  L 290.49 245.08
  A 1.01 1.01 0.0 0 1 291.08 245.84
  Q 291.95 251.27 285.86 252.28
  A 1.00 1.00 0.0 0 1 284.69 251.28
  L 284.84 244.13
  Z"
/>
<circle cx="199.21" cy="247.79" r="4.04"/>
<ellipse cx="0.00" cy="0.00" transform="translate(215.86,286.07) rotate(90.2)" rx="14.67" ry="13.28"/>
<ellipse cx="0.00" cy="0.00" transform="translate(299.63,286.10) rotate(90.0)" rx="14.70" ry="13.26"/>
<path d="
  M 225.00 319.75
  Q 235.95 323.93 226.14 330.08
  A 1.00 1.00 0.0 0 1 224.64 329.45
  Q 223.48 324.45 225.00 319.75
  Z"
/>
<ellipse cx="0.00" cy="0.00" transform="translate(273.88,322.15) rotate(21.4)" rx="2.19" ry="1.53"/>
<ellipse cx="0.00" cy="0.00" transform="translate(287.42,322.15) rotate(-2.2)" rx="2.03" ry="1.50"/>
<path d="
  M 299.80 323.50
  A 1.00 1.00 0.0 0 1 299.06 322.04
  C 301.15 318.13 305.92 324.43 299.80 323.50
  Z"
/>
<ellipse cx="0.00" cy="0.00" transform="translate(184.91,324.98) rotate(90.8)" rx="4.47" ry="3.14"/>
<ellipse cx="0.00" cy="0.00" transform="translate(274.12,326.99) rotate(-11.5)" rx="2.43" ry="2.05"/>
<ellipse cx="0.00" cy="0.00" transform="translate(287.47,327.04) rotate(-7.2)" rx="2.52" ry="2.02"/>
<ellipse cx="0.00" cy="0.00" transform="translate(300.87,327.09) rotate(-4.9)" rx="2.45" ry="2.07"/>
</g>
<g fill="#000000">
<path d="
  M 244.86 163.63
  C 245.72 164.40 250.10 166.07 247.57 166.44
  A 1.00 1.00 0.0 0 1 246.75 166.19
  Q 245.45 164.98 243.73 164.98
  Q 242.30 164.97 243.26 163.91
  L 243.45 163.70
  A 0.99 0.99 0.0 0 1 244.86 163.63
  Z"
/>
<path d="
  M 267.69 182.93
  Q 269.32 182.96 270.56 181.72
  A 1.04 1.02 -69.8 0 1 271.15 181.44
  Q 276.69 180.75 279.02 179.01
  C 281.54 177.14 278.27 177.21 277.33 177.43
  Q 277.01 177.51 276.69 177.50
  Q 275.17 177.46 276.26 176.40
  L 278.51 174.21
  A 1.01 1.01 0.0 0 0 278.35 172.65
  L 277.70 172.22
  A 1.01 1.01 0.0 0 0 276.30 172.54
  Q 275.37 174.05 273.89 174.54
  Q 270.11 175.78 273.55 173.79
  Q 274.08 173.49 274.53 173.04
  A 1.00 0.98 57.0 0 0 274.75 171.96
  Q 273.93 169.91 275.30 168.33
  A 1.01 1.00 24.4 0 1 276.21 167.99
  L 279.78 168.55
  A 0.99 0.98 -82.3 0 0 280.92 167.68
  Q 281.15 165.69 282.81 164.35
  A 1.00 0.99 -52.6 0 1 283.83 164.21
  L 288.83 166.34
  A 1.02 1.02 0.0 0 1 289.36 166.87
  Q 294.91 180.00 284.65 189.34
  A 1.01 1.00 47.4 0 0 284.60 190.77
  Q 288.99 195.41 293.40 200.04
  C 295.81 202.56 299.59 203.80 301.50 199.75
  A 0.98 0.97 -43.1 0 0 301.53 198.96
  C 300.94 197.47 295.53 186.67 295.76 186.38
  A 0.41 0.41 0.0 0 1 296.45 186.46
  Q 297.85 189.42 301.34 193.17
  C 306.38 198.58 301.99 205.81 294.88 203.70
  A 1.01 1.01 0.0 0 0 293.91 203.93
  L 290.62 207.01
  A 1.01 1.00 43.6 0 0 290.66 208.51
  L 292.10 209.72
  A 0.99 0.99 0.0 0 1 292.37 210.88
  C 290.13 216.07 286.28 218.28 280.81 222.41
  A 0.99 0.99 0.0 0 1 279.70 222.48
  L 275.19 219.83
  Q 271.93 217.91 275.70 217.96
  Q 278.01 217.99 280.18 218.77
  A 1.01 0.99 29.3 0 0 281.28 218.47
  L 285.52 213.41
  A 1.00 1.00 0.0 0 0 285.35 211.97
  Q 279.94 207.95 281.39 201.21
  A 1.02 0.98 29.9 0 0 281.13 200.31
  L 271.27 189.96
  A 0.99 0.97 -19.7 0 0 270.60 189.65
  Q 266.75 189.47 263.85 187.06
  A 1.00 0.97 19.0 0 1 263.49 186.35
  L 262.92 177.10
  A 1.00 0.99 -9.1 0 0 261.67 176.20
  L 259.30 176.82
  A 1.00 0.99 -12.8 0 1 258.07 176.05
  Q 257.65 173.96 261.65 174.11
  A 1.06 1.01 -20.9 0 1 262.30 174.38
  Q 265.71 177.59 266.73 182.15
  A 1.01 1.00 -5.5 0 0 267.69 182.93
  Z"
/>
<path d="
  M 210.42 175.09
  C 211.34 175.48 214.34 176.94 212.31 177.69
  A 1.00 0.96 -42.3 0 1 211.57 177.67
  Q 207.05 175.73 209.89 179.62
  A 1.01 0.99 74.1 0 0 210.61 180.03
  Q 215.63 180.49 220.01 183.05
  A 0.99 0.99 0.0 0 0 221.41 182.61
  Q 222.87 179.56 224.12 176.84
  Q 226.07 172.62 229.45 174.62
  Q 231.92 176.07 229.08 176.47
  L 226.25 176.86
  A 1.00 1.00 0.0 0 0 225.39 177.79
  L 224.83 187.24
  A 1.01 0.99 -6.7 0 1 224.11 188.14
  C 215.75 190.56 211.78 194.62 207.06 201.22
  A 1.02 1.02 0.0 0 0 206.90 202.03
  Q 208.34 208.28 203.17 212.08
  A 1.00 1.00 0.0 0 0 203.02 213.56
  L 207.07 217.99
  A 0.98 0.97 -20.2 0 0 207.77 218.31
  L 212.16 218.49
  Q 215.07 218.60 212.71 220.30
  Q 210.78 221.68 208.46 222.32
  A 1.02 1.00 -34.5 0 1 207.60 222.17
  C 203.59 219.25 198.58 215.85 196.25 211.08
  A 0.98 0.98 0.0 0 1 196.42 209.96
  L 197.75 208.55
  A 1.00 1.00 0.0 0 0 197.73 207.16
  L 194.68 204.06
  A 1.01 1.01 0.0 0 0 193.70 203.79
  Q 185.96 205.87 185.47 198.88
  C 185.19 194.79 190.26 189.45 192.95 186.69
  C 193.38 186.26 193.24 187.00 193.19 187.08
  C 191.38 190.09 181.35 203.43 192.91 202.00
  A 1.06 1.06 0.0 0 0 193.51 201.70
  L 203.97 190.73
  A 1.01 1.00 -49.9 0 0 203.85 189.24
  Q 196.60 183.77 197.21 174.33
  C 197.32 172.50 198.41 170.27 197.54 167.92
  A 0.99 0.99 0.0 0 1 198.13 166.64
  L 205.01 164.12
  A 1.00 1.00 0.0 0 1 206.29 164.71
  L 207.66 168.36
  A 1.00 1.00 0.0 0 0 208.99 168.93
  C 217.39 165.36 211.16 172.89 215.21 174.17
  Q 215.92 174.40 215.35 174.88
  C 214.52 175.58 212.67 173.25 212.01 172.35
  A 1.01 1.00 65.2 0 0 210.99 171.97
  Q 209.17 172.37 209.87 174.48
  A 1.01 1.00 -87.4 0 0 210.42 175.09
  Z"
/>
<path d="
  M 244.48 172.91
  Q 241.37 170.73 243.24 167.91
  A 1.00 1.00 0.0 0 1 244.88 167.88
  Q 246.14 169.61 246.05 172.13
  Q 245.98 173.97 244.48 172.91
  Z"
/>
<ellipse cx="0.00" cy="0.00" transform="translate(252.43,170.80) rotate(101.0)" rx="1.62" ry="0.75"/>
<path d="
  M 239.97 170.44
  C 242.88 173.40 236.20 171.47 238.83 170.24
  A 1.01 1.01 0.0 0 1 239.97 170.44
  Z"
/>
<ellipse cx="0.00" cy="0.00" transform="translate(249.02,171.12) rotate(74.7)" rx="1.15" ry="1.03"/>
<rect x="-8.33" y="-0.85" transform="translate(244.31,175.85) rotate(-0.3)" width="16.66" height="1.70" rx="0.79"/>
<ellipse cx="0.00" cy="0.00" transform="translate(188.05,180.38) rotate(45.6)" rx="3.05" ry="0.98"/>
<path d="
  M 247.83 223.59
  C 237.20 225.40 229.04 219.12 227.73 208.57
  C 226.82 201.30 227.82 194.45 227.54 187.24
  Q 227.38 183.23 227.57 179.20
  A 1.00 0.99 1.2 0 1 228.57 178.25
  L 259.67 178.26
  A 0.99 0.99 0.0 0 1 260.66 179.20
  Q 261.40 191.03 261.32 203.00
  C 261.26 212.62 258.62 221.75 247.83 223.59
  Z
  M 238.33 205.56
  A 1.29 1.29 0.0 0 1 239.43 204.55
  L 242.11 204.23
  A 1.29 1.29 0.0 0 0 243.24 202.95
  L 243.25 181.29
  A 1.29 1.29 0.0 0 0 241.96 180.00
  L 230.43 180.00
  A 1.29 1.29 0.0 0 0 229.14 181.30
  L 229.36 210.70
  A 1.29 1.29 0.0 0 0 231.32 211.80
  L 237.35 208.16
  A 1.29 1.29 0.0 0 0 237.95 207.32
  L 238.33 205.56
  Z
  M 249.94 205.32
  L 250.87 207.88
  A 1.03 0.98 6.7 0 0 251.31 208.41
  L 257.68 212.02
  A 1.01 1.01 0.0 0 0 259.18 211.15
  L 259.26 181.49
  A 1.00 1.00 0.0 0 0 258.40 180.49
  Q 252.22 179.66 245.95 180.08
  A 1.00 0.99 88.2 0 0 245.02 181.08
  L 244.99 203.32
  A 1.00 0.99 -80.0 0 0 245.64 204.26
  Q 247.19 204.83 248.90 204.66
  A 0.99 0.99 0.0 0 1 249.94 205.32
  Z
  M 234.44 212.21
  Q 233.27 212.85 232.20 213.73
  Q 231.21 214.55 231.83 215.41
  A 1.00 1.00 0.0 0 0 233.35 215.53
  L 235.39 213.47
  Q 239.21 209.62 234.44 212.21
  Z
  M 255.22 212.91
  Q 254.57 212.40 253.83 212.02
  Q 249.95 210.03 252.87 213.27
  L 254.84 215.45
  A 1.00 0.99 53.5 0 0 256.09 215.64
  C 258.47 214.24 256.09 213.61 255.22 212.91
  Z
  M 236.57 218.51
  Q 237.22 217.62 237.76 216.67
  Q 241.31 210.47 236.19 215.46
  L 234.79 216.83
  A 1.01 1.00 50.0 0 0 234.68 218.13
  L 234.95 218.51
  A 1.00 1.00 0.0 0 0 236.57 218.51
  Z
  M 253.31 216.69
  Q 252.31 215.72 251.54 215.00
  Q 247.94 211.65 249.94 216.14
  Q 250.71 217.85 252.39 219.01
  A 1.02 1.00 50.3 0 0 253.33 219.11
  Q 255.07 218.39 253.31 216.69
  Z
  M 248.68 221.30
  C 251.23 221.80 248.12 215.98 247.75 215.49
  A 0.41 0.41 0.0 0 0 247.14 215.44
  C 246.70 215.86 247.81 219.58 248.19 220.86
  A 0.63 0.63 0.0 0 0 248.68 221.30
  Z
  M 239.67 217.42
  Q 239.35 218.10 239.08 218.80
  C 238.69 219.81 238.24 222.88 240.62 221.00
  A 1.00 0.98 73.1 0 0 240.99 220.29
  L 241.19 217.83
  Q 241.54 213.44 239.67 217.42
  Z
  M 244.21 215.81
  C 243.37 215.78 243.40 220.91 243.66 221.77
  A 0.63 0.63 0.0 0 0 244.34 222.22
  C 246.00 222.04 244.91 217.38 244.69 216.23
  A 0.52 0.51 85.6 0 0 244.21 215.81
  Z"
/>
<path d="
  M 300.10 179.17
  Q 300.58 178.47 301.50 178.48
  Q 304.20 178.51 302.13 180.25
  L 299.72 182.27
  Q 295.05 186.18 298.55 181.20
  Q 299.10 180.41 299.73 179.68
  Q 299.80 179.60 300.10 179.17
  Z"
/>
<path d="
  M 239.42 192.81
  Q 241.82 194.12 240.05 196.27
  Q 237.67 199.17 233.95 198.30
  A 0.80 0.79 13.3 0 1 233.35 197.34
  L 233.42 197.05
  A 0.65 0.65 0.0 0 1 234.20 196.57
  Q 238.69 197.71 237.58 194.19
  A 0.98 0.98 0.0 0 0 236.98 193.55
  Q 233.58 192.28 231.88 189.09
  A 1.01 0.99 60.2 0 1 232.23 187.77
  Q 234.78 186.17 237.72 186.22
  A 0.79 0.77 67.0 0 1 238.27 186.45
  C 239.40 187.56 235.51 188.28 234.96 188.48
  Q 232.88 189.24 234.82 190.30
  L 239.42 192.81
  Z"
/>
<path d="
  M 250.48 188.52
  C 242.94 186.29 254.16 186.74 254.64 186.76
  C 255.31 186.78 257.85 186.32 256.63 187.91
  A 1.05 1.05 0.0 0 1 255.88 188.30
  C 250.54 188.55 254.53 199.85 251.71 197.93
  A 0.98 0.98 0.0 0 1 251.28 197.12
  L 251.20 189.47
  A 1.01 1.00 7.9 0 0 250.48 188.52
  Z"
/>
<path d="
  M 266.76 192.06
  Q 269.67 191.00 271.87 193.29
  A 1.00 1.00 0.0 0 1 271.42 194.94
  L 265.00 196.78
  A 0.99 0.99 0.0 0 1 263.83 196.25
  C 263.67 195.91 262.20 190.22 264.16 190.24
  A 0.64 0.63 -18.9 0 1 264.66 190.48
  L 265.63 191.73
  A 1.02 1.01 61.1 0 0 266.76 192.06
  Z"
/>
<path d="
  M 222.29 191.96
  L 223.92 190.89
  A 1.00 1.00 0.0 0 1 225.46 191.58
  Q 225.84 194.11 224.57 196.35
  A 1.00 1.00 0.0 0 1 223.42 196.82
  L 217.27 195.04
  A 1.00 1.00 0.0 0 1 216.72 193.52
  Q 218.40 190.98 221.40 192.07
  A 1.00 0.99 -51.7 0 0 222.29 191.96
  Z"
/>
<path d="
  M 218.96 212.93
  A 1.00 1.00 0.0 0 0 220.15 212.97
  Q 221.49 212.05 223.00 211.65
  Q 228.59 210.18 223.82 213.44
  L 219.92 216.11
  A 1.02 1.00 35.0 0 1 219.09 216.25
  C 217.34 215.77 216.33 214.46 214.93 213.81
  Q 212.05 212.46 208.88 211.86
  A 1.00 1.00 0.0 0 1 208.14 210.49
  Q 209.07 208.28 209.71 205.67
  C 210.38 202.91 208.96 199.78 213.14 198.55
  A 1.01 1.00 71.5 0 1 214.36 199.16
  Q 216.02 203.62 213.73 207.66
  A 1.00 0.99 -55.9 0 0 213.97 208.93
  L 218.96 212.93
  Z"
/>
<path d="
  M 273.19 201.46
  Q 274.07 197.69 278.42 200.33
  A 0.99 0.99 0.0 0 1 278.89 201.33
  Q 278.15 206.23 280.52 210.60
  A 1.00 1.00 0.0 0 1 279.70 212.08
  Q 274.39 212.35 270.62 215.90
  A 0.99 0.99 0.0 0 1 269.61 216.12
  Q 266.84 215.18 264.43 213.53
  Q 261.54 211.54 265.05 211.70
  Q 266.70 211.78 268.06 212.92
  A 1.01 1.01 0.0 0 0 269.32 212.95
  L 274.48 208.94
  A 1.00 1.00 0.0 0 0 274.78 207.74
  L 273.21 204.26
  A 4.65 2.01 -67.0 0 1 273.19 201.46
  Z"
/>
<path d="
  M 238.57 225.15
  Q 239.26 225.36 238.87 225.79
  A 0.57 0.54 20.0 0 1 238.50 225.95
  Q 222.61 226.23 211.00 225.74
  Q 210.08 225.70 210.23 224.81
  A 0.80 0.80 0.0 0 1 210.61 224.25
  L 225.56 215.29
  A 1.00 1.00 0.0 0 1 226.95 215.67
  Q 230.86 222.82 238.57 225.15
  Z"
/>
<path d="
  M 261.56 215.72
  A 1.00 1.00 0.0 0 1 262.90 215.38
  Q 270.50 219.68 277.48 224.08
  C 278.45 224.70 278.44 225.75 277.10 225.75
  Q 265.06 225.74 253.00 225.76
  C 251.48 225.76 251.39 224.93 252.75 224.20
  Q 258.00 221.40 261.56 215.72
  Z"
/>
<path d="
  M 298.77 249.83
  Q 298.90 251.11 300.04 251.69
  C 301.13 252.24 302.89 251.94 304.24 252.07
  A 0.64 0.63 82.4 0 1 304.77 252.48
  C 305.48 254.31 298.72 252.66 298.14 252.43
  A 1.01 1.00 10.8 0 1 297.50 251.50
  L 297.50 243.53
  A 1.00 1.00 0.0 0 1 298.39 242.54
  C 298.66 242.51 306.21 241.24 303.85 243.41
  A 0.99 0.97 25.0 0 1 303.11 243.67
  L 300.01 243.47
  A 1.00 1.00 0.0 0 0 298.98 244.21
  C 297.49 249.80 304.41 245.85 302.98 248.09
  A 0.81 0.81 0.0 0 1 302.39 248.45
  L 299.66 248.74
  A 1.01 0.99 -6.1 0 0 298.77 249.83
  Z"
/>
<path d="
  M 217.29 244.09
  Q 217.48 244.26 217.57 244.50
  C 219.71 249.99 214.81 256.91 209.83 252.38
  A 0.97 0.97 0.0 0 1 209.50 251.65
  L 209.49 243.84
  A 1.01 1.00 -14.7 0 1 210.01 242.96
  Q 213.60 240.98 217.29 244.09
  Z
  M 213.46 243.60
  Q 210.76 242.09 210.75 245.29
  L 210.75 249.95
  A 1.02 0.98 -64.0 0 0 210.94 250.54
  C 214.32 255.23 220.90 247.76 213.46 243.60
  Z"
/>
<path d="
  M 225.01 244.07
  C 223.38 249.26 231.01 246.15 229.46 248.09
  A 0.83 0.79 -71.1 0 1 228.88 248.39
  L 226.19 248.55
  A 0.99 0.98 14.3 0 0 225.41 249.01
  Q 224.15 250.97 226.28 252.10
  A 0.97 0.94 54.2 0 0 226.89 252.21
  C 227.36 252.14 231.36 251.01 230.68 252.61
  A 1.01 1.01 0.0 0 1 230.02 253.19
  Q 227.07 253.99 224.23 252.89
  A 1.01 1.00 -80.4 0 1 223.59 251.98
  L 223.41 243.83
  A 1.00 0.99 81.1 0 1 224.11 242.86
  Q 226.76 242.01 229.55 242.22
  Q 232.56 242.45 229.72 243.46
  Q 228.09 244.04 226.29 243.42
  A 1.00 0.99 -71.7 0 0 225.01 244.07
  Z"
/>
<path d="
  M 241.61 247.60
  Q 248.76 249.15 242.45 253.86
  A 0.98 0.96 35.1 0 1 241.54 254.01
  Q 235.72 252.10 235.10 246.25
  A 1.04 1.03 59.5 0 1 235.27 245.59
  Q 238.44 240.91 243.41 243.01
  Q 243.90 243.22 244.08 243.55
  Q 244.77 244.82 243.44 244.27
  C 236.37 241.33 233.78 251.47 241.08 252.05
  C 243.54 252.24 245.24 250.27 241.76 248.95
  A 0.79 0.78 -75.6 0 1 241.26 248.09
  L 241.30 247.82
  A 0.26 0.26 0.0 0 1 241.61 247.60
  Z"
/>
<path d="
  M 283.32 243.17
  A 1.00 1.00 0.0 0 1 284.51 242.16
  L 292.24 243.65
  A 1.01 0.99 1.8 0 1 293.04 244.48
  C 293.82 249.58 289.49 255.64 284.06 252.64
  A 1.00 0.99 14.2 0 1 283.55 251.79
  L 283.32 243.17
  Z
  M 284.84 244.13
  L 284.69 251.28
  A 1.00 1.00 0.0 0 0 285.86 252.28
  Q 291.95 251.27 291.08 245.84
  A 1.01 1.01 0.0 0 0 290.49 245.08
  L 286.24 243.23
  A 1.00 1.00 0.0 0 0 284.84 244.13
  Z"
/>
<path d="
  M 181.78 242.95
  C 183.72 241.92 187.96 242.17 187.29 245.47
  A 1.01 1.01 0.0 0 0 187.63 246.43
  Q 191.46 249.62 187.56 252.78
  A 0.96 0.96 0.0 0 1 186.87 253.00
  L 182.19 252.68
  A 1.01 1.00 -88.5 0 1 181.25 251.68
  L 181.25 243.84
  A 1.02 1.01 -14.5 0 1 181.78 242.95
  Z
  M 185.07 246.14
  Q 185.22 246.04 185.42 245.96
  A 1.00 1.00 0.0 0 0 185.99 245.39
  Q 186.65 243.67 183.58 243.58
  A 1.00 0.99 -87.1 0 0 182.55 244.52
  L 182.14 251.45
  A 1.01 1.00 2.2 0 0 183.13 252.51
  Q 186.00 252.54 187.94 250.75
  A 1.01 1.00 64.5 0 0 188.25 249.86
  Q 187.84 247.22 185.44 247.31
  Q 183.10 247.41 185.07 246.14
  Z"
/>
<path d="
  M 204.60 247.85
  A 5.36 5.36 0.0 0 1 199.24 253.21
  A 5.36 5.36 0.0 0 1 193.88 247.85
  A 5.36 5.36 0.0 0 1 199.24 242.49
  A 5.36 5.36 0.0 0 1 204.60 247.85
  Z
  M 203.25 247.79
  A 4.04 4.04 0.0 0 0 199.21 243.75
  A 4.04 4.04 0.0 0 0 195.17 247.79
  A 4.04 4.04 0.0 0 0 199.21 251.83
  A 4.04 4.04 0.0 0 0 203.25 247.79
  Z"
/>
<path d="
  M 265.66 246.33
  C 267.27 246.98 270.62 247.97 271.13 249.74
  C 272.08 253.07 266.71 253.89 264.40 252.90
  A 0.63 0.62 -88.0 0 1 264.04 252.51
  C 263.82 251.83 264.52 251.65 265.05 251.86
  C 267.25 252.74 271.48 251.48 268.60 248.76
  A 0.95 0.94 70.7 0 0 268.05 248.49
  Q 265.40 248.13 263.54 246.34
  A 0.99 0.99 0.0 0 1 263.32 245.20
  Q 265.33 240.84 270.17 243.18
  Q 270.76 243.47 270.24 243.88
  A 0.62 0.61 29.5 0 1 269.76 244.01
  C 267.99 243.77 263.90 243.07 265.12 245.81
  A 1.03 1.00 88.1 0 0 265.66 246.33
  Z"
/>
<path d="
  M 253.92 245.71
  A 0.81 0.80 -3.7 0 0 253.42 246.27
  Q 252.61 249.69 251.14 252.10
  C 250.87 252.54 249.33 253.61 250.03 251.73
  Q 251.31 248.34 252.88 244.94
  Q 254.38 241.67 255.80 244.72
  L 258.84 251.26
  Q 260.35 254.51 257.81 251.98
  Q 255.69 249.88 255.35 246.76
  Q 255.19 245.23 253.92 245.71
  Z"
/>
<path d="
  M 74.67 297.12
  A 1.00 1.00 0.0 0 0 74.98 296.31
  C 74.37 289.26 64.58 285.86 58.95 283.30
  A 1.04 1.02 -0.6 0 1 58.47 282.84
  C 55.70 277.33 56.60 270.03 63.27 268.25
  Q 67.81 267.04 73.47 267.84
  A 1.01 1.01 0.0 0 1 74.29 268.58
  C 74.84 270.65 72.87 270.86 71.34 270.60
  C 61.87 269.02 57.13 277.02 67.19 282.20
  C 71.59 284.47 78.15 288.87 78.73 293.78
  C 79.97 304.15 66.55 305.65 59.70 303.78
  A 1.00 0.99 -89.6 0 1 58.99 303.05
  C 58.54 301.18 59.74 300.57 61.42 300.94
  Q 68.86 302.61 74.67 297.12
  Z"
/>
<path d="
  M 408.93 283.05
  A 1.01 0.98 -86.3 0 1 408.46 282.50
  C 403.80 269.67 413.37 266.69 423.67 267.56
  A 1.00 1.00 0.0 0 1 424.52 268.19
  Q 425.02 269.48 423.77 270.52
  A 0.98 0.96 27.3 0 1 423.02 270.75
  C 416.95 270.11 410.41 270.83 412.27 279.27
  A 1.02 1.00 8.3 0 0 412.77 279.93
  L 427.56 288.06
  A 1.04 1.03 -85.3 0 1 428.03 288.62
  C 429.96 294.45 429.28 302.51 421.73 303.71
  C 418.21 304.27 408.34 305.65 409.26 301.78
  A 1.00 1.00 0.0 0 1 410.28 301.01
  Q 413.43 301.15 416.51 301.32
  C 421.33 301.57 427.76 296.10 423.30 291.28
  C 420.37 288.11 413.10 285.24 408.93 283.05
  Z"
/>
<path d="
  M 438.84 269.88
  L 438.49 270.10
  Q 436.54 271.32 437.31 269.15
  Q 437.92 267.43 440.04 267.58
  A 1.01 1.00 -6.3 0 1 440.93 268.29
  Q 442.96 275.10 439.95 270.14
  A 0.81 0.80 57.9 0 0 438.84 269.88
  Z"
/>
<path d="
  M 134.70 276.38
  Q 133.03 276.52 133.16 279.41
  C 133.49 286.88 133.31 294.43 133.59 301.93
  A 1.05 1.01 -29.8 0 1 133.41 302.54
  Q 131.79 304.91 129.84 302.96
  A 0.99 0.99 0.0 0 1 129.55 302.26
  L 129.37 271.75
  Q 129.36 269.71 130.24 268.54
  Q 131.76 266.50 134.25 269.51
  Q 144.89 282.31 155.57 295.11
  Q 157.31 297.20 157.34 294.48
  L 157.57 269.73
  A 0.97 0.95 67.8 0 1 157.85 269.05
  C 159.76 267.07 161.26 268.82 161.26 270.93
  Q 161.25 286.67 161.25 302.40
  A 1.01 1.00 -15.0 0 1 160.74 303.27
  Q 158.33 304.65 156.43 302.32
  Q 146.93 290.68 135.55 276.75
  A 1.00 0.99 68.2 0 0 134.70 276.38
  Z"
/>
<path d="
  M 234.02 286.12
  A 18.15 18.15 0.0 0 1 215.87 304.27
  A 18.15 18.15 0.0 0 1 197.72 286.12
  A 18.15 18.15 0.0 0 1 215.87 267.97
  A 18.15 18.15 0.0 0 1 234.02 286.12
  Z
  M 215.8088 300.7399
  A 14.67 13.28 90.2 0 0 229.1399 286.1164
  A 14.67 13.28 90.2 0 0 215.9112 271.4001
  A 14.67 13.28 90.2 0 0 202.5801 286.0236
  A 14.67 13.28 90.2 0 0 215.8088 300.7399
  Z"
/>
<path d="
  M 317.75 286.08
  A 18.14 18.14 0.0 0 1 299.61 304.22
  A 18.14 18.14 0.0 0 1 281.47 286.08
  A 18.14 18.14 0.0 0 1 299.61 267.94
  A 18.14 18.14 0.0 0 1 317.75 286.08
  Z
  M 299.6300 300.8000
  A 14.70 13.26 90.0 0 0 312.8900 286.1000
  A 14.70 13.26 90.0 0 0 299.6300 271.4000
  A 14.70 13.26 90.0 0 0 286.3700 286.1000
  A 14.70 13.26 90.0 0 0 299.6300 300.8000
  Z"
/>
<path d="
  M 340.17 296.34
  C 339.02 294.30 329.01 276.36 328.18 276.51
  A 0.27 0.26 -5.2 0 0 327.96 276.77
  L 328.32 302.49
  A 1.00 0.99 75.1 0 1 327.81 303.38
  Q 326.31 304.22 324.81 303.49
  A 1.00 0.99 -77.3 0 1 324.25 302.59
  L 324.25 269.57
  A 1.02 1.00 -16.9 0 1 324.71 268.73
  C 326.75 267.41 328.27 268.23 329.38 270.22
  Q 334.45 279.25 339.60 288.21
  C 340.57 289.88 341.46 292.32 343.33 289.09
  Q 348.68 279.82 353.93 270.51
  C 355.11 268.42 356.86 266.86 358.96 268.98
  A 0.99 0.99 0.0 0 1 359.25 269.68
  L 359.25 302.14
  A 0.99 0.98 64.8 0 1 359.03 302.76
  Q 357.45 304.76 355.57 303.00
  A 1.02 0.99 22.1 0 1 355.25 302.27
  L 355.25 278.32
  A 0.63 0.61 -68.1 0 0 355.07 277.88
  C 353.97 276.74 344.34 294.66 343.38 296.34
  Q 341.77 299.15 340.17 296.34
  Z"
/>
<path d="
  M 433.25 269.64
  Q 433.61 269.15 433.88 268.60
  C 434.11 268.13 434.40 267.89 434.83 268.27
  A 0.81 0.80 41.2 0 1 434.91 269.40
  L 432.80 271.80
  A 1.00 1.00 0.0 0 1 431.12 271.50
  Q 430.73 270.49 430.55 269.81
  Q 429.80 266.98 431.46 269.39
  L 431.62 269.62
  A 1.00 1.00 0.0 0 0 433.25 269.64
  Z"
/>
<path d="
  M 264.56 271.74
  L 251.92 271.77
  A 0.44 0.44 0.0 0 1 251.54 271.12
  L 252.97 268.48
  A 0.44 0.44 0.0 0 1 253.36 268.25
  L 281.23 268.25
  A 0.44 0.44 0.0 0 1 281.62 268.49
  L 282.98 271.11
  A 0.44 0.44 0.0 0 1 282.59 271.75
  L 269.90 271.75
  A 0.44 0.44 0.0 0 0 269.46 272.19
  L 269.17 303.31
  A 0.44 0.44 0.0 0 1 268.73 303.75
  L 265.44 303.75
  A 0.44 0.44 0.0 0 1 265.00 303.31
  L 265.00 272.18
  A 0.44 0.44 0.0 0 0 264.56 271.74
  Z"
/>
<path d="
  M 103.34 274.53
  C 103.14 274.69 102.74 275.11 102.63 275.35
  Q 96.28 289.44 89.48 303.34
  A 1.02 1.00 5.0 0 1 88.83 303.87
  C 84.99 304.89 85.92 301.79 86.79 299.89
  Q 93.27 285.88 99.84 271.94
  C 101.81 267.74 105.52 266.79 107.70 271.45
  Q 114.28 285.49 120.92 299.49
  C 121.89 301.54 122.53 305.16 118.47 303.31
  A 1.01 0.99 88.9 0 1 117.97 302.82
  L 104.87 274.89
  A 1.01 1.00 58.2 0 0 103.34 274.53
  Z"
/>
<path d="
  M 390.94 274.22
  L 393.04 270.01
  A 1.08 1.04 -87.7 0 1 393.54 269.53
  Q 395.38 268.74 396.45 270.71
  A 1.01 1.01 0.0 0 1 396.47 271.62
  L 392.74 279.38
  A 1.01 0.99 -44.7 0 0 392.73 280.24
  L 402.85 301.59
  A 1.01 0.99 51.0 0 1 402.75 302.62
  C 400.71 305.35 398.93 303.26 397.99 301.15
  Q 394.68 293.76 391.12 286.44
  Q 390.19 284.51 389.31 286.47
  L 387.43 290.67
  A 1.02 1.00 -86.9 0 1 386.85 291.20
  Q 383.41 292.43 384.54 288.49
  C 385.70 284.45 389.92 279.12 385.32 274.72
  A 1.00 1.00 0.0 0 0 383.72 275.02
  L 370.81 302.77
  A 1.04 1.00 1.1 0 1 370.26 303.28
  C 365.09 305.26 367.13 300.82 368.03 298.93
  Q 374.42 285.43 380.70 271.88
  C 382.28 268.48 385.11 267.18 388.03 269.97
  Q 388.21 270.15 388.29 270.39
  L 389.46 274.11
  Q 390.06 275.99 390.94 274.22
  Z"
/>
<path d="
  M 179.51 271.76
  L 169.41 271.75
  A 1.01 1.00 -83.0 0 1 168.44 270.50
  L 168.69 269.50
  A 1.00 0.99 7.0 0 1 169.66 268.75
  L 197.46 268.75
  A 0.99 0.99 0.0 0 1 198.38 269.37
  C 198.99 270.85 197.63 271.79 196.24 271.73
  Q 191.46 271.55 186.68 272.04
  A 1.00 0.99 -2.9 0 0 185.78 273.03
  L 185.68 302.05
  A 1.02 0.99 -24.8 0 1 185.42 302.72
  Q 183.49 304.85 181.67 302.83
  A 0.98 0.98 0.0 0 1 181.42 302.15
  L 181.82 274.00
  Q 181.85 271.76 179.51 271.76
  Z"
/>
<path d="
  M 198.05 328.81
  C 199.48 329.16 202.93 328.56 203.21 329.57
  A 0.80 0.80 0.0 0 1 202.33 330.58
  L 197.17 329.89
  A 0.99 0.99 0.0 0 1 196.31 328.94
  L 196.03 321.99
  Q 195.93 319.72 198.00 319.58
  L 202.01 319.29
  A 0.99 0.96 60.8 0 1 202.68 319.49
  C 204.70 321.02 198.19 320.86 197.96 320.90
  A 1.01 1.01 0.0 0 0 197.14 321.71
  Q 196.40 325.86 200.44 324.21
  A 0.99 0.99 0.0 0 1 201.79 324.91
  L 201.87 325.27
  Q 202.08 326.19 201.20 325.87
  Q 197.28 324.45 197.29 327.85
  A 0.99 0.99 0.0 0 0 198.05 328.81
  Z"
/>
<path d="
  M 225.00 319.75
  Q 223.48 324.45 224.64 329.45
  A 1.00 1.00 0.0 0 0 226.14 330.08
  Q 235.95 323.93 225.00 319.75
  C 230.37 317.25 234.43 325.52 229.20 329.49
  C 227.32 330.93 225.25 330.90 223.43 329.52
  A 0.99 0.97 18.4 0 1 223.04 328.76
  C 222.93 325.91 222.15 318.82 225.00 319.75
  Z"
/>
<path d="
  M 181.93 329.84
  A 1.00 0.99 -84.5 0 1 181.12 328.85
  L 181.21 320.40
  A 1.01 1.00 -86.2 0 1 182.33 319.41
  L 189.18 320.30
  A 1.00 0.99 1.1 0 1 190.05 321.20
  Q 190.91 331.56 181.93 329.84
  Z
  M 184.8476 329.4496
  A 4.47 3.14 90.8 0 0 188.0497 325.0238
  A 4.47 3.14 90.8 0 0 184.9724 320.5104
  A 4.47 3.14 90.8 0 0 181.7703 324.9362
  A 4.47 3.14 90.8 0 0 184.8476 329.4496
  Z"
/>
<path d="
  M 215.36 328.33
  C 216.39 325.88 212.75 325.39 210.62 324.82
  A 1.02 1.02 0.0 0 1 210.01 324.35
  C 207.32 319.66 212.82 319.05 215.82 320.18
  A 0.64 0.64 0.0 0 1 216.21 320.97
  L 216.10 321.31
  A 0.33 0.33 0.0 0 1 215.60 321.48
  C 214.35 320.64 211.77 320.09 211.00 321.89
  C 210.23 323.68 214.48 324.71 215.70 325.18
  A 1.00 0.98 81.0 0 1 216.16 325.52
  C 219.66 330.33 209.04 332.14 209.45 329.42
  A 0.64 0.63 -85.4 0 1 210.09 328.87
  L 214.42 328.94
  A 1.01 0.99 11.7 0 0 215.36 328.33
  Z"
/>
<path d="
  M 239.18 330.18
  A 1.01 1.00 2.2 0 1 238.25 329.18
  L 238.25 320.62
  A 1.00 1.00 0.0 0 1 239.21 319.62
  L 244.11 319.45
  A 0.81 0.80 78.9 0 1 244.89 319.98
  C 245.41 321.45 241.31 320.70 240.60 320.76
  A 1.00 1.00 0.0 0 0 239.71 321.49
  Q 238.88 324.59 242.53 324.79
  C 243.01 324.81 244.33 325.91 242.76 325.76
  Q 241.66 325.66 240.63 325.80
  A 1.00 1.00 0.0 0 0 239.78 326.58
  Q 239.11 329.69 242.69 329.17
  Q 242.86 329.14 243.00 329.07
  Q 244.59 328.26 245.20 329.36
  Q 245.92 330.65 244.45 330.55
  L 239.18 330.18
  Z"
/>
<path d="
  M 271.69 329.56
  C 268.79 327.96 271.42 324.34 270.78 321.53
  A 1.00 0.99 -28.6 0 1 271.06 320.60
  Q 273.28 318.43 276.74 320.38
  A 1.01 1.00 22.8 0 1 277.21 321.51
  Q 276.50 324.17 277.73 326.39
  A 0.96 0.96 0.0 0 1 277.82 327.15
  Q 276.38 332.15 271.69 329.56
  Z
  M 275.9190 322.9491
  A 2.19 1.53 21.4 0 0 274.4383 320.7255
  A 2.19 1.53 21.4 0 0 271.8410 321.3509
  A 2.19 1.53 21.4 0 0 273.3217 323.5745
  A 2.19 1.53 21.4 0 0 275.9190 322.9491
  Z
  M 276.5012 326.5055
  A 2.43 2.05 -11.5 0 0 273.7113 324.9812
  A 2.43 2.05 -11.5 0 0 271.7388 327.4745
  A 2.43 2.05 -11.5 0 0 274.5287 328.9988
  A 2.43 2.05 -11.5 0 0 276.5012 326.5055
  Z"
/>
<path d="
  M 297.71 323.32
  C 297.11 322.69 297.00 322.08 297.56 321.33
  C 300.20 317.84 305.58 320.52 303.92 323.16
  A 1.02 1.01 49.6 0 0 303.85 324.08
  Q 306.77 331.07 298.24 329.82
  A 1.01 1.01 0.0 0 1 297.41 329.06
  Q 296.78 326.43 297.85 324.49
  A 1.00 0.99 -52.1 0 0 297.71 323.32
  Z
  M 299.80 323.50
  C 305.92 324.43 301.15 318.13 299.06 322.04
  A 1.00 1.00 0.0 0 0 299.80 323.50
  Z
  M 303.3110 326.8807
  A 2.45 2.07 -4.9 0 0 300.6932 325.0276
  A 2.45 2.07 -4.9 0 0 298.4290 327.2993
  A 2.45 2.07 -4.9 0 0 301.0468 329.1524
  A 2.45 2.07 -4.9 0 0 303.3110 326.8807
  Z"
/>
<path d="
  M 262.38 329.74
  Q 261.97 329.24 261.98 328.50
  Q 262.05 324.87 261.88 322.69
  A 1.00 0.98 -69.8 0 0 261.61 322.09
  Q 259.02 319.32 262.40 319.86
  A 1.02 1.01 -85.6 0 1 263.24 320.85
  L 263.28 329.40
  Q 263.29 330.83 262.38 329.74
  Z"
/>
<path d="
  M 283.91 329.56
  A 1.01 1.00 -70.1 0 1 283.29 328.23
  Q 284.56 325.03 283.96 321.66
  A 1.00 0.97 -23.2 0 1 284.37 320.67
  Q 287.62 318.38 290.55 321.03
  A 0.99 0.98 -56.1 0 1 290.78 322.21
  Q 289.85 324.10 291.09 325.92
  Q 293.13 328.91 289.52 329.77
  Q 286.69 330.44 283.91 329.56
  Z
  M 289.4485 322.0721
  A 2.03 1.50 -2.2 0 0 287.3624 320.6511
  A 2.03 1.50 -2.2 0 0 285.3915 322.2279
  A 2.03 1.50 -2.2 0 0 287.4776 323.6489
  A 2.03 1.50 -2.2 0 0 289.4485 322.0721
  Z
  M 289.9701 326.7242
  A 2.52 2.02 -7.2 0 0 287.2168 325.0359
  A 2.52 2.02 -7.2 0 0 284.9699 327.3558
  A 2.52 2.02 -7.2 0 0 287.7232 329.0441
  A 2.52 2.02 -7.2 0 0 289.9701 326.7242
  Z"
/>
<rect x="-11.25" y="-0.88" transform="translate(150.25,325.38) rotate(0.1)" width="22.50" height="1.76" rx="0.80"/>
<rect x="-11.16" y="-0.64" transform="translate(335.70,325.39) rotate(0.2)" width="22.32" height="1.28" rx="0.44"/>
</g>
</svg>
