<?xml version="1.0" encoding="UTF-8" standalone="no"?>
<!DOCTYPE svg PUBLIC "-//W3C//DTD SVG 1.1//EN" "http://www.w3.org/Graphics/SVG/1.1/DTD/svg11.dtd">
<svg xmlns="http://www.w3.org/2000/svg" version="1.1" viewBox="0 0 225 225">
<g stroke-width="2.00" fill="none" stroke-linecap="butt">
<path stroke="#7f7f79" vector-effect="non-scaling-stroke" d="
  M 66.69 73.19
  Q 66.04 74.91 66.80 75.46
  Q 68.12 76.41 67.81 74.81
  L 67.44 72.97
  A 0.28 0.28 0.0 0 0 67.23 72.76
  Q 66.87 72.69 66.69 73.19"
/>
<path stroke="#7f7f79" vector-effect="non-scaling-stroke" d="
  M 75.6597 74.4127
  A 2.08 1.61 0.9 0 0 73.6053 72.7702
  A 2.08 1.61 0.9 0 0 71.5003 74.3473
  A 2.08 1.61 0.9 0 0 73.5547 75.9898
  A 2.08 1.61 0.9 0 0 75.6597 74.4127"
/>
<path stroke="#a0948b" vector-effect="non-scaling-stroke" d="
  M 80.65 75.08
  C 81.80 72.40 76.12 71.31 77.00 75.18
  A 1.00 0.99 78.9 0 0 78.13 75.94
  L 79.88 75.67
  A 1.03 1.00 6.9 0 0 80.65 75.08"
/>
<path stroke="#a0948b" vector-effect="non-scaling-stroke" d="
  M 83.28 74.12
  Q 83.61 73.05 85.05 73.56
  Q 85.74 73.80 85.59 73.09
  C 85.50 72.70 81.31 72.06 82.03 75.01
  A 1.01 1.00 -7.0 0 0 83.01 75.77
  Q 88.32 75.75 83.78 74.94
  A 0.64 0.64 0.0 0 1 83.28 74.12"
/>
<path stroke="#a0948b" vector-effect="non-scaling-stroke" d="
  M 88.59 72.59
  A 1.01 1.00 37.0 0 0 87.23 72.78
  C 83.57 77.31 94.48 76.76 88.59 72.59"
/>
<path stroke="#a0948b" vector-effect="non-scaling-stroke" d="
  M 101.63 75.16
  C 102.98 72.40 97.03 71.42 97.99 75.17
  A 1.00 1.00 0.0 0 0 99.07 75.91
  L 100.84 75.72
  A 1.00 1.00 0.0 0 0 101.63 75.16"
/>
<path stroke="#a0948b" vector-effect="non-scaling-stroke" d="
  M 104.60 74.29
  Q 104.58 74.05 104.78 73.76
  Q 105.76 72.40 104.13 72.76
  Q 102.54 73.12 103.09 75.05
  A 0.99 0.98 -7.7 0 0 104.04 75.77
  C 109.26 75.81 104.64 74.71 104.60 74.29"
/>
<path stroke="#a0948b" vector-effect="non-scaling-stroke" d="
  M 110.51 73.59
  Q 110.36 73.32 110.15 73.09
  Q 108.87 71.67 109.46 73.49
  Q 109.84 74.65 110.73 75.37
  A 1.00 1.00 0.0 0 0 112.27 75.01
  Q 113.67 71.96 112.15 73.77
  A 1.00 0.99 51.2 0 1 110.51 73.59"
/>
<path stroke="#a0948b" vector-effect="non-scaling-stroke" d="
  M 125.6284 74.4710
  A 2.11 1.60 2.2 0 0 123.5814 72.7912
  A 2.11 1.60 2.2 0 0 121.4116 74.3090
  A 2.11 1.60 2.2 0 0 123.4586 75.9888
  A 2.11 1.60 2.2 0 0 125.6284 74.4710"
/>
<path stroke="#a0948b" vector-effect="non-scaling-stroke" d="
  M 131.50 73.85
  Q 133.11 71.93 130.91 73.53
  A 0.81 0.80 -39.3 0 1 129.85 73.43
  Q 129.68 73.25 129.46 73.13
  Q 127.85 72.25 128.94 73.73
  L 129.74 74.82
  Q 130.60 75.99 131.13 74.64
  Q 131.19 74.49 131.23 74.34
  Q 131.33 74.05 131.50 73.85"
/>
<path stroke="#a0948b" vector-effect="non-scaling-stroke" d="
  M 136.01 72.84
  L 135.76 72.74
  Q 135.45 72.62 135.53 73.09
  Q 136.25 77.70 137.18 74.17
  A 1.09 1.02 -15.1 0 1 137.49 73.67
  Q 139.00 72.34 136.37 72.87
  A 0.65 0.59 47.4 0 1 136.01 72.84"
/>
<path stroke="#a0948b" vector-effect="non-scaling-stroke" d="
  M 141.82 74.21
  Q 141.73 74.07 141.66 73.89
  C 141.19 72.72 140.23 72.65 139.66 73.75
  Q 137.97 76.94 139.88 75.12
  A 1.00 1.00 0.0 0 1 141.28 75.14
  Q 142.32 76.20 144.03 75.47
  Q 145.73 74.74 146.81 74.70
  A 0.52 0.51 -14.6 0 0 147.25 73.95
  L 147.10 73.67
  A 0.80 0.80 0.0 0 0 145.76 73.54
  Q 145.03 74.47 144.78 73.48
  Q 144.33 71.73 143.79 73.46
  L 143.63 73.99
  Q 142.98 76.08 141.82 74.21"
/>
<path stroke="#a0948b" vector-effect="non-scaling-stroke" d="
  M 155.21 73.24
  Q 151.84 71.78 152.58 74.55
  A 0.65 0.63 -35.4 0 1 152.48 75.09
  C 151.84 75.99 157.25 77.41 155.74 73.77
  A 1.02 1.02 0.0 0 0 155.21 73.24"
/>
<path stroke="#7f7f79" vector-effect="non-scaling-stroke" d="
  M 68.83 73.87
  Q 68.08 75.29 69.26 75.71
  A 0.65 0.64 -82.4 0 0 70.12 75.05
  L 70.03 74.11
  Q 69.84 71.95 68.83 73.87"
/>
<path stroke="#a0948b" vector-effect="non-scaling-stroke" d="
  M 93.66 74.32
  Q 94.06 74.52 94.00 75.00
  A 0.65 0.64 19.1 0 0 94.32 75.65
  C 95.58 76.35 95.21 75.07 94.90 74.58
  Q 93.02 71.62 91.66 74.85
  Q 90.91 76.62 92.44 75.46
  Q 92.87 75.14 93.09 74.54
  A 0.41 0.41 0.0 0 1 93.66 74.32"
/>
<path stroke="#a0948b" vector-effect="non-scaling-stroke" d="
  M 114.67 73.10
  C 113.40 72.31 114.30 79.02 114.91 73.59
  A 0.52 0.52 0.0 0 0 114.67 73.10"
/>
<path stroke="#a0948b" vector-effect="non-scaling-stroke" d="
  M 118.42 74.89
  L 119.43 75.72
  A 0.40 0.40 0.0 0 0 119.92 75.74
  Q 120.37 75.43 120.00 75.00
  A 0.99 0.99 0.0 0 1 119.79 74.16
  Q 120.18 72.22 119.28 73.47
  A 0.80 0.79 -43.5 0 1 117.96 73.44
  Q 117.65 72.97 117.10 73.00
  A 0.66 0.64 2.8 0 0 116.51 73.52
  Q 115.86 76.94 116.93 75.16
  A 1.00 1.00 0.0 0 1 118.42 74.89"
/>
<path stroke="#a0948b" vector-effect="non-scaling-stroke" d="
  M 150.01 75.11
  Q 150.26 75.33 150.55 75.47
  Q 151.81 76.11 151.25 74.81
  Q 149.74 71.29 147.79 74.77
  Q 146.94 76.28 148.56 75.69
  Q 148.88 75.57 149.04 75.29
  A 0.64 0.64 0.0 0 1 150.01 75.11"
/>
<path stroke="#e28378" vector-effect="non-scaling-stroke" d="
  M 60.25 102.77
  L 60.25 102.51
  A 0.21 0.21 0.0 0 1 60.46 102.30
  Q 61.98 102.33 61.72 101.00
  Q 60.73 95.93 59.76 90.84
  C 59.51 89.48 58.51 88.19 58.96 86.23
  A 0.99 0.97 -51.8 0 0 58.89 85.58
  L 58.73 85.24
  Q 58.40 84.51 58.13 85.27
  Q 56.99 88.49 56.99 85.76
  A 1.00 1.00 0.0 0 0 56.02 84.77
  Q 52.39 84.63 48.77 84.87
  C 46.94 84.99 43.75 83.07 44.27 86.87
  A 1.01 0.99 -86.1 0 0 44.98 87.70
  L 45.60 87.87
  A 1.02 1.01 13.4 0 1 46.31 89.02
  L 42.95 107.32
  A 1.00 1.00 0.0 0 0 43.93 108.50
  L 46.62 108.51
  A 1.01 1.01 0.0 0 0 47.61 107.30
  L 47.46 106.63
  Q 47.41 106.39 47.48 106.15
  L 48.74 101.73
  A 1.01 1.00 -81.9 0 1 49.70 101.00
  L 56.08 101.00
  A 1.00 1.00 0.0 0 1 57.06 101.82
  L 58.10 107.53
  A 1.00 0.98 2.4 0 0 58.83 108.31
  Q 64.65 109.86 62.34 105.66
  A 1.06 1.01 -54.5 0 1 62.24 104.95
  Q 62.72 102.91 60.53 103.03
  A 0.27 0.26 -1.1 0 1 60.25 102.77"
/>
<path stroke="#e28378" vector-effect="non-scaling-stroke" d="
  M 195.17 89.29
  L 191.65 107.32
  A 1.00 1.00 0.0 0 0 192.53 108.51
  Q 194.12 108.67 195.66 108.34
  A 1.01 1.00 -1.8 0 0 196.43 107.53
  L 197.44 101.83
  A 1.01 1.01 0.0 0 1 198.43 101.00
  L 204.90 101.00
  A 1.00 0.99 -4.8 0 1 205.88 101.82
  L 206.89 107.40
  A 0.99 0.99 0.0 0 0 207.79 108.22
  L 210.54 108.45
  A 1.00 1.00 0.0 0 0 211.61 107.28
  L 207.62 85.47
  A 1.01 1.00 -5.4 0 0 206.62 84.65
  L 194.47 84.78
  A 1.00 1.00 0.0 0 0 193.52 85.51
  Q 192.95 87.55 194.55 88.17
  A 1.00 1.00 0.0 0 1 195.17 89.29"
/>
<path stroke="#e28378" vector-effect="non-scaling-stroke" d="
  M 16.33 104.27
  Q 16.53 104.14 16.76 104.00
  A 1.02 1.01 76.6 0 0 17.24 103.21
  L 17.32 101.91
  A 1.02 1.00 78.5 0 1 17.86 101.08
  L 22.82 98.51
  A 1.00 1.00 0.0 0 1 24.25 99.14
  L 26.45 107.50
  A 1.02 1.01 81.6 0 0 27.45 108.25
  L 29.48 108.19
  Q 29.69 108.19 29.87 108.26
  C 33.08 109.51 30.71 106.15 30.52 104.93
  Q 29.84 100.63 28.46 96.47
  A 1.00 0.99 61.6 0 1 28.78 95.38
  L 30.30 94.15
  Q 30.49 94.00 30.59 93.78
  C 33.88 86.29 28.79 84.66 22.70 84.71
  Q 17.27 84.76 11.80 84.81
  A 1.00 1.00 0.0 0 0 10.81 85.84
  L 10.87 87.61
  A 0.41 0.40 -0.7 0 0 11.28 88.00
  L 11.62 88.00
  A 1.01 1.00 -90.0 0 1 12.62 89.01
  L 12.50 107.49
  A 1.00 1.00 0.0 0 0 13.50 108.50
  L 16.21 108.50
  A 0.99 0.99 0.0 0 0 17.17 107.75
  Q 17.75 105.55 16.62 105.44
  Q 14.83 105.26 16.33 104.27"
/>
<path stroke="#e28378" vector-effect="non-scaling-stroke" d="
  M 75.31 84.94
  Q 73.27 84.57 71.26 84.79
  A 1.00 1.00 0.0 0 0 70.37 85.70
  Q 70.18 87.92 72.08 87.91
  A 1.03 1.00 75.6 0 1 72.97 88.45
  Q 75.35 93.00 77.82 97.54
  C 79.52 100.67 78.86 103.95 78.65 107.45
  A 0.99 0.99 0.0 0 0 79.65 108.50
  L 82.48 108.50
  A 1.00 1.00 0.0 0 0 83.48 107.50
  Q 83.49 104.43 83.52 101.38
  Q 83.53 99.27 84.57 97.42
  Q 87.71 91.84 90.86 86.23
  Q 91.72 84.70 89.97 84.74
  L 86.69 84.81
  A 1.03 1.01 12.2 0 0 85.81 85.37
  L 82.17 92.66
  Q 81.29 94.42 80.39 92.67
  L 76.56 85.26
  A 0.79 0.79 0.0 0 0 76.10 84.87
  Q 75.67 84.72 75.31 84.94"
/>
<path stroke="#e28378" vector-effect="non-scaling-stroke" d="
  M 115.31 103.85
  L 107.73 104.04
  A 1.01 1.00 -0.3 0 1 106.70 103.03
  L 106.88 85.78
  A 1.00 1.00 0.0 0 0 105.88 84.77
  L 101.15 84.74
  A 1.01 1.00 5.6 0 0 100.16 85.55
  Q 99.75 87.60 101.41 88.18
  A 1.01 1.00 -79.9 0 1 102.07 89.14
  Q 101.91 101.79 102.04 104.51
  Q 102.21 108.08 106.24 108.24
  C 112.22 108.48 121.03 110.66 120.99 103.17
  Q 120.94 94.49 120.98 85.75
  A 1.00 1.00 0.0 0 0 119.98 84.75
  L 117.18 84.75
  A 1.00 1.00 0.0 0 0 116.18 85.76
  L 116.28 102.84
  A 1.00 1.00 0.0 0 1 115.31 103.85"
/>
<path stroke="#e28378" vector-effect="non-scaling-stroke" d="
  M 140.75 97.21
  Q 144.55 98.23 145.41 94.97
  A 0.41 0.41 0.0 0 1 145.98 94.71
  L 146.29 94.85
  A 0.33 0.33 0.0 0 1 146.36 95.40
  Q 144.24 97.14 147.61 97.36
  A 1.01 1.01 0.0 0 0 148.68 96.45
  L 148.88 94.08
  A 1.01 1.00 -87.6 0 0 147.88 92.99
  L 141.50 93.04"
/>
<path stroke="#e28378" vector-effect="non-scaling-stroke" d="
  M 141.50 93.04
  Q 137.46 93.39 138.58 89.94
  A 1.00 0.99 8.8 0 1 139.53 89.25
  L 150.87 89.25
  A 1.00 1.00 0.0 0 0 151.87 88.25
  L 151.87 85.77
  A 1.00 0.99 -89.7 0 0 150.89 84.77
  C 149.75 84.76 141.08 84.43 140.90 85.23
  Q 140.83 85.51 141.18 85.86
  Q 142.26 86.91 140.79 87.21
  L 140.38 87.30
  Q 138.92 87.60 139.71 86.33
  L 139.93 85.97
  Q 140.69 84.75 139.25 84.75
  L 132.99 84.75
  A 1.00 1.00 0.0 0 0 131.99 85.80
  Q 132.04 86.69 132.50 87.52
  Q 133.65 89.61 133.67 90.25
  L 133.98 107.32
  A 1.01 1.01 0.0 0 0 134.97 108.31
  L 150.73 108.55
  A 1.01 1.00 0.3 0 0 151.75 107.55
  L 151.75 104.96
  A 1.00 1.00 0.0 0 0 150.86 103.97
  Q 148.58 103.72 147.99 106.10
  A 1.00 1.00 0.0 0 1 147.01 106.86
  Q 143.49 106.80 144.29 105.36
  A 0.80 0.78 29.7 0 1 145.39 105.07
  L 145.98 105.41
  A 0.80 0.80 0.0 0 0 147.17 104.85
  L 147.22 104.60
  A 0.52 0.51 5.3 0 0 146.72 104.00
  L 139.74 103.92
  A 1.00 1.00 0.0 0 1 138.75 102.92
  L 138.75 98.43
  A 1.00 1.00 0.0 0 1 139.55 97.45
  L 140.75 97.21"
/>
<path stroke="#ee4c43" vector-effect="non-scaling-stroke" d="
  M 141.50 93.04
  Q 140.73 94.18 141.34 95.06
  A 1.00 0.99 -47.3 0 1 141.38 96.13
  L 140.75 97.21"
/>
<path stroke="#e28378" vector-effect="non-scaling-stroke" d="
  M 165.22 84.97
  Q 159.86 84.36 163.58 88.32
  A 1.09 1.03 22.1 0 1 163.84 88.89
  C 164.55 95.09 164.01 101.24 164.21 107.48
  A 1.00 1.00 0.0 0 0 165.21 108.45
  L 180.69 108.47
  A 1.00 1.00 0.0 0 0 181.69 107.44
  L 181.62 104.98
  A 1.00 1.00 0.0 0 0 180.62 104.01
  L 170.00 103.99
  A 1.01 1.01 0.0 0 1 169.00 103.00
  Q 168.90 95.45 169.00 87.41
  C 169.03 85.21 168.19 83.81 165.74 84.89
  A 1.02 1.01 -53.4 0 1 165.22 84.97"
/>
<path stroke="#e28378" vector-effect="non-scaling-stroke" d="
  M 134.65 139.63
  A 23.52 23.52 0.0 0 0 111.13 116.11
  A 23.52 23.52 0.0 0 0 87.61 139.63
  A 23.52 23.52 0.0 0 0 111.13 163.15
  A 23.52 23.52 0.0 0 0 134.65 139.63"
/>
<path stroke="#7f7f79" vector-effect="non-scaling-stroke" d="
  M 84.91 136.44
  A 0.43 0.43 0.0 0 0 84.48 136.01
  L 67.20 136.01
  A 0.43 0.43 0.0 0 0 66.77 136.44
  L 66.77 136.58
  A 0.43 0.43 0.0 0 0 67.20 137.01
  L 84.48 137.01
  A 0.43 0.43 0.0 0 0 84.91 136.58
  L 84.91 136.44"
/>
<path stroke="#e28378" vector-effect="non-scaling-stroke" d="
  M 155.6697 136.4183
  A 0.45 0.45 0.0 0 0 155.2182 135.9699
  L 137.9783 136.0301
  A 0.45 0.45 0.0 0 0 137.5298 136.4817
  L 137.5303 136.6017
  A 0.45 0.45 0.0 0 0 137.9818 137.0501
  L 155.2217 136.9899
  A 0.45 0.45 0.0 0 0 155.6702 136.5383
  L 155.6697 136.4183"
/>
<path stroke="#a0948b" vector-effect="non-scaling-stroke" d="
  M 80.14 139.08
  Q 81.61 137.45 78.72 138.06
  Q 78.61 138.09 78.19 138.45
  Q 77.90 138.69 78.28 138.92
  A 0.65 0.62 11.6 0 1 78.57 139.34
  Q 79.36 142.97 79.89 139.60
  A 1.04 1.00 71.9 0 1 80.14 139.08"
/>
<path stroke="#a0948b" vector-effect="non-scaling-stroke" d="
  M 141.62 139.62
  L 141.14 139.86
  Q 138.85 141.02 141.42 141.07
  Q 142.72 141.10 142.99 139.33
  A 1.01 1.00 8.2 0 0 142.13 138.19
  Q 140.15 137.91 140.60 138.76
  A 0.52 0.51 68.8 0 0 141.18 139.02
  Q 141.40 138.96 141.57 139.01
  Q 142.35 139.25 141.62 139.62"
/>
<path stroke="#a0948b" vector-effect="non-scaling-stroke" d="
  M 149.22 139.78
  C 148.82 134.17 146.59 142.50 148.86 140.63
  A 1.01 1.00 68.2 0 0 149.22 139.78"
/>
<path stroke="#a0948b" vector-effect="non-scaling-stroke" d="
  M 151.56 138.19
  Q 149.19 137.46 149.97 139.95
  A 1.02 1.01 -7.1 0 0 150.88 140.65
  L 151.73 140.69
  A 1.00 1.00 0.0 0 0 152.78 139.73
  Q 152.83 138.58 151.56 138.19"
/>
<path stroke="#a0948b" vector-effect="non-scaling-stroke" d="
  M 72.25 140.08
  Q 71.84 139.68 72.09 139.18
  A 0.64 0.64 0.0 0 0 71.53 138.25
  L 69.98 138.24
  A 1.00 0.99 88.9 0 0 68.98 139.29
  Q 69.10 141.89 71.97 141.16
  Q 73.08 140.88 72.25 140.08"
/>
<path stroke="#a0948b" vector-effect="non-scaling-stroke" d="
  M 75.61 140.80
  Q 75.85 140.98 76.13 141.02
  A 0.64 0.64 0.0 0 0 76.82 140.56
  Q 77.72 137.42 74.30 138.29
  A 0.98 0.96 -88.3 0 0 73.60 138.96
  Q 72.79 141.53 74.60 140.70
  A 1.00 0.99 50.2 0 1 75.61 140.80"
/>
<path stroke="#a0948b" vector-effect="non-scaling-stroke" d="
  M 145.62 141.11
  A 1.01 1.00 18.5 0 0 146.82 140.52
  C 148.77 135.60 140.08 139.57 145.62 141.11"
/>
<path stroke="#e28378" vector-effect="non-scaling-stroke" d="
  M 85.12 142.74
  A 9.33 0.63 0.0 0 0 75.79 142.11
  A 9.33 0.63 0.0 0 0 66.46 142.74
  A 9.33 0.63 0.0 0 0 75.79 143.37
  A 9.33 0.63 0.0 0 0 85.12 142.74"
/>
<path stroke="#7f7f79" vector-effect="non-scaling-stroke" d="
  M 155.97 142.73
  A 0.48 0.48 0.0 0 0 155.49 142.25
  L 137.97 142.25
  A 0.48 0.48 0.0 0 0 137.49 142.73
  L 137.49 142.77
  A 0.48 0.48 0.0 0 0 137.97 143.25
  L 155.49 143.25
  A 0.48 0.48 0.0 0 0 155.97 142.77
  L 155.97 142.73"
/>
<path stroke="#7f7f79" vector-effect="non-scaling-stroke" d="
  M 74.9297 74.3596
  A 1.34 0.93 -1.3 0 0 73.5689 73.4602
  A 1.34 0.93 -1.3 0 0 72.2503 74.4204
  A 1.34 0.93 -1.3 0 0 73.6111 75.3198
  A 1.34 0.93 -1.3 0 0 74.9297 74.3596"
/>
<path stroke="#a0948b" vector-effect="non-scaling-stroke" d="
  M 79.9535 74.0690
  A 1.10 0.87 -14.8 0 0 78.6678 73.5089
  A 1.10 0.87 -14.8 0 0 77.8265 74.6310
  A 1.10 0.87 -14.8 0 0 79.1122 75.1911
  A 1.10 0.87 -14.8 0 0 79.9535 74.0690"
/>
<path stroke="#a0948b" vector-effect="non-scaling-stroke" d="
  M 87.43 74.88
  A 1.00 1.00 0.0 0 0 89.00 74.40
  Q 89.50 72.84 88.05 73.49
  Q 86.52 74.17 87.43 74.88"
/>
<path stroke="#a0948b" vector-effect="non-scaling-stroke" d="
  M 99.21 73.91
  C 97.54 76.05 101.92 75.46 100.80 73.94
  A 1.00 0.99 45.9 0 0 99.21 73.91"
/>
<path stroke="#a0948b" vector-effect="non-scaling-stroke" d="
  M 124.56 73.94
  Q 123.29 72.75 122.52 73.89
  A 0.80 0.80 0.0 0 0 122.68 74.96
  Q 124.13 76.14 124.95 74.37
  A 0.29 0.28 43.8 0 0 124.94 74.13
  Q 124.82 73.92 124.56 73.94"
/>
<path stroke="#e28378" vector-effect="non-scaling-stroke" d="
  M 54.75 89.78
  A 0.61 0.61 0.0 0 0 54.19 89.27
  L 51.61 89.12
  A 0.61 0.61 0.0 0 0 50.98 89.61
  L 49.79 95.77
  A 0.61 0.61 0.0 0 0 50.39 96.50
  L 55.20 96.50
  A 0.61 0.61 0.0 0 0 55.80 95.78
  L 54.75 89.78"
/>
<path stroke="#e28378" vector-effect="non-scaling-stroke" d="
  M 204.81 95.27
  Q 203.71 93.14 203.87 90.46
  A 0.99 0.98 -74.0 0 0 203.36 89.53
  C 198.90 87.08 199.49 92.74 198.64 95.05
  A 1.00 1.00 0.0 0 0 199.50 96.39
  L 203.85 96.73
  Q 205.63 96.87 204.81 95.27"
/>
<path stroke="#e28378" vector-effect="non-scaling-stroke" d="
  M 198.9096 90.6506
  A 1.40 0.76 7.0 0 0 197.6126 89.7257
  A 1.40 0.76 7.0 0 0 196.1304 90.3094
  A 1.40 0.76 7.0 0 0 197.4274 91.2343
  A 1.40 0.76 7.0 0 0 198.9096 90.6506"
/>
<path stroke="#e28378" vector-effect="non-scaling-stroke" d="
  M 26.88 91.12
  Q 29.52 89.33 26.33 89.29
  L 18.26 89.19
  A 1.00 1.00 0.0 0 0 17.25 90.19
  L 17.25 94.73
  A 1.00 1.00 0.0 0 0 18.65 95.65
  Q 22.96 93.77 26.88 91.12"
/>
<path stroke="#e28378" vector-effect="non-scaling-stroke" d="
  M 73.62 87.21
  L 73.82 87.53
  A 0.52 0.51 -40.3 0 0 74.64 87.59
  Q 76.01 86.00 74.30 85.99
  Q 72.83 85.97 73.62 87.21"
/>
<path stroke="#e28378" vector-effect="non-scaling-stroke" d="
  M 146.56 86.65
  C 145.74 85.33 140.54 87.38 146.12 87.43
  Q 147.04 87.44 146.56 86.65"
/>
<path stroke="#8b4844" vector-effect="non-scaling-stroke" d="
  M 133.10 139.70
  A 21.98 21.98 0.0 0 0 111.12 117.72
  A 21.98 21.98 0.0 0 0 89.14 139.70
  A 21.98 21.98 0.0 0 0 111.12 161.68
  A 21.98 21.98 0.0 0 0 133.10 139.70"
/>
<path stroke="#7f7f79" vector-effect="non-scaling-stroke" d="
  M 131.99 139.74
  A 20.84 20.84 0.0 0 0 111.15 118.90
  A 20.84 20.84 0.0 0 0 90.31 139.74
  A 20.84 20.84 0.0 0 0 111.15 160.58
  A 20.84 20.84 0.0 0 0 131.99 139.74"
/>
<path stroke="#7f7f79" vector-effect="non-scaling-stroke" d="
  M 104.29 133.25
  L 104.29 134.75"
/>
<path stroke="#a0948b" vector-effect="non-scaling-stroke" d="
  M 104.29 134.75
  Q 104.80 139.93 109.75 141.11
  A 1.01 1.01 0.0 0 1 110.52 142.10
  L 110.44 147.81
  A 0.41 0.40 84.5 0 0 110.93 148.22
  L 111.24 148.16
  A 0.65 0.64 -6.1 0 0 111.75 147.53
  L 111.75 141.95
  A 1.00 1.00 0.0 0 1 112.60 140.96
  Q 117.26 140.25 117.54 135.50"
/>
<path stroke="#7f7f79" vector-effect="non-scaling-stroke" d="
  M 117.54 135.50
  L 117.71 133.25"
/>
<path stroke="#a0948b" vector-effect="non-scaling-stroke" d="
  M 117.71 133.25
  Q 118.31 129.44 116.81 126.08
  A 1.02 1.00 77.7 0 0 115.89 125.48
  L 106.30 125.51
  A 1.01 0.99 9.3 0 0 105.35 126.18
  Q 104.16 129.66 104.29 133.25"
/>
<path stroke="#495958" vector-effect="non-scaling-stroke" d="
  M 117.71 133.25
  Q 116.37 130.34 116.45 127.40
  A 1.00 1.00 0.0 0 0 115.45 126.37
  L 107.98 126.38
  Q 105.53 126.39 105.63 128.38
  Q 105.80 131.87 104.29 133.25"
/>
<path stroke="#495958" vector-effect="non-scaling-stroke" d="
  M 117.54 135.50
  L 115.25 138.04"
/>
<path stroke="#8b4844" vector-effect="non-scaling-stroke" d="
  M 115.25 138.04
  L 114.25 137.46"
/>
<path stroke="#7f7f79" vector-effect="non-scaling-stroke" d="
  M 114.25 137.46
  C 116.75 134.71 113.20 136.66 112.49 136.57
  Q 108.14 136.01 108.62 132.12
  Q 109.04 128.78 107.17 131.58
  Q 105.43 134.17 107.79 137.50"
/>
<path stroke="#8b4844" vector-effect="non-scaling-stroke" d="
  M 107.79 137.50
  L 106.79 137.75"
/>
<path stroke="#495958" vector-effect="non-scaling-stroke" d="
  M 106.79 137.75
  L 104.29 134.75"
/>
<path stroke="#e28378" vector-effect="non-scaling-stroke" d="
  M 114.25 137.46
  Q 111.07 139.64 107.79 137.50"
/>
<path stroke="#ac5d57" vector-effect="non-scaling-stroke" d="
  M 106.79 137.75
  L 106.92 138.38
  A 1.06 1.04 11.5 0 0 107.33 138.99
  Q 111.78 142.08 115.25 138.04"
/>
<path stroke="#a0948b" vector-effect="non-scaling-stroke" d="
  M 99.79 131.67
  Q 99.17 129.49 97.46 129.92
  A 1.02 1.02 0.0 0 0 96.73 130.65
  Q 96.34 132.28 94.87 132.84
  A 1.01 1.01 0.0 0 0 94.23 133.85
  Q 94.41 136.45 96.96 135.42
  A 1.00 0.97 40.6 0 1 97.60 135.38
  L 99.83 136.00
  A 1.02 1.02 0.0 0 0 100.76 135.79
  Q 103.43 133.49 100.40 132.33
  A 1.02 1.01 2.5 0 1 99.79 131.67"
/>
<path stroke="#a0948b" vector-effect="non-scaling-stroke" d="
  M 125.70 131.61
  C 124.57 126.85 122.34 132.48 120.67 133.11
  A 0.66 0.66 0.0 0 0 120.25 133.78
  L 120.28 134.04
  A 0.27 0.26 -12.2 0 0 120.63 134.26
  Q 122.70 133.53 122.96 131.66
  A 1.00 1.00 0.0 0 1 124.19 130.83
  Q 125.14 131.06 125.11 131.89
  A 0.99 0.99 0.0 0 0 125.67 132.81
  Q 126.54 133.24 127.02 134.08
  A 0.64 0.64 0.0 0 1 126.49 135.04
  L 126.15 135.06
  A 1.00 1.00 0.0 0 1 125.16 134.36
  Q 124.60 132.63 123.73 133.97
  A 0.80 0.80 0.0 0 0 124.16 135.17
  L 126.20 135.80
  A 1.01 1.00 -65.4 0 0 127.34 135.37
  Q 128.86 132.96 126.42 132.35
  A 1.00 0.97 89.8 0 1 125.70 131.61"
/>
<path stroke="#a0948b" vector-effect="non-scaling-stroke" d="
  M 95.90 142.38
  Q 99.52 142.15 96.54 140.58
  A 0.52 0.51 -70.2 0 1 96.28 140.02
  C 96.41 139.44 97.16 139.76 97.45 140.10
  C 99.35 142.24 98.48 139.56 98.65 138.74
  Q 99.64 133.90 98.09 138.56
  A 0.51 0.51 0.0 0 1 97.35 138.84
  L 97.06 138.68
  A 1.01 0.99 -43.2 0 0 96.12 138.66
  L 93.43 140.02
  A 1.00 0.99 62.3 0 0 93.01 141.39
  L 94.82 144.71
  A 0.64 0.63 63.9 0 0 95.63 144.99
  L 95.97 144.85
  Q 97.17 144.35 95.94 143.90
  Q 95.35 143.69 95.30 143.07
  A 0.64 0.63 -4.4 0 1 95.90 142.38"
/>
<path stroke="#e28378" vector-effect="non-scaling-stroke" d="
  M 99.74 139.28
  C 100.22 140.85 98.32 142.47 98.90 142.86
  A 0.64 0.64 0.0 0 0 99.83 142.62
  L 101.16 140.02
  A 0.80 0.79 -76.6 0 0 100.45 138.86
  L 100.06 138.86
  A 0.33 0.33 0.0 0 0 99.74 139.28"
/>
<path stroke="#a0948b" vector-effect="non-scaling-stroke" d="
  M 121.54 140.75
  Q 121.62 143.51 122.91 142.91
  A 0.51 0.51 0.0 0 0 123.11 142.15
  L 121.96 140.50"
/>
<path stroke="#e28378" vector-effect="non-scaling-stroke" d="
  M 121.96 140.50
  Q 122.73 138.91 121.74 138.83
  A 0.80 0.80 0.0 0 0 120.90 139.82
  Q 121.03 140.34 121.54 140.75"
/>
<path stroke="#ac5d57" vector-effect="non-scaling-stroke" d="
  M 121.96 140.50
  L 121.54 140.75"
/>
<path stroke="#a0948b" vector-effect="non-scaling-stroke" d="
  M 128.52 140.89
  C 133.11 141.93 126.29 138.32 127.94 140.52
  A 1.01 0.99 -11.9 0 0 128.52 140.89"
/>
<path stroke="#e28378" vector-effect="non-scaling-stroke" d="
  M 99.96 144.75
  Q 98.47 144.40 98.15 145.39
  A 0.64 0.64 0.0 0 0 98.53 146.19
  Q 99.46 146.54 100.29 145.75"
/>
<path stroke="#a0948b" vector-effect="non-scaling-stroke" d="
  M 100.29 145.75
  Q 101.56 146.28 102.20 147.53
  A 0.34 0.17 64.7 0 1 102.19 147.94
  L 101.90 148.02
  A 0.63 0.63 0.0 0 1 101.29 147.87
  Q 100.38 147.00 99.47 148.28
  A 1.08 1.03 65.6 0 0 99.28 148.82
  Q 99.24 149.90 98.57 150.73
  A 1.00 1.00 0.0 0 0 98.89 152.25
  Q 100.71 153.18 102.88 153.01
  A 1.00 1.00 0.0 0 0 103.69 151.56
  Q 103.33 150.85 103.62 150.31
  A 0.80 0.80 0.0 0 1 104.77 150.02
  L 107.70 151.94
  Q 109.53 153.13 107.43 153.74
  Q 101.69 155.38 108.77 154.04
  Q 112.50 153.33 116.48 154.79
  Q 117.13 155.03 117.35 154.69
  A 0.27 0.27 0.0 0 0 117.18 154.29
  L 114.30 153.68
  Q 112.03 153.20 114.11 152.18
  Q 117.88 150.33 120.30 146.86
  A 0.41 0.41 0.0 0 0 120.10 146.23
  Q 119.59 146.07 119.34 146.80
  Q 119.07 147.58 118.45 148.14
  A 0.80 0.80 0.0 0 1 117.16 147.79
  Q 116.90 146.99 116.13 147.27
  A 0.81 0.81 0.0 0 0 115.77 148.51
  L 116.06 148.89
  A 1.01 1.00 50.0 0 1 115.95 150.22
  Q 111.10 154.76 106.41 150.29
  A 1.00 1.00 0.0 0 1 106.39 148.86
  Q 107.07 148.17 106.48 147.46
  A 0.64 0.64 0.0 0 0 105.45 147.53
  Q 103.59 150.43 103.14 146.84
  A 0.99 0.98 -79.7 0 0 102.62 146.08
  C 99.71 144.55 102.69 142.21 102.96 143.31
  A 0.42 0.40 -29.6 0 1 102.84 143.71
  Q 101.57 144.86 102.95 145.13
  A 1.00 0.99 -66.2 0 0 103.96 144.73
  C 104.19 144.40 105.68 142.62 105.79 143.53
  A 0.50 0.47 65.1 0 1 105.65 143.96
  Q 102.71 146.85 106.21 145.16
  A 1.01 0.99 -25.9 0 0 106.68 143.83
  L 105.36 141.06
  A 1.00 1.00 0.0 0 0 103.68 140.86
  L 103.21 141.44
  A 1.03 0.99 -76.4 0 1 102.69 141.77
  Q 100.51 142.34 99.96 144.75"
/>
<path stroke="#ac5d57" vector-effect="non-scaling-stroke" d="
  M 100.29 145.75
  L 99.96 144.75"
/>
<path stroke="#a0948b" vector-effect="non-scaling-stroke" d="
  M 126.97 141.40
  Q 126.48 140.34 125.65 140.92
  A 0.52 0.51 42.6 0 0 125.69 141.79
  L 127.72 142.95
  A 0.65 0.64 30.0 0 0 128.59 142.72
  Q 129.10 141.84 128.00 141.98
  A 1.01 0.99 73.9 0 1 126.97 141.40"
/>
<path stroke="#a0948b" vector-effect="non-scaling-stroke" d="
  M 120.50 143.63
  Q 120.91 146.19 123.84 146.15
  A 0.32 0.32 0.0 0 0 124.15 145.73
  L 124.07 145.47
  A 0.80 0.80 0.0 0 0 122.95 144.99
  C 121.33 145.77 121.77 142.19 119.50 141.60
  Q 118.79 141.42 119.01 142.12
  Q 119.17 142.63 119.81 142.84
  A 1.02 1.00 4.5 0 1 120.50 143.63"
/>
<path stroke="#a0948b" vector-effect="non-scaling-stroke" d="
  M 118.94 143.50
  C 116.23 140.17 118.81 148.27 119.16 144.21
  A 0.96 0.95 28.0 0 0 118.94 143.50"
/>
<path stroke="#a0948b" vector-effect="non-scaling-stroke" d="
  M 119.64 149.33
  C 117.67 150.36 120.71 150.71 120.82 151.56
  A 0.51 0.51 0.0 0 1 120.20 152.12
  Q 117.51 151.49 119.92 153.03
  A 1.01 0.98 49.8 0 0 120.81 153.12
  L 123.50 152.11
  A 1.01 1.01 0.0 0 0 124.05 150.74
  Q 121.61 145.63 120.08 148.87
  A 1.08 1.06 89.4 0 1 119.64 149.33"
/>
<path stroke="#a0948b" vector-effect="non-scaling-stroke" d="
  M 110.46 149.20
  L 110.21 148.96
  A 1.00 1.00 0.0 0 0 108.95 148.86
  Q 106.92 150.26 110.22 149.91
  Q 111.09 149.81 110.46 149.20"
/>
<path stroke="#a0948b" vector-effect="non-scaling-stroke" d="
  M 111.37 149.26
  Q 111.16 149.41 111.37 149.88
  A 0.65 0.65 0.0 0 0 112.06 150.24
  C 116.12 149.53 112.44 148.11 111.86 148.90
  Q 111.84 148.93 111.37 149.26"
/>
<path stroke="#495958" vector-effect="non-scaling-stroke" d="
  M 112.75 129.75
  C 115.08 129.97 112.60 127.84 112.30 129.12
  A 0.52 0.52 0.0 0 0 112.75 129.75"
/>
<path stroke="#495958" vector-effect="non-scaling-stroke" d="
  M 111.7764 132.2979
  A 0.64 0.51 -15.6 0 0 111.0229 131.9788
  A 0.64 0.51 -15.6 0 0 110.5436 132.6421
  A 0.64 0.51 -15.6 0 0 111.2971 132.9612
  A 0.64 0.51 -15.6 0 0 111.7764 132.2979"
/>
<path stroke="#495958" vector-effect="non-scaling-stroke" d="
  M 115.2064 132.6421
  A 0.64 0.51 15.6 0 0 114.7271 131.9788
  A 0.64 0.51 15.6 0 0 113.9736 132.2979
  A 0.64 0.51 15.6 0 0 114.4529 132.9612
  A 0.64 0.51 15.6 0 0 115.2064 132.6421"
/>
<path stroke="#a0948b" vector-effect="non-scaling-stroke" d="
  M 99.02 131.90
  Q 99.01 130.85 98.00 130.75
  A 1.00 1.00 0.0 0 0 96.97 131.37
  Q 96.37 132.87 98.22 133.31
  A 1.01 0.99 85.9 0 1 98.93 133.94
  Q 99.30 134.94 100.32 135.02
  Q 102.23 135.15 100.79 133.90
  L 99.36 132.65
  A 1.01 1.00 20.9 0 1 99.02 131.90"
/>
<path stroke="#a0948b" vector-effect="non-scaling-stroke" d="
  M 95.24 134.89
  C 96.36 135.79 97.88 133.33 96.79 133.04
  A 1.04 1.03 29.7 0 0 95.82 133.30
  L 95.19 133.94
  A 0.64 0.64 0.0 0 0 95.24 134.89"
/>
<path stroke="#a0948b" vector-effect="non-scaling-stroke" d="
  M 94.15 142.04
  Q 95.06 142.28 95.23 140.82
  A 0.51 0.50 -86.5 0 0 94.73 140.25
  Q 93.84 140.24 93.77 141.51
  A 0.51 0.51 0.0 0 0 94.15 142.04"
/>
<path stroke="#a0948b" vector-effect="non-scaling-stroke" d="
  M 144.99 139.66
  Q 144.98 140.89 146.26 139.70
  Q 146.69 139.30 146.13 139.14
  L 145.81 139.05
  A 0.64 0.64 0.0 0 0 144.99 139.66"
/>
<path stroke="#a0948b" vector-effect="non-scaling-stroke" d="
  M 122.82 151.47
  C 123.69 148.17 120.33 152.31 122.16 152.06
  A 0.81 0.79 2.6 0 0 122.82 151.47"
/>
</g>
<g fill="#d5baac">
<path d="
  M 0.00 0.00
  L 225.00 0.00
  L 225.00 225.00
  L 0.00 225.00
  L 0.00 0.00
  Z
  M 66.69 73.19
  Q 66.04 74.91 66.80 75.46
  Q 68.12 76.41 67.81 74.81
  L 67.44 72.97
  A 0.28 0.28 0.0 0 0 67.23 72.76
  Q 66.87 72.69 66.69 73.19
  Z
  M 75.6597 74.4127
  A 2.08 1.61 0.9 0 0 73.6053 72.7702
  A 2.08 1.61 0.9 0 0 71.5003 74.3473
  A 2.08 1.61 0.9 0 0 73.5547 75.9898
  A 2.08 1.61 0.9 0 0 75.6597 74.4127
  Z
  M 80.65 75.08
  C 81.80 72.40 76.12 71.31 77.00 75.18
  A 1.00 0.99 78.9 0 0 78.13 75.94
  L 79.88 75.67
  A 1.03 1.00 6.9 0 0 80.65 75.08
  Z
  M 83.28 74.12
  Q 83.61 73.05 85.05 73.56
  Q 85.74 73.80 85.59 73.09
  C 85.50 72.70 81.31 72.06 82.03 75.01
  A 1.01 1.00 -7.0 0 0 83.01 75.77
  Q 88.32 75.75 83.78 74.94
  A 0.64 0.64 0.0 0 1 83.28 74.12
  Z
  M 88.59 72.59
  A 1.01 1.00 37.0 0 0 87.23 72.78
  C 83.57 77.31 94.48 76.76 88.59 72.59
  Z
  M 101.63 75.16
  C 102.98 72.40 97.03 71.42 97.99 75.17
  A 1.00 1.00 0.0 0 0 99.07 75.91
  L 100.84 75.72
  A 1.00 1.00 0.0 0 0 101.63 75.16
  Z
  M 104.60 74.29
  Q 104.58 74.05 104.78 73.76
  Q 105.76 72.40 104.13 72.76
  Q 102.54 73.12 103.09 75.05
  A 0.99 0.98 -7.7 0 0 104.04 75.77
  C 109.26 75.81 104.64 74.71 104.60 74.29
  Z
  M 110.51 73.59
  Q 110.36 73.32 110.15 73.09
  Q 108.87 71.67 109.46 73.49
  Q 109.84 74.65 110.73 75.37
  A 1.00 1.00 0.0 0 0 112.27 75.01
  Q 113.67 71.96 112.15 73.77
  A 1.00 0.99 51.2 0 1 110.51 73.59
  Z
  M 125.6284 74.4710
  A 2.11 1.60 2.2 0 0 123.5814 72.7912
  A 2.11 1.60 2.2 0 0 121.4116 74.3090
  A 2.11 1.60 2.2 0 0 123.4586 75.9888
  A 2.11 1.60 2.2 0 0 125.6284 74.4710
  Z
  M 131.50 73.85
  Q 133.11 71.93 130.91 73.53
  A 0.81 0.80 -39.3 0 1 129.85 73.43
  Q 129.68 73.25 129.46 73.13
  Q 127.85 72.25 128.94 73.73
  L 129.74 74.82
  Q 130.60 75.99 131.13 74.64
  Q 131.19 74.49 131.23 74.34
  Q 131.33 74.05 131.50 73.85
  Z
  M 136.01 72.84
  L 135.76 72.74
  Q 135.45 72.62 135.53 73.09
  Q 136.25 77.70 137.18 74.17
  A 1.09 1.02 -15.1 0 1 137.49 73.67
  Q 139.00 72.34 136.37 72.87
  A 0.65 0.59 47.4 0 1 136.01 72.84
  Z
  M 141.82 74.21
  Q 141.73 74.07 141.66 73.89
  C 141.19 72.72 140.23 72.65 139.66 73.75
  Q 137.97 76.94 139.88 75.12
  A 1.00 1.00 0.0 0 1 141.28 75.14
  Q 142.32 76.20 144.03 75.47
  Q 145.73 74.74 146.81 74.70
  A 0.52 0.51 -14.6 0 0 147.25 73.95
  L 147.10 73.67
  A 0.80 0.80 0.0 0 0 145.76 73.54
  Q 145.03 74.47 144.78 73.48
  Q 144.33 71.73 143.79 73.46
  L 143.63 73.99
  Q 142.98 76.08 141.82 74.21
  Z
  M 155.21 73.24
  Q 151.84 71.78 152.58 74.55
  A 0.65 0.63 -35.4 0 1 152.48 75.09
  C 151.84 75.99 157.25 77.41 155.74 73.77
  A 1.02 1.02 0.0 0 0 155.21 73.24
  Z
  M 68.83 73.87
  Q 68.08 75.29 69.26 75.71
  A 0.65 0.64 -82.4 0 0 70.12 75.05
  L 70.03 74.11
  Q 69.84 71.95 68.83 73.87
  Z
  M 93.66 74.32
  Q 94.06 74.52 94.00 75.00
  A 0.65 0.64 19.1 0 0 94.32 75.65
  C 95.58 76.35 95.21 75.07 94.90 74.58
  Q 93.02 71.62 91.66 74.85
  Q 90.91 76.62 92.44 75.46
  Q 92.87 75.14 93.09 74.54
  A 0.41 0.41 0.0 0 1 93.66 74.32
  Z
  M 114.67 73.10
  C 113.40 72.31 114.30 79.02 114.91 73.59
  A 0.52 0.52 0.0 0 0 114.67 73.10
  Z
  M 118.42 74.89
  L 119.43 75.72
  A 0.40 0.40 0.0 0 0 119.92 75.74
  Q 120.37 75.43 120.00 75.00
  A 0.99 0.99 0.0 0 1 119.79 74.16
  Q 120.18 72.22 119.28 73.47
  A 0.80 0.79 -43.5 0 1 117.96 73.44
  Q 117.65 72.97 117.10 73.00
  A 0.66 0.64 2.8 0 0 116.51 73.52
  Q 115.86 76.94 116.93 75.16
  A 1.00 1.00 0.0 0 1 118.42 74.89
  Z
  M 150.01 75.11
  Q 150.26 75.33 150.55 75.47
  Q 151.81 76.11 151.25 74.81
  Q 149.74 71.29 147.79 74.77
  Q 146.94 76.28 148.56 75.69
  Q 148.88 75.57 149.04 75.29
  A 0.64 0.64 0.0 0 1 150.01 75.11
  Z
  M 60.25 102.77
  L 60.25 102.51
  A 0.21 0.21 0.0 0 1 60.46 102.30
  Q 61.98 102.33 61.72 101.00
  Q 60.73 95.93 59.76 90.84
  C 59.51 89.48 58.51 88.19 58.96 86.23
  A 0.99 0.97 -51.8 0 0 58.89 85.58
  L 58.73 85.24
  Q 58.40 84.51 58.13 85.27
  Q 56.99 88.49 56.99 85.76
  A 1.00 1.00 0.0 0 0 56.02 84.77
  Q 52.39 84.63 48.77 84.87
  C 46.94 84.99 43.75 83.07 44.27 86.87
  A 1.01 0.99 -86.1 0 0 44.98 87.70
  L 45.60 87.87
  A 1.02 1.01 13.4 0 1 46.31 89.02
  L 42.95 107.32
  A 1.00 1.00 0.0 0 0 43.93 108.50
  L 46.62 108.51
  A 1.01 1.01 0.0 0 0 47.61 107.30
  L 47.46 106.63
  Q 47.41 106.39 47.48 106.15
  L 48.74 101.73
  A 1.01 1.00 -81.9 0 1 49.70 101.00
  L 56.08 101.00
  A 1.00 1.00 0.0 0 1 57.06 101.82
  L 58.10 107.53
  A 1.00 0.98 2.4 0 0 58.83 108.31
  Q 64.65 109.86 62.34 105.66
  A 1.06 1.01 -54.5 0 1 62.24 104.95
  Q 62.72 102.91 60.53 103.03
  A 0.27 0.26 -1.1 0 1 60.25 102.77
  Z
  M 195.17 89.29
  L 191.65 107.32
  A 1.00 1.00 0.0 0 0 192.53 108.51
  Q 194.12 108.67 195.66 108.34
  A 1.01 1.00 -1.8 0 0 196.43 107.53
  L 197.44 101.83
  A 1.01 1.01 0.0 0 1 198.43 101.00
  L 204.90 101.00
  A 1.00 0.99 -4.8 0 1 205.88 101.82
  L 206.89 107.40
  A 0.99 0.99 0.0 0 0 207.79 108.22
  L 210.54 108.45
  A 1.00 1.00 0.0 0 0 211.61 107.28
  L 207.62 85.47
  A 1.01 1.00 -5.4 0 0 206.62 84.65
  L 194.47 84.78
  A 1.00 1.00 0.0 0 0 193.52 85.51
  Q 192.95 87.55 194.55 88.17
  A 1.00 1.00 0.0 0 1 195.17 89.29
  Z
  M 16.33 104.27
  Q 16.53 104.14 16.76 104.00
  A 1.02 1.01 76.6 0 0 17.24 103.21
  L 17.32 101.91
  A 1.02 1.00 78.5 0 1 17.86 101.08
  L 22.82 98.51
  A 1.00 1.00 0.0 0 1 24.25 99.14
  L 26.45 107.50
  A 1.02 1.01 81.6 0 0 27.45 108.25
  L 29.48 108.19
  Q 29.69 108.19 29.87 108.26
  C 33.08 109.51 30.71 106.15 30.52 104.93
  Q 29.84 100.63 28.46 96.47
  A 1.00 0.99 61.6 0 1 28.78 95.38
  L 30.30 94.15
  Q 30.49 94.00 30.59 93.78
  C 33.88 86.29 28.79 84.66 22.70 84.71
  Q 17.27 84.76 11.80 84.81
  A 1.00 1.00 0.0 0 0 10.81 85.84
  L 10.87 87.61
  A 0.41 0.40 -0.7 0 0 11.28 88.00
  L 11.62 88.00
  A 1.01 1.00 -90.0 0 1 12.62 89.01
  L 12.50 107.49
  A 1.00 1.00 0.0 0 0 13.50 108.50
  L 16.21 108.50
  A 0.99 0.99 0.0 0 0 17.17 107.75
  Q 17.75 105.55 16.62 105.44
  Q 14.83 105.26 16.33 104.27
  Z
  M 75.31 84.94
  Q 73.27 84.57 71.26 84.79
  A 1.00 1.00 0.0 0 0 70.37 85.70
  Q 70.18 87.92 72.08 87.91
  A 1.03 1.00 75.6 0 1 72.97 88.45
  Q 75.35 93.00 77.82 97.54
  C 79.52 100.67 78.86 103.95 78.65 107.45
  A 0.99 0.99 0.0 0 0 79.65 108.50
  L 82.48 108.50
  A 1.00 1.00 0.0 0 0 83.48 107.50
  Q 83.49 104.43 83.52 101.38
  Q 83.53 99.27 84.57 97.42
  Q 87.71 91.84 90.86 86.23
  Q 91.72 84.70 89.97 84.74
  L 86.69 84.81
  A 1.03 1.01 12.2 0 0 85.81 85.37
  L 82.17 92.66
  Q 81.29 94.42 80.39 92.67
  L 76.56 85.26
  A 0.79 0.79 0.0 0 0 76.10 84.87
  Q 75.67 84.72 75.31 84.94
  Z
  M 115.31 103.85
  L 107.73 104.04
  A 1.01 1.00 -0.3 0 1 106.70 103.03
  L 106.88 85.78
  A 1.00 1.00 0.0 0 0 105.88 84.77
  L 101.15 84.74
  A 1.01 1.00 5.6 0 0 100.16 85.55
  Q 99.75 87.60 101.41 88.18
  A 1.01 1.00 -79.9 0 1 102.07 89.14
  Q 101.91 101.79 102.04 104.51
  Q 102.21 108.08 106.24 108.24
  C 112.22 108.48 121.03 110.66 120.99 103.17
  Q 120.94 94.49 120.98 85.75
  A 1.00 1.00 0.0 0 0 119.98 84.75
  L 117.18 84.75
  A 1.00 1.00 0.0 0 0 116.18 85.76
  L 116.28 102.84
  A 1.00 1.00 0.0 0 1 115.31 103.85
  Z
  M 140.75 97.21
  Q 144.55 98.23 145.41 94.97
  A 0.41 0.41 0.0 0 1 145.98 94.71
  L 146.29 94.85
  A 0.33 0.33 0.0 0 1 146.36 95.40
  Q 144.24 97.14 147.61 97.36
  A 1.01 1.01 0.0 0 0 148.68 96.45
  L 148.88 94.08
  A 1.01 1.00 -87.6 0 0 147.88 92.99
  L 141.50 93.04
  Q 137.46 93.39 138.58 89.94
  A 1.00 0.99 8.8 0 1 139.53 89.25
  L 150.87 89.25
  A 1.00 1.00 0.0 0 0 151.87 88.25
  L 151.87 85.77
  A 1.00 0.99 -89.7 0 0 150.89 84.77
  C 149.75 84.76 141.08 84.43 140.90 85.23
  Q 140.83 85.51 141.18 85.86
  Q 142.26 86.91 140.79 87.21
  L 140.38 87.30
  Q 138.92 87.60 139.71 86.33
  L 139.93 85.97
  Q 140.69 84.75 139.25 84.75
  L 132.99 84.75
  A 1.00 1.00 0.0 0 0 131.99 85.80
  Q 132.04 86.69 132.50 87.52
  Q 133.65 89.61 133.67 90.25
  L 133.98 107.32
  A 1.01 1.01 0.0 0 0 134.97 108.31
  L 150.73 108.55
  A 1.01 1.00 0.3 0 0 151.75 107.55
  L 151.75 104.96
  A 1.00 1.00 0.0 0 0 150.86 103.97
  Q 148.58 103.72 147.99 106.10
  A 1.00 1.00 0.0 0 1 147.01 106.86
  Q 143.49 106.80 144.29 105.36
  A 0.80 0.78 29.7 0 1 145.39 105.07
  L 145.98 105.41
  A 0.80 0.80 0.0 0 0 147.17 104.85
  L 147.22 104.60
  A 0.52 0.51 5.3 0 0 146.72 104.00
  L 139.74 103.92
  A 1.00 1.00 0.0 0 1 138.75 102.92
  L 138.75 98.43
  A 1.00 1.00 0.0 0 1 139.55 97.45
  L 140.75 97.21
  Z
  M 165.22 84.97
  Q 159.86 84.36 163.58 88.32
  A 1.09 1.03 22.1 0 1 163.84 88.89
  C 164.55 95.09 164.01 101.24 164.21 107.48
  A 1.00 1.00 0.0 0 0 165.21 108.45
  L 180.69 108.47
  A 1.00 1.00 0.0 0 0 181.69 107.44
  L 181.62 104.98
  A 1.00 1.00 0.0 0 0 180.62 104.01
  L 170.00 103.99
  A 1.01 1.01 0.0 0 1 169.00 103.00
  Q 168.90 95.45 169.00 87.41
  C 169.03 85.21 168.19 83.81 165.74 84.89
  A 1.02 1.01 -53.4 0 1 165.22 84.97
  Z
  M 134.65 139.63
  A 23.52 23.52 0.0 0 0 111.13 116.11
  A 23.52 23.52 0.0 0 0 87.61 139.63
  A 23.52 23.52 0.0 0 0 111.13 163.15
  A 23.52 23.52 0.0 0 0 134.65 139.63
  Z
  M 84.91 136.44
  A 0.43 0.43 0.0 0 0 84.48 136.01
  L 67.20 136.01
  A 0.43 0.43 0.0 0 0 66.77 136.44
  L 66.77 136.58
  A 0.43 0.43 0.0 0 0 67.20 137.01
  L 84.48 137.01
  A 0.43 0.43 0.0 0 0 84.91 136.58
  L 84.91 136.44
  Z
  M 155.6697 136.4183
  A 0.45 0.45 0.0 0 0 155.2182 135.9699
  L 137.9783 136.0301
  A 0.45 0.45 0.0 0 0 137.5298 136.4817
  L 137.5303 136.6017
  A 0.45 0.45 0.0 0 0 137.9818 137.0501
  L 155.2217 136.9899
  A 0.45 0.45 0.0 0 0 155.6702 136.5383
  L 155.6697 136.4183
  Z
  M 80.14 139.08
  Q 81.61 137.45 78.72 138.06
  Q 78.61 138.09 78.19 138.45
  Q 77.90 138.69 78.28 138.92
  A 0.65 0.62 11.6 0 1 78.57 139.34
  Q 79.36 142.97 79.89 139.60
  A 1.04 1.00 71.9 0 1 80.14 139.08
  Z
  M 141.62 139.62
  L 141.14 139.86
  Q 138.85 141.02 141.42 141.07
  Q 142.72 141.10 142.99 139.33
  A 1.01 1.00 8.2 0 0 142.13 138.19
  Q 140.15 137.91 140.60 138.76
  A 0.52 0.51 68.8 0 0 141.18 139.02
  Q 141.40 138.96 141.57 139.01
  Q 142.35 139.25 141.62 139.62
  Z
  M 149.22 139.78
  C 148.82 134.17 146.59 142.50 148.86 140.63
  A 1.01 1.00 68.2 0 0 149.22 139.78
  Z
  M 151.56 138.19
  Q 149.19 137.46 149.97 139.95
  A 1.02 1.01 -7.1 0 0 150.88 140.65
  L 151.73 140.69
  A 1.00 1.00 0.0 0 0 152.78 139.73
  Q 152.83 138.58 151.56 138.19
  Z
  M 72.25 140.08
  Q 71.84 139.68 72.09 139.18
  A 0.64 0.64 0.0 0 0 71.53 138.25
  L 69.98 138.24
  A 1.00 0.99 88.9 0 0 68.98 139.29
  Q 69.10 141.89 71.97 141.16
  Q 73.08 140.88 72.25 140.08
  Z
  M 75.61 140.80
  Q 75.85 140.98 76.13 141.02
  A 0.64 0.64 0.0 0 0 76.82 140.56
  Q 77.72 137.42 74.30 138.29
  A 0.98 0.96 -88.3 0 0 73.60 138.96
  Q 72.79 141.53 74.60 140.70
  A 1.00 0.99 50.2 0 1 75.61 140.80
  Z
  M 145.62 141.11
  A 1.01 1.00 18.5 0 0 146.82 140.52
  C 148.77 135.60 140.08 139.57 145.62 141.11
  Z
  M 85.12 142.74
  A 9.33 0.63 0.0 0 0 75.79 142.11
  A 9.33 0.63 0.0 0 0 66.46 142.74
  A 9.33 0.63 0.0 0 0 75.79 143.37
  A 9.33 0.63 0.0 0 0 85.12 142.74
  Z
  M 155.97 142.73
  A 0.48 0.48 0.0 0 0 155.49 142.25
  L 137.97 142.25
  A 0.48 0.48 0.0 0 0 137.49 142.73
  L 137.49 142.77
  A 0.48 0.48 0.0 0 0 137.97 143.25
  L 155.49 143.25
  A 0.48 0.48 0.0 0 0 155.97 142.77
  L 155.97 142.73
  Z"
/>
<path d="
  M 87.43 74.88
  Q 86.52 74.17 88.05 73.49
  Q 89.50 72.84 89.00 74.40
  A 1.00 1.00 0.0 0 1 87.43 74.88
  Z"
/>
<path d="
  M 124.56 73.94
  Q 124.82 73.92 124.94 74.13
  A 0.29 0.28 43.8 0 1 124.95 74.37
  Q 124.13 76.14 122.68 74.96
  A 0.80 0.80 0.0 0 1 122.52 73.89
  Q 123.29 72.75 124.56 73.94
  Z"
/>
<ellipse cx="0.00" cy="0.00" transform="translate(73.59,74.39) rotate(-1.3)" rx="1.34" ry="0.93"/>
<ellipse cx="0.00" cy="0.00" transform="translate(78.89,74.35) rotate(-14.8)" rx="1.10" ry="0.87"/>
<path d="
  M 99.21 73.91
  A 1.00 0.99 45.9 0 1 100.80 73.94
  C 101.92 75.46 97.54 76.05 99.21 73.91
  Z"
/>
<path d="
  M 74.30 85.99
  Q 76.01 86.00 74.64 87.59
  A 0.52 0.51 -40.3 0 1 73.82 87.53
  L 73.62 87.21
  Q 72.83 85.97 74.30 85.99
  Z"
/>
<path d="
  M 146.12 87.43
  C 140.54 87.38 145.74 85.33 146.56 86.65
  Q 147.04 87.44 146.12 87.43
  Z"
/>
<path d="
  M 26.88 91.12
  Q 22.96 93.77 18.65 95.65
  A 1.00 1.00 0.0 0 1 17.25 94.73
  L 17.25 90.19
  A 1.00 1.00 0.0 0 1 18.26 89.19
  L 26.33 89.29
  Q 29.52 89.33 26.88 91.12
  Z"
/>
<path d="
  M 54.75 89.78
  L 55.80 95.78
  A 0.61 0.61 0.0 0 1 55.20 96.50
  L 50.39 96.50
  A 0.61 0.61 0.0 0 1 49.79 95.77
  L 50.98 89.61
  A 0.61 0.61 0.0 0 1 51.61 89.12
  L 54.19 89.27
  A 0.61 0.61 0.0 0 1 54.75 89.78
  Z"
/>
<path d="
  M 204.81 95.27
  Q 205.63 96.87 203.85 96.73
  L 199.50 96.39
  A 1.00 1.00 0.0 0 1 198.64 95.05
  C 199.49 92.74 198.90 87.08 203.36 89.53
  A 0.99 0.98 -74.0 0 1 203.87 90.46
  Q 203.71 93.14 204.81 95.27
  Z"
/>
<ellipse cx="0.00" cy="0.00" transform="translate(197.52,90.48) rotate(7.0)" rx="1.40" ry="0.76"/>
<path d="
  M 131.99 139.74
  A 20.84 20.84 0.0 0 1 111.15 160.58
  A 20.84 20.84 0.0 0 1 90.31 139.74
  A 20.84 20.84 0.0 0 1 111.15 118.90
  A 20.84 20.84 0.0 0 1 131.99 139.74
  Z
  M 104.29 133.25
  L 104.29 134.75
  Q 104.80 139.93 109.75 141.11
  A 1.01 1.01 0.0 0 1 110.52 142.10
  L 110.44 147.81
  A 0.41 0.40 84.5 0 0 110.93 148.22
  L 111.24 148.16
  A 0.65 0.64 -6.1 0 0 111.75 147.53
  L 111.75 141.95
  A 1.00 1.00 0.0 0 1 112.60 140.96
  Q 117.26 140.25 117.54 135.50
  L 117.71 133.25
  Q 118.31 129.44 116.81 126.08
  A 1.02 1.00 77.7 0 0 115.89 125.48
  L 106.30 125.51
  A 1.01 0.99 9.3 0 0 105.35 126.18
  Q 104.16 129.66 104.29 133.25
  Z
  M 99.79 131.67
  Q 99.17 129.49 97.46 129.92
  A 1.02 1.02 0.0 0 0 96.73 130.65
  Q 96.34 132.28 94.87 132.84
  A 1.01 1.01 0.0 0 0 94.23 133.85
  Q 94.41 136.45 96.96 135.42
  A 1.00 0.97 40.6 0 1 97.60 135.38
  L 99.83 136.00
  A 1.02 1.02 0.0 0 0 100.76 135.79
  Q 103.43 133.49 100.40 132.33
  A 1.02 1.01 2.5 0 1 99.79 131.67
  Z
  M 125.70 131.61
  C 124.57 126.85 122.34 132.48 120.67 133.11
  A 0.66 0.66 0.0 0 0 120.25 133.78
  L 120.28 134.04
  A 0.27 0.26 -12.2 0 0 120.63 134.26
  Q 122.70 133.53 122.96 131.66
  A 1.00 1.00 0.0 0 1 124.19 130.83
  Q 125.14 131.06 125.11 131.89
  A 0.99 0.99 0.0 0 0 125.67 132.81
  Q 126.54 133.24 127.02 134.08
  A 0.64 0.64 0.0 0 1 126.49 135.04
  L 126.15 135.06
  A 1.00 1.00 0.0 0 1 125.16 134.36
  Q 124.60 132.63 123.73 133.97
  A 0.80 0.80 0.0 0 0 124.16 135.17
  L 126.20 135.80
  A 1.01 1.00 -65.4 0 0 127.34 135.37
  Q 128.86 132.96 126.42 132.35
  A 1.00 0.97 89.8 0 1 125.70 131.61
  Z
  M 95.90 142.38
  Q 99.52 142.15 96.54 140.58
  A 0.52 0.51 -70.2 0 1 96.28 140.02
  C 96.41 139.44 97.16 139.76 97.45 140.10
  C 99.35 142.24 98.48 139.56 98.65 138.74
  Q 99.64 133.90 98.09 138.56
  A 0.51 0.51 0.0 0 1 97.35 138.84
  L 97.06 138.68
  A 1.01 0.99 -43.2 0 0 96.12 138.66
  L 93.43 140.02
  A 1.00 0.99 62.3 0 0 93.01 141.39
  L 94.82 144.71
  A 0.64 0.63 63.9 0 0 95.63 144.99
  L 95.97 144.85
  Q 97.17 144.35 95.94 143.90
  Q 95.35 143.69 95.30 143.07
  A 0.64 0.63 -4.4 0 1 95.90 142.38
  Z
  M 99.74 139.28
  C 100.22 140.85 98.32 142.47 98.90 142.86
  A 0.64 0.64 0.0 0 0 99.83 142.62
  L 101.16 140.02
  A 0.80 0.79 -76.6 0 0 100.45 138.86
  L 100.06 138.86
  A 0.33 0.33 0.0 0 0 99.74 139.28
  Z
  M 121.54 140.75
  Q 121.62 143.51 122.91 142.91
  A 0.51 0.51 0.0 0 0 123.11 142.15
  L 121.96 140.50
  Q 122.73 138.91 121.74 138.83
  A 0.80 0.80 0.0 0 0 120.90 139.82
  Q 121.03 140.34 121.54 140.75
  Z
  M 128.52 140.89
  C 133.11 141.93 126.29 138.32 127.94 140.52
  A 1.01 0.99 -11.9 0 0 128.52 140.89
  Z
  M 99.96 144.75
  Q 98.47 144.40 98.15 145.39
  A 0.64 0.64 0.0 0 0 98.53 146.19
  Q 99.46 146.54 100.29 145.75
  Q 101.56 146.28 102.20 147.53
  A 0.34 0.17 64.7 0 1 102.19 147.94
  L 101.90 148.02
  A 0.63 0.63 0.0 0 1 101.29 147.87
  Q 100.38 147.00 99.47 148.28
  A 1.08 1.03 65.6 0 0 99.28 148.82
  Q 99.24 149.90 98.57 150.73
  A 1.00 1.00 0.0 0 0 98.89 152.25
  Q 100.71 153.18 102.88 153.01
  A 1.00 1.00 0.0 0 0 103.69 151.56
  Q 103.33 150.85 103.62 150.31
  A 0.80 0.80 0.0 0 1 104.77 150.02
  L 107.70 151.94
  Q 109.53 153.13 107.43 153.74
  Q 101.69 155.38 108.77 154.04
  Q 112.50 153.33 116.48 154.79
  Q 117.13 155.03 117.35 154.69
  A 0.27 0.27 0.0 0 0 117.18 154.29
  L 114.30 153.68
  Q 112.03 153.20 114.11 152.18
  Q 117.88 150.33 120.30 146.86
  A 0.41 0.41 0.0 0 0 120.10 146.23
  Q 119.59 146.07 119.34 146.80
  Q 119.07 147.58 118.45 148.14
  A 0.80 0.80 0.0 0 1 117.16 147.79
  Q 116.90 146.99 116.13 147.27
  A 0.81 0.81 0.0 0 0 115.77 148.51
  L 116.06 148.89
  A 1.01 1.00 50.0 0 1 115.95 150.22
  Q 111.10 154.76 106.41 150.29
  A 1.00 1.00 0.0 0 1 106.39 148.86
  Q 107.07 148.17 106.48 147.46
  A 0.64 0.64 0.0 0 0 105.45 147.53
  Q 103.59 150.43 103.14 146.84
  A 0.99 0.98 -79.7 0 0 102.62 146.08
  C 99.71 144.55 102.69 142.21 102.96 143.31
  A 0.42 0.40 -29.6 0 1 102.84 143.71
  Q 101.57 144.86 102.95 145.13
  A 1.00 0.99 -66.2 0 0 103.96 144.73
  C 104.19 144.40 105.68 142.62 105.79 143.53
  A 0.50 0.47 65.1 0 1 105.65 143.96
  Q 102.71 146.85 106.21 145.16
  A 1.01 0.99 -25.9 0 0 106.68 143.83
  L 105.36 141.06
  A 1.00 1.00 0.0 0 0 103.68 140.86
  L 103.21 141.44
  A 1.03 0.99 -76.4 0 1 102.69 141.77
  Q 100.51 142.34 99.96 144.75
  Z
  M 126.97 141.40
  Q 126.48 140.34 125.65 140.92
  A 0.52 0.51 42.6 0 0 125.69 141.79
  L 127.72 142.95
  A 0.65 0.64 30.0 0 0 128.59 142.72
  Q 129.10 141.84 128.00 141.98
  A 1.01 0.99 73.9 0 1 126.97 141.40
  Z
  M 120.50 143.63
  Q 120.91 146.19 123.84 146.15
  A 0.32 0.32 0.0 0 0 124.15 145.73
  L 124.07 145.47
  A 0.80 0.80 0.0 0 0 122.95 144.99
  C 121.33 145.77 121.77 142.19 119.50 141.60
  Q 118.79 141.42 119.01 142.12
  Q 119.17 142.63 119.81 142.84
  A 1.02 1.00 4.5 0 1 120.50 143.63
  Z
  M 118.94 143.50
  C 116.23 140.17 118.81 148.27 119.16 144.21
  A 0.96 0.95 28.0 0 0 118.94 143.50
  Z
  M 119.64 149.33
  C 117.67 150.36 120.71 150.71 120.82 151.56
  A 0.51 0.51 0.0 0 1 120.20 152.12
  Q 117.51 151.49 119.92 153.03
  A 1.01 0.98 49.8 0 0 120.81 153.12
  L 123.50 152.11
  A 1.01 1.01 0.0 0 0 124.05 150.74
  Q 121.61 145.63 120.08 148.87
  A 1.08 1.06 89.4 0 1 119.64 149.33
  Z
  M 110.46 149.20
  L 110.21 148.96
  A 1.00 1.00 0.0 0 0 108.95 148.86
  Q 106.92 150.26 110.22 149.91
  Q 111.09 149.81 110.46 149.20
  Z
  M 111.37 149.26
  Q 111.16 149.41 111.37 149.88
  A 0.65 0.65 0.0 0 0 112.06 150.24
  C 116.12 149.53 112.44 148.11 111.86 148.90
  Q 111.84 148.93 111.37 149.26
  Z"
/>
<path d="
  M 114.25 137.46
  Q 111.07 139.64 107.79 137.50
  Q 105.43 134.17 107.17 131.58
  Q 109.04 128.78 108.62 132.12
  Q 108.14 136.01 112.49 136.57
  C 113.20 136.66 116.75 134.71 114.25 137.46
  Z"
/>
<path d="
  M 99.36 132.65
  L 100.79 133.90
  Q 102.23 135.15 100.32 135.02
  Q 99.30 134.94 98.93 133.94
  A 1.01 0.99 85.9 0 0 98.22 133.31
  Q 96.37 132.87 96.97 131.37
  A 1.00 1.00 0.0 0 1 98.00 130.75
  Q 99.01 130.85 99.02 131.90
  A 1.01 1.00 20.9 0 0 99.36 132.65
  Z"
/>
<path d="
  M 96.79 133.04
  C 97.88 133.33 96.36 135.79 95.24 134.89
  A 0.64 0.64 0.0 0 1 95.19 133.94
  L 95.82 133.30
  A 1.04 1.03 29.7 0 1 96.79 133.04
  Z"
/>
<path d="
  M 145.81 139.05
  L 146.13 139.14
  Q 146.69 139.30 146.26 139.70
  Q 144.98 140.89 144.99 139.66
  A 0.64 0.64 0.0 0 1 145.81 139.05
  Z"
/>
<path d="
  M 93.77 141.51
  Q 93.84 140.24 94.73 140.25
  A 0.51 0.50 -86.5 0 1 95.23 140.82
  Q 95.06 142.28 94.15 142.04
  A 0.51 0.51 0.0 0 1 93.77 141.51
  Z"
/>
<path d="
  M 122.16 152.06
  C 120.33 152.31 123.69 148.17 122.82 151.47
  A 0.81 0.79 2.6 0 1 122.16 152.06
  Z"
/>
</g>
<g fill="#ee4c43">
<path d="
  M 60.53 103.03
  Q 62.72 102.91 62.24 104.95
  A 1.06 1.01 -54.5 0 0 62.34 105.66
  Q 64.65 109.86 58.83 108.31
  A 1.00 0.98 2.4 0 1 58.10 107.53
  L 57.06 101.82
  A 1.00 1.00 0.0 0 0 56.08 101.00
  L 49.70 101.00
  A 1.01 1.00 -81.9 0 0 48.74 101.73
  L 47.48 106.15
  Q 47.41 106.39 47.46 106.63
  L 47.61 107.30
  A 1.01 1.01 0.0 0 1 46.62 108.51
  L 43.93 108.50
  A 1.00 1.00 0.0 0 1 42.95 107.32
  L 46.31 89.02
  A 1.02 1.01 13.4 0 0 45.60 87.87
  L 44.98 87.70
  A 1.01 0.99 -86.1 0 1 44.27 86.87
  C 43.75 83.07 46.94 84.99 48.77 84.87
  Q 52.39 84.63 56.02 84.77
  A 1.00 1.00 0.0 0 1 56.99 85.76
  Q 56.99 88.49 58.13 85.27
  Q 58.40 84.51 58.73 85.24
  L 58.89 85.58
  A 0.99 0.97 -51.8 0 1 58.96 86.23
  C 58.51 88.19 59.51 89.48 59.76 90.84
  Q 60.73 95.93 61.72 101.00
  Q 61.98 102.33 60.46 102.30
  A 0.21 0.21 0.0 0 0 60.25 102.51
  L 60.25 102.77
  A 0.27 0.26 -1.1 0 0 60.53 103.03
  Z
  M 54.75 89.78
  A 0.61 0.61 0.0 0 0 54.19 89.27
  L 51.61 89.12
  A 0.61 0.61 0.0 0 0 50.98 89.61
  L 49.79 95.77
  A 0.61 0.61 0.0 0 0 50.39 96.50
  L 55.20 96.50
  A 0.61 0.61 0.0 0 0 55.80 95.78
  L 54.75 89.78
  Z"
/>
<path d="
  M 194.55 88.17
  Q 192.95 87.55 193.52 85.51
  A 1.00 1.00 0.0 0 1 194.47 84.78
  L 206.62 84.65
  A 1.01 1.00 -5.4 0 1 207.62 85.47
  L 211.61 107.28
  A 1.00 1.00 0.0 0 1 210.54 108.45
  L 207.79 108.22
  A 0.99 0.99 0.0 0 1 206.89 107.40
  L 205.88 101.82
  A 1.00 0.99 -4.8 0 0 204.90 101.00
  L 198.43 101.00
  A 1.01 1.01 0.0 0 0 197.44 101.83
  L 196.43 107.53
  A 1.01 1.00 -1.8 0 1 195.66 108.34
  Q 194.12 108.67 192.53 108.51
  A 1.00 1.00 0.0 0 1 191.65 107.32
  L 195.17 89.29
  A 1.00 1.00 0.0 0 0 194.55 88.17
  Z
  M 204.81 95.27
  Q 203.71 93.14 203.87 90.46
  A 0.99 0.98 -74.0 0 0 203.36 89.53
  C 198.90 87.08 199.49 92.74 198.64 95.05
  A 1.00 1.00 0.0 0 0 199.50 96.39
  L 203.85 96.73
  Q 205.63 96.87 204.81 95.27
  Z
  M 198.9096 90.6506
  A 1.40 0.76 7.0 0 0 197.6126 89.7257
  A 1.40 0.76 7.0 0 0 196.1304 90.3094
  A 1.40 0.76 7.0 0 0 197.4274 91.2343
  A 1.40 0.76 7.0 0 0 198.9096 90.6506
  Z"
/>
<path d="
  M 16.62 105.44
  Q 17.75 105.55 17.17 107.75
  A 0.99 0.99 0.0 0 1 16.21 108.50
  L 13.50 108.50
  A 1.00 1.00 0.0 0 1 12.50 107.49
  L 12.62 89.01
  A 1.01 1.00 90.0 0 0 11.62 88.00
  L 11.28 88.00
  A 0.41 0.40 -0.7 0 1 10.87 87.61
  L 10.81 85.84
  A 1.00 1.00 0.0 0 1 11.80 84.81
  Q 17.27 84.76 22.70 84.71
  C 28.79 84.66 33.88 86.29 30.59 93.78
  Q 30.49 94.00 30.30 94.15
  L 28.78 95.38
  A 1.00 0.99 61.6 0 0 28.46 96.47
  Q 29.84 100.63 30.52 104.93
  C 30.71 106.15 33.08 109.51 29.87 108.26
  Q 29.69 108.19 29.48 108.19
  L 27.45 108.25
  A 1.02 1.01 81.6 0 1 26.45 107.50
  L 24.25 99.14
  A 1.00 1.00 0.0 0 0 22.82 98.51
  L 17.86 101.08
  A 1.02 1.00 78.5 0 0 17.32 101.91
  L 17.24 103.21
  A 1.02 1.01 76.6 0 1 16.76 104.00
  Q 16.53 104.14 16.33 104.27
  Q 14.83 105.26 16.62 105.44
  Z
  M 26.88 91.12
  Q 29.52 89.33 26.33 89.29
  L 18.26 89.19
  A 1.00 1.00 0.0 0 0 17.25 90.19
  L 17.25 94.73
  A 1.00 1.00 0.0 0 0 18.65 95.65
  Q 22.96 93.77 26.88 91.12
  Z"
/>
<path d="
  M 75.31 84.94
  Q 75.67 84.72 76.10 84.87
  A 0.79 0.79 0.0 0 1 76.56 85.26
  L 80.39 92.67
  Q 81.29 94.42 82.17 92.66
  L 85.81 85.37
  A 1.03 1.01 12.2 0 1 86.69 84.81
  L 89.97 84.74
  Q 91.72 84.70 90.86 86.23
  Q 87.71 91.84 84.57 97.42
  Q 83.53 99.27 83.52 101.38
  Q 83.49 104.43 83.48 107.50
  A 1.00 1.00 0.0 0 1 82.48 108.50
  L 79.65 108.50
  A 0.99 0.99 0.0 0 1 78.65 107.45
  C 78.86 103.95 79.52 100.67 77.82 97.54
  Q 75.35 93.00 72.97 88.45
  A 1.03 1.00 75.6 0 0 72.08 87.91
  Q 70.18 87.92 70.37 85.70
  A 1.00 1.00 0.0 0 1 71.26 84.79
  Q 73.27 84.57 75.31 84.94
  Z
  M 73.62 87.21
  L 73.82 87.53
  A 0.52 0.51 -40.3 0 0 74.64 87.59
  Q 76.01 86.00 74.30 85.99
  Q 72.83 85.97 73.62 87.21
  Z"
/>
<path d="
  M 115.31 103.85
  A 1.00 1.00 0.0 0 0 116.28 102.84
  L 116.18 85.76
  A 1.00 1.00 0.0 0 1 117.18 84.75
  L 119.98 84.75
  A 1.00 1.00 0.0 0 1 120.98 85.75
  Q 120.94 94.49 120.99 103.17
  C 121.03 110.66 112.22 108.48 106.24 108.24
  Q 102.21 108.08 102.04 104.51
  Q 101.91 101.79 102.07 89.14
  A 1.01 1.00 -79.9 0 0 101.41 88.18
  Q 99.75 87.60 100.16 85.55
  A 1.01 1.00 5.6 0 1 101.15 84.74
  L 105.88 84.77
  A 1.00 1.00 0.0 0 1 106.88 85.78
  L 106.70 103.03
  A 1.01 1.00 -0.3 0 0 107.73 104.04
  L 115.31 103.85
  Z"
/>
<path d="
  M 141.50 93.04
  Q 140.73 94.18 141.34 95.06
  A 1.00 0.99 -47.3 0 1 141.38 96.13
  L 140.75 97.21
  L 139.55 97.45
  A 1.00 1.00 0.0 0 0 138.75 98.43
  L 138.75 102.92
  A 1.00 1.00 0.0 0 0 139.74 103.92
  L 146.72 104.00
  A 0.52 0.51 5.3 0 1 147.22 104.60
  L 147.17 104.85
  A 0.80 0.80 0.0 0 1 145.98 105.41
  L 145.39 105.07
  A 0.80 0.78 29.7 0 0 144.29 105.36
  Q 143.49 106.80 147.01 106.86
  A 1.00 1.00 0.0 0 0 147.99 106.10
  Q 148.58 103.72 150.86 103.97
  A 1.00 1.00 0.0 0 1 151.75 104.96
  L 151.75 107.55
  A 1.01 1.00 0.3 0 1 150.73 108.55
  L 134.97 108.31
  A 1.01 1.01 0.0 0 1 133.98 107.32
  L 133.67 90.25
  Q 133.65 89.61 132.50 87.52
  Q 132.04 86.69 131.99 85.80
  A 1.00 1.00 0.0 0 1 132.99 84.75
  L 139.25 84.75
  Q 140.69 84.75 139.93 85.97
  L 139.71 86.33
  Q 138.92 87.60 140.38 87.30
  L 140.79 87.21
  Q 142.26 86.91 141.18 85.86
  Q 140.83 85.51 140.90 85.23
  C 141.08 84.43 149.75 84.76 150.89 84.77
  A 1.00 0.99 -89.7 0 1 151.87 85.77
  L 151.87 88.25
  A 1.00 1.00 0.0 0 1 150.87 89.25
  L 139.53 89.25
  A 1.00 0.99 8.8 0 0 138.58 89.94
  Q 137.46 93.39 141.50 93.04
  Z
  M 146.56 86.65
  C 145.74 85.33 140.54 87.38 146.12 87.43
  Q 147.04 87.44 146.56 86.65
  Z"
/>
<path d="
  M 165.74 84.89
  C 168.19 83.81 169.03 85.21 169.00 87.41
  Q 168.90 95.45 169.00 103.00
  A 1.01 1.01 0.0 0 0 170.00 103.99
  L 180.62 104.01
  A 1.00 1.00 0.0 0 1 181.62 104.98
  L 181.69 107.44
  A 1.00 1.00 0.0 0 1 180.69 108.47
  L 165.21 108.45
  A 1.00 1.00 0.0 0 1 164.21 107.48
  C 164.01 101.24 164.55 95.09 163.84 88.89
  A 1.09 1.03 22.1 0 0 163.58 88.32
  Q 159.86 84.36 165.22 84.97
  A 1.02 1.01 -53.4 0 0 165.74 84.89
  Z"
/>
<path d="
  M 140.75 97.21
  L 141.38 96.13
  A 1.00 0.99 -47.3 0 0 141.34 95.06
  Q 140.73 94.18 141.50 93.04
  L 147.88 92.99
  A 1.01 1.00 -87.6 0 1 148.88 94.08
  L 148.68 96.45
  A 1.01 1.01 0.0 0 1 147.61 97.36
  Q 144.24 97.14 146.36 95.40
  A 0.33 0.33 0.0 0 0 146.29 94.85
  L 145.98 94.71
  A 0.41 0.41 0.0 0 0 145.41 94.97
  Q 144.55 98.23 140.75 97.21
  Z"
/>
<path d="
  M 134.65 139.63
  A 23.52 23.52 0.0 0 1 111.13 163.15
  A 23.52 23.52 0.0 0 1 87.61 139.63
  A 23.52 23.52 0.0 0 1 111.13 116.11
  A 23.52 23.52 0.0 0 1 134.65 139.63
  Z
  M 133.10 139.70
  A 21.98 21.98 0.0 0 0 111.12 117.72
  A 21.98 21.98 0.0 0 0 89.14 139.70
  A 21.98 21.98 0.0 0 0 111.12 161.68
  A 21.98 21.98 0.0 0 0 133.10 139.70
  Z"
/>
<rect x="-9.07" y="-0.51" transform="translate(146.60,136.51) rotate(-0.2)" width="18.14" height="1.02" rx="0.45"/>
<path d="
  M 107.79 137.50
  Q 111.07 139.64 114.25 137.46
  L 115.25 138.04
  Q 111.78 142.08 107.33 138.99
  A 1.06 1.04 11.5 0 1 106.92 138.38
  L 106.79 137.75
  L 107.79 137.50
  Z"
/>
<path d="
  M 98.90 142.86
  C 98.32 142.47 100.22 140.85 99.74 139.28
  A 0.33 0.33 0.0 0 1 100.06 138.86
  L 100.45 138.86
  A 0.80 0.79 -76.6 0 1 101.16 140.02
  L 99.83 142.62
  A 0.64 0.64 0.0 0 1 98.90 142.86
  Z"
/>
<path d="
  M 121.96 140.50
  L 121.54 140.75
  Q 121.03 140.34 120.90 139.82
  A 0.80 0.80 0.0 0 1 121.74 138.83
  Q 122.73 138.91 121.96 140.50
  Z"
/>
<ellipse cx="75.79" cy="142.74" rx="9.33" ry="0.63"/>
<path d="
  M 99.96 144.75
  L 100.29 145.75
  Q 99.46 146.54 98.53 146.19
  A 0.64 0.64 0.0 0 1 98.15 145.39
  Q 98.47 144.40 99.96 144.75
  Z"
/>
</g>
<g fill="#284445">
<path d="
  M 66.69 73.19
  Q 66.87 72.69 67.23 72.76
  A 0.28 0.28 0.0 0 1 67.44 72.97
  L 67.81 74.81
  Q 68.12 76.41 66.80 75.46
  Q 66.04 74.91 66.69 73.19
  Z"
/>
<path d="
  M 75.6597 74.4127
  A 2.08 1.61 0.9 0 1 73.5547 75.9898
  A 2.08 1.61 0.9 0 1 71.5003 74.3473
  A 2.08 1.61 0.9 0 1 73.6053 72.7702
  A 2.08 1.61 0.9 0 1 75.6597 74.4127
  Z
  M 74.9297 74.3596
  A 1.34 0.93 -1.3 0 0 73.5689 73.4602
  A 1.34 0.93 -1.3 0 0 72.2503 74.4204
  A 1.34 0.93 -1.3 0 0 73.6111 75.3198
  A 1.34 0.93 -1.3 0 0 74.9297 74.3596
  Z"
/>
<path d="
  M 68.83 73.87
  Q 69.84 71.95 70.03 74.11
  L 70.12 75.05
  A 0.65 0.64 -82.4 0 1 69.26 75.71
  Q 68.08 75.29 68.83 73.87
  Z"
/>
<path d="
  M 133.10 139.70
  A 21.98 21.98 0.0 0 1 111.12 161.68
  A 21.98 21.98 0.0 0 1 89.14 139.70
  A 21.98 21.98 0.0 0 1 111.12 117.72
  A 21.98 21.98 0.0 0 1 133.10 139.70
  Z
  M 131.99 139.74
  A 20.84 20.84 0.0 0 0 111.15 118.90
  A 20.84 20.84 0.0 0 0 90.31 139.74
  A 20.84 20.84 0.0 0 0 111.15 160.58
  A 20.84 20.84 0.0 0 0 131.99 139.74
  Z"
/>
<path d="
  M 117.71 133.25
  L 117.54 135.50
  L 115.25 138.04
  L 114.25 137.46
  C 116.75 134.71 113.20 136.66 112.49 136.57
  Q 108.14 136.01 108.62 132.12
  Q 109.04 128.78 107.17 131.58
  Q 105.43 134.17 107.79 137.50
  L 106.79 137.75
  L 104.29 134.75
  L 104.29 133.25
  Q 105.80 131.87 105.63 128.38
  Q 105.53 126.39 107.98 126.38
  L 115.45 126.37
  A 1.00 1.00 0.0 0 1 116.45 127.40
  Q 116.37 130.34 117.71 133.25
  Z
  M 112.75 129.75
  C 115.08 129.97 112.60 127.84 112.30 129.12
  A 0.52 0.52 0.0 0 0 112.75 129.75
  Z
  M 111.7764 132.2979
  A 0.64 0.51 -15.6 0 0 111.0229 131.9788
  A 0.64 0.51 -15.6 0 0 110.5436 132.6421
  A 0.64 0.51 -15.6 0 0 111.2971 132.9612
  A 0.64 0.51 -15.6 0 0 111.7764 132.2979
  Z
  M 115.2064 132.6421
  A 0.64 0.51 15.6 0 0 114.7271 131.9788
  A 0.64 0.51 15.6 0 0 113.9736 132.2979
  A 0.64 0.51 15.6 0 0 114.4529 132.9612
  A 0.64 0.51 15.6 0 0 115.2064 132.6421
  Z"
/>
<rect x="66.77" y="136.01" width="18.14" height="1.00" rx="0.43"/>
<rect x="137.49" y="142.25" width="18.48" height="1.00" rx="0.48"/>
</g>
<g fill="#6a6d6a">
<path d="
  M 77.00 75.18
  C 76.12 71.31 81.80 72.40 80.65 75.08
  A 1.03 1.00 6.9 0 1 79.88 75.67
  L 78.13 75.94
  A 1.00 0.99 78.9 0 1 77.00 75.18
  Z
  M 79.9535 74.0690
  A 1.10 0.87 -14.8 0 0 78.6678 73.5089
  A 1.10 0.87 -14.8 0 0 77.8265 74.6310
  A 1.10 0.87 -14.8 0 0 79.1122 75.1911
  A 1.10 0.87 -14.8 0 0 79.9535 74.0690
  Z"
/>
<path d="
  M 83.78 74.94
  Q 88.32 75.75 83.01 75.77
  A 1.01 1.00 -7.0 0 1 82.03 75.01
  C 81.31 72.06 85.50 72.70 85.59 73.09
  Q 85.74 73.80 85.05 73.56
  Q 83.61 73.05 83.28 74.12
  A 0.64 0.64 0.0 0 0 83.78 74.94
  Z"
/>
<path d="
  M 88.59 72.59
  C 94.48 76.76 83.57 77.31 87.23 72.78
  A 1.01 1.00 37.0 0 1 88.59 72.59
  Z
  M 87.43 74.88
  A 1.00 1.00 0.0 0 0 89.00 74.40
  Q 89.50 72.84 88.05 73.49
  Q 86.52 74.17 87.43 74.88
  Z"
/>
<path d="
  M 97.99 75.17
  C 97.03 71.42 102.98 72.40 101.63 75.16
  A 1.00 1.00 0.0 0 1 100.84 75.72
  L 99.07 75.91
  A 1.00 1.00 0.0 0 1 97.99 75.17
  Z
  M 99.21 73.91
  C 97.54 76.05 101.92 75.46 100.80 73.94
  A 1.00 0.99 45.9 0 0 99.21 73.91
  Z"
/>
<path d="
  M 104.60 74.29
  C 104.64 74.71 109.26 75.81 104.04 75.77
  A 0.99 0.98 -7.7 0 1 103.09 75.05
  Q 102.54 73.12 104.13 72.76
  Q 105.76 72.40 104.78 73.76
  Q 104.58 74.05 104.60 74.29
  Z"
/>
<path d="
  M 112.15 73.77
  Q 113.67 71.96 112.27 75.01
  A 1.00 1.00 0.0 0 1 110.73 75.37
  Q 109.84 74.65 109.46 73.49
  Q 108.87 71.67 110.15 73.09
  Q 110.36 73.32 110.51 73.59
  A 1.00 0.99 51.2 0 0 112.15 73.77
  Z"
/>
<path d="
  M 125.6284 74.4710
  A 2.11 1.60 2.2 0 1 123.4586 75.9888
  A 2.11 1.60 2.2 0 1 121.4116 74.3090
  A 2.11 1.60 2.2 0 1 123.5814 72.7912
  A 2.11 1.60 2.2 0 1 125.6284 74.4710
  Z
  M 124.56 73.94
  Q 123.29 72.75 122.52 73.89
  A 0.80 0.80 0.0 0 0 122.68 74.96
  Q 124.13 76.14 124.95 74.37
  A 0.29 0.28 43.8 0 0 124.94 74.13
  Q 124.82 73.92 124.56 73.94
  Z"
/>
<path d="
  M 131.23 74.34
  Q 131.19 74.49 131.13 74.64
  Q 130.60 75.99 129.74 74.82
  L 128.94 73.73
  Q 127.85 72.25 129.46 73.13
  Q 129.68 73.25 129.85 73.43
  A 0.81 0.80 -39.3 0 0 130.91 73.53
  Q 133.11 71.93 131.50 73.85
  Q 131.33 74.05 131.23 74.34
  Z"
/>
<path d="
  M 136.37 72.87
  Q 139.00 72.34 137.49 73.67
  A 1.09 1.02 -15.1 0 0 137.18 74.17
  Q 136.25 77.70 135.53 73.09
  Q 135.45 72.62 135.76 72.74
  L 136.01 72.84
  A 0.65 0.59 47.4 0 0 136.37 72.87
  Z"
/>
<path d="
  M 143.63 73.99
  L 143.79 73.46
  Q 144.33 71.73 144.78 73.48
  Q 145.03 74.47 145.76 73.54
  A 0.80 0.80 0.0 0 1 147.10 73.67
  L 147.25 73.95
  A 0.52 0.51 -14.6 0 1 146.81 74.70
  Q 145.73 74.74 144.03 75.47
  Q 142.32 76.20 141.28 75.14
  A 1.00 1.00 0.0 0 0 139.88 75.12
  Q 137.97 76.94 139.66 73.75
  C 140.23 72.65 141.19 72.72 141.66 73.89
  Q 141.73 74.07 141.82 74.21
  Q 142.98 76.08 143.63 73.99
  Z"
/>
<path d="
  M 155.21 73.24
  A 1.02 1.02 0.0 0 1 155.74 73.77
  C 157.25 77.41 151.84 75.99 152.48 75.09
  A 0.65 0.63 -35.4 0 0 152.58 74.55
  Q 151.84 71.78 155.21 73.24
  Z"
/>
<path d="
  M 93.09 74.54
  Q 92.87 75.14 92.44 75.46
  Q 90.91 76.62 91.66 74.85
  Q 93.02 71.62 94.90 74.58
  C 95.21 75.07 95.58 76.35 94.32 75.65
  A 0.65 0.64 19.1 0 1 94.00 75.00
  Q 94.06 74.52 93.66 74.32
  A 0.41 0.41 0.0 0 0 93.09 74.54
  Z"
/>
<path d="
  M 114.91 73.59
  C 114.30 79.02 113.40 72.31 114.67 73.10
  A 0.52 0.52 0.0 0 1 114.91 73.59
  Z"
/>
<path d="
  M 116.93 75.16
  Q 115.86 76.94 116.51 73.52
  A 0.66 0.64 2.8 0 1 117.10 73.00
  Q 117.65 72.97 117.96 73.44
  A 0.80 0.79 -43.5 0 0 119.28 73.47
  Q 120.18 72.22 119.79 74.16
  A 0.99 0.99 0.0 0 0 120.00 75.00
  Q 120.37 75.43 119.92 75.74
  A 0.40 0.40 0.0 0 1 119.43 75.72
  L 118.42 74.89
  A 1.00 1.00 0.0 0 0 116.93 75.16
  Z"
/>
<path d="
  M 149.04 75.29
  Q 148.88 75.57 148.56 75.69
  Q 146.94 76.28 147.79 74.77
  Q 149.74 71.29 151.25 74.81
  Q 151.81 76.11 150.55 75.47
  Q 150.26 75.33 150.01 75.11
  A 0.64 0.64 0.0 0 0 149.04 75.29
  Z"
/>
<path d="
  M 117.71 133.25
  Q 116.37 130.34 116.45 127.40
  A 1.00 1.00 0.0 0 0 115.45 126.37
  L 107.98 126.38
  Q 105.53 126.39 105.63 128.38
  Q 105.80 131.87 104.29 133.25
  Q 104.16 129.66 105.35 126.18
  A 1.01 0.99 9.3 0 1 106.30 125.51
  L 115.89 125.48
  A 1.02 1.00 77.7 0 1 116.81 126.08
  Q 118.31 129.44 117.71 133.25
  Z"
/>
<path d="
  M 112.30 129.12
  C 112.60 127.84 115.08 129.97 112.75 129.75
  A 0.52 0.52 0.0 0 1 112.30 129.12
  Z"
/>
<path d="
  M 100.40 132.33
  Q 103.43 133.49 100.76 135.79
  A 1.02 1.02 0.0 0 1 99.83 136.00
  L 97.60 135.38
  A 1.00 0.97 40.6 0 0 96.96 135.42
  Q 94.41 136.45 94.23 133.85
  A 1.01 1.01 0.0 0 1 94.87 132.84
  Q 96.34 132.28 96.73 130.65
  A 1.02 1.02 0.0 0 1 97.46 129.92
  Q 99.17 129.49 99.79 131.67
  A 1.02 1.01 2.5 0 0 100.40 132.33
  Z
  M 99.02 131.90
  Q 99.01 130.85 98.00 130.75
  A 1.00 1.00 0.0 0 0 96.97 131.37
  Q 96.37 132.87 98.22 133.31
  A 1.01 0.99 85.9 0 1 98.93 133.94
  Q 99.30 134.94 100.32 135.02
  Q 102.23 135.15 100.79 133.90
  L 99.36 132.65
  A 1.01 1.00 20.9 0 1 99.02 131.90
  Z
  M 95.24 134.89
  C 96.36 135.79 97.88 133.33 96.79 133.04
  A 1.04 1.03 29.7 0 0 95.82 133.30
  L 95.19 133.94
  A 0.64 0.64 0.0 0 0 95.24 134.89
  Z"
/>
<path d="
  M 126.42 132.35
  Q 128.86 132.96 127.34 135.37
  A 1.01 1.00 -65.4 0 1 126.20 135.80
  L 124.16 135.17
  A 0.80 0.80 0.0 0 1 123.73 133.97
  Q 124.60 132.63 125.16 134.36
  A 1.00 1.00 0.0 0 0 126.15 135.06
  L 126.49 135.04
  A 0.64 0.64 0.0 0 0 127.02 134.08
  Q 126.54 133.24 125.67 132.81
  A 0.99 0.99 0.0 0 1 125.11 131.89
  Q 125.14 131.06 124.19 130.83
  A 1.00 1.00 0.0 0 0 122.96 131.66
  Q 122.70 133.53 120.63 134.26
  A 0.27 0.26 -12.2 0 1 120.28 134.04
  L 120.25 133.78
  A 0.66 0.66 0.0 0 1 120.67 133.11
  C 122.34 132.48 124.57 126.85 125.70 131.61
  A 1.00 0.97 89.8 0 0 126.42 132.35
  Z"
/>
<ellipse cx="0.00" cy="0.00" transform="translate(111.16,132.47) rotate(-15.6)" rx="0.64" ry="0.51"/>
<ellipse cx="0.00" cy="0.00" transform="translate(114.59,132.47) rotate(15.6)" rx="0.64" ry="0.51"/>
<path d="
  M 104.29 134.75
  L 106.79 137.75
  L 106.92 138.38
  A 1.06 1.04 11.5 0 0 107.33 138.99
  Q 111.78 142.08 115.25 138.04
  L 117.54 135.50
  Q 117.26 140.25 112.60 140.96
  A 1.00 1.00 0.0 0 0 111.75 141.95
  L 111.75 147.53
  A 0.65 0.64 -6.1 0 1 111.24 148.16
  L 110.93 148.22
  A 0.41 0.40 84.5 0 1 110.44 147.81
  L 110.52 142.10
  A 1.01 1.01 0.0 0 0 109.75 141.11
  Q 104.80 139.93 104.29 134.75
  Z"
/>
<path d="
  M 95.30 143.07
  Q 95.35 143.69 95.94 143.90
  Q 97.17 144.35 95.97 144.85
  L 95.63 144.99
  A 0.64 0.63 63.9 0 1 94.82 144.71
  L 93.01 141.39
  A 1.00 0.99 62.3 0 1 93.43 140.02
  L 96.12 138.66
  A 1.01 0.99 -43.2 0 1 97.06 138.68
  L 97.35 138.84
  A 0.51 0.51 0.0 0 0 98.09 138.56
  Q 99.64 133.90 98.65 138.74
  C 98.48 139.56 99.35 142.24 97.45 140.10
  C 97.16 139.76 96.41 139.44 96.28 140.02
  A 0.52 0.51 -70.2 0 0 96.54 140.58
  Q 99.52 142.15 95.90 142.38
  A 0.64 0.63 -4.4 0 0 95.30 143.07
  Z
  M 94.15 142.04
  Q 95.06 142.28 95.23 140.82
  A 0.51 0.50 -86.5 0 0 94.73 140.25
  Q 93.84 140.24 93.77 141.51
  A 0.51 0.51 0.0 0 0 94.15 142.04
  Z"
/>
<path d="
  M 79.89 139.60
  Q 79.36 142.97 78.57 139.34
  A 0.65 0.62 11.6 0 0 78.28 138.92
  Q 77.90 138.69 78.19 138.45
  Q 78.61 138.09 78.72 138.06
  Q 81.61 137.45 80.14 139.08
  A 1.04 1.00 71.9 0 0 79.89 139.60
  Z"
/>
<path d="
  M 141.57 139.01
  Q 141.40 138.96 141.18 139.02
  A 0.52 0.51 68.8 0 1 140.60 138.76
  Q 140.15 137.91 142.13 138.19
  A 1.01 1.00 8.2 0 1 142.99 139.33
  Q 142.72 141.10 141.42 141.07
  Q 138.85 141.02 141.14 139.86
  L 141.62 139.62
  Q 142.35 139.25 141.57 139.01
  Z"
/>
<path d="
  M 148.86 140.63
  C 146.59 142.50 148.82 134.17 149.22 139.78
  A 1.01 1.00 68.2 0 1 148.86 140.63
  Z"
/>
<path d="
  M 151.56 138.19
  Q 152.83 138.58 152.78 139.73
  A 1.00 1.00 0.0 0 1 151.73 140.69
  L 150.88 140.65
  A 1.02 1.01 -7.1 0 1 149.97 139.95
  Q 149.19 137.46 151.56 138.19
  Z"
/>
<path d="
  M 72.25 140.08
  Q 73.08 140.88 71.97 141.16
  Q 69.10 141.89 68.98 139.29
  A 1.00 0.99 88.9 0 1 69.98 138.24
  L 71.53 138.25
  A 0.64 0.64 0.0 0 1 72.09 139.18
  Q 71.84 139.68 72.25 140.08
  Z"
/>
<path d="
  M 74.60 140.70
  Q 72.79 141.53 73.60 138.96
  A 0.98 0.96 -88.3 0 1 74.30 138.29
  Q 77.72 137.42 76.82 140.56
  A 0.64 0.64 0.0 0 1 76.13 141.02
  Q 75.85 140.98 75.61 140.80
  A 1.00 0.99 50.2 0 0 74.60 140.70
  Z"
/>
<path d="
  M 145.62 141.11
  C 140.08 139.57 148.77 135.60 146.82 140.52
  A 1.01 1.00 18.5 0 1 145.62 141.11
  Z
  M 144.99 139.66
  Q 144.98 140.89 146.26 139.70
  Q 146.69 139.30 146.13 139.14
  L 145.81 139.05
  A 0.64 0.64 0.0 0 0 144.99 139.66
  Z"
/>
<path d="
  M 127.94 140.52
  C 126.29 138.32 133.11 141.93 128.52 140.89
  A 1.01 0.99 -11.9 0 1 127.94 140.52
  Z"
/>
<path d="
  M 100.29 145.75
  L 99.96 144.75
  Q 100.51 142.34 102.69 141.77
  A 1.03 0.99 -76.4 0 0 103.21 141.44
  L 103.68 140.86
  A 1.00 1.00 0.0 0 1 105.36 141.06
  L 106.68 143.83
  A 1.01 0.99 -25.9 0 1 106.21 145.16
  Q 102.71 146.85 105.65 143.96
  A 0.50 0.47 65.1 0 0 105.79 143.53
  C 105.68 142.62 104.19 144.40 103.96 144.73
  A 1.00 0.99 -66.2 0 1 102.95 145.13
  Q 101.57 144.86 102.84 143.71
  A 0.42 0.40 -29.6 0 0 102.96 143.31
  C 102.69 142.21 99.71 144.55 102.62 146.08
  A 0.99 0.98 -79.7 0 1 103.14 146.84
  Q 103.59 150.43 105.45 147.53
  A 0.64 0.64 0.0 0 1 106.48 147.46
  Q 107.07 148.17 106.39 148.86
  A 1.00 1.00 0.0 0 0 106.41 150.29
  Q 111.10 154.76 115.95 150.22
  A 1.01 1.00 50.0 0 0 116.06 148.89
  L 115.77 148.51
  A 0.81 0.81 0.0 0 1 116.13 147.27
  Q 116.90 146.99 117.16 147.79
  A 0.80 0.80 0.0 0 0 118.45 148.14
  Q 119.07 147.58 119.34 146.80
  Q 119.59 146.07 120.10 146.23
  A 0.41 0.41 0.0 0 1 120.30 146.86
  Q 117.88 150.33 114.11 152.18
  Q 112.03 153.20 114.30 153.68
  L 117.18 154.29
  A 0.27 0.27 0.0 0 1 117.35 154.69
  Q 117.13 155.03 116.48 154.79
  Q 112.50 153.33 108.77 154.04
  Q 101.69 155.38 107.43 153.74
  Q 109.53 153.13 107.70 151.94
  L 104.77 150.02
  A 0.80 0.80 0.0 0 0 103.62 150.31
  Q 103.33 150.85 103.69 151.56
  A 1.00 1.00 0.0 0 1 102.88 153.01
  Q 100.71 153.18 98.89 152.25
  A 1.00 1.00 0.0 0 1 98.57 150.73
  Q 99.24 149.90 99.28 148.82
  A 1.08 1.03 65.6 0 1 99.47 148.28
  Q 100.38 147.00 101.29 147.87
  A 0.63 0.63 0.0 0 0 101.90 148.02
  L 102.19 147.94
  A 0.34 0.17 64.7 0 0 102.20 147.53
  Q 101.56 146.28 100.29 145.75
  Z"
/>
<path d="
  M 121.96 140.50
  L 123.11 142.15
  A 0.51 0.51 0.0 0 1 122.91 142.91
  Q 121.62 143.51 121.54 140.75
  L 121.96 140.50
  Z"
/>
<path d="
  M 128.00 141.98
  Q 129.10 141.84 128.59 142.72
  A 0.65 0.64 30.0 0 1 127.72 142.95
  L 125.69 141.79
  A 0.52 0.51 42.6 0 1 125.65 140.92
  Q 126.48 140.34 126.97 141.40
  A 1.01 0.99 73.9 0 0 128.00 141.98
  Z"
/>
<path d="
  M 119.81 142.84
  Q 119.17 142.63 119.01 142.12
  Q 118.79 141.42 119.50 141.60
  C 121.77 142.19 121.33 145.77 122.95 144.99
  A 0.80 0.80 0.0 0 1 124.07 145.47
  L 124.15 145.73
  A 0.32 0.32 0.0 0 1 123.84 146.15
  Q 120.91 146.19 120.50 143.63
  A 1.02 1.00 4.5 0 0 119.81 142.84
  Z"
/>
<path d="
  M 119.16 144.21
  C 118.81 148.27 116.23 140.17 118.94 143.50
  A 0.96 0.95 28.0 0 1 119.16 144.21
  Z"
/>
<path d="
  M 120.08 148.87
  Q 121.61 145.63 124.05 150.74
  A 1.01 1.01 0.0 0 1 123.50 152.11
  L 120.81 153.12
  A 1.01 0.98 49.8 0 1 119.92 153.03
  Q 117.51 151.49 120.20 152.12
  A 0.51 0.51 0.0 0 0 120.82 151.56
  C 120.71 150.71 117.67 150.36 119.64 149.33
  A 1.08 1.06 89.4 0 0 120.08 148.87
  Z
  M 122.82 151.47
  C 123.69 148.17 120.33 152.31 122.16 152.06
  A 0.81 0.79 2.6 0 0 122.82 151.47
  Z"
/>
<path d="
  M 110.46 149.20
  Q 111.09 149.81 110.22 149.91
  Q 106.92 150.26 108.95 148.86
  A 1.00 1.00 0.0 0 1 110.21 148.96
  L 110.46 149.20
  Z"
/>
<path d="
  M 111.86 148.90
  C 112.44 148.11 116.12 149.53 112.06 150.24
  A 0.65 0.65 0.0 0 1 111.37 149.88
  Q 111.16 149.41 111.37 149.26
  Q 111.84 148.93 111.86 148.90
  Z"
/>
</g>
</svg>
