<?xml version="1.0" encoding="UTF-8" standalone="no"?>
<!DOCTYPE svg PUBLIC "-//W3C//DTD SVG 1.1//EN" "http://www.w3.org/Graphics/SVG/1.1/DTD/svg11.dtd">
<svg xmlns="http://www.w3.org/2000/svg" version="1.1" viewBox="0 0 400 400">
<g stroke-width="2.00" fill="none" stroke-linecap="butt">
<path stroke="#828283" vector-effect="non-scaling-stroke" d="
  M 224.79 153.25
  L 209.78 137.33
  Q 207.99 135.44 210.45 136.29
  Q 210.64 136.35 210.84 136.44
  Q 211.80 136.87 212.07 136.19
  A 0.80 0.80 0.0 0 1 212.81 135.69
  Q 219.06 135.69 225.31 135.63
  C 226.30 135.62 225.20 135.23 225.10 135.22
  Q 217.24 134.79 211.83 134.44
  Q 208.31 134.21 210.79 131.52
  L 224.80 116.31
  A 0.25 0.01 -46.6 0 0 224.96 116.12
  Q 224.94 116.07 224.90 116.04
  A 0.28 0.19 -45.4 0 0 224.59 116.10
  Q 217.02 123.11 209.41 130.05
  C 208.76 130.65 208.59 131.71 207.25 131.46"
/>
<path stroke="#6c5f45" vector-effect="non-scaling-stroke" d="
  M 207.25 131.46
  C 207.51 130.47 210.03 122.46 209.54 122.33
  A 0.34 0.33 -73.6 0 0 209.15 122.55
  L 206.77 129.46
  A 1.01 0.99 -1.5 0 1 206.19 130.06
  Q 205.56 130.31 205.29 131.00"
/>
<path stroke="#828283" vector-effect="non-scaling-stroke" d="
  M 205.29 131.00
  Q 205.15 131.23 204.95 131.39
  A 0.79 0.79 0.0 0 1 203.95 131.39
  Q 195.06 124.17 187.00 115.48"
/>
<path stroke="#6c5f45" vector-effect="non-scaling-stroke" d="
  M 187.00 115.48
  Q 198.00 110.77 209.40 114.99
  A 0.99 0.98 45.4 0 0 210.08 115.00
  Q 213.70 113.73 210.14 112.44
  C 201.05 109.17 189.75 109.20 181.58 114.75
  C 170.91 122.00 165.01 131.85 165.65 144.47
  C 166.58 162.81 181.98 176.40 200.20 175.58
  Q 217.61 174.81 227.47 158.29
  C 227.78 157.77 227.66 158.01 228.10 157.77
  A 1.02 1.01 73.7 0 0 228.61 156.82
  Q 228.54 155.80 229.18 154.25
  Q 233.62 143.56 229.34 131.51
  Q 227.97 127.66 226.35 131.11
  A 1.01 0.99 47.8 0 0 226.32 131.89
  Q 230.21 142.40 226.50 153.06
  Q 225.92 154.74 224.79 153.25"
/>
<path stroke="#e2d5ba" vector-effect="non-scaling-stroke" d="
  M 187.00 115.48
  L 186.00 115.96"
/>
<path stroke="#6c5f45" vector-effect="non-scaling-stroke" d="
  M 186.00 115.96
  C 157.00 129.15 166.38 172.27 197.70 172.70
  Q 215.74 172.94 225.30 156.14
  A 1.02 1.01 44.7 0 0 225.29 155.12
  L 224.46 153.75"
/>
<path stroke="#e2d5ba" vector-effect="non-scaling-stroke" d="
  M 224.46 153.75
  L 224.79 153.25"
/>
<path stroke="#6c5f45" vector-effect="non-scaling-stroke" d="
  M 204.79 138.50
  L 202.07 147.21
  A 0.22 0.18 -78.7 0 0 202.22 147.48
  C 202.80 147.55 205.39 140.45 205.75 139.54"
/>
<path stroke="#e2d5ba" vector-effect="non-scaling-stroke" d="
  M 205.29 131.00
  L 207.25 131.46"
/>
<path stroke="#828283" vector-effect="non-scaling-stroke" d="
  M 224.46 153.75
  Q 216.67 145.86 208.20 138.74
  A 1.02 1.01 47.7 0 0 206.98 138.68
  L 205.75 139.54"
/>
<path stroke="#e2d5ba" vector-effect="non-scaling-stroke" d="
  M 205.75 139.54
  L 204.79 138.50"
/>
<path stroke="#828283" vector-effect="non-scaling-stroke" d="
  M 204.79 138.50
  L 204.63 138.26
  A 0.26 0.25 -37.1 0 0 204.24 138.21
  L 199.29 142.75
  Q 181.92 158.71 198.17 141.61
  Q 199.06 140.67 199.96 139.74
  Q 200.56 139.13 201.15 137.95
  Q 201.36 137.51 201.63 137.10
  A 1.00 0.99 -71.2 0 0 200.88 135.56
  Q 196.63 135.20 190.00 135.00
  Q 189.51 134.99 189.79 134.63
  A 0.40 0.39 -70.4 0 1 190.10 134.48
  L 198.62 134.17
  A 1.01 1.01 0.0 0 0 199.31 133.85
  Q 200.40 132.67 201.78 133.83
  A 0.76 0.74 67.6 0 0 202.22 134.02
  C 202.86 134.08 202.87 133.75 202.53 133.35
  Q 194.65 124.29 186.00 115.96"
/>
<path stroke="#6c5f45" vector-effect="non-scaling-stroke" d="
  M 204.36 196.69
  C 212.33 191.83 233.01 187.25 236.81 200.47
  C 239.38 209.42 230.33 221.89 223.98 227.50
  Q 222.38 228.91 217.88 230.70
  A 0.99 0.98 82.2 0 0 217.26 231.52
  C 216.89 234.92 224.22 229.36 225.31 228.31
  C 231.45 222.41 237.79 213.48 238.53 204.75
  C 239.27 196.08 232.67 191.03 224.75 190.52
  C 194.98 188.59 176.62 220.92 181.38 247.12
  C 183.99 261.51 196.41 272.79 211.51 266.02
  C 224.19 260.35 233.29 248.55 241.06 236.89
  C 242.91 234.11 240.22 235.60 239.67 236.40
  C 234.15 244.54 226.18 255.51 217.72 260.64
  C 200.76 270.93 185.78 259.30 184.54 241.49
  C 183.40 225.11 189.84 205.52 204.36 196.69"
/>
<path stroke="#6c5f45" vector-effect="non-scaling-stroke" d="
  M 115.57 223.76
  Q 110.89 225.31 106.64 227.82
  Q 95.71 234.27 93.35 245.79
  C 85.67 283.47 154.78 261.14 137.28 234.27
  C 136.74 233.45 134.59 231.81 134.76 234.16
  A 1.05 1.02 23.0 0 0 135.00 234.73
  C 149.74 252.12 116.79 268.65 102.80 261.17
  C 93.45 256.17 95.99 241.82 101.82 235.00
  Q 112.11 222.98 128.99 223.78
  A 0.99 0.98 15.1 0 0 129.91 223.26
  Q 130.62 221.95 128.49 222.14
  Q 122.58 222.68 119.06 221.63
  C 113.18 219.87 110.57 214.45 114.08 209.11
  C 122.44 196.40 142.76 209.64 129.48 215.43
  A 0.80 0.79 -5.3 0 0 129.02 215.98
  Q 128.83 216.78 130.23 216.43
  C 141.17 213.75 136.52 201.69 127.43 201.06
  C 119.92 200.55 111.86 205.37 111.05 213.16
  Q 110.48 218.66 115.79 221.96
  Q 117.60 223.09 115.57 223.76"
/>
<path stroke="#6c5f45" vector-effect="non-scaling-stroke" d="
  M 165.08 202.95
  Q 162.25 201.07 159.19 202.73
  Q 158.72 202.99 158.53 203.27
  Q 157.64 204.56 159.12 204.05
  C 165.59 201.80 159.36 214.07 158.40 215.95
  Q 152.01 228.43 145.67 240.92
  C 143.48 245.23 133.11 268.51 147.71 264.42
  C 149.62 263.89 149.10 262.94 147.43 263.35
  C 131.99 267.15 156.85 226.50 160.35 220.63
  Q 164.21 214.15 166.51 207.07
  Q 167.36 204.46 165.08 202.95"
/>
<path stroke="#6c5f45" vector-effect="non-scaling-stroke" d="
  M 292.14 228.10
  C 289.85 232.15 268.52 271.22 288.05 264.29
  C 289.44 263.79 288.44 263.27 287.79 263.37
  Q 280.19 264.55 282.55 256.48
  C 286.60 242.59 295.12 229.73 302.21 217.19
  Q 304.85 212.52 306.54 206.25
  A 1.02 1.00 -47.6 0 0 306.52 205.66
  Q 304.53 199.99 298.76 202.80
  C 298.18 203.08 297.43 203.96 298.50 204.22
  A 1.05 1.02 -52.0 0 0 299.23 204.12
  Q 299.96 203.70 300.78 203.72
  A 0.99 0.99 0.0 0 1 301.75 204.67
  C 302.07 210.96 295.31 222.49 292.14 228.10"
/>
<path stroke="#6c5f45" vector-effect="non-scaling-stroke" d="
  M 254.7427 231.0347
  A 4.82 1.61 123.6 0 0 258.7510 227.9110
  A 4.82 1.61 123.6 0 0 260.0773 223.0053
  A 4.82 1.61 123.6 0 0 256.0690 226.1290
  A 4.82 1.61 123.6 0 0 254.7427 231.0347"
/>
<path stroke="#6c5f45" vector-effect="non-scaling-stroke" d="
  M 267.59 245.66
  L 267.65 245.23
  A 1.01 1.00 -5.4 0 1 268.32 244.43
  C 271.54 243.35 280.84 239.35 274.42 235.28
  A 1.03 1.01 -34.7 0 0 273.66 235.15
  Q 268.34 236.36 265.81 242.23
  Q 263.97 246.50 267.14 248.45
  A 1.02 1.00 58.0 0 0 267.72 248.59
  Q 271.08 248.39 274.30 246.54
  C 275.33 245.94 283.32 241.08 281.65 240.33
  A 0.66 0.65 36.7 0 0 280.99 240.42
  C 278.37 242.50 272.36 247.24 268.47 246.80
  A 1.01 1.00 7.5 0 1 267.59 245.66"
/>
<path stroke="#6c5f45" vector-effect="non-scaling-stroke" d="
  M 291.90 242.98
  Q 294.08 241.02 293.20 243.81
  Q 292.37 246.44 293.18 247.82
  C 295.43 251.65 307.67 244.06 306.25 239.02
  A 1.01 1.00 -21.7 0 1 306.76 237.86
  Q 307.60 237.42 307.37 236.62
  A 0.81 0.79 86.8 0 0 306.76 236.06
  C 301.11 234.93 295.32 238.43 291.33 241.82
  Q 290.59 242.45 290.82 243.03
  A 0.52 0.51 -32.5 0 0 291.64 243.21
  L 291.90 242.98"
/>
<path stroke="#6c5f45" vector-effect="non-scaling-stroke" d="
  M 249.29 240.14
  L 249.37 240.23
  A 0.29 0.24 -43.5 0 1 249.33 240.59
  Q 247.22 242.85 245.99 245.76
  Q 244.79 248.59 247.99 248.04
  Q 255.77 246.71 262.20 242.21
  Q 262.68 241.87 262.85 241.47
  Q 263.76 239.36 261.89 240.70
  Q 257.38 243.91 252.09 245.63
  Q 248.80 246.69 251.01 244.04
  C 251.51 243.44 258.94 235.49 254.28 235.98
  Q 250.02 236.43 246.57 240.28
  Q 244.21 242.92 247.35 241.27
  Q 248.27 240.79 249.06 240.05
  A 0.22 0.11 47.9 0 1 249.29 240.14"
/>
<path stroke="#828283" vector-effect="non-scaling-stroke" d="
  M 106.24 288.81
  Q 105.38 287.30 104.71 285.71
  C 104.50 285.19 103.51 284.20 103.12 285.05
  A 0.66 0.63 46.2 0 0 103.12 285.58
  L 106.09 292.25
  Q 106.98 294.23 107.91 292.27
  L 110.97 285.83
  Q 111.61 284.48 110.19 284.94
  Q 109.28 285.24 109.01 286.17
  Q 108.50 287.89 108.48 287.92
  Q 108.23 288.39 107.96 288.84
  A 1.00 0.99 45.9 0 1 106.24 288.81"
/>
<path stroke="#828283" vector-effect="non-scaling-stroke" d="
  M 168.95 284.79
  Q 167.20 284.55 165.37 284.80
  A 1.00 0.99 86.4 0 0 164.50 285.79
  L 164.50 291.78
  A 1.00 1.00 0.0 0 0 165.53 292.78
  L 170.30 292.63
  A 0.97 0.95 -67.3 0 0 170.94 292.36
  C 174.13 289.41 173.31 285.38 168.95 284.79"
/>
<path stroke="#828283" vector-effect="non-scaling-stroke" d="
  M 201.29 291.39
  Q 199.08 292.63 196.14 290.20
  A 1.01 0.99 30.5 0 1 195.84 289.08
  Q 197.54 284.53 201.66 286.51
  A 0.81 0.80 -61.5 0 0 202.69 286.20
  C 203.76 284.43 197.13 284.02 194.90 287.03
  A 1.01 0.98 65.3 0 0 194.70 287.60
  C 194.54 295.48 204.97 293.57 203.22 289.37
  A 0.99 0.99 0.0 0 0 202.30 288.75
  L 199.59 288.75
  A 0.33 0.33 0.0 0 0 199.26 289.12
  L 199.31 289.44
  A 1.00 0.04 13.6 0 0 200.26 289.71
  L 201.09 289.91
  Q 203.05 290.39 201.29 291.39"
/>
<path stroke="#828283" vector-effect="non-scaling-stroke" d="
  M 138.14 290.84
  L 138.17 286.95
  A 0.78 0.78 0.0 0 0 137.68 286.21
  L 137.31 286.06
  A 0.41 0.41 0.0 0 0 136.75 286.44
  L 136.75 291.75
  A 1.00 1.00 0.0 0 0 137.75 292.75
  L 141.99 292.75
  Q 144.30 292.75 142.14 291.96
  Q 140.82 291.47 139.37 291.82
  A 1.00 0.99 -6.3 0 1 138.14 290.84"
/>
<path stroke="#828283" vector-effect="non-scaling-stroke" d="
  M 209.38 292.19
  Q 214.81 294.32 215.22 289.79
  C 215.31 288.81 215.73 285.88 214.43 286.57
  A 0.81 0.80 -14.3 0 0 214.00 287.28
  L 214.00 290.54
  A 1.00 1.00 0.0 0 1 213.42 291.45
  Q 211.72 292.25 210.37 291.17
  A 0.99 0.98 -69.7 0 1 210.00 290.36
  C 210.04 289.01 210.19 286.40 209.46 286.10
  A 0.51 0.51 0.0 0 0 208.75 286.57
  L 208.75 291.26
  A 0.99 0.98 11.2 0 0 209.38 292.19"
/>
<path stroke="#828283" vector-effect="non-scaling-stroke" d="
  M 268.23 291.82
  Q 266.60 292.06 267.24 289.25
  Q 267.54 287.93 267.09 286.95
  Q 266.29 285.24 265.88 287.08
  Q 264.19 294.61 271.49 292.31
  A 1.01 0.99 82.3 0 0 272.19 291.38
  L 272.28 286.69
  A 0.53 0.51 12.6 0 0 271.96 286.20
  C 270.65 285.67 270.97 289.93 270.98 290.56
  A 1.00 1.00 0.0 0 1 270.12 291.55
  L 268.23 291.82"
/>
<path stroke="#828283" vector-effect="non-scaling-stroke" d="
  M 119.91 291.85
  L 120.56 292.76
  A 0.52 0.51 69.4 0 0 121.01 292.97
  C 122.63 292.87 119.07 287.38 118.84 286.93
  Q 117.91 285.10 117.04 286.95
  L 114.52 292.35
  A 0.26 0.26 0.0 0 0 114.72 292.72
  L 114.98 292.75
  A 0.62 0.62 0.0 0 0 115.61 292.44
  Q 116.79 290.43 119.47 291.51
  A 1.05 1.01 -6.3 0 1 119.91 291.85"
/>
<path stroke="#828283" vector-effect="non-scaling-stroke" d="
  M 130.80 292.80
  Q 131.35 292.93 131.79 292.72
  Q 133.81 291.73 131.56 291.74
  L 129.00 291.76
  A 1.00 1.00 0.0 0 1 128.00 290.76
  L 128.00 287.04
  Q 128.00 284.88 126.82 286.69
  Q 126.58 287.06 126.53 287.77
  Q 126.41 289.63 126.55 291.65
  A 1.00 0.99 -3.2 0 0 127.60 292.58
  C 128.89 292.51 129.42 292.47 130.80 292.80"
/>
<path stroke="#828283" vector-effect="non-scaling-stroke" d="
  M 150.64 287.07
  Q 151.86 287.76 152.83 287.21
  Q 154.50 286.25 152.57 286.25
  L 147.90 286.25
  A 1.00 1.00 0.0 0 0 146.89 287.25
  L 146.91 291.74
  A 1.01 1.00 -89.4 0 0 147.88 292.74
  Q 152.09 292.88 152.93 292.70
  C 155.83 292.08 149.92 291.78 149.69 291.80
  A 1.01 1.01 0.0 0 1 148.72 291.20
  Q 147.98 289.51 150.52 290.05
  A 0.80 0.80 0.0 0 0 151.40 289.63
  C 152.12 288.23 145.29 289.94 149.60 287.10
  A 1.01 1.00 43.3 0 1 150.64 287.07"
/>
<path stroke="#828283" vector-effect="non-scaling-stroke" d="
  M 179.76 287.44
  C 180.64 287.22 184.36 287.62 183.89 286.62
  A 0.64 0.63 -12.2 0 0 183.31 286.25
  L 178.75 286.25
  A 1.00 1.00 0.0 0 0 177.75 287.25
  L 177.75 291.71
  A 1.00 0.99 -0.6 0 0 178.77 292.70
  Q 181.11 292.66 183.42 292.63
  Q 184.25 292.62 184.24 292.08
  A 0.33 0.32 -90.0 0 0 183.92 291.75
  L 180.05 291.75
  A 1.01 1.01 0.0 0 1 179.21 291.30
  C 178.72 290.56 179.39 290.04 180.08 289.94
  C 185.88 289.15 178.99 289.36 179.16 288.10
  A 0.80 0.80 0.0 0 1 179.76 287.44"
/>
<path stroke="#828283" vector-effect="non-scaling-stroke" d="
  M 224.86 291.48
  Q 225.13 291.84 225.46 292.11
  Q 228.64 294.74 226.67 291.11
  L 224.38 286.90
  Q 223.40 285.11 222.58 286.97
  Q 221.72 288.95 220.68 290.85
  Q 219.63 292.76 221.05 292.35
  Q 221.94 292.09 223.59 291.21
  A 1.00 1.00 0.0 0 1 224.86 291.48"
/>
<path stroke="#828283" vector-effect="non-scaling-stroke" d="
  M 238.02 292.14
  C 241.50 287.85 236.74 285.70 232.85 286.28
  A 1.00 1.00 0.0 0 0 232.00 287.27
  L 232.00 291.79
  A 1.00 0.99 88.1 0 0 233.06 292.79
  L 237.31 292.51
  A 1.00 0.98 16.9 0 0 238.02 292.14"
/>
<path stroke="#828283" vector-effect="non-scaling-stroke" d="
  M 244.60 292.51
  C 246.46 288.57 249.90 293.46 250.56 292.80
  A 0.42 0.42 0.0 0 0 250.64 292.32
  L 247.95 286.89
  Q 247.04 285.06 246.15 286.90
  C 246.11 286.99 242.56 293.77 244.25 292.88
  A 0.82 0.78 -3.2 0 0 244.60 292.51"
/>
<path stroke="#828283" vector-effect="non-scaling-stroke" d="
  M 257.17 290.79
  L 256.99 286.69
  A 0.26 0.25 9.7 0 0 256.81 286.45
  L 256.54 286.37
  A 0.80 0.80 0.0 0 0 255.50 287.13
  L 255.50 291.74
  A 1.00 1.00 0.0 0 0 256.47 292.74
  Q 260.03 292.84 260.74 292.73
  Q 262.13 292.53 261.34 291.95
  A 0.97 0.96 -26.0 0 0 260.75 291.75
  L 258.17 291.75
  A 1.00 1.00 0.0 0 1 257.17 290.79"
/>
<path stroke="#828283" vector-effect="non-scaling-stroke" d="
  M 280.02 290.06
  C 281.61 290.03 285.45 289.94 283.66 286.97
  A 0.99 0.98 76.0 0 0 282.87 286.49
  L 278.63 286.20
  A 1.01 1.00 4.1 0 0 277.56 287.12
  C 277.51 287.86 277.01 293.23 278.35 292.94
  A 0.39 0.39 0.0 0 0 278.66 292.63
  L 279.06 290.84
  A 1.01 1.00 5.5 0 1 280.02 290.06"
/>
<path stroke="#828283" vector-effect="non-scaling-stroke" d="
  M 290.43 290.05
  L 292.65 289.98
  A 0.52 0.52 0.0 0 0 293.12 289.64
  C 293.29 289.14 292.55 288.97 292.17 289.03
  Q 290.00 289.36 290.18 288.11
  A 1.00 1.00 0.0 0 1 291.17 287.25
  L 294.54 287.25
  A 0.21 0.21 0.0 0 0 294.75 287.04
  L 294.75 286.77
  A 0.52 0.51 90.0 0 0 294.24 286.25
  L 289.63 286.25
  A 1.00 0.99 -1.1 0 0 288.63 287.28
  L 288.79 291.79
  A 1.00 1.00 0.0 0 0 289.79 292.75
  L 294.54 292.75
  A 0.41 0.41 0.0 0 0 294.95 292.34
  L 294.95 292.07
  A 0.33 0.33 0.0 0 0 294.62 291.75
  L 291.03 291.75
  A 1.00 0.98 -9.4 0 1 290.09 291.09
  L 289.96 290.73
  A 0.51 0.51 0.0 0 1 290.43 290.05"
/>
<path stroke="#6c5f45" vector-effect="non-scaling-stroke" d="
  M 275.0768 238.3272
  A 3.43 0.87 -34.5 0 0 271.7572 239.5530
  A 3.43 0.87 -34.5 0 0 269.4232 242.2128
  A 3.43 0.87 -34.5 0 0 272.7428 240.9870
  A 3.43 0.87 -34.5 0 0 275.0768 238.3272"
/>
<path stroke="#6c5f45" vector-effect="non-scaling-stroke" d="
  M 295.63 241.90
  Q 294.69 243.30 294.79 244.98
  A 1.00 1.00 0.0 0 0 296.12 245.86
  Q 299.56 244.66 301.80 241.70
  A 1.01 0.99 -43.9 0 0 301.83 240.55
  L 300.79 238.97
  A 1.01 1.00 61.1 0 0 299.55 238.61
  Q 297.09 239.71 295.63 241.90"
/>
<path stroke="#828283" vector-effect="non-scaling-stroke" d="
  M 166.75 291.44
  C 173.10 293.09 172.68 284.41 166.73 286.08
  A 1.00 0.99 82.4 0 0 166.00 287.04
  L 166.00 290.47
  A 1.00 0.99 -83.0 0 0 166.75 291.44"
/>
<path stroke="#828283" vector-effect="non-scaling-stroke" d="
  M 118.85 289.60
  A 0.90 0.90 0.0 0 0 117.95 288.70
  A 0.90 0.90 0.0 0 0 117.05 289.60
  A 0.90 0.90 0.0 0 0 117.95 290.50
  A 0.90 0.90 0.0 0 0 118.85 289.60"
/>
<path stroke="#828283" vector-effect="non-scaling-stroke" d="
  M 223.83 289.01
  C 220.57 287.26 224.75 292.77 224.35 289.75
  A 1.00 0.99 10.3 0 0 223.83 289.01"
/>
<path stroke="#828283" vector-effect="non-scaling-stroke" d="
  M 237.50 287.73
  Q 231.92 285.98 233.72 291.10
  A 1.01 1.00 -4.0 0 0 234.48 291.75
  Q 237.30 292.30 238.17 288.93
  A 1.00 1.00 0.0 0 0 237.50 287.73"
/>
<path stroke="#828283" vector-effect="non-scaling-stroke" d="
  M 246.6302 290.5140
  A 1.06 0.78 108.7 0 0 247.7088 289.7601
  A 1.06 0.78 108.7 0 0 247.3098 288.5060
  A 1.06 0.78 108.7 0 0 246.2312 289.2599
  A 1.06 0.78 108.7 0 0 246.6302 290.5140"
/>
<path stroke="#828283" vector-effect="non-scaling-stroke" d="
  M 282.4393 288.2097
  A 1.78 0.96 1.6 0 0 280.6868 287.2004
  A 1.78 0.96 1.6 0 0 278.8807 288.1103
  A 1.78 0.96 1.6 0 0 280.6332 289.1196
  A 1.78 0.96 1.6 0 0 282.4393 288.2097"
/>
</g>
<g fill="#0c0c0e">
<path d="
  M 0.00 0.00
  L 400.00 0.00
  L 400.00 400.00
  L 0.00 400.00
  L 0.00 0.00
  Z
  M 224.79 153.25
  L 209.78 137.33
  Q 207.99 135.44 210.45 136.29
  Q 210.64 136.35 210.84 136.44
  Q 211.80 136.87 212.07 136.19
  A 0.80 0.80 0.0 0 1 212.81 135.69
  Q 219.06 135.69 225.31 135.63
  C 226.30 135.62 225.20 135.23 225.10 135.22
  Q 217.24 134.79 211.83 134.44
  Q 208.31 134.21 210.79 131.52
  L 224.80 116.31
  A 0.25 0.01 -46.6 0 0 224.96 116.12
  Q 224.94 116.07 224.90 116.04
  A 0.28 0.19 -45.4 0 0 224.59 116.10
  Q 217.02 123.11 209.41 130.05
  C 208.76 130.65 208.59 131.71 207.25 131.46
  C 207.51 130.47 210.03 122.46 209.54 122.33
  A 0.34 0.33 -73.6 0 0 209.15 122.55
  L 206.77 129.46
  A 1.01 0.99 -1.5 0 1 206.19 130.06
  Q 205.56 130.31 205.29 131.00
  Q 205.15 131.23 204.95 131.39
  A 0.79 0.79 0.0 0 1 203.95 131.39
  Q 195.06 124.17 187.00 115.48
  Q 198.00 110.77 209.40 114.99
  A 0.99 0.98 45.4 0 0 210.08 115.00
  Q 213.70 113.73 210.14 112.44
  C 201.05 109.17 189.75 109.20 181.58 114.75
  C 170.91 122.00 165.01 131.85 165.65 144.47
  C 166.58 162.81 181.98 176.40 200.20 175.58
  Q 217.61 174.81 227.47 158.29
  C 227.78 157.77 227.66 158.01 228.10 157.77
  A 1.02 1.01 73.7 0 0 228.61 156.82
  Q 228.54 155.80 229.18 154.25
  Q 233.62 143.56 229.34 131.51
  Q 227.97 127.66 226.35 131.11
  A 1.01 0.99 47.8 0 0 226.32 131.89
  Q 230.21 142.40 226.50 153.06
  Q 225.92 154.74 224.79 153.25
  Z
  M 204.36 196.69
  C 212.33 191.83 233.01 187.25 236.81 200.47
  C 239.38 209.42 230.33 221.89 223.98 227.50
  Q 222.38 228.91 217.88 230.70
  A 0.99 0.98 82.2 0 0 217.26 231.52
  C 216.89 234.92 224.22 229.36 225.31 228.31
  C 231.45 222.41 237.79 213.48 238.53 204.75
  C 239.27 196.08 232.67 191.03 224.75 190.52
  C 194.98 188.59 176.62 220.92 181.38 247.12
  C 183.99 261.51 196.41 272.79 211.51 266.02
  C 224.19 260.35 233.29 248.55 241.06 236.89
  C 242.91 234.11 240.22 235.60 239.67 236.40
  C 234.15 244.54 226.18 255.51 217.72 260.64
  C 200.76 270.93 185.78 259.30 184.54 241.49
  C 183.40 225.11 189.84 205.52 204.36 196.69
  Z
  M 115.57 223.76
  Q 110.89 225.31 106.64 227.82
  Q 95.71 234.27 93.35 245.79
  C 85.67 283.47 154.78 261.14 137.28 234.27
  C 136.74 233.45 134.59 231.81 134.76 234.16
  A 1.05 1.02 23.0 0 0 135.00 234.73
  C 149.74 252.12 116.79 268.65 102.80 261.17
  C 93.45 256.17 95.99 241.82 101.82 235.00
  Q 112.11 222.98 128.99 223.78
  A 0.99 0.98 15.1 0 0 129.91 223.26
  Q 130.62 221.95 128.49 222.14
  Q 122.58 222.68 119.06 221.63
  C 113.18 219.87 110.57 214.45 114.08 209.11
  C 122.44 196.40 142.76 209.64 129.48 215.43
  A 0.80 0.79 -5.3 0 0 129.02 215.98
  Q 128.83 216.78 130.23 216.43
  C 141.17 213.75 136.52 201.69 127.43 201.06
  C 119.92 200.55 111.86 205.37 111.05 213.16
  Q 110.48 218.66 115.79 221.96
  Q 117.60 223.09 115.57 223.76
  Z
  M 165.08 202.95
  Q 162.25 201.07 159.19 202.73
  Q 158.72 202.99 158.53 203.27
  Q 157.64 204.56 159.12 204.05
  C 165.59 201.80 159.36 214.07 158.40 215.95
  Q 152.01 228.43 145.67 240.92
  C 143.48 245.23 133.11 268.51 147.71 264.42
  C 149.62 263.89 149.10 262.94 147.43 263.35
  C 131.99 267.15 156.85 226.50 160.35 220.63
  Q 164.21 214.15 166.51 207.07
  Q 167.36 204.46 165.08 202.95
  Z
  M 292.14 228.10
  C 289.85 232.15 268.52 271.22 288.05 264.29
  C 289.44 263.79 288.44 263.27 287.79 263.37
  Q 280.19 264.55 282.55 256.48
  C 286.60 242.59 295.12 229.73 302.21 217.19
  Q 304.85 212.52 306.54 206.25
  A 1.02 1.00 -47.6 0 0 306.52 205.66
  Q 304.53 199.99 298.76 202.80
  C 298.18 203.08 297.43 203.96 298.50 204.22
  A 1.05 1.02 -52.0 0 0 299.23 204.12
  Q 299.96 203.70 300.78 203.72
  A 0.99 0.99 0.0 0 1 301.75 204.67
  C 302.07 210.96 295.31 222.49 292.14 228.10
  Z
  M 254.7427 231.0347
  A 4.82 1.61 123.6 0 0 258.7510 227.9110
  A 4.82 1.61 123.6 0 0 260.0773 223.0053
  A 4.82 1.61 123.6 0 0 256.0690 226.1290
  A 4.82 1.61 123.6 0 0 254.7427 231.0347
  Z
  M 267.59 245.66
  L 267.65 245.23
  A 1.01 1.00 -5.4 0 1 268.32 244.43
  C 271.54 243.35 280.84 239.35 274.42 235.28
  A 1.03 1.01 -34.7 0 0 273.66 235.15
  Q 268.34 236.36 265.81 242.23
  Q 263.97 246.50 267.14 248.45
  A 1.02 1.00 58.0 0 0 267.72 248.59
  Q 271.08 248.39 274.30 246.54
  C 275.33 245.94 283.32 241.08 281.65 240.33
  A 0.66 0.65 36.7 0 0 280.99 240.42
  C 278.37 242.50 272.36 247.24 268.47 246.80
  A 1.01 1.00 7.5 0 1 267.59 245.66
  Z
  M 291.90 242.98
  Q 294.08 241.02 293.20 243.81
  Q 292.37 246.44 293.18 247.82
  C 295.43 251.65 307.67 244.06 306.25 239.02
  A 1.01 1.00 -21.7 0 1 306.76 237.86
  Q 307.60 237.42 307.37 236.62
  A 0.81 0.79 86.8 0 0 306.76 236.06
  C 301.11 234.93 295.32 238.43 291.33 241.82
  Q 290.59 242.45 290.82 243.03
  A 0.52 0.51 -32.5 0 0 291.64 243.21
  L 291.90 242.98
  Z
  M 249.29 240.14
  L 249.37 240.23
  A 0.29 0.24 -43.5 0 1 249.33 240.59
  Q 247.22 242.85 245.99 245.76
  Q 244.79 248.59 247.99 248.04
  Q 255.77 246.71 262.20 242.21
  Q 262.68 241.87 262.85 241.47
  Q 263.76 239.36 261.89 240.70
  Q 257.38 243.91 252.09 245.63
  Q 248.80 246.69 251.01 244.04
  C 251.51 243.44 258.94 235.49 254.28 235.98
  Q 250.02 236.43 246.57 240.28
  Q 244.21 242.92 247.35 241.27
  Q 248.27 240.79 249.06 240.05
  A 0.22 0.11 47.9 0 1 249.29 240.14
  Z
  M 106.24 288.81
  Q 105.38 287.30 104.71 285.71
  C 104.50 285.19 103.51 284.20 103.12 285.05
  A 0.66 0.63 46.2 0 0 103.12 285.58
  L 106.09 292.25
  Q 106.98 294.23 107.91 292.27
  L 110.97 285.83
  Q 111.61 284.48 110.19 284.94
  Q 109.28 285.24 109.01 286.17
  Q 108.50 287.89 108.48 287.92
  Q 108.23 288.39 107.96 288.84
  A 1.00 0.99 45.9 0 1 106.24 288.81
  Z
  M 168.95 284.79
  Q 167.20 284.55 165.37 284.80
  A 1.00 0.99 86.4 0 0 164.50 285.79
  L 164.50 291.78
  A 1.00 1.00 0.0 0 0 165.53 292.78
  L 170.30 292.63
  A 0.97 0.95 -67.3 0 0 170.94 292.36
  C 174.13 289.41 173.31 285.38 168.95 284.79
  Z
  M 201.29 291.39
  Q 199.08 292.63 196.14 290.20
  A 1.01 0.99 30.5 0 1 195.84 289.08
  Q 197.54 284.53 201.66 286.51
  A 0.81 0.80 -61.5 0 0 202.69 286.20
  C 203.76 284.43 197.13 284.02 194.90 287.03
  A 1.01 0.98 65.3 0 0 194.70 287.60
  C 194.54 295.48 204.97 293.57 203.22 289.37
  A 0.99 0.99 0.0 0 0 202.30 288.75
  L 199.59 288.75
  A 0.33 0.33 0.0 0 0 199.26 289.12
  L 199.31 289.44
  A 1.00 0.04 13.6 0 0 200.26 289.71
  L 201.09 289.91
  Q 203.05 290.39 201.29 291.39
  Z
  M 138.14 290.84
  L 138.17 286.95
  A 0.78 0.78 0.0 0 0 137.68 286.21
  L 137.31 286.06
  A 0.41 0.41 0.0 0 0 136.75 286.44
  L 136.75 291.75
  A 1.00 1.00 0.0 0 0 137.75 292.75
  L 141.99 292.75
  Q 144.30 292.75 142.14 291.96
  Q 140.82 291.47 139.37 291.82
  A 1.00 0.99 -6.3 0 1 138.14 290.84
  Z
  M 209.38 292.19
  Q 214.81 294.32 215.22 289.79
  C 215.31 288.81 215.73 285.88 214.43 286.57
  A 0.81 0.80 -14.3 0 0 214.00 287.28
  L 214.00 290.54
  A 1.00 1.00 0.0 0 1 213.42 291.45
  Q 211.72 292.25 210.37 291.17
  A 0.99 0.98 -69.7 0 1 210.00 290.36
  C 210.04 289.01 210.19 286.40 209.46 286.10
  A 0.51 0.51 0.0 0 0 208.75 286.57
  L 208.75 291.26
  A 0.99 0.98 11.2 0 0 209.38 292.19
  Z
  M 268.23 291.82
  Q 266.60 292.06 267.24 289.25
  Q 267.54 287.93 267.09 286.95
  Q 266.29 285.24 265.88 287.08
  Q 264.19 294.61 271.49 292.31
  A 1.01 0.99 82.3 0 0 272.19 291.38
  L 272.28 286.69
  A 0.53 0.51 12.6 0 0 271.96 286.20
  C 270.65 285.67 270.97 289.93 270.98 290.56
  A 1.00 1.00 0.0 0 1 270.12 291.55
  L 268.23 291.82
  Z
  M 119.91 291.85
  L 120.56 292.76
  A 0.52 0.51 69.4 0 0 121.01 292.97
  C 122.63 292.87 119.07 287.38 118.84 286.93
  Q 117.91 285.10 117.04 286.95
  L 114.52 292.35
  A 0.26 0.26 0.0 0 0 114.72 292.72
  L 114.98 292.75
  A 0.62 0.62 0.0 0 0 115.61 292.44
  Q 116.79 290.43 119.47 291.51
  A 1.05 1.01 -6.3 0 1 119.91 291.85
  Z
  M 130.80 292.80
  Q 131.35 292.93 131.79 292.72
  Q 133.81 291.73 131.56 291.74
  L 129.00 291.76
  A 1.00 1.00 0.0 0 1 128.00 290.76
  L 128.00 287.04
  Q 128.00 284.88 126.82 286.69
  Q 126.58 287.06 126.53 287.77
  Q 126.41 289.63 126.55 291.65
  A 1.00 0.99 -3.2 0 0 127.60 292.58
  C 128.89 292.51 129.42 292.47 130.80 292.80
  Z
  M 150.64 287.07
  Q 151.86 287.76 152.83 287.21
  Q 154.50 286.25 152.57 286.25
  L 147.90 286.25
  A 1.00 1.00 0.0 0 0 146.89 287.25
  L 146.91 291.74
  A 1.01 1.00 -89.4 0 0 147.88 292.74
  Q 152.09 292.88 152.93 292.70
  C 155.83 292.08 149.92 291.78 149.69 291.80
  A 1.01 1.01 0.0 0 1 148.72 291.20
  Q 147.98 289.51 150.52 290.05
  A 0.80 0.80 0.0 0 0 151.40 289.63
  C 152.12 288.23 145.29 289.94 149.60 287.10
  A 1.01 1.00 43.3 0 1 150.64 287.07
  Z
  M 179.76 287.44
  C 180.64 287.22 184.36 287.62 183.89 286.62
  A 0.64 0.63 -12.2 0 0 183.31 286.25
  L 178.75 286.25
  A 1.00 1.00 0.0 0 0 177.75 287.25
  L 177.75 291.71
  A 1.00 0.99 -0.6 0 0 178.77 292.70
  Q 181.11 292.66 183.42 292.63
  Q 184.25 292.62 184.24 292.08
  A 0.33 0.32 -90.0 0 0 183.92 291.75
  L 180.05 291.75
  A 1.01 1.01 0.0 0 1 179.21 291.30
  C 178.72 290.56 179.39 290.04 180.08 289.94
  C 185.88 289.15 178.99 289.36 179.16 288.10
  A 0.80 0.80 0.0 0 1 179.76 287.44
  Z
  M 224.86 291.48
  Q 225.13 291.84 225.46 292.11
  Q 228.64 294.74 226.67 291.11
  L 224.38 286.90
  Q 223.40 285.11 222.58 286.97
  Q 221.72 288.95 220.68 290.85
  Q 219.63 292.76 221.05 292.35
  Q 221.94 292.09 223.59 291.21
  A 1.00 1.00 0.0 0 1 224.86 291.48
  Z
  M 238.02 292.14
  C 241.50 287.85 236.74 285.70 232.85 286.28
  A 1.00 1.00 0.0 0 0 232.00 287.27
  L 232.00 291.79
  A 1.00 0.99 88.1 0 0 233.06 292.79
  L 237.31 292.51
  A 1.00 0.98 16.9 0 0 238.02 292.14
  Z
  M 244.60 292.51
  C 246.46 288.57 249.90 293.46 250.56 292.80
  A 0.42 0.42 0.0 0 0 250.64 292.32
  L 247.95 286.89
  Q 247.04 285.06 246.15 286.90
  C 246.11 286.99 242.56 293.77 244.25 292.88
  A 0.82 0.78 -3.2 0 0 244.60 292.51
  Z
  M 257.17 290.79
  L 256.99 286.69
  A 0.26 0.25 9.7 0 0 256.81 286.45
  L 256.54 286.37
  A 0.80 0.80 0.0 0 0 255.50 287.13
  L 255.50 291.74
  A 1.00 1.00 0.0 0 0 256.47 292.74
  Q 260.03 292.84 260.74 292.73
  Q 262.13 292.53 261.34 291.95
  A 0.97 0.96 -26.0 0 0 260.75 291.75
  L 258.17 291.75
  A 1.00 1.00 0.0 0 1 257.17 290.79
  Z
  M 280.02 290.06
  C 281.61 290.03 285.45 289.94 283.66 286.97
  A 0.99 0.98 76.0 0 0 282.87 286.49
  L 278.63 286.20
  A 1.01 1.00 4.1 0 0 277.56 287.12
  C 277.51 287.86 277.01 293.23 278.35 292.94
  A 0.39 0.39 0.0 0 0 278.66 292.63
  L 279.06 290.84
  A 1.01 1.00 5.5 0 1 280.02 290.06
  Z
  M 290.43 290.05
  L 292.65 289.98
  A 0.52 0.52 0.0 0 0 293.12 289.64
  C 293.29 289.14 292.55 288.97 292.17 289.03
  Q 290.00 289.36 290.18 288.11
  A 1.00 1.00 0.0 0 1 291.17 287.25
  L 294.54 287.25
  A 0.21 0.21 0.0 0 0 294.75 287.04
  L 294.75 286.77
  A 0.52 0.51 90.0 0 0 294.24 286.25
  L 289.63 286.25
  A 1.00 0.99 -1.1 0 0 288.63 287.28
  L 288.79 291.79
  A 1.00 1.00 0.0 0 0 289.79 292.75
  L 294.54 292.75
  A 0.41 0.41 0.0 0 0 294.95 292.34
  L 294.95 292.07
  A 0.33 0.33 0.0 0 0 294.62 291.75
  L 291.03 291.75
  A 1.00 0.98 -9.4 0 1 290.09 291.09
  L 289.96 290.73
  A 0.51 0.51 0.0 0 1 290.43 290.05
  Z"
/>
<path d="
  M 186.00 115.96
  Q 194.65 124.29 202.53 133.35
  C 202.87 133.75 202.86 134.08 202.22 134.02
  A 0.76 0.74 67.6 0 1 201.78 133.83
  Q 200.40 132.67 199.31 133.85
  A 1.01 1.01 0.0 0 1 198.62 134.17
  L 190.10 134.48
  A 0.40 0.39 -70.4 0 0 189.79 134.63
  Q 189.51 134.99 190.00 135.00
  Q 196.63 135.20 200.88 135.56
  A 1.00 0.99 -71.2 0 1 201.63 137.10
  Q 201.36 137.51 201.15 137.95
  Q 200.56 139.13 199.96 139.74
  Q 199.06 140.67 198.17 141.61
  Q 181.92 158.71 199.29 142.75
  L 204.24 138.21
  A 0.26 0.25 -37.1 0 1 204.63 138.26
  L 204.79 138.50
  L 202.07 147.21
  A 0.22 0.18 -78.7 0 0 202.22 147.48
  C 202.80 147.55 205.39 140.45 205.75 139.54
  L 206.98 138.68
  A 1.02 1.01 47.7 0 1 208.20 138.74
  Q 216.67 145.86 224.46 153.75
  L 225.29 155.12
  A 1.02 1.01 44.7 0 1 225.30 156.14
  Q 215.74 172.94 197.70 172.70
  C 166.38 172.27 157.00 129.15 186.00 115.96
  Z"
/>
<ellipse cx="0.00" cy="0.00" transform="translate(272.25,240.27) rotate(-34.5)" rx="3.43" ry="0.87"/>
<path d="
  M 295.63 241.90
  Q 297.09 239.71 299.55 238.61
  A 1.01 1.00 61.1 0 1 300.79 238.97
  L 301.83 240.55
  A 1.01 0.99 -43.9 0 1 301.80 241.70
  Q 299.56 244.66 296.12 245.86
  A 1.00 1.00 0.0 0 1 294.79 244.98
  Q 294.69 243.30 295.63 241.90
  Z"
/>
<path d="
  M 166.73 286.08
  C 172.68 284.41 173.10 293.09 166.75 291.44
  A 1.00 0.99 -83.0 0 1 166.00 290.47
  L 166.00 287.04
  A 1.00 0.99 82.4 0 1 166.73 286.08
  Z"
/>
<path d="
  M 237.50 287.73
  A 1.00 1.00 0.0 0 1 238.17 288.93
  Q 237.30 292.30 234.48 291.75
  A 1.01 1.00 -4.0 0 1 233.72 291.10
  Q 231.92 285.98 237.50 287.73
  Z"
/>
<ellipse cx="0.00" cy="0.00" transform="translate(280.66,288.16) rotate(1.6)" rx="1.78" ry="0.96"/>
<path d="
  M 224.35 289.75
  C 224.75 292.77 220.57 287.26 223.83 289.01
  A 1.00 0.99 10.3 0 1 224.35 289.75
  Z"
/>
<ellipse cx="0.00" cy="0.00" transform="translate(246.97,289.51) rotate(108.7)" rx="1.06" ry="0.78"/>
<circle cx="117.95" cy="289.60" r="0.90"/>
</g>
<g fill="#ccb27c">
<path d="
  M 187.00 115.48
  L 186.00 115.96
  C 157.00 129.15 166.38 172.27 197.70 172.70
  Q 215.74 172.94 225.30 156.14
  A 1.02 1.01 44.7 0 0 225.29 155.12
  L 224.46 153.75
  L 224.79 153.25
  Q 225.92 154.74 226.50 153.06
  Q 230.21 142.40 226.32 131.89
  A 1.01 0.99 47.8 0 1 226.35 131.11
  Q 227.97 127.66 229.34 131.51
  Q 233.62 143.56 229.18 154.25
  Q 228.54 155.80 228.61 156.82
  A 1.02 1.01 73.7 0 1 228.10 157.77
  C 227.66 158.01 227.78 157.77 227.47 158.29
  Q 217.61 174.81 200.20 175.58
  C 181.98 176.40 166.58 162.81 165.65 144.47
  C 165.01 131.85 170.91 122.00 181.58 114.75
  C 189.75 109.20 201.05 109.17 210.14 112.44
  Q 213.70 113.73 210.08 115.00
  A 0.99 0.98 45.4 0 1 209.40 114.99
  Q 198.00 110.77 187.00 115.48
  Z"
/>
<path d="
  M 207.25 131.46
  L 205.29 131.00
  Q 205.56 130.31 206.19 130.06
  A 1.01 0.99 -1.5 0 0 206.77 129.46
  L 209.15 122.55
  A 0.34 0.33 -73.6 0 1 209.54 122.33
  C 210.03 122.46 207.51 130.47 207.25 131.46
  Z"
/>
<path d="
  M 204.79 138.50
  L 205.75 139.54
  C 205.39 140.45 202.80 147.55 202.22 147.48
  A 0.22 0.18 -78.7 0 1 202.07 147.21
  L 204.79 138.50
  Z"
/>
<path d="
  M 204.36 196.69
  C 189.84 205.52 183.40 225.11 184.54 241.49
  C 185.78 259.30 200.76 270.93 217.72 260.64
  C 226.18 255.51 234.15 244.54 239.67 236.40
  C 240.22 235.60 242.91 234.11 241.06 236.89
  C 233.29 248.55 224.19 260.35 211.51 266.02
  C 196.41 272.79 183.99 261.51 181.38 247.12
  C 176.62 220.92 194.98 188.59 224.75 190.52
  C 232.67 191.03 239.27 196.08 238.53 204.75
  C 237.79 213.48 231.45 222.41 225.31 228.31
  C 224.22 229.36 216.89 234.92 217.26 231.52
  A 0.99 0.98 82.2 0 1 217.88 230.70
  Q 222.38 228.91 223.98 227.50
  C 230.33 221.89 239.38 209.42 236.81 200.47
  C 233.01 187.25 212.33 191.83 204.36 196.69
  Z"
/>
<path d="
  M 115.57 223.76
  Q 117.60 223.09 115.79 221.96
  Q 110.48 218.66 111.05 213.16
  C 111.86 205.37 119.92 200.55 127.43 201.06
  C 136.52 201.69 141.17 213.75 130.23 216.43
  Q 128.83 216.78 129.02 215.98
  A 0.80 0.79 -5.3 0 1 129.48 215.43
  C 142.76 209.64 122.44 196.40 114.08 209.11
  C 110.57 214.45 113.18 219.87 119.06 221.63
  Q 122.58 222.68 128.49 222.14
  Q 130.62 221.95 129.91 223.26
  A 0.99 0.98 15.1 0 1 128.99 223.78
  Q 112.11 222.98 101.82 235.00
  C 95.99 241.82 93.45 256.17 102.80 261.17
  C 116.79 268.65 149.74 252.12 135.00 234.73
  A 1.05 1.02 23.0 0 1 134.76 234.16
  C 134.59 231.81 136.74 233.45 137.28 234.27
  C 154.78 261.14 85.67 283.47 93.35 245.79
  Q 95.71 234.27 106.64 227.82
  Q 110.89 225.31 115.57 223.76
  Z"
/>
<path d="
  M 165.08 202.95
  Q 167.36 204.46 166.51 207.07
  Q 164.21 214.15 160.35 220.63
  C 156.85 226.50 131.99 267.15 147.43 263.35
  C 149.10 262.94 149.62 263.89 147.71 264.42
  C 133.11 268.51 143.48 245.23 145.67 240.92
  Q 152.01 228.43 158.40 215.95
  C 159.36 214.07 165.59 201.80 159.12 204.05
  Q 157.64 204.56 158.53 203.27
  Q 158.72 202.99 159.19 202.73
  Q 162.25 201.07 165.08 202.95
  Z"
/>
<path d="
  M 288.05 264.29
  C 268.52 271.22 289.85 232.15 292.14 228.10
  C 295.31 222.49 302.07 210.96 301.75 204.67
  A 0.99 0.99 0.0 0 0 300.78 203.72
  Q 299.96 203.70 299.23 204.12
  A 1.05 1.02 -52.0 0 1 298.50 204.22
  C 297.43 203.96 298.18 203.08 298.76 202.80
  Q 304.53 199.99 306.52 205.66
  A 1.02 1.00 -47.6 0 1 306.54 206.25
  Q 304.85 212.52 302.21 217.19
  C 295.12 229.73 286.60 242.59 282.55 256.48
  Q 280.19 264.55 287.79 263.37
  C 288.44 263.27 289.44 263.79 288.05 264.29
  Z"
/>
<ellipse cx="0.00" cy="0.00" transform="translate(257.41,227.02) rotate(123.6)" rx="4.82" ry="1.61"/>
<path d="
  M 268.47 246.80
  C 272.36 247.24 278.37 242.50 280.99 240.42
  A 0.66 0.65 36.7 0 1 281.65 240.33
  C 283.32 241.08 275.33 245.94 274.30 246.54
  Q 271.08 248.39 267.72 248.59
  A 1.02 1.00 58.0 0 1 267.14 248.45
  Q 263.97 246.50 265.81 242.23
  Q 268.34 236.36 273.66 235.15
  A 1.03 1.01 -34.7 0 1 274.42 235.28
  C 280.84 239.35 271.54 243.35 268.32 244.43
  A 1.01 1.00 -5.4 0 0 267.65 245.23
  L 267.59 245.66
  A 1.01 1.00 7.5 0 0 268.47 246.80
  Z
  M 275.0768 238.3272
  A 3.43 0.87 -34.5 0 0 271.7572 239.5530
  A 3.43 0.87 -34.5 0 0 269.4232 242.2128
  A 3.43 0.87 -34.5 0 0 272.7428 240.9870
  A 3.43 0.87 -34.5 0 0 275.0768 238.3272
  Z"
/>
<path d="
  M 291.90 242.98
  L 291.64 243.21
  A 0.52 0.51 -32.5 0 1 290.82 243.03
  Q 290.59 242.45 291.33 241.82
  C 295.32 238.43 301.11 234.93 306.76 236.06
  A 0.81 0.79 86.8 0 1 307.37 236.62
  Q 307.60 237.42 306.76 237.86
  A 1.01 1.00 -21.7 0 0 306.25 239.02
  C 307.67 244.06 295.43 251.65 293.18 247.82
  Q 292.37 246.44 293.20 243.81
  Q 294.08 241.02 291.90 242.98
  Z
  M 295.63 241.90
  Q 294.69 243.30 294.79 244.98
  A 1.00 1.00 0.0 0 0 296.12 245.86
  Q 299.56 244.66 301.80 241.70
  A 1.01 0.99 -43.9 0 0 301.83 240.55
  L 300.79 238.97
  A 1.01 1.00 61.1 0 0 299.55 238.61
  Q 297.09 239.71 295.63 241.90
  Z"
/>
<path d="
  M 249.06 240.05
  Q 248.27 240.79 247.35 241.27
  Q 244.21 242.92 246.57 240.28
  Q 250.02 236.43 254.28 235.98
  C 258.94 235.49 251.51 243.44 251.01 244.04
  Q 248.80 246.69 252.09 245.63
  Q 257.38 243.91 261.89 240.70
  Q 263.76 239.36 262.85 241.47
  Q 262.68 241.87 262.20 242.21
  Q 255.77 246.71 247.99 248.04
  Q 244.79 248.59 245.99 245.76
  Q 247.22 242.85 249.33 240.59
  A 0.29 0.24 -43.5 0 0 249.37 240.23
  L 249.29 240.14
  A 0.22 0.11 47.9 0 0 249.06 240.05
  Z"
/>
</g>
<g fill="#f7f7f8">
<path d="
  M 187.00 115.48
  Q 195.06 124.17 203.95 131.39
  A 0.79 0.79 0.0 0 0 204.95 131.39
  Q 205.15 131.23 205.29 131.00
  L 207.25 131.46
  C 208.59 131.71 208.76 130.65 209.41 130.05
  Q 217.02 123.11 224.59 116.10
  A 0.28 0.19 -45.4 0 1 224.90 116.04
  Q 224.94 116.07 224.96 116.12
  A 0.25 0.01 -46.6 0 1 224.80 116.31
  L 210.79 131.52
  Q 208.31 134.21 211.83 134.44
  Q 217.24 134.79 225.10 135.22
  C 225.20 135.23 226.30 135.62 225.31 135.63
  Q 219.06 135.69 212.81 135.69
  A 0.80 0.80 0.0 0 0 212.07 136.19
  Q 211.80 136.87 210.84 136.44
  Q 210.64 136.35 210.45 136.29
  Q 207.99 135.44 209.78 137.33
  L 224.79 153.25
  L 224.46 153.75
  Q 216.67 145.86 208.20 138.74
  A 1.02 1.01 47.7 0 0 206.98 138.68
  L 205.75 139.54
  L 204.79 138.50
  L 204.63 138.26
  A 0.26 0.25 -37.1 0 0 204.24 138.21
  L 199.29 142.75
  Q 181.92 158.71 198.17 141.61
  Q 199.06 140.67 199.96 139.74
  Q 200.56 139.13 201.15 137.95
  Q 201.36 137.51 201.63 137.10
  A 1.00 0.99 -71.2 0 0 200.88 135.56
  Q 196.63 135.20 190.00 135.00
  Q 189.51 134.99 189.79 134.63
  A 0.40 0.39 -70.4 0 1 190.10 134.48
  L 198.62 134.17
  A 1.01 1.01 0.0 0 0 199.31 133.85
  Q 200.40 132.67 201.78 133.83
  A 0.76 0.74 67.6 0 0 202.22 134.02
  C 202.86 134.08 202.87 133.75 202.53 133.35
  Q 194.65 124.29 186.00 115.96
  L 187.00 115.48
  Z"
/>
<path d="
  M 107.96 288.84
  Q 108.23 288.39 108.48 287.92
  Q 108.50 287.89 109.01 286.17
  Q 109.28 285.24 110.19 284.94
  Q 111.61 284.48 110.97 285.83
  L 107.91 292.27
  Q 106.98 294.23 106.09 292.25
  L 103.12 285.58
  A 0.66 0.63 46.2 0 1 103.12 285.05
  C 103.51 284.20 104.50 285.19 104.71 285.71
  Q 105.38 287.30 106.24 288.81
  A 1.00 0.99 45.9 0 0 107.96 288.84
  Z"
/>
<path d="
  M 168.95 284.79
  C 173.31 285.38 174.13 289.41 170.94 292.36
  A 0.97 0.95 -67.3 0 1 170.30 292.63
  L 165.53 292.78
  A 1.00 1.00 0.0 0 1 164.50 291.78
  L 164.50 285.79
  A 1.00 0.99 86.4 0 1 165.37 284.80
  Q 167.20 284.55 168.95 284.79
  Z
  M 166.75 291.44
  C 173.10 293.09 172.68 284.41 166.73 286.08
  A 1.00 0.99 82.4 0 0 166.00 287.04
  L 166.00 290.47
  A 1.00 0.99 -83.0 0 0 166.75 291.44
  Z"
/>
<path d="
  M 201.09 289.91
  L 200.26 289.71
  A 1.00 0.04 13.6 0 1 199.31 289.44
  L 199.26 289.12
  A 0.33 0.33 0.0 0 1 199.59 288.75
  L 202.30 288.75
  A 0.99 0.99 0.0 0 1 203.22 289.37
  C 204.97 293.57 194.54 295.48 194.70 287.60
  A 1.01 0.98 65.3 0 1 194.90 287.03
  C 197.13 284.02 203.76 284.43 202.69 286.20
  A 0.81 0.80 -61.5 0 1 201.66 286.51
  Q 197.54 284.53 195.84 289.08
  A 1.01 0.99 30.5 0 0 196.14 290.20
  Q 199.08 292.63 201.29 291.39
  Q 203.05 290.39 201.09 289.91
  Z"
/>
<path d="
  M 138.14 290.84
  A 1.00 0.99 -6.3 0 0 139.37 291.82
  Q 140.82 291.47 142.14 291.96
  Q 144.30 292.75 141.99 292.75
  L 137.75 292.75
  A 1.00 1.00 0.0 0 1 136.75 291.75
  L 136.75 286.44
  A 0.41 0.41 0.0 0 1 137.31 286.06
  L 137.68 286.21
  A 0.78 0.78 0.0 0 1 138.17 286.95
  L 138.14 290.84
  Z"
/>
<path d="
  M 209.38 292.19
  A 0.99 0.98 11.2 0 1 208.75 291.26
  L 208.75 286.57
  A 0.51 0.51 0.0 0 1 209.46 286.10
  C 210.19 286.40 210.04 289.01 210.00 290.36
  A 0.99 0.98 -69.7 0 0 210.37 291.17
  Q 211.72 292.25 213.42 291.45
  A 1.00 1.00 0.0 0 0 214.00 290.54
  L 214.00 287.28
  A 0.81 0.80 -14.3 0 1 214.43 286.57
  C 215.73 285.88 215.31 288.81 215.22 289.79
  Q 214.81 294.32 209.38 292.19
  Z"
/>
<path d="
  M 268.23 291.82
  L 270.12 291.55
  A 1.00 1.00 0.0 0 0 270.98 290.56
  C 270.97 289.93 270.65 285.67 271.96 286.20
  A 0.53 0.51 12.6 0 1 272.28 286.69
  L 272.19 291.38
  A 1.01 0.99 82.3 0 1 271.49 292.31
  Q 264.19 294.61 265.88 287.08
  Q 266.29 285.24 267.09 286.95
  Q 267.54 287.93 267.24 289.25
  Q 266.60 292.06 268.23 291.82
  Z"
/>
<path d="
  M 119.47 291.51
  Q 116.79 290.43 115.61 292.44
  A 0.62 0.62 0.0 0 1 114.98 292.75
  L 114.72 292.72
  A 0.26 0.26 0.0 0 1 114.52 292.35
  L 117.04 286.95
  Q 117.91 285.10 118.84 286.93
  C 119.07 287.38 122.63 292.87 121.01 292.97
  A 0.52 0.51 69.4 0 1 120.56 292.76
  L 119.91 291.85
  A 1.05 1.01 -6.3 0 0 119.47 291.51
  Z
  M 118.85 289.60
  A 0.90 0.90 0.0 0 0 117.95 288.70
  A 0.90 0.90 0.0 0 0 117.05 289.60
  A 0.90 0.90 0.0 0 0 117.95 290.50
  A 0.90 0.90 0.0 0 0 118.85 289.60
  Z"
/>
<path d="
  M 130.80 292.80
  C 129.42 292.47 128.89 292.51 127.60 292.58
  A 1.00 0.99 -3.2 0 1 126.55 291.65
  Q 126.41 289.63 126.53 287.77
  Q 126.58 287.06 126.82 286.69
  Q 128.00 284.88 128.00 287.04
  L 128.00 290.76
  A 1.00 1.00 0.0 0 0 129.00 291.76
  L 131.56 291.74
  Q 133.81 291.73 131.79 292.72
  Q 131.35 292.93 130.80 292.80
  Z"
/>
<path d="
  M 150.64 287.07
  A 1.01 1.00 43.3 0 0 149.60 287.10
  C 145.29 289.94 152.12 288.23 151.40 289.63
  A 0.80 0.80 0.0 0 1 150.52 290.05
  Q 147.98 289.51 148.72 291.20
  A 1.01 1.01 0.0 0 0 149.69 291.80
  C 149.92 291.78 155.83 292.08 152.93 292.70
  Q 152.09 292.88 147.88 292.74
  A 1.01 1.00 -89.4 0 1 146.91 291.74
  L 146.89 287.25
  A 1.00 1.00 0.0 0 1 147.90 286.25
  L 152.57 286.25
  Q 154.50 286.25 152.83 287.21
  Q 151.86 287.76 150.64 287.07
  Z"
/>
<path d="
  M 179.16 288.10
  C 178.99 289.36 185.88 289.15 180.08 289.94
  C 179.39 290.04 178.72 290.56 179.21 291.30
  A 1.01 1.01 0.0 0 0 180.05 291.75
  L 183.92 291.75
  A 0.33 0.32 -90.0 0 1 184.24 292.08
  Q 184.25 292.62 183.42 292.63
  Q 181.11 292.66 178.77 292.70
  A 1.00 0.99 -0.6 0 1 177.75 291.71
  L 177.75 287.25
  A 1.00 1.00 0.0 0 1 178.75 286.25
  L 183.31 286.25
  A 0.64 0.63 -12.2 0 1 183.89 286.62
  C 184.36 287.62 180.64 287.22 179.76 287.44
  A 0.80 0.80 0.0 0 0 179.16 288.10
  Z"
/>
<path d="
  M 224.86 291.48
  A 1.00 1.00 0.0 0 0 223.59 291.21
  Q 221.94 292.09 221.05 292.35
  Q 219.63 292.76 220.68 290.85
  Q 221.72 288.95 222.58 286.97
  Q 223.40 285.11 224.38 286.90
  L 226.67 291.11
  Q 228.64 294.74 225.46 292.11
  Q 225.13 291.84 224.86 291.48
  Z
  M 223.83 289.01
  C 220.57 287.26 224.75 292.77 224.35 289.75
  A 1.00 0.99 10.3 0 0 223.83 289.01
  Z"
/>
<path d="
  M 232.85 286.28
  C 236.74 285.70 241.50 287.85 238.02 292.14
  A 1.00 0.98 16.9 0 1 237.31 292.51
  L 233.06 292.79
  A 1.00 0.99 88.1 0 1 232.00 291.79
  L 232.00 287.27
  A 1.00 1.00 0.0 0 1 232.85 286.28
  Z
  M 237.50 287.73
  Q 231.92 285.98 233.72 291.10
  A 1.01 1.00 -4.0 0 0 234.48 291.75
  Q 237.30 292.30 238.17 288.93
  A 1.00 1.00 0.0 0 0 237.50 287.73
  Z"
/>
<path d="
  M 250.56 292.80
  C 249.90 293.46 246.46 288.57 244.60 292.51
  A 0.82 0.78 -3.2 0 1 244.25 292.88
  C 242.56 293.77 246.11 286.99 246.15 286.90
  Q 247.04 285.06 247.95 286.89
  L 250.64 292.32
  A 0.42 0.42 0.0 0 1 250.56 292.80
  Z
  M 246.6302 290.5140
  A 1.06 0.78 108.7 0 0 247.7088 289.7601
  A 1.06 0.78 108.7 0 0 247.3098 288.5060
  A 1.06 0.78 108.7 0 0 246.2312 289.2599
  A 1.06 0.78 108.7 0 0 246.6302 290.5140
  Z"
/>
<path d="
  M 258.17 291.75
  L 260.75 291.75
  A 0.97 0.96 -26.0 0 1 261.34 291.95
  Q 262.13 292.53 260.74 292.73
  Q 260.03 292.84 256.47 292.74
  A 1.00 1.00 0.0 0 1 255.50 291.74
  L 255.50 287.13
  A 0.80 0.80 0.0 0 1 256.54 286.37
  L 256.81 286.45
  A 0.26 0.25 9.7 0 1 256.99 286.69
  L 257.17 290.79
  A 1.00 1.00 0.0 0 0 258.17 291.75
  Z"
/>
<path d="
  M 279.06 290.84
  L 278.66 292.63
  A 0.39 0.39 0.0 0 1 278.35 292.94
  C 277.01 293.23 277.51 287.86 277.56 287.12
  A 1.01 1.00 4.1 0 1 278.63 286.20
  L 282.87 286.49
  A 0.99 0.98 76.0 0 1 283.66 286.97
  C 285.45 289.94 281.61 290.03 280.02 290.06
  A 1.01 1.00 5.5 0 0 279.06 290.84
  Z
  M 282.4393 288.2097
  A 1.78 0.96 1.6 0 0 280.6868 287.2004
  A 1.78 0.96 1.6 0 0 278.8807 288.1103
  A 1.78 0.96 1.6 0 0 280.6332 289.1196
  A 1.78 0.96 1.6 0 0 282.4393 288.2097
  Z"
/>
<path d="
  M 289.96 290.73
  L 290.09 291.09
  A 1.00 0.98 -9.4 0 0 291.03 291.75
  L 294.62 291.75
  A 0.33 0.33 0.0 0 1 294.95 292.07
  L 294.95 292.34
  A 0.41 0.41 0.0 0 1 294.54 292.75
  L 289.79 292.75
  A 1.00 1.00 0.0 0 1 288.79 291.79
  L 288.63 287.28
  A 1.00 0.99 -1.1 0 1 289.63 286.25
  L 294.24 286.25
  A 0.52 0.51 -90.0 0 1 294.75 286.77
  L 294.75 287.04
  A 0.21 0.21 0.0 0 1 294.54 287.25
  L 291.17 287.25
  A 1.00 1.00 0.0 0 0 290.18 288.11
  Q 290.00 289.36 292.17 289.03
  C 292.55 288.97 293.29 289.14 293.12 289.64
  A 0.52 0.52 0.0 0 1 292.65 289.98
  L 290.43 290.05
  A 0.51 0.51 0.0 0 0 289.96 290.73
  Z"
/>
</g>
</svg>
