<?xml version="1.0" encoding="UTF-8" standalone="no"?>
<!DOCTYPE svg PUBLIC "-//W3C//DTD SVG 1.1//EN" "http://www.w3.org/Graphics/SVG/1.1/DTD/svg11.dtd">
<svg xmlns="http://www.w3.org/2000/svg" version="1.1" viewBox="0 0 355 697">
<g stroke-width="2.00" fill="none" stroke-linecap="butt">
<path stroke="#b6b6b5" vector-effect="non-scaling-stroke" d="
  M 169.00 72.21
  L 170.25 71.96"
/>
<path stroke="#808080" vector-effect="non-scaling-stroke" d="
  M 170.25 71.96
  Q 196.21 68.08 201.43 66.93
  C 206.69 65.76 208.95 67.07 211.52 71.72
  C 220.57 88.13 224.79 104.80 223.90 123.69
  Q 222.73 148.51 213.66 172.19
  C 205.15 194.42 191.65 203.43 170.76 211.77
  C 157.80 216.95 145.03 221.53 132.72 228.24
  C 115.19 237.79 108.69 253.81 120.43 271.58
  Q 123.44 276.13 135.29 294.75"
/>
<path stroke="#b6b6b5" vector-effect="non-scaling-stroke" d="
  M 135.29 294.75
  L 138.54 299.75"
/>
<path stroke="#808080" vector-effect="non-scaling-stroke" d="
  M 138.54 299.75
  L 141.96 309.97
  Q 142.54 311.73 140.75 311.26
  L 133.25 309.29"
/>
<path stroke="#b6b6b5" vector-effect="non-scaling-stroke" d="
  M 133.25 309.29
  L 127.04 307.00"
/>
<path stroke="#808080" vector-effect="non-scaling-stroke" d="
  M 127.04 307.00
  C 56.76 270.71 52.49 180.21 62.72 112.73"
/>
<path stroke="#b6b6b5" vector-effect="non-scaling-stroke" d="
  M 62.72 112.73
  L 62.21 111.75"
/>
<path stroke="#808080" vector-effect="non-scaling-stroke" d="
  M 62.21 111.75
  Q 63.79 108.98 63.54 105.75"
/>
<path stroke="#b6b6b5" vector-effect="non-scaling-stroke" d="
  M 63.54 105.75
  Q 64.84 104.25 64.46 102.25"
/>
<path stroke="#808080" vector-effect="non-scaling-stroke" d="
  M 64.46 102.25
  L 68.18 83.88
  A 1.00 1.00 0.0 0 0 67.75 82.85
  L 65.74 81.49
  A 1.00 1.00 0.0 0 0 64.21 82.07
  Q 60.14 98.10 57.93 114.49
  Q 57.86 115.03 58.25 115.29"
/>
<path stroke="#b6b6b5" vector-effect="non-scaling-stroke" d="
  M 58.25 115.29
  L 58.25 115.71"
/>
<path stroke="#808080" vector-effect="non-scaling-stroke" d="
  M 58.25 115.71
  Q 57.74 116.21 57.64 116.93
  Q 52.90 148.80 54.26 181.00
  Q 54.33 182.68 55.25 183.54"
/>
<path stroke="#b6b6b5" vector-effect="non-scaling-stroke" d="
  M 55.25 183.54
  L 54.79 184.25"
/>
<path stroke="#808080" vector-effect="non-scaling-stroke" d="
  M 54.79 184.25
  C 54.59 184.50 54.51 184.59 54.53 184.92
  C 57.24 226.64 69.88 265.50 100.94 294.81
  Q 111.60 304.86 125.00 310.79"
/>
<path stroke="#b6b6b5" vector-effect="non-scaling-stroke" d="
  M 125.00 310.79
  L 132.21 313.50"
/>
<path stroke="#808080" vector-effect="non-scaling-stroke" d="
  M 132.21 313.50
  L 143.76 317.06
  A 1.01 1.01 0.0 0 1 144.47 317.94
  L 146.29 341.00"
/>
<path stroke="#b6b6b5" vector-effect="non-scaling-stroke" d="
  M 146.29 341.00
  Q 145.84 342.88 146.29 344.75"
/>
<path stroke="#808080" vector-effect="non-scaling-stroke" d="
  M 146.29 344.75
  Q 145.13 359.63 144.14 374.52
  C 141.24 418.10 128.48 479.52 174.65 507.87
  Q 181.46 512.05 188.51 515.87
  Q 190.40 516.90 188.39 517.68
  Q 175.59 522.67 162.28 526.13
  C 146.25 530.30 128.74 531.14 113.02 523.94
  A 1.01 1.01 0.0 0 1 112.56 522.54
  C 119.38 510.21 122.83 496.38 109.80 486.68
  C 103.46 481.97 94.10 482.50 89.60 489.50
  C 84.07 498.10 90.91 511.83 97.17 518.13
  Q 98.12 519.08 102.04 523.75"
/>
<path stroke="#b6b6b5" vector-effect="non-scaling-stroke" d="
  M 102.04 523.75
  L 102.04 524.00"
/>
<path stroke="#808080" vector-effect="non-scaling-stroke" d="
  M 102.04 524.00
  Q 101.27 524.81 100.94 524.94
  Q 84.86 531.06 68.00 534.54"
/>
<path stroke="#b6b6b5" vector-effect="non-scaling-stroke" d="
  M 68.00 534.54
  Q 66.40 534.02 65.00 535.04"
/>
<path stroke="#808080" vector-effect="non-scaling-stroke" d="
  M 65.00 535.04
  C 52.45 537.25 30.53 542.70 25.84 557.30
  C 17.56 583.05 57.26 596.98 74.68 600.36
  Q 104.23 606.08 134.25 603.71"
/>
<path stroke="#ffffff" vector-effect="non-scaling-stroke" d="
  M 134.25 603.71
  L 135.25 603.46"
/>
<path stroke="#808080" vector-effect="non-scaling-stroke" d="
  M 135.25 603.46
  L 137.00 603.46"
/>
<path stroke="#b6b6b5" vector-effect="non-scaling-stroke" d="
  M 137.00 603.46
  L 138.24 603.64"
/>
<path stroke="#808080" vector-effect="non-scaling-stroke" d="
  M 138.24 603.64
  C 164.81 601.27 192.79 597.24 218.17 588.90
  C 244.22 580.35 278.57 551.11 234.96 530.57
  Q 220.76 523.88 206.22 517.91
  Q 204.04 517.01 206.20 516.07
  Q 229.11 506.03 252.75 497.26
  Q 253.21 497.10 253.54 496.50"
/>
<path stroke="#b6b6b5" vector-effect="non-scaling-stroke" d="
  M 253.54 496.50
  L 254.25 496.21"
/>
<path stroke="#808080" vector-effect="non-scaling-stroke" d="
  M 254.25 496.21
  C 254.67 496.24 255.18 496.32 255.59 496.19
  C 277.27 488.95 313.24 478.39 333.66 493.58
  C 344.73 501.82 350.95 517.20 347.76 530.88
  C 344.56 544.62 328.82 557.32 316.43 561.96
  Q 306.36 565.73 292.97 564.72
  C 290.67 564.55 282.19 567.72 292.07 569.00
  Q 306.67 570.90 320.30 565.14
  A 1.00 1.00 0.0 0 0 320.64 563.53
  L 319.90 562.75
  Q 317.63 560.33 320.33 562.25
  Q 321.07 562.78 321.58 563.56
  A 1.01 1.01 0.0 0 0 322.84 563.91
  Q 334.39 558.49 343.08 548.57
  C 365.53 522.92 348.13 487.39 317.19 481.96
  Q 309.12 480.55 297.27 481.76
  Q 274.03 484.14 252.21 493.00"
/>
<path stroke="#b6b6b5" vector-effect="non-scaling-stroke" d="
  M 252.21 493.00
  L 250.96 493.50"
/>
<path stroke="#808080" vector-effect="non-scaling-stroke" d="
  M 250.96 493.50
  Q 247.67 494.07 244.96 496.00"
/>
<path stroke="#b6b6b5" vector-effect="non-scaling-stroke" d="
  M 244.96 496.00
  L 244.25 496.04"
/>
<path stroke="#808080" vector-effect="non-scaling-stroke" d="
  M 244.25 496.04
  Q 243.12 496.14 242.06 496.56
  Q 222.76 504.26 203.45 511.94
  C 198.97 513.72 196.14 514.00 192.02 511.97
  C 173.99 503.07 158.99 492.35 151.31 473.50
  C 145.53 459.31 143.95 438.93 144.81 423.56
  Q 146.30 397.00 150.54 359.26
  Q 150.87 356.30 150.46 343.75"
/>
<path stroke="#b6b6b5" vector-effect="non-scaling-stroke" d="
  M 150.46 343.75
  Q 150.88 341.73 150.46 339.75"
/>
<path stroke="#808080" vector-effect="non-scaling-stroke" d="
  M 150.46 339.75
  Q 150.68 329.37 148.98 318.91
  A 1.00 1.00 0.0 0 1 149.94 317.75
  C 158.73 317.53 168.08 316.65 176.20 313.90
  C 218.92 299.47 237.66 243.96 245.09 203.52
  C 250.83 172.24 260.21 80.90 222.17 64.35
  Q 217.97 62.52 210.79 61.56
  A 0.99 0.99 0.0 0 1 210.25 61.31
  C 191.37 44.26 163.93 39.37 138.43 39.46
  Q 138.05 39.46 138.00 39.75"
/>
<path stroke="#808080" vector-effect="non-scaling-stroke" d="
  M 138.00 39.75
  C 124.64 38.34 106.44 39.31 94.11 46.89
  C 84.00 53.10 89.02 61.98 96.27 67.23
  C 113.17 79.48 133.96 76.10 153.70 74.23
  Q 161.38 73.51 169.00 72.21"
/>
<path stroke="#373636" vector-effect="non-scaling-stroke" d="
  M 138.00 39.75
  L 140.75 43.46"
/>
<path stroke="#808080" vector-effect="non-scaling-stroke" d="
  M 140.75 43.46
  C 125.75 43.75 100.09 43.33 92.88 54.60
  A 1.01 1.00 -36.8 0 0 92.76 55.41
  C 95.32 64.40 107.27 69.05 115.50 70.49
  C 132.37 73.43 149.41 70.09 166.25 68.29"
/>
<path stroke="#373636" vector-effect="non-scaling-stroke" d="
  M 166.25 68.29
  Q 166.94 70.70 169.00 72.21"
/>
<path stroke="#b6b6b5" vector-effect="non-scaling-stroke" d="
  M 141.50 43.46
  L 140.75 43.46"
/>
<path stroke="#373636" vector-effect="non-scaling-stroke" d="
  M 150.46 339.75
  Q 148.19 339.75 146.29 341.00"
/>
<path stroke="#373636" vector-effect="non-scaling-stroke" d="
  M 132.21 313.50
  Q 133.20 311.53 133.25 309.29"
/>
<path stroke="#373636" vector-effect="non-scaling-stroke" d="
  M 138.54 299.75
  L 141.50 296.96"
/>
<path stroke="#808080" vector-effect="non-scaling-stroke" d="
  M 141.50 296.96
  Q 145.09 303.93 147.44 311.50
  A 1.01 0.99 84.0 0 0 148.28 312.19
  C 183.98 316.20 211.09 288.28 223.98 258.20
  C 241.70 216.86 248.68 166.67 244.72 121.51
  C 243.53 107.97 240.65 92.99 233.65 81.14
  Q 228.05 71.68 217.89 67.71
  Q 215.68 66.84 216.61 69.03
  Q 220.38 77.89 223.46 87.22
  Q 230.11 107.31 228.12 128.44
  Q 228.08 128.86 227.54 129.50"
/>
<path stroke="#373636" vector-effect="non-scaling-stroke" d="
  M 227.54 129.50
  Q 226.63 128.16 225.40 127.22
  Q 223.53 125.79 224.94 127.67
  Q 225.92 128.99 227.46 129.75"
/>
<path stroke="#808080" vector-effect="non-scaling-stroke" d="
  M 227.46 129.75
  Q 227.73 130.29 227.62 131.72
  C 225.39 160.61 216.42 190.75 191.08 207.41
  Q 185.65 210.98 174.33 215.44
  C 159.77 221.17 144.68 226.28 131.34 234.29
  Q 124.40 238.46 120.43 246.31
  A 1.00 0.99 -57.6 0 1 118.92 246.65
  Q 117.06 245.18 117.04 246.10
  A 0.32 0.31 -68.9 0 0 117.15 246.36
  L 119.06 247.96
  A 0.99 0.99 0.0 0 1 119.41 248.83
  Q 118.16 260.38 125.49 270.79
  Q 127.66 273.86 138.94 291.86"
/>
<path stroke="#373636" vector-effect="non-scaling-stroke" d="
  M 138.94 291.86
  L 135.29 294.75"
/>
<path stroke="#373636" vector-effect="non-scaling-stroke" d="
  M 170.25 71.96
  L 167.25 67.79"
/>
<path stroke="#808080" vector-effect="non-scaling-stroke" d="
  M 167.25 67.79
  L 200.84 62.20
  Q 202.65 61.90 201.41 60.54
  Q 199.60 58.55 197.17 57.33
  C 178.76 48.07 161.68 45.80 141.50 43.46"
/>
<path stroke="#373636" vector-effect="non-scaling-stroke" d="
  M 141.50 43.46
  Q 140.56 40.86 138.00 39.75"
/>
<path stroke="#b6b6b5" vector-effect="non-scaling-stroke" d="
  M 167.25 67.79
  L 166.25 68.29"
/>
<path stroke="#373636" vector-effect="non-scaling-stroke" d="
  M 150.46 343.75
  Q 148.62 345.39 146.29 344.75"
/>
<path stroke="#b6b6b5" vector-effect="non-scaling-stroke" d="
  M 141.50 296.96
  L 138.94 291.86"
/>
<path stroke="#b6b6b5" vector-effect="non-scaling-stroke" d="
  M 227.46 129.75
  L 227.54 129.50"
/>
<path stroke="#373636" vector-effect="non-scaling-stroke" d="
  M 127.04 307.00
  Q 125.48 308.63 125.00 310.79"
/>
<path stroke="#373636" vector-effect="non-scaling-stroke" d="
  M 54.79 184.25
  C 55.75 184.52 57.51 186.58 57.72 186.52
  A 0.26 0.26 0.0 0 0 57.88 186.16
  Q 57.04 184.36 55.25 183.54"
/>
<path stroke="#373636" vector-effect="non-scaling-stroke" d="
  M 244.25 496.04
  L 238.10 501.63
  A 0.21 0.20 48.9 0 0 238.09 501.92
  C 238.78 502.72 244.39 496.71 244.96 496.00"
/>
<path stroke="#373636" vector-effect="non-scaling-stroke" d="
  M 250.96 493.50
  Q 251.80 495.38 253.54 496.50"
/>
<path stroke="#373636" vector-effect="non-scaling-stroke" d="
  M 138.24 603.64
  L 142.00 599.04"
/>
<path stroke="#808080" vector-effect="non-scaling-stroke" d="
  M 142.00 599.04
  Q 142.52 598.71 143.18 598.64
  Q 170.42 595.73 197.20 590.02
  C 214.51 586.33 243.27 576.84 250.47 558.72
  C 255.45 546.18 237.58 536.80 228.92 532.84
  Q 216.00 526.92 202.70 521.86
  C 198.07 520.10 194.74 520.29 190.33 521.88
  Q 182.20 524.82 174.00 527.68
  A 1.03 1.00 -36.1 0 1 173.08 527.55
  Q 171.93 526.71 170.89 525.71
  C 170.63 525.45 169.49 524.83 169.98 525.84
  A 0.85 0.80 3.4 0 0 170.32 526.20
  Q 170.84 526.47 171.16 526.85
  A 1.00 1.00 0.0 0 1 170.73 528.46
  Q 151.41 534.89 132.58 533.95
  Q 120.64 533.35 108.89 527.21
  A 1.00 0.96 47.5 0 0 108.06 527.16
  Q 91.65 533.64 74.51 537.66"
/>
<path stroke="#373636" vector-effect="non-scaling-stroke" d="
  M 74.51 537.66
  Q 69.47 538.85 68.00 534.54"
/>
<path stroke="#373636" vector-effect="non-scaling-stroke" d="
  M 102.04 524.00
  C 103.06 525.01 98.39 528.52 97.33 529.28
  C 97.05 529.48 96.73 530.06 97.40 530.03
  A 0.87 0.87 0.0 0 0 97.91 529.82
  Q 107.48 521.06 116.56 511.81
  Q 117.87 510.48 116.75 510.55
  A 1.00 0.97 -66.1 0 0 116.18 510.78
  L 112.00 514.21"
/>
<path stroke="#808080" vector-effect="non-scaling-stroke" d="
  M 112.00 514.21
  C 115.57 505.32 114.60 493.38 104.49 489.15
  C 99.73 487.15 93.33 489.03 92.55 494.53
  C 91.13 504.68 98.35 514.34 106.25 519.79"
/>
<path stroke="#373636" vector-effect="non-scaling-stroke" d="
  M 106.25 519.79
  Q 105.44 523.17 102.04 523.75"
/>
<path stroke="#373636" vector-effect="non-scaling-stroke" d="
  M 62.72 112.73
  L 58.25 115.71"
/>
<path stroke="#b6b6b5" vector-effect="non-scaling-stroke" d="
  M 112.00 514.21
  Q 109.62 517.53 106.25 519.79"
/>
<path stroke="#373636" vector-effect="non-scaling-stroke" d="
  M 66.21 539.25
  Q 67.16 538.87 67.61 538.14
  A 1.01 1.00 -55.7 0 0 67.36 536.81
  L 65.00 535.04"
/>
<path stroke="#b6b6b5" vector-effect="non-scaling-stroke" d="
  M 142.00 599.04
  L 141.25 598.79"
/>
<path stroke="#808080" vector-effect="non-scaling-stroke" d="
  M 141.25 598.79
  L 133.95 599.40
  Q 132.06 599.56 133.27 601.03
  L 135.25 603.46"
/>
<path stroke="#808080" vector-effect="non-scaling-stroke" d="
  M 134.25 603.71
  L 131.17 599.77
  A 0.98 0.97 -20.7 0 0 130.32 599.39
  C 102.98 601.03 61.29 599.00 39.10 580.63
  C 31.16 574.06 25.76 563.15 32.54 554.28
  C 39.77 544.82 55.30 541.74 66.21 539.25"
/>
<path stroke="#b6b6b5" vector-effect="non-scaling-stroke" d="
  M 66.21 539.25
  Q 70.47 539.25 74.51 537.66"
/>
<path stroke="#373636" vector-effect="non-scaling-stroke" d="
  M 64.46 102.25
  Q 63.48 103.88 63.54 105.75"
/>
<path stroke="#373636" vector-effect="non-scaling-stroke" d="
  M 62.21 111.75
  L 58.25 115.29"
/>
<path stroke="#373636" vector-effect="non-scaling-stroke" d="
  M 141.25 598.79
  Q 138.67 600.70 137.00 603.46"
/>
<path stroke="#373636" vector-effect="non-scaling-stroke" d="
  M 254.25 496.21
  L 252.21 493.00"
/>
<path stroke="#808080" vector-effect="non-scaling-stroke" d="
  M 74.10 54.40
  A 0.99 0.99 0.0 0 0 73.26 54.99
  Q 68.03 66.72 65.03 79.20
  A 1.02 1.02 0.0 0 0 65.37 80.21
  L 67.23 81.72
  A 1.00 1.00 0.0 0 0 68.83 81.18
  Q 71.91 68.58 76.80 56.64
  Q 77.83 54.12 74.10 54.40"
/>
<path stroke="#808080" vector-effect="non-scaling-stroke" d="
  M 314.11 276.37
  Q 312.14 274.54 311.13 276.12
  Q 304.79 286.08 300.23 296.99
  Q 276.73 353.18 256.56 410.64
  Q 245.10 443.29 241.95 456.73
  C 241.23 459.81 234.47 481.00 228.64 473.07
  C 222.49 464.70 220.39 457.70 216.77 445.91
  C 208.56 419.22 201.94 392.90 198.92 365.07
  C 198.42 360.54 198.30 354.27 197.57 348.85
  A 0.99 0.98 -84.9 0 0 196.90 348.04
  C 194.15 347.12 193.98 349.59 194.09 351.58
  C 196.12 387.62 204.98 425.16 217.42 460.07
  C 219.32 465.42 223.42 474.95 228.34 477.65
  C 236.80 482.30 242.61 467.79 244.31 462.06
  Q 270.43 374.25 307.59 290.50
  Q 310.70 283.51 314.28 277.62
  A 1.00 0.99 37.5 0 0 314.11 276.37"
/>
<path stroke="#808080" vector-effect="non-scaling-stroke" d="
  M 5.71 399.22
  C 3.01 398.55 2.64 400.26 2.77 402.44
  C 5.00 439.42 13.53 475.77 26.46 511.28
  C 28.33 516.42 35.85 534.57 44.38 527.73
  Q 49.80 523.37 52.04 516.51
  C 56.40 503.12 60.81 488.28 64.81 476.23
  Q 87.35 408.35 116.46 342.98
  Q 119.17 336.89 123.68 329.24
  A 1.00 0.98 46.6 0 0 123.70 328.26
  Q 123.11 327.16 121.88 326.83
  A 1.01 1.00 -65.7 0 0 120.78 327.25
  Q 114.81 336.31 111.27 344.55
  Q 83.73 408.78 59.90 478.68
  Q 57.12 486.82 54.34 495.89
  C 52.69 501.24 47.37 526.92 39.10 525.11
  A 1.01 0.91 72.0 0 1 38.58 524.81
  C 33.32 519.09 29.97 510.94 27.68 503.77
  C 16.83 469.91 8.16 435.79 6.47 400.15
  A 1.02 1.00 -84.6 0 0 5.71 399.22"
/>
<path stroke="#808080" vector-effect="non-scaling-stroke" d="
  M 112.70 651.91
  Q 114.12 652.49 115.49 653.17
  C 120.60 655.70 126.40 651.68 124.74 645.99
  C 123.78 642.70 116.84 640.47 114.02 639.20
  Q 111.23 637.95 112.33 635.10
  C 114.95 628.26 121.54 634.78 122.67 638.63
  C 122.77 638.96 123.71 640.29 123.75 638.81
  Q 123.81 636.33 123.69 633.79
  Q 123.60 631.91 122.09 633.04
  L 121.87 633.21
  A 0.64 0.64 0.0 0 1 121.07 633.19
  C 117.79 630.40 112.62 630.34 110.69 634.65
  C 107.84 641.02 115.53 643.42 119.56 645.17
  C 124.11 647.14 124.39 650.35 119.96 653.37
  A 0.99 0.99 0.0 0 1 119.16 653.51
  Q 112.23 651.78 111.21 645.02
  Q 111.18 644.76 110.92 644.55
  Q 110.25 643.99 110.25 644.86
  L 110.25 652.60
  Q 110.25 654.80 111.22 652.82
  L 111.43 652.40
  A 1.00 0.99 -65.9 0 1 112.70 651.91"
/>
<path stroke="#808080" vector-effect="non-scaling-stroke" d="
  M 150.13 651.72
  C 159.44 659.44 167.20 646.06 158.92 642.55
  Q 154.90 640.85 150.75 638.93
  A 1.03 0.98 1.6 0 1 150.26 638.44
  Q 148.33 634.24 151.71 632.77
  C 155.92 630.95 158.87 635.18 160.04 638.68
  Q 160.46 639.94 161.11 639.43
  A 0.63 0.63 0.0 0 0 161.35 638.88
  L 160.98 633.64
  A 1.00 1.00 0.0 0 0 159.46 632.86
  L 159.23 633.01
  A 0.81 0.80 -42.6 0 1 158.34 632.98
  C 155.36 630.83 151.03 630.29 148.62 633.62
  C 143.47 640.72 154.79 644.29 158.95 646.04
  Q 161.75 647.21 160.52 649.76
  C 156.68 657.69 149.82 650.19 148.56 645.22
  Q 148.31 644.24 147.69 644.55
  A 0.54 0.53 -14.0 0 0 147.40 645.02
  L 147.51 651.27
  Q 147.55 653.53 149.19 651.98
  L 149.45 651.74
  A 0.52 0.51 43.2 0 1 150.13 651.72"
/>
<path stroke="#808080" vector-effect="non-scaling-stroke" d="
  M 256.69 653.81
  Q 265.37 654.75 265.50 645.93
  C 265.51 644.84 264.83 646.11 264.83 646.14
  C 263.31 654.81 253.89 656.01 252.80 646.12
  Q 252.15 640.17 253.85 634.31
  A 1.01 0.98 -11.3 0 1 254.20 633.80
  C 261.65 628.06 263.45 639.59 264.96 639.54
  A 0.52 0.51 -0.6 0 0 265.46 639.04
  L 265.58 632.76
  Q 265.61 630.95 264.45 632.33
  L 264.06 632.80
  A 1.01 1.01 0.0 0 1 262.78 633.01
  C 247.45 623.96 244.97 652.54 256.69 653.81"
/>
<path stroke="#808080" vector-effect="non-scaling-stroke" d="
  M 315.15 647.94
  L 316.15 650.97
  A 1.00 1.00 0.0 0 1 315.35 652.27
  L 313.90 652.49
  A 0.83 0.83 0.0 0 0 313.43 652.75
  C 312.54 653.74 323.47 654.02 322.96 652.86
  A 0.26 0.24 84.6 0 0 322.79 652.71
  L 320.10 652.06
  A 1.01 1.00 -2.7 0 1 319.39 651.42
  L 313.04 633.17
  Q 312.12 630.53 311.16 633.15
  L 304.48 651.34
  A 1.01 1.00 -88.6 0 1 303.85 651.95
  L 301.64 652.66
  A 0.64 0.63 4.4 0 0 301.26 652.98
  C 300.84 653.82 308.19 653.50 308.94 653.49
  C 309.93 653.49 310.55 652.60 309.12 652.55
  Q 308.05 652.52 307.08 652.03
  A 1.01 0.99 -68.7 0 1 306.58 650.87
  L 307.38 647.98
  A 1.00 0.99 7.6 0 1 308.34 647.25
  L 314.20 647.25
  A 1.01 1.00 80.7 0 1 315.15 647.94"
/>
<path stroke="#808080" vector-effect="non-scaling-stroke" d="
  M 341.78 633.02
  Q 340.79 632.54 339.85 632.01
  C 336.40 630.03 332.37 631.65 331.39 635.31
  C 328.66 645.55 346.84 643.15 343.46 650.50
  Q 342.51 652.57 340.06 652.74
  Q 335.42 653.06 332.47 647.09
  Q 330.92 643.93 330.96 647.45
  L 331.01 652.12
  Q 331.03 654.15 332.18 652.48
  L 332.42 652.13
  A 0.99 0.99 0.0 0 1 333.87 651.92
  C 338.29 655.52 345.49 654.42 345.66 648.01
  C 345.80 642.60 338.90 641.05 334.91 639.33
  Q 332.44 638.26 333.02 635.63
  Q 333.75 632.26 336.57 632.22
  C 340.28 632.17 342.56 635.76 343.40 639.08
  Q 343.61 639.95 344.22 639.45
  A 0.81 0.80 -21.6 0 0 344.51 638.79
  L 344.20 632.53
  Q 344.12 630.75 343.25 632.31
  L 343.08 632.60
  A 1.01 0.99 -62.6 0 1 341.78 633.02"
/>
<path stroke="#808080" vector-effect="non-scaling-stroke" d="
  M 23.67 632.85
  A 1.00 1.00 0.0 0 1 24.49 634.14
  L 20.52 646.71
  Q 19.79 649.00 19.00 646.73
  L 14.61 634.12
  A 1.00 0.99 -22.8 0 1 15.11 632.90
  Q 15.90 632.51 16.86 632.48
  A 0.67 0.64 -69.6 0 0 17.33 632.25
  C 18.12 631.31 9.15 631.67 8.31 631.57
  C 8.16 631.56 6.48 632.02 7.85 632.25
  Q 9.28 632.49 10.70 633.15
  A 1.03 0.99 -88.9 0 1 11.22 633.71
  L 18.22 652.98
  Q 19.03 655.21 19.73 652.94
  Q 22.55 643.91 25.65 634.99
  C 26.19 633.44 27.37 632.77 28.84 632.41
  A 0.53 0.52 -87.8 0 0 29.21 632.06
  C 29.41 631.38 22.91 631.70 21.90 631.53
  A 0.51 0.50 -69.4 0 0 21.38 631.77
  L 21.21 632.05
  A 0.33 0.33 0.0 0 0 21.44 632.55
  L 23.67 632.85"
/>
<path stroke="#808080" vector-effect="non-scaling-stroke" d="
  M 39.15 652.30
  L 37.51 652.55
  A 0.29 0.19 -4.6 0 0 37.25 652.75
  L 37.25 653.08
  A 0.41 0.41 0.0 0 0 37.66 653.48
  C 37.94 653.48 47.59 653.77 45.71 652.68
  C 45.05 652.30 44.30 652.60 43.46 652.11
  A 1.00 0.99 15.3 0 1 42.96 651.25
  L 43.02 633.80
  A 1.00 0.99 83.4 0 1 43.78 632.83
  L 45.45 632.42
  A 0.65 0.62 5.7 0 0 45.88 632.08
  C 46.22 631.35 38.28 631.62 37.84 631.57
  Q 36.81 631.44 37.35 632.34
  Q 37.76 633.02 38.76 632.77
  A 1.00 1.00 0.0 0 1 40.00 633.74
  L 40.00 651.31
  A 1.00 0.99 86.0 0 1 39.15 652.30"
/>
<path stroke="#808080" vector-effect="non-scaling-stroke" d="
  M 55.83 632.75
  A 1.00 1.00 0.0 0 1 57.00 633.74
  L 57.00 651.38
  A 1.00 1.00 0.0 0 1 56.12 652.37
  L 54.41 652.59
  A 0.42 0.42 0.0 0 0 54.09 652.82
  Q 53.80 653.40 54.76 653.42
  C 61.68 653.54 71.63 655.50 74.07 646.32
  C 75.99 639.07 72.57 631.47 64.43 631.73
  Q 59.49 631.89 54.71 631.54
  Q 52.82 631.40 54.38 632.48
  Q 55.00 632.90 55.83 632.75"
/>
<path stroke="#808080" vector-effect="non-scaling-stroke" d="
  M 89.91 643.09
  Q 94.20 642.40 94.28 646.67
  A 0.42 0.41 6.1 0 0 94.61 647.07
  Q 95.18 647.18 95.15 646.42
  Q 94.94 640.90 95.02 638.23
  C 95.05 637.09 94.27 637.72 94.25 638.38
  Q 94.13 642.78 89.76 641.70
  A 1.00 1.00 0.0 0 1 89.00 640.73
  L 89.00 633.75
  A 1.00 0.99 -89.2 0 1 90.02 632.75
  L 97.25 632.91
  A 1.02 1.01 81.2 0 1 98.18 633.60
  L 99.74 638.26
  A 0.52 0.50 89.6 0 0 100.06 638.59
  Q 100.73 638.80 100.70 637.48
  Q 100.65 635.10 100.44 632.63
  A 1.00 0.99 87.2 0 0 99.44 631.72
  L 84.79 631.73
  Q 81.75 631.73 84.62 632.72
  Q 84.96 632.84 85.39 632.97
  A 0.99 0.99 0.0 0 1 86.10 633.92
  L 86.23 651.19
  A 1.00 1.00 0.0 0 1 85.51 652.16
  L 83.24 652.81
  A 0.22 0.21 -29.5 0 0 83.14 653.16
  C 83.26 653.28 83.64 653.48 83.82 653.48
  Q 91.62 653.53 99.46 653.48
  A 1.01 1.00 -0.3 0 0 100.46 652.48
  Q 100.46 649.49 100.72 646.54
  C 100.75 646.23 100.54 645.50 100.24 645.55
  A 0.28 0.27 3.4 0 0 100.03 645.73
  L 98.40 650.92
  A 1.04 1.03 -2.0 0 1 97.81 651.55
  Q 93.93 653.10 89.78 652.30
  A 1.01 1.00 -84.2 0 1 88.97 651.30
  L 89.07 644.07
  A 1.01 1.01 0.0 0 1 89.91 643.09"
/>
<path stroke="#808080" vector-effect="non-scaling-stroke" d="
  M 177.60 643.10
  Q 181.88 642.28 181.98 646.45
  A 0.54 0.52 14.6 0 0 182.25 646.89
  Q 182.78 647.18 182.85 646.42
  Q 183.07 643.79 182.86 641.15
  Q 182.70 639.13 181.44 640.71
  Q 180.23 642.24 177.56 641.71
  A 1.00 1.00 0.0 0 1 176.75 640.73
  L 176.75 633.83
  A 1.01 1.00 86.5 0 1 177.63 632.83
  Q 181.55 632.38 185.35 633.39
  A 0.98 0.97 83.9 0 1 185.99 633.91
  C 186.09 634.12 188.15 639.68 188.16 638.18
  Q 188.18 635.51 188.20 632.76
  A 1.00 1.00 0.0 0 0 187.20 631.75
  L 172.95 631.75
  Q 169.90 631.75 172.69 632.97
  L 173.31 633.25
  A 1.00 0.99 11.8 0 1 173.91 634.16
  L 173.96 651.25
  A 1.01 1.01 0.0 0 1 173.16 652.24
  L 171.06 652.67
  A 0.82 0.81 13.3 0 0 170.60 652.95
  Q 170.20 653.44 171.07 653.47
  Q 174.61 653.59 187.21 653.48
  A 1.00 1.00 0.0 0 0 188.20 652.47
  Q 188.17 649.22 188.26 646.00
  Q 188.26 645.84 188.25 645.72
  Q 188.13 644.36 187.74 645.66
  L 186.16 650.91
  A 1.01 1.01 0.0 0 1 185.54 651.56
  Q 181.67 652.95 177.58 652.34
  A 1.01 1.00 -85.7 0 1 176.73 651.34
  L 176.79 644.08
  A 1.01 1.01 0.0 0 1 177.60 643.10"
/>
<path stroke="#808080" vector-effect="non-scaling-stroke" d="
  M 199.28 652.16
  L 197.35 652.76
  A 0.33 0.33 0.0 0 0 197.12 653.03
  C 197.02 653.79 208.27 653.52 212.89 653.48
  A 1.00 1.00 0.0 0 0 213.88 652.50
  L 214.04 646.02
  A 0.41 0.41 0.0 0 0 213.77 645.62
  C 213.54 645.54 211.73 650.66 211.29 651.32
  A 0.97 0.94 6.0 0 1 210.78 651.72
  Q 207.37 652.87 203.84 652.32
  A 1.01 1.00 4.7 0 1 203.00 651.33
  L 203.00 633.98
  A 1.00 0.99 -8.2 0 1 203.72 633.03
  C 203.91 632.97 206.95 632.41 206.66 632.01
  A 0.63 0.63 0.0 0 0 206.15 631.75
  L 197.23 631.75
  A 0.21 0.21 0.0 0 0 197.04 632.05
  L 197.19 632.34
  A 0.41 0.39 -15.3 0 0 197.60 632.56
  Q 200.05 632.28 200.15 634.55
  Q 200.54 642.93 199.98 651.27
  A 0.99 0.99 0.0 0 1 199.28 652.16"
/>
<path stroke="#808080" vector-effect="non-scaling-stroke" d="
  M 229.56 643.06
  Q 233.77 642.24 233.88 646.40
  A 0.81 0.81 0.0 0 0 234.06 646.88
  C 235.41 648.54 234.73 638.39 234.73 638.04
  A 0.27 0.18 85.3 0 0 234.50 637.75
  L 234.24 637.84
  A 0.40 0.39 81.0 0 0 233.97 638.22
  Q 233.90 642.74 229.52 641.68
  A 1.00 1.00 0.0 0 1 228.75 640.71
  L 228.75 633.67
  A 1.00 1.00 0.0 0 1 229.80 632.67
  L 236.67 633.04
  A 0.97 0.95 -18.1 0 1 237.37 633.39
  C 237.59 633.64 240.54 640.63 240.37 637.82
  Q 240.21 635.32 240.21 632.75
  A 1.00 1.00 0.0 0 0 239.21 631.75
  L 224.98 631.75
  Q 221.87 631.75 224.73 632.97
  L 225.29 633.21
  A 1.01 1.00 12.5 0 1 225.89 634.14
  L 225.77 651.31
  A 1.01 1.00 77.6 0 1 225.21 652.20
  C 224.43 652.58 223.73 652.34 223.03 652.68
  C 221.81 653.28 223.15 653.50 223.56 653.50
  Q 231.37 653.52 239.23 653.48
  A 1.01 1.00 -89.1 0 0 240.23 652.50
  Q 240.27 650.65 240.47 646.01
  Q 240.51 645.11 239.95 645.29
  A 0.43 0.40 -1.9 0 0 239.67 645.57
  L 238.24 650.71
  A 1.02 1.00 86.4 0 1 237.68 651.36
  Q 233.76 653.08 229.56 652.33
  A 1.01 1.01 0.0 0 1 228.73 651.34
  L 228.76 644.04
  A 1.00 1.00 0.0 0 1 229.56 643.06"
/>
<path stroke="#808080" vector-effect="non-scaling-stroke" d="
  M 281.82 652.22
  Q 280.47 652.31 279.15 652.67
  C 278.78 652.77 278.58 653.03 278.91 653.35
  A 0.51 0.51 0.0 0 0 279.27 653.50
  L 288.73 653.50
  A 0.82 0.81 21.6 0 0 289.32 653.25
  C 290.18 652.33 286.85 652.45 286.36 652.24
  A 1.00 1.00 0.0 0 1 285.75 651.32
  L 285.75 633.76
  A 1.01 1.00 -4.0 0 1 286.62 632.77
  Q 290.64 632.24 291.77 636.01
  Q 291.89 636.42 292.00 636.78
  Q 293.26 640.90 293.25 636.60
  L 293.25 632.75
  A 1.00 1.00 0.0 0 0 292.25 631.75
  L 276.28 631.75
  A 1.00 1.00 0.0 0 0 275.28 632.70
  L 274.95 639.09
  A 0.33 0.32 16.4 0 0 275.12 639.39
  C 275.48 639.60 275.85 639.12 275.92 638.77
  C 276.68 635.16 277.99 631.77 282.04 633.00
  A 0.99 0.99 0.0 0 1 282.75 633.95
  L 282.75 651.22
  A 1.01 1.00 -2.2 0 1 281.82 652.22"
/>
<path stroke="#373636" vector-effect="non-scaling-stroke" d="
  M 131.38 40.90
  C 130.17 44.77 133.61 41.34 134.10 40.79
  Q 134.56 40.26 133.86 40.24
  L 132.36 40.20
  A 1.01 1.00 -80.3 0 0 131.38 40.90"
/>
<path stroke="#808080" vector-effect="non-scaling-stroke" d="
  M 104.42 70.20
  L 104.77 69.96
  Q 105.97 69.12 104.52 69.37
  Q 103.39 69.56 103.87 70.13
  A 0.42 0.41 51.5 0 0 104.42 70.20"
/>
<path stroke="#373636" vector-effect="non-scaling-stroke" d="
  M 221.32 66.39
  Q 222.74 64.39 220.84 65.95
  L 219.97 66.67
  A 0.67 0.66 -17.0 0 0 219.74 67.10
  Q 219.68 67.63 220.16 67.41
  Q 220.81 67.12 221.32 66.39"
/>
<path stroke="#373636" vector-effect="non-scaling-stroke" d="
  M 213.6125 73.7451
  A 1.60 0.34 134.3 0 0 214.9733 72.8375
  A 1.60 0.34 134.3 0 0 215.8475 71.4549
  A 1.60 0.34 134.3 0 0 214.4867 72.3625
  A 1.60 0.34 134.3 0 0 213.6125 73.7451"
/>
<path stroke="#808080" vector-effect="non-scaling-stroke" d="
  M 247.89 152.23
  Q 246.75 154.60 248.56 152.69
  Q 250.24 150.91 247.44 149.44
  Q 246.81 149.11 247.24 149.52
  Q 248.58 150.82 247.89 152.23"
/>
<path stroke="#808080" vector-effect="non-scaling-stroke" d="
  M 189.48 204.60
  C 188.58 205.06 192.25 208.02 189.90 204.70
  A 0.33 0.33 0.0 0 0 189.48 204.60"
/>
<path stroke="#373636" vector-effect="non-scaling-stroke" d="
  M 230.55 245.62
  C 229.70 246.35 232.94 248.77 230.86 245.66
  A 0.21 0.21 0.0 0 0 230.55 245.62"
/>
<path stroke="#808080" vector-effect="non-scaling-stroke" d="
  M 125.05 276.07
  C 128.46 272.42 122.67 276.50 124.74 276.23
  A 0.58 0.57 -71.9 0 0 125.05 276.07"
/>
<path stroke="#373636" vector-effect="non-scaling-stroke" d="
  M 62.30 225.13
  Q 61.88 226.10 62.77 225.54
  Q 63.38 225.16 63.61 224.36
  Q 63.93 223.24 63.07 224.03
  Q 62.57 224.50 62.30 225.13"
/>
<path stroke="#808080" vector-effect="non-scaling-stroke" d="
  M 145.23 386.40
  Q 145.01 385.81 144.50 385.89
  Q 143.93 385.97 144.29 386.42
  L 145.93 388.43
  Q 146.90 389.62 146.50 388.14
  Q 146.29 387.36 145.59 386.86
  A 1.06 1.01 8.2 0 1 145.23 386.40"
/>
<path stroke="#808080" vector-effect="non-scaling-stroke" d="
  M 150.42 477.59
  C 152.24 473.85 148.12 478.87 150.04 477.96
  A 0.80 0.76 -0.7 0 0 150.42 477.59"
/>
<path stroke="#373636" vector-effect="non-scaling-stroke" d="
  M 216.43 523.83
  C 215.41 523.59 214.11 527.69 216.58 524.24
  A 0.26 0.26 0.0 0 0 216.43 523.83"
/>
<path stroke="#373636" vector-effect="non-scaling-stroke" d="
  M 346.44 506.94
  Q 346.24 507.07 346.23 507.34
  A 0.26 0.26 0.0 0 0 346.60 507.59
  Q 347.43 507.23 347.71 506.47
  Q 348.16 505.26 347.10 505.99
  Q 346.92 506.11 346.81 506.32
  Q 346.51 506.88 346.44 506.94"
/>
<path stroke="#808080" vector-effect="non-scaling-stroke" d="
  M 41.49 585.90
  Q 41.31 586.00 41.26 586.19
  Q 41.01 587.18 41.70 586.44
  L 42.65 585.42
  Q 43.58 584.43 42.30 584.89
  Q 41.81 585.06 41.70 585.62
  A 0.41 0.41 0.0 0 1 41.49 585.90"
/>
<path stroke="#808080" vector-effect="non-scaling-stroke" d="
  M 308.26 645.62
  A 0.31 0.31 0.0 0 0 308.55 646.03
  L 314.08 645.96
  A 0.31 0.31 0.0 0 0 314.37 645.55
  L 311.51 637.61
  A 0.31 0.31 0.0 0 0 310.92 637.62
  L 308.26 645.62"
/>
<path stroke="#808080" vector-effect="non-scaling-stroke" d="
  M 60.83 652.53
  L 68.02 652.14
  A 1.01 1.00 -77.1 0 0 68.85 651.61
  C 72.56 644.59 73.46 630.21 60.87 632.85
  A 1.01 0.99 -5.9 0 0 60.07 633.81
  L 59.78 651.51
  A 1.00 0.99 88.9 0 0 60.83 652.53"
/>
</g>
<g fill="#ffffff">
<path d="
  M 0.00 0.00
  L 355.00 0.00
  L 355.00 697.00
  L 0.00 697.00
  L 0.00 0.00
  Z
  M 169.00 72.21
  L 170.25 71.96
  Q 196.21 68.08 201.43 66.93
  C 206.69 65.76 208.95 67.07 211.52 71.72
  C 220.57 88.13 224.79 104.80 223.90 123.69
  Q 222.73 148.51 213.66 172.19
  C 205.15 194.42 191.65 203.43 170.76 211.77
  C 157.80 216.95 145.03 221.53 132.72 228.24
  C 115.19 237.79 108.69 253.81 120.43 271.58
  Q 123.44 276.13 135.29 294.75
  L 138.54 299.75
  L 141.96 309.97
  Q 142.54 311.73 140.75 311.26
  L 133.25 309.29
  L 127.04 307.00
  C 56.76 270.71 52.49 180.21 62.72 112.73
  L 62.21 111.75
  Q 63.79 108.98 63.54 105.75
  Q 64.84 104.25 64.46 102.25
  L 68.18 83.88
  A 1.00 1.00 0.0 0 0 67.75 82.85
  L 65.74 81.49
  A 1.00 1.00 0.0 0 0 64.21 82.07
  Q 60.14 98.10 57.93 114.49
  Q 57.86 115.03 58.25 115.29
  L 58.25 115.71
  Q 57.74 116.21 57.64 116.93
  Q 52.90 148.80 54.26 181.00
  Q 54.33 182.68 55.25 183.54
  L 54.79 184.25
  C 54.59 184.50 54.51 184.59 54.53 184.92
  C 57.24 226.64 69.88 265.50 100.94 294.81
  Q 111.60 304.86 125.00 310.79
  L 132.21 313.50
  L 143.76 317.06
  A 1.01 1.01 0.0 0 1 144.47 317.94
  L 146.29 341.00
  Q 145.84 342.88 146.29 344.75
  Q 145.13 359.63 144.14 374.52
  C 141.24 418.10 128.48 479.52 174.65 507.87
  Q 181.46 512.05 188.51 515.87
  Q 190.40 516.90 188.39 517.68
  Q 175.59 522.67 162.28 526.13
  C 146.25 530.30 128.74 531.14 113.02 523.94
  A 1.01 1.01 0.0 0 1 112.56 522.54
  C 119.38 510.21 122.83 496.38 109.80 486.68
  C 103.46 481.97 94.10 482.50 89.60 489.50
  C 84.07 498.10 90.91 511.83 97.17 518.13
  Q 98.12 519.08 102.04 523.75
  L 102.04 524.00
  Q 101.27 524.81 100.94 524.94
  Q 84.86 531.06 68.00 534.54
  Q 66.40 534.02 65.00 535.04
  C 52.45 537.25 30.53 542.70 25.84 557.30
  C 17.56 583.05 57.26 596.98 74.68 600.36
  Q 104.23 606.08 134.25 603.71
  L 135.25 603.46
  L 137.00 603.46
  L 138.24 603.64
  C 164.81 601.27 192.79 597.24 218.17 588.90
  C 244.22 580.35 278.57 551.11 234.96 530.57
  Q 220.76 523.88 206.22 517.91
  Q 204.04 517.01 206.20 516.07
  Q 229.11 506.03 252.75 497.26
  Q 253.21 497.10 253.54 496.50
  L 254.25 496.21
  C 254.67 496.24 255.18 496.32 255.59 496.19
  C 277.27 488.95 313.24 478.39 333.66 493.58
  C 344.73 501.82 350.95 517.20 347.76 530.88
  C 344.56 544.62 328.82 557.32 316.43 561.96
  Q 306.36 565.73 292.97 564.72
  C 290.67 564.55 282.19 567.72 292.07 569.00
  Q 306.67 570.90 320.30 565.14
  A 1.00 1.00 0.0 0 0 320.64 563.53
  L 319.90 562.75
  Q 317.63 560.33 320.33 562.25
  Q 321.07 562.78 321.58 563.56
  A 1.01 1.01 0.0 0 0 322.84 563.91
  Q 334.39 558.49 343.08 548.57
  C 365.53 522.92 348.13 487.39 317.19 481.96
  Q 309.12 480.55 297.27 481.76
  Q 274.03 484.14 252.21 493.00
  L 250.96 493.50
  Q 247.67 494.07 244.96 496.00
  L 244.25 496.04
  Q 243.12 496.14 242.06 496.56
  Q 222.76 504.26 203.45 511.94
  C 198.97 513.72 196.14 514.00 192.02 511.97
  C 173.99 503.07 158.99 492.35 151.31 473.50
  C 145.53 459.31 143.95 438.93 144.81 423.56
  Q 146.30 397.00 150.54 359.26
  Q 150.87 356.30 150.46 343.75
  Q 150.88 341.73 150.46 339.75
  Q 150.68 329.37 148.98 318.91
  A 1.00 1.00 0.0 0 1 149.94 317.75
  C 158.73 317.53 168.08 316.65 176.20 313.90
  C 218.92 299.47 237.66 243.96 245.09 203.52
  C 250.83 172.24 260.21 80.90 222.17 64.35
  Q 217.97 62.52 210.79 61.56
  A 0.99 0.99 0.0 0 1 210.25 61.31
  C 191.37 44.26 163.93 39.37 138.43 39.46
  Q 138.05 39.46 138.00 39.75
  C 124.64 38.34 106.44 39.31 94.11 46.89
  C 84.00 53.10 89.02 61.98 96.27 67.23
  C 113.17 79.48 133.96 76.10 153.70 74.23
  Q 161.38 73.51 169.00 72.21
  Z
  M 74.10 54.40
  A 0.99 0.99 0.0 0 0 73.26 54.99
  Q 68.03 66.72 65.03 79.20
  A 1.02 1.02 0.0 0 0 65.37 80.21
  L 67.23 81.72
  A 1.00 1.00 0.0 0 0 68.83 81.18
  Q 71.91 68.58 76.80 56.64
  Q 77.83 54.12 74.10 54.40
  Z
  M 314.11 276.37
  Q 312.14 274.54 311.13 276.12
  Q 304.79 286.08 300.23 296.99
  Q 276.73 353.18 256.56 410.64
  Q 245.10 443.29 241.95 456.73
  C 241.23 459.81 234.47 481.00 228.64 473.07
  C 222.49 464.70 220.39 457.70 216.77 445.91
  C 208.56 419.22 201.94 392.90 198.92 365.07
  C 198.42 360.54 198.30 354.27 197.57 348.85
  A 0.99 0.98 -84.9 0 0 196.90 348.04
  C 194.15 347.12 193.98 349.59 194.09 351.58
  C 196.12 387.62 204.98 425.16 217.42 460.07
  C 219.32 465.42 223.42 474.95 228.34 477.65
  C 236.80 482.30 242.61 467.79 244.31 462.06
  Q 270.43 374.25 307.59 290.50
  Q 310.70 283.51 314.28 277.62
  A 1.00 0.99 37.5 0 0 314.11 276.37
  Z
  M 5.71 399.22
  C 3.01 398.55 2.64 400.26 2.77 402.44
  C 5.00 439.42 13.53 475.77 26.46 511.28
  C 28.33 516.42 35.85 534.57 44.38 527.73
  Q 49.80 523.37 52.04 516.51
  C 56.40 503.12 60.81 488.28 64.81 476.23
  Q 87.35 408.35 116.46 342.98
  Q 119.17 336.89 123.68 329.24
  A 1.00 0.98 46.6 0 0 123.70 328.26
  Q 123.11 327.16 121.88 326.83
  A 1.01 1.00 -65.7 0 0 120.78 327.25
  Q 114.81 336.31 111.27 344.55
  Q 83.73 408.78 59.90 478.68
  Q 57.12 486.82 54.34 495.89
  C 52.69 501.24 47.37 526.92 39.10 525.11
  A 1.01 0.91 72.0 0 1 38.58 524.81
  C 33.32 519.09 29.97 510.94 27.68 503.77
  C 16.83 469.91 8.16 435.79 6.47 400.15
  A 1.02 1.00 -84.6 0 0 5.71 399.22
  Z
  M 112.70 651.91
  Q 114.12 652.49 115.49 653.17
  C 120.60 655.70 126.40 651.68 124.74 645.99
  C 123.78 642.70 116.84 640.47 114.02 639.20
  Q 111.23 637.95 112.33 635.10
  C 114.95 628.26 121.54 634.78 122.67 638.63
  C 122.77 638.96 123.71 640.29 123.75 638.81
  Q 123.81 636.33 123.69 633.79
  Q 123.60 631.91 122.09 633.04
  L 121.87 633.21
  A 0.64 0.64 0.0 0 1 121.07 633.19
  C 117.79 630.40 112.62 630.34 110.69 634.65
  C 107.84 641.02 115.53 643.42 119.56 645.17
  C 124.11 647.14 124.39 650.35 119.96 653.37
  A 0.99 0.99 0.0 0 1 119.16 653.51
  Q 112.23 651.78 111.21 645.02
  Q 111.18 644.76 110.92 644.55
  Q 110.25 643.99 110.25 644.86
  L 110.25 652.60
  Q 110.25 654.80 111.22 652.82
  L 111.43 652.40
  A 1.00 0.99 -65.9 0 1 112.70 651.91
  Z
  M 150.13 651.72
  C 159.44 659.44 167.20 646.06 158.92 642.55
  Q 154.90 640.85 150.75 638.93
  A 1.03 0.98 1.6 0 1 150.26 638.44
  Q 148.33 634.24 151.71 632.77
  C 155.92 630.95 158.87 635.18 160.04 638.68
  Q 160.46 639.94 161.11 639.43
  A 0.63 0.63 0.0 0 0 161.35 638.88
  L 160.98 633.64
  A 1.00 1.00 0.0 0 0 159.46 632.86
  L 159.23 633.01
  A 0.81 0.80 -42.6 0 1 158.34 632.98
  C 155.36 630.83 151.03 630.29 148.62 633.62
  C 143.47 640.72 154.79 644.29 158.95 646.04
  Q 161.75 647.21 160.52 649.76
  C 156.68 657.69 149.82 650.19 148.56 645.22
  Q 148.31 644.24 147.69 644.55
  A 0.54 0.53 -14.0 0 0 147.40 645.02
  L 147.51 651.27
  Q 147.55 653.53 149.19 651.98
  L 149.45 651.74
  A 0.52 0.51 43.2 0 1 150.13 651.72
  Z
  M 256.69 653.81
  Q 265.37 654.75 265.50 645.93
  C 265.51 644.84 264.83 646.11 264.83 646.14
  C 263.31 654.81 253.89 656.01 252.80 646.12
  Q 252.15 640.17 253.85 634.31
  A 1.01 0.98 -11.3 0 1 254.20 633.80
  C 261.65 628.06 263.45 639.59 264.96 639.54
  A 0.52 0.51 -0.6 0 0 265.46 639.04
  L 265.58 632.76
  Q 265.61 630.95 264.45 632.33
  L 264.06 632.80
  A 1.01 1.01 0.0 0 1 262.78 633.01
  C 247.45 623.96 244.97 652.54 256.69 653.81
  Z
  M 315.15 647.94
  L 316.15 650.97
  A 1.00 1.00 0.0 0 1 315.35 652.27
  L 313.90 652.49
  A 0.83 0.83 0.0 0 0 313.43 652.75
  C 312.54 653.74 323.47 654.02 322.96 652.86
  A 0.26 0.24 84.6 0 0 322.79 652.71
  L 320.10 652.06
  A 1.01 1.00 -2.7 0 1 319.39 651.42
  L 313.04 633.17
  Q 312.12 630.53 311.16 633.15
  L 304.48 651.34
  A 1.01 1.00 -88.6 0 1 303.85 651.95
  L 301.64 652.66
  A 0.64 0.63 4.4 0 0 301.26 652.98
  C 300.84 653.82 308.19 653.50 308.94 653.49
  C 309.93 653.49 310.55 652.60 309.12 652.55
  Q 308.05 652.52 307.08 652.03
  A 1.01 0.99 -68.7 0 1 306.58 650.87
  L 307.38 647.98
  A 1.00 0.99 7.6 0 1 308.34 647.25
  L 314.20 647.25
  A 1.01 1.00 80.7 0 1 315.15 647.94
  Z
  M 341.78 633.02
  Q 340.79 632.54 339.85 632.01
  C 336.40 630.03 332.37 631.65 331.39 635.31
  C 328.66 645.55 346.84 643.15 343.46 650.50
  Q 342.51 652.57 340.06 652.74
  Q 335.42 653.06 332.47 647.09
  Q 330.92 643.93 330.96 647.45
  L 331.01 652.12
  Q 331.03 654.15 332.18 652.48
  L 332.42 652.13
  A 0.99 0.99 0.0 0 1 333.87 651.92
  C 338.29 655.52 345.49 654.42 345.66 648.01
  C 345.80 642.60 338.90 641.05 334.91 639.33
  Q 332.44 638.26 333.02 635.63
  Q 333.75 632.26 336.57 632.22
  C 340.28 632.17 342.56 635.76 343.40 639.08
  Q 343.61 639.95 344.22 639.45
  A 0.81 0.80 -21.6 0 0 344.51 638.79
  L 344.20 632.53
  Q 344.12 630.75 343.25 632.31
  L 343.08 632.60
  A 1.01 0.99 -62.6 0 1 341.78 633.02
  Z
  M 23.67 632.85
  A 1.00 1.00 0.0 0 1 24.49 634.14
  L 20.52 646.71
  Q 19.79 649.00 19.00 646.73
  L 14.61 634.12
  A 1.00 0.99 -22.8 0 1 15.11 632.90
  Q 15.90 632.51 16.86 632.48
  A 0.67 0.64 -69.6 0 0 17.33 632.25
  C 18.12 631.31 9.15 631.67 8.31 631.57
  C 8.16 631.56 6.48 632.02 7.85 632.25
  Q 9.28 632.49 10.70 633.15
  A 1.03 0.99 -88.9 0 1 11.22 633.71
  L 18.22 652.98
  Q 19.03 655.21 19.73 652.94
  Q 22.55 643.91 25.65 634.99
  C 26.19 633.44 27.37 632.77 28.84 632.41
  A 0.53 0.52 -87.8 0 0 29.21 632.06
  C 29.41 631.38 22.91 631.70 21.90 631.53
  A 0.51 0.50 -69.4 0 0 21.38 631.77
  L 21.21 632.05
  A 0.33 0.33 0.0 0 0 21.44 632.55
  L 23.67 632.85
  Z
  M 39.15 652.30
  L 37.51 652.55
  A 0.29 0.19 -4.6 0 0 37.25 652.75
  L 37.25 653.08
  A 0.41 0.41 0.0 0 0 37.66 653.48
  C 37.94 653.48 47.59 653.77 45.71 652.68
  C 45.05 652.30 44.30 652.60 43.46 652.11
  A 1.00 0.99 15.3 0 1 42.96 651.25
  L 43.02 633.80
  A 1.00 0.99 83.4 0 1 43.78 632.83
  L 45.45 632.42
  A 0.65 0.62 5.7 0 0 45.88 632.08
  C 46.22 631.35 38.28 631.62 37.84 631.57
  Q 36.81 631.44 37.35 632.34
  Q 37.76 633.02 38.76 632.77
  A 1.00 1.00 0.0 0 1 40.00 633.74
  L 40.00 651.31
  A 1.00 0.99 86.0 0 1 39.15 652.30
  Z
  M 55.83 632.75
  A 1.00 1.00 0.0 0 1 57.00 633.74
  L 57.00 651.38
  A 1.00 1.00 0.0 0 1 56.12 652.37
  L 54.41 652.59
  A 0.42 0.42 0.0 0 0 54.09 652.82
  Q 53.80 653.40 54.76 653.42
  C 61.68 653.54 71.63 655.50 74.07 646.32
  C 75.99 639.07 72.57 631.47 64.43 631.73
  Q 59.49 631.89 54.71 631.54
  Q 52.82 631.40 54.38 632.48
  Q 55.00 632.90 55.83 632.75
  Z
  M 89.91 643.09
  Q 94.20 642.40 94.28 646.67
  A 0.42 0.41 6.1 0 0 94.61 647.07
  Q 95.18 647.18 95.15 646.42
  Q 94.94 640.90 95.02 638.23
  C 95.05 637.09 94.27 637.72 94.25 638.38
  Q 94.13 642.78 89.76 641.70
  A 1.00 1.00 0.0 0 1 89.00 640.73
  L 89.00 633.75
  A 1.00 0.99 -89.2 0 1 90.02 632.75
  L 97.25 632.91
  A 1.02 1.01 81.2 0 1 98.18 633.60
  L 99.74 638.26
  A 0.52 0.50 89.6 0 0 100.06 638.59
  Q 100.73 638.80 100.70 637.48
  Q 100.65 635.10 100.44 632.63
  A 1.00 0.99 87.2 0 0 99.44 631.72
  L 84.79 631.73
  Q 81.75 631.73 84.62 632.72
  Q 84.96 632.84 85.39 632.97
  A 0.99 0.99 0.0 0 1 86.10 633.92
  L 86.23 651.19
  A 1.00 1.00 0.0 0 1 85.51 652.16
  L 83.24 652.81
  A 0.22 0.21 -29.5 0 0 83.14 653.16
  C 83.26 653.28 83.64 653.48 83.82 653.48
  Q 91.62 653.53 99.46 653.48
  A 1.01 1.00 -0.3 0 0 100.46 652.48
  Q 100.46 649.49 100.72 646.54
  C 100.75 646.23 100.54 645.50 100.24 645.55
  A 0.28 0.27 3.4 0 0 100.03 645.73
  L 98.40 650.92
  A 1.04 1.03 -2.0 0 1 97.81 651.55
  Q 93.93 653.10 89.78 652.30
  A 1.01 1.00 -84.2 0 1 88.97 651.30
  L 89.07 644.07
  A 1.01 1.01 0.0 0 1 89.91 643.09
  Z
  M 177.60 643.10
  Q 181.88 642.28 181.98 646.45
  A 0.54 0.52 14.6 0 0 182.25 646.89
  Q 182.78 647.18 182.85 646.42
  Q 183.07 643.79 182.86 641.15
  Q 182.70 639.13 181.44 640.71
  Q 180.23 642.24 177.56 641.71
  A 1.00 1.00 0.0 0 1 176.75 640.73
  L 176.75 633.83
  A 1.01 1.00 86.5 0 1 177.63 632.83
  Q 181.55 632.38 185.35 633.39
  A 0.98 0.97 83.9 0 1 185.99 633.91
  C 186.09 634.12 188.15 639.68 188.16 638.18
  Q 188.18 635.51 188.20 632.76
  A 1.00 1.00 0.0 0 0 187.20 631.75
  L 172.95 631.75
  Q 169.90 631.75 172.69 632.97
  L 173.31 633.25
  A 1.00 0.99 11.8 0 1 173.91 634.16
  L 173.96 651.25
  A 1.01 1.01 0.0 0 1 173.16 652.24
  L 171.06 652.67
  A 0.82 0.81 13.3 0 0 170.60 652.95
  Q 170.20 653.44 171.07 653.47
  Q 174.61 653.59 187.21 653.48
  A 1.00 1.00 0.0 0 0 188.20 652.47
  Q 188.17 649.22 188.26 646.00
  Q 188.26 645.84 188.25 645.72
  Q 188.13 644.36 187.74 645.66
  L 186.16 650.91
  A 1.01 1.01 0.0 0 1 185.54 651.56
  Q 181.67 652.95 177.58 652.34
  A 1.01 1.00 -85.7 0 1 176.73 651.34
  L 176.79 644.08
  A 1.01 1.01 0.0 0 1 177.60 643.10
  Z
  M 199.28 652.16
  L 197.35 652.76
  A 0.33 0.33 0.0 0 0 197.12 653.03
  C 197.02 653.79 208.27 653.52 212.89 653.48
  A 1.00 1.00 0.0 0 0 213.88 652.50
  L 214.04 646.02
  A 0.41 0.41 0.0 0 0 213.77 645.62
  C 213.54 645.54 211.73 650.66 211.29 651.32
  A 0.97 0.94 6.0 0 1 210.78 651.72
  Q 207.37 652.87 203.84 652.32
  A 1.01 1.00 4.7 0 1 203.00 651.33
  L 203.00 633.98
  A 1.00 0.99 -8.2 0 1 203.72 633.03
  C 203.91 632.97 206.95 632.41 206.66 632.01
  A 0.63 0.63 0.0 0 0 206.15 631.75
  L 197.23 631.75
  A 0.21 0.21 0.0 0 0 197.04 632.05
  L 197.19 632.34
  A 0.41 0.39 -15.3 0 0 197.60 632.56
  Q 200.05 632.28 200.15 634.55
  Q 200.54 642.93 199.98 651.27
  A 0.99 0.99 0.0 0 1 199.28 652.16
  Z
  M 229.56 643.06
  Q 233.77 642.24 233.88 646.40
  A 0.81 0.81 0.0 0 0 234.06 646.88
  C 235.41 648.54 234.73 638.39 234.73 638.04
  A 0.27 0.18 85.3 0 0 234.50 637.75
  L 234.24 637.84
  A 0.40 0.39 81.0 0 0 233.97 638.22
  Q 233.90 642.74 229.52 641.68
  A 1.00 1.00 0.0 0 1 228.75 640.71
  L 228.75 633.67
  A 1.00 1.00 0.0 0 1 229.80 632.67
  L 236.67 633.04
  A 0.97 0.95 -18.1 0 1 237.37 633.39
  C 237.59 633.64 240.54 640.63 240.37 637.82
  Q 240.21 635.32 240.21 632.75
  A 1.00 1.00 0.0 0 0 239.21 631.75
  L 224.98 631.75
  Q 221.87 631.75 224.73 632.97
  L 225.29 633.21
  A 1.01 1.00 12.5 0 1 225.89 634.14
  L 225.77 651.31
  A 1.01 1.00 77.6 0 1 225.21 652.20
  C 224.43 652.58 223.73 652.34 223.03 652.68
  C 221.81 653.28 223.15 653.50 223.56 653.50
  Q 231.37 653.52 239.23 653.48
  A 1.01 1.00 -89.1 0 0 240.23 652.50
  Q 240.27 650.65 240.47 646.01
  Q 240.51 645.11 239.95 645.29
  A 0.43 0.40 -1.9 0 0 239.67 645.57
  L 238.24 650.71
  A 1.02 1.00 86.4 0 1 237.68 651.36
  Q 233.76 653.08 229.56 652.33
  A 1.01 1.01 0.0 0 1 228.73 651.34
  L 228.76 644.04
  A 1.00 1.00 0.0 0 1 229.56 643.06
  Z
  M 281.82 652.22
  Q 280.47 652.31 279.15 652.67
  C 278.78 652.77 278.58 653.03 278.91 653.35
  A 0.51 0.51 0.0 0 0 279.27 653.50
  L 288.73 653.50
  A 0.82 0.81 21.6 0 0 289.32 653.25
  C 290.18 652.33 286.85 652.45 286.36 652.24
  A 1.00 1.00 0.0 0 1 285.75 651.32
  L 285.75 633.76
  A 1.01 1.00 -4.0 0 1 286.62 632.77
  Q 290.64 632.24 291.77 636.01
  Q 291.89 636.42 292.00 636.78
  Q 293.26 640.90 293.25 636.60
  L 293.25 632.75
  A 1.00 1.00 0.0 0 0 292.25 631.75
  L 276.28 631.75
  A 1.00 1.00 0.0 0 0 275.28 632.70
  L 274.95 639.09
  A 0.33 0.32 16.4 0 0 275.12 639.39
  C 275.48 639.60 275.85 639.12 275.92 638.77
  C 276.68 635.16 277.99 631.77 282.04 633.00
  A 0.99 0.99 0.0 0 1 282.75 633.95
  L 282.75 651.22
  A 1.01 1.00 -2.2 0 1 281.82 652.22
  Z"
/>
<path d="
  M 140.75 43.46
  L 141.50 43.46
  C 161.68 45.80 178.76 48.07 197.17 57.33
  Q 199.60 58.55 201.41 60.54
  Q 202.65 61.90 200.84 62.20
  L 167.25 67.79
  L 166.25 68.29
  C 149.41 70.09 132.37 73.43 115.50 70.49
  C 107.27 69.05 95.32 64.40 92.76 55.41
  A 1.01 1.00 -36.8 0 1 92.88 54.60
  C 100.09 43.33 125.75 43.75 140.75 43.46
  Z"
/>
<path d="
  M 141.50 296.96
  L 138.94 291.86
  Q 127.66 273.86 125.49 270.79
  Q 118.16 260.38 119.41 248.83
  A 0.99 0.99 0.0 0 0 119.06 247.96
  L 117.15 246.36
  A 0.32 0.31 -68.9 0 1 117.04 246.10
  Q 117.06 245.18 118.92 246.65
  A 1.00 0.99 -57.6 0 0 120.43 246.31
  Q 124.40 238.46 131.34 234.29
  C 144.68 226.28 159.77 221.17 174.33 215.44
  Q 185.65 210.98 191.08 207.41
  C 216.42 190.75 225.39 160.61 227.62 131.72
  Q 227.73 130.29 227.46 129.75
  L 227.54 129.50
  Q 228.08 128.86 228.12 128.44
  Q 230.11 107.31 223.46 87.22
  Q 220.38 77.89 216.61 69.03
  Q 215.68 66.84 217.89 67.71
  Q 228.05 71.68 233.65 81.14
  C 240.65 92.99 243.53 107.97 244.72 121.51
  C 248.68 166.67 241.70 216.86 223.98 258.20
  C 211.09 288.28 183.98 316.20 148.28 312.19
  A 1.01 0.99 84.0 0 1 147.44 311.50
  Q 145.09 303.93 141.50 296.96
  Z"
/>
<path d="
  M 103.87 70.13
  Q 103.39 69.56 104.52 69.37
  Q 105.97 69.12 104.77 69.96
  L 104.42 70.20
  A 0.42 0.41 51.5 0 1 103.87 70.13
  Z"
/>
<path d="
  M 247.89 152.23
  Q 248.58 150.82 247.24 149.52
  Q 246.81 149.11 247.44 149.44
  Q 250.24 150.91 248.56 152.69
  Q 246.75 154.60 247.89 152.23
  Z"
/>
<path d="
  M 189.90 204.70
  C 192.25 208.02 188.58 205.06 189.48 204.60
  A 0.33 0.33 0.0 0 1 189.90 204.70
  Z"
/>
<path d="
  M 124.74 276.23
  C 122.67 276.50 128.46 272.42 125.05 276.07
  A 0.58 0.57 -71.9 0 1 124.74 276.23
  Z"
/>
<path d="
  M 145.59 386.86
  Q 146.29 387.36 146.50 388.14
  Q 146.90 389.62 145.93 388.43
  L 144.29 386.42
  Q 143.93 385.97 144.50 385.89
  Q 145.01 385.81 145.23 386.40
  A 1.06 1.01 8.2 0 0 145.59 386.86
  Z"
/>
<path d="
  M 150.04 477.96
  C 148.12 478.87 152.24 473.85 150.42 477.59
  A 0.80 0.76 -0.7 0 1 150.04 477.96
  Z"
/>
<path d="
  M 112.00 514.21
  Q 109.62 517.53 106.25 519.79
  C 98.35 514.34 91.13 504.68 92.55 494.53
  C 93.33 489.03 99.73 487.15 104.49 489.15
  C 114.60 493.38 115.57 505.32 112.00 514.21
  Z"
/>
<path d="
  M 142.00 599.04
  L 141.25 598.79
  L 133.95 599.40
  Q 132.06 599.56 133.27 601.03
  L 135.25 603.46
  L 134.25 603.71
  L 131.17 599.77
  A 0.98 0.97 -20.7 0 0 130.32 599.39
  C 102.98 601.03 61.29 599.00 39.10 580.63
  C 31.16 574.06 25.76 563.15 32.54 554.28
  C 39.77 544.82 55.30 541.74 66.21 539.25
  Q 70.47 539.25 74.51 537.66
  Q 91.65 533.64 108.06 527.16
  A 1.00 0.96 47.5 0 1 108.89 527.21
  Q 120.64 533.35 132.58 533.95
  Q 151.41 534.89 170.73 528.46
  A 1.00 1.00 0.0 0 0 171.16 526.85
  Q 170.84 526.47 170.32 526.20
  A 0.85 0.80 3.4 0 1 169.98 525.84
  C 169.49 524.83 170.63 525.45 170.89 525.71
  Q 171.93 526.71 173.08 527.55
  A 1.03 1.00 -36.1 0 0 174.00 527.68
  Q 182.20 524.82 190.33 521.88
  C 194.74 520.29 198.07 520.10 202.70 521.86
  Q 216.00 526.92 228.92 532.84
  C 237.58 536.80 255.45 546.18 250.47 558.72
  C 243.27 576.84 214.51 586.33 197.20 590.02
  Q 170.42 595.73 143.18 598.64
  Q 142.52 598.71 142.00 599.04
  Z"
/>
<path d="
  M 41.70 585.62
  Q 41.81 585.06 42.30 584.89
  Q 43.58 584.43 42.65 585.42
  L 41.70 586.44
  Q 41.01 587.18 41.26 586.19
  Q 41.31 586.00 41.49 585.90
  A 0.41 0.41 0.0 0 0 41.70 585.62
  Z"
/>
<path d="
  M 60.83 652.53
  A 1.00 0.99 88.9 0 1 59.78 651.51
  L 60.07 633.81
  A 1.01 0.99 -5.9 0 1 60.87 632.85
  C 73.46 630.21 72.56 644.59 68.85 651.61
  A 1.01 1.00 -77.1 0 1 68.02 652.14
  L 60.83 652.53
  Z"
/>
<path d="
  M 308.26 645.62
  L 310.92 637.62
  A 0.31 0.31 0.0 0 1 311.51 637.61
  L 314.37 645.55
  A 0.31 0.31 0.0 0 1 314.08 645.96
  L 308.55 646.03
  A 0.31 0.31 0.0 0 1 308.26 645.62
  Z"
/>
</g>
<g fill="#000000">
<path d="
  M 138.00 39.75
  L 140.75 43.46
  C 125.75 43.75 100.09 43.33 92.88 54.60
  A 1.01 1.00 -36.8 0 0 92.76 55.41
  C 95.32 64.40 107.27 69.05 115.50 70.49
  C 132.37 73.43 149.41 70.09 166.25 68.29
  Q 166.94 70.70 169.00 72.21
  Q 161.38 73.51 153.70 74.23
  C 133.96 76.10 113.17 79.48 96.27 67.23
  C 89.02 61.98 84.00 53.10 94.11 46.89
  C 106.44 39.31 124.64 38.34 138.00 39.75
  Z
  M 131.38 40.90
  C 130.17 44.77 133.61 41.34 134.10 40.79
  Q 134.56 40.26 133.86 40.24
  L 132.36 40.20
  A 1.01 1.00 -80.3 0 0 131.38 40.90
  Z
  M 104.42 70.20
  L 104.77 69.96
  Q 105.97 69.12 104.52 69.37
  Q 103.39 69.56 103.87 70.13
  A 0.42 0.41 51.5 0 0 104.42 70.20
  Z"
/>
<path d="
  M 150.46 339.75
  Q 148.19 339.75 146.29 341.00
  L 144.47 317.94
  A 1.01 1.01 0.0 0 0 143.76 317.06
  L 132.21 313.50
  Q 133.20 311.53 133.25 309.29
  L 140.75 311.26
  Q 142.54 311.73 141.96 309.97
  L 138.54 299.75
  L 141.50 296.96
  Q 145.09 303.93 147.44 311.50
  A 1.01 0.99 84.0 0 0 148.28 312.19
  C 183.98 316.20 211.09 288.28 223.98 258.20
  C 241.70 216.86 248.68 166.67 244.72 121.51
  C 243.53 107.97 240.65 92.99 233.65 81.14
  Q 228.05 71.68 217.89 67.71
  Q 215.68 66.84 216.61 69.03
  Q 220.38 77.89 223.46 87.22
  Q 230.11 107.31 228.12 128.44
  Q 228.08 128.86 227.54 129.50
  Q 226.63 128.16 225.40 127.22
  Q 223.53 125.79 224.94 127.67
  Q 225.92 128.99 227.46 129.75
  Q 227.73 130.29 227.62 131.72
  C 225.39 160.61 216.42 190.75 191.08 207.41
  Q 185.65 210.98 174.33 215.44
  C 159.77 221.17 144.68 226.28 131.34 234.29
  Q 124.40 238.46 120.43 246.31
  A 1.00 0.99 -57.6 0 1 118.92 246.65
  Q 117.06 245.18 117.04 246.10
  A 0.32 0.31 -68.9 0 0 117.15 246.36
  L 119.06 247.96
  A 0.99 0.99 0.0 0 1 119.41 248.83
  Q 118.16 260.38 125.49 270.79
  Q 127.66 273.86 138.94 291.86
  L 135.29 294.75
  Q 123.44 276.13 120.43 271.58
  C 108.69 253.81 115.19 237.79 132.72 228.24
  C 145.03 221.53 157.80 216.95 170.76 211.77
  C 191.65 203.43 205.15 194.42 213.66 172.19
  Q 222.73 148.51 223.90 123.69
  C 224.79 104.80 220.57 88.13 211.52 71.72
  C 208.95 67.07 206.69 65.76 201.43 66.93
  Q 196.21 68.08 170.25 71.96
  L 167.25 67.79
  L 200.84 62.20
  Q 202.65 61.90 201.41 60.54
  Q 199.60 58.55 197.17 57.33
  C 178.76 48.07 161.68 45.80 141.50 43.46
  Q 140.56 40.86 138.00 39.75
  Q 138.05 39.46 138.43 39.46
  C 163.93 39.37 191.37 44.26 210.25 61.31
  A 0.99 0.99 0.0 0 0 210.79 61.56
  Q 217.97 62.52 222.17 64.35
  C 260.21 80.90 250.83 172.24 245.09 203.52
  C 237.66 243.96 218.92 299.47 176.20 313.90
  C 168.08 316.65 158.73 317.53 149.94 317.75
  A 1.00 1.00 0.0 0 0 148.98 318.91
  Q 150.68 329.37 150.46 339.75
  Z
  M 221.32 66.39
  Q 222.74 64.39 220.84 65.95
  L 219.97 66.67
  A 0.67 0.66 -17.0 0 0 219.74 67.10
  Q 219.68 67.63 220.16 67.41
  Q 220.81 67.12 221.32 66.39
  Z
  M 213.6125 73.7451
  A 1.60 0.34 134.3 0 0 214.9733 72.8375
  A 1.60 0.34 134.3 0 0 215.8475 71.4549
  A 1.60 0.34 134.3 0 0 214.4867 72.3625
  A 1.60 0.34 134.3 0 0 213.6125 73.7451
  Z
  M 247.89 152.23
  Q 246.75 154.60 248.56 152.69
  Q 250.24 150.91 247.44 149.44
  Q 246.81 149.11 247.24 149.52
  Q 248.58 150.82 247.89 152.23
  Z
  M 189.48 204.60
  C 188.58 205.06 192.25 208.02 189.90 204.70
  A 0.33 0.33 0.0 0 0 189.48 204.60
  Z
  M 230.55 245.62
  C 229.70 246.35 232.94 248.77 230.86 245.66
  A 0.21 0.21 0.0 0 0 230.55 245.62
  Z
  M 125.05 276.07
  C 128.46 272.42 122.67 276.50 124.74 276.23
  A 0.58 0.57 -71.9 0 0 125.05 276.07
  Z"
/>
<path d="
  M 74.10 54.40
  Q 77.83 54.12 76.80 56.64
  Q 71.91 68.58 68.83 81.18
  A 1.00 1.00 0.0 0 1 67.23 81.72
  L 65.37 80.21
  A 1.02 1.02 0.0 0 1 65.03 79.20
  Q 68.03 66.72 73.26 54.99
  A 0.99 0.99 0.0 0 1 74.10 54.40
  Z"
/>
<path d="
  M 64.46 102.25
  Q 63.48 103.88 63.54 105.75
  Q 63.79 108.98 62.21 111.75
  L 58.25 115.29
  Q 57.86 115.03 57.93 114.49
  Q 60.14 98.10 64.21 82.07
  A 1.00 1.00 0.0 0 1 65.74 81.49
  L 67.75 82.85
  A 1.00 1.00 0.0 0 1 68.18 83.88
  L 64.46 102.25
  Z"
/>
<path d="
  M 62.72 112.73
  C 52.49 180.21 56.76 270.71 127.04 307.00
  Q 125.48 308.63 125.00 310.79
  Q 111.60 304.86 100.94 294.81
  C 69.88 265.50 57.24 226.64 54.53 184.92
  C 54.51 184.59 54.59 184.50 54.79 184.25
  C 55.75 184.52 57.51 186.58 57.72 186.52
  A 0.26 0.26 0.0 0 0 57.88 186.16
  Q 57.04 184.36 55.25 183.54
  Q 54.33 182.68 54.26 181.00
  Q 52.90 148.80 57.64 116.93
  Q 57.74 116.21 58.25 115.71
  L 62.72 112.73
  Z
  M 62.30 225.13
  Q 61.88 226.10 62.77 225.54
  Q 63.38 225.16 63.61 224.36
  Q 63.93 223.24 63.07 224.03
  Q 62.57 224.50 62.30 225.13
  Z"
/>
<path d="
  M 314.11 276.37
  A 1.00 0.99 37.5 0 1 314.28 277.62
  Q 310.70 283.51 307.59 290.50
  Q 270.43 374.25 244.31 462.06
  C 242.61 467.79 236.80 482.30 228.34 477.65
  C 223.42 474.95 219.32 465.42 217.42 460.07
  C 204.98 425.16 196.12 387.62 194.09 351.58
  C 193.98 349.59 194.15 347.12 196.90 348.04
  A 0.99 0.98 -84.9 0 1 197.57 348.85
  C 198.30 354.27 198.42 360.54 198.92 365.07
  C 201.94 392.90 208.56 419.22 216.77 445.91
  C 220.39 457.70 222.49 464.70 228.64 473.07
  C 234.47 481.00 241.23 459.81 241.95 456.73
  Q 245.10 443.29 256.56 410.64
  Q 276.73 353.18 300.23 296.99
  Q 304.79 286.08 311.13 276.12
  Q 312.14 274.54 314.11 276.37
  Z"
/>
<path d="
  M 5.71 399.22
  A 1.02 1.00 -84.6 0 1 6.47 400.15
  C 8.16 435.79 16.83 469.91 27.68 503.77
  C 29.97 510.94 33.32 519.09 38.58 524.81
  A 1.01 0.91 72.0 0 0 39.10 525.11
  C 47.37 526.92 52.69 501.24 54.34 495.89
  Q 57.12 486.82 59.90 478.68
  Q 83.73 408.78 111.27 344.55
  Q 114.81 336.31 120.78 327.25
  A 1.01 1.00 -65.7 0 1 121.88 326.83
  Q 123.11 327.16 123.70 328.26
  A 1.00 0.98 46.6 0 1 123.68 329.24
  Q 119.17 336.89 116.46 342.98
  Q 87.35 408.35 64.81 476.23
  C 60.81 488.28 56.40 503.12 52.04 516.51
  Q 49.80 523.37 44.38 527.73
  C 35.85 534.57 28.33 516.42 26.46 511.28
  C 13.53 475.77 5.00 439.42 2.77 402.44
  C 2.64 400.26 3.01 398.55 5.71 399.22
  Z"
/>
<path d="
  M 150.46 343.75
  Q 150.87 356.30 150.54 359.26
  Q 146.30 397.00 144.81 423.56
  C 143.95 438.93 145.53 459.31 151.31 473.50
  C 158.99 492.35 173.99 503.07 192.02 511.97
  C 196.14 514.00 198.97 513.72 203.45 511.94
  Q 222.76 504.26 242.06 496.56
  Q 243.12 496.14 244.25 496.04
  L 238.10 501.63
  A 0.21 0.20 48.9 0 0 238.09 501.92
  C 238.78 502.72 244.39 496.71 244.96 496.00
  Q 247.67 494.07 250.96 493.50
  Q 251.80 495.38 253.54 496.50
  Q 253.21 497.10 252.75 497.26
  Q 229.11 506.03 206.20 516.07
  Q 204.04 517.01 206.22 517.91
  Q 220.76 523.88 234.96 530.57
  C 278.57 551.11 244.22 580.35 218.17 588.90
  C 192.79 597.24 164.81 601.27 138.24 603.64
  L 142.00 599.04
  Q 142.52 598.71 143.18 598.64
  Q 170.42 595.73 197.20 590.02
  C 214.51 586.33 243.27 576.84 250.47 558.72
  C 255.45 546.18 237.58 536.80 228.92 532.84
  Q 216.00 526.92 202.70 521.86
  C 198.07 520.10 194.74 520.29 190.33 521.88
  Q 182.20 524.82 174.00 527.68
  A 1.03 1.00 -36.1 0 1 173.08 527.55
  Q 171.93 526.71 170.89 525.71
  C 170.63 525.45 169.49 524.83 169.98 525.84
  A 0.85 0.80 3.4 0 0 170.32 526.20
  Q 170.84 526.47 171.16 526.85
  A 1.00 1.00 0.0 0 1 170.73 528.46
  Q 151.41 534.89 132.58 533.95
  Q 120.64 533.35 108.89 527.21
  A 1.00 0.96 47.5 0 0 108.06 527.16
  Q 91.65 533.64 74.51 537.66
  Q 69.47 538.85 68.00 534.54
  Q 84.86 531.06 100.94 524.94
  Q 101.27 524.81 102.04 524.00
  C 103.06 525.01 98.39 528.52 97.33 529.28
  C 97.05 529.48 96.73 530.06 97.40 530.03
  A 0.87 0.87 0.0 0 0 97.91 529.82
  Q 107.48 521.06 116.56 511.81
  Q 117.87 510.48 116.75 510.55
  A 1.00 0.97 -66.1 0 0 116.18 510.78
  L 112.00 514.21
  C 115.57 505.32 114.60 493.38 104.49 489.15
  C 99.73 487.15 93.33 489.03 92.55 494.53
  C 91.13 504.68 98.35 514.34 106.25 519.79
  Q 105.44 523.17 102.04 523.75
  Q 98.12 519.08 97.17 518.13
  C 90.91 511.83 84.07 498.10 89.60 489.50
  C 94.10 482.50 103.46 481.97 109.80 486.68
  C 122.83 496.38 119.38 510.21 112.56 522.54
  A 1.01 1.01 0.0 0 0 113.02 523.94
  C 128.74 531.14 146.25 530.30 162.28 526.13
  Q 175.59 522.67 188.39 517.68
  Q 190.40 516.90 188.51 515.87
  Q 181.46 512.05 174.65 507.87
  C 128.48 479.52 141.24 418.10 144.14 374.52
  Q 145.13 359.63 146.29 344.75
  Q 148.62 345.39 150.46 343.75
  Z
  M 145.23 386.40
  Q 145.01 385.81 144.50 385.89
  Q 143.93 385.97 144.29 386.42
  L 145.93 388.43
  Q 146.90 389.62 146.50 388.14
  Q 146.29 387.36 145.59 386.86
  A 1.06 1.01 8.2 0 1 145.23 386.40
  Z
  M 150.42 477.59
  C 152.24 473.85 148.12 478.87 150.04 477.96
  A 0.80 0.76 -0.7 0 0 150.42 477.59
  Z
  M 216.43 523.83
  C 215.41 523.59 214.11 527.69 216.58 524.24
  A 0.26 0.26 0.0 0 0 216.43 523.83
  Z"
/>
<path d="
  M 254.25 496.21
  L 252.21 493.00
  Q 274.03 484.14 297.27 481.76
  Q 309.12 480.55 317.19 481.96
  C 348.13 487.39 365.53 522.92 343.08 548.57
  Q 334.39 558.49 322.84 563.91
  A 1.01 1.01 0.0 0 1 321.58 563.56
  Q 321.07 562.78 320.33 562.25
  Q 317.63 560.33 319.90 562.75
  L 320.64 563.53
  A 1.00 1.00 0.0 0 1 320.30 565.14
  Q 306.67 570.90 292.07 569.00
  C 282.19 567.72 290.67 564.55 292.97 564.72
  Q 306.36 565.73 316.43 561.96
  C 328.82 557.32 344.56 544.62 347.76 530.88
  C 350.95 517.20 344.73 501.82 333.66 493.58
  C 313.24 478.39 277.27 488.95 255.59 496.19
  C 255.18 496.32 254.67 496.24 254.25 496.21
  Z
  M 346.44 506.94
  Q 346.24 507.07 346.23 507.34
  A 0.26 0.26 0.0 0 0 346.60 507.59
  Q 347.43 507.23 347.71 506.47
  Q 348.16 505.26 347.10 505.99
  Q 346.92 506.11 346.81 506.32
  Q 346.51 506.88 346.44 506.94
  Z"
/>
<path d="
  M 65.00 535.04
  L 67.36 536.81
  A 1.01 1.00 -55.7 0 1 67.61 538.14
  Q 67.16 538.87 66.21 539.25
  C 55.30 541.74 39.77 544.82 32.54 554.28
  C 25.76 563.15 31.16 574.06 39.10 580.63
  C 61.29 599.00 102.98 601.03 130.32 599.39
  A 0.98 0.97 -20.7 0 1 131.17 599.77
  L 134.25 603.71
  Q 104.23 606.08 74.68 600.36
  C 57.26 596.98 17.56 583.05 25.84 557.30
  C 30.53 542.70 52.45 537.25 65.00 535.04
  Z
  M 41.49 585.90
  Q 41.31 586.00 41.26 586.19
  Q 41.01 587.18 41.70 586.44
  L 42.65 585.42
  Q 43.58 584.43 42.30 584.89
  Q 41.81 585.06 41.70 585.62
  A 0.41 0.41 0.0 0 1 41.49 585.90
  Z"
/>
<path d="
  M 141.25 598.79
  Q 138.67 600.70 137.00 603.46
  L 135.25 603.46
  L 133.27 601.03
  Q 132.06 599.56 133.95 599.40
  L 141.25 598.79
  Z"
/>
<path d="
  M 111.43 652.40
  L 111.22 652.82
  Q 110.25 654.80 110.25 652.60
  L 110.25 644.86
  Q 110.25 643.99 110.92 644.55
  Q 111.18 644.76 111.21 645.02
  Q 112.23 651.78 119.16 653.51
  A 0.99 0.99 0.0 0 0 119.96 653.37
  C 124.39 650.35 124.11 647.14 119.56 645.17
  C 115.53 643.42 107.84 641.02 110.69 634.65
  C 112.62 630.34 117.79 630.40 121.07 633.19
  A 0.64 0.64 0.0 0 0 121.87 633.21
  L 122.09 633.04
  Q 123.60 631.91 123.69 633.79
  Q 123.81 636.33 123.75 638.81
  C 123.71 640.29 122.77 638.96 122.67 638.63
  C 121.54 634.78 114.95 628.26 112.33 635.10
  Q 111.23 637.95 114.02 639.20
  C 116.84 640.47 123.78 642.70 124.74 645.99
  C 126.40 651.68 120.60 655.70 115.49 653.17
  Q 114.12 652.49 112.70 651.91
  A 1.00 0.99 -65.9 0 0 111.43 652.40
  Z"
/>
<path d="
  M 149.45 651.74
  L 149.19 651.98
  Q 147.55 653.53 147.51 651.27
  L 147.40 645.02
  A 0.54 0.53 -14.0 0 1 147.69 644.55
  Q 148.31 644.24 148.56 645.22
  C 149.82 650.19 156.68 657.69 160.52 649.76
  Q 161.75 647.21 158.95 646.04
  C 154.79 644.29 143.47 640.72 148.62 633.62
  C 151.03 630.29 155.36 630.83 158.34 632.98
  A 0.81 0.80 -42.6 0 0 159.23 633.01
  L 159.46 632.86
  A 1.00 1.00 0.0 0 1 160.98 633.64
  L 161.35 638.88
  A 0.63 0.63 0.0 0 1 161.11 639.43
  Q 160.46 639.94 160.04 638.68
  C 158.87 635.18 155.92 630.95 151.71 632.77
  Q 148.33 634.24 150.26 638.44
  A 1.03 0.98 1.6 0 0 150.75 638.93
  Q 154.90 640.85 158.92 642.55
  C 167.20 646.06 159.44 659.44 150.13 651.72
  A 0.52 0.51 43.2 0 0 149.45 651.74
  Z"
/>
<path d="
  M 256.69 653.81
  C 244.97 652.54 247.45 623.96 262.78 633.01
  A 1.01 1.01 0.0 0 0 264.06 632.80
  L 264.45 632.33
  Q 265.61 630.95 265.58 632.76
  L 265.46 639.04
  A 0.52 0.51 -0.6 0 1 264.96 639.54
  C 263.45 639.59 261.65 628.06 254.20 633.80
  A 1.01 0.98 -11.3 0 0 253.85 634.31
  Q 252.15 640.17 252.80 646.12
  C 253.89 656.01 263.31 654.81 264.83 646.14
  C 264.83 646.11 265.51 644.84 265.50 645.93
  Q 265.37 654.75 256.69 653.81
  Z"
/>
<path d="
  M 314.20 647.25
  L 308.34 647.25
  A 1.00 0.99 7.6 0 0 307.38 647.98
  L 306.58 650.87
  A 1.01 0.99 -68.7 0 0 307.08 652.03
  Q 308.05 652.52 309.12 652.55
  C 310.55 652.60 309.93 653.49 308.94 653.49
  C 308.19 653.50 300.84 653.82 301.26 652.98
  A 0.64 0.63 4.4 0 1 301.64 652.66
  L 303.85 651.95
  A 1.01 1.00 -88.6 0 0 304.48 651.34
  L 311.16 633.15
  Q 312.12 630.53 313.04 633.17
  L 319.39 651.42
  A 1.01 1.00 -2.7 0 0 320.10 652.06
  L 322.79 652.71
  A 0.26 0.24 84.6 0 1 322.96 652.86
  C 323.47 654.02 312.54 653.74 313.43 652.75
  A 0.83 0.83 0.0 0 1 313.90 652.49
  L 315.35 652.27
  A 1.00 1.00 0.0 0 0 316.15 650.97
  L 315.15 647.94
  A 1.01 1.00 80.7 0 0 314.20 647.25
  Z
  M 308.26 645.62
  A 0.31 0.31 0.0 0 0 308.55 646.03
  L 314.08 645.96
  A 0.31 0.31 0.0 0 0 314.37 645.55
  L 311.51 637.61
  A 0.31 0.31 0.0 0 0 310.92 637.62
  L 308.26 645.62
  Z"
/>
<path d="
  M 343.08 632.60
  L 343.25 632.31
  Q 344.12 630.75 344.20 632.53
  L 344.51 638.79
  A 0.81 0.80 -21.6 0 1 344.22 639.45
  Q 343.61 639.95 343.40 639.08
  C 342.56 635.76 340.28 632.17 336.57 632.22
  Q 333.75 632.26 333.02 635.63
  Q 332.44 638.26 334.91 639.33
  C 338.90 641.05 345.80 642.60 345.66 648.01
  C 345.49 654.42 338.29 655.52 333.87 651.92
  A 0.99 0.99 0.0 0 0 332.42 652.13
  L 332.18 652.48
  Q 331.03 654.15 331.01 652.12
  L 330.96 647.45
  Q 330.92 643.93 332.47 647.09
  Q 335.42 653.06 340.06 652.74
  Q 342.51 652.57 343.46 650.50
  C 346.84 643.15 328.66 645.55 331.39 635.31
  C 332.37 631.65 336.40 630.03 339.85 632.01
  Q 340.79 632.54 341.78 633.02
  A 1.01 0.99 -62.6 0 0 343.08 632.60
  Z"
/>
<path d="
  M 23.67 632.85
  L 21.44 632.55
  A 0.33 0.33 0.0 0 1 21.21 632.05
  L 21.38 631.77
  A 0.51 0.50 -69.4 0 1 21.90 631.53
  C 22.91 631.70 29.41 631.38 29.21 632.06
  A 0.53 0.52 -87.8 0 1 28.84 632.41
  C 27.37 632.77 26.19 633.44 25.65 634.99
  Q 22.55 643.91 19.73 652.94
  Q 19.03 655.21 18.22 652.98
  L 11.22 633.71
  A 1.03 0.99 -88.9 0 0 10.70 633.15
  Q 9.28 632.49 7.85 632.25
  C 6.48 632.02 8.16 631.56 8.31 631.57
  C 9.15 631.67 18.12 631.31 17.33 632.25
  A 0.67 0.64 -69.6 0 1 16.86 632.48
  Q 15.90 632.51 15.11 632.90
  A 1.00 0.99 -22.8 0 0 14.61 634.12
  L 19.00 646.73
  Q 19.79 649.00 20.52 646.71
  L 24.49 634.14
  A 1.00 1.00 0.0 0 0 23.67 632.85
  Z"
/>
<path d="
  M 40.00 651.31
  L 40.00 633.74
  A 1.00 1.00 0.0 0 0 38.76 632.77
  Q 37.76 633.02 37.35 632.34
  Q 36.81 631.44 37.84 631.57
  C 38.28 631.62 46.22 631.35 45.88 632.08
  A 0.65 0.62 5.7 0 1 45.45 632.42
  L 43.78 632.83
  A 1.00 0.99 83.4 0 0 43.02 633.80
  L 42.96 651.25
  A 1.00 0.99 15.3 0 0 43.46 652.11
  C 44.30 652.60 45.05 652.30 45.71 652.68
  C 47.59 653.77 37.94 653.48 37.66 653.48
  A 0.41 0.41 0.0 0 1 37.25 653.08
  L 37.25 652.75
  A 0.29 0.19 -4.6 0 1 37.51 652.55
  L 39.15 652.30
  A 1.00 0.99 86.0 0 0 40.00 651.31
  Z"
/>
<path d="
  M 55.83 632.75
  Q 55.00 632.90 54.38 632.48
  Q 52.82 631.40 54.71 631.54
  Q 59.49 631.89 64.43 631.73
  C 72.57 631.47 75.99 639.07 74.07 646.32
  C 71.63 655.50 61.68 653.54 54.76 653.42
  Q 53.80 653.40 54.09 652.82
  A 0.42 0.42 0.0 0 1 54.41 652.59
  L 56.12 652.37
  A 1.00 1.00 0.0 0 0 57.00 651.38
  L 57.00 633.74
  A 1.00 1.00 0.0 0 0 55.83 632.75
  Z
  M 60.83 652.53
  L 68.02 652.14
  A 1.01 1.00 -77.1 0 0 68.85 651.61
  C 72.56 644.59 73.46 630.21 60.87 632.85
  A 1.01 0.99 -5.9 0 0 60.07 633.81
  L 59.78 651.51
  A 1.00 0.99 88.9 0 0 60.83 652.53
  Z"
/>
<path d="
  M 89.07 644.07
  L 88.97 651.30
  A 1.01 1.00 -84.2 0 0 89.78 652.30
  Q 93.93 653.10 97.81 651.55
  A 1.04 1.03 -2.0 0 0 98.40 650.92
  L 100.03 645.73
  A 0.28 0.27 3.4 0 1 100.24 645.55
  C 100.54 645.50 100.75 646.23 100.72 646.54
  Q 100.46 649.49 100.46 652.48
  A 1.01 1.00 -0.3 0 1 99.46 653.48
  Q 91.62 653.53 83.82 653.48
  C 83.64 653.48 83.26 653.28 83.14 653.16
  A 0.22 0.21 -29.5 0 1 83.24 652.81
  L 85.51 652.16
  A 1.00 1.00 0.0 0 0 86.23 651.19
  L 86.10 633.92
  A 0.99 0.99 0.0 0 0 85.39 632.97
  Q 84.96 632.84 84.62 632.72
  Q 81.75 631.73 84.79 631.73
  L 99.44 631.72
  A 1.00 0.99 87.2 0 1 100.44 632.63
  Q 100.65 635.10 100.70 637.48
  Q 100.73 638.80 100.06 638.59
  A 0.52 0.50 89.6 0 1 99.74 638.26
  L 98.18 633.60
  A 1.02 1.01 81.2 0 0 97.25 632.91
  L 90.02 632.75
  A 1.00 0.99 -89.2 0 0 89.00 633.75
  L 89.00 640.73
  A 1.00 1.00 0.0 0 0 89.76 641.70
  Q 94.13 642.78 94.25 638.38
  C 94.27 637.72 95.05 637.09 95.02 638.23
  Q 94.94 640.90 95.15 646.42
  Q 95.18 647.18 94.61 647.07
  A 0.42 0.41 6.1 0 1 94.28 646.67
  Q 94.20 642.40 89.91 643.09
  A 1.01 1.01 0.0 0 0 89.07 644.07
  Z"
/>
<path d="
  M 176.79 644.08
  L 176.73 651.34
  A 1.01 1.00 -85.7 0 0 177.58 652.34
  Q 181.67 652.95 185.54 651.56
  A 1.01 1.01 0.0 0 0 186.16 650.91
  L 187.74 645.66
  Q 188.13 644.36 188.25 645.72
  Q 188.26 645.84 188.26 646.00
  Q 188.17 649.22 188.20 652.47
  A 1.00 1.00 0.0 0 1 187.21 653.48
  Q 174.61 653.59 171.07 653.47
  Q 170.20 653.44 170.60 652.95
  A 0.82 0.81 13.3 0 1 171.06 652.67
  L 173.16 652.24
  A 1.01 1.01 0.0 0 0 173.96 651.25
  L 173.91 634.16
  A 1.00 0.99 11.8 0 0 173.31 633.25
  L 172.69 632.97
  Q 169.90 631.75 172.95 631.75
  L 187.20 631.75
  A 1.00 1.00 0.0 0 1 188.20 632.76
  Q 188.18 635.51 188.16 638.18
  C 188.15 639.68 186.09 634.12 185.99 633.91
  A 0.98 0.97 83.9 0 0 185.35 633.39
  Q 181.55 632.38 177.63 632.83
  A 1.01 1.00 86.5 0 0 176.75 633.83
  L 176.75 640.73
  A 1.00 1.00 0.0 0 0 177.56 641.71
  Q 180.23 642.24 181.44 640.71
  Q 182.70 639.13 182.86 641.15
  Q 183.07 643.79 182.85 646.42
  Q 182.78 647.18 182.25 646.89
  A 0.54 0.52 14.6 0 1 181.98 646.45
  Q 181.88 642.28 177.60 643.10
  A 1.01 1.01 0.0 0 0 176.79 644.08
  Z"
/>
<path d="
  M 199.98 651.27
  Q 200.54 642.93 200.15 634.55
  Q 200.05 632.28 197.60 632.56
  A 0.41 0.39 -15.3 0 1 197.19 632.34
  L 197.04 632.05
  A 0.21 0.21 0.0 0 1 197.23 631.75
  L 206.15 631.75
  A 0.63 0.63 0.0 0 1 206.66 632.01
  C 206.95 632.41 203.91 632.97 203.72 633.03
  A 1.00 0.99 -8.2 0 0 203.00 633.98
  L 203.00 651.33
  A 1.01 1.00 4.7 0 0 203.84 652.32
  Q 207.37 652.87 210.78 651.72
  A 0.97 0.94 6.0 0 0 211.29 651.32
  C 211.73 650.66 213.54 645.54 213.77 645.62
  A 0.41 0.41 0.0 0 1 214.04 646.02
  L 213.88 652.50
  A 1.00 1.00 0.0 0 1 212.89 653.48
  C 208.27 653.52 197.02 653.79 197.12 653.03
  A 0.33 0.33 0.0 0 1 197.35 652.76
  L 199.28 652.16
  A 0.99 0.99 0.0 0 0 199.98 651.27
  Z"
/>
<path d="
  M 228.76 644.04
  L 228.73 651.34
  A 1.01 1.01 0.0 0 0 229.56 652.33
  Q 233.76 653.08 237.68 651.36
  A 1.02 1.00 86.4 0 0 238.24 650.71
  L 239.67 645.57
  A 0.43 0.40 -1.9 0 1 239.95 645.29
  Q 240.51 645.11 240.47 646.01
  Q 240.27 650.65 240.23 652.50
  A 1.01 1.00 -89.1 0 1 239.23 653.48
  Q 231.37 653.52 223.56 653.50
  C 223.15 653.50 221.81 653.28 223.03 652.68
  C 223.73 652.34 224.43 652.58 225.21 652.20
  A 1.01 1.00 77.6 0 0 225.77 651.31
  L 225.89 634.14
  A 1.01 1.00 12.5 0 0 225.29 633.21
  L 224.73 632.97
  Q 221.87 631.75 224.98 631.75
  L 239.21 631.75
  A 1.00 1.00 0.0 0 1 240.21 632.75
  Q 240.21 635.32 240.37 637.82
  C 240.54 640.63 237.59 633.64 237.37 633.39
  A 0.97 0.95 -18.1 0 0 236.67 633.04
  L 229.80 632.67
  A 1.00 1.00 0.0 0 0 228.75 633.67
  L 228.75 640.71
  A 1.00 1.00 0.0 0 0 229.52 641.68
  Q 233.90 642.74 233.97 638.22
  A 0.40 0.39 81.0 0 1 234.24 637.84
  L 234.50 637.75
  A 0.27 0.18 85.3 0 1 234.73 638.04
  C 234.73 638.39 235.41 648.54 234.06 646.88
  A 0.81 0.81 0.0 0 1 233.88 646.40
  Q 233.77 642.24 229.56 643.06
  A 1.00 1.00 0.0 0 0 228.76 644.04
  Z"
/>
<path d="
  M 282.75 651.22
  L 282.75 633.95
  A 0.99 0.99 0.0 0 0 282.04 633.00
  C 277.99 631.77 276.68 635.16 275.92 638.77
  C 275.85 639.12 275.48 639.60 275.12 639.39
  A 0.33 0.32 16.4 0 1 274.95 639.09
  L 275.28 632.70
  A 1.00 1.00 0.0 0 1 276.28 631.75
  L 292.25 631.75
  A 1.00 1.00 0.0 0 1 293.25 632.75
  L 293.25 636.60
  Q 293.26 640.90 292.00 636.78
  Q 291.89 636.42 291.77 636.01
  Q 290.64 632.24 286.62 632.77
  A 1.01 1.00 -4.0 0 0 285.75 633.76
  L 285.75 651.32
  A 1.00 1.00 0.0 0 0 286.36 652.24
  C 286.85 652.45 290.18 652.33 289.32 653.25
  A 0.82 0.81 21.6 0 1 288.73 653.50
  L 279.27 653.50
  A 0.51 0.51 0.0 0 1 278.91 653.35
  C 278.58 653.03 278.78 652.77 279.15 652.67
  Q 280.47 652.31 281.82 652.22
  A 1.01 1.00 -2.2 0 0 282.75 651.22
  Z"
/>
</g>
<g fill="#6d6c6b">
<path d="
  M 138.00 39.75
  Q 140.56 40.86 141.50 43.46
  L 140.75 43.46
  L 138.00 39.75
  Z"
/>
<path d="
  M 134.10 40.79
  C 133.61 41.34 130.17 44.77 131.38 40.90
  A 1.01 1.00 -80.3 0 1 132.36 40.20
  L 133.86 40.24
  Q 134.56 40.26 134.10 40.79
  Z"
/>
<path d="
  M 221.32 66.39
  Q 220.81 67.12 220.16 67.41
  Q 219.68 67.63 219.74 67.10
  A 0.67 0.66 -17.0 0 1 219.97 66.67
  L 220.84 65.95
  Q 222.74 64.39 221.32 66.39
  Z"
/>
<path d="
  M 167.25 67.79
  L 170.25 71.96
  L 169.00 72.21
  Q 166.94 70.70 166.25 68.29
  L 167.25 67.79
  Z"
/>
<ellipse cx="0.00" cy="0.00" transform="translate(214.73,72.60) rotate(134.3)" rx="1.60" ry="0.34"/>
<path d="
  M 64.46 102.25
  Q 64.84 104.25 63.54 105.75
  Q 63.48 103.88 64.46 102.25
  Z"
/>
<path d="
  M 62.21 111.75
  L 62.72 112.73
  L 58.25 115.71
  L 58.25 115.29
  L 62.21 111.75
  Z"
/>
<path d="
  M 227.54 129.50
  L 227.46 129.75
  Q 225.92 128.99 224.94 127.67
  Q 223.53 125.79 225.40 127.22
  Q 226.63 128.16 227.54 129.50
  Z"
/>
<path d="
  M 55.25 183.54
  Q 57.04 184.36 57.88 186.16
  A 0.26 0.26 0.0 0 1 57.72 186.52
  C 57.51 186.58 55.75 184.52 54.79 184.25
  L 55.25 183.54
  Z"
/>
<path d="
  M 62.30 225.13
  Q 62.57 224.50 63.07 224.03
  Q 63.93 223.24 63.61 224.36
  Q 63.38 225.16 62.77 225.54
  Q 61.88 226.10 62.30 225.13
  Z"
/>
<path d="
  M 230.86 245.66
  C 232.94 248.77 229.70 246.35 230.55 245.62
  A 0.21 0.21 0.0 0 1 230.86 245.66
  Z"
/>
<path d="
  M 138.94 291.86
  L 141.50 296.96
  L 138.54 299.75
  L 135.29 294.75
  L 138.94 291.86
  Z"
/>
<path d="
  M 127.04 307.00
  L 133.25 309.29
  Q 133.20 311.53 132.21 313.50
  L 125.00 310.79
  Q 125.48 308.63 127.04 307.00
  Z"
/>
<path d="
  M 150.46 339.75
  Q 150.88 341.73 150.46 343.75
  Q 148.62 345.39 146.29 344.75
  Q 145.84 342.88 146.29 341.00
  Q 148.19 339.75 150.46 339.75
  Z"
/>
<path d="
  M 252.21 493.00
  L 254.25 496.21
  L 253.54 496.50
  Q 251.80 495.38 250.96 493.50
  L 252.21 493.00
  Z"
/>
<path d="
  M 244.25 496.04
  L 244.96 496.00
  C 244.39 496.71 238.78 502.72 238.09 501.92
  A 0.21 0.20 48.9 0 1 238.10 501.63
  L 244.25 496.04
  Z"
/>
<path d="
  M 346.81 506.32
  Q 346.92 506.11 347.10 505.99
  Q 348.16 505.26 347.71 506.47
  Q 347.43 507.23 346.60 507.59
  A 0.26 0.26 0.0 0 1 346.23 507.34
  Q 346.24 507.07 346.44 506.94
  Q 346.51 506.88 346.81 506.32
  Z"
/>
<path d="
  M 102.04 524.00
  L 102.04 523.75
  Q 105.44 523.17 106.25 519.79
  Q 109.62 517.53 112.00 514.21
  L 116.18 510.78
  A 1.00 0.97 -66.1 0 1 116.75 510.55
  Q 117.87 510.48 116.56 511.81
  Q 107.48 521.06 97.91 529.82
  A 0.87 0.87 0.0 0 1 97.40 530.03
  C 96.73 530.06 97.05 529.48 97.33 529.28
  C 98.39 528.52 103.06 525.01 102.04 524.00
  Z"
/>
<path d="
  M 216.58 524.24
  C 214.11 527.69 215.41 523.59 216.43 523.83
  A 0.26 0.26 0.0 0 1 216.58 524.24
  Z"
/>
<path d="
  M 68.00 534.54
  Q 69.47 538.85 74.51 537.66
  Q 70.47 539.25 66.21 539.25
  Q 67.16 538.87 67.61 538.14
  A 1.01 1.00 -55.7 0 0 67.36 536.81
  L 65.00 535.04
  Q 66.40 534.02 68.00 534.54
  Z"
/>
<path d="
  M 141.25 598.79
  L 142.00 599.04
  L 138.24 603.64
  L 137.00 603.46
  Q 138.67 600.70 141.25 598.79
  Z"
/>
</g>
</svg>
